<svg version="1.2" xmlns="http://www.w3.org/2000/svg" viewBox="0 0 1000 1000" width="1000" height="1000">
	<title>3517059-ai</title>
	<defs>
		<linearGradient id="g1" x2="1" gradientUnits="userSpaceOnUse" gradientTransform="matrix(0,-374.332,196.096,0,-103.981,478.623)">
			<stop offset="0" stop-color="#00a69c"/>
			<stop offset="1" stop-color="#90278e"/>
		</linearGradient>
	</defs>
	<style>
		tspan { white-space:pre } 
		.s0 { fill: #58595b } 
		.s1 { opacity: .5;mix-blend-mode: multiply;fill: #d0d2d3 } 
		.s2 { fill: #404041 } 
		.s3 { fill: url(#g1) } 
		.s4 { fill: #6d6e70 } 
		.s5 { fill: #f05a28 } 
		.s6 { fill: #f6921e } 
		.t7 { font-size: 8px;fill: #b74426;font-weight: 900;font-family: "Montserrat-Black", "Montserrat" } 
		.s8 { fill: #ee4036 } 
		.s9 { fill: #dba228 } 
		.s10 { fill: #bbbdbf } 
		.t11 { font-size: 7px;fill: #ffffff;font-family: "O CR Aby BT" } 
		.t12 { font-size: 6px;fill: #ffffff;font-family: "O CR Aby BT" } 
		.s13 { fill: #a87c4f } 
		.s14 { fill: #754c28 } 
		.s15 { fill: #603813 } 
		.s16 { fill: #fcd94c } 
		.s17 { fill: #ffc613 } 
		.s18 { fill: #f8f080 } 
		.s19 { fill: #8a5d3b } 
		.s20 { fill: #845739 } 
		.s21 { fill: none;stroke: #c3996b;stroke-linecap: round;stroke-linejoin: round;stroke-width: 2;stroke-dasharray: 9.97368,9.97368 } 
		.s22 { fill: #f9d782 } 
		.s23 { fill: #ffffff } 
	</style>
	<g id="BACKGROUND">
	</g>
	<g id="OBJECT">
		<g id="&lt;Group&gt;">
			<g id="&lt;Group&gt;">
				<g id="&lt;Group&gt;">
					<path id="&lt;Path&gt;" class="s0" d="m196.7 174.8l0.8 68.9 32.4-61.2h-27.9z"/>
					<path id="&lt;Path&gt;" class="s1" d="m531.3 823.1l68 30.2 18.9 38.6c0 0 65.1 27.1 89 38.1 28.7 10 70.7-20 70.7-20 0 0 168.6-100 182-107.4 13.3-7.3 7.3-12.3-4.5-16.9-10.6-6-69.5-25.7-69.5-25.7 0 0-149.4 7.9-152.7 9.3-3.3 1.3-201.9 53.8-201.9 53.8z"/>
					<path id="&lt;Path&gt;" class="s1" d="m248.7 452.2c3.2-9 6.8-17.9 12.1-25.9 1.4-1.9 2.8-3.9 4.2-5.8l-32.4-14.4c-1.7-0.7-3.6-17.5-5.4-17l-118.6 50c-7.8 2.2-7.8 13.2 0 15.4 32.8 9.2 84.8 23.6 95.8 26.7 1.4 0.3 2.8 0.3 4.2 0l38.1-10.2c-0.6-6.7 0-13.2 2-18.8z"/>
					<g id="&lt;Group&gt;">
						<path id="&lt;Path&gt;" class="s2" d="m338.8 402.9l-52.1-287.5q-0.3-1.7-0.8-3.4l2.1-12.6-20.3-3.2c-4.2-0.6-8.6 0.1-12.9 1.8l-102.5 42.5c-13.5 5.6-22.3 21.9-19.7 36.3l53.1 285.1c1.8 9.9 8.8 17.2 18 19l0.5 0.1q0.4 0.1 0.7 0.2 0.1 0 0.2 0l17.4 2.7 1.2-6.8 95.2-38.2c13.6-5.4 22.5-21.6 19.9-36z"/>
						<path id="&lt;Path&gt;" class="s3" d="m334.4 436.6l-42.6 17.1-33.2 13.3-25.4 10.1q-2.9 1.2-5.7 1.5-2.2 0.1-4.2-0.1c-7.2-1-13.1-6.5-14.6-14.8l-19.2-103-33.9-182.1c-2.2-12 5.2-25.6 16.4-30.2l18.5-7.7 46.1-19.1 23-9.5 15-6.2c3.4-1.4 6.8-1.9 10-1.4 6.6 0.9 12 5.7 13.9 13.1q0.2 0.8 0.4 1.5l13.5 74.6 14.6 80.9 24 132.1c2.1 11.9-5.3 25.4-16.6 29.9z"/>
						<path id="&lt;Path&gt;" class="s2" d="m190.5 140.7l1.8 10c0.8 4.1 3.7 6.7 7.2 7.2 1.5 0.2 3.1 0 4.8-0.6l49.3-19.8c5.4-2.2 9.1-8.7 8-14.5l-2-10.9z"/>
						<path id="&lt;Compound Path&gt;" fill-rule="evenodd" class="s2" d="m169.9 143.3l102.5-42.5c4.3-1.8 8.7-2.4 12.9-1.8 9.7 1.3 17.1 8.9 19 19.2l52.1 287.5c2.6 14.4-6.3 30.6-19.9 36l-101.2 40.6c-4.2 1.6-8.6 2.2-12.8 1.6-9.7-1.3-17.3-8.9-19.2-19.2l-53.1-285.1c-2.6-14.4 6.2-30.7 19.7-36.3zm-14.2 35.3l53 285.1c1.5 8.3 7.4 13.8 14.6 14.8 3.1 0.4 6.5 0 9.9-1.4l101.2-40.5c11.3-4.5 18.7-18 16.6-29.9l-52.1-287.6c-1.5-8.2-7.2-13.6-14.3-14.6-3.2-0.5-6.6-0.1-10 1.4l-102.6 42.5c-11.2 4.7-18.6 18.2-16.3 30.2z"/>
						<path id="&lt;Path&gt;" class="s4" d="m211.7 144.9l35.4-14.3c1.2-0.5 1.8-1.9 1.3-3.2-0.5-1.2-1.9-1.8-3.2-1.3l-35.3 14.3c-1.3 0.5-1.9 1.9-1.4 3.2 0.5 1.2 1.9 1.8 3.2 1.3z"/>
						<path id="&lt;Path&gt;" class="s5" d="m325.2 396.4l-87.3 34.8c-7.3 2.9-15.6-0.7-18.5-8-2.9-7.3 0.6-15.6 7.9-18.5l87.4-34.8c7.2-2.9 15.6 0.7 18.5 8 2.9 7.3-0.7 15.6-8 18.5z"/>
						<path id="&lt;Path&gt;" class="s6" d="m329.1 398.1l-87.3 34.8c-7.3 2.9-15.6-0.7-18.5-8-2.9-7.3 0.6-15.6 7.9-18.5l87.4-34.8c7.2-2.9 15.6 0.7 18.5 8 2.9 7.3-0.7 15.6-8 18.5z"/>
						<text id="PURCHASE
" style="transform: matrix(1.854,-0.751,.092,1.998,239.494,424.666)" >
							<tspan x="0" y="0" class="t7">PURCHASE
</tspan>
						</text>
						<path id="&lt;Path&gt;" class="s0" d="m186.6 394.5q-0.1 0-0.1 0c-1.2 0.2-2.3-0.3-3-1.1q-0.6-0.7-0.8-1.7l-6.7-36.5v-0.2l-5.2-28.3c0-0.1 0-0.1 0-0.2l-5.1-28.3c-0.1-0.1 0-0.1 0-0.2l-5.2-28.3v-0.2l-5.2-28.3q-0.1-0.6 0-1.1 0 0 0 0c0.1-0.8 0.5-1.5 1.1-2 0.5-0.4 1-0.7 1.6-0.8 1.4-0.3 2.7 0.3 3.4 1.4q0.4 0.6 0.6 1.3l6.6 36.6q0 0.1 0.1 0.2l5.1 28.3q0 0.1 0 0.2l5.2 28.3q0 0.1 0 0.2l5.2 28.2c0 0.1 0 0.2 0 0.3l5 27.4 0.1 0.8c0.4 1.9-0.9 3.6-2.7 4z"/>
						<path id="&lt;Path&gt;" class="s8" d="m188.9 388.3c-1.6 1.5-3.6 2.6-5.7 3.6-0.9 0.5-1.9 0.9-2.9 1.3q-21.4 8.8-42.8 17.6-19.1 7.8-38.2 15.7c-3.5 1.4-7.7 2.8-10.9 0.8-2.7-1.8-3.5-5.3-4.1-8.5q-2.3-12.5-4.6-24.9-9.3-49.5-18.4-98.9c-0.6-2.9-1.1-6-0.4-8.9 1.8-6.7 8.6-8.6 14.3-11.1 8.1-3.6 16.4-6.9 24.6-10.4q2.9-1.2 5.8-2.4 24.6-10.1 49.1-20.3 0.5-0.2 0.9-0.4c2-0.8 4.1-1.4 6-1.3q0.4 0.5 0.5 1.2l4.2 22.9 2.4 13q0 0.1 0 0.2l5.1 27.8q0 0.1 0 0.2l5 27.7q0.1 0.1 0.1 0.2l5 27.8c0 0 0 0.1 0 0.2z"/>
						<g id="&lt;Group&gt;">
							<path id="&lt;Path&gt;" class="s9" d="m95.2 367c0.9 0.2 1.8 0.1 2.8-0.3l28.8-11.6c3.2-1.2 5.3-5.1 4.7-8.5l-2.9-15.9c-10.9 4.6-29.3 12.3-40.4 17.1l2.8 15c0.5 2.4 2.1 4 4.2 4.2z"/>
							<path id="&lt;Path&gt;" class="s9" d="m127.5 324.8c-0.4-2.3-2-3.8-4-4.1-0.9-0.1-1.9 0-2.8 0.4l-4.3 1.7-19.5 8.2-5.2 2.1c-3.2 1.3-5.3 5.2-4.6 8.5l1.6 8.9c11.7-3.9 30.4-10.3 40.9-14.1z"/>
						</g>
						<g id="&lt;Group&gt;" style="mix-blend-mode: soft-light">
							<path id="&lt;Path&gt;" class="s10" d="m298.5 117.6l-71 361q-2.2 0.1-4.2-0.1c-7.2-1-13.1-6.5-14.6-14.8l-19.2-103 47.1-239.1 23-9.5 15-6.2c3.4-1.4 6.8-1.9 10-1.4 6.6 0.9 12 5.7 13.9 13.1z"/>
						</g>
						<g id="&lt;Group&gt;" style="mix-blend-mode: soft-light">
							<path id="&lt;Path&gt;" class="s10" d="m166.3 264.3l-28.8 146.5q-19.1 7.8-38.2 15.7c-3.5 1.4-7.7 2.8-10.9 0.8-2.7-1.8-3.5-5.3-4.1-8.5q-2.3-12.5-4.6-24.9l25.9-131.7q24.6-10.1 49.1-20.3 0.5-0.2 0.9-0.4c2-0.8 4.1-1.4 6-1.3q0.4 0.5 0.5 1.2z"/>
						</g>
						<g id="&lt;Group&gt;" style="mix-blend-mode: soft-light">
							<path id="&lt;Path&gt;" class="s10" d="m327 274.6l-35.2 179.1-33.2 13.3 53.8-273.3z"/>
						</g>
						<g id="&lt;Group&gt;">
							<path id="&lt;Path&gt;" class="s0" d="m241.6 230.7q-0.2 1.3 0.1 2.8l17.7 97c0.8 4.8 5.3 7.9 10 7.3 0.1 0 0.3-0.1 0.4-0.1 4.8-0.9 8.1-5.6 7.2-10.4l-17.7-97c-0.9-4.9-5.5-8.1-10.4-7.3-1.7 0.3-3.1 1.1-4.3 2.1-1.6 1.4-2.7 3.4-3 5.6z"/>
							<path id="&lt;Path&gt;" class="s2" d="m241.6 230.7q-0.2 1.3 0.1 2.8l17.7 97c0.8 4.8 5.3 7.9 10 7.3 2.3-2 3.6-5.2 3-8.4l-17.7-97c-0.9-4.7-5.4-7.9-10.1-7.3-1.6 1.4-2.7 3.4-3 5.6z"/>
						</g>
						<text id="Credit Card
" style="transform: matrix(1.852,-0.756,.097,1.998,76.706,304.556)" >
							<tspan x="0" y="0" class="t11" dx="0 0 0 0 0 0 0 0 0 0 0 0" >Credit Card
</tspan>
						</text>
						<text id="Your Name
" style="transform: matrix(1.852,-0.756,.097,1.998,97.185,397.824)" >
							<tspan x="0" y="0" class="t12">Your Name
</tspan>
						</text>
						<text id="0123  456  789
" style="transform: matrix(1.852,-0.756,.097,1.998,101.389,412.201)" >
							<tspan x="0" y="0" class="t12">0123  456  789
</tspan>
						</text>
					</g>
					<g id="&lt;Group&gt;">
						<g id="&lt;Group&gt;">
							<path id="&lt;Path&gt;" class="s13" d="m870.9 499.6l2.2-2-8.3-3.3c-3.6-1.8-7.8-2.6-12.3-1.8l-316.6 52.9c-12.2 2.1-22.1 13.8-22.1 26.1v225.5c0 4 1.1 7.6 2.9 10.5q0 0 0 0l0.1 0.2q0.9 1.4 2 2.5l5.6 7.4 2.5-2.4c2.8 0.8 5.8 1 9 0.5l316.6-52.9c12.1-2.1 22-13.8 22-26.1v-225.5c0-4.5-1.3-8.4-3.6-11.6z"/>
							<path id="&lt;Path&gt;" class="s14" d="m885.9 515.9v228.6c0 12.4-10.1 24.3-22.4 26.3l-320.7 53.7c-12.3 2-22.3-6.5-22.3-18.9v-228.6c0-12.4 10-24.3 22.3-26.4l320.7-53.6c12.3-2 22.4 6.5 22.4 18.9z"/>
							<path id="&lt;Path&gt;" class="s15" d="m885.9 540v204.5c0 12.4-10.1 24.3-22.4 26.3l-320.7 53.7c-12.3 2-22.3-6.5-22.3-18.9v-204.5z"/>
							<g id="&lt;Group&gt;">
								<path id="&lt;Path&gt;" class="s16" d="m731.2 598.3c-7.4 13.8-17.5 23.1-29 27.1v2l-9.7 0.1c-0.4 0-0.8 0.1-1.3 0.2q-2.5 0.1-5-0.1h-0.3l-0.1-0.1q-3.5-0.3-7.1-1.2c-26.6-7.4-46.7-41.6-48.9-83.2-1.2-22.7 3.2-44.4 12.3-61.2 9.3-17.2 22.6-27.3 37.6-29l0.1-0.2h1c0.5 0 0.9-0.1 1.3-0.1q2-0.1 4.1 0l14.1-0.3 0.1 3.7c23.7 10.4 41.1 42.6 43.1 81.1 1.2 22.7-3.2 44.4-12.3 61.2z"/>
								<g id="&lt;Group&gt;">
									<path id="&lt;Path&gt;" class="s17" d="m708.4 457.8c-3.6-1-7.4-1.5-11.1-1.3-14.4 0.8-27.4 10.4-36.5 27.2-8.7 16.1-12.9 37-11.7 58.9 2 39.8 20.9 72.4 45.8 79.3 3.6 1 7.4 1.4 11.1 1.2 29-1.5 50.7-40.1 48.3-86-2.1-39.8-21-72.5-45.9-79.3z"/>
									<path id="&lt;Compound Path&gt;" fill-rule="evenodd" class="s18" d="m693.7 626c-26.6-7.3-46.7-41.6-48.9-83.2-1.2-22.7 3.2-44.4 12.3-61.1 9.8-18.1 24-28.6 40-29.4 4.2-0.2 8.4 0.2 12.5 1.4 26.6 7.3 46.7 41.5 48.9 83.2 1.2 22.6-3.2 44.3-12.2 61.1-9.9 18.1-24.1 28.5-40.1 29.4-4.1 0.2-8.3-0.3-12.5-1.4zm12.1-7.1c26.7-1.4 46.5-37.9 44.2-81.6-2-38.2-20.2-69.2-42.7-75.4q-4.8-1.4-9.8-1.1c-26.7 1.4-46.5 37.9-44.2 81.6 2 38.2 20.3 69.2 42.7 75.4q4.8 1.3 9.8 1.1z"/>
								</g>
								<path id="&lt;Path&gt;" class="s9" d="m685.3 540.1q0.3 3.2 1.1 5.3 0.9 2.1 2.7 3 0.8 0.5 1.8 0.7l2 0.6-0.3-0.5c0.3 0 0.5 0.1 0.8 0.1q2.6-0.1 6.2-1.2 3.4-1.1 5.7-1.7 2.4-0.7 3.9-0.8 1.5 0 2.3 0.7 0.7 0.8 0.9 2.6 0.1 1.5-0.4 3-0.5 1.5-1.5 3-0.9 1.4-2.3 2.7-1.4 1.2-2.9 2.2-3.6 2.1-5.5 1.8c-0.9-0.2-1.6-0.6-2.2-1.1l0.6-0.9-2.4-0.6q-0.6-0.2-1.6 0.4l-4.2 2.5q-0.6 0.4-1.1 1.2-0.4 0.9-0.3 1.8 0.3 1.8 1.2 3.5 1 1.7 2.6 2.8 1.7 1 4 1.3 2.3 0.2 5.3-0.9l0.5 5.5q0 0.8 0.6 1.2c0 0 0.1 0 0.2 0.1q0 0 0 0l2.2 0.6c0 0 0.3-1.1 0.5-1.8l3.1-1.9q0.6-0.3 1.1-1.3 0.4-0.9 0.3-1.7l-0.4-5.4q2.5-2.1 4.6-4.8 2.1-2.7 3.5-5.7 1.4-3.1 2.1-6.2 0.7-3.1 0.4-6.1-0.3-3.6-1.2-5.7c-0.4-0.8-0.9-1.5-1.4-2.1l-0.4-1.1-2.4-0.6q-0.1 0-0.2-0.1h-0.2c-0.6-0.1-1.2-0.2-1.9-0.2q-2.3 0.1-5.4 0.9-3.4 0.9-5.9 1.7-2.6 0.8-4.3 1-1.8 0.3-2.7-0.3-0.9-0.6-1.1-2.4-0.1-1.8 0.5-3.4 0.7-1.7 1.9-3.3 1.2-1.5 2.8-2.9 1.6-1.3 3.4-2.4 2.3-1.4 3.8-1.8 1.6-0.4 2.7-0.2 1.1 0.2 1.7 0.8 0.7 0.7 1.2 1.5 0.5 0.7 1 0.8c0 0.3 2.4 0.7 2.4 0.7 0 0 0-0.9-0.1-1.5l3.5-2.1q0.6-0.4 1.1-1.3 0.4-0.9 0.3-1.8-0.4-2.9-1.6-4.7-1.3-1.8-3.2-2.7-1.9-0.8-4.4-0.7-2.4 0.1-5.2 1.2l-0.3-4.3c0.4 0 0.9 0.1 0.9 0.1l0.5-1.8-2.4-0.6c0 0 0 0 0 0-0.3-0.1-0.6-0.1-0.9 0.1l-4.8 2.9q-0.7 0.4-1.1 1.3-0.4 0.9-0.3 1.8l0.4 5.3q-3 2.4-5.4 5.3-2.3 2.9-3.8 6-1.5 3.1-2.2 6.3-0.7 3.2-0.4 6.3z"/>
								<g id="&lt;Group&gt;">
									<path id="&lt;Compound Path&gt;" class="s18" d="m704.1 572.3q-2.9 1-5.3 0.8-2.3-0.2-3.9-1.3-1.7-1-2.7-2.7-0.9-1.7-1.2-3.5-0.1-0.9 0.3-1.8 0.5-0.9 1.2-1.3l4.1-2.5q1-0.6 1.6-0.4 0.5 0.2 1 0.8 1.1 1.5 3 1.8 1.9 0.4 5.5-1.8 1.5-0.9 2.9-2.2 1.4-1.2 2.3-2.7 1-1.4 1.5-2.9 0.5-1.6 0.4-3.1-0.2-1.8-0.9-2.5-0.8-0.8-2.3-0.7-1.5 0.1-3.9 0.7-2.3 0.7-5.7 1.7-3.6 1.1-6.2 1.3-2.6 0.1-4.3-0.9-1.7-1-2.6-3.1-0.9-2.1-1.2-5.3-0.3-3 0.4-6.2 0.7-3.2 2.2-6.3 1.5-3.2 3.8-6 2.4-2.9 5.4-5.3l-0.4-5.3q-0.1-0.9 0.3-1.8 0.4-0.9 1.1-1.3l4.8-2.9q0.7-0.4 1.2-0.1 0.5 0.4 0.6 1.2l0.4 5.4q2.8-1.1 5.2-1.2 2.5-0.1 4.4 0.7 1.9 0.8 3.2 2.6 1.3 1.9 1.6 4.8 0.2 0.9-0.3 1.8-0.5 0.9-1.1 1.2l-4.2 2.5q-1 0.6-1.6 0.5-0.5-0.1-1-0.9-0.5-0.7-1.1-1.4-0.7-0.7-1.8-0.8-1.1-0.2-2.6 0.2-1.6 0.4-3.9 1.7-1.7 1.1-3.4 2.5-1.6 1.3-2.8 2.9-1.2 1.6-1.8 3.2-0.7 1.7-0.6 3.5 0.2 1.7 1.1 2.3 0.9 0.6 2.7 0.4 1.7-0.2 4.3-1 2.6-0.8 5.9-1.7 3.1-0.8 5.4-0.9 2.3 0 4 1 1.6 1 2.5 3.1 0.9 2.1 1.2 5.6 0.3 3.1-0.4 6.2-0.7 3.1-2.1 6.1-1.4 3-3.5 5.7-2.1 2.7-4.6 4.9l0.4 5.3q0.1 0.9-0.3 1.8-0.5 0.9-1.1 1.3l-4.8 2.9q-0.7 0.4-1.2 0.1-0.5-0.4-0.6-1.2z"/>
								</g>
							</g>
							<path id="&lt;Path&gt;" class="s5" d="m813.8 677.1c0.9-27.2 2.1-54.3 2.5-81.5l-253.8 42.4c-12.3 2.1-22.3 13.9-22.3 26.4v116.2l272.9-45.6c-3.2-18.6 0.1-39.9 0.7-57.9z"/>
							<path id="&lt;Path&gt;" class="s19" d="m885.9 628.2v116.3c0 12.4-10.1 24.3-22.4 26.3l-320.7 53.7c-12.3 2-22.3-6.5-22.3-18.9v-116.3z"/>
							<path id="&lt;Path&gt;" class="s13" d="m891 506.6l-12.6-7.1c-3.8-2.5-9-2.7-14.7-0.1l-243.8 110.3c-11.3 5.1-20.6 19.5-20.6 31.9v228.6c0 7.2 3.2 12.2 8 14.2l10.9 7.5 8-11.3 237.5-107.5c11.3-5.1 20.6-19.5 20.6-31.9v-225.2z"/>
							<path id="&lt;Path&gt;" class="s19" d="m897.9 520.6v228.5c0 12.4-9.3 26.8-20.6 32l-220.9 100-22.9 10.3c-11.4 5.1-20.6-0.9-20.6-13.3v-228.5c0-12.5 9.2-26.9 20.6-32l243.8-110.3c11.3-5.2 20.6 0.8 20.6 13.3z"/>
							<path id="&lt;Path&gt;" class="s20" d="m897.9 531.7v217.4c0 12.4-9.3 26.8-20.6 32l-220.9 100z"/>
							<g id="&lt;Group&gt;">
								<path id="&lt;Path&gt;" class="s21" d="m885.9 535.6v209.3c0 11.4-8.5 24.6-18.9 29.3l-223.2 101c-10.4 4.7-18.9-0.8-18.9-12.2v-209.3c0-11.3 8.5-24.5 18.9-29.2l223.2-101.1c10.4-4.7 18.9 0.8 18.9 12.2z"/>
							</g>
						</g>
						<path id="&lt;Path&gt;" class="s15" d="m673.4 741.5c0 11-6.1 21.7-16.6 26.9l-46.8 23.3v-67l20.1-10c14.8-7.3 32.9-1.3 40.2 13.5 2.1 4.3 3.1 8.8 3.1 13.3z"/>
						<path id="&lt;Path&gt;" class="s14" d="m676.3 744.4c0 11-6.1 21.7-16.6 26.9l-46.8 23.3v-67l20.1-10c14.8-7.3 32.8-1.2 40.2 13.5 2.1 4.3 3.1 8.8 3.1 13.3z"/>
						<g id="&lt;Group&gt;">
							<path id="&lt;Path&gt;" class="s15" d="m509.9 711.6c-18.1-2-34.6 11.1-36.7 29.2-2 18.1 11.1 34.6 29.2 36.6l110.5 12.5v-66.7z"/>
						</g>
						<g id="&lt;Group&gt;">
							<path id="&lt;Path&gt;" class="s14" d="m509.9 715.9c-18.1-2-34.6 11.1-36.7 29.2-2 18.1 11.1 34.6 29.2 36.6l110.5 12.5v-66.6z"/>
						</g>
						<path id="&lt;Path&gt;" class="s9" d="m526 747.4c0 11.5-9.3 20.9-20.9 20.9-11.5 0-20.9-9.4-20.9-20.9 0-11.6 9.4-20.9 20.9-20.9 11.6 0 20.9 9.3 20.9 20.9z"/>
						<path id="&lt;Path&gt;" class="s17" d="m526 748.9c0 11.3-9.1 20.4-20.3 20.4-5.1 0-9.7-1.9-13.3-5-4.3-3.7-7-9.2-7-15.4 0-11.2 9.1-20.3 20.3-20.3 2.7 0 5.3 0.5 7.6 1.5 7.5 3 12.7 10.3 12.7 18.8z"/>
						<path id="&lt;Path&gt;" class="s22" d="m520.3 745.4c0 11.3-9.1 20.4-20.3 20.4-2.7 0-5.3-0.6-7.6-1.5-4.3-3.7-7-9.2-7-15.4 0-11.2 9.1-20.3 20.3-20.3 2.7 0 5.3 0.5 7.6 1.5 4.3 3.7 7 9.2 7 15.3z"/>
					</g>
					<g id="&lt;Group&gt;">
						<path id="&lt;Path&gt;" class="s16" d="m263.2 252.3c2.1-7.4 5.8-13 10.9-16.1l-0.3-1 4.6-1.1c0.2 0 0.4-0.1 0.6-0.2q1.2-0.3 2.5-0.5h0.1q1.8-0.3 3.5-0.2c13.5 0.6 26.9 14.6 32.5 34.2 3 10.7 3.4 21.5 0.9 30.4-2.6 9.3-7.8 15.6-14.7 18l-0.1 0.1-0.5 0.1c-0.2 0.1-0.3 0.2-0.5 0.2q-1 0.3-2 0.5l-6.7 1.7-0.4-1.8c-12.5-2.4-24.3-15.7-29.5-33.9-3-10.6-3.4-21.4-0.9-30.4z"/>
						<g id="&lt;Group&gt;">
							<path id="&lt;Path&gt;" class="s17" d="m289.5 316.7q2.8 0.1 5.5-0.7c6.8-1.9 11.9-7.9 14.4-16.9 2.3-8.6 2-19.1-0.9-29.3-5.4-18.8-18-32.2-30.6-32.8q-2.8-0.1-5.4 0.7c-13.6 3.9-19.7 24.6-13.5 46.2 5.4 18.8 17.9 32.2 30.5 32.8z"/>
							<path id="&lt;Compound Path&gt;" fill-rule="evenodd" class="s18" d="m278 235c13.5 0.5 26.9 14.6 32.5 34.2 3 10.6 3.3 21.4 0.9 30.4-2.7 9.7-8.3 16.3-15.9 18.4q-2.9 0.9-6.1 0.7c-13.4-0.5-26.8-14.6-32.4-34.2-3-10.6-3.4-21.5-0.9-30.4 2.7-9.7 8.3-16.3 15.8-18.4q3-0.9 6.1-0.7zm-4.9 4.7c-12.6 3.6-18 23.1-12.1 43.7 5.2 17.9 17.3 30.7 28.6 31.2q2.5 0.1 4.8-0.6c12.6-3.6 18-23.1 12.1-43.7-5.2-18-17.3-30.7-28.6-31.2q-2.5-0.1-4.8 0.6z"/>
						</g>
						<path id="&lt;Path&gt;" class="s9" d="m291.5 274.9q-0.5-1.5-1.1-2.4-0.7-0.9-1.6-1.1-0.5-0.2-1-0.1l0.1-0.1h-1.1l0.2 0.2c-0.1 0-0.2 0-0.4 0q-1.2 0.4-2.8 1.3-1.5 0.9-2.5 1.4-1.1 0.6-1.8 0.8-0.7 0.2-1.1-0.1-0.5-0.2-0.8-1.1-0.2-0.7-0.1-1.5 0.1-0.7 0.4-1.5 0.3-0.8 0.8-1.6 0.5-0.7 1.1-1.3 1.5-1.5 2.4-1.5c0.5 0 0.9 0.1 1.2 0.3l-0.2 0.4 1.2 0.1q0.3 0 0.7-0.4l1.7-1.6q0.3-0.3 0.4-0.7 0.2-0.5 0-0.9-0.3-0.9-1-1.6-0.6-0.7-1.5-1-0.9-0.3-2.1-0.2-1.1 0.2-2.4 1l-0.8-2.5q-0.1-0.4-0.4-0.5-0.1 0-0.1 0 0 0 0-0.1h-1.1c0 0-0.1 0.6-0.1 0.9l-1.3 1.2q-0.2 0.3-0.3 0.8-0.1 0.4 0 0.8l0.8 2.5q-1 1.4-1.7 2.9-0.7 1.5-1 3.1-0.3 1.6-0.3 3.1 0 1.6 0.5 3 0.5 1.6 1.2 2.5 0.4 0.6 0.8 0.9l0.4 0.5h1.2q0 0 0.1 0h0.1q0.4 0 0.9-0.1 1.1-0.3 2.5-1 1.5-0.8 2.6-1.5 1.1-0.6 1.9-1 0.8-0.3 1.4-0.1 0.5 0.2 0.7 1 0.3 0.9 0.1 1.7-0.1 0.9-0.5 1.8-0.4 0.9-1 1.7-0.6 0.8-1.4 1.5-0.9 0.9-1.6 1.3-0.7 0.3-1.2 0.4-0.5 0-0.9-0.2-0.4-0.3-0.8-0.6-0.2-0.3-0.5-0.3c-0.1-0.1-1.3-0.1-1.3-0.1 0 0 0.2 0.5 0.3 0.8l-1.4 1.3q-0.3 0.3-0.4 0.8-0.2 0.4 0 0.9 0.5 1.3 1.3 2 0.8 0.8 1.8 0.9 1 0.2 2.2-0.1 1.1-0.3 2.3-1.1l0.7 2c-0.3 0-0.5 0-0.5 0v0.9l1.2 0.1q0 0 0 0 0.2 0 0.4-0.2l2-1.9q0.2-0.3 0.3-0.8 0.1-0.4 0-0.8l-0.8-2.5q1.2-1.5 2-3.1 0.8-1.6 1.1-3.3 0.4-1.7 0.4-3.2 0-1.6-0.5-3.1z"/>
						<g id="&lt;Group&gt;">
							<path id="&lt;Compound Path&gt;" class="s18" d="m279 261.7q1.3-0.8 2.4-1 1.2-0.2 2.1 0.2 0.9 0.3 1.5 1 0.6 0.7 1 1.5 0.1 0.4 0 0.9-0.1 0.5-0.4 0.7l-1.7 1.7q-0.4 0.4-0.7 0.3-0.3 0-0.6-0.2-0.6-0.6-1.6-0.5-0.9 0-2.4 1.4-0.6 0.6-1.1 1.4-0.6 0.7-0.9 1.5-0.3 0.8-0.3 1.6-0.1 0.8 0.1 1.5 0.3 0.8 0.7 1.1 0.5 0.3 1.2 0.1 0.7-0.2 1.8-0.8 1-0.6 2.5-1.4 1.6-1 2.8-1.3 1.2-0.4 2.2-0.1 0.9 0.3 1.5 1.2 0.7 0.9 1.2 2.4 0.4 1.4 0.5 3 0 1.6-0.4 3.3-0.4 1.6-1.1 3.2-0.8 1.7-2 3.1l0.8 2.5q0.1 0.4 0 0.9-0.1 0.5-0.4 0.7l-1.9 1.9q-0.3 0.3-0.6 0.2-0.3-0.1-0.4-0.5l-0.8-2.5q-1.2 0.8-2.3 1.1-1.2 0.4-2.2 0.2-1-0.2-1.8-0.9-0.8-0.8-1.3-2.1-0.2-0.4-0.1-0.9 0.2-0.5 0.4-0.7l1.7-1.7q0.5-0.4 0.7-0.4 0.3 0.1 0.6 0.3 0.3 0.4 0.7 0.6 0.4 0.2 1 0.2 0.5 0 1.2-0.4 0.7-0.4 1.6-1.2 0.8-0.8 1.4-1.6 0.6-0.8 1-1.7 0.4-0.9 0.5-1.7 0.2-0.9-0.1-1.7-0.3-0.8-0.8-1-0.5-0.2-1.3 0.1-0.8 0.3-1.9 1-1.2 0.6-2.7 1.4-1.3 0.7-2.4 1-1.1 0.3-2 0-0.9-0.3-1.6-1.2-0.6-0.9-1.2-2.6-0.4-1.4-0.4-2.9-0.1-1.6 0.3-3.2 0.3-1.6 1-3.1 0.7-1.5 1.7-2.8l-0.8-2.5q-0.1-0.4 0-0.9 0.1-0.5 0.3-0.7l2-1.9q0.3-0.3 0.6-0.2 0.2 0.1 0.4 0.5z"/>
						</g>
					</g>
					<g id="&lt;Group&gt;">
						<path id="&lt;Path&gt;" class="s16" d="m432.9 221.1c9.7-3.7 18.8-4.1 26.3-1.2l0.9-1 4.9 4.2c0.2 0.1 0.5 0.3 0.7 0.4q1.4 1.1 2.6 2.3l0.1 0.1q1.7 1.7 3 3.7c10.3 15.2 5.7 41.1-11.1 63.1-9.2 11.9-20.7 21-32.5 25.6-12.1 4.6-23.2 4-31.5-1.6h-0.1l-0.6-0.4c-0.2-0.1-0.4-0.3-0.7-0.4q-1.1-0.9-2-1.8l-7.3-5.9 1.6-2c-7.5-15.4-2.4-39.2 13.2-59.5 9.1-11.9 20.7-21 32.5-25.6z"/>
						<g id="&lt;Group&gt;">
							<path id="&lt;Path&gt;" class="s17" d="m383.9 301.9c1.4 2.1 3.1 3.9 5.1 5.4 7.6 5.8 18.3 6.6 30.1 2 11.3-4.4 22.4-13.1 31.3-24.7 16.1-21 20.6-45.5 11-59.7-1.4-2.1-3.1-3.9-5.1-5.5-15.3-11.7-42.8-1.5-61.4 22.7-16.1 21-20.6 45.6-11 59.8z"/>
							<path id="&lt;Compound Path&gt;" fill-rule="evenodd" class="s18" d="m463.8 223.3c10.2 15.2 5.7 41.1-11.2 63.1-9.1 11.9-20.7 21-32.5 25.5-12.8 5-24.4 4.1-32.9-2.4-2.2-1.7-4.1-3.7-5.7-6-10.2-15.2-5.7-41.2 11.2-63.1 9.1-12 20.7-21 32.5-25.6 12.7-4.9 24.4-4.1 32.8 2.4 2.2 1.7 4.2 3.7 5.8 6.1zm-9.2-1.6c-14.1-10.8-39.8-0.9-57.5 22.1-15.4 20.2-19.6 43.7-10.9 56.5q1.8 2.7 4.5 4.8c14.1 10.8 39.8 0.8 57.4-22.2 15.5-20.1 19.6-43.7 11-56.5q-1.9-2.7-4.5-4.7z"/>
						</g>
						<path id="&lt;Path&gt;" class="s9" d="m431 270.3q1.3-1.7 1.7-3.2 0.5-1.4 0-2.6-0.2-0.6-0.6-1.2l-0.8-1.1-0.1 0.3c-0.1-0.1-0.2-0.2-0.3-0.3q-1.4-1.1-3.7-2.1-2.1-0.9-3.6-1.6-1.5-0.7-2.3-1.3-0.8-0.6-0.8-1.3-0.1-0.7 0.6-1.7 0.6-0.8 1.5-1.4 0.9-0.5 2-0.8 1.2-0.3 2.4-0.4 1.2-0.1 2.4 0.1 2.7 0.5 3.5 1.5c0.4 0.5 0.6 1 0.7 1.5l-0.7 0.2 1 1.4q0.1 0.3 0.9 0.4l3.2 0.6q0.5 0 1.1-0.2 0.6-0.3 0.9-0.8 0.7-1 0.9-2.3 0.3-1.2-0.1-2.5-0.4-1.2-1.5-2.3-1-1.1-3-1.9l2.1-3q0.4-0.4 0.2-0.8 0-0.1 0-0.2 0 0 0 0l-0.9-1.2c0 0-0.6 0.4-1 0.7l-2.4-0.4q-0.5-0.1-1.1 0.2-0.6 0.3-0.9 0.7l-2.1 2.9q-2.2 0-4.4 0.5-2.2 0.4-4.2 1.3-2 1-3.7 2.2-1.7 1.3-2.9 3-1.4 1.9-1.8 3.3c-0.2 0.6-0.2 1.2-0.2 1.7l-0.3 0.7 1 1.4q0 0 0.1 0.1v0.1q0.4 0.5 0.9 0.9 1.2 1 3.1 1.9 2.1 1 3.7 1.7 1.7 0.7 2.6 1.3 1 0.7 1.2 1.3 0.2 0.7-0.4 1.7-0.7 1-1.8 1.5-1 0.6-2.3 0.8-1.3 0.3-2.7 0.3-1.4 0-2.8-0.2-1.7-0.3-2.6-0.8-1-0.5-1.5-1-0.4-0.6-0.5-1.2-0.1-0.6 0-1.2 0.1-0.6-0.1-0.9c0.1-0.1-0.9-1.4-0.9-1.4 0 0-0.4 0.5-0.7 0.9l-2.6-0.5q-0.5-0.1-1.1 0.2-0.6 0.2-0.9 0.8-1.1 1.6-1.2 3-0.2 1.5 0.4 2.8 0.6 1.2 1.9 2.2 1.3 1 3.1 1.6l-1.6 2.4c-0.2-0.2-0.5-0.5-0.5-0.5l-1 0.7 1 1.4q0-0.1 0-0.1c0.1 0.2 0.2 0.3 0.5 0.4l3.7 0.6q0.5 0.1 1.1-0.2 0.6-0.3 0.9-0.8l2.1-2.8q2.5 0.1 5-0.4 2.4-0.4 4.5-1.4 2.1-0.9 3.8-2.2 1.7-1.3 2.9-3z"/>
						<g id="&lt;Group&gt;">
							<path id="&lt;Compound Path&gt;" class="s18" d="m435.4 245.9q1.9 0.8 3 1.9 1.1 1.1 1.5 2.3 0.3 1.3 0.1 2.6-0.2 1.2-0.9 2.2-0.3 0.6-0.9 0.8-0.6 0.3-1.1 0.2l-3.2-0.5q-0.8-0.2-1-0.5-0.2-0.4-0.1-0.9 0-1.1-0.8-2.2-0.8-1-3.5-1.4-1.2-0.2-2.4-0.2-1.3 0.1-2.4 0.4-1.1 0.3-2 0.9-0.9 0.5-1.5 1.3-0.7 1-0.6 1.7 0 0.7 0.8 1.3 0.8 0.6 2.3 1.3 1.4 0.7 3.6 1.6 2.3 1 3.7 2.1 1.3 1 1.8 2.3 0.4 1.2 0 2.7-0.5 1.4-1.7 3.1-1.2 1.7-2.9 3-1.7 1.3-3.9 2.3-2.1 0.9-4.5 1.3-2.4 0.5-5 0.4l-2 2.9q-0.4 0.4-1 0.7-0.6 0.3-1.1 0.2l-3.6-0.6q-0.5-0.1-0.7-0.5-0.1-0.4 0.2-0.9l2.1-2.8q-1.8-0.7-3.1-1.7-1.3-1-1.9-2.2-0.6-1.3-0.5-2.7 0.2-1.5 1.2-3.1 0.3-0.5 1-0.8 0.6-0.2 1.1-0.2l3.2 0.6q0.7 0.1 1 0.4 0.2 0.3 0.1 0.9-0.1 0.6 0 1.2 0 0.7 0.5 1.2 0.5 0.6 1.4 1 1 0.5 2.7 0.8 1.4 0.2 2.8 0.2 1.4 0.1 2.7-0.2 1.2-0.3 2.3-0.9 1.1-0.5 1.7-1.5 0.7-0.9 0.5-1.6-0.2-0.7-1.2-1.4-1-0.6-2.6-1.3-1.6-0.7-3.7-1.7-1.9-0.9-3.1-1.9-1.2-1-1.6-2.2-0.4-1.2 0.1-2.6 0.4-1.5 1.8-3.4 1.2-1.7 2.8-2.9 1.7-1.3 3.7-2.2 2-1 4.3-1.4 2.2-0.5 4.4-0.5l2.1-2.9q0.3-0.4 0.9-0.7 0.6-0.3 1.1-0.2l3.7 0.6q0.5 0.1 0.6 0.5 0.1 0.4-0.2 0.9z"/>
						</g>
					</g>
					<g id="&lt;Group&gt;">
						<path id="&lt;Path&gt;" class="s16" d="m638.9 315.1c11.2 7.1 18.4 16.1 21.1 25.9l1.7 0.1-0.5 8.1c0 0.4 0.1 0.8 0.1 1.1q-0.1 2.2-0.4 4.3v0.2 0.1q-0.5 2.9-1.5 5.8c-7.7 22-37.5 36.9-72.6 36.4-19.1-0.3-37-5.2-50.6-13.8-13.9-8.8-21.7-20.5-22.2-33.2l-0.1-0.1v-0.9c0-0.3-0.1-0.7-0.1-1q0.1-1.8 0.3-3.5l0.5-11.9 3.2 0.2c10.1-19.3 38-32.1 70.5-31.6 19.1 0.3 37 5.2 50.6 13.8z"/>
						<g id="&lt;Group&gt;">
							<path id="&lt;Path&gt;" class="s17" d="m519.7 326.2c-1.1 3.1-1.6 6.2-1.7 9.3-0.2 12.2 7.2 23.6 20.7 32.2 13.1 8.2 30.4 12.9 48.8 13.2 33.5 0.5 62-13.4 69.2-33.9 1-3.1 1.6-6.2 1.6-9.3 0.4-24.4-30.8-44.8-69.4-45.4-33.6-0.5-62 13.4-69.2 33.9z"/>
							<path id="&lt;Compound Path&gt;" fill-rule="evenodd" class="s18" d="m660 348.1c-7.7 22-37.5 36.9-72.6 36.4-19-0.3-37-5.2-50.6-13.8-14.6-9.3-22.5-21.8-22.3-35.2 0-3.6 0.6-7.1 1.8-10.4 7.7-22 37.6-36.9 72.6-36.4 19.1 0.3 37.1 5.2 50.6 13.8 14.7 9.3 22.6 21.8 22.4 35.2-0.1 3.6-0.7 7.1-1.9 10.4zm-5.2-10.5c0.3-22.5-29.2-41.2-66-41.7-32.2-0.5-59.3 13-65.7 31.5q-1.4 4-1.5 8.2c-0.3 22.5 29.2 41.1 66 41.7 32.1 0.5 59.2-13 65.7-31.5q1.4-4 1.5-8.2z"/>
						</g>
						<path id="&lt;Path&gt;" class="s9" d="m587.4 350.3q2.8 0 4.6-0.6 1.8-0.7 2.7-2.1 0.4-0.6 0.6-1.4l0.6-1.7-0.3 0.2c0-0.2 0-0.4 0-0.6q0.1-2.2-0.6-5.3-0.7-2.9-1.1-4.9-0.5-2-0.4-3.3 0-1.3 0.7-1.9 0.7-0.6 2.2-0.6 1.2 0 2.5 0.5 1.2 0.5 2.4 1.4 1.2 0.9 2.1 2.1 1 1.2 1.7 2.6 1.6 3.1 1.2 4.7c-0.2 0.7-0.6 1.3-1 1.8l-0.7-0.6-0.7 2q-0.2 0.5 0.2 1.4l1.9 3.6q0.3 0.6 1 1 0.7 0.4 1.5 0.4 1.5-0.2 3-0.9 1.5-0.7 2.5-2 0.9-1.3 1.2-3.3 0.4-1.9-0.4-4.4l4.7-0.1q0.7 0 1-0.5c0.1 0 0.1-0.1 0.1-0.1q0 0 0 0l0.6-1.8c0 0-0.9-0.3-1.4-0.5l-1.4-2.8q-0.3-0.5-1.1-0.9-0.7-0.4-1.4-0.4h-4.5q-1.7-2.2-3.8-4.1-2.2-1.9-4.6-3.3-2.5-1.3-5.1-2.1-2.5-0.7-5.1-0.7-3 0.1-4.8 0.7c-0.7 0.3-1.3 0.6-1.9 1.1l-0.9 0.3-0.7 1.9q0 0.1 0 0.2l-0.1 0.2h0.1q-0.3 0.7-0.3 1.5-0.1 2 0.4 4.6 0.6 2.9 1.1 5.1 0.5 2.1 0.6 3.6 0.1 1.5-0.4 2.3-0.6 0.7-2 0.7-1.6 0.1-2.9-0.6-1.4-0.7-2.6-1.7-1.3-1.1-2.3-2.6-1.1-1.4-1.9-3-1-2-1.2-3.3-0.3-1.3-0.1-2.2 0.2-0.9 0.8-1.4 0.6-0.6 1.3-0.9 0.6-0.4 0.8-0.8c0.2 0 0.7-2 0.7-2 0 0-0.8 0-1.3 0l-1.6-3q-0.3-0.6-1-1-0.7-0.5-1.5-0.4-2.4 0.1-4 1.1-1.6 1-2.4 2.5-0.8 1.6-0.9 3.7 0 2 0.7 4.4h-3.6c0-0.3 0.1-0.7 0.1-0.7l-1.5-0.5-0.6 1.9q0 0 0 0c-0.1 0.2-0.1 0.5 0.1 0.8l2.1 4.2q0.3 0.5 1.1 0.9 0.7 0.5 1.4 0.4h4.5q1.9 2.7 4.1 4.8 2.3 2.1 4.8 3.5 2.6 1.5 5.2 2.2 2.7 0.8 5.2 0.7z"/>
						<g id="&lt;Group&gt;">
							<path id="&lt;Compound Path&gt;" class="s18" d="m615.5 336.4q0.7 2.5 0.4 4.5-0.3 1.9-1.2 3.2-1 1.4-2.5 2.1-1.5 0.7-3 0.8-0.8 0-1.5-0.4-0.7-0.4-1-1l-1.9-3.6q-0.4-0.9-0.2-1.4 0.2-0.4 0.7-0.8 1.3-0.8 1.7-2.4 0.4-1.6-1.2-4.7-0.7-1.4-1.7-2.6-1-1.2-2.1-2.1-1.2-0.9-2.4-1.4-1.3-0.5-2.5-0.5-1.6 0.1-2.2 0.6-0.7 0.6-0.7 1.9-0.1 1.3 0.4 3.3 0.4 2 1.1 4.9 0.7 3.1 0.6 5.3 0 2.2-0.9 3.6-0.9 1.4-2.7 2-1.9 0.6-4.6 0.7-2.5 0-5.2-0.7-2.6-0.8-5.2-2.2-2.5-1.5-4.8-3.6-2.3-2.1-4.1-4.8l-4.5 0.1q-0.7 0-1.5-0.4-0.7-0.4-1-1l-2.1-4.2q-0.3-0.6 0-1 0.3-0.4 1-0.5h4.5q-0.7-2.4-0.7-4.4 0.1-2.1 0.9-3.7 0.8-1.5 2.4-2.5 1.6-0.9 4-1.1 0.8-0.1 1.5 0.4 0.7 0.4 1 1l1.9 3.6q0.4 0.9 0.3 1.4-0.2 0.4-0.8 0.8-0.7 0.3-1.3 0.9-0.6 0.5-0.8 1.4-0.2 0.9 0.1 2.2 0.2 1.4 1.2 3.3 0.8 1.6 1.9 3 1 1.5 2.2 2.6 1.3 1.1 2.7 1.7 1.3 0.7 2.9 0.6 1.4 0 2-0.7 0.5-0.8 0.4-2.2-0.1-1.5-0.6-3.7-0.5-2.2-1.1-5.1-0.5-2.6-0.4-4.6 0.1-1.9 1-3.2 1-1.3 2.8-2 1.8-0.6 4.8-0.7 2.6 0 5.1 0.7 2.6 0.8 5.1 2.1 2.4 1.4 4.6 3.3 2.1 1.9 3.8 4.2l4.5-0.1q0.7 0 1.4 0.4 0.8 0.4 1.1 1l2.1 4.2q0.3 0.5 0 1-0.3 0.4-1 0.4z"/>
						</g>
					</g>
				</g>
				<path id="&lt;Path&gt;" class="s1" d="m449.2 746c0 0-51-19.6-86-56.8l-6.9 13.4c-11.8-3.8-23.6-8.6-35.2-14.4-75.8-38.3-121.1-109.4-118.6-175.8-34.8 77.3 12.1 176.9 107.3 224.9q11.5 5.8 23.3 10.2l-10.7 20.8c0 0 63.4-3.7 126.8-22.3z"/>
				<path id="&lt;Path&gt;" class="s23" d="m449.2 182.5c0 0 0.1 25-15.2 29.2 15.3 4.1 15.2 29.1 15.2 29.1 0 0 0-25 15.2-29.1-15.2-4.2-15.2-29.2-15.2-29.2z"/>
				<path id="&lt;Path&gt;" class="s23" d="m658.3 258.7c0 0 0.1 21.7-13.1 25.3 13.2 3.5 13.1 25.2 13.1 25.2 0 0 0-21.7 13.2-25.2-13.2-3.6-13.2-25.3-13.2-25.3z"/>
				<path id="&lt;Path&gt;" class="s23" d="m294.9 215.9c0 0 0 14.8-9 17.3 9 2.4 9 17.2 9 17.2 0 0 0-14.8 9-17.2-9-2.5-9-17.3-9-17.3z"/>
				<path id="&lt;Path&gt;" class="s23" d="m542.4 353.8c0 0 0 14.8-9 17.2 9 2.5 8.9 17.3 8.9 17.3 0 0 0-14.8 9-17.3-9-2.4-8.9-17.2-8.9-17.2z"/>
				<path id="&lt;Path&gt;" class="s23" d="m688.2 385c0 0 0 14.8-9 17.2 9 2.5 9 17.3 9 17.3 0 0-0.1-14.8 8.9-17.3-9-2.4-8.9-17.2-8.9-17.2z"/>
				<path id="&lt;Path&gt;" class="s23" d="m463.5 275.1c0 0 0.1 14.8-8.9 17.2 9 2.4 8.9 17.2 8.9 17.2 0 0 0-14.8 9-17.2-9-2.4-9-17.2-9-17.2z"/>
				<path id="&lt;Path&gt;" class="s23" d="m658.3 467.5c0 0 0.1 25.1-15.2 29.2 15.3 4.1 15.2 29.2 15.2 29.2 0 0 0-25.1 15.3-29.2-15.3-4.1-15.3-29.2-15.3-29.2z"/>
				<path id="&lt;Path&gt;" class="s23" d="m360.2 311.4c0 0 0 19.6-11.9 22.8 11.9 3.2 11.9 22.9 11.9 22.9 0 0 0-19.7 11.9-22.9-11.9-3.2-11.9-22.8-11.9-22.8z"/>
			</g>
		</g>
	</g>
</svg>