<svg xmlns="http://www.w3.org/2000/svg" viewBox="0 0 602.25 242.61"><defs><style>.a{fill:#e0e0e0;}</style></defs><path class="a" d="M500.53,176h28.1a.72.72,0,1,1,0,1.43h-28.1a.72.72,0,1,1,0-1.43Z"/><path class="a" d="M518.41,189.76h6.31a.72.72,0,1,1,0,1.43h-6.31a.72.72,0,1,1,0-1.43Z"/><path class="a" d="M506.93,185.16h18a.72.72,0,1,1,0,1.43h-18a.72.72,0,1,1,0-1.43Z"/><path class="a" d="M519.35,180.27h8.77a.72.72,0,1,1,0,1.43h-8.77a.72.72,0,0,1,0-1.43Z"/><path class="a" d="M493.05,180.27h22.13a.72.72,0,0,1,0,1.43H493.05a.72.72,0,0,1,0-1.43Z"/><path class="a" d="M497.81,189.76H513.4a.72.72,0,0,1,0,1.43H497.81a.72.72,0,0,1,0-1.43Z"/><path class="a" d="M500.53,193.8h28.1a.72.72,0,1,1,0,1.43h-28.1a.72.72,0,1,1,0-1.43Z"/><path class="a" d="M548.68,174.55a11.32,11.32,0,1,1-11.33,11.32A11.34,11.34,0,0,1,548.68,174.55Zm0,21.21a9.89,9.89,0,1,0-9.9-9.89A9.9,9.9,0,0,0,548.68,195.76Z"/><path class="a" d="M548.68,174.55a11.32,11.32,0,1,1-11.33,11.32A11.34,11.34,0,0,1,548.68,174.55Zm0,21.21a9.89,9.89,0,1,0-9.9-9.89A9.9,9.9,0,0,0,548.68,195.76Z"/><path class="a" d="M548.68,174.55c4,0,7.11,5,7.11,11.32s-3.13,11.32-7.11,11.32-7.12-5-7.12-11.32S544.69,174.55,548.68,174.55Zm0,21.21c3.08,0,5.68-4.53,5.68-9.89s-2.6-9.89-5.68-9.89-5.69,4.53-5.69,9.89S545.6,195.76,548.68,195.76Z"/><path class="a" d="M548.68,174.55a.71.71,0,0,1,.71.72v21.21a.72.72,0,0,1-1.43,0V175.27A.72.72,0,0,1,548.68,174.55Z"/><path class="a" d="M538.07,185.16h21.21a.72.72,0,1,1,0,1.43H538.07a.72.72,0,1,1,0-1.43Z"/><path class="a" d="M548.68,189.36a14.64,14.64,0,0,1,8.71,2.56.67.67,0,0,1,.28.48.68.68,0,0,1-.15.53,11.31,11.31,0,0,1-17.69,0,.68.68,0,0,1-.15-.53.67.67,0,0,1,.28-.48A14.68,14.68,0,0,1,548.68,189.36Zm7.22,3.26a15.18,15.18,0,0,0-14.45,0,9.88,9.88,0,0,0,14.45,0Z"/><path class="a" d="M548.68,174.55a11.26,11.26,0,0,1,8.84,4.26.72.72,0,0,1-.13,1,16.17,16.17,0,0,1-17.43,0,.72.72,0,0,1-.13-1A11.26,11.26,0,0,1,548.68,174.55Zm7.22,4.57a9.88,9.88,0,0,0-14.45,0,15.18,15.18,0,0,0,14.45,0Z"/><path class="a" d="M529.35,164.81a.75.75,0,0,1-.51-.21l-3.46-3.47a.67.67,0,0,1-.21-.5.71.71,0,0,1,.21-.51l3.46-3.47a.73.73,0,0,1,1,0l3.47,3.47a.71.71,0,0,1,0,1l-3.47,3.47A.71.71,0,0,1,529.35,164.81Zm-2.46-4.18,2.46,2.45,2.45-2.45-2.45-2.46Z"/><path class="a" d="M595.33,183.35c-1.9,0-6.91-2.77-6.91-9a6.92,6.92,0,1,1,13.83,0C602.25,180.58,597.24,183.35,595.33,183.35Zm0-14.65a5.63,5.63,0,0,0-5.48,5.62c0,5.32,4.16,7.6,5.48,7.6s5.49-2.28,5.49-7.6A5.63,5.63,0,0,0,595.33,168.7Z"/><path class="a" d="M595.33,194.57a.71.71,0,0,1-.71-.72v-11a.72.72,0,1,1,1.43,0v11A.72.72,0,0,1,595.33,194.57Z"/><polygon class="a" points="596.41 183.8 594.17 183.8 595.34 182.64 596.41 183.8"/><path class="a" d="M596.41,184.52h-2.24a.72.72,0,0,1-.5-1.23l1.16-1.16a.73.73,0,0,1,.52-.21.76.76,0,0,1,.51.23l1.07,1.17a.72.72,0,0,1,.13.77A.71.71,0,0,1,596.41,184.52Z"/><path class="a" d="M530.46,235.84H491.22a4.27,4.27,0,0,1-4.27-4.27V207.05a4.28,4.28,0,0,1,4.27-4.27h39.24a4.27,4.27,0,0,1,4.27,4.27v24.52a4.27,4.27,0,0,1-4.27,4.27ZM491.22,203.4a3.65,3.65,0,0,0-3.64,3.65v24.52a3.65,3.65,0,0,0,3.64,3.65h39.24v0a3.65,3.65,0,0,0,3.65-3.65V207.05a3.64,3.64,0,0,0-3.65-3.64Z"/><path class="a" d="M530.46,235.84H491.22a4.27,4.27,0,0,1-4.27-4.27V207.05a4.28,4.28,0,0,1,4.27-4.27h39.24a4.27,4.27,0,0,1,4.27,4.27v24.52a4.27,4.27,0,0,1-4.27,4.27ZM491.22,203.4a3.65,3.65,0,0,0-3.64,3.65v24.52a3.65,3.65,0,0,0,3.64,3.65h39.24v0a3.65,3.65,0,0,0,3.65-3.65V207.05a3.64,3.64,0,0,0-3.65-3.64Z"/><path class="a" d="M489.14,216.6h43.4v-5.1h-43.4Z"/><rect class="a" x="492.41" y="221.65" width="6.38" height="6.37" rx="1.45"/><path class="a" d="M528.27,231.71H508.8a.94.94,0,0,1,0-1.87h19.47a.94.94,0,1,1,0,1.87Z"/><path class="a" d="M505.22,231.71h-4a.94.94,0,1,1,0-1.87h4a.94.94,0,1,1,0,1.87Z"/><path class="a" d="M517.38,228h-4a.94.94,0,0,1,0-1.88h4a.94.94,0,0,1,0,1.88Z"/><path class="a" d="M528.27,228H521.8a.94.94,0,0,1,0-1.88h6.47a.94.94,0,0,1,0,1.88Z"/><path class="a" d="M86.05,132.86H68.56a.72.72,0,1,1,0-1.43H86.05a.72.72,0,0,1,0,1.43Z"/><path class="a" d="M93,132.86H88.67a.72.72,0,0,1,0-1.43H93a.72.72,0,1,1,0,1.43Z"/><path class="a" d="M97.93,132.86H95.52a.72.72,0,0,1,0-1.43h2.41a.72.72,0,0,1,0,1.43Z"/><path class="a" d="M351.29,109.59H339a.72.72,0,0,1,0-1.43h12.32a.72.72,0,0,1,0,1.43Z"/><path class="a" d="M356.21,109.59h-3.07a.72.72,0,1,1,0-1.43h3.07a.72.72,0,1,1,0,1.43Z"/><path class="a" d="M337.1,109.59h-1.69a.72.72,0,1,1,0-1.43h1.69a.72.72,0,1,1,0,1.43Z"/><path class="a" d="M420.09,187.25H407.61a.72.72,0,1,1,0-1.43h12.48a.72.72,0,0,1,0,1.43Z"/><path class="a" d="M430.9,187.25h-6.76a.72.72,0,0,1,0-1.43h6.76a.72.72,0,1,1,0,1.43Z"/><path class="a" d="M207.42,90.7h-33a.72.72,0,1,1,0-1.43h33a.72.72,0,0,1,0,1.43Z"/><path class="a" d="M201.57,86.45h-3.25a.72.72,0,1,1,0-1.43h3.25a.72.72,0,0,1,0,1.43Z"/><path class="a" d="M211.55,86.45h-7.22a.72.72,0,0,1,0-1.43h7.22a.72.72,0,1,1,0,1.43Z"/><path class="a" d="M214.65,51.19H209a.72.72,0,1,1,0-1.43h5.68a.72.72,0,1,1,0,1.43Z"/><path class="a" d="M6,147.51H.72a.72.72,0,1,1,0-1.43H6a.72.72,0,1,1,0,1.43Z"/><path class="a" d="M150.33,100a.71.71,0,0,1-.5-.21l-3.47-3.47a.67.67,0,0,1-.21-.5.71.71,0,0,1,.21-.51l3.47-3.46a.67.67,0,0,1,.5-.21h0a.71.71,0,0,1,.51.21l3.46,3.46a.71.71,0,0,1,0,1l-3.46,3.47A.75.75,0,0,1,150.33,100Zm-2.45-4.18,2.45,2.45,2.46-2.45-2.46-2.46Z"/><path class="a" d="M97.69,162.55a4.74,4.74,0,1,1,4.74-4.74A4.75,4.75,0,0,1,97.69,162.55Zm0-8.05a3.31,3.31,0,1,0,3.31,3.31A3.31,3.31,0,0,0,97.69,154.5Z"/><path class="a" d="M412.73,157.81a4.75,4.75,0,1,1,4.74-4.74A4.75,4.75,0,0,1,412.73,157.81Zm0-8.06a3.32,3.32,0,1,0,3.31,3.32A3.32,3.32,0,0,0,412.73,149.75Z"/><path class="a" d="M377,118.12a3.11,3.11,0,1,1,3.1-3.1A3.1,3.1,0,0,1,377,118.12Zm0-4.77a1.67,1.67,0,1,0,1.67,1.67A1.67,1.67,0,0,0,377,113.35Z"/><path class="a" d="M256.61,52.57h28.11a.72.72,0,1,1,0,1.43H256.61a.72.72,0,0,1,0-1.43Z"/><path class="a" d="M274.49,66.3h6.32a.72.72,0,1,1,0,1.43h-6.32a.72.72,0,0,1,0-1.43Z"/><path class="a" d="M263,61.7h18a.72.72,0,1,1,0,1.43H263a.72.72,0,0,1,0-1.43Z"/><path class="a" d="M275.44,56.81h8.77a.72.72,0,0,1,0,1.43h-8.77a.72.72,0,1,1,0-1.43Z"/><path class="a" d="M249.14,56.81h22.12a.72.72,0,1,1,0,1.43H249.14a.72.72,0,1,1,0-1.43Z"/><path class="a" d="M253.9,66.3h15.58a.72.72,0,1,1,0,1.43H253.9a.72.72,0,1,1,0-1.43Z"/><path class="a" d="M256.61,70.34h28.11a.72.72,0,1,1,0,1.43H256.61a.72.72,0,0,1,0-1.43Z"/><path class="a" d="M297.53,51.05a11.32,11.32,0,1,1-11.32,11.32A11.34,11.34,0,0,1,297.53,51.05Zm0,21.21a9.89,9.89,0,1,0-9.89-9.89A9.89,9.89,0,0,0,297.53,72.26Z"/><path class="a" d="M297.53,51.05a11.32,11.32,0,1,1-11.32,11.32A11.34,11.34,0,0,1,297.53,51.05Zm0,21.21a9.89,9.89,0,1,0-9.89-9.89A9.89,9.89,0,0,0,297.53,72.26Z"/><path class="a" d="M297.53,51.05c4,0,7.11,5,7.11,11.32s-3.12,11.32-7.11,11.32-7.11-5-7.11-11.32S293.54,51.05,297.53,51.05Zm0,21.21c3.08,0,5.68-4.53,5.68-9.89s-2.6-9.89-5.68-9.89-5.68,4.53-5.68,9.89S294.45,72.26,297.53,72.26Z"/><path class="a" d="M297.53,51.05a.72.72,0,0,1,.72.72V73a.72.72,0,0,1-1.43,0V51.77A.71.71,0,0,1,297.53,51.05Z"/><path class="a" d="M286.92,61.66h21.22a.72.72,0,0,1,0,1.43H286.92a.72.72,0,0,1,0-1.43Z"/><path class="a" d="M297.53,65.86a14.7,14.7,0,0,1,8.72,2.56.7.7,0,0,1,.28.48.72.72,0,0,1-.15.53,11.32,11.32,0,0,1-17.7,0,.72.72,0,0,1-.15-.53.74.74,0,0,1,.28-.48A14.7,14.7,0,0,1,297.53,65.86Zm7.23,3.27a15.18,15.18,0,0,0-14.45,0,9.9,9.9,0,0,0,14.45,0Z"/><path class="a" d="M297.53,51.05a11.28,11.28,0,0,1,8.85,4.26.73.73,0,0,1,.15.54.73.73,0,0,1-.28.48,16.18,16.18,0,0,1-17.44,0,.77.77,0,0,1-.28-.48.73.73,0,0,1,.15-.54A11.28,11.28,0,0,1,297.53,51.05Zm7.23,4.57a9.88,9.88,0,0,0-14.45,0,15.18,15.18,0,0,0,14.45,0Z"/><path class="a" d="M48.46,178.64H28.14a.72.72,0,0,1,0-1.43H48.46a.72.72,0,1,1,0,1.43Z"/><path class="a" d="M48.21,168H33.88a.72.72,0,1,1,0-1.43H48.21a.72.72,0,0,1,0,1.43Z"/><path class="a" d="M48.21,173.7H42.9a.72.72,0,0,1,0-1.43h5.31a.72.72,0,0,1,0,1.43Z"/><path class="a" d="M39.94,173.7H19.3a.72.72,0,0,1,0-1.43H39.94a.72.72,0,0,1,0,1.43Z"/><path class="a" d="M48.21,162.87H24.61a.72.72,0,1,1,0-1.43h23.6a.72.72,0,0,1,0,1.43Z"/><path class="a" d="M77.34,179.64h-24a3,3,0,0,1-2.92-3V163.19a2.94,2.94,0,0,1,2.92-3h24a2.94,2.94,0,0,1,2.92,3v13.48A3,3,0,0,1,77.34,179.64Zm-24-18.46a2,2,0,0,0-2,2v13.48a2,2,0,0,0,2,2h24a2,2,0,0,0,2-2V163.19a2,2,0,0,0-2-2Z"/><path class="a" d="M77.06,163.88a.62.62,0,0,0-.85-.11l-10.86,8.36-10.93-8.36a.61.61,0,0,0-.74,1L61,170.29l-7.27,5.59a.61.61,0,0,0-.11.86.62.62,0,0,0,.48.23.63.63,0,0,0,.37-.12L62,171.06l3,2.32a.63.63,0,0,0,.74,0l3-2.32,7.48,5.78a.58.58,0,0,0,.37.13.62.62,0,0,0,.48-.23.63.63,0,0,0-.11-.86l-7.22-5.59L77,164.74A.63.63,0,0,0,77.06,163.88Z"/><path class="a" d="M294.53,5a.73.73,0,0,1-.51-.21l-3.59-3.6a.71.71,0,0,1,1-1l3.6,3.6A.72.72,0,0,1,294.53,5Z"/><path class="a" d="M290.93,5a.7.7,0,0,1-.5-.21.71.71,0,0,1,0-1L294,.21a.72.72,0,0,1,1,0,.73.73,0,0,1,0,1l-3.6,3.6A.71.71,0,0,1,290.93,5Z"/><path class="a" d="M88.92,111.39a.7.7,0,0,1-.5-.21l-3.6-3.59a.72.72,0,1,1,1-1l3.6,3.6a.72.72,0,0,1-.51,1.22Z"/><path class="a" d="M85.33,111.39a.72.72,0,0,1-.51-1.22l3.6-3.6a.72.72,0,1,1,1,1l-3.6,3.59A.7.7,0,0,1,85.33,111.39Z"/><path class="a" d="M386.07,164a.7.7,0,0,1-.5-.21l-3.6-3.6a.71.71,0,0,1,1-1l3.6,3.6a.72.72,0,0,1-.51,1.22Z"/><path class="a" d="M382.47,164a.7.7,0,0,1-.5-.21.71.71,0,0,1,0-1l3.6-3.6a.71.71,0,0,1,1,1l-3.6,3.6A.71.71,0,0,1,382.47,164Z"/><path class="a" d="M329,73a.74.74,0,0,1-.51-.21L325,69.36a.71.71,0,0,1-.21-.5.74.74,0,0,1,.21-.51l3.47-3.47a.71.71,0,0,1,1,0l3.47,3.47a.71.71,0,0,1,0,1l-3.47,3.47A.71.71,0,0,1,329,73Zm-2.46-4.18L329,71.31l2.45-2.45L329,66.4Z"/><path class="a" d="M354,89.07c-1.91,0-6.92-2.78-6.92-9a6.92,6.92,0,1,1,13.84,0C360.91,86.29,355.89,89.07,354,89.07Zm0-14.65A5.63,5.63,0,0,0,348.5,80c0,5.31,4.17,7.6,5.49,7.6s5.49-2.29,5.49-7.6A5.63,5.63,0,0,0,354,74.42Z"/><path class="a" d="M354,100.28a.71.71,0,0,1-.72-.71v-11a.72.72,0,0,1,1.43,0v11A.71.71,0,0,1,354,100.28Z"/><polygon class="a" points="355.06 89.52 352.83 89.52 353.99 88.35 355.06 89.52"/><path class="a" d="M355.06,90.23h-2.23a.71.71,0,0,1-.51-1.22l1.16-1.16a.72.72,0,0,1,1,0L355.59,89a.73.73,0,0,1,.13.77A.73.73,0,0,1,355.06,90.23Z"/><line class="a" x1="63.58" y1="241.9" x2="328.23" y2="241.9"/><rect class="a" x="63.58" y="241.66" width="264.65" height="0.48"/><path class="a" d="M328.23,242.61H63.58a.72.72,0,1,1,0-1.43H328.23a.72.72,0,1,1,0,1.43Z"/><line class="a" x1="15.52" y1="241.9" x2="43.58" y2="241.9"/><path class="a" d="M43.58,242.61H15.18c-.72-.63-.28-1.43.34-1.43h28a.73.73,0,0,1,.74.69A.71.71,0,0,1,43.58,242.61Z"/><line class="a" x1="50.13" y1="241.9" x2="57.79" y2="241.9"/><path class="a" d="M57.79,242.61H50.13a.72.72,0,0,1,0-1.43h7.66a.72.72,0,0,1,0,1.43Z"/><path class="a" d="M341.79,242.61h-8.31a.72.72,0,1,1,0-1.43h8.31a.72.72,0,0,1,0,1.43Z"/><path class="a" d="M355.29,242.61h-9.48a.72.72,0,0,1,0-1.43h9.48a.72.72,0,0,1,0,1.43Z"/><path class="a" d="M403.15,242.61H359a.72.72,0,1,1,0-1.43h44.2a.72.72,0,0,1,0,1.43Z"/><path class="a" d="M441.93,242.61H407a.72.72,0,0,1,0-1.43h34.94a.72.72,0,1,1,0,1.43Z"/><path class="a" d="M210,242.1H174.18a.71.71,0,0,1-.68-.93L179,223.31a.72.72,0,0,1,.69-.51h24.73a.73.73,0,0,1,.69.51l5.54,17.86a.72.72,0,0,1-.68.93Zm-34.86-1.43H209l-5.1-16.43H180.25Z"/><path class="a" d="M121.4,156.18h-2.58a9.73,9.73,0,0,1-9.71-9.71V139.2a.72.72,0,0,1,.72-.72h20.56a.72.72,0,0,1,.72.72v7.27A9.73,9.73,0,0,1,121.4,156.18Zm-10.86-16.27v6.56a8.3,8.3,0,0,0,8.28,8.28h2.58a8.3,8.3,0,0,0,8.28-8.28v-6.56Z"/><path class="a" d="M142,156.18h-2.58a9.72,9.72,0,0,1-9.71-9.71V139.2a.71.71,0,0,1,.71-.72H151a.72.72,0,0,1,.72.72v7.27A9.73,9.73,0,0,1,142,156.18Zm-10.86-16.27v6.56a8.29,8.29,0,0,0,8.28,8.28H142a8.3,8.3,0,0,0,8.28-8.28v-6.56Z"/><path class="a" d="M162.53,156.18H160a9.72,9.72,0,0,1-9.7-9.71V139.2a.71.71,0,0,1,.71-.72h20.57a.71.71,0,0,1,.71.72v7.27A9.72,9.72,0,0,1,162.53,156.18Zm-10.85-16.27v6.56a8.29,8.29,0,0,0,8.27,8.28h2.58a8.29,8.29,0,0,0,8.28-8.28v-6.56Z"/><path class="a" d="M183.1,156.18h-2.58a9.73,9.73,0,0,1-9.71-9.71V139.2a.72.72,0,0,1,.72-.72h20.56a.72.72,0,0,1,.72.72v7.27A9.73,9.73,0,0,1,183.1,156.18Zm0-1.43a8.29,8.29,0,0,0,8.28-8.28v-6.56H172.24v6.56S172.44,155.24,183.1,154.75Z"/><path class="a" d="M203.67,156.18h-2.58a9.72,9.72,0,0,1-9.71-9.71V139.2a.71.71,0,0,1,.71-.72h20.57a.72.72,0,0,1,.72.72v7.27A9.73,9.73,0,0,1,203.67,156.18Zm-10.86-16.27v6.56a8.29,8.29,0,0,0,8.28,8.28h2.58a8.3,8.3,0,0,0,8.28-8.28v-6.56Z"/><path class="a" d="M224.23,156.18h-2.57a9.72,9.72,0,0,1-9.71-9.71V139.2a.71.71,0,0,1,.71-.72h20.57a.71.71,0,0,1,.71.72v7.27A9.72,9.72,0,0,1,224.23,156.18Zm-10.85-16.27v6.56a8.29,8.29,0,0,0,8.28,8.28h2.57a8.29,8.29,0,0,0,8.28-8.28v-6.56Z"/><path class="a" d="M244.8,156.18h-2.58a9.73,9.73,0,0,1-9.71-9.71V139.2a.72.72,0,0,1,.72-.72h20.56a.72.72,0,0,1,.72.72v7.27A9.73,9.73,0,0,1,244.8,156.18Zm-10.86-16.27v6.56a8.3,8.3,0,0,0,8.28,8.28h2.58a8.29,8.29,0,0,0,8.28-8.28v-6.56Z"/><path class="a" d="M265.37,156.18h-2.58a9.73,9.73,0,0,1-9.71-9.71V139.2a.71.71,0,0,1,.71-.72h20.57a.72.72,0,0,1,.72.72v7.27A9.73,9.73,0,0,1,265.37,156.18Zm-10.86-16.27v6.56a8.29,8.29,0,0,0,8.28,8.28h2.58a8.3,8.3,0,0,0,8.28-8.28v-6.56Z"/><path class="a" d="M192.09,139.91H172a.73.73,0,0,1-.58-.29.72.72,0,0,1-.1-.64l9.2-28.53a.72.72,0,0,1,.68-.49h12.05a.74.74,0,0,1,.52.22.72.72,0,0,1,.19.52l-1.17,28.53A.72.72,0,0,1,192.09,139.91ZM173,138.48h18.41l1.11-27.09H181.75Z"/><path class="a" d="M274.36,139.91H253.79a.71.71,0,0,1-.55-.26l-23.5-28.52a.73.73,0,0,1-.1-.76.72.72,0,0,1,.65-.41h12.34a.7.7,0,0,1,.48.18l31.73,28.53a.71.71,0,0,1,.19.79A.72.72,0,0,1,274.36,139.91Zm-20.23-1.43H272.5l-30.14-27.09H231.81Z"/><path class="a" d="M151,139.91H129.9a.71.71,0,0,1-.53-1.19l26.06-28.53A.68.68,0,0,1,156,110h12.64a.71.71,0,0,1,.62.36.73.73,0,0,1,0,.73l-17.63,28.53A.71.71,0,0,1,151,139.91Zm-19.44-1.43h19l16.75-27.09h-11Z"/><path class="a" d="M129.9,139.91H109.83a.71.71,0,0,1-.46-1.26l34.08-28.53a.76.76,0,0,1,.46-.16h12a.71.71,0,0,1,.53,1.19l-26,28.53A.72.72,0,0,1,129.9,139.91Zm-18.1-1.43h17.79l24.74-27.09H144.17Z"/><path class="a" d="M172,139.91H151a.71.71,0,0,1-.62-.36.73.73,0,0,1,0-.73L168,110.3a.72.72,0,0,1,.61-.34h12.63a.72.72,0,0,1,.58.29.7.7,0,0,1,.11.64l-9.21,28.53A.71.71,0,0,1,172,139.91Zm-19.78-1.43H171.5l8.74-27.09H169Z"/><path class="a" d="M212.66,139.91H192.09a.7.7,0,0,1-.51-.22.68.68,0,0,1-.2-.52l1.17-28.53a.72.72,0,0,1,.72-.68h12.34a.7.7,0,0,1,.69.54L213.36,139a.72.72,0,0,1-.7.88Zm-19.82-1.43h18.91l-6.7-27.09H194Z"/><path class="a" d="M253.79,139.91H233.23a.7.7,0,0,1-.63-.37L217.32,111A.72.72,0,0,1,218,110h12.34a.69.69,0,0,1,.55.26l23.51,28.52a.72.72,0,0,1-.56,1.17Zm-20.13-1.43h18.62L230,111.39H219.14Z"/><path class="a" d="M233.23,139.91H212.66a.71.71,0,0,1-.69-.54l-7.05-28.53a.67.67,0,0,1,.13-.61.71.71,0,0,1,.56-.27H218a.71.71,0,0,1,.63.37l15.28,28.53a.71.71,0,0,1-.63,1Zm-20-1.43H232l-14.51-27.09h-11Z"/><path class="a" d="M248.89,199H154.25v-1.43h94.64m0,26.63H154.25V222.8h94.64"/><path class="a" d="M192.09,216a5,5,0,1,1,5-5.05A5,5,0,0,1,192.09,216Zm0-9.62a4.57,4.57,0,1,0,4.57,4.57A4.57,4.57,0,0,0,192.09,206.35Z"/><path class="a" d="M192.09,212.79a1.87,1.87,0,1,1,1.87-1.87A1.87,1.87,0,0,1,192.09,212.79Zm0-3.26a1.39,1.39,0,1,0,1.4,1.39A1.4,1.4,0,0,0,192.09,209.53Z"/><path class="a" d="M211.49,176.09H173.36a.72.72,0,1,1,0-1.43h38.13a.72.72,0,0,1,0,1.43Z"/><path class="a" d="M187.35,179.61h-14a.72.72,0,1,1,0-1.43h14a.72.72,0,1,1,0,1.43Z"/><path class="a" d="M211.49,179.61H192a.72.72,0,0,1,0-1.43h19.45a.72.72,0,0,1,0,1.43Z"/><path class="a" d="M211.49,191.38h-14a.72.72,0,0,1,0-1.43h14a.72.72,0,0,1,0,1.43Z"/><path class="a" d="M192.8,191.38H173.36a.72.72,0,1,1,0-1.43H192.8a.72.72,0,1,1,0,1.43Z"/><path class="a" d="M211.49,183.44H199.75a.72.72,0,0,1,0-1.43h11.74a.72.72,0,0,1,0,1.43Z"/><path class="a" d="M194.78,183.44H173.36a.72.72,0,1,1,0-1.43h21.42a.72.72,0,0,1,0,1.43Z"/><path class="a" d="M211.49,187.3H202.2a.72.72,0,0,1,0-1.43h9.29a.72.72,0,0,1,0,1.43Z"/><path class="a" d="M197.69,187.3h-9.28a.72.72,0,0,1,0-1.43h9.28a.72.72,0,1,1,0,1.43Z"/><path class="a" d="M183.66,187.3h-10.3a.72.72,0,1,1,0-1.43h10.3a.72.72,0,1,1,0,1.43Z"/><rect class="a" x="172.81" y="160.63" width="38.67" height="3.78"/><rect class="a" x="172.81" y="166.18" width="11.19" height="3.78"/><rect class="a" x="186.56" y="166.18" width="11.19" height="3.78"/><rect class="a" x="200.3" y="166.18" width="11.19" height="3.78"/><path class="a" d="M144.64,242.1H108.26a5.18,5.18,0,0,1-5.17-5.17v-63.2a5.17,5.17,0,0,1,5.17-5.16h36.38a5.17,5.17,0,0,1,5.16,5.16v63.2A5.17,5.17,0,0,1,144.64,242.1ZM108.26,170a3.74,3.74,0,0,0-3.74,3.73v63.2a3.75,3.75,0,0,0,3.74,3.74h36.38a3.74,3.74,0,0,0,3.73-3.74v-63.2a3.73,3.73,0,0,0-3.73-3.73Z"/><path class="a" d="M144.53,231.79H108.36a1,1,0,0,1-1-.95v-55a1,1,0,0,1,1-.95h36.17a1,1,0,0,1,1,.95v55A1,1,0,0,1,144.53,231.79Zm-36.17-56.37a.48.48,0,0,0-.48.47v55a.49.49,0,0,0,.48.48h36.17a.48.48,0,0,0,.48-.48v-55a.47.47,0,0,0-.48-.47Z"/><path class="a" d="M126.45,238.14a2,2,0,1,1,2-2A2,2,0,0,1,126.45,238.14Zm0-3.45a1.49,1.49,0,1,0,0,3,1.49,1.49,0,0,0,0-3Z"/><path class="a" d="M126.45,240.05a3.87,3.87,0,1,1,3.87-3.87A3.87,3.87,0,0,1,126.45,240.05Zm0-7.26a3.39,3.39,0,1,0,3.39,3.39A3.39,3.39,0,0,0,126.45,232.79Z"/><path class="a" d="M128.7,173.51H125a.72.72,0,1,1,0-1.43h3.7a.72.72,0,0,1,0,1.43Z"/><path class="a" d="M128.7,173.75H125a1,1,0,0,1,0-1.91h3.7a1,1,0,0,1,0,1.91Zm-3.7-1.43a.48.48,0,1,0,0,1h3.7a.48.48,0,0,0,0-1Z"/><path class="a" d="M138.21,188.48H126.45a.72.72,0,1,1,0-1.43h11.76a.72.72,0,0,1,0,1.43Z"/><path class="a" d="M132,191.91h-5.57a.72.72,0,1,1,0-1.43H132a.72.72,0,1,1,0,1.43Z"/><path class="a" d="M129.9,195.05h-3.45a.72.72,0,1,1,0-1.43h3.45a.72.72,0,0,1,0,1.43Z"/><path class="a" d="M138.21,191.91h-2.73a.72.72,0,1,1,0-1.43h2.73a.72.72,0,0,1,0,1.43Z"/><path class="a" d="M138.21,201.13H126.45a.72.72,0,1,1,0-1.43h11.76a.72.72,0,0,1,0,1.43Z"/><path class="a" d="M132,204.57h-5.57a.72.72,0,1,1,0-1.43H132a.72.72,0,1,1,0,1.43Z"/><path class="a" d="M129.9,207.71h-3.45a.72.72,0,1,1,0-1.43h3.45a.72.72,0,0,1,0,1.43Z"/><path class="a" d="M138.21,204.57h-2.73a.72.72,0,1,1,0-1.43h2.73a.72.72,0,0,1,0,1.43Z"/><path class="a" d="M117.65,196.67a5.48,5.48,0,1,1,5.48-5.47A5.48,5.48,0,0,1,117.65,196.67Zm0-10.47a5,5,0,1,0,5,5A5,5,0,0,0,117.65,186.2Z"/><path class="a" d="M117.65,210.24a5.48,5.48,0,1,1,5.48-5.48A5.49,5.49,0,0,1,117.65,210.24Zm0-10.48a5,5,0,1,0,5,5A5,5,0,0,0,117.65,199.76Z"/><path class="a" d="M115,194.94a.89.89,0,0,1-.88-.87v0l.74-5.8h.86a1.94,1.94,0,0,1,1.91-1.76A2,2,0,0,1,119,187a2,2,0,0,1,.56,1.18h.77l.88,5.79a.87.87,0,0,1-.86.91l-5.34,0Zm-.4-.86a.34.34,0,0,0,.12.26.36.36,0,0,0,.28.12h0l5.33,0a.4.4,0,0,0,.4-.4l-.82-5.34-3.81,0v0l-.14,0h-.67Zm3-6.76h0a1.11,1.11,0,0,0-.75.32,1,1,0,0,0-.3.59h2.1A1.07,1.07,0,0,0,117.62,187.32Z"/><path class="a" d="M115,208.64a.89.89,0,0,1-.88-.87v0l.74-5.8h.86a1.94,1.94,0,0,1,1.91-1.76h0a1.93,1.93,0,0,1,1.35.56,1.9,1.9,0,0,1,.56,1.18h.77l.88,5.78a.88.88,0,0,1-.86.92l-5.34,0Zm-.4-.85a.34.34,0,0,0,.12.26.36.36,0,0,0,.28.12h0l5.33,0a.4.4,0,0,0,.4-.4l-.82-5.35-3.81,0v0l-.14,0h-.67Zm3-6.76h0a1.07,1.07,0,0,0-.75.32,1,1,0,0,0-.3.59l2.1,0A1.07,1.07,0,0,0,117.62,201Z"/><path class="a" d="M362.05,233H251.91v-62.9A8.09,8.09,0,0,1,260,162h94a8.09,8.09,0,0,1,8.07,8.08Zm-109.67-.47h109.2V170.06a7.61,7.61,0,0,0-7.6-7.6H260a7.61,7.61,0,0,0-7.6,7.6Z"/><path class="a" d="M358.41,183.58H255.55V171.89c0-4,1.77-5.63,6.1-5.63H351.9c4.5,0,6.51,1.74,6.51,5.63ZM256,183.1h101.9V171.89c0-3.61-1.8-5.15-6-5.15H261.65c-4.1,0-5.62,1.39-5.62,5.15Z"/><path class="a" d="M358.41,233H255.55V183.1H358.41ZM256,232.49h101.9V183.58H256Z"/><path class="a" d="M361.81,241.34H252.14c-.08,0-8.58-.1-8.58-8.61v-.24H370.4v.24C370.4,241.24,361.9,241.34,361.81,241.34ZM244,233c.15,7.81,7.78,7.9,8.1,7.9H361.81c.33,0,8-.1,8.11-7.9Z"/><path class="a" d="M266,177.57a2.51,2.51,0,1,1,2.51-2.51A2.52,2.52,0,0,1,266,177.57Zm0-4.55a2,2,0,1,0,2,2A2,2,0,0,0,266,173Z"/><path class="a" d="M274.06,177.57a2.51,2.51,0,1,1,2.51-2.51A2.52,2.52,0,0,1,274.06,177.57Zm0-4.55a2,2,0,1,0,2,2A2,2,0,0,0,274.06,173Z"/><path class="a" d="M282.11,177.57a2.51,2.51,0,1,1,2.52-2.51A2.52,2.52,0,0,1,282.11,177.57Zm0-4.55a2,2,0,1,0,2,2A2,2,0,0,0,282.11,173Z"/><path class="a" d="M282.63,227.84a18.19,18.19,0,1,1,18.19-18.19A18.2,18.2,0,0,1,282.63,227.84Zm0-35.9a17.71,17.71,0,1,0,17.71,17.71A17.74,17.74,0,0,0,282.63,191.94Z"/><path class="a" d="M291.2,214.61H273.66l-3.61-14.09h23.64v11.61A2.49,2.49,0,0,1,291.2,214.61ZM274,214.14H291.2a2,2,0,0,0,2-2V201H270.67Z"/><path class="a" d="M273.29,216.05a1,1,0,0,1-.92-.72L268.09,199l-4.41-.84a1,1,0,0,1,.35-1.88l5,1a.94.94,0,0,1,.74.69l4.44,16.9a1,1,0,0,1-.68,1.16A.73.73,0,0,1,273.29,216.05Zm-9.43-19.3a.47.47,0,0,0-.47.39.48.48,0,0,0,.38.56l4.71.9,4.35,16.61a.49.49,0,0,0,.59.34.47.47,0,0,0,.33-.58l-4.43-16.9a.47.47,0,0,0-.37-.35l-5-1Z"/><path class="a" d="M294.17,219.8H271.94a2.83,2.83,0,1,1,0-5.66h18.82a1,1,0,0,1,0,1.91H271.94a.92.92,0,1,0,0,1.84h22.23a1,1,0,0,1,0,1.91Zm-22.23-5.19a2.36,2.36,0,1,0,0,4.71h22.23a.47.47,0,0,0,.47-.48.48.48,0,0,0-.47-.48H271.94a1.4,1.4,0,1,1,0-2.79h18.82a.48.48,0,0,0,.48-.48.49.49,0,0,0-.48-.48Z"/><path class="a" d="M276.67,223.5a3.4,3.4,0,1,1,3.4-3.4A3.4,3.4,0,0,1,276.67,223.5Zm0-6.32a2.92,2.92,0,1,0,2.92,2.92A2.92,2.92,0,0,0,276.67,217.18Z"/><path class="a" d="M288,223.5a3.4,3.4,0,1,1,3.39-3.4A3.4,3.4,0,0,1,288,223.5Zm0-6.32a2.92,2.92,0,1,0,2.92,2.92A2.92,2.92,0,0,0,288,217.18Z"/><path class="a" d="M278.82,216.05a1,1,0,0,1-.95-1V200a1,1,0,0,1,1.91,0v15.05A1,1,0,0,1,278.82,216.05Zm0-16.49a.48.48,0,0,0-.47.48v15.05a.48.48,0,1,0,.95,0V200A.48.48,0,0,0,278.82,199.56Z"/><path class="a" d="M292.5,208.52h-20a1,1,0,1,1,0-1.91h20a1,1,0,1,1,0,1.91Zm-20-1.43c-.39,0-.72.22-.72.48s.33.47.72.47h20c.39,0,.71-.21.71-.47s-.32-.48-.71-.48Z"/><path class="a" d="M286.39,216.05a1,1,0,0,1-.95-1V200a1,1,0,0,1,1.91,0v15.05A1,1,0,0,1,286.39,216.05Zm0-16.49a.49.49,0,0,0-.48.48v15.05a.48.48,0,0,0,1,0V200A.49.49,0,0,0,286.39,199.56Z"/><path class="a" d="M261.9,237.12h-7.48a1,1,0,1,1,0-1.91h7.48a1,1,0,0,1,0,1.91Zm-7.48-1.43a.48.48,0,1,0,0,.95h7.48a.48.48,0,0,0,0-.95Z"/><path class="a" d="M358.13,237.12H273a1,1,0,1,1,0-1.91h85.18a1,1,0,0,1,0,1.91ZM273,235.69a.48.48,0,1,0,0,.95h85.18a.48.48,0,1,0,0-.95Z"/><path class="a" d="M349.87,228.31h-39.1a.71.71,0,0,1-.72-.71V197.75a.72.72,0,0,1,.72-.72h39.1a.72.72,0,0,1,.72.72V227.6A.71.71,0,0,1,349.87,228.31Zm-38.39-1.43h37.68V198.46H311.48Z"/><path class="a" d="M319.59,198.46H308.66A.72.72,0,0,1,308,198a.73.73,0,0,1,.2-.79l9.06-7.93a.72.72,0,0,1,.47-.18h6.55a.73.73,0,0,1,.62,1.08l-4.68,7.93A.72.72,0,0,1,319.59,198.46Zm-9-1.43h8.61l3.84-6.49h-5Z"/><path class="a" d="M352.37,198.46H341.44a.7.7,0,0,1-.63-.39l-4.06-7.92a.72.72,0,0,1,.63-1.05h6.56a.7.7,0,0,1,.49.2l8.43,7.93a.71.71,0,0,1-.49,1.23ZM341.88,197h8.68l-6.9-6.49h-5.11Z"/><path class="a" d="M330.52,198.46H319.59a.7.7,0,0,1-.62-.36.71.71,0,0,1,0-.72l4.69-7.92a.71.71,0,0,1,.61-.36h6.56a.7.7,0,0,1,.51.22.69.69,0,0,1,.2.53l-.31,7.93A.71.71,0,0,1,330.52,198.46ZM320.84,197h9l.25-6.49h-5.4Z"/><path class="a" d="M341.44,198.46H330.52a.72.72,0,0,1-.72-.74l.31-7.93a.72.72,0,0,1,.72-.69h6.55a.71.71,0,0,1,.64.39l4.06,7.93a.73.73,0,0,1,0,.7A.72.72,0,0,1,341.44,198.46ZM331.26,197h9L337,190.54h-5.43Z"/><path class="a" d="M314.13,208.18A6.19,6.19,0,0,1,308,202v-4.25a.71.71,0,0,1,.71-.72h10.93a.72.72,0,0,1,.72.72V202A6.2,6.2,0,0,1,314.13,208.18Zm-4.75-9.72V202a4.75,4.75,0,0,0,9.49,0v-3.54Z"/><path class="a" d="M325.05,208.18a6.2,6.2,0,0,1-6.18-6.18v-4.25a.72.72,0,0,1,.72-.72h10.93a.71.71,0,0,1,.71.72V202A6.19,6.19,0,0,1,325.05,208.18Zm-4.74-9.72V202a4.75,4.75,0,0,0,9.49,0v-3.54Z"/><path class="a" d="M336,208.18A6.19,6.19,0,0,1,329.8,202v-4.25a.72.72,0,0,1,.72-.72h10.92a.72.72,0,0,1,.72.72V202A6.19,6.19,0,0,1,336,208.18Zm-4.75-9.72V202a4.75,4.75,0,0,0,9.5,0v-3.54Z"/><path class="a" d="M346.91,208.18a6.19,6.19,0,0,1-6.18-6.18v-4.25a.71.71,0,0,1,.71-.72h10.93a.71.71,0,0,1,.71.72V202A6.19,6.19,0,0,1,346.91,208.18Zm-4.75-9.72V202a4.75,4.75,0,0,0,9.49,0v-3.54Z"/><path class="a" d="M319,224.18a1.64,1.64,0,0,1-1.64-1.62v-.06l1.35-10.59h1.56a3.54,3.54,0,0,1,3.5-3.19,3.4,3.4,0,0,1,2.5,1,3.47,3.47,0,0,1,1,2.14h1.4l1.62,10.57a1.64,1.64,0,0,1-1.62,1.7l-9.71.05Zm-.68-1.6a.67.67,0,0,0,.68.65h0l9.7,0a.68.68,0,0,0,.68-.68l-1.49-9.68-6.92,0h-1.41Zm5.48-12.24h0a1.86,1.86,0,0,0-1.34.56,1.81,1.81,0,0,0-.52,1h3.73A1.9,1.9,0,0,0,323.78,210.34Z"/><path class="a" d="M333,223a1.35,1.35,0,0,1-1.36-1.35v-.07l1.05-8.21h1.2a2.82,2.82,0,0,1,2.78-2.45h0a2.79,2.79,0,0,1,2,.82,2.86,2.86,0,0,1,.81,1.61h1.07l1.25,8.2a1.38,1.38,0,0,1-1.35,1.44L333,223Zm-.41-1.33a.41.41,0,0,0,.41.38l7.45,0a.41.41,0,0,0,.41-.41l-1.13-7.31-5.31,0h-.89Zm4.1-9.29h0a1.39,1.39,0,0,0-1,.4,1.37,1.37,0,0,0-.34.58l2.58,0a1.2,1.2,0,0,0-.34-.56A1.3,1.3,0,0,0,336.67,212.39Z"/><path class="a" d="M295.11,137.4a27.61,27.61,0,1,1,19.38-43.35h0a27.6,27.6,0,0,1-19.38,43.35ZM288.91,84a26.2,26.2,0,1,0,24.41,10.93h0a26,26,0,0,0-16.94-10.71A26.41,26.41,0,0,0,288.91,84Z"/><path class="a" d="M294.62,133.27a23.8,23.8,0,0,1-6.68-.2,23.44,23.44,0,1,1,23.13-36.6h0a23.47,23.47,0,0,1-16.45,36.81ZM289.5,89.05a21.06,21.06,0,1,0,19.63,8.79h0a20.93,20.93,0,0,0-13.62-8.61A21.29,21.29,0,0,0,289.5,89.05Z"/><path class="a" d="M300.72,123a.7.7,0,0,1-.66-.3.71.71,0,0,1,.17-1,14.7,14.7,0,0,0,2.67-2.43.72.72,0,0,1,1-.09.71.71,0,0,1,.08,1,15.94,15.94,0,0,1-2.94,2.68A.79.79,0,0,1,300.72,123Z"/><path class="a" d="M305.77,117a.63.63,0,0,1-.38-.06A.71.71,0,0,1,305,116a14.41,14.41,0,0,0-18.87-19.18.71.71,0,1,1-.57-1.31,15.84,15.84,0,0,1,20.75,21.08A.69.69,0,0,1,305.77,117Z"/><path class="a" d="M324.36,159.42a4.1,4.1,0,0,1-3.83-1.71l-16.61-23.54a.71.71,0,0,1,.25-1,25.4,25.4,0,0,0,2.85-1.76h0a25.24,25.24,0,0,0,2.61-2.1.75.75,0,0,1,.56-.18.72.72,0,0,1,.51.3l16.61,23.54a4.1,4.1,0,0,1-1,5.72l-.07,0A4,4,0,0,1,324.36,159.42ZM305.55,134l16.15,22.89a2.68,2.68,0,0,0,3.73.64l.06,0a2.68,2.68,0,0,0,.65-3.73L310,130.87a26.69,26.69,0,0,1-2.14,1.67h0C307.11,133.06,306.34,133.55,305.55,134Zm1.88-2h0Z"/><path class="a" d="M72.73,236.07a4.47,4.47,0,0,1-1-.1,4.58,4.58,0,0,1-2.94-2L60,220.51a.69.69,0,0,1-.1-.54.73.73,0,0,1,.3-.45l27.53-18.07a.71.71,0,0,1,.62-.08.73.73,0,0,1,.45.44l6.7,19.57a.71.71,0,0,1-.28.83L75.27,235.3A4.54,4.54,0,0,1,72.73,236.07ZM61.58,220.32,70,233.18a3.23,3.23,0,0,0,4.47.93L94,221.32l-6.23-18.17Z"/><path class="a" d="M94.82,222.33a.72.72,0,0,1-.68-.49l-7.42-22.05a.7.7,0,0,1,.18-.74l4.87-4.73a.71.71,0,0,1,1,1l-4.54,4.41,7.27,21.62a.71.71,0,0,1-.44.91A.66.66,0,0,1,94.82,222.33Z"/><path class="a" d="M74.33,241.76a.75.75,0,0,1-.6-.32.73.73,0,0,1,.21-1L98.68,224.2a1.78,1.78,0,0,0-2-3L75.77,235a.72.72,0,0,1-1-.21.71.71,0,0,1,.2-1l21-13.76a3.21,3.21,0,1,1,3.53,5.37L74.72,241.64A.71.71,0,0,1,74.33,241.76Z"/><path class="a" d="M94.74,231a2.83,2.83,0,1,1,3.93.82A2.84,2.84,0,0,1,94.74,231Zm.63-.41a2.09,2.09,0,1,0,.6-2.89A2.08,2.08,0,0,0,95.37,230.6Z"/><path class="a" d="M82.91,241.42a2.7,2.7,0,0,1-.63-.07,3,3,0,0,1-1.92-1.3h0a3,3,0,1,1,2.55,1.37Zm-1.76-1.9a2.1,2.1,0,0,0,2.9.6,2.09,2.09,0,1,0-2.9-.6Z"/><path class="a" d="M84.93,228.82a.72.72,0,0,1-.6-.32L73.49,212a.72.72,0,0,1,.21-1,.71.71,0,0,1,1,.21l10.84,16.5a.71.71,0,0,1-.21,1A.69.69,0,0,1,84.93,228.82Z"/><path class="a" d="M78.23,233.22a.72.72,0,0,1-.6-.32L66.79,216.39a.72.72,0,0,1,.21-1,.71.71,0,0,1,1,.21l10.84,16.5a.71.71,0,0,1-.21,1A.69.69,0,0,1,78.23,233.22Z"/><path class="a" d="M63.78,225.69a.71.71,0,0,1-.4-1.31l26.35-17.31a.72.72,0,0,1,1,.21.71.71,0,0,1-.2,1l-26.35,17.3A.71.71,0,0,1,63.78,225.69Z"/><path class="a" d="M67.55,231.43a.71.71,0,0,1-.4-1.31L92,213.8a.72.72,0,1,1,.78,1.2L67.94,231.31A.71.71,0,0,1,67.55,231.43Z"/><rect class="a" x="122.82" y="157.81" width="1.47" height="7.53"/><rect class="a" x="259.79" y="157.07" width="1.45" height="4.25"/></svg>