<svg xmlns="http://www.w3.org/2000/svg" xmlns:xlink="http://www.w3.org/1999/xlink" viewBox="0 0 416.38 198.42"><defs><style>.cls-1,.cls-2,.cls-21,.cls-22,.cls-23,.cls-24,.cls-25,.cls-26{fill:none;}.cls-2{stroke:gray;}.cls-11,.cls-2,.cls-30{stroke-miterlimit:10;}.cls-11,.cls-2{stroke-width:0.25px;}.cls-3{font-size:11.51px;font-family:Lato-Regular, Lato;}.cls-16,.cls-3{fill:gray;}.cls-4{letter-spacing:-0.08em;}.cls-5{letter-spacing:-0.02em;}.cls-6{letter-spacing:-0.02em;}.cls-7{letter-spacing:-0.01em;}.cls-8{letter-spacing:0em;}.cls-9{letter-spacing:-0.04em;}.cls-10{clip-path:url(#clip-path);}.cls-11,.cls-15,.cls-29{fill:#ee6937;}.cls-11,.cls-22,.cls-24{stroke:#ee6937;}.cls-12{clip-path:url(#clip-path-2);}.cls-13,.cls-14{fill:#767676;}.cls-14,.cls-15,.cls-17,.cls-18,.cls-20,.cls-28{fill-rule:evenodd;}.cls-17{fill:#777;}.cls-18{fill:#fff;}.cls-19,.cls-20{fill:#787878;}.cls-21,.cls-25,.cls-26{stroke:#767676;}.cls-21,.cls-22,.cls-25{stroke-linecap:round;}.cls-21,.cls-22,.cls-23,.cls-24,.cls-25,.cls-26{stroke-linejoin:round;}.cls-21,.cls-22{stroke-width:1.15px;}.cls-23{stroke:#787575;}.cls-27,.cls-28{fill:#686d6d;}.cls-30{fill:#23d57c;stroke:#fff;stroke-width:0.5px;}</style><clipPath id="clip-path" transform="translate(1.51)"><path class="cls-1" d="M24.83,74.25a.49.49,0,0,1,.68-.37,5.57,5.57,0,0,1,3.11,5,5.43,5.43,0,0,1-10.86,0,8.58,8.58,0,0,1,7.12-8.25.48.48,0,0,1,.33.89A3.1,3.1,0,0,0,23.67,74a3.06,3.06,0,0,0,.57,1.76A3.56,3.56,0,0,0,24.83,74.25Zm-6.11,4.66a4.47,4.47,0,0,0,8.94,0,4.67,4.67,0,0,0-2-3.86,4.06,4.06,0,0,1-1.06,1.74.48.48,0,0,1-.64,0A3.88,3.88,0,0,1,22.71,74a3.42,3.42,0,0,1,.57-1.82A7.57,7.57,0,0,0,18.72,78.91Z"/></clipPath><clipPath id="clip-path-2" transform="translate(1.51)"><path class="cls-2" d="M16.21,60l-4.27,6h4a.47.47,0,0,1,.47.58l-.72,3.27,4.27-6H16a.47.47,0,0,1-.46-.58Zm1.45-2.1-1.11,5H20.9a.48.48,0,0,1,.39.76l-6.18,8.66a.48.48,0,0,1-.86-.38l1.11-5H11a.48.48,0,0,1-.39-.76l6.18-8.66A.48.48,0,0,1,17.66,57.93Zm-9.45,14c-2.76,3.32-4,5.38-4,7.26a4,4,0,0,0,8,0,4.65,4.65,0,0,0-.29-1.59A11.3,11.3,0,0,0,10.43,75C10.16,74.56,8.92,72.89,8.21,71.92Zm.06-1.56.36.5c.22.31.66.91,1.13,1.54l.3.42c.52.7,1,1.35,1.16,1.58a12.26,12.26,0,0,1,1.62,2.86,5.61,5.61,0,0,1,.35,1.92,4.95,4.95,0,0,1-9.9,0c0-2.29,1.38-4.56,4.58-8.35Z"/></clipPath></defs><g id="Layer_2" data-name="Layer 2"><g id="Layer_1-2" data-name="Layer 1"><text class="cls-3" transform="translate(48.55 18.39)">Mobile<tspan x="0" y="57.57">Utilities</tspan><tspan x="0" y="115.15">Internet and Cable</tspan><tspan class="cls-4"><tspan x="0" y="172.72">T</tspan><tspan class="cls-5" x="5.87" y="172.72">r</tspan><tspan class="cls-6" x="10.29" y="172.72">a</tspan><tspan class="cls-7" x="15.95" y="172.72">v</tspan><tspan class="cls-8" x="21.69" y="172.72">el</tspan></tspan></text><text class="cls-3" transform="translate(300.51 18.68)"><tspan class="cls-9">F</tspan><tspan x="6.11" y="0">ood</tspan><tspan x="0" y="57.57">Education</tspan><tspan x="0" y="115.15">Groceries</tspan><tspan x="0" y="172.72">Entertainment</tspan></text><g class="cls-10"><rect class="cls-11" x="14.47" y="65.86" width="20.45" height="23.28"/></g><g class="cls-12"><rect class="cls-13" y="52.55" width="27.69" height="36.38"/></g><path class="cls-2" d="M16.21,60l-4.27,6h4a.47.47,0,0,1,.47.58l-.72,3.27,4.27-6H16a.47.47,0,0,1-.46-.58Zm1.45-2.1-1.11,5H20.9a.48.48,0,0,1,.39.76l-6.18,8.66a.48.48,0,0,1-.86-.38l1.11-5H11a.48.48,0,0,1-.39-.76l6.18-8.66A.48.48,0,0,1,17.66,57.93Zm-9.45,14c-2.76,3.32-4,5.38-4,7.26a4,4,0,0,0,8,0,4.65,4.65,0,0,0-.29-1.59A11.3,11.3,0,0,0,10.43,75C10.16,74.56,8.92,72.89,8.21,71.92Zm.06-1.56.36.5c.22.31.66.91,1.13,1.54l.3.42c.52.7,1,1.35,1.16,1.58a12.26,12.26,0,0,1,1.62,2.86,5.61,5.61,0,0,1,.35,1.92,4.95,4.95,0,0,1-9.9,0c0-2.29,1.38-4.56,4.58-8.35Z" transform="translate(1.51)"/><path class="cls-14" d="M13,3.5a.58.58,0,0,1,0-1.16h5.86a.58.58,0,0,1,0,1.16ZM24.15,25.11A2.93,2.93,0,0,1,21.22,28H10.69a2.93,2.93,0,0,1-2.93-2.92V2.92A2.93,2.93,0,0,1,10.69,0H21.22a2.93,2.93,0,0,1,2.93,2.92ZM8.93,23.36v1.75a1.75,1.75,0,0,0,1.76,1.75H21.22A1.75,1.75,0,0,0,23,25.11V23.36Zm0-18.69H23V2.92a1.75,1.75,0,0,0-1.76-1.75H10.69A1.75,1.75,0,0,0,8.93,2.92Zm0,1.17V22.19H23V5.84Z" transform="translate(1.51)"/><path class="cls-13" d="M16,26.27a1.17,1.17,0,1,1,1.17-1.16A1.16,1.16,0,0,1,16,26.27Z" transform="translate(1.51)"/><path class="cls-15" d="M13.61,14H11.22a.59.59,0,0,1-.59-.58.6.6,0,0,1,.18-.42l4.68-4.67a.6.6,0,0,1,.83,0L21.05,13a.59.59,0,0,1-.41,1H18.3v5.26a.59.59,0,0,1-.59.58H14.2a.59.59,0,0,1-.59-.58Zm.59-1.17a.59.59,0,0,1,.58.59v5.25h2.34V13.43a.6.6,0,0,1,.59-.59h1.5l-3.3-3.26-3.28,3.26Z" transform="translate(1.51)"/><g id="Path"><rect class="cls-16" x="22.97" y="140.57" width="8.75" height="0.52"/></g><g id="Path-2" data-name="Path"><path class="cls-17" d="M23.85,122.33H1.27c-.37.07-.52.3-.52.52a.54.54,0,0,0,.45.52H23.93c.22,0,.45-.37.45-.52A.63.63,0,0,0,23.85,122.33Z" transform="translate(1.51)"/></g><g id="Path-3" data-name="Path"><path class="cls-17" d="M23.93,130.18H1.5c-.38.07-.53.3-.53.52a.54.54,0,0,0,.45.52H24c.23,0,.45-.37.45-.52A.51.51,0,0,0,23.93,130.18Z" transform="translate(1.51)"/></g><g id="Composite_Path" data-name="Composite Path"><path class="cls-15" d="M17.72,121.58A11.23,11.23,0,0,0,17,119a8.54,8.54,0,0,0-1.87-3.29,3.24,3.24,0,0,0-2.69-1.34c-3.89,0-5.46,7.1-5.61,9.94,0,.3-.07.67-.07,1v2.61c0,.08.07.68.07,1a24.17,24.17,0,0,0,.83,4.56A9.45,9.45,0,0,0,10.17,138a3.25,3.25,0,0,0,2.17.9c3.74,0,5.38-6.73,5.61-9.43,0-.22.07-.44.07-.74s.08-.45.08-.75v-2.84A23.84,23.84,0,0,0,17.72,121.58ZM17.05,128c0,.22-.08.45-.08.67a1,1,0,0,1-.07.45c0,.22-.08.52-.08.75s-.07.37-.07.6c-.15,1.79-1.72,7.25-4.26,7.25a2.57,2.57,0,0,1-1.87-1c-1.87-2.32-2.39-5.54-2.69-7.93,0-.3-.08-.9-.08-1v-2.69c0-.23.08-.45.08-.68A3.78,3.78,0,0,0,8,123.6c.08-.3.08-.68.15-1,.15-1.72,1.65-7.26,4.34-7.26a2.58,2.58,0,0,1,1.94,1.12,10.5,10.5,0,0,1,1.57,3,16.84,16.84,0,0,1,1,5c0,.23.08.6.08.68Z" transform="translate(1.51)"/></g><g id="Path-4" data-name="Path"><path class="cls-18" d="M33.57,127H18.1A1.1,1.1,0,0,0,17,128.16v9.27a1.11,1.11,0,0,0,1.13,1.12H33.5a1.1,1.1,0,0,0,1.12-1.12v-9.2A1.06,1.06,0,0,0,33.57,127Z" transform="translate(1.51)"/></g><g id="Composite_Path-2" data-name="Composite Path"><path class="cls-17" d="M24.68,124c-.15-.45-.23-1-.38-1.42a9.47,9.47,0,0,0-.52-1.2A12.74,12.74,0,0,0,20.41,117a11.58,11.58,0,0,0-4.63-2.4,10.82,10.82,0,0,0-2.62-.37H11.81a17.22,17.22,0,0,0-1.72.22c-.52.15-1,.23-1.57.38a12.18,12.18,0,0,0-5.23,3.36A12.46,12.46,0,0,0,0,126.14v1a18.58,18.58,0,0,0,.22,1.94,10.66,10.66,0,0,0,.38,1.42c.15.38.3.82.52,1.27a9.59,9.59,0,0,0,.6,1.2,12.81,12.81,0,0,0,7.85,5.83,9.41,9.41,0,0,0,2.09.3h1.65a14.77,14.77,0,0,0,2.09-.3c.53-.15,1-.3,1.5-.45s.82-.37,1.27-.6a14,14,0,0,0,4.34-3.66,12.13,12.13,0,0,0,2.24-5.08c.07-.53.15-1.2.22-1.72v-1.28A13.48,13.48,0,0,0,24.68,124Zm-.83,3.37a11.38,11.38,0,0,1-22.2,2.76,15.92,15.92,0,0,1-.53-2.84v-1.2a16.87,16.87,0,0,1,.23-1.86,11.34,11.34,0,0,1,2.31-4.79,11.22,11.22,0,0,1,4.71-3.36l1.35-.45a13.4,13.4,0,0,1,2.09-.3h1.35a20.09,20.09,0,0,1,2.84.52,11.25,11.25,0,0,1,4.19,2.47,11.6,11.6,0,0,1,2.91,4.34c.08.22.23.59.3.82a8.07,8.07,0,0,1,.3,1.34,11.46,11.46,0,0,1,.15,1.2Z" transform="translate(1.51)"/></g><g id="Composite_Path-3" data-name="Composite Path"><path class="cls-18" d="M29.54,120.68a1.28,1.28,0,0,0-1.2.67c-.82,1.57-1.5,3.22-2.17,4.79-.07.07-.07.3-.07.37v.38a1.5,1.5,0,0,0,1.12,1.19c.07,0,.22.08.3.08a1.35,1.35,0,0,0,1.19-.67c.38-.68.68-1.43,1-2.1s.52-1.12.74-1.64a4.32,4.32,0,0,0,.6-1.65A1.53,1.53,0,0,0,29.54,120.68Zm.15,2.39c-.6,1.27-1.2,2.62-1.87,4a3,3,0,0,1-.38.22.56.56,0,0,1-.52-.52c0-.23.3-.75.3-.9.6-1.35,1.19-2.69,1.87-4a.5.5,0,0,1,.37-.22.5.5,0,0,1,.52.52C30.06,122.33,29.76,122.85,29.69,123.07Z" transform="translate(1.51)"/></g><g id="Composite_Path-4" data-name="Composite Path"><path class="cls-18" d="M25.65,126.21c-.75-1.64-1.42-3.29-2.25-4.86a1.33,1.33,0,0,0-1.12-.59,1.42,1.42,0,0,0-1.42,1.42,1.06,1.06,0,0,0,.08.45c.45,1,.89,2,1.34,3,.3.59.6,1.34,1,1.94a1.18,1.18,0,0,0,1.13.6,1.43,1.43,0,0,0,1.42-1.42C25.72,126.51,25.72,126.36,25.65,126.21Zm-1.35,1.05c-.37,0-.52-.37-.67-.75-.45-1-1.95-4.18-1.95-4.41a.51.51,0,0,1,.53-.52c.45,0,.52.45.67.82.3.67.67,1.5,1.05,2.17a18,18,0,0,1,.89,2.09A.57.57,0,0,1,24.3,127.26Z" transform="translate(1.51)"/></g><g id="Path-5" data-name="Path"><path class="cls-18" d="M29.76,121.65a.49.49,0,0,0-.67.23L27,126.44a.5.5,0,0,0,.9.45L30,122.33A.52.52,0,0,0,29.76,121.65Z" transform="translate(1.51)"/></g><g id="Path-6" data-name="Path"><path class="cls-18" d="M24.82,126.51,22.73,122a.5.5,0,0,0-.9.45l2.1,4.56a.51.51,0,0,0,.67.23A.52.52,0,0,0,24.82,126.51Z" transform="translate(1.51)"/></g><g id="Path-7" data-name="Path"><path class="cls-18" d="M33.57,127H18.1A1.1,1.1,0,0,0,17,128.16v9.27a1.11,1.11,0,0,0,1.13,1.12H33.5a1.1,1.1,0,0,0,1.12-1.12v-9.2A1.06,1.06,0,0,0,33.57,127Z" transform="translate(1.51)"/></g><g id="Path-8" data-name="Path"><rect class="cls-19" x="22.97" y="140.57" width="8.75" height="0.52"/></g><g id="Composite_Path-5" data-name="Composite Path"><path class="cls-18" d="M33.5,125.92H17.8a3.86,3.86,0,0,0-.38.07,2.38,2.38,0,0,0-1.49,1.57.26.26,0,0,1-.08.22v9.95a2.66,2.66,0,0,0,1.2,1.57,2.92,2.92,0,0,0,.75.22h16a2.34,2.34,0,0,0,1.87-1.64c0-.15.07-.3.07-.45v-9.35A2.18,2.18,0,0,0,33.5,125.92Zm.15,11.51a.28.28,0,0,1-.15.08H18.17l-.07-9.35H33.57l.08.07Z" transform="translate(1.51)"/></g><g id="Path-9" data-name="Path"><rect class="cls-19" x="26.56" y="138.93" width="1.57" height="2.09"/></g><g id="Path-10" data-name="Path"><path class="cls-15" d="M29.76,121.58a.49.49,0,0,0-.67.22l-2.17,4.64a.49.49,0,0,0,.22.67.5.5,0,0,0,.68-.22l2.09-4.56A.51.51,0,0,0,29.76,121.58Z" transform="translate(1.51)"/></g><g id="Path-11" data-name="Path"><path class="cls-15" d="M24.82,126.44l-2.09-4.56a.51.51,0,0,0-.67-.23.52.52,0,0,0-.23.68l2.1,4.56a.5.5,0,1,0,.89-.45Z" transform="translate(1.51)"/></g><g id="Composite_Path-6" data-name="Composite Path"><path class="cls-20" d="M33.72,126.74H18A1.43,1.43,0,0,0,16.67,128v9.87A1.64,1.64,0,0,0,18,139H33.8a1.52,1.52,0,0,0,1.27-1.42v-9.42A1.5,1.5,0,0,0,33.72,126.74Zm.46,10.66a.86.86,0,0,1-.73.73H18.3c-.51-.15-.73-.44-.73-.8v-8.9c-.07-.37.37-.88.73-.8H33.38c.29-.08.8.36.8.65" transform="translate(1.51)"/></g><path class="cls-21" d="M24.66,195.53a1.16,1.16,0,0,1-1.16,1.16H8.41a1.16,1.16,0,0,1-1.16-1.16V175.22a4.06,4.06,0,0,1,4.06-4.06H20.6a4.06,4.06,0,0,1,4.06,4.06Z" transform="translate(1.51)"/><rect class="cls-21" x="9.92" y="196.69" width="2.32" height="1.16"/><rect class="cls-21" x="22.69" y="196.69" width="2.32" height="1.16"/><rect class="cls-21" x="8.76" y="178.12" width="17.41" height="10.45"/><rect class="cls-22" x="14.56" y="173.48" width="5.8" height="2.32"/><line class="cls-22" x1="11.08" y1="193.21" x2="14.56" y2="193.21"/><line class="cls-22" x1="20.36" y1="193.21" x2="23.85" y2="193.21"/><rect class="cls-21" x="4.12" y="179.28" width="2.32" height="8.12"/><rect class="cls-21" x="28.49" y="179.28" width="2.32" height="8.12"/><line class="cls-21" x1="6.44" y1="179.28" x2="8.76" y2="179.28"/><line class="cls-21" x1="26.17" y1="179.28" x2="28.49" y2="179.28"/><path class="cls-23" d="M279.66,174.42l-2-2.07a1.92,1.92,0,0,0-2.71,0L261.83,185a1.92,1.92,0,0,0-.05,2.71l2,2.07.35-.33a3.36,3.36,0,1,1,4.66,4.83l-.34.33,2,2.07a1.9,1.9,0,0,0,2.71,0L286.28,184a1.93,1.93,0,0,0,0-2.72l-2-2.07-.34.34a3.36,3.36,0,0,1-4.67-4.84Z" transform="translate(1.51)"/><polygon class="cls-24" points="272.9 181.74 275.28 182.77 276.98 181.14 276.66 183.71 279.25 184.94 276.39 185.37 275.87 188.21 274.72 185.57 272.14 185.8 273.83 184.17 272.9 181.74"/><line class="cls-23" x1="264.99" y1="187.37" x2="265.69" y2="186.71"/><line class="cls-23" x1="266.38" y1="186.04" x2="267.07" y2="185.37"/><line class="cls-23" x1="267.76" y1="184.71" x2="268.45" y2="184.04"/><line class="cls-23" x1="269.14" y1="183.37" x2="269.83" y2="182.71"/><line class="cls-23" x1="270.52" y1="182.04" x2="271.21" y2="181.37"/><line class="cls-23" x1="271.9" y1="180.71" x2="272.59" y2="180.04"/><line class="cls-23" x1="273.28" y1="179.37" x2="273.97" y2="178.71"/><line class="cls-23" x1="274.66" y1="178.04" x2="275.35" y2="177.37"/><line class="cls-23" x1="276.04" y1="176.71" x2="276.73" y2="176.04"/><line class="cls-23" x1="277.42" y1="175.37" x2="278.11" y2="174.71"/><line class="cls-23" x1="273.02" y1="194.3" x2="273.71" y2="193.63"/><line class="cls-23" x1="274.4" y1="192.96" x2="275.09" y2="192.3"/><line class="cls-23" x1="275.78" y1="191.63" x2="276.47" y2="190.96"/><line class="cls-23" x1="277.16" y1="190.3" x2="277.85" y2="189.63"/><line class="cls-23" x1="278.54" y1="188.96" x2="279.23" y2="188.3"/><line class="cls-23" x1="279.92" y1="187.63" x2="280.61" y2="186.97"/><line class="cls-23" x1="281.3" y1="186.3" x2="281.99" y2="185.63"/><line class="cls-23" x1="282.68" y1="184.97" x2="283.37" y2="184.3"/><line class="cls-23" x1="284.06" y1="183.63" x2="284.75" y2="182.97"/><line class="cls-23" x1="285.44" y1="182.3" x2="286.13" y2="181.63"/><path class="cls-25" d="M280.57,17.13h2.88c0-7.67-1.35-12.95-2.67-12.95h-.21V23.85" transform="translate(1.51)"/><path class="cls-25" d="M261.38,5.14V9a2.88,2.88,0,0,0,5.75,0V5.14" transform="translate(1.51)"/><line class="cls-25" x1="265.76" y1="5.14" x2="265.76" y2="23.85"/><circle class="cls-26" cx="273.92" cy="17.61" r="6.24"/><path class="cls-24" d="M272.41,21s3.24-2.33,3.24-4.06c0-2-2.65-2.62-3.24-.2-.59-2.42-3.23-1.79-3.23.2C269.18,18.63,272.41,21,272.41,21Z" transform="translate(1.51)"/><path class="cls-15" d="M272.07,57.3l.76.47-.9.09c0,.29-.11.58-.17.87-.12-.27-.23-.53-.36-.8l-.85.06c.2-.2.63-.53.63-.6s-.23-.51-.34-.78l.73.43.68-.56Zm1.07-1.54a2.88,2.88,0,0,1-.76,5.65,2.82,2.82,0,0,1-2.81-2.35V59a2.4,2.4,0,0,0,2.16,1.31,2.49,2.49,0,0,0,2.46-2.16v-.6a2.63,2.63,0,0,0-1.14-1.77Z" transform="translate(1.51)"/><path class="cls-27" d="M272.42,76.24a.39.39,0,0,1-.35-.21c-.13-.23-.57-.86-1.06-.94-1.9-.31-3.92-1.19-3.92-2.74V65.13a1.54,1.54,0,0,1,1.58-1.66h7.86a.39.39,0,0,1,.18,0c.11.06,1.13.57,1.13,1.47v7.19c0,1.54-2.39,2.73-4,2.87-.48,0-.9.73-1,1a.38.38,0,0,1-.35.23Zm-3.75-12a.76.76,0,0,0-.78.86v7.22c0,1,1.68,1.69,3.25,1.94a2.29,2.29,0,0,1,1.26.82,1.93,1.93,0,0,1,1.33-.88c1.45-.12,3.3-1.14,3.3-2.06V65c0-.3-.39-.58-.6-.71Z" transform="translate(1.51)"/><rect class="cls-27" x="273.47" y="63.71" width="0.6" height="11.39"/><rect class="cls-27" x="268.68" y="68.8" width="10.19" height="0.6"/><rect class="cls-27" x="269.11" y="64.27" width="4.76" height="4.46"/><path class="cls-28" d="M277.28,72h-5v3.4a1.83,1.83,0,0,1,1.27-.84C277,73.88,277.28,72,277.28,72Z" transform="translate(1.51)"/><path class="cls-28" d="M269.42,82.58v-.45a6.35,6.35,0,0,1,2.09-1.35A4.77,4.77,0,0,1,269.42,82.58Zm5.69-.45v.45c-.9,0-2.25-1.35-2.1-2.09C273.61,80.93,274.36,81.53,275.11,82.13Zm5.69-2.84a18.93,18.93,0,0,1-2.55.29,4,4,0,0,1-2.69-.74,23.07,23.07,0,0,1,2.54-.45C278.7,78.39,280.35,78.54,280.8,79.29Zm2.85-2.55a13.05,13.05,0,0,1-2.85,1.2h-2.1c0-.15-.14-.15-.3-.3a7.33,7.33,0,0,1,3.45-1.2A9,9,0,0,1,283.65,76.74Zm-17.53.9a3,3,0,0,1-1.5.3,6.15,6.15,0,0,1-3.74-1.2,9.79,9.79,0,0,1,1.65-.3A7.86,7.86,0,0,1,266.12,77.64Zm7.34,1.8c1.65.3,3.3-.3,4.94,1.19a10.23,10.23,0,0,1-1.94.3c-.9,0-3.3-.3-3.3-1.64,0-1.65,3.3-3.3,4-3.15C277.05,77.49,274.66,78.84,273.46,79.44Zm-2.09-.15c0,1.49-3.3,1.64-3.45,1.64a11.08,11.08,0,0,1-1.8-.3c.45-.29,1.05-.6,1.5-.89-1.35-.45-2.7,0-4-.6a16,16,0,0,1,2.84-.75,9.2,9.2,0,0,1,2.4.45,5.18,5.18,0,0,1-.9.6c.15.14.45.14,3.14,0-1-.46-3.44-1.8-3.74-3.3C267.92,76.44,271.37,77.49,271.37,79.29Zm12.87-5.7a9.17,9.17,0,0,1-3.89,2.85l-.6-.15a5.62,5.62,0,0,1,3.75-2.7Zm-23.36,0a6.21,6.21,0,0,1,3.9,2.7c-.16.15,0,.15-.46.15-1.05,0-3.59-1.8-4-2.85Zm16.63,3.9c0-1.95,2.84-4.65,2.84-4C280.35,75.39,277.51,78.09,277.51,77.49Zm-10.64.3c-1.05-.6-2.69-3-2.69-4.2,0-.44,0-.15.14-.29A6.3,6.3,0,0,1,266.87,77.79ZM282.6,73.3h-.45c.45-1,2.4-3.15,3.6-2.7C285.15,71.05,283.5,73.3,282.6,73.3Zm-23.82-2.7c1.2-.3,3,1.65,3.6,2.7C261.33,73.59,259.53,71.79,258.78,70.6Zm23.22.75a16.32,16.32,0,0,1-.9,3,12.3,12.3,0,0,1-.3-2c0-1.49-.15-1.19.9-3.14A11.77,11.77,0,0,1,282,71.35Zm-18.27,1a12.3,12.3,0,0,1-.3,2,4.59,4.59,0,0,1-.9-3,12.79,12.79,0,0,1,.3-2.1A5.35,5.35,0,0,1,263.73,72.39ZM282.9,71.2A3.75,3.75,0,0,1,285,67.45C285,68.2,284.24,70.6,282.9,71.2Zm-21.12,0c-1.5-.45-2.25-2.85-2.4-3.75C261,68.2,261.33,69.85,261.78,71.2Zm21-2.55L282.6,70a9.84,9.84,0,0,1-1.5-2.55v-1.8A19.22,19.22,0,0,1,282.75,68.65ZM261.93,70a1.12,1.12,0,0,1-.15-.75c0-1.5.45-2,1.65-3.6A6.13,6.13,0,0,1,261.93,70ZM285,64.46c0,.9-.89,3.29-1.79,3.89a5.4,5.4,0,0,1,1.64-4.19C285,64.31,285,64.16,285,64.46ZM261.33,67.3v.9a4.13,4.13,0,0,1-1.8-3.29l.15-.75C260.13,64.76,261.33,66.4,261.33,67.3Zm20.37-1.79c-.3-.15-3-2-3-2.85v-.45C279.45,62.51,282,64.16,281.7,65.51Zm-19-.15c-.14-1,2.25-3,3.15-3.15A4.75,4.75,0,0,1,262.67,65.36Zm20.68-1a6.85,6.85,0,0,1-.6,1.94A8.21,8.21,0,0,1,282.3,64a7.4,7.4,0,0,1,.45-2.25A10.18,10.18,0,0,1,283.35,64.31Zm-21.12-.45a8.13,8.13,0,0,1-.45,2.39,6.39,6.39,0,0,1-.6-2.09,11,11,0,0,1,.6-2.4A7.53,7.53,0,0,1,262.23,63.86Zm19.62-1.35a4.63,4.63,0,0,1-.15,1.35,8,8,0,0,1-1.05-3,6.6,6.6,0,0,1,.3-1.5A12.45,12.45,0,0,1,281.85,62.51Zm-18-1.65a11.9,11.9,0,0,1-1,3,3.91,3.91,0,0,1-.16-1.35,5.91,5.91,0,0,1,.91-3.15A6.52,6.52,0,0,1,263.87,60.86Zm16.48,1.8c-1.19-.6-2.7-2.55-2.7-3.45a5.55,5.55,0,0,1,2.7,2.85Zm-16.17,0v-.6c0-.9,1.49-2.55,2.69-2.85A7.34,7.34,0,0,1,264.18,62.66Z" transform="translate(1.51)"/><path class="cls-27" d="M269.68,83.92a.41.41,0,0,1-.31-.14h0a5.36,5.36,0,0,0-2.18-1,32.06,32.06,0,0,0-5.34-.73.4.4,0,0,1-.39-.42.41.41,0,0,1,.43-.38,31.16,31.16,0,0,1,5.53.76,7.32,7.32,0,0,1,2.36,1.06,12.54,12.54,0,0,1,2.5-.33,14.63,14.63,0,0,1,2.71.34,7,7,0,0,1,2.62-1.25,19.73,19.73,0,0,1,5.33-.58.4.4,0,0,1,0,.8h0a19.37,19.37,0,0,0-5.08.55,5.19,5.19,0,0,0-2.4,1.16.43.43,0,0,1-.41.15,15,15,0,0,0-2.75-.37,12,12,0,0,0-2.5.36Z" transform="translate(1.51)"/><path class="cls-27" d="M261.7,82.18a1.47,1.47,0,1,1,1.47-1.47A1.47,1.47,0,0,1,261.7,82.18Zm0-2.13a.65.65,0,0,0-.66.66.66.66,0,0,0,.66.67.67.67,0,0,0,.67-.67A.66.66,0,0,0,261.7,80.05Z" transform="translate(1.51)"/><path class="cls-27" d="M282.82,82.18a1.47,1.47,0,1,1,1.47-1.47A1.47,1.47,0,0,1,282.82,82.18Zm0-2.13a.66.66,0,0,0-.66.66.67.67,0,1,0,.66-.66Z" transform="translate(1.51)"/><path class="cls-27" d="M275.7,85.92a1.47,1.47,0,1,1,1.48-1.47A1.47,1.47,0,0,1,275.7,85.92Zm0-2.14a.67.67,0,1,0,.67.67A.67.67,0,0,0,275.7,83.78Z" transform="translate(1.51)"/><path class="cls-27" d="M268.82,85.92a1.47,1.47,0,1,1,1.47-1.47A1.47,1.47,0,0,1,268.82,85.92Zm0-2.14a.67.67,0,1,0,.67.67A.67.67,0,0,0,268.82,83.78Z" transform="translate(1.51)"/><path class="cls-27" d="M282,116.72H279.8l-3,5.6h1.9a.49.49,0,0,1,.48.59l0,.08-1.26,3.1,4.55-5h-2.3a.49.49,0,0,1-.45-.67l0-.07Zm.87-1a.49.49,0,0,1,.42.74L281,120.13h2.53a.49.49,0,0,1,.41.75l-.05.06-7.14,7.82a.49.49,0,0,1-.81-.52l2-5h-2a.48.48,0,0,1-.46-.64l0-.08,3.57-6.57a.48.48,0,0,1,.43-.25Zm-15.47,21.1a.83.83,0,1,0,.82.83A.82.82,0,0,0,267.35,136.85Zm10.07,0a.83.83,0,1,0,.83.83A.83.83,0,0,0,277.42,136.85Zm-13.73-16.66a.54.54,0,0,1,.5.33l0,.09,1.22,5.16h8.32a.55.55,0,0,1,.55.55.55.55,0,0,1-.45.54h-8.17l1.66,7h11l2.62-7.86a.55.55,0,0,1,.7-.35.56.56,0,0,1,.37.6l0,.09-2.74,8.24a.54.54,0,0,1-.43.37H267.61l.17.73h9.64a1.93,1.93,0,1,1-1.92,1.93,2.06,2.06,0,0,1,.18-.83h-6.59a1.92,1.92,0,1,1-3.66.83,1.93,1.93,0,0,1,1.25-1.81l-2.17-9.25a.53.53,0,0,1-.09-.3v0l-1.17-5h-2.77a.56.56,0,0,1-.54-.45v-.1a.55.55,0,0,1,.45-.54h3.31Z" transform="translate(1.51)"/><path class="cls-29" d="M282,116.72H279.8l-3,5.6h1.9a.49.49,0,0,1,.48.59l0,.08-1.26,3.1,4.55-5h-2.3a.49.49,0,0,1-.45-.67l0-.07Zm.87-1a.49.49,0,0,1,.42.74L281,120.13h2.53a.49.49,0,0,1,.41.75l-.05.06-7.14,7.82a.49.49,0,0,1-.81-.52l2-5h-2a.48.48,0,0,1-.46-.64l0-.08,3.57-6.57a.48.48,0,0,1,.43-.25Z" transform="translate(1.51)"/><path class="cls-30" d="M183.3,4.69l-1.05-1.05a1.12,1.12,0,0,0-1.57,0l-11,11-5.77-5.77a1.12,1.12,0,0,0-1.57,0l-1.05,1a1.13,1.13,0,0,0,0,1.58l7.6,7.59a1.07,1.07,0,0,0,.78.33,1.08,1.08,0,0,0,.78-.33L183.29,6.26A1.11,1.11,0,0,0,183.3,4.69Z" transform="translate(1.51)"/><path class="cls-30" d="M183.3,62.69l-1.05-1a1.12,1.12,0,0,0-1.57,0l-11,11-5.77-5.77a1.12,1.12,0,0,0-1.57,0l-1.05,1.05a1.13,1.13,0,0,0,0,1.58l7.6,7.59a1.07,1.07,0,0,0,.78.33,1.08,1.08,0,0,0,.78-.33l12.84-12.84A1.11,1.11,0,0,0,183.3,62.69Z" transform="translate(1.51)"/><path class="cls-30" d="M183.3,120.69l-1.05-1a1.12,1.12,0,0,0-1.57,0l-11,11-5.77-5.77a1.12,1.12,0,0,0-1.57,0l-1.05,1.05a1.13,1.13,0,0,0,0,1.58l7.6,7.59a1.07,1.07,0,0,0,.78.33,1.08,1.08,0,0,0,.78-.33l12.84-12.84A1.11,1.11,0,0,0,183.3,120.69Z" transform="translate(1.51)"/><path class="cls-30" d="M183.3,178.69l-1.05-1.05a1.12,1.12,0,0,0-1.57,0l-11,11-5.77-5.77a1.12,1.12,0,0,0-1.57,0l-1.05,1.05a1.13,1.13,0,0,0,0,1.58l7.6,7.59a1.07,1.07,0,0,0,.78.33,1.08,1.08,0,0,0,.78-.33l12.84-12.84A1.11,1.11,0,0,0,183.3,178.69Z" transform="translate(1.51)"/><path class="cls-30" d="M414.3,4.69l-1.05-1.05a1.12,1.12,0,0,0-1.57,0l-11,11-5.77-5.77a1.12,1.12,0,0,0-1.57,0l-1,1a1.13,1.13,0,0,0,0,1.58l7.6,7.59a1.07,1.07,0,0,0,.78.33,1.08,1.08,0,0,0,.78-.33L414.29,6.26A1.11,1.11,0,0,0,414.3,4.69Z" transform="translate(1.51)"/><path class="cls-30" d="M414.3,62.69l-1.05-1a1.12,1.12,0,0,0-1.57,0l-11,11-5.77-5.77a1.12,1.12,0,0,0-1.57,0l-1,1.05a1.13,1.13,0,0,0,0,1.58l7.6,7.59a1.07,1.07,0,0,0,.78.33,1.08,1.08,0,0,0,.78-.33l12.84-12.84A1.11,1.11,0,0,0,414.3,62.69Z" transform="translate(1.51)"/><path class="cls-30" d="M414.3,120.69l-1.05-1a1.12,1.12,0,0,0-1.57,0l-11,11-5.77-5.77a1.12,1.12,0,0,0-1.57,0l-1,1.05a1.13,1.13,0,0,0,0,1.58l7.6,7.59a1.07,1.07,0,0,0,.78.33,1.08,1.08,0,0,0,.78-.33l12.84-12.84A1.11,1.11,0,0,0,414.3,120.69Z" transform="translate(1.51)"/><path class="cls-30" d="M414.3,178.69l-1.05-1.05a1.12,1.12,0,0,0-1.57,0l-11,11-5.77-5.77a1.12,1.12,0,0,0-1.57,0l-1,1.05a1.13,1.13,0,0,0,0,1.58l7.6,7.59a1.07,1.07,0,0,0,.78.33,1.08,1.08,0,0,0,.78-.33l12.84-12.84A1.11,1.11,0,0,0,414.3,178.69Z" transform="translate(1.51)"/></g></g></svg>