<svg width="361" height="246" viewBox="0 0 361 246" fill="none" xmlns="http://www.w3.org/2000/svg">
<g filter="url(#filter0_b_1093_224952)">
<g clip-path="url(#clip0_1093_224952)">
<rect y="0.884766" width="360.759" height="245.115" rx="20.112" fill="black"/>
<path d="M317.542 -24.2748C327.597 -34.3306 343.901 -34.3306 353.957 -24.2748L432.059 53.8271C442.114 63.8829 442.114 80.1866 432.059 90.2423L353.957 168.344C343.901 178.4 327.597 178.4 317.542 168.344L239.44 90.2423C229.384 80.1866 229.384 63.8829 239.44 53.8272L317.542 -24.2748Z" fill="url(#paint0_linear_1093_224952)" fill-opacity="0.8"/>
<path d="M243.378 -123.576C253.434 -133.631 269.738 -133.631 279.794 -123.576L357.896 -45.4736C367.951 -35.4179 367.951 -19.1142 357.896 -9.05844L279.794 69.0435C269.738 79.0993 253.434 79.0993 243.378 69.0435L165.276 -9.05844C155.221 -19.1142 155.221 -35.4179 165.276 -45.4736L243.378 -123.576Z" fill="url(#paint1_linear_1093_224952)" fill-opacity="0.8"/>
<g filter="url(#filter1_d_1093_224952)">
<path d="M26.3454 80.25V69.2798H33.2231V70.7047H28.0005V74.0471H32.8643V75.4666H28.0005V78.8252H33.2874V80.25H26.3454ZM35.4341 80.25V69.2798H39.3443C40.1942 69.2798 40.8995 69.4262 41.4602 69.7191C42.0244 70.0119 42.4458 70.4172 42.7243 70.935C43.0028 71.4492 43.1421 72.0438 43.1421 72.7187C43.1421 73.3901 43.0011 73.9811 42.7189 74.4917C42.4404 74.9988 42.019 75.3934 41.4548 75.6755C40.8941 75.9576 40.1889 76.0987 39.339 76.0987H36.3768V74.6738H39.189C39.7246 74.6738 40.1603 74.5971 40.496 74.4435C40.8352 74.29 41.0834 74.0668 41.2405 73.774C41.3977 73.4811 41.4762 73.1294 41.4762 72.7187C41.4762 72.3045 41.3959 71.9456 41.2352 71.6421C41.0781 71.3385 40.8299 71.1064 40.4906 70.9457C40.1549 70.7814 39.7139 70.6993 39.1676 70.6993H37.0892V80.25H35.4341ZM40.8495 75.3006L43.5599 80.25H41.6744L39.0176 75.3006H40.8495ZM46.8113 69.2798V80.25H45.1562V69.2798H46.8113ZM58.3332 72.8473H56.662C56.5977 72.4902 56.4781 72.1759 56.3031 71.9045C56.1281 71.6331 55.9139 71.4028 55.6603 71.2135C55.4068 71.0243 55.1229 70.8814 54.8086 70.785C54.498 70.6886 54.1676 70.6404 53.8177 70.6404C53.1856 70.6404 52.6196 70.7993 52.1197 71.1171C51.6233 71.4349 51.2305 71.9009 50.9412 72.5152C50.6555 73.1294 50.5127 73.8793 50.5127 74.7649C50.5127 75.6577 50.6555 76.4112 50.9412 77.0254C51.2305 77.6396 51.6251 78.1038 52.125 78.4181C52.625 78.7323 53.1874 78.8894 53.8123 78.8894C54.1587 78.8894 54.4872 78.843 54.7979 78.7502C55.1122 78.6538 55.3961 78.5127 55.6496 78.327C55.9032 78.1413 56.1174 77.9146 56.2924 77.6467C56.4709 77.3753 56.5941 77.0646 56.662 76.7147L58.3332 76.72C58.244 77.2593 58.0708 77.7556 57.8137 78.2092C57.5601 78.6591 57.2334 79.0484 56.8334 79.3769C56.437 79.7018 55.9835 79.9536 55.4728 80.1322C54.9622 80.3107 54.4051 80.4 53.8016 80.4C52.8517 80.4 52.0054 80.175 51.2626 79.7251C50.5198 79.2715 49.9342 78.6234 49.5057 77.7806C49.0807 76.9379 48.8682 75.9326 48.8682 74.7649C48.8682 73.5936 49.0825 72.5884 49.511 71.7492C49.9395 70.9064 50.5252 70.2601 51.268 69.8101C52.0107 69.3566 52.8553 69.1298 53.8016 69.1298C54.3837 69.1298 54.9265 69.2138 55.43 69.3816C55.9371 69.5459 56.3924 69.7887 56.7959 70.1101C57.1994 70.4279 57.5333 70.8171 57.7976 71.2778C58.0618 71.7349 58.2404 72.2581 58.3332 72.8473ZM60.3138 80.25V69.2798H61.969V74.5185H62.1029L66.7042 69.2798H68.7879L64.3634 74.2185L68.8039 80.25H66.8113L63.2653 75.3488L61.969 76.8379V80.25H60.3138ZM74.3225 80.25V69.2798H75.9777V74.0471H81.4467V69.2798H83.1072V80.25H81.4467V75.4666H75.9777V80.25H74.3225ZM92.5722 69.2798H94.2327V76.4951C94.2327 77.2628 94.0524 77.9431 93.6917 78.5359C93.331 79.1251 92.824 79.5894 92.1705 79.9286C91.517 80.2643 90.751 80.4321 89.8725 80.4321C88.9976 80.4321 88.2334 80.2643 87.5799 79.9286C86.9264 79.5894 86.4193 79.1251 86.0587 78.5359C85.698 77.9431 85.5176 77.2628 85.5176 76.4951V69.2798H87.1728V76.3612C87.1728 76.8575 87.2817 77.2985 87.4996 77.6842C87.721 78.0699 88.0334 78.3734 88.437 78.5948C88.8405 78.8127 89.319 78.9216 89.8725 78.9216C90.4296 78.9216 90.9099 78.8127 91.3134 78.5948C91.7205 78.3734 92.0312 78.0699 92.2455 77.6842C92.4633 77.2985 92.5722 76.8575 92.5722 76.3612V69.2798ZM96.6391 80.25V69.2798H100.657C101.435 69.2798 102.08 69.4084 102.59 69.6655C103.101 69.919 103.483 70.2636 103.737 70.6993C103.99 71.1314 104.117 71.6188 104.117 72.1616C104.117 72.6187 104.033 73.0044 103.865 73.3186C103.697 73.6293 103.472 73.8793 103.19 74.0686C102.912 74.2543 102.605 74.39 102.269 74.4757V74.5828C102.633 74.6006 102.988 74.7185 103.335 74.9363C103.685 75.1506 103.974 75.4559 104.203 75.8523C104.431 76.2487 104.545 76.7308 104.545 77.2985C104.545 77.8592 104.413 78.3627 104.149 78.8091C103.888 79.2519 103.485 79.6036 102.938 79.8643C102.392 80.1214 101.694 80.25 100.844 80.25H96.6391ZM98.2943 78.8305H100.683C101.476 78.8305 102.044 78.677 102.387 78.3699C102.73 78.0627 102.901 77.6789 102.901 77.2182C102.901 76.8718 102.813 76.554 102.638 76.2647C102.463 75.9755 102.214 75.7452 101.889 75.5737C101.567 75.4023 101.185 75.3166 100.742 75.3166H98.2943V78.8305ZM98.2943 74.0257H100.512C100.883 74.0257 101.217 73.9543 101.514 73.8114C101.814 73.6686 102.051 73.4686 102.226 73.2115C102.405 72.9508 102.494 72.6437 102.494 72.2902C102.494 71.8367 102.335 71.4564 102.017 71.1492C101.699 70.8421 101.212 70.6886 100.555 70.6886H98.2943V74.0257ZM106.509 80.25V69.2798H113.386V70.7047H108.164V74.0471H113.027V75.4666H108.164V78.8252H113.451V80.25H106.509ZM115.597 80.25V69.2798H119.508C120.357 69.2798 121.063 69.4262 121.623 69.7191C122.188 70.0119 122.609 70.4172 122.887 70.935C123.166 71.4492 123.305 72.0438 123.305 72.7187C123.305 73.3901 123.164 73.9811 122.882 74.4917C122.604 74.9988 122.182 75.3934 121.618 75.6755C121.057 75.9576 120.352 76.0987 119.502 76.0987H116.54V74.6738H119.352C119.888 74.6738 120.324 74.5971 120.659 74.4435C120.998 74.29 121.247 74.0668 121.404 73.774C121.561 73.4811 121.639 73.1294 121.639 72.7187C121.639 72.3045 121.559 71.9456 121.398 71.6421C121.241 71.3385 120.993 71.1064 120.654 70.9457C120.318 70.7814 119.877 70.6993 119.331 70.6993H117.252V80.25H115.597ZM121.013 75.3006L123.723 80.25H121.838L119.181 75.3006H121.013ZM124.778 70.7047V69.2798H133.268V70.7047H129.846V80.25H128.196V70.7047H124.778ZM139.137 69.2798H141.145L144.638 77.8074H144.766L148.259 69.2798H150.267V80.25H148.693V72.3116H148.591L145.355 80.2339H144.048L140.813 72.3063H140.711V80.25H139.137V69.2798ZM153.601 80.3518C153.308 80.3518 153.056 80.2482 152.845 80.0411C152.635 79.8304 152.529 79.5769 152.529 79.2805C152.529 78.9876 152.635 78.7377 152.845 78.5306C153.056 78.3199 153.308 78.2145 153.601 78.2145C153.893 78.2145 154.145 78.3199 154.356 78.5306C154.566 78.7377 154.672 78.9876 154.672 79.2805C154.672 79.4769 154.622 79.6572 154.522 79.8215C154.425 79.9822 154.297 80.1107 154.136 80.2071C153.975 80.3036 153.797 80.3518 153.601 80.3518Z" fill="#DCA915"/>
</g>
<path d="M33.7374 117.96H32.3447C32.2911 117.662 32.1914 117.401 32.0456 117.174C31.8998 116.948 31.7212 116.756 31.5099 116.599C31.2987 116.441 31.0621 116.322 30.8002 116.241C30.5413 116.161 30.266 116.121 29.9744 116.121C29.4477 116.121 28.976 116.253 28.5594 116.518C28.1457 116.783 27.8184 117.171 27.5774 117.683C27.3393 118.195 27.2203 118.82 27.2203 119.558C27.2203 120.302 27.3393 120.93 27.5774 121.442C27.8184 121.954 28.1472 122.34 28.5639 122.602C28.9805 122.864 29.4492 122.995 29.9699 122.995C30.2586 122.995 30.5324 122.956 30.7913 122.879C31.0532 122.799 31.2897 122.681 31.501 122.526C31.7123 122.372 31.8909 122.183 32.0367 121.96C32.1855 121.733 32.2881 121.474 32.3447 121.183L33.7374 121.187C33.663 121.637 33.5186 122.05 33.3044 122.428C33.0931 122.803 32.8208 123.128 32.4875 123.401C32.1572 123.672 31.7793 123.882 31.3537 124.031C30.9282 124.179 30.4639 124.254 29.961 124.254C29.1694 124.254 28.4642 124.066 27.8452 123.691C27.2262 123.314 26.7382 122.773 26.3811 122.071C26.0269 121.369 25.8499 120.531 25.8499 119.558C25.8499 118.582 26.0284 117.744 26.3855 117.045C26.7426 116.343 27.2307 115.804 27.8497 115.429C28.4686 115.051 29.1724 114.862 29.961 114.862C30.4461 114.862 30.8984 114.932 31.318 115.072C31.7406 115.209 32.12 115.411 32.4563 115.679C32.7925 115.944 33.0708 116.268 33.291 116.652C33.5112 117.033 33.66 117.469 33.7374 117.96ZM37.276 124.281C36.8416 124.281 36.4487 124.2 36.0976 124.04C35.7464 123.876 35.4682 123.639 35.2629 123.33C35.0605 123.02 34.9593 122.641 34.9593 122.192C34.9593 121.805 35.0337 121.486 35.1825 121.236C35.3313 120.986 35.5322 120.789 35.7851 120.643C36.0381 120.497 36.3208 120.387 36.6332 120.312C36.9457 120.238 37.2641 120.181 37.5885 120.143C37.9992 120.095 38.3325 120.056 38.5884 120.027C38.8443 119.994 39.0303 119.942 39.1464 119.87C39.2624 119.799 39.3204 119.683 39.3204 119.522V119.491C39.3204 119.101 39.2103 118.799 38.9901 118.585C38.7729 118.371 38.4485 118.264 38.017 118.264C37.5677 118.264 37.2135 118.363 36.9546 118.563C36.6987 118.759 36.5217 118.978 36.4235 119.219L35.1691 118.933C35.3179 118.516 35.5352 118.18 35.8208 117.924C36.1095 117.665 36.4413 117.478 36.8163 117.362C37.1912 117.243 37.5855 117.183 37.9992 117.183C38.2729 117.183 38.5631 117.216 38.8696 117.281C39.1791 117.344 39.4677 117.46 39.7356 117.63C40.0064 117.799 40.2281 118.042 40.4007 118.357C40.5733 118.67 40.6596 119.076 40.6596 119.576V124.129H39.3562V123.192H39.3026C39.2163 123.364 39.0868 123.534 38.9142 123.7C38.7416 123.867 38.5199 124.005 38.2491 124.116C37.9783 124.226 37.654 124.281 37.276 124.281ZM37.5662 123.209C37.9352 123.209 38.2506 123.136 38.5125 122.991C38.7774 122.845 38.9782 122.654 39.1151 122.419C39.255 122.181 39.3249 121.927 39.3249 121.656V120.772C39.2773 120.82 39.185 120.864 39.0482 120.906C38.9142 120.945 38.761 120.979 38.5884 121.009C38.4158 121.036 38.2476 121.061 38.084 121.085C37.9203 121.105 37.7834 121.123 37.6733 121.138C37.4144 121.171 37.1778 121.226 36.9636 121.303C36.7523 121.381 36.5827 121.492 36.4547 121.638C36.3297 121.781 36.2672 121.971 36.2672 122.209C36.2672 122.54 36.3892 122.79 36.6332 122.959C36.8773 123.126 37.1882 123.209 37.5662 123.209ZM42.4373 124.129V117.273H43.7273V118.362H43.7987C43.9237 117.993 44.1439 117.703 44.4594 117.491C44.7778 117.277 45.1379 117.17 45.5396 117.17C45.6229 117.17 45.7211 117.173 45.8342 117.179C45.9503 117.185 46.041 117.192 46.1065 117.201V118.478C46.0529 118.463 45.9577 118.447 45.8208 118.429C45.6839 118.408 45.547 118.397 45.4102 118.397C45.0947 118.397 44.8135 118.464 44.5665 118.598C44.3225 118.729 44.129 118.912 43.9862 119.147C43.8434 119.379 43.7719 119.644 43.7719 119.942V124.129H42.4373ZM49.5827 124.263C49.0292 124.263 48.5352 124.121 48.1007 123.839C47.6692 123.553 47.3299 123.147 47.083 122.62C46.8389 122.09 46.7169 121.455 46.7169 120.714C46.7169 119.973 46.8404 119.339 47.0874 118.813C47.3374 118.286 47.6796 117.883 48.1141 117.603C48.5486 117.323 49.0411 117.183 49.5916 117.183C50.0171 117.183 50.3594 117.255 50.6183 117.398C50.8801 117.537 51.0825 117.701 51.2253 117.889C51.3712 118.076 51.4842 118.241 51.5646 118.384H51.6449V114.987H52.9796V124.129H51.6762V123.062H51.5646C51.4842 123.208 51.3682 123.375 51.2164 123.562C51.0676 123.749 50.8623 123.913 50.6004 124.053C50.3385 124.193 49.9993 124.263 49.5827 124.263ZM49.8773 123.125C50.2612 123.125 50.5855 123.023 50.8504 122.821C51.1182 122.616 51.3206 122.331 51.4575 121.968C51.5973 121.605 51.6673 121.183 51.6673 120.701C51.6673 120.225 51.5988 119.808 51.4619 119.451C51.325 119.094 51.1242 118.816 50.8593 118.616C50.5945 118.417 50.2671 118.317 49.8773 118.317C49.4755 118.317 49.1408 118.421 48.8729 118.63C48.6051 118.838 48.4027 119.122 48.2659 119.482C48.1319 119.842 48.065 120.248 48.065 120.701C48.065 121.159 48.1334 121.571 48.2703 121.937C48.4072 122.303 48.6096 122.593 48.8774 122.808C49.1482 123.019 49.4815 123.125 49.8773 123.125ZM65.6969 114.987V124.129H64.4292L59.7824 117.424H59.6976V124.129H58.3183V114.987H59.5949L64.2462 121.701H64.331V114.987H65.6969ZM71.9451 121.285V117.273H73.2842V124.129H71.9719V122.942H71.9004C71.7427 123.308 71.4898 123.613 71.1416 123.857C70.7964 124.098 70.3664 124.218 69.8516 124.218C69.4111 124.218 69.0213 124.121 68.6821 123.928C68.3458 123.732 68.0809 123.441 67.8875 123.058C67.6971 122.674 67.6018 122.199 67.6018 121.634V117.273H68.9365V121.473C68.9365 121.94 69.0659 122.312 69.3248 122.589C69.5837 122.866 69.92 123.004 70.3337 123.004C70.5836 123.004 70.8321 122.942 71.0791 122.817C71.3291 122.692 71.5359 122.503 71.6996 122.25C71.8662 121.997 71.9481 121.675 71.9451 121.285ZM75.0775 124.129V117.273H76.3586V118.388H76.4435C76.5863 118.011 76.8199 117.716 77.1443 117.505C77.4686 117.29 77.857 117.183 78.3093 117.183C78.7676 117.183 79.1515 117.29 79.461 117.505C79.7734 117.719 80.0041 118.014 80.1529 118.388H80.2243C80.3879 118.022 80.6483 117.731 81.0054 117.514C81.3625 117.293 81.7881 117.183 82.2821 117.183C82.904 117.183 83.4114 117.378 83.8042 117.768C84.2 118.158 84.3979 118.746 84.3979 119.531V124.129H83.0632V119.656C83.0632 119.192 82.9368 118.856 82.6838 118.647C82.4309 118.439 82.1288 118.335 81.7777 118.335C81.3432 118.335 81.0054 118.469 80.7644 118.737C80.5233 119.002 80.4028 119.342 80.4028 119.759V124.129H79.0726V119.571C79.0726 119.199 78.9566 118.9 78.7244 118.674C78.4923 118.448 78.1903 118.335 77.8183 118.335C77.5653 118.335 77.3317 118.402 77.1175 118.536C76.9062 118.667 76.7351 118.85 76.6041 119.085C76.4762 119.32 76.4122 119.592 76.4122 119.902V124.129H75.0775ZM86.2939 124.129V114.987H87.6286V118.384H87.7089C87.7863 118.241 87.8979 118.076 88.0437 117.889C88.1895 117.701 88.3919 117.537 88.6508 117.398C88.9097 117.255 89.2519 117.183 89.6774 117.183C90.2309 117.183 90.7249 117.323 91.1594 117.603C91.5939 117.883 91.9346 118.286 92.1816 118.813C92.4316 119.339 92.5566 119.973 92.5566 120.714C92.5566 121.455 92.4331 122.09 92.1861 122.62C91.9391 123.147 91.5998 123.553 91.1683 123.839C90.7368 124.121 90.2443 124.263 89.6908 124.263C89.2742 124.263 88.9335 124.193 88.6686 124.053C88.4067 123.913 88.2014 123.749 88.0526 123.562C87.9038 123.375 87.7893 123.208 87.7089 123.062H87.5973V124.129H86.2939ZM87.6018 120.701C87.6018 121.183 87.6717 121.605 87.8116 121.968C87.9514 122.331 88.1538 122.616 88.4187 122.821C88.6835 123.023 89.0079 123.125 89.3918 123.125C89.7905 123.125 90.1238 123.019 90.3916 122.808C90.6595 122.593 90.8618 122.303 90.9987 121.937C91.1386 121.571 91.2085 121.159 91.2085 120.701C91.2085 120.248 91.1401 119.842 91.0032 119.482C90.8693 119.122 90.6669 118.838 90.3961 118.63C90.1283 118.421 89.7935 118.317 89.3918 118.317C89.0049 118.317 88.6776 118.417 88.4097 118.616C88.1449 118.816 87.944 119.094 87.8071 119.451C87.6702 119.808 87.6018 120.225 87.6018 120.701ZM97.0103 124.267C96.3348 124.267 95.753 124.123 95.265 123.834C94.7799 123.543 94.4049 123.133 94.1401 122.607C93.8782 122.077 93.7473 121.457 93.7473 120.745C93.7473 120.043 93.8782 119.424 94.1401 118.888C94.4049 118.353 94.774 117.935 95.2471 117.634C95.7233 117.334 96.2797 117.183 96.9166 117.183C97.3034 117.183 97.6784 117.247 98.0414 117.375C98.4045 117.503 98.7303 117.704 99.019 117.978C99.3077 118.252 99.5353 118.607 99.702 119.045C99.8686 119.479 99.9519 120.007 99.9519 120.629V121.102H94.5017V120.103H98.644C98.644 119.751 98.5726 119.44 98.4298 119.17C98.2869 118.896 98.0861 118.68 97.8272 118.522C97.5713 118.365 97.2707 118.286 96.9255 118.286C96.5505 118.286 96.2232 118.378 95.9435 118.563C95.6667 118.744 95.4524 118.982 95.3007 119.277C95.1519 119.568 95.0775 119.885 95.0775 120.228V121.009C95.0775 121.467 95.1578 121.857 95.3185 122.178C95.4822 122.5 95.7099 122.745 96.0015 122.915C96.2931 123.081 96.6339 123.165 97.0237 123.165C97.2766 123.165 97.5073 123.129 97.7156 123.058C97.9239 122.983 98.1039 122.873 98.2557 122.727C98.4075 122.581 98.5235 122.401 98.6039 122.187L99.8671 122.415C99.7659 122.787 99.5844 123.113 99.3225 123.392C99.0636 123.669 98.7378 123.885 98.345 124.04C97.9551 124.191 97.5102 124.267 97.0103 124.267ZM101.433 124.129V117.273H102.723V118.362H102.794C102.919 117.993 103.139 117.703 103.455 117.491C103.773 117.277 104.133 117.17 104.535 117.17C104.618 117.17 104.717 117.173 104.83 117.179C104.946 117.185 105.037 117.192 105.102 117.201V118.478C105.048 118.463 104.953 118.447 104.816 118.429C104.679 118.408 104.543 118.397 104.406 118.397C104.09 118.397 103.809 118.464 103.562 118.598C103.318 118.729 103.125 118.912 102.982 119.147C102.839 119.379 102.767 119.644 102.767 119.942V124.129H101.433Z" fill="#C4C4C4"/>
<g filter="url(#filter2_d_1093_224952)">
<path d="M26.44 153.756V151.842L31.518 146.864C32.0036 146.373 32.4084 145.938 32.7321 145.557C33.0559 145.176 33.2987 144.807 33.4606 144.45C33.6225 144.093 33.7034 143.712 33.7034 143.307C33.7034 142.845 33.5987 142.45 33.3892 142.121C33.1797 141.788 32.8916 141.531 32.525 141.35C32.1584 141.169 31.7418 141.079 31.2752 141.079C30.7943 141.079 30.3729 141.179 30.011 141.379C29.6491 141.574 29.3682 141.852 29.1683 142.214C28.973 142.576 28.8754 143.007 28.8754 143.507H26.3543C26.3543 142.579 26.5662 141.772 26.9899 141.086C27.4137 140.4 27.997 139.869 28.7397 139.493C29.4873 139.117 30.3443 138.929 31.3109 138.929C32.2917 138.929 33.1535 139.112 33.8963 139.479C34.6391 139.846 35.2152 140.348 35.6247 140.986C36.0389 141.624 36.246 142.352 36.246 143.171C36.246 143.719 36.1413 144.257 35.9318 144.785C35.7223 145.314 35.3533 145.9 34.8248 146.542C34.301 147.185 33.5654 147.964 32.6179 148.878L30.0967 151.442V151.542H36.4674V153.756H26.44ZM38.9314 153.756V151.842L44.0094 146.864C44.4951 146.373 44.8998 145.938 45.2236 145.557C45.5473 145.176 45.7902 144.807 45.9521 144.45C46.1139 144.093 46.1949 143.712 46.1949 143.307C46.1949 142.845 46.0901 142.45 45.8806 142.121C45.6711 141.788 45.3831 141.531 45.0164 141.35C44.6498 141.169 44.2332 141.079 43.7666 141.079C43.2857 141.079 42.8643 141.179 42.5024 141.379C42.1406 141.574 41.8597 141.852 41.6597 142.214C41.4645 142.576 41.3669 143.007 41.3669 143.507H38.8457C38.8457 142.579 39.0576 141.772 39.4814 141.086C39.9051 140.4 40.4884 139.869 41.2312 139.493C41.9787 139.117 42.8357 138.929 43.8023 138.929C44.7831 138.929 45.6449 139.112 46.3877 139.479C47.1305 139.846 47.7066 140.348 48.1161 140.986C48.5303 141.624 48.7375 142.352 48.7375 143.171C48.7375 143.719 48.6327 144.257 48.4232 144.785C48.2137 145.314 47.8447 145.9 47.3162 146.542C46.7924 147.185 46.0568 147.964 45.1093 148.878L42.5882 151.442V151.542H48.9589V153.756H38.9314ZM50.8444 151.042V148.935L57.0508 139.129H58.8077V142.129H57.7364L53.5583 148.749V148.864H62.2216V151.042H50.8444ZM57.8221 153.756V150.399L57.8507 149.456V139.129H60.3504V153.756H57.8221ZM69.7529 153.956C68.7245 153.956 67.8103 153.78 67.0104 153.427C66.2152 153.075 65.5867 152.585 65.1249 151.956C64.663 151.328 64.4178 150.601 64.3892 149.778H67.0747C67.0985 150.173 67.2294 150.518 67.4675 150.813C67.7055 151.104 68.0222 151.33 68.4174 151.492C68.8126 151.654 69.2554 151.735 69.7458 151.735C70.2695 151.735 70.7338 151.644 71.1385 151.463C71.5432 151.278 71.8598 151.02 72.0884 150.692C72.3169 150.363 72.4288 149.985 72.424 149.556C72.4288 149.114 72.3145 148.723 72.0812 148.385C71.8479 148.047 71.5099 147.783 71.0671 147.592C70.629 147.402 70.1005 147.307 69.4815 147.307H68.1888V145.264H69.4815C69.991 145.264 70.4362 145.176 70.8171 145C71.2028 144.824 71.5051 144.576 71.7241 144.257C71.9431 143.933 72.0503 143.559 72.0455 143.136C72.0503 142.721 71.9574 142.362 71.767 142.057C71.5813 141.748 71.317 141.507 70.9742 141.336C70.6362 141.164 70.2386 141.079 69.7815 141.079C69.3339 141.079 68.9197 141.16 68.5388 141.322C68.1579 141.483 67.8508 141.714 67.6175 142.014C67.3841 142.31 67.2603 142.662 67.2461 143.071H64.6964C64.7154 142.252 64.9511 141.533 65.4034 140.914C65.8605 140.291 66.47 139.805 67.2318 139.457C67.9936 139.105 68.8483 138.929 69.7958 138.929C70.7719 138.929 71.6194 139.112 72.3383 139.479C73.0621 139.841 73.6215 140.329 74.0167 140.943C74.4119 141.557 74.6095 142.236 74.6095 142.979C74.6143 143.802 74.3714 144.493 73.881 145.05C73.3954 145.607 72.7573 145.971 71.967 146.142V146.257C72.9954 146.4 73.7834 146.78 74.331 147.399C74.8833 148.014 75.1571 148.778 75.1523 149.692C75.1523 150.511 74.919 151.244 74.4524 151.892C73.9905 152.535 73.3525 153.039 72.5383 153.406C71.7289 153.773 70.8004 153.956 69.7529 153.956ZM87.9491 153.956C87.2491 153.951 86.5659 153.83 85.8993 153.592C85.2327 153.349 84.6328 152.956 84.0995 152.413C83.5662 151.866 83.1425 151.139 82.8282 150.235C82.514 149.325 82.3592 148.199 82.364 146.857C82.364 145.604 82.4973 144.488 82.7639 143.507C83.0306 142.526 83.4139 141.698 83.9138 141.022C84.4138 140.341 85.0161 139.822 85.7208 139.465C86.4302 139.108 87.223 138.929 88.0991 138.929C89.018 138.929 89.8322 139.11 90.5416 139.472C91.2558 139.834 91.832 140.329 92.27 140.957C92.7081 141.581 92.9794 142.286 93.0842 143.071H90.4774C90.344 142.51 90.0703 142.062 89.656 141.729C89.2465 141.391 88.7276 141.222 88.0991 141.222C87.0849 141.222 86.304 141.662 85.7565 142.543C85.2137 143.424 84.9399 144.633 84.9351 146.171H85.0351C85.2684 145.752 85.5708 145.393 85.9422 145.093C86.3135 144.793 86.7325 144.562 87.1992 144.4C87.6705 144.233 88.1681 144.15 88.6918 144.15C89.5489 144.15 90.3178 144.355 90.9987 144.764C91.6844 145.174 92.2272 145.738 92.6271 146.457C93.0271 147.171 93.2247 147.99 93.2199 148.914C93.2247 149.875 93.0056 150.74 92.5628 151.506C92.12 152.268 91.5034 152.868 90.713 153.306C89.9227 153.744 89.0013 153.961 87.9491 153.956ZM87.9348 151.813C88.4538 151.813 88.918 151.687 89.3275 151.435C89.737 151.182 90.0607 150.842 90.2988 150.413C90.5369 149.985 90.6535 149.504 90.6488 148.971C90.6535 148.447 90.5393 147.973 90.3059 147.549C90.0774 147.126 89.7608 146.79 89.3561 146.542C88.9513 146.295 88.4895 146.171 87.9705 146.171C87.5848 146.171 87.2253 146.245 86.892 146.392C86.5588 146.54 86.2683 146.745 86.0207 147.007C85.7731 147.264 85.5779 147.564 85.4351 147.907C85.297 148.245 85.2256 148.606 85.2208 148.992C85.2256 149.502 85.3446 149.971 85.5779 150.399C85.8112 150.828 86.1326 151.17 86.5421 151.428C86.9516 151.685 87.4158 151.813 87.9348 151.813ZM100.99 153.956C100.291 153.951 99.6073 153.83 98.9407 153.592C98.2741 153.349 97.6741 152.956 97.1409 152.413C96.6076 151.866 96.1838 151.139 95.8696 150.235C95.5553 149.325 95.4006 148.199 95.4054 146.857C95.4054 145.604 95.5387 144.488 95.8053 143.507C96.072 142.526 96.4552 141.698 96.9552 141.022C97.4551 140.341 98.0574 139.822 98.7621 139.465C99.4716 139.108 100.264 138.929 101.14 138.929C102.059 138.929 102.874 139.11 103.583 139.472C104.297 139.834 104.873 140.329 105.311 140.957C105.749 141.581 106.021 142.286 106.126 143.071H103.519C103.385 142.51 103.112 142.062 102.697 141.729C102.288 141.391 101.769 141.222 101.14 141.222C100.126 141.222 99.3454 141.662 98.7978 142.543C98.255 143.424 97.9813 144.633 97.9765 146.171H98.0765C98.3098 145.752 98.6121 145.393 98.9835 145.093C99.3549 144.793 99.7739 144.562 100.241 144.4C100.712 144.233 101.209 144.15 101.733 144.15C102.59 144.15 103.359 144.355 104.04 144.764C104.726 145.174 105.269 145.738 105.668 146.457C106.068 147.171 106.266 147.99 106.261 148.914C106.266 149.875 106.047 150.74 105.604 151.506C105.161 152.268 104.545 152.868 103.754 153.306C102.964 153.744 102.043 153.961 100.99 153.956ZM100.976 151.813C101.495 151.813 101.959 151.687 102.369 151.435C102.778 151.182 103.102 150.842 103.34 150.413C103.578 149.985 103.695 149.504 103.69 148.971C103.695 148.447 103.581 147.973 103.347 147.549C103.119 147.126 102.802 146.79 102.397 146.542C101.993 146.295 101.531 146.171 101.012 146.171C100.626 146.171 100.267 146.245 99.9334 146.392C99.6001 146.54 99.3097 146.745 99.0621 147.007C98.8145 147.264 98.6193 147.564 98.4764 147.907C98.3384 148.245 98.2669 148.606 98.2622 148.992C98.2669 149.502 98.386 149.971 98.6193 150.399C98.8526 150.828 99.174 151.17 99.5835 151.428C99.9929 151.685 100.457 151.813 100.976 151.813ZM113.76 153.956C112.808 153.956 111.956 153.777 111.204 153.42C110.451 153.058 109.854 152.563 109.411 151.935C108.973 151.306 108.74 150.587 108.711 149.778H111.282C111.33 150.378 111.589 150.868 112.061 151.249C112.532 151.625 113.099 151.813 113.76 151.813C114.279 151.813 114.741 151.694 115.146 151.456C115.551 151.218 115.87 150.887 116.103 150.463C116.336 150.04 116.451 149.556 116.446 149.014C116.451 148.461 116.334 147.971 116.096 147.542C115.858 147.114 115.532 146.778 115.117 146.535C114.703 146.288 114.227 146.164 113.689 146.164C113.251 146.159 112.82 146.24 112.396 146.407C111.973 146.573 111.637 146.792 111.389 147.064L108.997 146.671L109.761 139.129H118.246V141.343H111.953L111.532 145.221H111.618C111.889 144.902 112.272 144.638 112.768 144.428C113.263 144.214 113.806 144.107 114.396 144.107C115.282 144.107 116.072 144.316 116.767 144.735C117.462 145.15 118.01 145.721 118.41 146.45C118.81 147.178 119.01 148.011 119.01 148.949C119.01 149.916 118.786 150.778 118.338 151.535C117.896 152.287 117.279 152.88 116.489 153.313C115.703 153.742 114.794 153.956 113.76 153.956ZM121.402 153.756V151.842L126.48 146.864C126.966 146.373 127.371 145.938 127.695 145.557C128.018 145.176 128.261 144.807 128.423 144.45C128.585 144.093 128.666 143.712 128.666 143.307C128.666 142.845 128.561 142.45 128.352 142.121C128.142 141.788 127.854 141.531 127.487 141.35C127.121 141.169 126.704 141.079 126.238 141.079C125.757 141.079 125.335 141.179 124.973 141.379C124.612 141.574 124.331 141.852 124.131 142.214C123.935 142.576 123.838 143.007 123.838 143.507H121.317C121.317 142.579 121.529 141.772 121.952 141.086C122.376 140.4 122.959 139.869 123.702 139.493C124.45 139.117 125.307 138.929 126.273 138.929C127.254 138.929 128.116 139.112 128.859 139.479C129.601 139.846 130.178 140.348 130.587 140.986C131.001 141.624 131.208 142.352 131.208 143.171C131.208 143.719 131.104 144.257 130.894 144.785C130.685 145.314 130.316 145.9 129.787 146.542C129.263 147.185 128.528 147.964 127.58 148.878L125.059 151.442V151.542H131.43V153.756H121.402ZM143.961 138.929C144.66 138.934 145.341 139.058 146.003 139.3C146.67 139.538 147.27 139.929 147.803 140.472C148.336 141.01 148.76 141.731 149.074 142.636C149.389 143.54 149.546 144.659 149.546 145.992C149.55 147.249 149.417 148.373 149.146 149.364C148.879 150.349 148.496 151.182 147.996 151.863C147.496 152.544 146.894 153.063 146.189 153.42C145.484 153.777 144.691 153.956 143.811 153.956C142.887 153.956 142.068 153.775 141.354 153.413C140.644 153.051 140.071 152.556 139.632 151.927C139.194 151.299 138.925 150.58 138.825 149.771H141.432C141.566 150.351 141.837 150.813 142.246 151.156C142.661 151.494 143.182 151.663 143.811 151.663C144.825 151.663 145.606 151.223 146.153 150.342C146.701 149.461 146.974 148.237 146.974 146.671H146.875C146.641 147.09 146.339 147.452 145.967 147.757C145.596 148.057 145.175 148.287 144.703 148.449C144.237 148.611 143.742 148.692 143.218 148.692C142.361 148.692 141.589 148.487 140.904 148.078C140.223 147.668 139.682 147.107 139.283 146.392C138.887 145.678 138.687 144.862 138.683 143.943C138.683 142.99 138.902 142.136 139.34 141.379C139.782 140.617 140.399 140.017 141.189 139.579C141.98 139.136 142.904 138.919 143.961 138.929ZM143.968 141.072C143.453 141.072 142.989 141.198 142.575 141.45C142.166 141.698 141.842 142.036 141.604 142.464C141.37 142.888 141.254 143.362 141.254 143.886C141.258 144.405 141.375 144.876 141.604 145.3C141.837 145.723 142.154 146.059 142.554 146.307C142.958 146.554 143.42 146.678 143.939 146.678C144.325 146.678 144.684 146.604 145.018 146.457C145.351 146.309 145.641 146.104 145.889 145.842C146.141 145.576 146.336 145.273 146.475 144.935C146.617 144.597 146.686 144.24 146.682 143.864C146.682 143.364 146.563 142.902 146.325 142.479C146.091 142.055 145.77 141.714 145.36 141.457C144.956 141.2 144.491 141.072 143.968 141.072ZM151.66 151.042V148.935L157.866 139.129H159.623V142.129H158.552L154.374 148.749V148.864H163.037V151.042H151.66ZM158.637 153.756V150.399L158.666 149.456V139.129H161.166V153.756H158.637ZM170.568 153.956C169.54 153.956 168.626 153.78 167.826 153.427C167.031 153.075 166.402 152.585 165.94 151.956C165.478 151.328 165.233 150.601 165.205 149.778H167.89C167.914 150.173 168.045 150.518 168.283 150.813C168.521 151.104 168.837 151.33 169.233 151.492C169.628 151.654 170.071 151.735 170.561 151.735C171.085 151.735 171.549 151.644 171.954 151.463C172.359 151.278 172.675 151.02 172.904 150.692C173.132 150.363 173.244 149.985 173.239 149.556C173.244 149.114 173.13 148.723 172.897 148.385C172.663 148.047 172.325 147.783 171.882 147.592C171.444 147.402 170.916 147.307 170.297 147.307H169.004V145.264H170.297C170.806 145.264 171.252 145.176 171.632 145C172.018 144.824 172.32 144.576 172.539 144.257C172.758 143.933 172.866 143.559 172.861 143.136C172.866 142.721 172.773 142.362 172.582 142.057C172.397 141.748 172.132 141.507 171.79 141.336C171.451 141.164 171.054 141.079 170.597 141.079C170.149 141.079 169.735 141.16 169.354 141.322C168.973 141.483 168.666 141.714 168.433 142.014C168.199 142.31 168.076 142.662 168.061 143.071H165.512C165.531 142.252 165.766 141.533 166.219 140.914C166.676 140.291 167.285 139.805 168.047 139.457C168.809 139.105 169.664 138.929 170.611 138.929C171.587 138.929 172.435 139.112 173.154 139.479C173.877 139.841 174.437 140.329 174.832 140.943C175.227 141.557 175.425 142.236 175.425 142.979C175.43 143.802 175.187 144.493 174.696 145.05C174.211 145.607 173.573 145.971 172.782 146.142V146.257C173.811 146.4 174.599 146.78 175.146 147.399C175.699 148.014 175.972 148.778 175.968 149.692C175.968 150.511 175.734 151.244 175.268 151.892C174.806 152.535 174.168 153.039 173.354 153.406C172.544 153.773 171.616 153.956 170.568 153.956ZM183.504 153.956C182.552 153.956 181.7 153.777 180.947 153.42C180.195 153.058 179.598 152.563 179.155 151.935C178.717 151.306 178.483 150.587 178.455 149.778H181.026C181.074 150.378 181.333 150.868 181.804 151.249C182.276 151.625 182.842 151.813 183.504 151.813C184.023 151.813 184.485 151.694 184.89 151.456C185.295 151.218 185.614 150.887 185.847 150.463C186.08 150.04 186.194 149.556 186.19 149.014C186.194 148.461 186.078 147.971 185.84 147.542C185.602 147.114 185.276 146.778 184.861 146.535C184.447 146.288 183.971 146.164 183.433 146.164C182.995 146.159 182.564 146.24 182.14 146.407C181.716 146.573 181.381 146.792 181.133 147.064L178.741 146.671L179.505 139.129H187.989V141.343H181.697L181.276 145.221H181.362C181.633 144.902 182.016 144.638 182.512 144.428C183.007 144.214 183.55 144.107 184.14 144.107C185.026 144.107 185.816 144.316 186.511 144.735C187.206 145.15 187.754 145.721 188.154 146.45C188.554 147.178 188.754 148.011 188.754 148.949C188.754 149.916 188.53 150.778 188.082 151.535C187.64 152.287 187.023 152.88 186.233 153.313C185.447 153.742 184.537 153.956 183.504 153.956ZM201.213 138.929C201.913 138.934 202.594 139.058 203.256 139.3C203.922 139.538 204.522 139.929 205.055 140.472C205.589 141.01 206.012 141.731 206.327 142.636C206.641 143.54 206.798 144.659 206.798 145.992C206.803 147.249 206.669 148.373 206.398 149.364C206.131 150.349 205.748 151.182 205.248 151.863C204.748 152.544 204.146 153.063 203.441 153.42C202.737 153.777 201.944 153.956 201.063 153.956C200.139 153.956 199.32 153.775 198.606 153.413C197.897 153.051 197.323 152.556 196.885 151.927C196.447 151.299 196.178 150.58 196.078 149.771H198.685C198.818 150.351 199.089 150.813 199.499 151.156C199.913 151.494 200.434 151.663 201.063 151.663C202.077 151.663 202.858 151.223 203.406 150.342C203.953 149.461 204.227 148.237 204.227 146.671H204.127C203.894 147.09 203.591 147.452 203.22 147.757C202.849 148.057 202.427 148.287 201.956 148.449C201.489 148.611 200.994 148.692 200.47 148.692C199.613 148.692 198.842 148.487 198.156 148.078C197.475 147.668 196.935 147.107 196.535 146.392C196.14 145.678 195.94 144.862 195.935 143.943C195.935 142.99 196.154 142.136 196.592 141.379C197.035 140.617 197.651 140.017 198.442 139.579C199.232 139.136 200.156 138.919 201.213 138.929ZM201.22 141.072C200.706 141.072 200.242 141.198 199.827 141.45C199.418 141.698 199.094 142.036 198.856 142.464C198.623 142.888 198.506 143.362 198.506 143.886C198.511 144.405 198.628 144.876 198.856 145.3C199.089 145.723 199.406 146.059 199.806 146.307C200.211 146.554 200.673 146.678 201.192 146.678C201.577 146.678 201.937 146.604 202.27 146.457C202.603 146.309 202.894 146.104 203.141 145.842C203.394 145.576 203.589 145.273 203.727 144.935C203.87 144.597 203.939 144.24 203.934 143.864C203.934 143.364 203.815 142.902 203.577 142.479C203.344 142.055 203.022 141.714 202.613 141.457C202.208 141.2 201.744 141.072 201.22 141.072ZM214.254 138.929C214.954 138.934 215.635 139.058 216.297 139.3C216.964 139.538 217.564 139.929 218.097 140.472C218.63 141.01 219.054 141.731 219.368 142.636C219.682 143.54 219.839 144.659 219.839 145.992C219.844 147.249 219.711 148.373 219.439 149.364C219.173 150.349 218.79 151.182 218.29 151.863C217.79 152.544 217.187 153.063 216.483 153.42C215.778 153.777 214.985 153.956 214.104 153.956C213.181 153.956 212.362 153.775 211.648 153.413C210.938 153.051 210.364 152.556 209.926 151.927C209.488 151.299 209.219 150.58 209.119 149.771H211.726C211.859 150.351 212.131 150.813 212.54 151.156C212.955 151.494 213.476 151.663 214.104 151.663C215.119 151.663 215.899 151.223 216.447 150.342C216.995 149.461 217.268 148.237 217.268 146.671H217.168C216.935 147.09 216.633 147.452 216.261 147.757C215.89 148.057 215.469 148.287 214.997 148.449C214.531 148.611 214.035 148.692 213.512 148.692C212.655 148.692 211.883 148.487 211.198 148.078C210.517 147.668 209.976 147.107 209.576 146.392C209.181 145.678 208.981 144.862 208.976 143.943C208.976 142.99 209.195 142.136 209.633 141.379C210.076 140.617 210.693 140.017 211.483 139.579C212.274 139.136 213.197 138.919 214.254 138.929ZM214.261 141.072C213.747 141.072 213.283 141.198 212.869 141.45C212.459 141.698 212.136 142.036 211.897 142.464C211.664 142.888 211.548 143.362 211.548 143.886C211.552 144.405 211.669 144.876 211.897 145.3C212.131 145.723 212.447 146.059 212.847 146.307C213.252 146.554 213.714 146.678 214.233 146.678C214.619 146.678 214.978 146.604 215.311 146.457C215.645 146.309 215.935 146.104 216.183 145.842C216.435 145.576 216.63 145.273 216.768 144.935C216.911 144.597 216.98 144.24 216.975 143.864C216.975 143.364 216.856 142.902 216.618 142.479C216.385 142.055 216.064 141.714 215.654 141.457C215.249 141.2 214.785 141.072 214.261 141.072ZM227.417 153.956C226.355 153.956 225.413 153.777 224.589 153.42C223.77 153.063 223.127 152.575 222.661 151.956C222.199 151.332 221.97 150.625 221.975 149.835C221.97 149.221 222.103 148.656 222.375 148.142C222.646 147.628 223.013 147.199 223.475 146.857C223.941 146.509 224.46 146.288 225.032 146.192V146.092C224.279 145.926 223.67 145.543 223.203 144.943C222.741 144.338 222.513 143.64 222.518 142.85C222.513 142.098 222.722 141.426 223.146 140.836C223.57 140.245 224.151 139.781 224.889 139.443C225.627 139.1 226.47 138.929 227.417 138.929C228.355 138.929 229.191 139.1 229.924 139.443C230.662 139.781 231.243 140.245 231.667 140.836C232.095 141.426 232.309 142.098 232.309 142.85C232.309 143.64 232.074 144.338 231.602 144.943C231.136 145.543 230.533 145.926 229.795 146.092V146.192C230.367 146.288 230.881 146.509 231.338 146.857C231.8 147.199 232.167 147.628 232.438 148.142C232.714 148.656 232.852 149.221 232.852 149.835C232.852 150.625 232.619 151.332 232.152 151.956C231.686 152.575 231.043 153.063 230.224 153.42C229.41 153.777 228.474 153.956 227.417 153.956ZM227.417 151.913C227.965 151.913 228.441 151.82 228.846 151.635C229.25 151.444 229.565 151.178 229.788 150.835C230.012 150.492 230.126 150.097 230.131 149.649C230.126 149.183 230.005 148.771 229.767 148.414C229.534 148.052 229.212 147.768 228.803 147.564C228.398 147.359 227.936 147.257 227.417 147.257C226.893 147.257 226.427 147.359 226.017 147.564C225.608 147.768 225.284 148.052 225.046 148.414C224.813 148.771 224.698 149.183 224.703 149.649C224.698 150.097 224.808 150.492 225.032 150.835C225.255 151.173 225.57 151.437 225.974 151.628C226.384 151.818 226.865 151.913 227.417 151.913ZM227.417 145.25C227.865 145.25 228.26 145.159 228.603 144.978C228.95 144.797 229.224 144.545 229.424 144.221C229.624 143.897 229.726 143.524 229.731 143.1C229.726 142.681 229.626 142.314 229.431 142C229.236 141.681 228.965 141.436 228.617 141.264C228.269 141.088 227.869 141 227.417 141C226.955 141 226.548 141.088 226.196 141.264C225.848 141.436 225.577 141.681 225.382 142C225.191 142.314 225.098 142.681 225.103 143.1C225.098 143.524 225.194 143.897 225.389 144.221C225.589 144.54 225.863 144.793 226.21 144.978C226.562 145.159 226.965 145.25 227.417 145.25ZM235.2 153.756V151.842L240.278 146.864C240.764 146.373 241.169 145.938 241.492 145.557C241.816 145.176 242.059 144.807 242.221 144.45C242.383 144.093 242.464 143.712 242.464 143.307C242.464 142.845 242.359 142.45 242.149 142.121C241.94 141.788 241.652 141.531 241.285 141.35C240.919 141.169 240.502 141.079 240.035 141.079C239.554 141.079 239.133 141.179 238.771 141.379C238.409 141.574 238.128 141.852 237.928 142.214C237.733 142.576 237.636 143.007 237.636 143.507H235.114C235.114 142.579 235.326 141.772 235.75 141.086C236.174 140.4 236.757 139.869 237.5 139.493C238.247 139.117 239.105 138.929 240.071 138.929C241.052 138.929 241.914 139.112 242.656 139.479C243.399 139.846 243.975 140.348 244.385 140.986C244.799 141.624 245.006 142.352 245.006 143.171C245.006 143.719 244.901 144.257 244.692 144.785C244.482 145.314 244.113 145.9 243.585 146.542C243.061 147.185 242.326 147.964 241.378 148.878L238.857 151.442V151.542H245.228V153.756H235.2Z" fill="white"/>
</g>
<path d="M26.1445 200.178V191.036H31.876V192.223H27.5238V195.009H31.5769V196.192H27.5238V198.99H31.9295V200.178H26.1445ZM34.6647 193.321L36.1779 195.991L37.7046 193.321H39.1642L37.0261 196.75L39.1821 200.178H37.7224L36.1779 197.616L34.6379 200.178H33.1738L35.3075 196.75L33.2006 193.321H34.6647ZM40.5346 202.749V193.321H41.838V194.433H41.9496C42.027 194.29 42.1386 194.125 42.2844 193.937C42.4302 193.75 42.6326 193.586 42.8915 193.446C43.1504 193.304 43.4926 193.232 43.9181 193.232C44.4716 193.232 44.9656 193.372 45.4001 193.652C45.8346 193.931 46.1753 194.335 46.4223 194.861C46.6723 195.388 46.7973 196.022 46.7973 196.763C46.7973 197.504 46.6738 198.139 46.4268 198.669C46.1798 199.196 45.8405 199.602 45.409 199.888C44.9775 200.17 44.485 200.312 43.9315 200.312C43.5149 200.312 43.1742 200.242 42.9093 200.102C42.6474 199.962 42.4421 199.798 42.2933 199.611C42.1445 199.423 42.03 199.257 41.9496 199.111H41.8693V202.749H40.5346ZM41.8425 196.75C41.8425 197.232 41.9124 197.654 42.0523 198.017C42.1921 198.38 42.3945 198.665 42.6593 198.87C42.9242 199.072 43.2486 199.173 43.6325 199.173C44.0312 199.173 44.3645 199.068 44.6323 198.856C44.9002 198.642 45.1025 198.352 45.2394 197.986C45.3793 197.62 45.4492 197.208 45.4492 196.75C45.4492 196.297 45.3808 195.891 45.2439 195.531C45.11 195.171 44.9076 194.887 44.6368 194.678C44.369 194.47 44.0342 194.366 43.6325 194.366C43.2456 194.366 42.9182 194.466 42.6504 194.665C42.3856 194.864 42.1847 195.143 42.0478 195.5C41.9109 195.857 41.8425 196.273 41.8425 196.75ZM48.2926 200.178V193.321H49.6273V200.178H48.2926ZM48.9667 192.263C48.7346 192.263 48.5352 192.186 48.3685 192.031C48.2048 191.874 48.123 191.686 48.123 191.469C48.123 191.249 48.2048 191.061 48.3685 190.906C48.5352 190.749 48.7346 190.67 48.9667 190.67C49.1988 190.67 49.3967 190.749 49.5604 190.906C49.727 191.061 49.8103 191.249 49.8103 191.469C49.8103 191.686 49.727 191.874 49.5604 192.031C49.3967 192.186 49.1988 192.263 48.9667 192.263ZM51.4229 200.178V193.321H52.7129V194.411H52.7843C52.9093 194.042 53.1295 193.751 53.445 193.54C53.7634 193.326 54.1234 193.219 54.5252 193.219C54.6085 193.219 54.7067 193.222 54.8198 193.228C54.9359 193.234 55.0266 193.241 55.0921 193.25V194.527C55.0385 194.512 54.9433 194.495 54.8064 194.477C54.6695 194.457 54.5326 194.446 54.3957 194.446C54.0803 194.446 53.7991 194.513 53.5521 194.647C53.3081 194.778 53.1146 194.961 52.9718 195.196C52.829 195.428 52.7575 195.693 52.7575 195.991V200.178H51.4229ZM59.8527 193.321V194.393H56.1076V193.321H59.8527ZM57.1119 191.679H58.4466V198.165C58.4466 198.423 58.4853 198.618 58.5627 198.749C58.64 198.877 58.7397 198.965 58.8617 199.013C58.9867 199.057 59.1221 199.08 59.268 199.08C59.3751 199.08 59.4688 199.072 59.5492 199.057C59.6295 199.042 59.692 199.031 59.7366 199.022L59.9777 200.124C59.9003 200.154 59.7902 200.184 59.6474 200.213C59.5045 200.246 59.326 200.264 59.1117 200.267C58.7606 200.273 58.4332 200.21 58.1297 200.08C57.8262 199.949 57.5806 199.746 57.3932 199.472C57.2057 199.199 57.1119 198.855 57.1119 198.441V191.679ZM62.1728 202.749C61.9734 202.749 61.7918 202.733 61.6282 202.7C61.4645 202.67 61.3425 202.637 61.2621 202.602L61.5835 201.508C61.8276 201.573 62.0448 201.602 62.2352 201.593C62.4257 201.584 62.5938 201.512 62.7397 201.378C62.8884 201.245 63.0194 201.026 63.1325 200.722L63.2976 200.267L60.789 193.321H62.2174L63.9538 198.642H64.0252L65.7616 193.321H67.1945L64.3689 201.093C64.238 201.45 64.0713 201.752 63.869 201.999C63.6666 202.249 63.4256 202.436 63.1459 202.561C62.8661 202.686 62.5418 202.749 62.1728 202.749ZM74.8421 200.178H71.8826V191.036H74.9358C75.8315 191.036 76.6008 191.219 77.2436 191.585C77.8864 191.948 78.3789 192.47 78.7211 193.152C79.0663 193.83 79.2389 194.644 79.2389 195.593C79.2389 196.546 79.0648 197.364 78.7166 198.049C78.3714 198.733 77.8715 199.26 77.2168 199.629C76.5621 199.995 75.7705 200.178 74.8421 200.178ZM73.2619 198.973H74.7662C75.4625 198.973 76.0413 198.842 76.5026 198.58C76.9639 198.315 77.3091 197.932 77.5382 197.433C77.7673 196.93 77.8819 196.317 77.8819 195.593C77.8819 194.876 77.7673 194.268 77.5382 193.768C77.312 193.268 76.9743 192.888 76.5249 192.629C76.0756 192.371 75.5176 192.241 74.851 192.241H73.2619V198.973ZM82.8423 200.33C82.4078 200.33 82.015 200.249 81.6638 200.088C81.3127 199.925 81.0345 199.688 80.8291 199.379C80.6268 199.069 80.5256 198.69 80.5256 198.24C80.5256 197.854 80.6 197.535 80.7488 197.285C80.8976 197.035 81.0984 196.837 81.3514 196.692C81.6043 196.546 81.887 196.436 82.1995 196.361C82.512 196.287 82.8304 196.23 83.1547 196.192C83.5654 196.144 83.8987 196.105 84.1546 196.076C84.4106 196.043 84.5965 195.991 84.7126 195.919C84.8287 195.848 84.8867 195.732 84.8867 195.571V195.54C84.8867 195.15 84.7766 194.848 84.5564 194.634C84.3391 194.419 84.0148 194.312 83.5833 194.312C83.1339 194.312 82.7798 194.412 82.5209 194.611C82.265 194.808 82.0879 195.027 81.9897 195.268L80.7354 194.982C80.8842 194.565 81.1014 194.229 81.3871 193.973C81.6757 193.714 82.0076 193.527 82.3825 193.411C82.7575 193.292 83.1518 193.232 83.5654 193.232C83.8392 193.232 84.1293 193.265 84.4358 193.33C84.7453 193.393 85.034 193.509 85.3018 193.678C85.5726 193.848 85.7943 194.091 85.9669 194.406C86.1395 194.719 86.2258 195.125 86.2258 195.625V200.178H84.9224V199.24H84.8688C84.7825 199.413 84.6531 199.583 84.4805 199.749C84.3079 199.916 84.0862 200.054 83.8154 200.164C83.5446 200.274 83.2202 200.33 82.8423 200.33ZM83.1324 199.258C83.5014 199.258 83.8169 199.185 84.0787 199.039C84.3436 198.894 84.5445 198.703 84.6814 198.468C84.8212 198.23 84.8912 197.976 84.8912 197.705V196.821C84.8435 196.869 84.7513 196.913 84.6144 196.955C84.4805 196.994 84.3272 197.028 84.1546 197.058C83.982 197.084 83.8139 197.11 83.6502 197.133C83.4866 197.154 83.3497 197.172 83.2396 197.187C82.9807 197.22 82.7441 197.275 82.5298 197.352C82.3185 197.43 82.1489 197.541 82.0209 197.687C81.896 197.83 81.8335 198.02 81.8335 198.258C81.8335 198.589 81.9555 198.839 82.1995 199.008C82.4435 199.175 82.7545 199.258 83.1324 199.258ZM91.2041 193.321V194.393H87.4589V193.321H91.2041ZM88.4633 191.679H89.798V198.165C89.798 198.423 89.8366 198.618 89.914 198.749C89.9914 198.877 90.0911 198.965 90.2131 199.013C90.3381 199.057 90.4735 199.08 90.6193 199.08C90.7264 199.08 90.8202 199.072 90.9005 199.057C90.9809 199.042 91.0434 199.031 91.088 199.022L91.329 200.124C91.2517 200.154 91.1416 200.184 90.9987 200.213C90.8559 200.246 90.6773 200.264 90.4631 200.267C90.1119 200.273 89.7846 200.21 89.481 200.08C89.1775 199.949 88.932 199.746 88.7445 199.472C88.557 199.199 88.4633 198.855 88.4633 198.441V191.679ZM95.5618 200.316C94.8863 200.316 94.3045 200.172 93.8165 199.883C93.3314 199.591 92.9565 199.182 92.6916 198.656C92.4297 198.126 92.2988 197.505 92.2988 196.794C92.2988 196.092 92.4297 195.473 92.6916 194.937C92.9565 194.402 93.3255 193.983 93.7986 193.683C94.2748 193.382 94.8312 193.232 95.4681 193.232C95.8549 193.232 96.2299 193.296 96.5929 193.424C96.956 193.552 97.2819 193.753 97.5705 194.027C97.8592 194.3 98.0868 194.656 98.2535 195.093C98.4201 195.528 98.5034 196.056 98.5034 196.678V197.151H93.0532V196.151H97.1956C97.1956 195.8 97.1241 195.489 96.9813 195.218C96.8385 194.945 96.6376 194.729 96.3787 194.571C96.1228 194.414 95.8222 194.335 95.477 194.335C95.102 194.335 94.7747 194.427 94.495 194.611C94.2182 194.793 94.004 195.031 93.8522 195.326C93.7034 195.617 93.629 195.934 93.629 196.276V197.058C93.629 197.516 93.7093 197.906 93.87 198.227C94.0337 198.548 94.2614 198.794 94.553 198.964C94.8446 199.13 95.1854 199.214 95.5752 199.214C95.8282 199.214 96.0588 199.178 96.2671 199.106C96.4754 199.032 96.6554 198.922 96.8072 198.776C96.959 198.63 97.075 198.45 97.1554 198.236L98.4186 198.464C98.3175 198.836 98.1359 199.161 97.874 199.441C97.6152 199.718 97.2893 199.934 96.8965 200.088C96.5066 200.24 96.0618 200.316 95.5618 200.316Z" fill="#C4C4C4"/>
<g filter="url(#filter3_d_1093_224952)">
<path d="M29.6709 213.661V222.803H28.0148V215.272H27.9612L25.8231 216.638V215.121L28.0952 213.661H29.6709ZM35.3711 222.977C34.6361 222.977 34.0052 222.791 33.4785 222.419C32.9547 222.044 32.5515 221.504 32.2688 220.798C31.9891 220.09 31.8492 219.238 31.8492 218.241C31.8522 217.244 31.9935 216.396 32.2733 215.696C32.556 214.994 32.9592 214.458 33.4829 214.089C34.0097 213.72 34.6391 213.536 35.3711 213.536C36.1032 213.536 36.7326 213.72 37.2593 214.089C37.786 214.458 38.1892 214.994 38.469 215.696C38.7517 216.399 38.893 217.247 38.893 218.241C38.893 219.241 38.7517 220.095 38.469 220.803C38.1892 221.508 37.786 222.047 37.2593 222.419C36.7355 222.791 36.1062 222.977 35.3711 222.977ZM35.3711 221.58C35.9425 221.58 36.3933 221.298 36.7236 220.736C37.0569 220.171 37.2236 219.339 37.2236 218.241C37.2236 217.515 37.1477 216.905 36.9959 216.411C36.8442 215.917 36.6299 215.545 36.3531 215.295C36.0764 215.042 35.749 214.915 35.3711 214.915C34.8027 214.915 34.3534 215.198 34.0231 215.763C33.6927 216.326 33.5261 217.152 33.5231 218.241C33.5201 218.97 33.593 219.583 33.7418 220.08C33.8936 220.577 34.1079 220.952 34.3846 221.205C34.6614 221.455 34.9902 221.58 35.3711 221.58ZM44.1257 213.232L41.1796 224.178H39.7646L42.7107 213.232H44.1257ZM45.139 222.803V221.606L48.3127 218.495C48.6163 218.189 48.8692 217.916 49.0716 217.678C49.2739 217.44 49.4257 217.21 49.5269 216.986C49.6281 216.763 49.6786 216.525 49.6786 216.272C49.6786 215.984 49.6132 215.737 49.4822 215.531C49.3513 215.323 49.1713 215.162 48.9421 215.049C48.713 214.936 48.4526 214.88 48.161 214.88C47.8604 214.88 47.597 214.942 47.3709 215.067C47.1447 215.189 46.9691 215.363 46.8441 215.589C46.7221 215.815 46.6611 216.085 46.6611 216.397H45.0854C45.0854 215.817 45.2178 215.313 45.4827 214.884C45.7475 214.455 46.1121 214.124 46.5763 213.889C47.0435 213.653 47.5792 213.536 48.1833 213.536C48.7963 213.536 49.3349 213.651 49.7992 213.88C50.2634 214.109 50.6235 214.423 50.8794 214.821C51.1383 215.22 51.2677 215.676 51.2677 216.187C51.2677 216.53 51.2023 216.866 51.0713 217.196C50.9404 217.527 50.7098 217.893 50.3795 218.294C50.0521 218.696 49.5923 219.183 49.0001 219.754L47.4244 221.356V221.419H51.4061V222.803H45.139ZM56.1243 222.928C55.5292 222.928 54.9965 222.816 54.5263 222.593C54.0561 222.367 53.6826 222.057 53.4059 221.664C53.1321 221.272 52.9863 220.822 52.9684 220.316H54.5754C54.6052 220.691 54.7673 220.998 55.062 221.236C55.3566 221.471 55.7107 221.589 56.1243 221.589C56.4487 221.589 56.7374 221.514 56.9903 221.365C57.2433 221.217 57.4426 221.01 57.5885 220.745C57.7343 220.48 57.8057 220.178 57.8027 219.839C57.8057 219.494 57.7328 219.187 57.584 218.919C57.4352 218.651 57.2314 218.442 56.9725 218.29C56.7136 218.135 56.416 218.058 56.0797 218.058C55.8059 218.055 55.5366 218.105 55.2718 218.21C55.0069 218.314 54.7971 218.451 54.6424 218.62L53.147 218.375L53.6246 213.661H58.9276V215.045H54.995L54.7316 217.469H54.7852C54.9548 217.269 55.1944 217.104 55.5039 216.973C55.8134 216.839 56.1526 216.772 56.5216 216.772C57.0751 216.772 57.5691 216.903 58.0036 217.165C58.4381 217.424 58.7803 217.781 59.0303 218.236C59.2802 218.692 59.4052 219.212 59.4052 219.799C59.4052 220.403 59.2653 220.941 58.9856 221.414C58.7089 221.885 58.3235 222.255 57.8295 222.526C57.3385 222.794 56.7701 222.928 56.1243 222.928Z" fill="white"/>
</g>
<path d="M315.681 199.288C317.092 200.397 318.233 201.814 319.016 203.43C319.8 205.046 320.207 206.82 320.205 208.616C320.206 210.413 319.8 212.186 319.016 213.801C318.232 215.417 317.091 216.832 315.681 217.941C314.27 216.832 313.129 215.416 312.345 213.8C311.561 212.184 311.155 210.411 311.156 208.615C311.155 206.818 311.561 205.045 312.345 203.429C313.129 201.813 314.27 200.397 315.681 199.288ZM314.164 198.272C312.67 199.549 311.471 201.136 310.65 202.922C309.828 204.709 309.404 206.653 309.406 208.62C309.404 210.586 309.828 212.529 310.649 214.315C311.47 216.101 312.668 217.687 314.161 218.964C312.357 219.978 310.321 220.502 308.253 220.483C306.185 220.464 304.158 219.903 302.373 218.857C300.589 217.81 299.109 216.314 298.081 214.517C297.052 212.72 296.512 210.685 296.512 208.614C296.513 206.543 297.054 204.508 298.084 202.711C299.113 200.915 300.593 199.419 302.379 198.374C304.164 197.328 306.191 196.768 308.259 196.75C310.327 196.733 312.363 197.257 314.166 198.272H314.164ZM317.2 218.964C318.693 217.687 319.891 216.101 320.712 214.315C321.533 212.529 321.957 210.586 321.955 208.62C321.957 206.653 321.533 204.709 320.711 202.922C319.89 201.136 318.691 199.549 317.197 198.272C319 197.257 321.036 196.733 323.104 196.75C325.172 196.768 327.199 197.328 328.984 198.374C330.769 199.419 332.25 200.915 333.279 202.711C334.308 204.508 334.85 206.543 334.851 208.614C334.851 210.685 334.31 212.72 333.282 214.517C332.254 216.314 330.774 217.81 328.99 218.857C327.205 219.903 325.178 220.464 323.11 220.483C321.042 220.502 319.005 219.978 317.202 218.964H317.2Z" fill="#DCA915"/>
<g clip-path="url(#clip1_1093_224952)">
<rect x="294.766" y="72.5332" width="40.8525" height="31.425" rx="5.028" fill="white" fill-opacity="0.24"/>
<path fill-rule="evenodd" clip-rule="evenodd" d="M308.594 103.96V72.5352H307.337V80.7062H294.767V81.9632H307.337V88.2479H294.767V89.5049H307.337V95.7895H294.767V97.0465H307.337V103.96H308.594Z" fill="white" fill-opacity="0.64"/>
<path fill-rule="evenodd" clip-rule="evenodd" d="M321.334 88.2492L321.43 88.0195L321.443 87.9868C322.26 86.0272 323.085 84.0491 323.779 81.9625H334.362V80.7055H324.177C325.002 77.9452 325.563 74.9731 325.563 71.5938H324.306C324.306 77.8375 322.314 82.6309 320.269 87.5358L320.256 87.5685L320.255 87.5699C320.161 87.7961 320.067 88.0224 319.972 88.2492H319.907V88.4073C317.988 93.0293 316.136 97.8237 316.136 103.962H317.393C317.393 101.457 317.713 99.1863 318.229 97.0479H334.362V95.7909H318.558C319.171 93.6117 319.97 91.5549 320.813 89.5062H334.362V88.2492H321.334Z" fill="white" fill-opacity="0.64"/>
</g>
<rect x="295.395" y="73.1617" width="39.5955" height="30.168" rx="4.3995" stroke="white" stroke-opacity="0.64" stroke-width="1.257"/>
<g clip-path="url(#clip2_1093_224952)">
<path d="M45.9982 32.7318C45.5141 32.5099 45.1425 32.2008 44.8837 31.8039C44.6248 31.4071 44.4885 30.9465 44.4751 30.4218H46.1194C46.1262 30.7917 46.2759 31.0858 46.5683 31.3043C46.8607 31.5229 47.2659 31.6324 47.7839 31.6324C48.1673 31.6324 48.4681 31.5686 48.6866 31.4407C48.9052 31.3131 49.0147 31.1177 49.0147 30.8555C49.0147 30.6877 48.9694 30.5514 48.8783 30.4469C48.7877 30.3429 48.6363 30.2552 48.4245 30.1848C48.2126 30.1143 47.9114 30.0484 47.5217 29.988C46.8086 29.8806 46.2558 29.746 45.8623 29.5845C45.4688 29.423 45.1878 29.2112 45.02 28.949C44.8518 28.6868 44.7679 28.3403 44.7679 27.9099C44.7679 27.4796 44.882 27.0794 45.111 26.7497C45.3396 26.4204 45.6689 26.1662 46.0997 25.9879C46.5301 25.8096 47.0343 25.7207 47.6128 25.7207C48.1912 25.7207 48.7139 25.8235 49.1611 26.0282C49.6082 26.2333 49.9564 26.5223 50.2051 26.8957C50.4539 27.269 50.5818 27.6977 50.5885 28.1818H48.9442C48.9375 27.8386 48.8062 27.5815 48.5507 27.4099C48.2953 27.2384 47.9555 27.1528 47.5318 27.1528C47.1685 27.1528 46.8829 27.2098 46.6744 27.3244C46.4659 27.4389 46.3615 27.6138 46.3615 27.8487C46.3615 28.0102 46.4085 28.1398 46.5028 28.2371C46.5968 28.3349 46.76 28.4171 46.992 28.4842C47.2239 28.5513 47.552 28.6155 47.9756 28.6759C48.6145 28.7632 49.1254 28.8928 49.5088 29.0643C49.8922 29.2359 50.1712 29.4628 50.3461 29.7451C50.521 30.0275 50.6082 30.3807 50.6082 30.8043C50.6082 31.2683 50.4887 31.6701 50.25 32.0099C50.0113 32.3497 49.6749 32.6102 49.2412 32.7918C48.8074 32.9734 48.3011 33.064 47.7231 33.064C47.0574 33.064 46.4823 32.9529 45.9982 32.731V32.7318Z" fill="#DCA915"/>
<path d="M52.8876 27.1218H51.3745V25.8105H52.8876V27.1218ZM52.8876 32.9219H51.3946V27.767H52.8876V32.9219Z" fill="#DCA915"/>
<path d="M53.7352 32.9213V27.7664H55.2281V28.4119H55.3087C55.5776 27.8876 56.0281 27.625 56.6602 27.625C56.9694 27.625 57.242 27.7022 57.4774 27.857C57.7127 28.0118 57.8943 28.2303 58.0223 28.5126H58.1028C58.4119 27.9207 58.9032 27.625 59.5756 27.625C60.1066 27.625 60.5219 27.7899 60.8214 28.1191C61.1205 28.4488 61.2703 28.8994 61.2703 29.4707V32.9205H59.7773V29.7933C59.7773 29.5311 59.7102 29.3277 59.5756 29.1829C59.4409 29.0382 59.2526 28.9661 59.0105 28.9661C58.7685 28.9661 58.5802 29.0382 58.4455 29.1829C58.3109 29.3277 58.2437 29.5311 58.2437 29.7933V32.9205H56.7508V29.7933C56.7508 29.5311 56.6854 29.3277 56.5541 29.1829C56.4228 29.0382 56.2361 28.9661 55.9941 28.9661C55.7521 28.9661 55.5637 29.0382 55.4291 29.1829C55.2944 29.3277 55.2273 29.5311 55.2273 29.7933V32.9205H53.7344L53.7352 32.9213Z" fill="#DCA915"/>
<path d="M64.3469 32.8267C64.0579 32.6686 63.8326 32.445 63.6711 32.156H63.5906V32.9228H62.0977V25.8613H63.5906V28.5346H63.6711C63.8326 28.2389 64.0579 28.0137 64.3469 27.8589C64.6359 27.7041 64.969 27.6269 65.3457 27.6269C65.8163 27.6269 66.2366 27.7431 66.6066 27.9751C66.9762 28.207 67.2656 28.5284 67.4741 28.9386C67.6826 29.3488 67.787 29.8161 67.787 30.3409C67.787 30.8657 67.6826 31.3346 67.4741 31.7482C67.2656 32.1618 66.9762 32.4844 66.6066 32.7168C66.2366 32.9488 65.8163 33.065 65.3457 33.065C64.969 33.065 64.6359 32.9857 64.3469 32.828V32.8267ZM65.8599 31.3489C66.102 31.1002 66.2232 30.7637 66.2232 30.3401C66.2232 29.9164 66.102 29.59 65.8599 29.3413C65.6179 29.0925 65.2983 28.968 64.9014 28.968C64.5046 28.968 64.1866 29.0925 63.948 29.3413C63.7093 29.59 63.5897 29.9231 63.5897 30.3401C63.5897 30.757 63.7089 31.1002 63.948 31.3489C64.1866 31.5977 64.5042 31.7222 64.9014 31.7222C65.2987 31.7222 65.6175 31.5981 65.8599 31.3489Z" fill="#DCA915"/>
<path d="M69.3703 32.7149C69.0004 32.4829 68.7113 32.1599 68.5029 31.7463C68.2944 31.3327 68.1899 30.8638 68.1899 30.339C68.1899 29.8142 68.294 29.3469 68.5029 28.9367C68.7113 28.5265 69.0004 28.2051 69.3703 27.9732C69.7403 27.7412 70.1606 27.625 70.6313 27.625C71.008 27.625 71.3406 27.7022 71.6301 27.857C71.9191 28.0118 72.1443 28.237 72.3058 28.5327H72.3864V27.7659H73.8793V32.9209H72.3864V32.1541H72.3058C72.1443 32.4431 71.9191 32.6671 71.6301 32.8248C71.341 32.9825 71.008 33.0618 70.6313 33.0618C70.1606 33.0618 69.7403 32.9456 69.3703 32.7137V32.7149ZM72.0286 31.3483C72.2672 31.0995 72.3868 30.7631 72.3868 30.3394C72.3868 29.9158 72.2672 29.5894 72.0286 29.3407C71.7899 29.0919 71.4719 28.9673 71.0751 28.9673C70.6783 28.9673 70.359 29.0919 70.117 29.3407C69.875 29.5894 69.7537 29.9225 69.7537 30.3394C69.7537 30.7564 69.875 31.0995 70.117 31.3483C70.359 31.597 70.6783 31.7216 71.0751 31.7216C71.4719 31.7216 71.7895 31.5974 72.0286 31.3483Z" fill="#DCA915"/>
<path d="M46.2903 41.6083H44.7471V34.5469H46.9158L48.8625 39.1166H48.9532L50.8999 34.5469H53.0384V41.6083H51.4851V36.625H51.3945L49.6394 40.6901H48.1364L46.3713 36.625H46.2907V41.6083H46.2903Z" fill="#DCA915"/>
<path d="M55.1019 41.3985C54.6749 41.1665 54.3402 40.8435 54.0981 40.4299C53.8561 40.0163 53.7349 39.5474 53.7349 39.0226C53.7349 38.4978 53.8561 38.0305 54.0981 37.6203C54.3402 37.21 54.6745 36.8887 55.1019 36.6568C55.529 36.4248 56.0147 36.3086 56.5596 36.3086C57.1045 36.3086 57.5819 36.4248 58.0123 36.6568C58.4426 36.8887 58.7774 37.21 59.0161 37.6203C59.2547 38.0305 59.3743 38.4978 59.3743 39.0226C59.3743 39.5474 59.2547 40.0163 59.0161 40.4299C58.7774 40.8435 58.4426 41.1661 58.0123 41.3985C57.5819 41.6305 57.0978 41.7467 56.5596 41.7467C56.0214 41.7467 55.529 41.6305 55.1019 41.3985ZM57.4623 40.0067C57.6876 39.7613 57.8004 39.4333 57.8004 39.023C57.8004 38.6128 57.6876 38.2852 57.4623 38.0393C57.2371 37.794 56.9359 37.6711 56.5596 37.6711C56.1833 37.6711 55.8805 37.794 55.6519 38.0393C55.4233 38.2847 55.3087 38.6128 55.3087 39.023C55.3087 39.4333 55.4228 39.7613 55.6519 40.0067C55.8805 40.2521 56.1829 40.375 56.5596 40.375C56.9363 40.375 57.2371 40.2525 57.4623 40.0067Z" fill="#DCA915"/>
<path d="M59.9692 41.6068V36.4519H61.4622V37.178H61.5427C61.6908 36.889 61.8959 36.6721 62.1581 36.5274C62.4202 36.3827 62.7193 36.3105 63.0557 36.3105C63.6006 36.3105 64.0306 36.4855 64.3469 36.8349C64.6627 37.1847 64.8209 37.6621 64.8209 38.2674V41.6064H63.328V38.6709C63.328 38.3416 63.2474 38.0891 63.0859 37.9142C62.9244 37.7393 62.6958 37.652 62.4001 37.652C62.1044 37.652 61.8737 37.7414 61.7092 37.9192C61.5444 38.0975 61.4622 38.3479 61.4622 38.6709V41.6064H59.9692V41.6068Z" fill="#DCA915"/>
<path d="M69.4963 36.6475C69.9099 36.8728 70.2325 37.1857 70.4649 37.5859C70.6968 37.9861 70.813 38.4383 70.813 38.9425C70.813 39.0838 70.803 39.2248 70.7828 39.3662H66.8788C66.9325 39.7227 67.0738 40 67.3024 40.1984C67.5311 40.3968 67.8272 40.4958 68.1901 40.4958C68.4858 40.4958 68.7282 40.432 68.9166 40.3041C69.1049 40.1766 69.2224 40.0184 69.2698 39.8301H70.7325C70.6855 40.1934 70.5475 40.5193 70.3189 40.8087C70.0903 41.0982 69.7874 41.3268 69.4111 41.4946C69.0345 41.6628 68.6074 41.7467 68.1301 41.7467C67.5986 41.7467 67.1229 41.6305 66.7026 41.3985C66.2823 41.1665 65.9542 40.8435 65.7189 40.4299C65.4836 40.0163 65.3657 39.5474 65.3657 39.0226C65.3657 38.4978 65.4832 38.0389 65.7189 37.6253C65.9542 37.2117 66.2789 36.8887 66.6925 36.6568C67.1061 36.4248 67.5751 36.3086 68.0999 36.3086C68.6246 36.3086 69.0835 36.4214 69.4971 36.6467L69.4963 36.6475ZM67.3628 37.7872C67.1544 37.9387 67.0096 38.1555 66.9291 38.4379H69.3503C69.2626 38.1555 69.1133 37.9387 68.9015 37.7872C68.6896 37.6358 68.4325 37.5603 68.1296 37.5603C67.8268 37.5603 67.5713 37.6358 67.3628 37.7872Z" fill="#DCA915"/>
<path d="M74.8181 36.4531H76.3413L74.4045 42.3342C74.243 42.825 74.0446 43.1631 73.8093 43.348C73.574 43.533 73.2275 43.6253 72.7703 43.6253H71.6507V42.3241H72.7199C72.8747 42.3241 72.9838 42.2989 73.048 42.2486C73.1117 42.1983 73.1641 42.1022 73.2044 41.9613L73.3152 41.6081H72.6696L70.7832 36.4531H72.3667L73.6277 40.2158H73.7183L74.8177 36.4531H74.8181Z" fill="#DCA915"/>
<path d="M29.4111 42.3045C29.4111 42.3045 31.5911 41.2105 30.9233 37.5645C30.9233 37.5645 32.8051 39.2755 32.3563 42.669C32.3563 42.669 29.9724 42.557 29.4111 42.3045Z" fill="#DCA915"/>
<path d="M35.4263 42.2479C35.4263 42.2479 34.3167 38.6081 31.6367 36.7754C31.6367 36.7754 34.3792 36.8501 37.7325 40.9014C37.7325 40.9014 36.5731 41.8364 35.4263 42.2474V42.2479Z" fill="#DCA915"/>
<path d="M39.1811 39.6436C39.1811 39.6436 37.0309 36.5021 32.3374 35.1934C32.3374 35.1934 36.6194 35.2122 40.7705 37.4187C40.7705 37.4187 39.8171 39.0827 39.1811 39.644V39.6436Z" fill="#DCA915"/>
<path d="M41.1635 35.3394C41.1635 35.3394 38.7515 33.3574 32.8428 34.0118C32.8428 34.0118 35.5538 31.4874 41.3132 32.9086C41.3132 32.9086 41.5561 34.0118 41.1635 35.3394Z" fill="#DCA915"/>
<path d="M39.9161 29.1073C35.4659 28.7147 32.8668 30.4161 32.8668 30.4161C34.4751 28.0788 38.6262 27.2562 38.6262 27.2562C38.1962 26.8824 37.0557 26.041 37.0557 26.041C34.8119 26.3589 32.0069 28.5465 32.0069 28.5465C33.0166 26.4336 35.4474 25.1064 35.4474 25.1064L33.5774 24.7695C30.9783 26.0036 30.1931 28.1912 30.2304 28.3783C30.2682 28.5654 30.6792 28.8271 30.6792 28.8271C30.1117 28.781 29.3218 29.1866 28.8025 29.5021C28.469 29.7047 28.2601 30.0612 28.2471 30.4509L28.2295 30.9773C26.5281 32.1368 25.1396 34.0769 25.1396 34.0769H26.0826C26.2592 34.0769 26.4341 34.0408 26.5965 33.9711L27.0705 33.7673C26.474 34.3201 26.1304 34.8378 25.9392 35.201C25.7479 35.5647 25.7924 36.0098 26.0596 36.3219C26.8566 37.2527 28.2702 36.7128 28.2702 36.7128C29.8533 35.7967 28.211 34.9083 28.211 34.9083L30.2774 33.4934C30.2732 33.4971 30.269 33.5013 30.2648 33.5051C29.8952 33.8583 30.2686 34.4695 30.7506 34.2988C30.7531 34.2979 30.756 34.2967 30.7589 34.2958C30.8613 34.2581 30.9502 34.1909 31.019 34.1062C34.77 29.489 41.0571 30.854 41.0571 30.854C40.758 29.8708 39.9165 29.1069 39.9165 29.1069L39.9161 29.1073ZM31.5845 30.547C31.5492 30.6531 31.488 30.7483 31.4079 30.8263C31.1193 31.1074 30.2363 31.8415 28.847 31.8864C28.847 31.8864 28.9577 31.3326 29.3122 30.9123C29.5127 30.6745 29.8101 30.5403 30.1213 30.5403H31.5866C31.5866 30.5403 31.5857 30.5424 31.5845 30.5465V30.547Z" fill="#DCA915"/>
<path d="M28.5628 38.7683C28.4785 38.187 28.1605 37.8245 27.6655 37.6878C27.0942 37.5301 26.5262 37.3618 25.9478 37.1953C25.8924 37.9151 26.2079 38.572 26.499 39.2755C27.1575 38.9735 27.7993 38.6161 28.5624 38.7683H28.5628Z" fill="#DCA915"/>
</g>
</g>
</g>
<defs>
<filter id="filter0_b_1093_224952" x="-12.57" y="-11.6852" width="385.899" height="270.255" filterUnits="userSpaceOnUse" color-interpolation-filters="sRGB">
<feFlood flood-opacity="0" result="BackgroundImageFix"/>
<feGaussianBlur in="BackgroundImageFix" stdDeviation="6.285"/>
<feComposite in2="SourceAlpha" operator="in" result="effect1_backgroundBlur_1093_224952"/>
<feBlend mode="normal" in="SourceGraphic" in2="effect1_backgroundBlur_1093_224952" result="shape"/>
</filter>
<filter id="filter1_d_1093_224952" x="21.3172" y="64.1009" width="138.383" height="21.3587" filterUnits="userSpaceOnUse" color-interpolation-filters="sRGB">
<feFlood flood-opacity="0" result="BackgroundImageFix"/>
<feColorMatrix in="SourceAlpha" type="matrix" values="0 0 0 0 0 0 0 0 0 0 0 0 0 0 0 0 0 0 127 0" result="hardAlpha"/>
<feOffset/>
<feGaussianBlur stdDeviation="2.514"/>
<feComposite in2="hardAlpha" operator="out"/>
<feColorMatrix type="matrix" values="0 0 0 0 0 0 0 0 0 0 0 0 0 0 0 0 0 0 0.16 0"/>
<feBlend mode="normal" in2="BackgroundImageFix" result="effect1_dropShadow_1093_224952"/>
<feBlend mode="normal" in="SourceGraphic" in2="effect1_dropShadow_1093_224952" result="shape"/>
</filter>
<filter id="filter2_d_1093_224952" x="21.3265" y="133.886" width="228.929" height="25.1048" filterUnits="userSpaceOnUse" color-interpolation-filters="sRGB">
<feFlood flood-opacity="0" result="BackgroundImageFix"/>
<feColorMatrix in="SourceAlpha" type="matrix" values="0 0 0 0 0 0 0 0 0 0 0 0 0 0 0 0 0 0 127 0" result="hardAlpha"/>
<feOffset/>
<feGaussianBlur stdDeviation="2.514"/>
<feComposite in2="hardAlpha" operator="out"/>
<feColorMatrix type="matrix" values="0 0 0 0 0 0 0 0 0 0 0 0 0 0 0 0 0 0 0.16 0"/>
<feBlend mode="normal" in2="BackgroundImageFix" result="effect1_dropShadow_1093_224952"/>
<feBlend mode="normal" in="SourceGraphic" in2="effect1_dropShadow_1093_224952" result="shape"/>
</filter>
<filter id="filter3_d_1093_224952" x="20.7952" y="208.204" width="43.638" height="21.0013" filterUnits="userSpaceOnUse" color-interpolation-filters="sRGB">
<feFlood flood-opacity="0" result="BackgroundImageFix"/>
<feColorMatrix in="SourceAlpha" type="matrix" values="0 0 0 0 0 0 0 0 0 0 0 0 0 0 0 0 0 0 127 0" result="hardAlpha"/>
<feOffset/>
<feGaussianBlur stdDeviation="2.514"/>
<feComposite in2="hardAlpha" operator="out"/>
<feColorMatrix type="matrix" values="0 0 0 0 0 0 0 0 0 0 0 0 0 0 0 0 0 0 0.16 0"/>
<feBlend mode="normal" in2="BackgroundImageFix" result="effect1_dropShadow_1093_224952"/>
<feBlend mode="normal" in="SourceGraphic" in2="effect1_dropShadow_1093_224952" result="shape"/>
</filter>
<linearGradient id="paint0_linear_1093_224952" x1="335.749" y1="-42.4824" x2="335.749" y2="186.552" gradientUnits="userSpaceOnUse">
<stop stop-color="#DCA915"/>
<stop offset="1" stop-color="#DCA915" stop-opacity="0"/>
</linearGradient>
<linearGradient id="paint1_linear_1093_224952" x1="261.586" y1="-141.783" x2="261.586" y2="87.2511" gradientUnits="userSpaceOnUse">
<stop stop-color="#DCA915"/>
<stop offset="1" stop-color="#DCA915" stop-opacity="0"/>
</linearGradient>
<clipPath id="clip0_1093_224952">
<rect y="0.884766" width="360.759" height="245.115" rx="20.112" fill="white"/>
</clipPath>
<clipPath id="clip1_1093_224952">
<rect x="294.766" y="72.5332" width="40.8525" height="31.425" rx="5.028" fill="white"/>
</clipPath>
<clipPath id="clip2_1093_224952">
<rect width="51.2012" height="18.855" fill="white" transform="translate(25.1401 24.7676)"/>
</clipPath>
</defs>
</svg>
