<?xml version="1.0" encoding="utf-8"?>
<svg viewBox="0 0 243.87 63.33" xmlns="http://www.w3.org/2000/svg">
  <defs>
    <style>.a{fill:#23d57c;}.b{fill:none;stroke:#23c27c;stroke-linecap:round;stroke-linejoin:round;stroke-width:2px;opacity:0.5;}.c{fill:#fff;}</style>
  </defs>
  <rect class="a" x="186.09" y="5.55" width="52.23" height="52.23" rx="25.6" style="fill: rgb(254, 193, 37);"/>
  <path class="b" d="M212.21,1a30.67,30.67,0,0,1,30.66,30.67h0a30.66,30.66,0,0,1-30.66,30.66h0a30.67,30.67,0,0,1-30.12-24.85H1" style="stroke: rgb(254, 193, 37);"/>
  <path class="c" d="M200.44,33.54a.45.45,0,0,0,.45.45h1.6a.46.46,0,0,0,0-.91h-1.6A.45.45,0,0,0,200.44,33.54Z"/>
  <path class="c" d="M206.81,41.27a1.82,1.82,0,1,0,1.82,1.82A1.82,1.82,0,0,0,206.81,41.27Zm0,2.73a.91.91,0,1,1,.91-.91A.91.91,0,0,1,206.81,44Z"/>
  <path class="c" d="M202.26,30.81a.47.47,0,0,0-.46-.46h-2.73a.46.46,0,0,0-.45.46.45.45,0,0,0,.45.45h2.73A.46.46,0,0,0,202.26,30.81Z"/>
  <path class="c" d="M203.17,35.81H200a.46.46,0,0,0,0,.91h3.19a.46.46,0,0,0,0-.91Z"/>
  <path class="c" d="M220.45,41.27a1.82,1.82,0,1,0,1.82,1.82A1.83,1.83,0,0,0,220.45,41.27Zm0,2.73a.91.91,0,1,1,.91-.91A.91.91,0,0,1,220.45,44Z"/>
  <path class="c" d="M205.33,29.9a.45.45,0,0,0,.45.45h3.16l.28,2.73h-2.87a.46.46,0,0,0,0,.91h3l.23,2.32a.45.45,0,0,0,.45.41h0a.45.45,0,0,0,.4-.5L210.22,34h3.87v2.28a.45.45,0,1,0,.9,0V34h3.87l-.22,2.23a.45.45,0,0,0,.4.5h.05a.45.45,0,0,0,.45-.41l.23-2.32h2.28a.46.46,0,0,0,0-.91h-2.19l.28-2.73h2.59a.45.45,0,0,0,.45-.45.46.46,0,0,0-.45-.46h-2.5l.22-2.23a.44.44,0,0,0-.41-.49.44.44,0,0,0-.49.4l-.24,2.32H215V27.17a.45.45,0,1,0-.9,0v2.27h-4.32l-.24-2.32a.44.44,0,0,0-.49-.4.44.44,0,0,0-.41.49l.22,2.23h-3.07A.46.46,0,0,0,205.33,29.9Zm9.66.45h4.23L219,33.08h-4Zm-.9,0v2.73h-4l-.27-2.73Z"/>
  <path class="c" d="M225.81,25.06a.46.46,0,0,0-.35-.17H205a.47.47,0,0,0-.46.46.46.46,0,0,0,.46.45h19.92c-.65,3.58-1.82,9.77-2.16,10.78a1.53,1.53,0,0,1-1.39,1.05h-14.1a1.61,1.61,0,0,1-1.38-.61l-2.72-15.84a.14.14,0,0,0,0-.07c0-.17-.59-1.68-1.79-1.68H200a1.37,1.37,0,0,0,0,2.73h.91a.46.46,0,0,0,.46-.45.47.47,0,0,0-.46-.46H200a.41.41,0,0,1-.46-.45.42.42,0,0,1,.45-.46h1.37c.45,0,.81.73.92,1L205,37.25a.5.5,0,0,0,0,.13,2.39,2.39,0,0,0,2.22,1.16h14.1a2.43,2.43,0,0,0,2.25-1.68c.46-1.38,2.22-11,2.29-11.43A.45.45,0,0,0,225.81,25.06Z"/>
  <path class="c" d="M221.82,39.45H209.08c-.68,0-1.18.89-1.32,1.16a.46.46,0,0,0,.82.41,1.9,1.9,0,0,1,.5-.66h12.74a.46.46,0,0,0,0-.91Z"/>
</svg>