<svg width="700" height="493" viewBox="0 0 700 493" fill="none" xmlns="http://www.w3.org/2000/svg">
<g filter="url(#filter0_b_1320_15629)">
<g clip-path="url(#clip0_1320_15629)">
<rect x="90" y="71" width="519.374" height="352.885" rx="28.9547" fill="#CF9F39"/>
<path d="M546.822 35.3071C561.299 20.83 584.77 20.8301 599.248 35.3071L711.689 147.748C726.166 162.225 726.166 185.697 711.689 200.174L599.247 312.615C584.77 327.092 561.299 327.092 546.822 312.615L434.38 200.174C419.903 185.697 419.903 162.225 434.38 147.748L546.822 35.3071Z" fill="url(#paint0_linear_1320_15629)" fill-opacity="0.8"/>
<path d="M440.385 -108.183C454.862 -122.66 478.334 -122.66 492.811 -108.183L605.252 4.25863C619.729 18.7356 619.729 42.2075 605.252 56.6845L492.811 169.126C478.334 183.603 454.862 183.603 440.385 169.126L327.944 56.6845C313.467 42.2075 313.467 18.7356 327.944 4.25863L440.385 -108.183Z" fill="url(#paint1_linear_1320_15629)" fill-opacity="0.8"/>
<g filter="url(#filter1_d_1320_15629)">
<path d="M127.928 186.105V170.311H137.83V172.362H130.311V177.175H137.314V179.218H130.311V184.053H137.923V186.105H127.928ZM141.013 186.105V170.311H146.643C147.866 170.311 148.882 170.522 149.689 170.944C150.501 171.365 151.108 171.949 151.509 172.694C151.91 173.434 152.11 174.29 152.11 175.262C152.11 176.229 151.907 177.079 151.501 177.815C151.1 178.545 150.493 179.113 149.681 179.519C148.874 179.925 147.859 180.128 146.635 180.128H142.37V178.077H146.419C147.19 178.077 147.817 177.966 148.301 177.745C148.789 177.524 149.146 177.203 149.373 176.781C149.599 176.36 149.712 175.853 149.712 175.262C149.712 174.666 149.596 174.149 149.365 173.712C149.139 173.275 148.781 172.941 148.293 172.709C147.81 172.473 147.175 172.355 146.388 172.355H143.396V186.105H141.013ZM148.81 178.979L152.712 186.105H149.997L146.172 178.979H148.81ZM157.393 170.311V186.105H155.01V170.311H157.393ZM173.981 175.447H171.574C171.482 174.933 171.31 174.481 171.058 174.09C170.806 173.699 170.497 173.368 170.132 173.095C169.767 172.823 169.359 172.617 168.906 172.478C168.459 172.339 167.983 172.27 167.48 172.27C166.57 172.27 165.755 172.499 165.035 172.956C164.32 173.414 163.755 174.085 163.338 174.969C162.927 175.853 162.722 176.933 162.722 178.208C162.722 179.493 162.927 180.578 163.338 181.462C163.755 182.346 164.323 183.015 165.043 183.467C165.762 183.92 166.572 184.146 167.472 184.146C167.971 184.146 168.444 184.079 168.891 183.945C169.343 183.807 169.752 183.603 170.117 183.336C170.482 183.069 170.79 182.742 171.042 182.357C171.299 181.966 171.477 181.519 171.574 181.015L173.981 181.023C173.852 181.799 173.603 182.514 173.232 183.166C172.867 183.814 172.397 184.375 171.821 184.848C171.251 185.315 170.598 185.678 169.862 185.935C169.127 186.192 168.325 186.321 167.456 186.321C166.089 186.321 164.87 185.997 163.801 185.349C162.732 184.696 161.889 183.763 161.272 182.55C160.66 181.336 160.354 179.889 160.354 178.208C160.354 176.522 160.662 175.074 161.279 173.866C161.896 172.653 162.739 171.722 163.809 171.075C164.878 170.422 166.094 170.095 167.456 170.095C168.294 170.095 169.076 170.216 169.801 170.458C170.531 170.694 171.186 171.044 171.767 171.506C172.348 171.964 172.829 172.524 173.209 173.188C173.59 173.846 173.847 174.599 173.981 175.447ZM176.832 186.105V170.311H179.215V177.853H179.408L186.032 170.311H189.032L182.662 177.421L189.055 186.105H186.186L181.081 179.048L179.215 181.192V186.105H176.832ZM197 186.105V170.311H199.383V177.175H207.256V170.311H209.647V186.105H207.256V179.218H199.383V186.105H197ZM223.273 170.311H225.664V180.699C225.664 181.804 225.404 182.783 224.885 183.637C224.366 184.485 223.636 185.154 222.695 185.642C221.754 186.125 220.651 186.367 219.387 186.367C218.127 186.367 217.027 186.125 216.086 185.642C215.145 185.154 214.415 184.485 213.896 183.637C213.377 182.783 213.117 181.804 213.117 180.699V170.311H215.5V180.506C215.5 181.221 215.657 181.855 215.97 182.411C216.289 182.966 216.739 183.403 217.32 183.722C217.901 184.035 218.59 184.192 219.387 184.192C220.189 184.192 220.88 184.035 221.461 183.722C222.047 183.403 222.494 182.966 222.803 182.411C223.117 181.855 223.273 181.221 223.273 180.506V170.311ZM229.128 186.105V170.311H234.912C236.033 170.311 236.961 170.496 237.696 170.866C238.431 171.231 238.981 171.728 239.346 172.355C239.711 172.977 239.894 173.679 239.894 174.46C239.894 175.118 239.773 175.673 239.531 176.126C239.29 176.573 238.966 176.933 238.56 177.205C238.159 177.473 237.717 177.668 237.233 177.791V177.946C237.758 177.971 238.269 178.141 238.768 178.455C239.272 178.763 239.688 179.203 240.017 179.773C240.346 180.344 240.511 181.038 240.511 181.855C240.511 182.663 240.321 183.388 239.94 184.03C239.565 184.668 238.984 185.174 238.197 185.549C237.411 185.92 236.406 186.105 235.182 186.105H229.128ZM231.511 184.061H234.951C236.092 184.061 236.909 183.84 237.403 183.398C237.897 182.956 238.143 182.403 238.143 181.74C238.143 181.241 238.017 180.784 237.765 180.367C237.514 179.951 237.154 179.619 236.686 179.372C236.223 179.126 235.673 179.002 235.036 179.002H231.511V184.061ZM231.511 177.144H234.704C235.239 177.144 235.719 177.041 236.146 176.835C236.578 176.63 236.92 176.342 237.172 175.972C237.429 175.596 237.557 175.154 237.557 174.645C237.557 173.992 237.328 173.445 236.871 173.003C236.413 172.56 235.712 172.339 234.766 172.339H231.511V177.144ZM243.337 186.105V170.311H253.239V172.362H245.72V177.175H252.722V179.218H245.72V184.053H253.331V186.105H243.337ZM256.422 186.105V170.311H262.051C263.275 170.311 264.29 170.522 265.097 170.944C265.91 171.365 266.516 171.949 266.917 172.694C267.318 173.434 267.519 174.29 267.519 175.262C267.519 176.229 267.316 177.079 266.91 177.815C266.509 178.545 265.902 179.113 265.09 179.519C264.283 179.925 263.267 180.128 262.044 180.128H257.779V178.077H261.828C262.599 178.077 263.226 177.966 263.709 177.745C264.198 177.524 264.555 177.203 264.781 176.781C265.008 176.36 265.121 175.853 265.121 175.262C265.121 174.666 265.005 174.149 264.774 173.712C264.547 173.275 264.19 172.941 263.702 172.709C263.218 172.473 262.583 172.355 261.797 172.355H258.805V186.105H256.422ZM264.218 178.979L268.12 186.105H265.406L261.581 178.979H264.218ZM269.64 172.362V170.311H281.863V172.362H276.935V186.105H274.56V172.362H269.64ZM290.311 170.311H293.203L298.231 182.588H298.416L303.444 170.311H306.336V186.105H304.068V174.676H303.922L299.264 186.081H297.382L292.724 174.668H292.578V186.105H290.311V170.311ZM311.134 186.251C310.713 186.251 310.35 186.102 310.047 185.804C309.743 185.501 309.592 185.136 309.592 184.709C309.592 184.287 309.743 183.927 310.047 183.629C310.35 183.326 310.713 183.174 311.134 183.174C311.556 183.174 311.918 183.326 312.221 183.629C312.525 183.927 312.676 184.287 312.676 184.709C312.676 184.992 312.604 185.251 312.46 185.488C312.322 185.719 312.137 185.904 311.905 186.043C311.674 186.182 311.417 186.251 311.134 186.251Z" fill="#0D0D0D"/>
</g>
<path d="M138.571 240.274H136.566C136.488 239.845 136.345 239.468 136.135 239.143C135.925 238.817 135.668 238.541 135.364 238.314C135.06 238.087 134.719 237.915 134.342 237.8C133.969 237.684 133.573 237.626 133.153 237.626C132.395 237.626 131.716 237.817 131.116 238.198C130.52 238.579 130.049 239.139 129.702 239.875C129.359 240.612 129.188 241.512 129.188 242.575C129.188 243.646 129.359 244.55 129.702 245.286C130.049 246.023 130.523 246.58 131.122 246.957C131.722 247.334 132.397 247.523 133.147 247.523C133.562 247.523 133.956 247.467 134.329 247.356C134.706 247.24 135.047 247.071 135.351 246.848C135.655 246.625 135.912 246.353 136.122 246.032C136.336 245.706 136.484 245.334 136.566 244.914L138.571 244.92C138.463 245.567 138.256 246.163 137.947 246.707C137.643 247.247 137.251 247.714 136.771 248.108C136.296 248.498 135.752 248.8 135.139 249.014C134.526 249.228 133.858 249.335 133.134 249.335C131.994 249.335 130.979 249.065 130.088 248.525C129.197 247.981 128.494 247.204 127.98 246.193C127.47 245.182 127.215 243.975 127.215 242.575C127.215 241.169 127.472 239.963 127.986 238.956C128.5 237.945 129.203 237.17 130.094 236.63C130.985 236.086 131.999 235.814 133.134 235.814C133.832 235.814 134.483 235.915 135.087 236.116C135.696 236.313 136.242 236.604 136.726 236.99C137.21 237.371 137.611 237.838 137.928 238.391C138.245 238.939 138.459 239.567 138.571 240.274ZM143.665 249.374C143.04 249.374 142.474 249.258 141.968 249.027C141.463 248.791 141.062 248.45 140.767 248.005C140.475 247.559 140.33 247.013 140.33 246.366C140.33 245.809 140.437 245.351 140.651 244.991C140.865 244.631 141.154 244.346 141.519 244.136C141.883 243.926 142.29 243.768 142.74 243.661C143.19 243.553 143.648 243.472 144.115 243.416C144.706 243.348 145.186 243.292 145.554 243.249C145.923 243.202 146.191 243.127 146.358 243.024C146.525 242.922 146.608 242.754 146.608 242.523V242.478C146.608 241.917 146.45 241.482 146.133 241.174C145.82 240.865 145.353 240.711 144.732 240.711C144.085 240.711 143.575 240.854 143.202 241.141C142.834 241.424 142.579 241.739 142.438 242.086L140.632 241.675C140.846 241.075 141.159 240.591 141.57 240.222C141.986 239.85 142.463 239.58 143.003 239.413C143.543 239.241 144.111 239.156 144.706 239.156C145.1 239.156 145.518 239.203 145.959 239.297C146.405 239.387 146.82 239.554 147.206 239.798C147.596 240.043 147.915 240.392 148.164 240.846C148.412 241.296 148.536 241.88 148.536 242.6V249.155H146.66V247.806H146.583C146.458 248.054 146.272 248.298 146.024 248.538C145.775 248.778 145.456 248.977 145.066 249.136C144.676 249.294 144.209 249.374 143.665 249.374ZM144.083 247.831C144.614 247.831 145.068 247.726 145.445 247.516C145.826 247.306 146.116 247.032 146.313 246.694C146.514 246.351 146.615 245.985 146.615 245.595V244.323C146.546 244.391 146.413 244.455 146.216 244.515C146.024 244.571 145.803 244.62 145.554 244.663C145.306 244.702 145.064 244.738 144.828 244.772C144.593 244.802 144.396 244.828 144.237 244.849C143.864 244.897 143.524 244.976 143.215 245.087C142.911 245.199 142.667 245.359 142.483 245.569C142.303 245.775 142.213 246.049 142.213 246.392C142.213 246.867 142.388 247.227 142.74 247.471C143.091 247.711 143.539 247.831 144.083 247.831ZM151.096 249.155V239.284H152.953V240.852H153.056C153.236 240.321 153.553 239.903 154.007 239.599C154.465 239.291 154.984 239.136 155.562 239.136C155.682 239.136 155.823 239.141 155.986 239.149C156.153 239.158 156.284 239.169 156.378 239.181V241.019C156.301 240.998 156.164 240.974 155.967 240.949C155.77 240.919 155.573 240.904 155.376 240.904C154.921 240.904 154.517 241 154.161 241.193C153.81 241.381 153.531 241.645 153.326 241.983C153.12 242.317 153.017 242.699 153.017 243.127V249.155H151.096ZM161.383 249.348C160.586 249.348 159.875 249.144 159.249 248.737C158.628 248.326 158.139 247.741 157.784 246.983C157.432 246.22 157.257 245.306 157.257 244.239C157.257 243.172 157.435 242.26 157.79 241.501C158.15 240.743 158.643 240.163 159.268 239.76C159.894 239.357 160.603 239.156 161.395 239.156C162.008 239.156 162.501 239.259 162.873 239.464C163.251 239.666 163.542 239.901 163.747 240.171C163.957 240.441 164.12 240.679 164.236 240.884H164.352V235.994H166.273V249.155H164.397V247.619H164.236C164.12 247.829 163.953 248.069 163.735 248.339C163.52 248.609 163.225 248.845 162.848 249.046C162.471 249.247 161.982 249.348 161.383 249.348ZM161.807 247.709C162.359 247.709 162.826 247.564 163.208 247.272C163.593 246.977 163.885 246.567 164.082 246.045C164.283 245.522 164.384 244.914 164.384 244.22C164.384 243.534 164.285 242.934 164.088 242.42C163.891 241.906 163.602 241.506 163.221 241.219C162.839 240.932 162.368 240.788 161.807 240.788C161.228 240.788 160.746 240.938 160.361 241.238C159.975 241.538 159.684 241.947 159.487 242.465C159.294 242.984 159.198 243.568 159.198 244.22C159.198 244.879 159.296 245.473 159.493 246C159.69 246.527 159.982 246.944 160.367 247.253C160.757 247.557 161.237 247.709 161.807 247.709ZM184.582 235.994V249.155H182.757L176.067 239.503H175.945V249.155H173.959V235.994H175.797L182.493 245.659H182.615V235.994H184.582ZM193.577 245.062V239.284H195.505V249.155H193.616V247.446H193.513C193.286 247.973 192.922 248.412 192.42 248.763C191.923 249.11 191.304 249.284 190.563 249.284C189.929 249.284 189.368 249.144 188.879 248.866C188.395 248.583 188.014 248.165 187.736 247.613C187.461 247.06 187.324 246.377 187.324 245.563V239.284H189.246V245.331C189.246 246.004 189.432 246.54 189.805 246.938C190.178 247.336 190.662 247.536 191.257 247.536C191.617 247.536 191.975 247.446 192.33 247.266C192.69 247.086 192.988 246.814 193.224 246.45C193.464 246.085 193.581 245.623 193.577 245.062ZM198.087 249.155V239.284H199.931V240.891H200.053C200.259 240.347 200.595 239.923 201.062 239.618C201.529 239.31 202.088 239.156 202.739 239.156C203.399 239.156 203.952 239.31 204.397 239.618C204.847 239.927 205.179 240.351 205.394 240.891H205.496C205.732 240.364 206.107 239.944 206.621 239.631C207.135 239.314 207.748 239.156 208.459 239.156C209.354 239.156 210.085 239.436 210.65 239.998C211.22 240.559 211.505 241.405 211.505 242.536V249.155H209.584V242.716C209.584 242.048 209.401 241.563 209.037 241.264C208.673 240.964 208.238 240.814 207.733 240.814C207.107 240.814 206.621 241.007 206.274 241.392C205.927 241.773 205.753 242.264 205.753 242.864V249.155H203.838V242.594C203.838 242.058 203.671 241.628 203.337 241.302C203.003 240.977 202.568 240.814 202.033 240.814C201.668 240.814 201.332 240.91 201.024 241.103C200.719 241.291 200.473 241.555 200.285 241.893C200.1 242.232 200.008 242.624 200.008 243.069V249.155H198.087ZM214.235 249.155V235.994H216.156V240.884H216.272C216.383 240.679 216.544 240.441 216.754 240.171C216.964 239.901 217.255 239.666 217.628 239.464C218.001 239.259 218.493 239.156 219.106 239.156C219.903 239.156 220.614 239.357 221.239 239.76C221.865 240.163 222.355 240.743 222.711 241.501C223.071 242.26 223.251 243.172 223.251 244.239C223.251 245.306 223.073 246.22 222.717 246.983C222.362 247.741 221.873 248.326 221.252 248.737C220.631 249.144 219.922 249.348 219.125 249.348C218.525 249.348 218.035 249.247 217.653 249.046C217.276 248.845 216.981 248.609 216.767 248.339C216.552 248.069 216.388 247.829 216.272 247.619H216.111V249.155H214.235ZM216.118 244.22C216.118 244.914 216.218 245.522 216.42 246.045C216.621 246.567 216.912 246.977 217.294 247.272C217.675 247.564 218.142 247.709 218.695 247.709C219.269 247.709 219.748 247.557 220.134 247.253C220.52 246.944 220.811 246.527 221.008 246C221.209 245.473 221.31 244.879 221.31 244.22C221.31 243.568 221.212 242.984 221.014 242.465C220.822 241.947 220.53 241.538 220.141 241.238C219.755 240.938 219.273 240.788 218.695 240.788C218.138 240.788 217.666 240.932 217.281 241.219C216.899 241.506 216.61 241.906 216.413 242.42C216.216 242.934 216.118 243.534 216.118 244.22ZM229.663 249.354C228.69 249.354 227.853 249.147 227.15 248.731C226.452 248.311 225.912 247.722 225.531 246.964C225.154 246.201 224.965 245.308 224.965 244.284C224.965 243.273 225.154 242.382 225.531 241.611C225.912 240.839 226.443 240.237 227.124 239.805C227.81 239.372 228.611 239.156 229.528 239.156C230.085 239.156 230.625 239.248 231.147 239.432C231.67 239.616 232.139 239.905 232.555 240.3C232.97 240.694 233.298 241.206 233.538 241.836C233.778 242.461 233.898 243.221 233.898 244.117V244.798H226.051V243.359H232.015C232.015 242.853 231.912 242.405 231.706 242.015C231.501 241.621 231.212 241.311 230.839 241.084C230.47 240.857 230.038 240.743 229.541 240.743C229.001 240.743 228.53 240.876 228.127 241.141C227.728 241.403 227.42 241.746 227.201 242.17C226.987 242.59 226.88 243.046 226.88 243.539V244.663C226.88 245.323 226.996 245.884 227.227 246.347C227.463 246.81 227.791 247.163 228.21 247.407C228.63 247.647 229.121 247.767 229.682 247.767C230.046 247.767 230.378 247.716 230.678 247.613C230.978 247.506 231.237 247.347 231.456 247.137C231.674 246.927 231.841 246.668 231.957 246.36L233.776 246.687C233.63 247.223 233.369 247.692 232.992 248.095C232.619 248.493 232.15 248.804 231.584 249.027C231.023 249.245 230.383 249.354 229.663 249.354ZM236.03 249.155V239.284H237.887V240.852H237.99C238.17 240.321 238.487 239.903 238.941 239.599C239.399 239.291 239.918 239.136 240.496 239.136C240.616 239.136 240.757 239.141 240.92 239.149C241.087 239.158 241.218 239.169 241.312 239.181V241.019C241.235 240.998 241.098 240.974 240.901 240.949C240.704 240.919 240.507 240.904 240.31 240.904C239.856 240.904 239.451 241 239.095 241.193C238.744 241.381 238.465 241.645 238.26 241.983C238.054 242.317 237.951 242.699 237.951 243.127V249.155H236.03Z" fill="black"/>
<g filter="url(#filter2_d_1320_15629)">
<path d="M146.312 292.731H127.692V285.93C127.692 285.581 127.73 285.214 127.805 284.827C127.89 284.432 128.017 284.04 128.187 283.654C128.356 283.268 128.573 282.9 128.837 282.551C129.111 282.202 129.436 281.896 129.813 281.632C130.199 281.359 130.642 281.142 131.142 280.982C131.641 280.822 132.207 280.742 132.838 280.742H141.123C141.623 280.742 141.99 280.619 142.226 280.374C142.471 280.119 142.593 279.752 142.593 279.271V277.645C142.593 277.146 142.471 276.769 142.226 276.514C141.981 276.26 141.623 276.133 141.151 276.133H129.346V272.457H141.151C141.773 272.457 142.334 272.537 142.834 272.697C143.333 272.857 143.772 273.074 144.149 273.347C144.535 273.611 144.865 273.918 145.138 274.266C145.412 274.615 145.633 274.983 145.803 275.369C145.982 275.746 146.109 276.133 146.185 276.528C146.269 276.915 146.312 277.278 146.312 277.617V279.271C146.312 280.223 146.137 281.029 145.789 281.689C145.449 282.339 145.02 282.872 144.502 283.286C143.984 283.692 143.423 283.989 142.82 284.177C142.226 284.356 141.67 284.446 141.151 284.446H132.838C132.537 284.446 132.296 284.488 132.117 284.573C131.938 284.658 131.797 284.771 131.693 284.912C131.599 285.054 131.528 285.214 131.481 285.393C131.434 285.572 131.396 285.751 131.368 285.93V289.055H146.312V292.731ZM168.113 292.731H149.493V285.93C149.493 285.581 149.531 285.214 149.606 284.827C149.691 284.432 149.818 284.04 149.988 283.654C150.157 283.268 150.374 282.9 150.638 282.551C150.911 282.202 151.237 281.896 151.614 281.632C152 281.359 152.443 281.142 152.942 280.982C153.442 280.822 154.008 280.742 154.639 280.742H162.924C163.423 280.742 163.791 280.619 164.027 280.374C164.272 280.119 164.394 279.752 164.394 279.271V277.645C164.394 277.146 164.272 276.769 164.027 276.514C163.782 276.26 163.423 276.133 162.952 276.133H151.147V272.457H162.952C163.574 272.457 164.135 272.537 164.635 272.697C165.134 272.857 165.572 273.074 165.949 273.347C166.336 273.611 166.666 273.918 166.939 274.266C167.212 274.615 167.434 274.983 167.604 275.369C167.783 275.746 167.91 276.133 167.985 276.528C168.07 276.915 168.113 277.278 168.113 277.617V279.271C168.113 280.223 167.938 281.029 167.589 281.689C167.25 282.339 166.821 282.872 166.303 283.286C165.785 283.692 165.224 283.989 164.621 284.177C164.027 284.356 163.471 284.446 162.952 284.446H154.639C154.337 284.446 154.097 284.488 153.918 284.573C153.739 284.658 153.598 284.771 153.494 284.912C153.4 285.054 153.329 285.214 153.282 285.393C153.235 285.572 153.197 285.751 153.169 285.93V289.055H168.113V292.731ZM189.942 292.731H186.238V284.446H173.174C172.91 284.446 172.665 284.399 172.439 284.304C172.213 284.201 172.015 284.069 171.845 283.908C171.685 283.739 171.558 283.541 171.463 283.315C171.369 283.088 171.322 282.848 171.322 282.594V272.457H174.998V280.742H186.238V272.457H189.942V292.731ZM211.036 287.57C211.036 288.522 210.861 289.328 210.513 289.988C210.173 290.638 209.744 291.171 209.226 291.585C208.717 291.991 208.161 292.283 207.558 292.462C206.954 292.641 206.394 292.731 205.875 292.731H194.084V289.055H205.875C206.375 289.055 206.742 288.927 206.978 288.673C207.223 288.418 207.346 288.051 207.346 287.57V284.446H194.084V280.742H207.346V277.645C207.346 276.637 206.855 276.133 205.875 276.133H194.084V272.457H205.875C206.507 272.457 207.072 272.537 207.572 272.697C208.071 272.857 208.51 273.074 208.887 273.347C209.273 273.611 209.603 273.918 209.876 274.266C210.15 274.615 210.371 274.983 210.541 275.369C210.71 275.746 210.833 276.133 210.908 276.528C210.993 276.915 211.036 277.278 211.036 277.617V287.57ZM227.846 280.742H237.629C238.148 280.742 238.704 280.836 239.298 281.024C239.901 281.203 240.462 281.5 240.98 281.915C241.498 282.32 241.927 282.853 242.267 283.513C242.615 284.172 242.79 284.978 242.79 285.93V287.57C242.79 287.919 242.747 288.287 242.662 288.673C242.587 289.059 242.46 289.446 242.281 289.832C242.111 290.209 241.889 290.572 241.616 290.921C241.352 291.27 241.027 291.581 240.641 291.854C240.264 292.118 239.825 292.33 239.326 292.49C238.826 292.65 238.261 292.731 237.629 292.731H230.97C230.518 292.731 230.032 292.679 229.514 292.575C229.005 292.471 228.501 292.306 228.001 292.08C227.502 291.845 227.016 291.552 226.545 291.204C226.083 290.846 225.678 290.417 225.329 289.917C224.98 289.408 224.698 288.824 224.481 288.164C224.274 287.504 224.17 286.76 224.17 285.93V279.271C224.17 278.442 224.274 277.697 224.481 277.037C224.698 276.378 224.98 275.798 225.329 275.298C225.678 274.789 226.083 274.356 226.545 273.998C227.016 273.64 227.502 273.347 228.001 273.121C228.501 272.886 229.005 272.716 229.514 272.612C230.032 272.509 230.518 272.457 230.97 272.457H240.188V276.133H230.97C230.499 276.17 230.07 276.269 229.684 276.429C229.307 276.59 228.981 276.802 228.708 277.066C228.435 277.33 228.223 277.65 228.072 278.027C227.921 278.395 227.846 278.809 227.846 279.271V280.742ZM227.846 284.446V285.93C227.846 286.411 227.926 286.844 228.086 287.231C228.256 287.608 228.482 287.933 228.765 288.206C229.047 288.48 229.377 288.692 229.754 288.843C230.141 288.984 230.556 289.055 230.999 289.055H237.629C238.101 289.055 238.459 288.913 238.704 288.631C238.958 288.348 239.085 287.994 239.085 287.57V285.93C239.085 285.45 238.963 285.082 238.718 284.827C238.473 284.573 238.101 284.446 237.601 284.446H227.846ZM249.392 280.742H259.176C259.694 280.742 260.25 280.836 260.844 281.024C261.447 281.203 262.008 281.5 262.526 281.915C263.045 282.32 263.474 282.853 263.813 283.513C264.162 284.172 264.336 284.978 264.336 285.93V287.57C264.336 287.919 264.294 288.287 264.209 288.673C264.133 289.059 264.006 289.446 263.827 289.832C263.657 290.209 263.436 290.572 263.163 290.921C262.899 291.27 262.573 291.581 262.187 291.854C261.81 292.118 261.372 292.33 260.872 292.49C260.373 292.65 259.807 292.731 259.176 292.731H252.517C252.064 292.731 251.579 292.679 251.06 292.575C250.551 292.471 250.047 292.306 249.548 292.08C249.048 291.845 248.563 291.552 248.091 291.204C247.63 290.846 247.224 290.417 246.876 289.917C246.527 289.408 246.244 288.824 246.027 288.164C245.82 287.504 245.716 286.76 245.716 285.93V279.271C245.716 278.442 245.82 277.697 246.027 277.037C246.244 276.378 246.527 275.798 246.876 275.298C247.224 274.789 247.63 274.356 248.091 273.998C248.563 273.64 249.048 273.347 249.548 273.121C250.047 272.886 250.551 272.716 251.06 272.612C251.579 272.509 252.064 272.457 252.517 272.457H261.735V276.133H252.517C252.045 276.17 251.616 276.269 251.23 276.429C250.853 276.59 250.528 276.802 250.254 277.066C249.981 277.33 249.769 277.65 249.618 278.027C249.467 278.395 249.392 278.809 249.392 279.271V280.742ZM249.392 284.446V285.93C249.392 286.411 249.472 286.844 249.632 287.231C249.802 287.608 250.028 287.933 250.311 288.206C250.594 288.48 250.924 288.692 251.301 288.843C251.687 288.984 252.102 289.055 252.545 289.055H259.176C259.647 289.055 260.005 288.913 260.25 288.631C260.505 288.348 260.632 287.994 260.632 287.57V285.93C260.632 285.45 260.509 285.082 260.264 284.827C260.019 284.573 259.647 284.446 259.147 284.446H249.392ZM285.967 287.57C285.967 287.919 285.925 288.287 285.84 288.673C285.765 289.059 285.637 289.446 285.458 289.832C285.289 290.209 285.067 290.572 284.794 290.921C284.53 291.27 284.205 291.581 283.818 291.854C283.441 292.118 283.003 292.33 282.503 292.49C282.004 292.65 281.443 292.731 280.821 292.731H267.347V289.055H280.821C281.283 289.055 281.636 288.913 281.881 288.631C282.136 288.348 282.263 287.994 282.263 287.57V285.93C282.263 285.45 282.14 285.082 281.895 284.827C281.65 284.573 281.283 284.446 280.793 284.446H272.508C271.556 284.446 270.75 284.276 270.09 283.937C269.44 283.588 268.912 283.154 268.507 282.636C268.101 282.118 267.805 281.557 267.616 280.954C267.437 280.35 267.347 279.79 267.347 279.271V272.457H284.285V276.133H271.023V279.271C271.023 279.761 271.15 280.129 271.405 280.374C271.659 280.619 272.027 280.742 272.508 280.742H280.821C281.33 280.742 281.886 280.836 282.489 281.024C283.092 281.203 283.649 281.5 284.157 281.915C284.676 282.32 285.105 282.853 285.444 283.513C285.793 284.172 285.967 284.978 285.967 285.93V287.57ZM307.4 292.731H288.781V285.93C288.781 285.581 288.818 285.214 288.894 284.827C288.979 284.432 289.106 284.04 289.275 283.654C289.445 283.268 289.662 282.9 289.926 282.551C290.199 282.202 290.524 281.896 290.901 281.632C291.288 281.359 291.731 281.142 292.23 280.982C292.73 280.822 293.295 280.742 293.927 280.742H302.212C302.711 280.742 303.079 280.619 303.314 280.374C303.56 280.119 303.682 279.752 303.682 279.271V277.645C303.682 277.146 303.56 276.769 303.314 276.514C303.069 276.26 302.711 276.133 302.24 276.133H290.435V272.457H302.24C302.862 272.457 303.423 272.537 303.922 272.697C304.422 272.857 304.86 273.074 305.237 273.347C305.624 273.611 305.954 273.918 306.227 274.266C306.5 274.615 306.722 274.983 306.891 275.369C307.07 275.746 307.198 276.133 307.273 276.528C307.358 276.915 307.4 277.278 307.4 277.617V279.271C307.4 280.223 307.226 281.029 306.877 281.689C306.538 282.339 306.109 282.872 305.591 283.286C305.072 283.692 304.512 283.989 303.908 284.177C303.314 284.356 302.758 284.446 302.24 284.446H293.927C293.625 284.446 293.385 284.488 293.206 284.573C293.027 284.658 292.885 284.771 292.782 284.912C292.687 285.054 292.617 285.214 292.57 285.393C292.522 285.572 292.485 285.751 292.456 285.93V289.055H307.4V292.731ZM319.7 279.271V277.617C319.7 277.278 319.738 276.915 319.814 276.528C319.898 276.133 320.026 275.746 320.195 275.369C320.365 274.983 320.586 274.615 320.86 274.266C321.133 273.918 321.458 273.611 321.835 273.347C322.222 273.074 322.665 272.857 323.164 272.697C323.664 272.537 324.229 272.457 324.861 272.457H331.492C331.944 272.457 332.429 272.509 332.948 272.612C333.466 272.716 333.975 272.886 334.475 273.121C334.984 273.347 335.469 273.64 335.931 273.998C336.393 274.356 336.798 274.789 337.147 275.298C337.505 275.798 337.788 276.378 337.995 277.037C338.212 277.697 338.32 278.442 338.32 279.271V285.93C338.32 286.76 338.212 287.504 337.995 288.164C337.788 288.824 337.505 289.408 337.147 289.917C336.798 290.417 336.393 290.846 335.931 291.204C335.469 291.552 334.984 291.845 334.475 292.08C333.975 292.306 333.466 292.471 332.948 292.575C332.429 292.679 331.944 292.731 331.492 292.731H322.316V289.055H331.492C331.953 289.017 332.373 288.923 332.75 288.772C333.136 288.621 333.466 288.418 333.74 288.164C334.022 287.9 334.239 287.584 334.39 287.217C334.541 286.84 334.616 286.411 334.616 285.93V284.446H324.861C324.512 284.446 324.145 284.408 323.758 284.333C323.372 284.248 322.985 284.121 322.599 283.951C322.222 283.772 321.859 283.55 321.51 283.286C321.161 283.013 320.85 282.683 320.577 282.297C320.313 281.91 320.101 281.467 319.941 280.968C319.781 280.468 319.7 279.903 319.7 279.271ZM334.616 279.271C334.616 278.791 334.536 278.357 334.376 277.97C334.216 277.584 333.994 277.254 333.711 276.981C333.438 276.707 333.108 276.5 332.722 276.359C332.345 276.208 331.935 276.133 331.492 276.133H324.861C324.408 276.133 324.046 276.274 323.772 276.557C323.508 276.839 323.376 277.193 323.376 277.617V279.271C323.376 279.752 323.504 280.119 323.758 280.374C324.013 280.619 324.39 280.742 324.889 280.742H334.616V279.271ZM360.192 292.731H356.488V284.446H343.424C343.16 284.446 342.915 284.399 342.689 284.304C342.463 284.201 342.265 284.069 342.095 283.908C341.935 283.739 341.808 283.541 341.713 283.315C341.619 283.088 341.572 282.848 341.572 282.594V272.457H345.248V280.742H356.488V272.457H360.192V292.731ZM381.286 287.57C381.286 288.522 381.111 289.328 380.763 289.988C380.423 290.638 379.994 291.171 379.476 291.585C378.967 291.991 378.411 292.283 377.808 292.462C377.205 292.641 376.644 292.731 376.125 292.731H364.334V289.055H376.125C376.625 289.055 376.992 288.927 377.228 288.673C377.473 288.418 377.596 288.051 377.596 287.57V284.446H364.334V280.742H377.596V277.645C377.596 276.637 377.106 276.133 376.125 276.133H364.334V272.457H376.125C376.757 272.457 377.322 272.537 377.822 272.697C378.321 272.857 378.76 273.074 379.137 273.347C379.523 273.611 379.853 273.918 380.126 274.266C380.4 274.615 380.621 274.983 380.791 275.369C380.961 275.746 381.083 276.133 381.158 276.528C381.243 276.915 381.286 277.278 381.286 277.617V287.57ZM403.709 287.57C403.709 287.919 403.666 288.287 403.581 288.673C403.506 289.059 403.379 289.446 403.2 289.832C403.03 290.209 402.808 290.572 402.535 290.921C402.271 291.27 401.946 291.581 401.56 291.854C401.183 292.118 400.744 292.33 400.245 292.49C399.745 292.65 399.184 292.731 398.562 292.731H385.089V289.055H398.562C399.024 289.055 399.378 288.913 399.623 288.631C399.877 288.348 400.004 287.994 400.004 287.57V285.93C400.004 285.45 399.882 285.082 399.637 284.827C399.392 284.573 399.024 284.446 398.534 284.446H390.249C389.297 284.446 388.491 284.276 387.832 283.937C387.181 283.588 386.653 283.154 386.248 282.636C385.843 282.118 385.546 281.557 385.357 280.954C385.178 280.35 385.089 279.79 385.089 279.271V272.457H402.026V276.133H388.765V279.271C388.765 279.761 388.892 280.129 389.146 280.374C389.401 280.619 389.768 280.742 390.249 280.742H398.562C399.071 280.742 399.627 280.836 400.231 281.024C400.834 281.203 401.39 281.5 401.899 281.915C402.417 282.32 402.846 282.853 403.185 283.513C403.534 284.172 403.709 284.978 403.709 285.93V287.57ZM415.641 279.271V277.617C415.641 277.278 415.679 276.915 415.754 276.528C415.839 276.133 415.966 275.746 416.136 275.369C416.306 274.983 416.527 274.615 416.8 274.266C417.074 273.918 417.399 273.611 417.776 273.347C418.162 273.074 418.605 272.857 419.105 272.697C419.604 272.537 420.17 272.457 420.801 272.457H427.432C427.885 272.457 428.37 272.509 428.888 272.612C429.407 272.716 429.916 272.886 430.415 273.121C430.924 273.347 431.41 273.64 431.872 273.998C432.333 274.356 432.739 274.789 433.087 275.298C433.446 275.798 433.728 276.378 433.936 277.037C434.152 277.697 434.261 278.442 434.261 279.271V285.93C434.261 286.76 434.152 287.504 433.936 288.164C433.728 288.824 433.446 289.408 433.087 289.917C432.739 290.417 432.333 290.846 431.872 291.204C431.41 291.552 430.924 291.845 430.415 292.08C429.916 292.306 429.407 292.471 428.888 292.575C428.37 292.679 427.885 292.731 427.432 292.731H418.257V289.055H427.432C427.894 289.017 428.313 288.923 428.69 288.772C429.077 288.621 429.407 288.418 429.68 288.164C429.963 287.9 430.18 287.584 430.33 287.217C430.481 286.84 430.557 286.411 430.557 285.93V284.446H420.801C420.453 284.446 420.085 284.408 419.699 284.333C419.312 284.248 418.926 284.121 418.539 283.951C418.162 283.772 417.799 283.55 417.451 283.286C417.102 283.013 416.791 282.683 416.518 282.297C416.254 281.91 416.042 281.467 415.881 280.968C415.721 280.468 415.641 279.903 415.641 279.271ZM430.557 279.271C430.557 278.791 430.477 278.357 430.316 277.97C430.156 277.584 429.935 277.254 429.652 276.981C429.379 276.707 429.049 276.5 428.662 276.359C428.285 276.208 427.875 276.133 427.432 276.133H420.801C420.349 276.133 419.986 276.274 419.713 276.557C419.449 276.839 419.317 277.193 419.317 277.617V279.271C419.317 279.752 419.444 280.119 419.699 280.374C419.953 280.619 420.33 280.742 420.83 280.742H430.557V279.271ZM437.187 279.271V277.617C437.187 277.278 437.225 276.915 437.301 276.528C437.385 276.133 437.513 275.746 437.682 275.369C437.852 274.983 438.073 274.615 438.347 274.266C438.62 273.918 438.945 273.611 439.322 273.347C439.709 273.074 440.152 272.857 440.651 272.697C441.151 272.537 441.716 272.457 442.348 272.457H448.979C449.431 272.457 449.916 272.509 450.435 272.612C450.953 272.716 451.462 272.886 451.962 273.121C452.471 273.347 452.956 273.64 453.418 273.998C453.88 274.356 454.285 274.789 454.634 275.298C454.992 275.798 455.275 276.378 455.482 277.037C455.699 277.697 455.807 278.442 455.807 279.271V285.93C455.807 286.76 455.699 287.504 455.482 288.164C455.275 288.824 454.992 289.408 454.634 289.917C454.285 290.417 453.88 290.846 453.418 291.204C452.956 291.552 452.471 291.845 451.962 292.08C451.462 292.306 450.953 292.471 450.435 292.575C449.916 292.679 449.431 292.731 448.979 292.731H439.803V289.055H448.979C449.44 289.017 449.86 288.923 450.237 288.772C450.623 288.621 450.953 288.418 451.226 288.164C451.509 287.9 451.726 287.584 451.877 287.217C452.028 286.84 452.103 286.411 452.103 285.93V284.446H442.348C441.999 284.446 441.631 284.408 441.245 284.333C440.859 284.248 440.472 284.121 440.086 283.951C439.709 283.772 439.346 283.55 438.997 283.286C438.648 283.013 438.337 282.683 438.064 282.297C437.8 281.91 437.588 281.467 437.428 280.968C437.268 280.468 437.187 279.903 437.187 279.271ZM452.103 279.271C452.103 278.791 452.023 278.357 451.863 277.97C451.702 277.584 451.481 277.254 451.198 276.981C450.925 276.707 450.595 276.5 450.209 276.359C449.832 276.208 449.422 276.133 448.979 276.133H442.348C441.895 276.133 441.533 276.274 441.259 276.557C440.995 276.839 440.863 277.193 440.863 277.617V279.271C440.863 279.752 440.991 280.119 441.245 280.374C441.5 280.619 441.877 280.742 442.376 280.742H452.103V279.271ZM477.65 287.57C477.65 287.919 477.608 288.287 477.523 288.673C477.448 289.059 477.321 289.446 477.141 289.832C476.972 290.209 476.75 290.572 476.477 290.921C476.204 291.27 475.874 291.581 475.487 291.854C475.11 292.118 474.672 292.33 474.172 292.49C473.673 292.65 473.112 292.731 472.49 292.731H464.177C463.668 292.731 463.112 292.641 462.509 292.462C461.905 292.283 461.345 291.991 460.826 291.585C460.317 291.171 459.888 290.638 459.54 289.988C459.2 289.328 459.031 288.522 459.031 287.57V285.93C459.031 285.572 459.068 285.195 459.144 284.799C459.229 284.403 459.356 284.012 459.526 283.626C459.705 283.239 459.931 282.872 460.204 282.523C460.477 282.174 460.807 281.873 461.194 281.618C461.024 281.222 460.897 280.822 460.812 280.416C460.727 280.011 460.685 279.629 460.685 279.271V277.617C460.685 276.675 460.854 275.873 461.194 275.214C461.543 274.554 461.971 274.021 462.48 273.616C462.999 273.211 463.56 272.919 464.163 272.739C464.766 272.551 465.322 272.457 465.831 272.457H470.808C471.439 272.457 472.005 272.537 472.504 272.697C473.013 272.857 473.456 273.074 473.833 273.347C474.22 273.611 474.545 273.918 474.809 274.266C475.082 274.615 475.304 274.983 475.473 275.369C475.643 275.746 475.765 276.133 475.841 276.528C475.926 276.915 475.968 277.278 475.968 277.617V279.271C475.968 280.195 475.803 280.996 475.473 281.675C475.775 281.873 476.058 282.108 476.321 282.382C476.585 282.645 476.816 282.952 477.014 283.301C477.212 283.649 477.368 284.045 477.481 284.488C477.594 284.922 477.65 285.402 477.65 285.93V287.57ZM472.292 277.645C472.292 277.146 472.165 276.769 471.91 276.514C471.656 276.26 471.288 276.133 470.808 276.133H465.859C465.36 276.133 464.987 276.26 464.742 276.514C464.507 276.769 464.389 277.136 464.389 277.617V279.271C464.389 279.761 464.512 280.129 464.757 280.374C465.011 280.619 465.369 280.742 465.831 280.742H470.808C471.307 280.742 471.679 280.619 471.925 280.374C472.17 280.119 472.292 279.752 472.292 279.271V277.645ZM473.932 285.93C473.932 285.459 473.8 285.096 473.536 284.842C473.282 284.578 472.933 284.446 472.49 284.446H464.177C463.724 284.446 463.366 284.587 463.102 284.87C462.839 285.153 462.707 285.506 462.707 285.93V287.57C462.707 288.023 462.843 288.386 463.117 288.659C463.399 288.923 463.753 289.055 464.177 289.055H472.49C472.961 289.055 473.32 288.913 473.565 288.631C473.81 288.348 473.932 287.994 473.932 287.57V285.93ZM499.253 292.731H480.634V285.93C480.634 285.581 480.671 285.214 480.747 284.827C480.831 284.432 480.959 284.04 481.128 283.654C481.298 283.268 481.515 282.9 481.779 282.551C482.052 282.202 482.377 281.896 482.754 281.632C483.141 281.359 483.584 281.142 484.083 280.982C484.583 280.822 485.148 280.742 485.78 280.742H494.065C494.564 280.742 494.932 280.619 495.167 280.374C495.412 280.119 495.535 279.752 495.535 279.271V277.645C495.535 277.146 495.412 276.769 495.167 276.514C494.922 276.26 494.564 276.133 494.093 276.133H482.288V272.457H494.093C494.715 272.457 495.276 272.537 495.775 272.697C496.275 272.857 496.713 273.074 497.09 273.347C497.477 273.611 497.807 273.918 498.08 274.266C498.353 274.615 498.575 274.983 498.744 275.369C498.923 275.746 499.051 276.133 499.126 276.528C499.211 276.915 499.253 277.278 499.253 277.617V279.271C499.253 280.223 499.079 281.029 498.73 281.689C498.391 282.339 497.962 282.872 497.444 283.286C496.925 283.692 496.364 283.989 495.761 284.177C495.167 284.356 494.611 284.446 494.093 284.446H485.78C485.478 284.446 485.238 284.488 485.059 284.573C484.88 284.658 484.738 284.771 484.635 284.912C484.54 285.054 484.47 285.214 484.423 285.393C484.375 285.572 484.338 285.751 484.309 285.93V289.055H499.253V292.731Z" fill="black"/>
</g>
<path d="M127.639 358.642V345.48H135.891V347.19H129.625V351.2H135.46V352.903H129.625V356.932H135.968V358.642H127.639ZM139.906 348.771L142.084 352.614L144.282 348.771H146.383L143.305 353.706L146.409 358.642H144.308L142.084 354.953L139.867 358.642H137.759L140.831 353.706L137.798 348.771H139.906ZM148.356 362.343V348.771H150.233V350.371H150.393C150.505 350.165 150.666 349.927 150.875 349.658C151.085 349.388 151.377 349.152 151.749 348.951C152.122 348.745 152.615 348.642 153.228 348.642C154.024 348.642 154.736 348.844 155.361 349.246C155.987 349.649 156.477 350.229 156.833 350.988C157.193 351.746 157.373 352.659 157.373 353.725C157.373 354.792 157.195 355.707 156.839 356.469C156.484 357.228 155.995 357.813 155.374 358.224C154.753 358.631 154.044 358.834 153.247 358.834C152.647 358.834 152.156 358.734 151.775 358.532C151.398 358.331 151.103 358.095 150.888 357.825C150.674 357.556 150.509 357.316 150.393 357.106H150.278V362.343H148.356ZM150.239 353.706C150.239 354.4 150.34 355.009 150.541 355.531C150.743 356.054 151.034 356.463 151.415 356.759C151.797 357.05 152.264 357.196 152.816 357.196C153.39 357.196 153.87 357.044 154.256 356.739C154.641 356.431 154.933 356.013 155.13 355.486C155.331 354.959 155.432 354.366 155.432 353.706C155.432 353.055 155.333 352.47 155.136 351.952C154.943 351.433 154.652 351.024 154.262 350.724C153.877 350.424 153.395 350.274 152.816 350.274C152.259 350.274 151.788 350.418 151.402 350.705C151.021 350.992 150.732 351.393 150.535 351.907C150.338 352.421 150.239 353.021 150.239 353.706ZM159.525 358.642V348.771H161.447V358.642H159.525ZM160.496 347.248C160.162 347.248 159.875 347.136 159.635 346.913C159.399 346.686 159.281 346.416 159.281 346.104C159.281 345.787 159.399 345.517 159.635 345.294C159.875 345.067 160.162 344.953 160.496 344.953C160.83 344.953 161.115 345.067 161.35 345.294C161.59 345.517 161.71 345.787 161.71 346.104C161.71 346.416 161.59 346.686 161.35 346.913C161.115 347.136 160.83 347.248 160.496 347.248ZM164.032 358.642V348.771H165.889V350.339H165.992C166.172 349.807 166.489 349.39 166.943 349.086C167.401 348.777 167.92 348.623 168.498 348.623C168.618 348.623 168.76 348.627 168.922 348.636C169.089 348.644 169.22 348.655 169.314 348.668V350.506C169.237 350.484 169.1 350.461 168.903 350.435C168.706 350.405 168.509 350.39 168.312 350.39C167.858 350.39 167.453 350.487 167.097 350.679C166.746 350.868 166.467 351.131 166.262 351.47C166.056 351.804 165.953 352.185 165.953 352.614V358.642H164.032ZM176.168 348.771V350.313H170.776V348.771H176.168ZM172.222 346.406H174.144V355.743C174.144 356.116 174.199 356.397 174.311 356.585C174.422 356.769 174.566 356.896 174.741 356.964C174.921 357.029 175.116 357.061 175.326 357.061C175.48 357.061 175.615 357.05 175.731 357.029C175.847 357.007 175.937 356.99 176.001 356.977L176.348 358.564C176.237 358.607 176.078 358.65 175.872 358.693C175.667 358.74 175.41 358.766 175.101 358.77C174.596 358.779 174.124 358.689 173.687 358.5C173.25 358.312 172.897 358.02 172.627 357.626C172.357 357.232 172.222 356.737 172.222 356.142V346.406ZM179.508 362.343C179.221 362.343 178.96 362.32 178.724 362.273C178.489 362.23 178.313 362.183 178.197 362.131L178.66 360.557C179.011 360.651 179.324 360.692 179.598 360.679C179.872 360.666 180.114 360.563 180.324 360.37C180.539 360.178 180.727 359.863 180.89 359.426L181.128 358.77L177.516 348.771H179.572L182.072 356.431H182.175L184.675 348.771H186.738L182.67 359.959C182.481 360.473 182.242 360.908 181.95 361.264C181.659 361.623 181.312 361.893 180.909 362.073C180.506 362.253 180.039 362.343 179.508 362.343ZM197.748 358.642H193.487V345.48H197.883C199.172 345.48 200.28 345.744 201.205 346.271C202.131 346.794 202.84 347.545 203.332 348.526C203.829 349.503 204.078 350.675 204.078 352.042C204.078 353.413 203.827 354.591 203.326 355.576C202.829 356.562 202.109 357.32 201.167 357.851C200.224 358.378 199.084 358.642 197.748 358.642ZM195.473 356.906H197.639C198.641 356.906 199.474 356.718 200.138 356.341C200.802 355.96 201.299 355.409 201.629 354.689C201.959 353.965 202.124 353.083 202.124 352.042C202.124 351.009 201.959 350.133 201.629 349.413C201.304 348.694 200.817 348.147 200.171 347.775C199.524 347.402 198.72 347.216 197.761 347.216H195.473V356.906ZM209.265 358.86C208.64 358.86 208.074 358.744 207.569 358.513C207.063 358.277 206.663 357.937 206.367 357.491C206.076 357.046 205.93 356.499 205.93 355.853C205.93 355.296 206.037 354.837 206.252 354.477C206.466 354.117 206.755 353.833 207.119 353.623C207.483 353.413 207.89 353.254 208.34 353.147C208.79 353.04 209.248 352.959 209.715 352.903C210.307 352.834 210.786 352.779 211.155 352.736C211.523 352.689 211.791 352.614 211.958 352.511C212.125 352.408 212.209 352.241 212.209 352.01V351.965C212.209 351.403 212.05 350.969 211.733 350.66C211.42 350.352 210.953 350.197 210.332 350.197C209.685 350.197 209.176 350.341 208.803 350.628C208.434 350.911 208.179 351.226 208.038 351.573L206.232 351.161C206.446 350.562 206.759 350.077 207.17 349.709C207.586 349.336 208.064 349.066 208.604 348.899C209.143 348.728 209.711 348.642 210.307 348.642C210.701 348.642 211.118 348.689 211.56 348.784C212.005 348.874 212.421 349.041 212.806 349.285C213.196 349.529 213.515 349.878 213.764 350.332C214.012 350.782 214.137 351.367 214.137 352.087V358.642H212.26V357.292H212.183C212.059 357.541 211.872 357.785 211.624 358.025C211.375 358.265 211.056 358.464 210.666 358.622C210.277 358.781 209.81 358.86 209.265 358.86ZM209.683 357.318C210.214 357.318 210.669 357.213 211.046 357.003C211.427 356.793 211.716 356.519 211.913 356.18C212.115 355.838 212.215 355.471 212.215 355.081V353.809C212.147 353.878 212.014 353.942 211.817 354.002C211.624 354.057 211.403 354.107 211.155 354.15C210.906 354.188 210.664 354.225 210.429 354.259C210.193 354.289 209.996 354.315 209.837 354.336C209.465 354.383 209.124 354.462 208.816 354.574C208.511 354.685 208.267 354.846 208.083 355.056C207.903 355.261 207.813 355.536 207.813 355.878C207.813 356.354 207.989 356.714 208.34 356.958C208.691 357.198 209.139 357.318 209.683 357.318ZM221.304 348.771V350.313H215.912V348.771H221.304ZM217.358 346.406H219.279V355.743C219.279 356.116 219.335 356.397 219.446 356.585C219.558 356.769 219.701 356.896 219.877 356.964C220.057 357.029 220.252 357.061 220.462 357.061C220.616 357.061 220.751 357.05 220.867 357.029C220.982 357.007 221.072 356.99 221.137 356.977L221.484 358.564C221.372 358.607 221.214 358.65 221.008 358.693C220.802 358.74 220.545 358.766 220.237 358.77C219.731 358.779 219.26 358.689 218.823 358.5C218.386 358.312 218.033 358.02 217.763 357.626C217.493 357.232 217.358 356.737 217.358 356.142V346.406ZM227.577 358.841C226.605 358.841 225.767 358.633 225.065 358.217C224.366 357.798 223.827 357.209 223.445 356.45C223.068 355.688 222.88 354.794 222.88 353.77C222.88 352.759 223.068 351.868 223.445 351.097C223.827 350.326 224.358 349.724 225.039 349.291C225.724 348.859 226.526 348.642 227.442 348.642C227.999 348.642 228.539 348.734 229.062 348.918C229.585 349.103 230.054 349.392 230.469 349.786C230.885 350.18 231.213 350.692 231.453 351.322C231.692 351.947 231.812 352.708 231.812 353.603V354.285H223.966V352.845H229.929C229.929 352.339 229.827 351.892 229.621 351.502C229.415 351.108 229.126 350.797 228.753 350.57C228.385 350.343 227.952 350.229 227.455 350.229C226.916 350.229 226.444 350.362 226.042 350.628C225.643 350.889 225.335 351.232 225.116 351.656C224.902 352.076 224.795 352.532 224.795 353.025V354.15C224.795 354.809 224.91 355.371 225.142 355.833C225.377 356.296 225.705 356.649 226.125 356.894C226.545 357.134 227.035 357.254 227.597 357.254C227.961 357.254 228.293 357.202 228.593 357.099C228.893 356.992 229.152 356.834 229.37 356.624C229.589 356.414 229.756 356.155 229.872 355.846L231.69 356.174C231.545 356.709 231.283 357.179 230.906 357.581C230.534 357.98 230.064 358.29 229.499 358.513C228.938 358.732 228.297 358.841 227.577 358.841Z" fill="black"/>
<g filter="url(#filter3_d_1320_15629)">
<path d="M132.716 378.053V391.214H130.332V380.373H130.255L127.177 382.339V380.154L130.448 378.053H132.716ZM140.923 391.465C139.864 391.465 138.956 391.197 138.198 390.661C137.444 390.122 136.863 389.344 136.456 388.329C136.054 387.309 135.852 386.082 135.852 384.646C135.856 383.211 136.06 381.99 136.463 380.983C136.87 379.972 137.45 379.201 138.204 378.67C138.963 378.139 139.869 377.873 140.923 377.873C141.977 377.873 142.883 378.139 143.641 378.67C144.399 379.201 144.98 379.972 145.383 380.983C145.79 381.994 145.993 383.215 145.993 384.646C145.993 386.086 145.79 387.315 145.383 388.335C144.98 389.35 144.399 390.126 143.641 390.661C142.887 391.197 141.981 391.465 140.923 391.465ZM140.923 389.453C141.745 389.453 142.394 389.048 142.87 388.239C143.35 387.425 143.59 386.227 143.59 384.646C143.59 383.601 143.48 382.723 143.262 382.012C143.043 381.3 142.735 380.765 142.336 380.405C141.938 380.041 141.467 379.859 140.923 379.859C140.104 379.859 139.457 380.266 138.982 381.08C138.506 381.889 138.266 383.078 138.262 384.646C138.258 385.696 138.363 386.579 138.577 387.294C138.795 388.009 139.104 388.549 139.502 388.913C139.901 389.273 140.374 389.453 140.923 389.453ZM153.526 377.436L149.285 393.193H147.248L151.489 377.436H153.526ZM154.985 391.214V389.492L159.554 385.013C159.991 384.571 160.355 384.179 160.647 383.837C160.938 383.494 161.157 383.162 161.302 382.841C161.448 382.519 161.521 382.176 161.521 381.812C161.521 381.397 161.426 381.041 161.238 380.746C161.049 380.446 160.79 380.214 160.46 380.052C160.13 379.889 159.756 379.807 159.336 379.807C158.903 379.807 158.524 379.897 158.198 380.077C157.873 380.253 157.62 380.503 157.44 380.829C157.264 381.155 157.177 381.542 157.177 381.992H154.908C154.908 381.157 155.099 380.431 155.48 379.814C155.861 379.197 156.386 378.719 157.054 378.381C157.727 378.042 158.498 377.873 159.368 377.873C160.25 377.873 161.026 378.038 161.694 378.368C162.363 378.698 162.881 379.15 163.249 379.724C163.622 380.298 163.809 380.953 163.809 381.69C163.809 382.183 163.714 382.667 163.526 383.143C163.337 383.618 163.005 384.145 162.53 384.723C162.058 385.302 161.396 386.002 160.544 386.825L158.275 389.132V389.222H164.008V391.214H154.985ZM170.8 391.394C169.944 391.394 169.177 391.233 168.5 390.912C167.823 390.586 167.285 390.141 166.887 389.575C166.493 389.01 166.283 388.363 166.257 387.635H168.57C168.613 388.174 168.847 388.616 169.271 388.958C169.695 389.297 170.205 389.466 170.8 389.466C171.267 389.466 171.683 389.359 172.047 389.145C172.411 388.931 172.698 388.633 172.908 388.252C173.118 387.87 173.221 387.435 173.217 386.947C173.221 386.45 173.116 386.009 172.902 385.623C172.688 385.238 172.394 384.936 172.021 384.717C171.649 384.494 171.22 384.383 170.736 384.383C170.342 384.379 169.954 384.451 169.573 384.601C169.192 384.751 168.89 384.948 168.667 385.193L166.514 384.839L167.202 378.053H174.836V380.045H169.175L168.795 383.535H168.873C169.117 383.248 169.462 383.01 169.907 382.821C170.353 382.628 170.841 382.532 171.372 382.532C172.169 382.532 172.88 382.721 173.506 383.098C174.131 383.47 174.624 383.984 174.984 384.64C175.344 385.295 175.524 386.045 175.524 386.889C175.524 387.759 175.322 388.534 174.92 389.216C174.521 389.892 173.966 390.426 173.255 390.816C172.548 391.201 171.73 391.394 170.8 391.394Z" fill="black"/>
</g>
<path d="M544.484 355.72C546.516 357.317 548.158 359.356 549.287 361.683C550.415 364.009 551.001 366.563 550.998 369.15C551 371.736 550.414 374.288 549.286 376.614C548.157 378.94 546.515 380.978 544.484 382.575C542.453 380.978 540.811 378.939 539.682 376.613C538.554 374.286 537.968 371.733 537.97 369.147C537.968 366.561 538.554 364.008 539.682 361.682C540.811 359.355 542.453 357.317 544.484 355.72V355.72ZM542.301 354.257C540.151 356.095 538.424 358.38 537.242 360.952C536.059 363.524 535.448 366.323 535.451 369.155C535.448 371.985 536.059 374.783 537.24 377.354C538.422 379.925 540.147 382.209 542.296 384.047C539.7 385.507 536.768 386.261 533.791 386.233C530.814 386.206 527.895 385.399 525.326 383.892C522.757 382.386 520.627 380.232 519.146 377.645C517.666 375.058 516.887 372.127 516.888 369.146C516.889 366.164 517.669 363.234 519.151 360.648C520.632 358.062 522.764 355.909 525.334 354.403C527.904 352.898 530.822 352.092 533.799 352.067C536.776 352.041 539.708 352.796 542.304 354.257H542.301ZM546.672 384.047C548.821 382.209 550.546 379.925 551.728 377.354C552.91 374.783 553.521 371.985 553.518 369.155C553.521 366.323 552.91 363.524 551.727 360.952C550.544 358.38 548.818 356.095 546.667 354.257C549.263 352.796 552.195 352.041 555.172 352.067C558.149 352.092 561.068 352.898 563.637 354.403C566.207 355.909 568.339 358.062 569.821 360.648C571.302 363.234 572.082 366.164 572.083 369.146C572.084 372.127 571.305 375.058 569.825 377.645C568.345 380.232 566.214 382.386 563.645 383.892C561.076 385.399 558.158 386.206 555.181 386.233C552.203 386.261 549.271 385.507 546.675 384.047H546.672Z" fill="#0D0D0D"/>
<g clip-path="url(#clip1_1320_15629)">
<rect x="514.366" y="174.151" width="58.8142" height="45.2417" rx="7.23867" fill="white" fill-opacity="0.24"/>
<path fill-rule="evenodd" clip-rule="evenodd" d="M534.273 219.396V174.155H532.464V185.918H514.367V187.728H532.464V196.776H514.367V198.586H532.464V207.634H514.367V209.443H532.464V219.396H534.273Z" fill="#0D0D0D"/>
<path fill-rule="evenodd" clip-rule="evenodd" d="M552.615 196.776L552.753 196.445L552.773 196.398C553.949 193.577 555.136 190.729 556.136 187.725H571.372V185.916H556.708C557.896 181.942 558.704 177.663 558.704 172.798H556.894C556.894 181.787 554.026 188.688 551.083 195.749L551.063 195.796C550.927 196.122 550.791 196.449 550.655 196.776H550.56V197.003C547.799 203.658 545.131 210.56 545.131 219.397H546.941C546.941 215.791 547.403 212.522 548.145 209.443H571.371V207.634H548.619C549.502 204.496 550.652 201.535 551.865 198.586H571.372V196.776H552.615Z" fill="#1A1A1A"/>
</g>
<rect x="515.271" y="175.056" width="57.0045" height="43.432" rx="6.33383" stroke="#1A1A1A" stroke-width="1.80967"/>
<g clip-path="url(#clip2_1320_15629)">
<path d="M156.222 116.849C155.525 116.529 154.99 116.084 154.618 115.513C154.245 114.941 154.049 114.278 154.029 113.523H156.397C156.406 114.055 156.622 114.479 157.043 114.793C157.464 115.108 158.047 115.266 158.793 115.266C159.345 115.266 159.778 115.174 160.093 114.99C160.407 114.806 160.565 114.525 160.565 114.147C160.565 113.906 160.5 113.709 160.369 113.559C160.238 113.409 160.02 113.283 159.715 113.182C159.41 113.08 158.977 112.985 158.415 112.898C157.389 112.744 156.593 112.55 156.026 112.317C155.46 112.085 155.055 111.78 154.814 111.402C154.572 111.025 154.451 110.526 154.451 109.907C154.451 109.287 154.615 108.711 154.945 108.236C155.274 107.762 155.748 107.396 156.368 107.14C156.988 106.883 157.714 106.755 158.547 106.755C159.379 106.755 160.132 106.903 160.776 107.197C161.419 107.493 161.921 107.909 162.279 108.446C162.637 108.984 162.821 109.601 162.831 110.298H160.463C160.454 109.804 160.265 109.434 159.897 109.187C159.529 108.94 159.04 108.817 158.43 108.817C157.907 108.817 157.496 108.899 157.196 109.064C156.895 109.228 156.745 109.48 156.745 109.818C156.745 110.051 156.813 110.238 156.949 110.378C157.084 110.518 157.319 110.637 157.653 110.733C157.987 110.83 158.459 110.922 159.069 111.009C159.989 111.135 160.724 111.322 161.276 111.569C161.828 111.816 162.23 112.142 162.482 112.549C162.733 112.955 162.859 113.464 162.859 114.074C162.859 114.741 162.687 115.32 162.343 115.809C162 116.298 161.515 116.673 160.891 116.935C160.266 117.196 159.538 117.327 158.705 117.327C157.747 117.327 156.919 117.167 156.222 116.847V116.849Z" fill="#0D0D0D"/>
<path d="M166.141 108.772H163.962V106.885H166.141V108.772ZM166.141 117.123H163.991V109.701H166.141V117.123Z" fill="#0D0D0D"/>
<path d="M167.361 117.122V109.701H169.51V110.63H169.626C170.013 109.875 170.662 109.497 171.572 109.497C172.017 109.497 172.41 109.608 172.749 109.831C173.087 110.054 173.349 110.369 173.533 110.775H173.649C174.094 109.923 174.801 109.497 175.769 109.497C176.534 109.497 177.132 109.735 177.563 110.209C177.993 110.683 178.209 111.332 178.209 112.155V117.121H176.06V112.619C176.06 112.241 175.963 111.949 175.769 111.74C175.575 111.532 175.304 111.428 174.956 111.428C174.607 111.428 174.336 111.532 174.142 111.74C173.948 111.949 173.852 112.241 173.852 112.619V117.121H171.703V112.619C171.703 112.241 171.608 111.949 171.419 111.74C171.23 111.532 170.962 111.428 170.613 111.428C170.265 111.428 169.994 111.532 169.8 111.74C169.606 111.949 169.509 112.241 169.509 112.619V117.121H167.36L167.361 117.122Z" fill="#0D0D0D"/>
<path d="M182.639 116.984C182.222 116.757 181.898 116.435 181.666 116.019H181.55V117.123H179.4V106.957H181.55V110.805H181.666C181.898 110.38 182.222 110.055 182.639 109.832C183.055 109.61 183.534 109.498 184.076 109.498C184.754 109.498 185.359 109.666 185.892 110C186.424 110.334 186.841 110.796 187.141 111.387C187.441 111.977 187.591 112.65 187.591 113.406C187.591 114.161 187.441 114.836 187.141 115.432C186.841 116.027 186.424 116.492 185.892 116.826C185.359 117.16 184.754 117.327 184.076 117.327C183.534 117.327 183.055 117.213 182.639 116.986V116.984ZM184.817 114.857C185.165 114.499 185.34 114.014 185.34 113.405C185.34 112.795 185.165 112.325 184.817 111.967C184.468 111.608 184.008 111.429 183.437 111.429C182.866 111.429 182.408 111.608 182.064 111.967C181.721 112.325 181.548 112.804 181.548 113.405C181.548 114.005 181.72 114.499 182.064 114.857C182.408 115.215 182.865 115.394 183.437 115.394C184.009 115.394 184.468 115.216 184.817 114.857Z" fill="#0D0D0D"/>
<path d="M189.87 116.825C189.338 116.491 188.922 116.026 188.621 115.431C188.321 114.835 188.171 114.16 188.171 113.405C188.171 112.649 188.321 111.976 188.621 111.386C188.922 110.795 189.338 110.333 189.87 109.999C190.403 109.665 191.008 109.497 191.686 109.497C192.228 109.497 192.707 109.608 193.124 109.831C193.54 110.054 193.864 110.378 194.096 110.804H194.212V109.7H196.362V117.122H194.212V116.018H194.096C193.864 116.434 193.54 116.756 193.124 116.983C192.707 117.21 192.228 117.325 191.686 117.325C191.008 117.325 190.403 117.157 189.87 116.823V116.825ZM193.697 114.858C194.041 114.499 194.213 114.015 194.213 113.405C194.213 112.795 194.041 112.325 193.697 111.967C193.354 111.609 192.896 111.43 192.325 111.43C191.753 111.43 191.294 111.609 190.945 111.967C190.597 112.325 190.422 112.805 190.422 113.405C190.422 114.005 190.597 114.499 190.945 114.858C191.294 115.216 191.753 115.395 192.325 115.395C192.896 115.395 193.353 115.216 193.697 114.858Z" fill="#0D0D0D"/>
<path d="M156.643 129.627H154.421V119.461H157.543L160.346 126.04H160.476L163.279 119.461H166.358V129.627H164.121V122.453H163.991L161.464 128.305H159.3L156.759 122.453H156.643V129.627H156.643Z" fill="#0D0D0D"/>
<path d="M169.328 129.326C168.714 128.992 168.232 128.527 167.883 127.932C167.535 127.337 167.36 126.661 167.36 125.906C167.36 125.15 167.535 124.478 167.883 123.887C168.232 123.296 168.713 122.834 169.328 122.5C169.943 122.166 170.643 121.999 171.427 121.999C172.212 121.999 172.899 122.166 173.518 122.5C174.138 122.834 174.62 123.296 174.964 123.887C175.307 124.478 175.479 125.15 175.479 125.906C175.479 126.661 175.307 127.337 174.964 127.932C174.62 128.527 174.138 128.992 173.518 129.326C172.899 129.66 172.202 129.828 171.427 129.828C170.652 129.828 169.943 129.66 169.328 129.326ZM172.727 127.323C173.051 126.969 173.213 126.497 173.213 125.906C173.213 125.316 173.051 124.844 172.727 124.49C172.402 124.137 171.969 123.96 171.427 123.96C170.885 123.96 170.449 124.137 170.12 124.49C169.791 124.844 169.626 125.316 169.626 125.906C169.626 126.497 169.79 126.969 170.12 127.323C170.449 127.676 170.885 127.853 171.427 127.853C171.969 127.853 172.402 127.677 172.727 127.323Z" fill="#0D0D0D"/>
<path d="M176.336 129.626V122.205H178.485V123.25H178.601C178.814 122.834 179.11 122.522 179.487 122.314C179.865 122.105 180.295 122.001 180.779 122.001C181.564 122.001 182.183 122.253 182.638 122.756C183.093 123.26 183.321 123.947 183.321 124.819V129.626H181.171V125.4C181.171 124.926 181.055 124.562 180.823 124.31C180.59 124.058 180.261 123.933 179.836 123.933C179.41 123.933 179.078 124.061 178.841 124.317C178.604 124.574 178.485 124.935 178.485 125.4V129.626H176.336V129.626Z" fill="#0D0D0D"/>
<path d="M190.052 122.487C190.647 122.811 191.112 123.261 191.446 123.837C191.78 124.414 191.947 125.065 191.947 125.791C191.947 125.994 191.933 126.197 191.904 126.4H186.283C186.361 126.914 186.564 127.313 186.893 127.599C187.222 127.884 187.649 128.027 188.171 128.027C188.597 128.027 188.946 127.935 189.217 127.751C189.488 127.567 189.657 127.34 189.726 127.068H191.831C191.764 127.591 191.565 128.061 191.236 128.477C190.907 128.894 190.471 129.223 189.929 129.465C189.387 129.707 188.772 129.828 188.085 129.828C187.32 129.828 186.635 129.66 186.03 129.326C185.425 128.992 184.952 128.527 184.613 127.932C184.275 127.337 184.105 126.661 184.105 125.906C184.105 125.15 184.274 124.49 184.613 123.894C184.952 123.299 185.42 122.834 186.015 122.5C186.611 122.166 187.286 121.999 188.041 121.999C188.797 121.999 189.457 122.161 190.053 122.485L190.052 122.487ZM186.98 124.127C186.68 124.345 186.472 124.658 186.356 125.064H189.841C189.715 124.658 189.5 124.345 189.195 124.127C188.89 123.909 188.52 123.801 188.084 123.801C187.648 123.801 187.28 123.909 186.98 124.127Z" fill="#0D0D0D"/>
<path d="M197.713 122.206H199.906L197.118 130.673C196.885 131.38 196.6 131.866 196.261 132.133C195.922 132.399 195.423 132.532 194.765 132.532H193.153V130.659H194.693C194.915 130.659 195.072 130.622 195.165 130.55C195.257 130.477 195.332 130.339 195.39 130.136L195.549 129.628H194.62L191.904 122.206H194.184L195.999 127.623H196.13L197.713 122.206H197.713Z" fill="#0D0D0D"/>
<path d="M132.342 130.631C132.342 130.631 135.481 129.056 134.519 123.807C134.519 123.807 137.228 126.271 136.582 131.156C136.582 131.156 133.15 130.995 132.342 130.631Z" fill="#0D0D0D"/>
<path d="M141.002 130.55C141.002 130.55 139.405 125.31 135.546 122.671C135.546 122.671 139.495 122.779 144.322 128.611C144.322 128.611 142.653 129.957 141.002 130.549V130.55Z" fill="#0D0D0D"/>
<path d="M146.408 126.8C146.408 126.8 143.312 122.277 136.555 120.393C136.555 120.393 142.72 120.42 148.696 123.597C148.696 123.597 147.323 125.992 146.408 126.8V126.8Z" fill="#0D0D0D"/>
<path d="M149.262 120.604C149.262 120.604 145.789 117.75 137.283 118.693C137.283 118.693 141.186 115.058 149.477 117.104C149.477 117.104 149.827 118.693 149.262 120.604Z" fill="#0D0D0D"/>
<path d="M147.466 111.63C141.059 111.065 137.317 113.515 137.317 113.515C139.633 110.15 145.609 108.965 145.609 108.965C144.99 108.427 143.348 107.216 143.348 107.216C140.118 107.674 136.079 110.823 136.079 110.823C137.533 107.781 141.033 105.87 141.033 105.87L138.34 105.385C134.599 107.162 133.468 110.312 133.522 110.581C133.576 110.85 134.168 111.227 134.168 111.227C133.351 111.161 132.214 111.745 131.466 112.199C130.986 112.49 130.685 113.004 130.667 113.565L130.641 114.323C128.192 115.992 126.193 118.785 126.193 118.785H127.55C127.805 118.785 128.057 118.733 128.29 118.633L128.973 118.339C128.114 119.135 127.619 119.88 127.344 120.403C127.069 120.927 127.133 121.568 127.517 122.017C128.665 123.357 130.7 122.58 130.7 122.58C132.979 121.261 130.615 119.982 130.615 119.982L133.59 117.945C133.583 117.95 133.577 117.956 133.571 117.962C133.039 118.47 133.577 119.35 134.271 119.104C134.274 119.103 134.279 119.101 134.283 119.1C134.43 119.046 134.558 118.949 134.657 118.827C140.057 112.18 149.109 114.145 149.109 114.145C148.678 112.73 147.467 111.63 147.467 111.63L147.466 111.63ZM135.471 113.703C135.421 113.856 135.332 113.993 135.217 114.105C134.802 114.51 133.53 115.567 131.53 115.631C131.53 115.631 131.69 114.834 132.2 114.229C132.489 113.887 132.917 113.693 133.365 113.693H135.474C135.474 113.693 135.473 113.696 135.471 113.702V113.703Z" fill="#0D0D0D"/>
<path d="M131.121 125.538C131 124.701 130.542 124.18 129.829 123.983C129.007 123.756 128.189 123.513 127.356 123.274C127.277 124.31 127.731 125.256 128.15 126.269C129.098 125.834 130.022 125.319 131.12 125.538H131.121Z" fill="#0D0D0D"/>
</g>
</g>
</g>
<defs>
<filter id="filter0_b_1320_15629" x="71.9033" y="52.9033" width="555.568" height="389.078" filterUnits="userSpaceOnUse" color-interpolation-filters="sRGB">
<feFlood flood-opacity="0" result="BackgroundImageFix"/>
<feGaussianBlur in="BackgroundImageFix" stdDeviation="9.04833"/>
<feComposite in2="SourceAlpha" operator="in" result="effect1_backgroundBlur_1320_15629"/>
<feBlend mode="normal" in="SourceGraphic" in2="effect1_backgroundBlur_1320_15629" result="shape"/>
</filter>
<filter id="filter1_d_1320_15629" x="120.69" y="162.857" width="199.225" height="30.7489" filterUnits="userSpaceOnUse" color-interpolation-filters="sRGB">
<feFlood flood-opacity="0" result="BackgroundImageFix"/>
<feColorMatrix in="SourceAlpha" type="matrix" values="0 0 0 0 0 0 0 0 0 0 0 0 0 0 0 0 0 0 127 0" result="hardAlpha"/>
<feOffset/>
<feGaussianBlur stdDeviation="3.61933"/>
<feComposite in2="hardAlpha" operator="out"/>
<feColorMatrix type="matrix" values="0 0 0 0 0 0 0 0 0 0 0 0 0 0 0 0 0 0 0.16 0"/>
<feBlend mode="normal" in2="BackgroundImageFix" result="effect1_dropShadow_1320_15629"/>
<feBlend mode="normal" in="SourceGraphic" in2="effect1_dropShadow_1320_15629" result="shape"/>
</filter>
<filter id="filter2_d_1320_15629" x="120.453" y="265.218" width="386.039" height="34.7513" filterUnits="userSpaceOnUse" color-interpolation-filters="sRGB">
<feFlood flood-opacity="0" result="BackgroundImageFix"/>
<feColorMatrix in="SourceAlpha" type="matrix" values="0 0 0 0 0 0 0 0 0 0 0 0 0 0 0 0 0 0 127 0" result="hardAlpha"/>
<feOffset/>
<feGaussianBlur stdDeviation="3.61933"/>
<feComposite in2="hardAlpha" operator="out"/>
<feColorMatrix type="matrix" values="0 0 0 0 0 0 0 0 0 0 0 0 0 0 0 0 0 0 0.16 0"/>
<feBlend mode="normal" in2="BackgroundImageFix" result="effect1_dropShadow_1320_15629"/>
<feBlend mode="normal" in="SourceGraphic" in2="effect1_dropShadow_1320_15629" result="shape"/>
</filter>
<filter id="filter3_d_1320_15629" x="119.938" y="370.197" width="62.8245" height="30.2349" filterUnits="userSpaceOnUse" color-interpolation-filters="sRGB">
<feFlood flood-opacity="0" result="BackgroundImageFix"/>
<feColorMatrix in="SourceAlpha" type="matrix" values="0 0 0 0 0 0 0 0 0 0 0 0 0 0 0 0 0 0 127 0" result="hardAlpha"/>
<feOffset/>
<feGaussianBlur stdDeviation="3.61933"/>
<feComposite in2="hardAlpha" operator="out"/>
<feColorMatrix type="matrix" values="0 0 0 0 0 0 0 0 0 0 0 0 0 0 0 0 0 0 0.16 0"/>
<feBlend mode="normal" in2="BackgroundImageFix" result="effect1_dropShadow_1320_15629"/>
<feBlend mode="normal" in="SourceGraphic" in2="effect1_dropShadow_1320_15629" result="shape"/>
</filter>
<linearGradient id="paint0_linear_1320_15629" x1="573.035" y1="9.09412" x2="573.035" y2="338.828" gradientUnits="userSpaceOnUse">
<stop/>
<stop offset="1" stop-opacity="0"/>
</linearGradient>
<linearGradient id="paint1_linear_1320_15629" x1="466.598" y1="-134.396" x2="466.598" y2="195.339" gradientUnits="userSpaceOnUse">
<stop/>
<stop offset="1" stop-opacity="0"/>
</linearGradient>
<clipPath id="clip0_1320_15629">
<rect x="90" y="71" width="519.374" height="352.885" rx="28.9547" fill="white"/>
</clipPath>
<clipPath id="clip1_1320_15629">
<rect x="514.366" y="174.151" width="58.8142" height="45.2417" rx="7.23867" fill="white"/>
</clipPath>
<clipPath id="clip2_1320_15629">
<rect width="73.7129" height="27.145" fill="white" transform="translate(126.193 105.384)"/>
</clipPath>
</defs>
</svg>
