<?xml version="1.0" encoding="utf-8"?>
<svg viewBox="0 0 58.08687 40.17142" xmlns="http://www.w3.org/2000/svg">
  <defs>
    <style>.a{fill:#959696;}.b{fill:#0059d6;}</style>
  </defs>
  <title>Asset 4</title>
  <path class="a" d="M 26.261 32.417 C 25.81 32.429 25.529 31.955 25.754 31.562 C 25.844 31.408 25.998 31.3 26.173 31.268 L 39.946 28.725 C 40.392 28.64 40.748 29.06 40.59 29.483 C 40.514 29.683 40.336 29.829 40.125 29.867 L 26.351 32.407 C 26.321 32.412 26.291 32.416 26.261 32.417 Z" style="transform-box: fill-box; transform-origin: 50% 50%;" transform="matrix(0.872631, -0.48838, 0.48838, 0.872631, -0.000001, -0.000001)"/>
  <path class="a" d="M 40.451 21.914 C 40 21.927 39.719 21.452 39.945 21.059 C 40.034 20.904 40.188 20.797 40.362 20.763 L 50.211 18.947 C 50.657 18.868 51.006 19.297 50.838 19.715 C 50.762 19.907 50.591 20.046 50.39 20.086 L 40.541 21.903 C 40.511 21.909 40.481 21.913 40.451 21.914 Z" style="transform-box: fill-box; transform-origin: 50% 50%;" transform="matrix(0.872631, -0.48838, 0.48838, 0.872631, 0, 0)"/>
  <path class="a" d="M 27.889 13.629 L 27.826 12.962 C 27.556 10.954 28.786 8.998 30.745 8.322 L 31.356 8.142 L 31.484 8.749 C 32.268 12.439 28.591 13.451 28.554 13.46 L 27.889 13.629 Z M 30.398 9.769 C 29.601 10.259 29.084 11.095 29.014 12.011 C 29.869 11.582 30.411 10.706 30.398 9.769 Z" style="transform-box: fill-box; transform-origin: 50% 50%;" transform="matrix(0.872631, -0.48838, 0.48838, 0.872631, 0, 0)"/>
  <path class="a" d="M 23.919 11.633 L 24.599 11.615 C 26.651 11.479 28.461 12.819 28.888 14.794 L 28.99 15.409 L 28.363 15.495 C 24.55 16.029 24.008 12.336 24.003 12.3 L 23.919 11.633 Z M 27.477 14.36 C 27.087 13.541 26.312 12.976 25.4 12.847 C 25.722 13.719 26.532 14.31 27.477 14.36 Z" style="transform-box: fill-box; transform-origin: 50% 50%;" transform="matrix(0.872631, -0.48838, 0.48838, 0.872631, 0.000001, 0.000001)"/>
  <path class="b" d="M 27.337 21.99 L 27.37 22.046 C 28.097 23.293 29.116 24.344 30.342 25.114 C 30.693 25.371 31.14 25.467 31.576 25.379 C 32.04 25.282 32.469 25.058 32.814 24.732 C 33.5 24.052 34.782 24.286 34.975 24.328 C 35.744 24.736 36.714 24.532 37.284 23.845 C 38.458 22.634 39.173 19.842 39.203 19.723 C 40.04 14.513 36.667 13.262 36.351 13.158 C 34.71 12.46 32.992 13.774 32.482 14.214 C 31.301 13.705 29.947 13.687 28.721 14.165 C 27.887 14.548 27.223 15.227 26.861 16.063 L 26.742 16.369 L 27.055 16.453 C 29.128 17 29.753 19.581 28.182 21.101 C 27.979 21.297 27.748 21.463 27.495 21.595 L 27.314 21.69 L 27.337 21.99 Z M 28.036 21.967 C 30.278 20.538 30.194 17.292 27.885 16.123 C 27.782 16.071 27.676 16.024 27.568 15.982 C 27.887 15.426 28.375 14.979 28.96 14.708 C 30.101 14.287 31.352 14.334 32.428 14.841 L 32.608 14.909 L 32.752 14.771 C 32.769 14.755 34.566 13.049 36.106 13.714 L 36.141 13.727 C 36.274 13.767 39.391 14.74 38.609 19.621 C 38.608 19.622 37.904 22.366 36.839 23.448 L 36.809 23.485 C 36.412 23.962 35.728 24.081 35.214 23.766 L 35.161 23.748 C 34.655 23.637 34.129 23.625 33.613 23.71 C 33.157 23.781 32.732 23.991 32.395 24.31 C 32.362 24.341 31.467 25.176 30.701 24.617 L 30.674 24.6 C 29.609 23.924 28.711 23.027 28.036 21.967 Z" style="transform-box: fill-box; transform-origin: 50% 50%;" transform="matrix(0.872631, -0.48838, 0.48838, 0.872631, 0.000001, 0)"/>
  <path class="a" d="M 31.314 25.723 C 30.9 25.737 30.498 25.614 30.17 25.375 C 28.911 24.582 27.865 23.5 27.118 22.218 L 27.051 22.046 L 27.011 21.553 L 27.37 21.363 C 29.107 20.462 29.266 18.068 27.657 17.053 C 27.447 16.921 27.217 16.82 26.975 16.757 L 26.359 16.591 L 26.594 15.99 C 26.985 15.081 27.705 14.343 28.61 13.924 C 29.85 13.43 31.22 13.424 32.433 13.91 C 33.093 13.375 34.809 12.204 36.478 12.914 C 36.86 13.04 40.367 14.366 39.496 19.783 C 39.461 19.929 38.735 22.788 37.497 24.066 C 36.839 24.842 35.736 25.072 34.855 24.618 C 34.779 24.609 33.603 24.383 33.024 24.957 C 32.634 25.326 32.148 25.579 31.626 25.69 C 31.523 25.708 31.417 25.72 31.314 25.723 Z M 28.44 22.062 C 29.074 22.982 29.887 23.768 30.832 24.372 C 31.438 24.811 32.127 24.198 32.204 24.125 C 32.582 23.765 33.062 23.528 33.573 23.449 C 34.13 23.356 34.697 23.37 35.242 23.49 L 35.322 23.516 C 36.12 23.877 36.511 23.433 36.582 23.34 L 36.638 23.274 C 37.577 22.32 38.25 19.882 38.326 19.593 C 39.061 14.971 36.178 14.066 36.056 14.029 L 35.987 14.004 C 34.634 13.422 32.974 14.985 32.957 15 L 32.677 15.27 L 32.321 15.138 C 31.318 14.659 30.149 14.609 29.078 14.995 C 28.652 15.193 28.281 15.496 28.004 15.874 C 30.418 17.072 30.652 20.398 28.44 22.062 Z" style="transform-box: fill-box; transform-origin: 50% 50%;" transform="matrix(0.872631, -0.48838, 0.48838, 0.872631, 0, 0.000001)"/>
  <path id="Base_1_" fill="#FFFFFF" d="M 41.079 8.749 L 20.134 9.413 C 13.588 9.62 8.234 14.92 8.234 21.192 C 8.234 27.464 13.588 32.424 20.134 32.217 L 41.079 31.553 C 47.624 31.346 52.979 26.046 52.979 19.774 C 52.979 13.502 47.624 8.542 41.079 8.749 Z" style="transform-box: fill-box; transform-origin: 50% 50%;" transform="matrix(0.872631, -0.48838, 0.48838, 0.872631, -0.000001, 0.000001)"/>
  <path id="Outline" fill="#3C4043" d="M 41.079 9.672 C 42.548 9.625 43.977 9.859 45.321 10.364 C 46.624 10.852 47.791 11.575 48.802 12.507 C 49.807 13.437 50.599 14.535 51.152 15.768 C 51.724 17.038 52.016 18.395 52.016 19.804 C 52.016 21.212 51.724 22.59 51.152 23.897 C 50.599 25.162 49.807 26.306 48.802 27.307 C 47.796 28.301 46.624 29.096 45.321 29.67 C 43.977 30.258 42.548 30.583 41.079 30.63 L 20.134 31.294 C 18.665 31.341 17.237 31.106 15.892 30.602 C 14.589 30.112 13.422 29.391 12.412 28.461 C 11.406 27.529 10.613 26.43 10.061 25.199 C 9.489 23.928 9.198 22.57 9.198 21.162 C 9.198 19.753 9.489 18.376 10.061 17.07 C 10.613 15.803 11.406 14.661 12.412 13.661 C 13.416 12.665 14.589 11.868 15.892 11.296 C 17.237 10.707 18.665 10.383 20.134 10.336 L 41.079 9.672 M 41.079 8.749 L 20.134 9.413 C 13.588 9.62 8.234 14.92 8.234 21.192 C 8.234 27.464 13.588 32.424 20.134 32.217 L 41.079 31.553 C 47.624 31.346 52.979 26.046 52.979 19.774 C 52.979 13.502 47.624 8.542 41.079 8.749 Z" style="transform-box: fill-box; transform-origin: 50% 50%;" transform="matrix(0.872631, -0.48838, 0.48838, 0.872631, -0.000001, 0.000001)"/>
  <g id="Google_Pay_Lockup_1_" transform="matrix(0.051002, -0.030705, 0.027843, 0.04975, -7.578994, 18.860674)" style="">
    <g id="Pay_Typeface_3_">
      <path id="Letter_p_3_" fill="#3C4043" d="M529.3,384.2v60.5h-19.2V295.3H561c12.9,0,23.9,4.3,32.9,12.9    c9.2,8.6,13.8,19.1,13.8,31.5c0,12.7-4.6,23.2-13.8,31.7c-8.9,8.5-19.9,12.7-32.9,12.7h-31.7V384.2z M529.3,313.7v52.1h32.1    c7.6,0,14-2.6,19-7.7c5.1-5.1,7.7-11.3,7.7-18.3c0-6.9-2.6-13-7.7-18.1c-5-5.3-11.3-7.9-19-7.9h-32.1V313.7z"/>
      <path id="Letter_a_3_" fill="#3C4043" d="M657.9,339.1c14.2,0,25.4,3.8,33.6,11.4c8.2,7.6,12.3,18,12.3,31.2v63h-18.3v-14.2h-0.8    c-7.9,11.7-18.5,17.5-31.7,17.5c-11.3,0-20.7-3.3-28.3-10s-11.4-15-11.4-25c0-10.6,4-19,12-25.2c8-6.3,18.7-9.4,32-9.4    c11.4,0,20.8,2.1,28.1,6.3v-4.4c0-6.7-2.6-12.3-7.9-17c-5.3-4.7-11.5-7-18.6-7c-10.7,0-19.2,4.5-25.4,13.6l-16.9-10.6    C625.9,345.8,639.7,339.1,657.9,339.1z M633.1,413.3c0,5,2.1,9.2,6.4,12.5c4.2,3.3,9.2,5,14.9,5c8.1,0,15.3-3,21.6-9    s9.5-13,9.5-21.1c-6-4.7-14.3-7.1-25-7.1c-7.8,0-14.3,1.9-19.5,5.6C635.7,403.1,633.1,407.8,633.1,413.3z"/>
      <path id="Letter_y_3_" fill="#3C4043" d="M808.2,342.4l-64,147.2h-19.8l23.8-51.5L706,342.4h20.9l30.4,73.4h0.4l29.6-73.4H808.2z"/>
    </g>
    <g id="Google_Mark_1_">
      <path id="Blue_500" fill="#4285F4" d="M452.93,372c0-6.26-0.56-12.25-1.6-18.01h-80.48v33L417.2,387    c-1.88,10.98-7.93,20.34-17.2,26.58v21.41h27.59C443.7,420.08,452.93,398.04,452.93,372z"/>
      <path id="Green_500_1_" fill="#34A853" d="M400.01,413.58c-7.68,5.18-17.57,8.21-29.14,8.21c-22.35,0-41.31-15.06-48.1-35.36    h-28.46v22.08c14.1,27.98,43.08,47.18,76.56,47.18c23.14,0,42.58-7.61,56.73-20.71L400.01,413.58z"/>
      <path id="Yellow_500_1_" fill="#FABB05" d="M320.09,370.05c0-5.7,0.95-11.21,2.68-16.39v-22.08h-28.46    c-5.83,11.57-9.11,24.63-9.11,38.47s3.29,26.9,9.11,38.47l28.46-22.08C321.04,381.26,320.09,375.75,320.09,370.05z"/>
      <path id="Red_500" fill="#E94235" d="M370.87,318.3c12.63,0,23.94,4.35,32.87,12.85l24.45-24.43    c-14.85-13.83-34.21-22.32-57.32-22.32c-33.47,0-62.46,19.2-76.56,47.18l28.46,22.08C329.56,333.36,348.52,318.3,370.87,318.3z"/>
    </g>
  </g>
</svg>