<svg width="361" height="246" viewBox="0 0 361 246" fill="none" xmlns="http://www.w3.org/2000/svg">
<g filter="url(#filter0_b_1320_15589)">
<g clip-path="url(#clip0_1320_15589)">
<rect width="360.759" height="245.115" rx="20.112" fill="#CF9F39"/>
<path d="M317.31 -24.7924C327.365 -34.8482 343.669 -34.8482 353.725 -24.7924L431.827 53.3096C441.883 63.3653 441.883 79.669 431.827 89.7248L353.725 167.827C343.669 177.883 327.365 177.883 317.31 167.827L239.208 89.7248C229.152 79.669 229.152 63.3654 239.208 53.3096L317.31 -24.7924Z" fill="url(#paint0_linear_1320_15589)" fill-opacity="0.8"/>
<path d="M243.378 -124.461C253.434 -134.517 269.738 -134.517 279.794 -124.461L357.896 -46.3588C367.951 -36.303 367.951 -19.9994 357.896 -9.94358L279.794 68.1584C269.738 78.2142 253.434 78.2142 243.378 68.1584L165.276 -9.94357C155.221 -19.9993 155.221 -36.303 165.276 -46.3588L243.378 -124.461Z" fill="url(#paint1_linear_1320_15589)" fill-opacity="0.8"/>
<g filter="url(#filter1_d_1320_15589)">
<path d="M26.3454 79.3653V68.3951H33.2231V69.82H28.0005V73.1624H32.8643V74.5819H28.0005V77.9405H33.2874V79.3653H26.3454ZM35.4341 79.3653V68.3951H39.3443C40.1942 68.3951 40.8995 68.5415 41.4602 68.8343C42.0244 69.1272 42.4458 69.5325 42.7243 70.0503C43.0028 70.5645 43.1421 71.1591 43.1421 71.834C43.1421 72.5054 43.0011 73.0964 42.7189 73.607C42.4404 74.1141 42.019 74.5087 41.4548 74.7908C40.8941 75.0729 40.1889 75.214 39.339 75.214H36.3768V73.7891H39.189C39.7246 73.7891 40.1603 73.7124 40.496 73.5588C40.8352 73.4053 41.0834 73.1821 41.2405 72.8892C41.3977 72.5964 41.4762 72.2447 41.4762 71.834C41.4762 71.4198 41.3959 71.0609 41.2352 70.7573C41.0781 70.4538 40.8299 70.2217 40.4906 70.061C40.1549 69.8967 39.7139 69.8146 39.1676 69.8146H37.0892V79.3653H35.4341ZM40.8495 74.4159L43.5599 79.3653H41.6744L39.0176 74.4159H40.8495ZM46.8113 68.3951V79.3653H45.1562V68.3951H46.8113ZM58.3332 71.9626H56.662C56.5977 71.6055 56.4781 71.2912 56.3031 71.0198C56.1281 70.7484 55.9139 70.5181 55.6603 70.3288C55.4068 70.1396 55.1229 69.9967 54.8086 69.9003C54.498 69.8039 54.1676 69.7557 53.8177 69.7557C53.1856 69.7557 52.6196 69.9146 52.1197 70.2324C51.6233 70.5502 51.2305 71.0162 50.9412 71.6305C50.6555 72.2447 50.5127 72.9946 50.5127 73.8802C50.5127 74.773 50.6555 75.5264 50.9412 76.1407C51.2305 76.7549 51.6251 77.2191 52.125 77.5334C52.625 77.8476 53.1874 78.0047 53.8123 78.0047C54.1587 78.0047 54.4872 77.9583 54.7979 77.8655C55.1122 77.769 55.3961 77.628 55.6496 77.4423C55.9032 77.2566 56.1174 77.0298 56.2924 76.762C56.4709 76.4906 56.5941 76.1799 56.662 75.83L58.3332 75.8353C58.244 76.3746 58.0708 76.8709 57.8137 77.3245C57.5601 77.7744 57.2334 78.1636 56.8334 78.4922C56.437 78.8171 55.9835 79.0689 55.4728 79.2475C54.9622 79.426 54.4051 79.5153 53.8016 79.5153C52.8517 79.5153 52.0054 79.2903 51.2626 78.8404C50.5198 78.3868 49.9342 77.7387 49.5057 76.8959C49.0807 76.0532 48.8682 75.0479 48.8682 73.8802C48.8682 72.7089 49.0825 71.7037 49.511 70.8645C49.9395 70.0217 50.5252 69.3754 51.268 68.9254C52.0107 68.4719 52.8553 68.2451 53.8016 68.2451C54.3837 68.2451 54.9265 68.3291 55.43 68.4969C55.9371 68.6612 56.3924 68.904 56.7959 69.2254C57.1994 69.5432 57.5333 69.9324 57.7976 70.3931C58.0618 70.8502 58.2404 71.3733 58.3332 71.9626ZM60.3138 79.3653V68.3951H61.969V73.6338H62.1029L66.7042 68.3951H68.7879L64.3634 73.3338L68.8039 79.3653H66.8113L63.2653 74.4641L61.969 75.9532V79.3653H60.3138ZM74.3225 79.3653V68.3951H75.9777V73.1624H81.4467V68.3951H83.1072V79.3653H81.4467V74.5819H75.9777V79.3653H74.3225ZM92.5722 68.3951H94.2327V75.6104C94.2327 76.3781 94.0524 77.0584 93.6917 77.6512C93.331 78.2404 92.824 78.7047 92.1705 79.0439C91.517 79.3796 90.751 79.5474 89.8725 79.5474C88.9976 79.5474 88.2334 79.3796 87.5799 79.0439C86.9264 78.7047 86.4193 78.2404 86.0587 77.6512C85.698 77.0584 85.5176 76.3781 85.5176 75.6104V68.3951H87.1728V75.4765C87.1728 75.9728 87.2817 76.4138 87.4996 76.7995C87.721 77.1852 88.0334 77.4887 88.437 77.7101C88.8405 77.928 89.319 78.0369 89.8725 78.0369C90.4296 78.0369 90.9099 77.928 91.3134 77.7101C91.7205 77.4887 92.0312 77.1852 92.2455 76.7995C92.4633 76.4138 92.5722 75.9728 92.5722 75.4765V68.3951ZM96.6391 79.3653V68.3951H100.657C101.435 68.3951 102.08 68.5237 102.59 68.7808C103.101 69.0343 103.483 69.3789 103.737 69.8146C103.99 70.2467 104.117 70.7341 104.117 71.2769C104.117 71.734 104.033 72.1197 103.865 72.4339C103.697 72.7446 103.472 72.9946 103.19 73.1839C102.912 73.3695 102.605 73.5052 102.269 73.591V73.6981C102.633 73.7159 102.988 73.8338 103.335 74.0516C103.685 74.2659 103.974 74.5712 104.203 74.9676C104.431 75.364 104.545 75.8461 104.545 76.4138C104.545 76.9745 104.413 77.478 104.149 77.9244C103.888 78.3672 103.485 78.7189 102.938 78.9796C102.392 79.2367 101.694 79.3653 100.844 79.3653H96.6391ZM98.2943 77.9458H100.683C101.476 77.9458 102.044 77.7923 102.387 77.4852C102.73 77.178 102.901 76.7942 102.901 76.3335C102.901 75.9871 102.813 75.6693 102.638 75.38C102.463 75.0908 102.214 74.8605 101.889 74.689C101.567 74.5176 101.185 74.4319 100.742 74.4319H98.2943V77.9458ZM98.2943 73.141H100.512C100.883 73.141 101.217 73.0696 101.514 72.9267C101.814 72.7839 102.051 72.5839 102.226 72.3268C102.405 72.0661 102.494 71.759 102.494 71.4055C102.494 70.952 102.335 70.5717 102.017 70.2645C101.699 69.9574 101.212 69.8039 100.555 69.8039H98.2943V73.141ZM106.509 79.3653V68.3951H113.386V69.82H108.164V73.1624H113.027V74.5819H108.164V77.9405H113.451V79.3653H106.509ZM115.597 79.3653V68.3951H119.508C120.357 68.3951 121.063 68.5415 121.623 68.8343C122.188 69.1272 122.609 69.5325 122.887 70.0503C123.166 70.5645 123.305 71.1591 123.305 71.834C123.305 72.5054 123.164 73.0964 122.882 73.607C122.604 74.1141 122.182 74.5087 121.618 74.7908C121.057 75.0729 120.352 75.214 119.502 75.214H116.54V73.7891H119.352C119.888 73.7891 120.324 73.7124 120.659 73.5588C120.998 73.4053 121.247 73.1821 121.404 72.8892C121.561 72.5964 121.639 72.2447 121.639 71.834C121.639 71.4198 121.559 71.0609 121.398 70.7573C121.241 70.4538 120.993 70.2217 120.654 70.061C120.318 69.8967 119.877 69.8146 119.331 69.8146H117.252V79.3653H115.597ZM121.013 74.4159L123.723 79.3653H121.838L119.181 74.4159H121.013ZM124.778 69.82V68.3951H133.268V69.82H129.846V79.3653H128.196V69.82H124.778ZM139.137 68.3951H141.145L144.638 76.9227H144.766L148.259 68.3951H150.267V79.3653H148.693V71.4269H148.591L145.355 79.3492H144.048L140.813 71.4216H140.711V79.3653H139.137V68.3951ZM153.601 79.4671C153.308 79.4671 153.056 79.3635 152.845 79.1564C152.635 78.9457 152.529 78.6922 152.529 78.3958C152.529 78.1029 152.635 77.853 152.845 77.6458C153.056 77.4352 153.308 77.3298 153.601 77.3298C153.893 77.3298 154.145 77.4352 154.356 77.6458C154.566 77.853 154.672 78.1029 154.672 78.3958C154.672 78.5922 154.622 78.7725 154.522 78.9368C154.425 79.0975 154.297 79.226 154.136 79.3224C153.975 79.4189 153.797 79.4671 153.601 79.4671Z" fill="#0D0D0D"/>
</g>
<path d="M33.7374 117.075H32.3447C32.2911 116.778 32.1914 116.516 32.0456 116.29C31.8998 116.064 31.7212 115.872 31.5099 115.714C31.2987 115.556 31.0621 115.437 30.8002 115.357C30.5413 115.276 30.266 115.236 29.9744 115.236C29.4477 115.236 28.976 115.369 28.5594 115.634C28.1457 115.898 27.8184 116.287 27.5774 116.799C27.3393 117.31 27.2203 117.935 27.2203 118.673C27.2203 119.417 27.3393 120.045 27.5774 120.557C27.8184 121.069 28.1472 121.456 28.5639 121.718C28.9805 121.98 29.4492 122.11 29.9699 122.11C30.2586 122.11 30.5324 122.072 30.7913 121.994C31.0532 121.914 31.2897 121.797 31.501 121.642C31.7123 121.487 31.8909 121.298 32.0367 121.075C32.1855 120.849 32.2881 120.59 32.3447 120.298L33.7374 120.303C33.663 120.752 33.5186 121.166 33.3044 121.544C33.0931 121.919 32.8208 122.243 32.4875 122.517C32.1572 122.787 31.7793 122.997 31.3537 123.146C30.9282 123.295 30.4639 123.369 29.961 123.369C29.1694 123.369 28.4642 123.182 27.8452 122.807C27.2262 122.429 26.7382 121.889 26.3811 121.186C26.0269 120.484 25.8499 119.646 25.8499 118.673C25.8499 117.697 26.0284 116.86 26.3855 116.16C26.7426 115.458 27.2307 114.919 27.8497 114.544C28.4686 114.166 29.1724 113.977 29.961 113.977C30.4461 113.977 30.8984 114.047 31.318 114.187C31.7406 114.324 32.12 114.527 32.4563 114.794C32.7925 115.059 33.0708 115.384 33.291 115.767C33.5112 116.148 33.66 116.584 33.7374 117.075ZM37.276 123.396C36.8416 123.396 36.4487 123.316 36.0976 123.155C35.7464 122.991 35.4682 122.755 35.2629 122.445C35.0605 122.136 34.9593 121.756 34.9593 121.307C34.9593 120.92 35.0337 120.602 35.1825 120.352C35.3313 120.102 35.5322 119.904 35.7851 119.758C36.0381 119.612 36.3208 119.502 36.6332 119.428C36.9457 119.353 37.2641 119.297 37.5885 119.258C37.9992 119.21 38.3325 119.172 38.5884 119.142C38.8443 119.109 39.0303 119.057 39.1464 118.986C39.2624 118.914 39.3204 118.798 39.3204 118.638V118.606C39.3204 118.217 39.2103 117.915 38.9901 117.7C38.7729 117.486 38.4485 117.379 38.017 117.379C37.5677 117.379 37.2135 117.479 36.9546 117.678C36.6987 117.874 36.5217 118.093 36.4235 118.334L35.1691 118.048C35.3179 117.632 35.5352 117.296 35.8208 117.04C36.1095 116.781 36.4413 116.593 36.8163 116.477C37.1912 116.358 37.5855 116.299 37.9992 116.299C38.2729 116.299 38.5631 116.331 38.8696 116.397C39.1791 116.459 39.4677 116.575 39.7356 116.745C40.0064 116.915 40.2281 117.157 40.4007 117.473C40.5733 117.785 40.6596 118.191 40.6596 118.691V123.244H39.3562V122.307H39.3026C39.2163 122.479 39.0868 122.649 38.9142 122.816C38.7416 122.982 38.5199 123.121 38.2491 123.231C37.9783 123.341 37.654 123.396 37.276 123.396ZM37.5662 122.325C37.9352 122.325 38.2506 122.252 38.5125 122.106C38.7774 121.96 38.9782 121.77 39.1151 121.535C39.255 121.297 39.3249 121.042 39.3249 120.771V119.888C39.2773 119.935 39.185 119.98 39.0482 120.021C38.9142 120.06 38.761 120.094 38.5884 120.124C38.4158 120.151 38.2476 120.176 38.084 120.2C37.9203 120.221 37.7834 120.239 37.6733 120.254C37.4144 120.286 37.1778 120.341 36.9636 120.419C36.7523 120.496 36.5827 120.608 36.4547 120.753C36.3297 120.896 36.2672 121.087 36.2672 121.325C36.2672 121.655 36.3892 121.905 36.6332 122.075C36.8773 122.241 37.1882 122.325 37.5662 122.325ZM42.4373 123.244V116.388H43.7273V117.477H43.7987C43.9237 117.108 44.1439 116.818 44.4594 116.607C44.7778 116.392 45.1379 116.285 45.5396 116.285C45.6229 116.285 45.7211 116.288 45.8342 116.294C45.9503 116.3 46.041 116.308 46.1065 116.316V117.593C46.0529 117.578 45.9577 117.562 45.8208 117.544C45.6839 117.523 45.547 117.513 45.4102 117.513C45.0947 117.513 44.8135 117.58 44.5665 117.714C44.3225 117.845 44.129 118.028 43.9862 118.263C43.8434 118.495 43.7719 118.76 43.7719 119.057V123.244H42.4373ZM49.5827 123.378C49.0292 123.378 48.5352 123.237 48.1007 122.954C47.6692 122.668 47.3299 122.262 47.083 121.736C46.8389 121.206 46.7169 120.57 46.7169 119.829C46.7169 119.088 46.8404 118.455 47.0874 117.928C47.3374 117.401 47.6796 116.998 48.1141 116.718C48.5486 116.438 49.0411 116.299 49.5916 116.299C50.0171 116.299 50.3594 116.37 50.6183 116.513C50.8801 116.653 51.0825 116.816 51.2253 117.004C51.3712 117.191 51.4842 117.357 51.5646 117.499H51.6449V114.102H52.9796V123.244H51.6762V122.177H51.5646C51.4842 122.323 51.3682 122.49 51.2164 122.677C51.0676 122.865 50.8623 123.029 50.6004 123.168C50.3385 123.308 49.9993 123.378 49.5827 123.378ZM49.8773 122.24C50.2612 122.24 50.5855 122.139 50.8504 121.936C51.1182 121.731 51.3206 121.447 51.4575 121.084C51.5973 120.721 51.6673 120.298 51.6673 119.816C51.6673 119.34 51.5988 118.923 51.4619 118.566C51.325 118.209 51.1242 117.931 50.8593 117.731C50.5945 117.532 50.2671 117.432 49.8773 117.432C49.4755 117.432 49.1408 117.537 48.8729 117.745C48.6051 117.953 48.4027 118.237 48.2659 118.597C48.1319 118.958 48.065 119.364 48.065 119.816C48.065 120.274 48.1334 120.687 48.2703 121.053C48.4072 121.419 48.6096 121.709 48.8774 121.923C49.1482 122.134 49.4815 122.24 49.8773 122.24ZM65.6969 114.102V123.244H64.4292L59.7824 116.54H59.6976V123.244H58.3183V114.102H59.5949L64.2462 120.816H64.331V114.102H65.6969ZM71.9451 120.401V116.388H73.2842V123.244H71.9719V122.057H71.9004C71.7427 122.423 71.4898 122.728 71.1416 122.972C70.7964 123.213 70.3664 123.334 69.8516 123.334C69.4111 123.334 69.0213 123.237 68.6821 123.043C68.3458 122.847 68.0809 122.557 67.8875 122.173C67.6971 121.789 67.6018 121.314 67.6018 120.749V116.388H68.9365V120.588C68.9365 121.056 69.0659 121.428 69.3248 121.704C69.5837 121.981 69.92 122.119 70.3337 122.119C70.5836 122.119 70.8321 122.057 71.0791 121.932C71.3291 121.807 71.5359 121.618 71.6996 121.365C71.8662 121.112 71.9481 120.791 71.9451 120.401ZM75.0775 123.244V116.388H76.3586V117.504H76.4435C76.5863 117.126 76.8199 116.831 77.1443 116.62C77.4686 116.406 77.857 116.299 78.3093 116.299C78.7676 116.299 79.1515 116.406 79.461 116.62C79.7734 116.834 80.0041 117.129 80.1529 117.504H80.2243C80.3879 117.138 80.6483 116.846 81.0054 116.629C81.3625 116.409 81.7881 116.299 82.2821 116.299C82.904 116.299 83.4114 116.494 83.8042 116.883C84.2 117.273 84.3979 117.861 84.3979 118.647V123.244H83.0632V118.772C83.0632 118.307 82.9368 117.971 82.6838 117.763C82.4309 117.554 82.1288 117.45 81.7777 117.45C81.3432 117.45 81.0054 117.584 80.7644 117.852C80.5233 118.117 80.4028 118.458 80.4028 118.874V123.244H79.0726V118.687C79.0726 118.315 78.9566 118.016 78.7244 117.79C78.4923 117.563 78.1903 117.45 77.8183 117.45C77.5653 117.45 77.3317 117.517 77.1175 117.651C76.9062 117.782 76.7351 117.965 76.6041 118.2C76.4762 118.435 76.4122 118.708 76.4122 119.017V123.244H75.0775ZM86.2939 123.244V114.102H87.6286V117.499H87.7089C87.7863 117.357 87.8979 117.191 88.0437 117.004C88.1895 116.816 88.3919 116.653 88.6508 116.513C88.9097 116.37 89.2519 116.299 89.6774 116.299C90.2309 116.299 90.7249 116.438 91.1594 116.718C91.5939 116.998 91.9346 117.401 92.1816 117.928C92.4316 118.455 92.5566 119.088 92.5566 119.829C92.5566 120.57 92.4331 121.206 92.1861 121.736C91.9391 122.262 91.5998 122.668 91.1683 122.954C90.7368 123.237 90.2443 123.378 89.6908 123.378C89.2742 123.378 88.9335 123.308 88.6686 123.168C88.4067 123.029 88.2014 122.865 88.0526 122.677C87.9038 122.49 87.7893 122.323 87.7089 122.177H87.5973V123.244H86.2939ZM87.6018 119.816C87.6018 120.298 87.6717 120.721 87.8116 121.084C87.9514 121.447 88.1538 121.731 88.4187 121.936C88.6835 122.139 89.0079 122.24 89.3918 122.24C89.7905 122.24 90.1238 122.134 90.3916 121.923C90.6595 121.709 90.8618 121.419 90.9987 121.053C91.1386 120.687 91.2085 120.274 91.2085 119.816C91.2085 119.364 91.1401 118.958 91.0032 118.597C90.8693 118.237 90.6669 117.953 90.3961 117.745C90.1283 117.537 89.7935 117.432 89.3918 117.432C89.0049 117.432 88.6776 117.532 88.4097 117.731C88.1449 117.931 87.944 118.209 87.8071 118.566C87.6702 118.923 87.6018 119.34 87.6018 119.816ZM97.0103 123.383C96.3348 123.383 95.753 123.238 95.265 122.95C94.7799 122.658 94.4049 122.249 94.1401 121.722C93.8782 121.192 93.7473 120.572 93.7473 119.861C93.7473 119.158 93.8782 118.539 94.1401 118.004C94.4049 117.468 94.774 117.05 95.2471 116.749C95.7233 116.449 96.2797 116.299 96.9166 116.299C97.3034 116.299 97.6784 116.363 98.0414 116.491C98.4045 116.619 98.7303 116.819 99.019 117.093C99.3077 117.367 99.5353 117.723 99.702 118.16C99.8686 118.594 99.9519 119.123 99.9519 119.745V120.218H94.5017V119.218H98.644C98.644 118.867 98.5726 118.556 98.4298 118.285C98.2869 118.011 98.0861 117.795 97.8272 117.638C97.5713 117.48 97.2707 117.401 96.9255 117.401C96.5505 117.401 96.2232 117.493 95.9435 117.678C95.6667 117.859 95.4524 118.098 95.3007 118.392C95.1519 118.684 95.0775 119.001 95.0775 119.343V120.124C95.0775 120.582 95.1578 120.972 95.3185 121.294C95.4822 121.615 95.7099 121.86 96.0015 122.03C96.2931 122.197 96.6339 122.28 97.0237 122.28C97.2766 122.28 97.5073 122.244 97.7156 122.173C97.9239 122.099 98.1039 121.988 98.2557 121.843C98.4075 121.697 98.5235 121.517 98.6039 121.303L99.8671 121.53C99.7659 121.902 99.5844 122.228 99.3225 122.508C99.0636 122.784 98.7378 123 98.345 123.155C97.9551 123.307 97.5102 123.383 97.0103 123.383ZM101.433 123.244V116.388H102.723V117.477H102.794C102.919 117.108 103.139 116.818 103.455 116.607C103.773 116.392 104.133 116.285 104.535 116.285C104.618 116.285 104.717 116.288 104.83 116.294C104.946 116.3 105.037 116.308 105.102 116.316V117.593C105.048 117.578 104.953 117.562 104.816 117.544C104.679 117.523 104.543 117.513 104.406 117.513C104.09 117.513 103.809 117.58 103.562 117.714C103.318 117.845 103.125 118.028 102.982 118.263C102.839 118.495 102.767 118.76 102.767 119.057V123.244H101.433Z" fill="black"/>
<g filter="url(#filter2_d_1320_15589)">
<path d="M39.1144 153.871H26.1811V149.148C26.1811 148.905 26.2073 148.65 26.2597 148.382C26.3186 148.107 26.407 147.835 26.5248 147.567C26.6426 147.298 26.7932 147.043 26.9765 146.801C27.1664 146.558 27.3923 146.346 27.6541 146.162C27.9226 145.972 28.2303 145.822 28.5772 145.711C28.9242 145.599 29.317 145.544 29.7557 145.544H35.5104C35.8574 145.544 36.1127 145.458 36.2764 145.288C36.4466 145.111 36.5317 144.856 36.5317 144.522V143.393C36.5317 143.046 36.4466 142.784 36.2764 142.607C36.1062 142.431 35.8574 142.342 35.53 142.342H27.3301V139.789H35.53C35.9621 139.789 36.3517 139.845 36.6986 139.956C37.0456 140.067 37.3501 140.218 37.6119 140.408C37.8804 140.591 38.1095 140.804 38.2994 141.046C38.4892 141.288 38.6431 141.543 38.7609 141.812C38.8853 142.074 38.9737 142.342 39.0261 142.617C39.085 142.886 39.1144 143.138 39.1144 143.373V144.522C39.1144 145.184 38.9933 145.743 38.7511 146.202C38.5154 146.653 38.2175 147.023 37.8574 147.311C37.4974 147.593 37.1078 147.799 36.6888 147.93C36.2764 148.054 35.8901 148.117 35.53 148.117H29.7557C29.5462 148.117 29.3792 148.146 29.2548 148.205C29.1305 148.264 29.0323 148.342 28.9602 148.441C28.8948 148.539 28.8457 148.65 28.8129 148.774C28.7802 148.899 28.754 149.023 28.7344 149.148V151.318H39.1144V153.871ZM54.2574 153.871H41.324V149.148C41.324 148.905 41.3502 148.65 41.4026 148.382C41.4615 148.107 41.5499 147.835 41.6677 147.567C41.7856 147.298 41.9361 147.043 42.1195 146.801C42.3093 146.558 42.5352 146.346 42.7971 146.162C43.0655 145.972 43.3732 145.822 43.7202 145.711C44.0672 145.599 44.46 145.544 44.8986 145.544H50.6533C51.0003 145.544 51.2556 145.458 51.4193 145.288C51.5895 145.111 51.6746 144.856 51.6746 144.522V143.393C51.6746 143.046 51.5895 142.784 51.4193 142.607C51.2491 142.431 51.0003 142.342 50.6729 142.342H42.473V139.789H50.6729C51.105 139.789 51.4946 139.845 51.8416 139.956C52.1886 140.067 52.493 140.218 52.7549 140.408C53.0233 140.591 53.2524 140.804 53.4423 141.046C53.6321 141.288 53.786 141.543 53.9038 141.812C54.0282 142.074 54.1166 142.342 54.169 142.617C54.2279 142.886 54.2574 143.138 54.2574 143.373V144.522C54.2574 145.184 54.1362 145.743 53.894 146.202C53.6583 146.653 53.3604 147.023 53.0004 147.311C52.6403 147.593 52.2507 147.799 51.8317 147.93C51.4193 148.054 51.033 148.117 50.6729 148.117H44.8986C44.6891 148.117 44.5222 148.146 44.3978 148.205C44.2734 148.264 44.1752 148.342 44.1032 148.441C44.0377 148.539 43.9886 148.65 43.9559 148.774C43.9231 148.899 43.8969 149.023 43.8773 149.148V151.318H54.2574V153.871ZM69.4199 153.871H66.847V148.117H57.773C57.5897 148.117 57.4195 148.084 57.2624 148.018C57.1053 147.946 56.9678 147.855 56.8499 147.743C56.7386 147.625 56.6502 147.488 56.5848 147.331C56.5193 147.174 56.4866 147.007 56.4866 146.83V139.789H59.0399V145.544H66.847V139.789H69.4199V153.871ZM84.0718 150.287C84.0718 150.948 83.9507 151.508 83.7085 151.966C83.4728 152.418 83.1749 152.788 82.8148 153.076C82.4613 153.357 82.075 153.56 81.656 153.685C81.237 153.809 80.8475 153.871 80.4874 153.871H72.2973V151.318H80.4874C80.8344 151.318 81.0897 151.23 81.2534 151.053C81.4236 150.876 81.5087 150.621 81.5087 150.287V148.117H72.2973V145.544H81.5087V143.393C81.5087 142.692 81.1683 142.342 80.4874 142.342H72.2973V139.789H80.4874C80.9261 139.789 81.3189 139.845 81.6659 139.956C82.0128 140.067 82.3173 140.218 82.5791 140.408C82.8476 140.591 83.0767 140.804 83.2666 141.046C83.4564 141.288 83.6103 141.543 83.7281 141.812C83.846 142.074 83.9311 142.342 83.9834 142.617C84.0424 142.886 84.0718 143.138 84.0718 143.373V150.287ZM95.7482 145.544H102.544C102.904 145.544 103.29 145.609 103.703 145.74C104.122 145.864 104.511 146.071 104.871 146.359C105.231 146.64 105.529 147.01 105.765 147.468C106.007 147.927 106.128 148.486 106.128 149.148V150.287C106.128 150.529 106.099 150.784 106.04 151.053C105.987 151.321 105.899 151.59 105.775 151.858C105.657 152.12 105.503 152.372 105.313 152.614C105.13 152.856 104.904 153.072 104.636 153.262C104.374 153.446 104.069 153.593 103.722 153.704C103.375 153.816 102.982 153.871 102.544 153.871H97.9185C97.6042 153.871 97.2671 153.835 96.907 153.763C96.5535 153.691 96.2032 153.577 95.8562 153.419C95.5092 153.256 95.1721 153.053 94.8447 152.811C94.5239 152.562 94.2424 152.264 94.0002 151.917C93.7579 151.563 93.5615 151.158 93.411 150.699C93.2669 150.241 93.1949 149.724 93.1949 149.148V144.522C93.1949 143.946 93.2669 143.429 93.411 142.971C93.5615 142.512 93.7579 142.11 94.0002 141.763C94.2424 141.409 94.5239 141.108 94.8447 140.859C95.1721 140.611 95.5092 140.408 95.8562 140.25C96.2032 140.087 96.5535 139.969 96.907 139.897C97.2671 139.825 97.6042 139.789 97.9185 139.789H104.321V142.342H97.9185C97.5911 142.368 97.2932 142.437 97.0248 142.548C96.763 142.66 96.5371 142.807 96.3472 142.99C96.1574 143.174 96.0101 143.396 95.9053 143.658C95.8006 143.913 95.7482 144.201 95.7482 144.522V145.544ZM95.7482 148.117V149.148C95.7482 149.482 95.8038 149.783 95.9151 150.051C96.033 150.313 96.1901 150.539 96.3865 150.729C96.5829 150.919 96.8121 151.066 97.0739 151.171C97.3423 151.269 97.6304 151.318 97.9381 151.318H102.544C102.871 151.318 103.12 151.22 103.29 151.023C103.467 150.827 103.555 150.581 103.555 150.287V149.148C103.555 148.814 103.47 148.558 103.3 148.382C103.13 148.205 102.871 148.117 102.524 148.117H95.7482ZM110.714 145.544H117.51C117.87 145.544 118.256 145.609 118.669 145.74C119.088 145.864 119.477 146.071 119.837 146.359C120.197 146.64 120.495 147.01 120.731 147.468C120.973 147.927 121.094 148.486 121.094 149.148V150.287C121.094 150.529 121.065 150.784 121.006 151.053C120.954 151.321 120.865 151.59 120.741 151.858C120.623 152.12 120.469 152.372 120.279 152.614C120.096 152.856 119.87 153.072 119.602 153.262C119.34 153.446 119.035 153.593 118.688 153.704C118.341 153.816 117.949 153.871 117.51 153.871H112.885C112.57 153.871 112.233 153.835 111.873 153.763C111.52 153.691 111.169 153.577 110.822 153.419C110.475 153.256 110.138 153.053 109.811 152.811C109.49 152.562 109.209 152.264 108.966 151.917C108.724 151.563 108.528 151.158 108.377 150.699C108.233 150.241 108.161 149.724 108.161 149.148V144.522C108.161 143.946 108.233 143.429 108.377 142.971C108.528 142.512 108.724 142.11 108.966 141.763C109.209 141.409 109.49 141.108 109.811 140.859C110.138 140.611 110.475 140.408 110.822 140.25C111.169 140.087 111.52 139.969 111.873 139.897C112.233 139.825 112.57 139.789 112.885 139.789H119.287V142.342H112.885C112.557 142.368 112.259 142.437 111.991 142.548C111.729 142.66 111.503 142.807 111.313 142.99C111.124 143.174 110.976 143.396 110.871 143.658C110.767 143.913 110.714 144.201 110.714 144.522V145.544ZM110.714 148.117V149.148C110.714 149.482 110.77 149.783 110.881 150.051C110.999 150.313 111.156 150.539 111.353 150.729C111.549 150.919 111.778 151.066 112.04 151.171C112.309 151.269 112.597 151.318 112.904 151.318H117.51C117.837 151.318 118.086 151.22 118.256 151.023C118.433 150.827 118.521 150.581 118.521 150.287V149.148C118.521 148.814 118.436 148.558 118.266 148.382C118.096 148.205 117.837 148.117 117.49 148.117H110.714ZM136.119 150.287C136.119 150.529 136.09 150.784 136.031 151.053C135.979 151.321 135.89 151.59 135.766 151.858C135.648 152.12 135.494 152.372 135.304 152.614C135.121 152.856 134.895 153.072 134.627 153.262C134.365 153.446 134.06 153.593 133.714 153.704C133.367 153.816 132.977 153.871 132.545 153.871H123.186V151.318H132.545C132.866 151.318 133.111 151.22 133.281 151.023C133.458 150.827 133.547 150.581 133.547 150.287V149.148C133.547 148.814 133.461 148.558 133.291 148.382C133.121 148.205 132.866 148.117 132.525 148.117H126.771C126.109 148.117 125.55 147.999 125.091 147.763C124.64 147.521 124.273 147.22 123.991 146.86C123.71 146.499 123.504 146.11 123.373 145.691C123.248 145.272 123.186 144.882 123.186 144.522V139.789H134.951V142.342H125.739V144.522C125.739 144.863 125.828 145.118 126.005 145.288C126.181 145.458 126.437 145.544 126.771 145.544H132.545C132.898 145.544 133.285 145.609 133.704 145.74C134.123 145.864 134.509 146.071 134.862 146.359C135.223 146.64 135.52 147.01 135.756 147.468C135.998 147.927 136.119 148.486 136.119 149.148V150.287ZM151.007 153.871H138.074V149.148C138.074 148.905 138.1 148.65 138.152 148.382C138.211 148.107 138.3 147.835 138.417 147.567C138.535 147.298 138.686 147.043 138.869 146.801C139.059 146.558 139.285 146.346 139.547 146.162C139.815 145.972 140.123 145.822 140.47 145.711C140.817 145.599 141.21 145.544 141.648 145.544H147.403C147.75 145.544 148.005 145.458 148.169 145.288C148.339 145.111 148.424 144.856 148.424 144.522V143.393C148.424 143.046 148.339 142.784 148.169 142.607C147.999 142.431 147.75 142.342 147.423 142.342H139.223V139.789H147.423C147.855 139.789 148.244 139.845 148.591 139.956C148.938 140.067 149.243 140.218 149.505 140.408C149.773 140.591 150.002 140.804 150.192 141.046C150.382 141.288 150.536 141.543 150.654 141.812C150.778 142.074 150.866 142.342 150.919 142.617C150.978 142.886 151.007 143.138 151.007 143.373V144.522C151.007 145.184 150.886 145.743 150.644 146.202C150.408 146.653 150.11 147.023 149.75 147.311C149.39 147.593 149 147.799 148.581 147.93C148.169 148.054 147.783 148.117 147.423 148.117H141.648C141.439 148.117 141.272 148.146 141.147 148.205C141.023 148.264 140.925 148.342 140.853 148.441C140.787 148.539 140.738 148.65 140.706 148.774C140.673 148.899 140.647 149.023 140.627 149.148V151.318H151.007V153.871ZM159.551 144.522V143.373C159.551 143.138 159.577 142.886 159.629 142.617C159.688 142.342 159.777 142.074 159.894 141.812C160.012 141.543 160.166 141.288 160.356 141.046C160.546 140.804 160.772 140.591 161.034 140.408C161.302 140.218 161.61 140.067 161.957 139.956C162.304 139.845 162.697 139.789 163.135 139.789H167.741C168.055 139.789 168.392 139.825 168.752 139.897C169.112 139.969 169.466 140.087 169.813 140.25C170.167 140.408 170.504 140.611 170.824 140.859C171.145 141.108 171.427 141.409 171.669 141.763C171.918 142.11 172.114 142.512 172.258 142.971C172.409 143.429 172.484 143.946 172.484 144.522V149.148C172.484 149.724 172.409 150.241 172.258 150.699C172.114 151.158 171.918 151.563 171.669 151.917C171.427 152.264 171.145 152.562 170.824 152.811C170.504 153.053 170.167 153.256 169.813 153.419C169.466 153.577 169.112 153.691 168.752 153.763C168.392 153.835 168.055 153.871 167.741 153.871H161.368V151.318H167.741C168.062 151.292 168.353 151.226 168.615 151.122C168.883 151.017 169.112 150.876 169.302 150.699C169.499 150.516 169.649 150.297 169.754 150.041C169.859 149.779 169.911 149.482 169.911 149.148V148.117H163.135C162.893 148.117 162.638 148.09 162.369 148.038C162.101 147.979 161.832 147.891 161.564 147.773C161.302 147.648 161.05 147.495 160.808 147.311C160.566 147.121 160.349 146.892 160.16 146.624C159.976 146.355 159.829 146.048 159.718 145.701C159.606 145.354 159.551 144.961 159.551 144.522ZM169.911 144.522C169.911 144.188 169.856 143.887 169.744 143.619C169.633 143.35 169.479 143.121 169.283 142.931C169.093 142.742 168.864 142.597 168.595 142.499C168.333 142.395 168.049 142.342 167.741 142.342H163.135C162.821 142.342 162.569 142.44 162.379 142.637C162.196 142.833 162.104 143.079 162.104 143.373V144.522C162.104 144.856 162.192 145.111 162.369 145.288C162.546 145.458 162.808 145.544 163.155 145.544H169.911V144.522ZM187.676 153.871H185.103V148.117H176.029C175.846 148.117 175.676 148.084 175.519 148.018C175.361 147.946 175.224 147.855 175.106 147.743C174.995 147.625 174.906 147.488 174.841 147.331C174.776 147.174 174.743 147.007 174.743 146.83V139.789H177.296V145.544H185.103V139.789H187.676V153.871ZM202.328 150.287C202.328 150.948 202.207 151.508 201.965 151.966C201.729 152.418 201.431 152.788 201.071 153.076C200.717 153.357 200.331 153.56 199.912 153.685C199.493 153.809 199.104 153.871 198.744 153.871H190.553V151.318H198.744C199.091 151.318 199.346 151.23 199.51 151.053C199.68 150.876 199.765 150.621 199.765 150.287V148.117H190.553V145.544H199.765V143.393C199.765 142.692 199.424 142.342 198.744 142.342H190.553V139.789H198.744C199.182 139.789 199.575 139.845 199.922 139.956C200.269 140.067 200.573 140.218 200.835 140.408C201.104 140.591 201.333 140.804 201.523 141.046C201.713 141.288 201.866 141.543 201.984 141.812C202.102 142.074 202.187 142.342 202.24 142.617C202.299 142.886 202.328 143.138 202.328 143.373V150.287ZM217.903 150.287C217.903 150.529 217.874 150.784 217.815 151.053C217.762 151.321 217.674 151.59 217.55 151.858C217.432 152.12 217.278 152.372 217.088 152.614C216.905 152.856 216.679 153.072 216.41 153.262C216.148 153.446 215.844 153.593 215.497 153.704C215.15 153.816 214.761 153.871 214.328 153.871H204.97V151.318H214.328C214.649 151.318 214.895 151.22 215.065 151.023C215.242 150.827 215.33 150.581 215.33 150.287V149.148C215.33 148.814 215.245 148.558 215.075 148.382C214.905 148.205 214.649 148.117 214.309 148.117H208.554C207.893 148.117 207.333 147.999 206.875 147.763C206.423 147.521 206.056 147.22 205.775 146.86C205.493 146.499 205.287 146.11 205.156 145.691C205.032 145.272 204.97 144.882 204.97 144.522V139.789H216.734V142.342H207.523V144.522C207.523 144.863 207.611 145.118 207.788 145.288C207.965 145.458 208.22 145.544 208.554 145.544H214.328C214.682 145.544 215.068 145.609 215.487 145.74C215.906 145.864 216.293 146.071 216.646 146.359C217.006 146.64 217.304 147.01 217.54 147.468C217.782 147.927 217.903 148.486 217.903 149.148V150.287ZM226.191 144.522V143.373C226.191 143.138 226.218 142.886 226.27 142.617C226.329 142.342 226.417 142.074 226.535 141.812C226.653 141.543 226.807 141.288 226.997 141.046C227.187 140.804 227.412 140.591 227.674 140.408C227.943 140.218 228.25 140.067 228.597 139.956C228.944 139.845 229.337 139.789 229.776 139.789H234.382C234.696 139.789 235.033 139.825 235.393 139.897C235.753 139.969 236.107 140.087 236.454 140.25C236.807 140.408 237.144 140.611 237.465 140.859C237.786 141.108 238.067 141.409 238.31 141.763C238.558 142.11 238.755 142.512 238.899 142.971C239.049 143.429 239.125 143.946 239.125 144.522V149.148C239.125 149.724 239.049 150.241 238.899 150.699C238.755 151.158 238.558 151.563 238.31 151.917C238.067 152.264 237.786 152.562 237.465 152.811C237.144 153.053 236.807 153.256 236.454 153.419C236.107 153.577 235.753 153.691 235.393 153.763C235.033 153.835 234.696 153.871 234.382 153.871H228.008V151.318H234.382C234.702 151.292 234.994 151.226 235.256 151.122C235.524 151.017 235.753 150.876 235.943 150.699C236.139 150.516 236.29 150.297 236.395 150.041C236.499 149.779 236.552 149.482 236.552 149.148V148.117H229.776C229.534 148.117 229.278 148.09 229.01 148.038C228.741 147.979 228.473 147.891 228.205 147.773C227.943 147.648 227.691 147.495 227.448 147.311C227.206 147.121 226.99 146.892 226.8 146.624C226.617 146.355 226.47 146.048 226.358 145.701C226.247 145.354 226.191 144.961 226.191 144.522ZM236.552 144.522C236.552 144.188 236.496 143.887 236.385 143.619C236.274 143.35 236.12 143.121 235.923 142.931C235.733 142.742 235.504 142.597 235.236 142.499C234.974 142.395 234.689 142.342 234.382 142.342H229.776C229.462 142.342 229.209 142.44 229.02 142.637C228.836 142.833 228.745 143.079 228.745 143.373V144.522C228.745 144.856 228.833 145.111 229.01 145.288C229.187 145.458 229.448 145.544 229.795 145.544H236.552V144.522ZM241.158 144.522V143.373C241.158 143.138 241.184 142.886 241.236 142.617C241.295 142.342 241.383 142.074 241.501 141.812C241.619 141.543 241.773 141.288 241.963 141.046C242.153 140.804 242.379 140.591 242.64 140.408C242.909 140.218 243.217 140.067 243.564 139.956C243.911 139.845 244.303 139.789 244.742 139.789H249.348C249.662 139.789 249.999 139.825 250.359 139.897C250.719 139.969 251.073 140.087 251.42 140.25C251.773 140.408 252.11 140.611 252.431 140.859C252.752 141.108 253.034 141.409 253.276 141.763C253.525 142.11 253.721 142.512 253.865 142.971C254.016 143.429 254.091 143.946 254.091 144.522V149.148C254.091 149.724 254.016 150.241 253.865 150.699C253.721 151.158 253.525 151.563 253.276 151.917C253.034 152.264 252.752 152.562 252.431 152.811C252.11 153.053 251.773 153.256 251.42 153.419C251.073 153.577 250.719 153.691 250.359 153.763C249.999 153.835 249.662 153.871 249.348 153.871H242.974V151.318H249.348C249.668 151.292 249.96 151.226 250.222 151.122C250.49 151.017 250.719 150.876 250.909 150.699C251.106 150.516 251.256 150.297 251.361 150.041C251.466 149.779 251.518 149.482 251.518 149.148V148.117H244.742C244.5 148.117 244.244 148.09 243.976 148.038C243.708 147.979 243.439 147.891 243.171 147.773C242.909 147.648 242.657 147.495 242.415 147.311C242.172 147.121 241.956 146.892 241.766 146.624C241.583 146.355 241.436 146.048 241.324 145.701C241.213 145.354 241.158 144.961 241.158 144.522ZM251.518 144.522C251.518 144.188 251.462 143.887 251.351 143.619C251.24 143.35 251.086 143.121 250.889 142.931C250.7 142.742 250.47 142.597 250.202 142.499C249.94 142.395 249.655 142.342 249.348 142.342H244.742C244.428 142.342 244.176 142.44 243.986 142.637C243.802 142.833 243.711 143.079 243.711 143.373V144.522C243.711 144.856 243.799 145.111 243.976 145.288C244.153 145.458 244.415 145.544 244.762 145.544H251.518V144.522ZM269.263 150.287C269.263 150.529 269.234 150.784 269.175 151.053C269.123 151.321 269.034 151.59 268.91 151.858C268.792 152.12 268.638 152.372 268.448 152.614C268.258 152.856 268.029 153.072 267.761 153.262C267.499 153.446 267.194 153.593 266.847 153.704C266.5 153.816 266.111 153.871 265.679 153.871H259.905C259.551 153.871 259.165 153.809 258.746 153.685C258.327 153.56 257.937 153.357 257.577 153.076C257.224 152.788 256.926 152.418 256.683 151.966C256.448 151.508 256.33 150.948 256.33 150.287V149.148C256.33 148.899 256.356 148.637 256.408 148.362C256.467 148.087 256.556 147.815 256.674 147.547C256.798 147.279 256.955 147.023 257.145 146.781C257.335 146.539 257.564 146.329 257.832 146.152C257.715 145.877 257.626 145.599 257.567 145.318C257.508 145.036 257.479 144.771 257.479 144.522V143.373C257.479 142.719 257.597 142.162 257.832 141.704C258.075 141.246 258.373 140.876 258.726 140.594C259.086 140.313 259.476 140.11 259.895 139.985C260.314 139.854 260.7 139.789 261.053 139.789H264.51C264.949 139.789 265.342 139.845 265.689 139.956C266.042 140.067 266.35 140.218 266.612 140.408C266.88 140.591 267.106 140.804 267.289 141.046C267.479 141.288 267.633 141.543 267.751 141.812C267.869 142.074 267.954 142.342 268.006 142.617C268.065 142.886 268.095 143.138 268.095 143.373V144.522C268.095 145.164 267.98 145.72 267.751 146.192C267.96 146.329 268.157 146.493 268.34 146.683C268.523 146.866 268.684 147.079 268.821 147.321C268.959 147.563 269.067 147.838 269.145 148.146C269.224 148.447 269.263 148.781 269.263 149.148V150.287ZM265.541 143.393C265.541 143.046 265.453 142.784 265.276 142.607C265.099 142.431 264.844 142.342 264.51 142.342H261.073C260.726 142.342 260.468 142.431 260.297 142.607C260.134 142.784 260.052 143.039 260.052 143.373V144.522C260.052 144.863 260.137 145.118 260.307 145.288C260.484 145.458 260.733 145.544 261.053 145.544H264.51C264.857 145.544 265.116 145.458 265.286 145.288C265.456 145.111 265.541 144.856 265.541 144.522V143.393ZM266.681 149.148C266.681 148.82 266.589 148.568 266.406 148.391C266.229 148.208 265.987 148.117 265.679 148.117H259.905C259.59 148.117 259.341 148.215 259.158 148.411C258.975 148.608 258.883 148.853 258.883 149.148V150.287C258.883 150.601 258.978 150.853 259.168 151.043C259.364 151.226 259.61 151.318 259.905 151.318H265.679C266.006 151.318 266.255 151.22 266.425 151.023C266.595 150.827 266.681 150.581 266.681 150.287V149.148ZM284.269 153.871H271.335V149.148C271.335 148.905 271.362 148.65 271.414 148.382C271.473 148.107 271.561 147.835 271.679 147.567C271.797 147.298 271.948 147.043 272.131 146.801C272.321 146.558 272.547 146.346 272.808 146.162C273.077 145.972 273.385 145.822 273.732 145.711C274.079 145.599 274.471 145.544 274.91 145.544H280.665C281.012 145.544 281.267 145.458 281.431 145.288C281.601 145.111 281.686 144.856 281.686 144.522V143.393C281.686 143.046 281.601 142.784 281.431 142.607C281.26 142.431 281.012 142.342 280.684 142.342H272.484V139.789H280.684C281.116 139.789 281.506 139.845 281.853 139.956C282.2 140.067 282.504 140.218 282.766 140.408C283.035 140.591 283.264 140.804 283.454 141.046C283.643 141.288 283.797 141.543 283.915 141.812C284.04 142.074 284.128 142.342 284.18 142.617C284.239 142.886 284.269 143.138 284.269 143.373V144.522C284.269 145.184 284.148 145.743 283.905 146.202C283.67 146.653 283.372 147.023 283.012 147.311C282.652 147.593 282.262 147.799 281.843 147.93C281.431 148.054 281.044 148.117 280.684 148.117H274.91C274.7 148.117 274.534 148.146 274.409 148.205C274.285 148.264 274.187 148.342 274.115 148.441C274.049 148.539 274 148.65 273.967 148.774C273.934 148.899 273.908 149.023 273.889 149.148V151.318H284.269V153.871Z" fill="black"/>
</g>
<path d="M26.1445 199.294V190.152H31.876V191.339H27.5238V194.125H31.5769V195.308H27.5238V198.106H31.9295V199.294H26.1445ZM34.6647 192.437L36.1779 195.107L37.7046 192.437H39.1642L37.0261 195.866L39.1821 199.294H37.7224L36.1779 196.732L34.6379 199.294H33.1738L35.3075 195.866L33.2006 192.437H34.6647ZM40.5346 201.865V192.437H41.838V193.549H41.9496C42.027 193.406 42.1386 193.241 42.2844 193.053C42.4302 192.866 42.6326 192.702 42.8915 192.562C43.1504 192.42 43.4926 192.348 43.9181 192.348C44.4716 192.348 44.9656 192.488 45.4001 192.768C45.8346 193.048 46.1753 193.451 46.4223 193.977C46.6723 194.504 46.7973 195.138 46.7973 195.879C46.7973 196.62 46.6738 197.255 46.4268 197.785C46.1798 198.312 45.8405 198.718 45.409 199.004C44.9775 199.286 44.485 199.428 43.9315 199.428C43.5149 199.428 43.1742 199.358 42.9093 199.218C42.6474 199.078 42.4421 198.914 42.2933 198.727C42.1445 198.539 42.03 198.373 41.9496 198.227H41.8693V201.865H40.5346ZM41.8425 195.866C41.8425 196.348 41.9124 196.77 42.0523 197.133C42.1921 197.496 42.3945 197.781 42.6593 197.986C42.9242 198.188 43.2486 198.289 43.6325 198.289C44.0312 198.289 44.3645 198.184 44.6323 197.973C44.9002 197.758 45.1025 197.468 45.2394 197.102C45.3793 196.736 45.4492 196.324 45.4492 195.866C45.4492 195.413 45.3808 195.007 45.2439 194.647C45.11 194.287 44.9076 194.003 44.6368 193.794C44.369 193.586 44.0342 193.482 43.6325 193.482C43.2456 193.482 42.9182 193.582 42.6504 193.781C42.3856 193.98 42.1847 194.259 42.0478 194.616C41.9109 194.973 41.8425 195.39 41.8425 195.866ZM48.2926 199.294V192.437H49.6273V199.294H48.2926ZM48.9667 191.38C48.7346 191.38 48.5352 191.302 48.3685 191.147C48.2048 190.99 48.123 190.802 48.123 190.585C48.123 190.365 48.2048 190.177 48.3685 190.023C48.5352 189.865 48.7346 189.786 48.9667 189.786C49.1988 189.786 49.3967 189.865 49.5604 190.023C49.727 190.177 49.8103 190.365 49.8103 190.585C49.8103 190.802 49.727 190.99 49.5604 191.147C49.3967 191.302 49.1988 191.38 48.9667 191.38ZM51.4229 199.294V192.437H52.7129V193.527H52.7843C52.9093 193.158 53.1295 192.867 53.445 192.656C53.7634 192.442 54.1234 192.335 54.5252 192.335C54.6085 192.335 54.7067 192.338 54.8198 192.344C54.9359 192.35 55.0266 192.357 55.0921 192.366V193.643C55.0385 193.628 54.9433 193.611 54.8064 193.594C54.6695 193.573 54.5326 193.562 54.3957 193.562C54.0803 193.562 53.7991 193.629 53.5521 193.763C53.3081 193.894 53.1146 194.077 52.9718 194.312C52.829 194.544 52.7575 194.809 52.7575 195.107V199.294H51.4229ZM59.8527 192.437V193.509H56.1076V192.437H59.8527ZM57.1119 190.795H58.4466V197.281C58.4466 197.54 58.4853 197.734 58.5627 197.865C58.64 197.993 58.7397 198.081 58.8617 198.129C58.9867 198.173 59.1221 198.196 59.268 198.196C59.3751 198.196 59.4688 198.188 59.5492 198.173C59.6295 198.159 59.692 198.147 59.7366 198.138L59.9777 199.24C59.9003 199.27 59.7902 199.3 59.6474 199.33C59.5045 199.362 59.326 199.38 59.1117 199.383C58.7606 199.389 58.4332 199.327 58.1297 199.196C57.8262 199.065 57.5806 198.862 57.3932 198.589C57.2057 198.315 57.1119 197.971 57.1119 197.557V190.795ZM62.1728 201.865C61.9734 201.865 61.7918 201.849 61.6282 201.816C61.4645 201.786 61.3425 201.753 61.2621 201.718L61.5835 200.624C61.8276 200.689 62.0448 200.718 62.2352 200.709C62.4257 200.7 62.5938 200.628 62.7397 200.495C62.8884 200.361 63.0194 200.142 63.1325 199.838L63.2976 199.383L60.789 192.437H62.2174L63.9538 197.758H64.0252L65.7616 192.437H67.1945L64.3689 200.209C64.238 200.566 64.0713 200.868 63.869 201.115C63.6666 201.365 63.4256 201.552 63.1459 201.677C62.8661 201.802 62.5418 201.865 62.1728 201.865ZM74.8421 199.294H71.8826V190.152H74.9358C75.8315 190.152 76.6008 190.335 77.2436 190.701C77.8864 191.064 78.3789 191.586 78.7211 192.268C79.0663 192.946 79.2389 193.76 79.2389 194.71C79.2389 195.662 79.0648 196.48 78.7166 197.165C78.3714 197.849 77.8715 198.376 77.2168 198.745C76.5621 199.111 75.7705 199.294 74.8421 199.294ZM73.2619 198.089H74.7662C75.4625 198.089 76.0413 197.958 76.5026 197.696C76.9639 197.431 77.3091 197.049 77.5382 196.549C77.7673 196.046 77.8819 195.433 77.8819 194.71C77.8819 193.992 77.7673 193.384 77.5382 192.884C77.312 192.384 76.9743 192.004 76.5249 191.746C76.0756 191.487 75.5176 191.357 74.851 191.357H73.2619V198.089ZM82.8423 199.446C82.4078 199.446 82.015 199.365 81.6638 199.205C81.3127 199.041 81.0345 198.804 80.8291 198.495C80.6268 198.185 80.5256 197.806 80.5256 197.357C80.5256 196.97 80.6 196.651 80.7488 196.401C80.8976 196.151 81.0984 195.953 81.3514 195.808C81.6043 195.662 81.887 195.552 82.1995 195.477C82.512 195.403 82.8304 195.346 83.1547 195.308C83.5654 195.26 83.8987 195.221 84.1546 195.192C84.4106 195.159 84.5965 195.107 84.7126 195.035C84.8287 194.964 84.8867 194.848 84.8867 194.687V194.656C84.8867 194.266 84.7766 193.964 84.5564 193.75C84.3391 193.536 84.0148 193.428 83.5833 193.428C83.1339 193.428 82.7798 193.528 82.5209 193.727C82.265 193.924 82.0879 194.143 81.9897 194.384L80.7354 194.098C80.8842 193.681 81.1014 193.345 81.3871 193.089C81.6757 192.83 82.0076 192.643 82.3825 192.527C82.7575 192.408 83.1518 192.348 83.5654 192.348C83.8392 192.348 84.1293 192.381 84.4358 192.446C84.7453 192.509 85.034 192.625 85.3018 192.795C85.5726 192.964 85.7943 193.207 85.9669 193.522C86.1395 193.835 86.2258 194.241 86.2258 194.741V199.294H84.9224V198.356H84.8688C84.7825 198.529 84.6531 198.699 84.4805 198.865C84.3079 199.032 84.0862 199.17 83.8154 199.28C83.5446 199.391 83.2202 199.446 82.8423 199.446ZM83.1324 198.374C83.5014 198.374 83.8169 198.301 84.0787 198.156C84.3436 198.01 84.5445 197.819 84.6814 197.584C84.8212 197.346 84.8912 197.092 84.8912 196.821V195.937C84.8435 195.985 84.7513 196.029 84.6144 196.071C84.4805 196.11 84.3272 196.144 84.1546 196.174C83.982 196.2 83.8139 196.226 83.6502 196.25C83.4866 196.27 83.3497 196.288 83.2396 196.303C82.9807 196.336 82.7441 196.391 82.5298 196.468C82.3185 196.546 82.1489 196.657 82.0209 196.803C81.896 196.946 81.8335 197.136 81.8335 197.374C81.8335 197.705 81.9555 197.955 82.1995 198.124C82.4435 198.291 82.7545 198.374 83.1324 198.374ZM91.2041 192.437V193.509H87.4589V192.437H91.2041ZM88.4633 190.795H89.798V197.281C89.798 197.54 89.8366 197.734 89.914 197.865C89.9914 197.993 90.0911 198.081 90.2131 198.129C90.3381 198.173 90.4735 198.196 90.6193 198.196C90.7264 198.196 90.8202 198.188 90.9005 198.173C90.9809 198.159 91.0434 198.147 91.088 198.138L91.329 199.24C91.2517 199.27 91.1416 199.3 90.9987 199.33C90.8559 199.362 90.6773 199.38 90.4631 199.383C90.1119 199.389 89.7846 199.327 89.481 199.196C89.1775 199.065 88.932 198.862 88.7445 198.589C88.557 198.315 88.4633 197.971 88.4633 197.557V190.795ZM95.5618 199.432C94.8863 199.432 94.3045 199.288 93.8165 198.999C93.3314 198.708 92.9565 198.298 92.6916 197.772C92.4297 197.242 92.2988 196.622 92.2988 195.91C92.2988 195.208 92.4297 194.589 92.6916 194.053C92.9565 193.518 93.3255 193.1 93.7986 192.799C94.2748 192.498 94.8312 192.348 95.4681 192.348C95.8549 192.348 96.2299 192.412 96.5929 192.54C96.956 192.668 97.2819 192.869 97.5705 193.143C97.8592 193.417 98.0868 193.772 98.2535 194.21C98.4201 194.644 98.5034 195.172 98.5034 195.794V196.267H93.0532V195.267H97.1956C97.1956 194.916 97.1241 194.605 96.9813 194.335C96.8385 194.061 96.6376 193.845 96.3787 193.687C96.1228 193.53 95.8222 193.451 95.477 193.451C95.102 193.451 94.7747 193.543 94.495 193.727C94.2182 193.909 94.004 194.147 93.8522 194.442C93.7034 194.733 93.629 195.05 93.629 195.392V196.174C93.629 196.632 93.7093 197.022 93.87 197.343C94.0337 197.665 94.2614 197.91 94.553 198.08C94.8446 198.246 95.1854 198.33 95.5752 198.33C95.8282 198.33 96.0588 198.294 96.2671 198.223C96.4754 198.148 96.6554 198.038 96.8072 197.892C96.959 197.746 97.075 197.566 97.1554 197.352L98.4186 197.58C98.3175 197.952 98.1359 198.278 97.874 198.557C97.6152 198.834 97.2893 199.05 96.8965 199.205C96.5066 199.356 96.0618 199.432 95.5618 199.432Z" fill="black"/>
<g filter="url(#filter3_d_1320_15589)">
<path d="M29.6709 212.777V221.919H28.0148V214.388H27.9612L25.8231 215.754V214.237L28.0952 212.777H29.6709ZM35.3711 222.093C34.6361 222.093 34.0052 221.907 33.4785 221.535C32.9547 221.16 32.5515 220.62 32.2688 219.915C31.9891 219.206 31.8492 218.354 31.8492 217.357C31.8522 216.36 31.9935 215.512 32.2733 214.812C32.556 214.11 32.9592 213.575 33.4829 213.206C34.0097 212.837 34.6391 212.652 35.3711 212.652C36.1032 212.652 36.7326 212.837 37.2593 213.206C37.786 213.575 38.1892 214.11 38.469 214.812C38.7517 215.515 38.893 216.363 38.893 217.357C38.893 218.357 38.7517 219.211 38.469 219.919C38.1892 220.624 37.786 221.163 37.2593 221.535C36.7355 221.907 36.1062 222.093 35.3711 222.093ZM35.3711 220.696C35.9425 220.696 36.3933 220.415 36.7236 219.852C37.0569 219.287 37.2236 218.455 37.2236 217.357C37.2236 216.631 37.1477 216.021 36.9959 215.527C36.8442 215.033 36.6299 214.661 36.3531 214.411C36.0764 214.158 35.749 214.031 35.3711 214.031C34.8027 214.031 34.3534 214.314 34.0231 214.879C33.6927 215.442 33.5261 216.268 33.5231 217.357C33.5201 218.086 33.593 218.699 33.7418 219.196C33.8936 219.693 34.1079 220.068 34.3846 220.321C34.6614 220.571 34.9902 220.696 35.3711 220.696ZM44.1257 212.348L41.1796 223.294H39.7646L42.7107 212.348H44.1257ZM45.139 221.919V220.723L48.3127 217.611C48.6163 217.305 48.8692 217.032 49.0716 216.794C49.2739 216.556 49.4257 216.326 49.5269 216.103C49.6281 215.879 49.6786 215.641 49.6786 215.388C49.6786 215.1 49.6132 214.853 49.4822 214.647C49.3513 214.439 49.1713 214.278 48.9421 214.165C48.713 214.052 48.4526 213.996 48.161 213.996C47.8604 213.996 47.597 214.058 47.3709 214.183C47.1447 214.305 46.9691 214.479 46.8441 214.705C46.7221 214.932 46.6611 215.201 46.6611 215.513H45.0854C45.0854 214.933 45.2178 214.429 45.4827 214C45.7475 213.572 46.1121 213.24 46.5763 213.005C47.0435 212.77 47.5792 212.652 48.1833 212.652C48.7963 212.652 49.3349 212.767 49.7992 212.996C50.2634 213.225 50.6235 213.539 50.8794 213.938C51.1383 214.336 51.2677 214.792 51.2677 215.304C51.2677 215.646 51.2023 215.982 51.0713 216.312C50.9404 216.643 50.7098 217.009 50.3795 217.41C50.0521 217.812 49.5923 218.299 49.0001 218.87L47.4244 220.473V220.535H51.4061V221.919H45.139ZM56.1243 222.044C55.5292 222.044 54.9965 221.932 54.5263 221.709C54.0561 221.483 53.6826 221.173 53.4059 220.781C53.1321 220.388 52.9863 219.938 52.9684 219.432H54.5754C54.6052 219.807 54.7673 220.114 55.062 220.352C55.3566 220.587 55.7107 220.705 56.1243 220.705C56.4487 220.705 56.7374 220.63 56.9903 220.481C57.2433 220.333 57.4426 220.126 57.5885 219.861C57.7343 219.596 57.8057 219.294 57.8027 218.955C57.8057 218.61 57.7328 218.303 57.584 218.035C57.4352 217.768 57.2314 217.558 56.9725 217.406C56.7136 217.251 56.416 217.174 56.0797 217.174C55.8059 217.171 55.5366 217.221 55.2718 217.326C55.0069 217.43 54.7971 217.567 54.6424 217.736L53.147 217.491L53.6246 212.777H58.9276V214.161H54.995L54.7316 216.585H54.7852C54.9548 216.385 55.1944 216.22 55.5039 216.089C55.8134 215.955 56.1526 215.888 56.5216 215.888C57.0751 215.888 57.5691 216.019 58.0036 216.281C58.4381 216.54 58.7803 216.897 59.0303 217.352C59.2802 217.808 59.4052 218.328 59.4052 218.915C59.4052 219.519 59.2653 220.057 58.9856 220.531C58.7089 221.001 58.3235 221.371 57.8295 221.642C57.3385 221.91 56.7701 222.044 56.1243 222.044Z" fill="black"/>
</g>
<path d="M315.681 198.402C317.092 199.512 318.233 200.928 319.016 202.544C319.8 204.16 320.207 205.934 320.205 207.731C320.206 209.527 319.8 211.3 319.016 212.915C318.232 214.531 317.091 215.947 315.681 217.056C314.27 215.946 313.129 214.53 312.345 212.915C311.561 211.299 311.155 209.525 311.156 207.729C311.155 205.932 311.561 204.159 312.345 202.543C313.129 200.927 314.27 199.511 315.681 198.402V198.402ZM314.164 197.386C312.67 198.663 311.471 200.25 310.65 202.037C309.828 203.823 309.404 205.767 309.406 207.734C309.404 209.7 309.828 211.643 310.649 213.429C311.47 215.215 312.668 216.802 314.161 218.079C312.357 219.093 310.321 219.616 308.253 219.597C306.185 219.578 304.158 219.018 302.373 217.971C300.589 216.924 299.109 215.428 298.081 213.631C297.052 211.834 296.512 209.799 296.512 207.728C296.513 205.657 297.054 203.622 298.084 201.825C299.113 200.029 300.593 198.534 302.379 197.488C304.164 196.442 306.191 195.883 308.259 195.865C310.327 195.847 312.363 196.371 314.166 197.386H314.164ZM317.2 218.079C318.693 216.802 319.891 215.215 320.712 213.429C321.533 211.643 321.957 209.7 321.955 207.734C321.957 205.767 321.533 203.823 320.711 202.037C319.89 200.25 318.691 198.663 317.197 197.386C319 196.371 321.036 195.847 323.104 195.865C325.172 195.883 327.199 196.442 328.984 197.488C330.769 198.534 332.25 200.029 333.279 201.825C334.308 203.622 334.85 205.657 334.851 207.728C334.851 209.799 334.31 211.834 333.282 213.631C332.254 215.428 330.774 216.924 328.99 217.971C327.205 219.018 325.178 219.578 323.11 219.597C321.042 219.616 319.005 219.093 317.202 218.079H317.2Z" fill="#0D0D0D"/>
<g clip-path="url(#clip1_1320_15589)">
<rect x="294.766" y="71.649" width="40.8525" height="31.425" rx="5.028" fill="white" fill-opacity="0.24"/>
<path fill-rule="evenodd" clip-rule="evenodd" d="M308.594 103.077V71.6517H307.337V79.8227H294.767V81.0797H307.337V87.3644H294.767V88.6214H307.337V94.906H294.767V96.163H307.337V103.077H308.594Z" fill="#0D0D0D"/>
<path fill-rule="evenodd" clip-rule="evenodd" d="M321.334 87.3645L321.43 87.1348L321.443 87.1021C322.26 85.1425 323.085 83.1644 323.779 81.0778H334.362V79.8208H324.177C325.002 77.0605 325.563 74.0884 325.563 70.709H324.306C324.306 76.9528 322.314 81.7462 320.269 86.6511L320.256 86.6837L320.255 86.6852C320.161 86.9114 320.067 87.1377 319.972 87.3645H319.907V87.5226C317.988 92.1446 316.136 96.939 316.136 103.077H317.393C317.393 100.573 317.713 98.3016 318.229 96.1632H334.362V94.9062H318.558C319.171 92.727 319.97 90.6702 320.813 88.6215H334.362V87.3645H321.334Z" fill="#1A1A1A"/>
</g>
<rect x="295.395" y="72.2775" width="39.5955" height="30.168" rx="4.3995" stroke="#1A1A1A" stroke-width="1.257"/>
<g clip-path="url(#clip2_1320_15589)">
<path d="M45.9982 31.8465C45.5141 31.6246 45.1425 31.3154 44.8837 30.9186C44.6248 30.5218 44.4885 30.0612 44.4751 29.5364H46.1194C46.1262 29.9064 46.2759 30.2005 46.5683 30.419C46.8607 30.6376 47.2659 30.7471 47.7839 30.7471C48.1673 30.7471 48.4681 30.6833 48.6866 30.5554C48.9052 30.4278 49.0147 30.2324 49.0147 29.9702C49.0147 29.8024 48.9694 29.6661 48.8783 29.5616C48.7877 29.4576 48.6363 29.3699 48.4245 29.2994C48.2126 29.229 47.9114 29.1631 47.5217 29.1027C46.8086 28.9953 46.2558 28.8607 45.8623 28.6992C45.4688 28.5377 45.1878 28.3258 45.02 28.0637C44.8518 27.8015 44.7679 27.455 44.7679 27.0246C44.7679 26.5942 44.882 26.1941 45.111 25.8644C45.3396 25.5351 45.6689 25.2809 46.0997 25.1026C46.5301 24.9243 47.0343 24.8354 47.6128 24.8354C48.1912 24.8354 48.7139 24.9382 49.1611 25.1429C49.6082 25.348 49.9564 25.637 50.2051 26.0103C50.4539 26.3837 50.5818 26.8124 50.5885 27.2965H48.9442C48.9375 26.9533 48.8062 26.6962 48.5507 26.5246C48.2953 26.3531 47.9555 26.2675 47.5318 26.2675C47.1685 26.2675 46.8829 26.3245 46.6744 26.439C46.4659 26.5536 46.3615 26.7285 46.3615 26.9634C46.3615 27.1249 46.4085 27.2545 46.5028 27.3518C46.5968 27.4496 46.76 27.5318 46.992 27.5989C47.2239 27.666 47.552 27.7302 47.9756 27.7906C48.6145 27.8778 49.1254 28.0075 49.5088 28.179C49.8922 28.3506 50.1712 28.5775 50.3461 28.8598C50.521 29.1421 50.6082 29.4953 50.6082 29.919C50.6082 30.3829 50.4887 30.7848 50.25 31.1246C50.0113 31.4644 49.6749 31.7249 49.2412 31.9065C48.8074 32.0881 48.3011 32.1787 47.7231 32.1787C47.0574 32.1787 46.4823 32.0676 45.9982 31.8457V31.8465Z" fill="#0D0D0D"/>
<path d="M52.8876 26.2368H51.3745V24.9255H52.8876V26.2368ZM52.8876 32.0369H51.3946V26.882H52.8876V32.0369Z" fill="#0D0D0D"/>
<path d="M53.7352 32.0367V26.8817H55.2281V27.5273H55.3087C55.5776 27.0029 56.0281 26.7404 56.6602 26.7404C56.9694 26.7404 57.242 26.8175 57.4774 26.9723C57.7127 27.1271 57.8943 27.3457 58.0223 27.628H58.1028C58.4119 27.0361 58.9032 26.7404 59.5756 26.7404C60.1066 26.7404 60.5219 26.9052 60.8214 27.2345C61.1205 27.5642 61.2703 28.0147 61.2703 28.586V32.0358H59.7773V28.9086C59.7773 28.6465 59.7102 28.443 59.5756 28.2983C59.4409 28.1536 59.2526 28.0814 59.0105 28.0814C58.7685 28.0814 58.5802 28.1536 58.4455 28.2983C58.3109 28.443 58.2437 28.6465 58.2437 28.9086V32.0358H56.7508V28.9086C56.7508 28.6465 56.6854 28.443 56.5541 28.2983C56.4228 28.1536 56.2361 28.0814 55.9941 28.0814C55.7521 28.0814 55.5637 28.1536 55.4291 28.2983C55.2944 28.443 55.2273 28.6465 55.2273 28.9086V32.0358H53.7344L53.7352 32.0367Z" fill="#0D0D0D"/>
<path d="M64.3469 31.941C64.0579 31.7828 63.8326 31.5593 63.6711 31.2702H63.5906V32.037H62.0977V24.9756H63.5906V27.6489H63.6711C63.8326 27.3532 64.0579 27.1279 64.3469 26.9731C64.6359 26.8183 64.969 26.7412 65.3457 26.7412C65.8163 26.7412 66.2366 26.8574 66.6066 27.0893C66.9762 27.3213 67.2656 27.6426 67.4741 28.0529C67.6826 28.4631 67.787 28.9304 67.787 29.4552C67.787 29.9799 67.6826 30.4489 67.4741 30.8625C67.2656 31.2761 66.9762 31.5987 66.6066 31.8311C66.2366 32.063 65.8163 32.1792 65.3457 32.1792C64.969 32.1792 64.6359 32.1 64.3469 31.9422V31.941ZM65.8599 30.4632C66.102 30.2144 66.2232 29.878 66.2232 29.4543C66.2232 29.0307 66.102 28.7043 65.8599 28.4556C65.6179 28.2068 65.2983 28.0822 64.9014 28.0822C64.5046 28.0822 64.1866 28.2068 63.948 28.4556C63.7093 28.7043 63.5897 29.0374 63.5897 29.4543C63.5897 29.8713 63.7089 30.2144 63.948 30.4632C64.1866 30.7119 64.5042 30.8365 64.9014 30.8365C65.2987 30.8365 65.6175 30.7123 65.8599 30.4632Z" fill="#0D0D0D"/>
<path d="M69.3703 31.8303C69.0004 31.5983 68.7113 31.2753 68.5029 30.8617C68.2944 30.4481 68.1899 29.9791 68.1899 29.4544C68.1899 28.9296 68.294 28.4623 68.5029 28.0521C68.7113 27.6418 69.0004 27.3205 69.3703 27.0885C69.7403 26.8566 70.1606 26.7404 70.6313 26.7404C71.008 26.7404 71.3406 26.8175 71.6301 26.9723C71.9191 27.1271 72.1443 27.3524 72.3058 27.6481H72.3864V26.8813H73.8793V32.0362H72.3864V31.2694H72.3058C72.1443 31.5585 71.9191 31.7825 71.6301 31.9402C71.341 32.0979 71.008 32.1772 70.6313 32.1772C70.1606 32.1772 69.7403 32.061 69.3703 31.829V31.8303ZM72.0286 30.4636C72.2672 30.2149 72.3868 29.8785 72.3868 29.4548C72.3868 29.0311 72.2672 28.7048 72.0286 28.456C71.7899 28.2073 71.4719 28.0827 71.0751 28.0827C70.6783 28.0827 70.359 28.2073 70.117 28.456C69.875 28.7048 69.7537 29.0378 69.7537 29.4548C69.7537 29.8717 69.875 30.2149 70.117 30.4636C70.359 30.7124 70.6783 30.837 71.0751 30.837C71.4719 30.837 71.7895 30.7128 72.0286 30.4636Z" fill="#0D0D0D"/>
<path d="M46.2903 40.7225H44.7471V33.661H46.9158L48.8625 38.2308H48.9532L50.8999 33.661H53.0384V40.7225H51.4851V35.7391H51.3945L49.6394 39.8042H48.1364L46.3713 35.7391H46.2907V40.7225H46.2903Z" fill="#0D0D0D"/>
<path d="M55.1019 40.5137C54.6749 40.2817 54.3402 39.9587 54.0981 39.5451C53.8561 39.1315 53.7349 38.6625 53.7349 38.1378C53.7349 37.613 53.8561 37.1457 54.0981 36.7355C54.3402 36.3252 54.6745 36.0039 55.1019 35.7719C55.529 35.54 56.0147 35.4238 56.5596 35.4238C57.1045 35.4238 57.5819 35.54 58.0123 35.7719C58.4426 36.0039 58.7774 36.3252 59.0161 36.7355C59.2547 37.1457 59.3743 37.613 59.3743 38.1378C59.3743 38.6625 59.2547 39.1315 59.0161 39.5451C58.7774 39.9587 58.4426 40.2813 58.0123 40.5137C57.5819 40.7457 57.0978 40.8618 56.5596 40.8618C56.0214 40.8618 55.529 40.7457 55.1019 40.5137ZM57.4623 39.1219C57.6876 38.8765 57.8004 38.5484 57.8004 38.1382C57.8004 37.7279 57.6876 37.4003 57.4623 37.1545C57.2371 36.9091 56.9359 36.7862 56.5596 36.7862C56.1833 36.7862 55.8805 36.9091 55.6519 37.1545C55.4233 37.3999 55.3087 37.7279 55.3087 38.1382C55.3087 38.5484 55.4228 38.8765 55.6519 39.1219C55.8805 39.3673 56.1829 39.4902 56.5596 39.4902C56.9363 39.4902 57.2371 39.3677 57.4623 39.1219Z" fill="#0D0D0D"/>
<path d="M59.9692 40.7221V35.5671H61.4622V36.2933H61.5427C61.6908 36.0042 61.8959 35.7874 62.1581 35.6426C62.4202 35.4979 62.7193 35.4258 63.0557 35.4258C63.6006 35.4258 64.0306 35.6007 64.3469 35.9501C64.6627 36.3 64.8209 36.7773 64.8209 37.3826V40.7217H63.328V37.7862C63.328 37.4569 63.2474 37.2044 63.0859 37.0294C62.9244 36.8545 62.6958 36.7673 62.4001 36.7673C62.1044 36.7673 61.8737 36.8566 61.7092 37.0345C61.5444 37.2127 61.4622 37.4632 61.4622 37.7862V40.7217H59.9692V40.7221Z" fill="#0D0D0D"/>
<path d="M69.4963 35.7627C69.9099 35.988 70.2325 36.3009 70.4649 36.7011C70.6968 37.1012 70.813 37.5534 70.813 38.0577C70.813 38.199 70.803 38.34 70.7828 38.4813H66.8788C66.9325 38.8379 67.0738 39.1152 67.3024 39.3136C67.5311 39.512 67.8272 39.611 68.1901 39.611C68.4858 39.611 68.7282 39.5472 68.9166 39.4193C69.1049 39.2917 69.2224 39.1336 69.2698 38.9453H70.7325C70.6855 39.3085 70.5475 39.6345 70.3189 39.9239C70.0903 40.2133 69.7874 40.442 69.4111 40.6097C69.0345 40.778 68.6074 40.8618 68.1301 40.8618C67.5986 40.8618 67.1229 40.7457 66.7026 40.5137C66.2823 40.2817 65.9542 39.9587 65.7189 39.5451C65.4836 39.1315 65.3657 38.6625 65.3657 38.1378C65.3657 37.613 65.4832 37.1541 65.7189 36.7405C65.9542 36.3269 66.2789 36.0039 66.6925 35.7719C67.1061 35.54 67.5751 35.4238 68.0999 35.4238C68.6246 35.4238 69.0835 35.5366 69.4971 35.7619L69.4963 35.7627ZM67.3628 36.9024C67.1544 37.0538 67.0096 37.2707 66.9291 37.553H69.3503C69.2626 37.2707 69.1133 37.0538 68.9015 36.9024C68.6896 36.751 68.4325 36.6755 68.1296 36.6755C67.8268 36.6755 67.5713 36.751 67.3628 36.9024Z" fill="#0D0D0D"/>
<path d="M74.8181 35.568H76.3413L74.4045 41.449C74.243 41.9398 74.0446 42.2779 73.8093 42.4629C73.574 42.6479 73.2275 42.7402 72.7703 42.7402H71.6507V41.439H72.7199C72.8747 41.439 72.9838 41.4138 73.048 41.3635C73.1117 41.3131 73.1641 41.2171 73.2044 41.0761L73.3152 40.7229H72.6696L70.7832 35.568H72.3667L73.6277 39.3307H73.7183L74.8177 35.568H74.8181Z" fill="#0D0D0D"/>
<path d="M29.4111 41.4201C29.4111 41.4201 31.5911 40.3261 30.9233 36.6801C30.9233 36.6801 32.8051 38.3911 32.3563 41.7846C32.3563 41.7846 29.9724 41.6726 29.4111 41.4201Z" fill="#0D0D0D"/>
<path d="M35.4263 41.3633C35.4263 41.3633 34.3167 37.7236 31.6367 35.8909C31.6367 35.8909 34.3792 35.9655 37.7325 40.0168C37.7325 40.0168 36.5731 40.9518 35.4263 41.3629V41.3633Z" fill="#0D0D0D"/>
<path d="M39.1811 38.7586C39.1811 38.7586 37.0309 35.6172 32.3374 34.3084C32.3374 34.3084 36.6194 34.3273 40.7705 36.5337C40.7705 36.5337 39.8171 38.1978 39.1811 38.759V38.7586Z" fill="#0D0D0D"/>
<path d="M41.1635 34.455C41.1635 34.455 38.7515 32.473 32.8428 33.1274C32.8428 33.1274 35.5538 30.603 41.3132 32.0242C41.3132 32.0242 41.5561 33.1274 41.1635 34.455Z" fill="#0D0D0D"/>
<path d="M39.9161 28.2221C35.4659 27.8294 32.8668 29.5308 32.8668 29.5308C34.4751 27.1935 38.6262 26.3709 38.6262 26.3709C38.1962 25.9972 37.0557 25.1557 37.0557 25.1557C34.8119 25.4737 32.0069 27.6612 32.0069 27.6612C33.0166 25.5483 35.4474 24.2211 35.4474 24.2211L33.5774 23.8843C30.9783 25.1184 30.1931 27.3059 30.2304 27.493C30.2682 27.6801 30.6792 27.9419 30.6792 27.9419C30.1117 27.8957 29.3218 28.3014 28.8025 28.6168C28.469 28.8194 28.2601 29.176 28.2471 29.5657L28.2295 30.0921C26.5281 31.2515 25.1396 33.1916 25.1396 33.1916H26.0826C26.2592 33.1916 26.4341 33.1555 26.5965 33.0859L27.0705 32.882C26.474 33.4349 26.1304 33.9525 25.9392 34.3158C25.7479 34.6795 25.7924 35.1245 26.0596 35.4366C26.8566 36.3674 28.2702 35.8276 28.2702 35.8276C29.8533 34.9114 28.211 34.023 28.211 34.023L30.2774 32.6081C30.2732 32.6119 30.269 32.6161 30.2648 32.6199C29.8952 32.9731 30.2686 33.5842 30.7506 33.4135C30.7531 33.4127 30.756 33.4114 30.7589 33.4106C30.8613 33.3728 30.9502 33.3057 31.019 33.221C34.77 28.6038 41.0571 29.9688 41.0571 29.9688C40.758 28.9855 39.9165 28.2217 39.9165 28.2217L39.9161 28.2221ZM31.5845 29.6617C31.5492 29.7678 31.488 29.8631 31.4079 29.9411C31.1193 30.2221 30.2363 30.9562 28.847 31.0011C28.847 31.0011 28.9577 30.4474 29.3122 30.0271C29.5127 29.7892 29.8101 29.655 30.1213 29.655H31.5866C31.5866 29.655 31.5857 29.6571 31.5845 29.6613V29.6617Z" fill="#0D0D0D"/>
<path d="M28.5628 37.8825C28.4785 37.3011 28.1605 36.9387 27.6655 36.802C27.0942 36.6443 26.5262 36.476 25.9478 36.3095C25.8924 37.0293 26.2079 37.6862 26.499 38.3897C27.1575 38.0877 27.7993 37.7303 28.5624 37.8825H28.5628Z" fill="#0D0D0D"/>
</g>
</g>
</g>
<defs>
<filter id="filter0_b_1320_15589" x="-12.57" y="-12.57" width="385.899" height="270.255" filterUnits="userSpaceOnUse" color-interpolation-filters="sRGB">
<feFlood flood-opacity="0" result="BackgroundImageFix"/>
<feGaussianBlur in="BackgroundImageFix" stdDeviation="6.285"/>
<feComposite in2="SourceAlpha" operator="in" result="effect1_backgroundBlur_1320_15589"/>
<feBlend mode="normal" in="SourceGraphic" in2="effect1_backgroundBlur_1320_15589" result="shape"/>
</filter>
<filter id="filter1_d_1320_15589" x="21.3172" y="63.2171" width="138.383" height="21.3583" filterUnits="userSpaceOnUse" color-interpolation-filters="sRGB">
<feFlood flood-opacity="0" result="BackgroundImageFix"/>
<feColorMatrix in="SourceAlpha" type="matrix" values="0 0 0 0 0 0 0 0 0 0 0 0 0 0 0 0 0 0 127 0" result="hardAlpha"/>
<feOffset/>
<feGaussianBlur stdDeviation="2.514"/>
<feComposite in2="hardAlpha" operator="out"/>
<feColorMatrix type="matrix" values="0 0 0 0 0 0 0 0 0 0 0 0 0 0 0 0 0 0 0.16 0"/>
<feBlend mode="normal" in2="BackgroundImageFix" result="effect1_dropShadow_1320_15589"/>
<feBlend mode="normal" in="SourceGraphic" in2="effect1_dropShadow_1320_15589" result="shape"/>
</filter>
<filter id="filter2_d_1320_15589" x="21.1532" y="134.761" width="268.143" height="24.1383" filterUnits="userSpaceOnUse" color-interpolation-filters="sRGB">
<feFlood flood-opacity="0" result="BackgroundImageFix"/>
<feColorMatrix in="SourceAlpha" type="matrix" values="0 0 0 0 0 0 0 0 0 0 0 0 0 0 0 0 0 0 127 0" result="hardAlpha"/>
<feOffset/>
<feGaussianBlur stdDeviation="2.514"/>
<feComposite in2="hardAlpha" operator="out"/>
<feColorMatrix type="matrix" values="0 0 0 0 0 0 0 0 0 0 0 0 0 0 0 0 0 0 0.16 0"/>
<feBlend mode="normal" in2="BackgroundImageFix" result="effect1_dropShadow_1320_15589"/>
<feBlend mode="normal" in="SourceGraphic" in2="effect1_dropShadow_1320_15589" result="shape"/>
</filter>
<filter id="filter3_d_1320_15589" x="20.7952" y="207.321" width="43.638" height="21.0011" filterUnits="userSpaceOnUse" color-interpolation-filters="sRGB">
<feFlood flood-opacity="0" result="BackgroundImageFix"/>
<feColorMatrix in="SourceAlpha" type="matrix" values="0 0 0 0 0 0 0 0 0 0 0 0 0 0 0 0 0 0 127 0" result="hardAlpha"/>
<feOffset/>
<feGaussianBlur stdDeviation="2.514"/>
<feComposite in2="hardAlpha" operator="out"/>
<feColorMatrix type="matrix" values="0 0 0 0 0 0 0 0 0 0 0 0 0 0 0 0 0 0 0.16 0"/>
<feBlend mode="normal" in2="BackgroundImageFix" result="effect1_dropShadow_1320_15589"/>
<feBlend mode="normal" in="SourceGraphic" in2="effect1_dropShadow_1320_15589" result="shape"/>
</filter>
<linearGradient id="paint0_linear_1320_15589" x1="335.517" y1="-43" x2="335.517" y2="186.034" gradientUnits="userSpaceOnUse">
<stop/>
<stop offset="1" stop-opacity="0"/>
</linearGradient>
<linearGradient id="paint1_linear_1320_15589" x1="261.586" y1="-142.668" x2="261.586" y2="86.366" gradientUnits="userSpaceOnUse">
<stop/>
<stop offset="1" stop-opacity="0"/>
</linearGradient>
<clipPath id="clip0_1320_15589">
<rect width="360.759" height="245.115" rx="20.112" fill="white"/>
</clipPath>
<clipPath id="clip1_1320_15589">
<rect x="294.766" y="71.649" width="40.8525" height="31.425" rx="5.028" fill="white"/>
</clipPath>
<clipPath id="clip2_1320_15589">
<rect width="51.2012" height="18.855" fill="white" transform="translate(25.1401 23.8832)"/>
</clipPath>
</defs>
</svg>
