<?xml version="1.0" encoding="utf-8"?>
<svg viewBox="0 0 137.88415 150.88729" xmlns="http://www.w3.org/2000/svg">
  <defs>
    <style>.a{fill:#efeee9;}.b{fill:#7171d4;}.c{fill:#7070d1;}.d,.o{fill:#8080f3;}.e{fill:#5959ab;}.f{fill:#f2cb63;stroke:#f2cb63;stroke-linecap:round;stroke-linejoin:round;}.f,.o{stroke-width:0.25px;}.g{fill:#ece8e8;}.h{fill:#eeede8;}.i{fill:#f5f5f5;}.j{fill:gray;}.k{fill:#23cd7c;}.l,.n{fill:#fff;}.m{fill:#6d6e71;}.n{fill-rule:evenodd;}.o{stroke:#8080f3;stroke-miterlimit:10;}</style>
  </defs>
  <title>Asset 300</title>
  <rect class="a" x="4.48577" width="133.39838" height="150.88729" rx="6.8394"/>
  <path class="f" d="M72.98584,40.96659l.69857,3.90208c-1.46524-.73724-2.84057-1.3965-4.181-2.12039a1.2498,1.2498,0,0,0-1.39142.03387c-1.29943.7572-2.63374,1.45452-4.05608,2.23136.03827-.48.06869-.86144.09913-1.24289.2051-1.24636.40157-2.49423.62021-3.7382.07041-.40055-.16319-.61679-.40883-.84638q-1.53183-1.43176-3.061-2.86638c-.11024-.10362-.2974-.199-.2621-.36.0466-.2126.27866-.174.44438-.20126,1.37873-.22659,2.75585-.46512,4.13874-.6631a1.034,1.034,0,0,0,.89079-.66768c.6509-1.42979,1.33474-2.84459,2.07289-4.4065.4361.84458.80713,1.56435,1.17933,2.28351a9.19278,9.19278,0,0,1,.72117,1.42219A1.89148,1.89148,0,0,0,72.48151,35.094c1.12688.06914,2.24614.263,3.36858.40375.17386.0218.40624-.00334.476.17171.075.18843-.13917.30439-.2588.425-.87538.88244-1.72124,1.7986-2.647,2.625a1.46607,1.46607,0,0,0-.53863,1.79431A3.09485,3.09485,0,0,1,72.98584,40.96659Z"/>
  <path class="f" d="M92.817,53.22916l-3.63486-1.48761L91.469,50.28092c.6694-.39363,1.33121-.80105,2.01125-1.17533.36314-.19986.36281-.51722.38153-.85345q.11854-2.12916.24859-4.25768c.00758-.126.03763-.25069.06637-.43421a3.7228,3.7228,0,0,1,.92733.69759c.8468.71917,1.72008,1.41193,2.51712,2.18315a1.38443,1.38443,0,0,0,1.55017.34227c1.39948-.41594,2.82142-.75623,4.23887-1.12852.13011.31423-.059.51563-.14521.72648-.50461,1.23357-1.00381,2.47024-1.55154,3.68482a1.05278,1.05278,0,0,0,.11189,1.15806c.73348,1.08605,1.42832,2.19836,2.12931,3.30606a.97515.97515,0,0,1,.28437.7273c-1.45779-.11809-2.91634-.19737-4.36355-.3711a1.38208,1.38208,0,0,0-1.4616.60407c-.76853,1.033-1.61319,2.00972-2.43552,3.00212-.15077.182-.2598.42352-.53.47831l.01267.00676A25.97,25.97,0,0,1,94.188,54.968C94.027,54.12267,93.35807,53.74081,92.817,53.22916Z"/>
  <path class="d" d="M86.77176,40.00837a6.991,6.991,0,0,0-.97236,2.57982c-.076.26631.18255.48561.34371.69409.40719.52677.82309,1.04679,1.23519,1.56977.27543.34953.18554.50574-.2543.50264-.6882-.00484-1.377.02-2.06456-.00056a1.03072,1.03072,0,0,0-.98816.53542c-.34348.54383-.72277,1.06533-1.09528,1.59032-.09817.13838-.153.37189-.35833.35344-.21071-.01893-.215-.25662-.27032-.416-.20374-.58734-.42612-1.17067-.58476-1.77051a1.19986,1.19986,0,0,0-.99737-.934c-.62606-.14634-1.23668-.35753-1.85859-.52336-.40205-.1072-.42977-.2652-.1041-.50626.53527-.39621,1.058-.81161,1.613-1.1781a1.034,1.034,0,0,0,.545-1.09761,15.2601,15.2601,0,0,1-.02956-1.8632c.00136-.1879-.08519-.44176.1451-.53637.20833-.08559.3657.11687.5233.22716.5092.35632,1.01847.71364,1.51076,1.09259a.95432.95432,0,0,0,1.05352.1498,8.121,8.121,0,0,0,2.236-.96263C86.64518,39.58789,86.69379,39.8092,86.77176,40.00837Z"/>
  <path class="f" d="M84.06917,36.2528a1.63916,1.63916,0,0,1,.081-1.00624,1.46572,1.46572,0,0,0-.643-1.827,3.8222,3.8222,0,0,1-.48552-.4549c-.22471-.21819-.23375-.42337.12558-.4081a2.38,2.38,0,0,0,2.54705-1.99232c.01761-.05848.07647-.10454.14954-.20008a3.12369,3.12369,0,0,1,.65707,1.13441,1.22025,1.22025,0,0,0,1.19744.84245c.39988.02072,1.03823-.098,1.16384.24774.12888.35469-.45133.63477-.74512.911a1.23458,1.23458,0,0,0-.43831,1.40922,9.36615,9.36615,0,0,1,.226,1.3035,4.74791,4.74791,0,0,1-1.43046-.6336.91141.91141,0,0,0-1.043.00336A4.54611,4.54611,0,0,1,84.06917,36.2528Z"/>
  <path class="g" d="M83.96,62.53466a23.87342,23.87342,0,0,0-5.89658,7.78749c-.21691.44994-.39045.60329-.87438.34641a18.20724,18.20724,0,0,0-1.99961-.89534c-.43505-.16741-.4404-.366-.25834-.74735a28.31627,28.31627,0,0,1,5.20008-7.51162c.13819-.14329.271-.29178.40653-.438a34.54818,34.54818,0,0,1,7.85294-5.76986c.54557-.29345.79409-.23033,1.02562.33808A16.7877,16.7877,0,0,0,90.33332,57.49c.20841.37262.15856.55017-.236.75319a28.48588,28.48588,0,0,0-5.86265,4.00607C84.13606,62.33647,84.0512,62.43918,83.96,62.53466Z"/>
  <path class="g" d="M71.7433,57.09855a29.59422,29.59422,0,0,1-2.10869,9.43578c-.2108.51331-.40147.63573-.9038.362a12.434,12.434,0,0,0-1.82065-.81145c-.52184-.18334-.60157-.4043-.38448-.91538a24.41688,24.41688,0,0,0,1.879-9.26586c.002-.13229-.0186-.26494-.02867-.39737a25.13959,25.13959,0,0,0-.87393-7.10849c-.16118-.61743-.06058-.86846.5756-.98145a11.59873,11.59873,0,0,0,1.85811-.51223c.52472-.18729.69332.003.81525.492a33.6,33.6,0,0,1,.98183,9.437C71.72958,56.92129,71.73953,57.01,71.7433,57.09855Z"/>
  <path class="g" d="M77.64836,59.75941c-1.16164,2.925-2.44839,5.79489-3.77269,8.64928-.23273.50162-.41627.69467-.95969.37573a13.11839,13.11839,0,0,0-1.86205-.87758c-.46527-.18208-.51741-.37336-.3012-.82432,1.2357-2.57718,2.408-5.18372,3.46753-7.83934.12255-.30716.21463-.62647.32083-.94015a39.955,39.955,0,0,0,2.23452-7.0916c.12267-.55884.30632-.744.8826-.57452a9.75789,9.75789,0,0,0,1.82709.355c.68307.06432.74342.36854.60116.96185a57.72672,57.72672,0,0,1-1.91531,6.36793Q77.90853,59.04011,77.64836,59.75941Z"/>
  <path class="h" d="M92.817,53.22916a1.85913,1.85913,0,0,1,1.75145,1.79292c.19288,1.33366.58611,2.63833.89264,3.95555-.87138-1.55677-1.48609-3.23331-2.25518-4.83788C93.06334,53.8424,92.946,53.533,92.817,53.22916Z"/>
  <path class="i" d="M39.62383,79.83661c.20172-.07573.2596-.25585.361-.39677a3.9618,3.9618,0,0,1,4.40359-1.73514,4.29531,4.29531,0,0,1,3.0559,3.809,5.76079,5.76079,0,0,1-1.70948,4.532,65.06077,65.06077,0,0,1-5.63327,5.08748.58436.58436,0,0,1-.84211.02288,51.35261,51.35261,0,0,1-6.02212-5.54273,5.22618,5.22618,0,0,1-1.2553-4.65038A3.99739,3.99739,0,0,1,35.033,77.69168a3.83881,3.83881,0,0,1,4.20808,1.6089c.06691.08856.12927.18057.19374.271Z"/>
  <path class="j" d="M.03834,25.15437a3.03992,3.03992,0,0,0,.815,2.57675L4.4935,32.35293V27.11761Z"/>
  <rect class="k" y="7.97231" width="67.73962" height="19.53576" rx="1.10252" style="fill: rgb(255, 193, 37);"/>
  <path class="n" d="M5.46649,14.63377v6.68472H16.16205V14.63377ZM4.798,13.96529h12.0325V21.987H4.798Zm9.41525,6.68355q-.02817.00117-.05664.00118H7.47191q-.02847,0-.05664-.00118a1.00342,1.00342,0,0,0-1.27913-1.27913q-.00117-.02817-.00117-.05664V16.63918q0-.02845.00117-.05664a1.00341,1.00341,0,0,0,1.27913-1.27912q.02817-.00118.05664-.00118h6.68472q.02847,0,.05664.00118a1.00341,1.00341,0,0,0,1.27913,1.27912q.00117.02819.00118.05664v2.67389q0,.02847-.00118.05664a1.00342,1.00342,0,0,0-1.27913,1.27913Zm-3.399-1.33577a1.33695,1.33695,0,1,0-1.33694-1.33694A1.33694,1.33694,0,0,0,10.81427,19.31307Z"/>
  <path class="o" d="M80.84951,25.18622a.30622.30622,0,0,0-.30613-.11051l-1.89785.44011-1.48129-1.388a.29493.29493,0,0,0-.50215.20041l-.11849,2.02648-1.67943.98757a.30626.30626,0,0,0-.14592.29093.32938.32938,0,0,0,.19152.274l1.82456.81218.44327,1.99853a.32567.32567,0,0,0,.2265.244.28872.28872,0,0,0,.30383-.09523l1.24632-1.52441,1.95342.2474a.29285.29285,0,0,0,.14457-.01843.30983.30983,0,0,0,.1619-.40649.33524.33524,0,0,0-.03332-.06311L80.1353,27.3621l.764-1.84528A.32935.32935,0,0,0,80.84951,25.18622Z"/>
  <path class="o" d="M102.82324,32.86845a.42643.42643,0,0,0-.35311-.28417l-2.69867-.27984-1.3222-2.49878a.41073.41073,0,0,0-.75206.03653l-1.07374,2.61512-2.65894.54005a.42649.42649,0,0,0-.32391.31705.45873.45873,0,0,0,.12811.44763l2.03507,1.89584-.32127,2.8327a.45347.45347,0,0,0,.18779.42389.402.402,0,0,0,.44325.01218l2.33166-1.44316,2.46051,1.21041a.40792.40792,0,0,0,.19874.0412.43151.43151,0,0,0,.3973-.462.4662.4662,0,0,0-.01531-.09819l-.58914-2.76437,1.84176-2.08416A.45865.45865,0,0,0,102.82324,32.86845Z"/>
  <text style="fill: rgb(51, 51, 51); font-family: Arial, sans-serif; font-size: 7px; font-weight: 700; white-space: pre;" x="27.387" y="20.428">TSH 50,000</text>
  <path d="M 44.077 59.38 C 44.077 54.765 44.077 52.457 45.188 51.023 C 46.298 49.589 48.084 49.589 51.659 49.589 L 91.076 49.589 C 94.649 49.589 96.436 49.589 97.547 51.023 C 98.657 52.457 98.657 54.765 98.657 59.38 L 98.657 88.998 C 98.657 93.613 98.657 95.921 97.547 97.355 C 96.436 98.789 94.649 98.789 91.076 98.789 L 51.659 98.789 C 48.084 98.789 46.298 98.789 45.188 97.355 C 44.077 95.921 44.077 93.613 44.077 88.998 L 44.077 59.38 Z" style="fill: rgba(13, 13, 13, 0.6);"/>
  <circle cx="68.926" cy="71.851" r="47.5" fill="#12D18E" fill-opacity="0.08" stroke="#12D18E" style="" transform="matrix(0.18951, 0, 0, 0.244773, 58.754379, 54.24004)"/>
  <path d="M 75.631 68.31 C 75.579 68.241 75.515 68.186 75.446 68.15 C 75.376 68.112 75.302 68.093 75.228 68.093 C 75.152 68.093 75.078 68.112 75.009 68.15 C 74.94 68.186 74.877 68.241 74.824 68.31 L 70.588 73.788 L 68.808 71.482 C 68.753 71.413 68.689 71.36 68.618 71.323 C 68.547 71.288 68.472 71.269 68.395 71.272 C 68.319 71.273 68.243 71.294 68.173 71.334 C 68.104 71.373 68.04 71.43 67.987 71.5 C 67.934 71.571 67.893 71.655 67.864 71.747 C 67.837 71.838 67.822 71.937 67.824 72.035 C 67.825 72.133 67.842 72.23 67.872 72.321 C 67.903 72.411 67.946 72.493 68.001 72.561 L 70.184 75.381 C 70.237 75.451 70.3 75.505 70.369 75.542 C 70.438 75.58 70.512 75.599 70.588 75.599 C 70.664 75.599 70.738 75.58 70.807 75.542 C 70.876 75.505 70.939 75.451 70.992 75.381 L 75.631 69.389 C 75.688 69.321 75.735 69.237 75.766 69.143 C 75.798 69.051 75.815 68.951 75.815 68.85 C 75.815 68.748 75.798 68.648 75.766 68.555 C 75.735 68.462 75.688 68.378 75.631 68.31 Z" fill="#12D18E" style=""/>
  <path d="M 55.884 89.427 L 55.884 90.114 L 54.952 90.114 L 54.952 93.367 L 54.42 93.367 L 54.42 90.114 L 53.487 90.114 L 53.487 89.427 L 55.884 89.427 Z M 56.947 93.44 C 56.746 93.44 56.563 93.373 56.398 93.241 C 56.233 93.108 56.102 92.93 56.003 92.706 C 55.906 92.481 55.857 92.232 55.857 91.96 C 55.857 91.754 55.885 91.561 55.941 91.383 C 55.999 91.202 56.076 91.044 56.175 90.91 C 56.275 90.772 56.391 90.666 56.524 90.589 C 56.656 90.512 56.797 90.474 56.947 90.474 C 57.148 90.474 57.33 90.54 57.493 90.674 C 57.659 90.807 57.79 90.986 57.888 91.211 C 57.987 91.436 58.037 91.685 58.037 91.96 C 58.037 92.165 58.008 92.356 57.951 92.534 C 57.895 92.712 57.817 92.87 57.716 93.007 C 57.617 93.142 57.502 93.248 57.369 93.325 C 57.239 93.403 57.098 93.44 56.947 93.44 Z M 56.947 92.754 C 57.052 92.754 57.148 92.717 57.232 92.644 C 57.317 92.57 57.382 92.474 57.431 92.354 C 57.48 92.234 57.505 92.103 57.505 91.96 C 57.505 91.813 57.479 91.68 57.428 91.56 C 57.378 91.439 57.312 91.341 57.226 91.271 C 57.141 91.197 57.048 91.161 56.947 91.161 C 56.842 91.161 56.747 91.197 56.664 91.271 C 56.579 91.343 56.513 91.441 56.463 91.563 C 56.413 91.685 56.389 91.817 56.389 91.96 C 56.389 92.108 56.415 92.242 56.466 92.362 C 56.516 92.482 56.583 92.578 56.668 92.649 C 56.754 92.718 56.846 92.754 56.947 92.754 Z M 58.908 94.774 L 58.376 94.774 L 58.376 90.552 L 58.908 90.552 L 58.908 90.91 C 58.978 90.783 59.066 90.679 59.169 90.6 C 59.273 90.519 59.396 90.479 59.535 90.479 C 59.694 90.479 59.844 90.518 59.983 90.594 C 60.119 90.671 60.241 90.779 60.346 90.915 C 60.452 91.051 60.534 91.207 60.593 91.386 C 60.651 91.564 60.681 91.755 60.681 91.96 C 60.681 92.165 60.651 92.357 60.593 92.536 C 60.534 92.717 60.452 92.875 60.346 93.013 C 60.241 93.147 60.119 93.253 59.983 93.33 C 59.844 93.408 59.694 93.446 59.535 93.446 C 59.396 93.446 59.273 93.406 59.169 93.328 C 59.066 93.247 58.978 93.143 58.908 93.016 L 58.908 94.774 Z M 59.529 91.14 C 59.418 91.14 59.32 91.178 59.233 91.253 C 59.145 91.326 59.076 91.425 59.028 91.549 C 58.978 91.673 58.954 91.809 58.954 91.96 C 58.954 92.11 58.978 92.248 59.028 92.373 C 59.076 92.497 59.145 92.597 59.233 92.672 C 59.32 92.745 59.418 92.782 59.529 92.782 C 59.641 92.782 59.743 92.745 59.836 92.672 C 59.929 92.598 60.003 92.5 60.058 92.377 C 60.113 92.251 60.14 92.111 60.14 91.96 C 60.14 91.809 60.113 91.673 60.058 91.549 C 60.003 91.425 59.929 91.326 59.836 91.253 C 59.744 91.178 59.642 91.14 59.529 91.14 Z M 63.344 93.44 C 63.1 93.44 62.885 93.363 62.701 93.209 C 62.518 93.056 62.375 92.85 62.274 92.591 C 62.172 92.329 62.121 92.041 62.121 91.723 L 62.121 89.427 L 62.653 89.427 L 62.653 91.723 C 62.653 91.912 62.681 92.084 62.734 92.242 C 62.789 92.397 62.867 92.522 62.969 92.616 C 63.073 92.707 63.197 92.754 63.344 92.754 C 63.492 92.754 63.617 92.707 63.719 92.616 C 63.82 92.522 63.897 92.397 63.949 92.242 C 64.004 92.084 64.03 91.912 64.03 91.723 L 64.03 89.427 L 64.562 89.427 L 64.562 91.723 C 64.562 91.962 64.534 92.185 64.475 92.393 C 64.418 92.6 64.334 92.782 64.227 92.94 C 64.119 93.097 63.991 93.22 63.841 93.308 C 63.692 93.396 63.527 93.44 63.344 93.44 Z M 65.616 94.774 L 65.084 94.774 L 65.084 90.552 L 65.616 90.552 L 65.616 90.91 C 65.688 90.783 65.774 90.679 65.878 90.6 C 65.982 90.519 66.104 90.479 66.243 90.479 C 66.404 90.479 66.552 90.518 66.69 90.594 C 66.829 90.671 66.95 90.779 67.054 90.915 C 67.16 91.051 67.242 91.207 67.301 91.386 C 67.361 91.564 67.389 91.755 67.389 91.96 C 67.389 92.165 67.361 92.357 67.301 92.536 C 67.242 92.717 67.16 92.875 67.054 93.013 C 66.95 93.147 66.829 93.253 66.69 93.33 C 66.552 93.408 66.404 93.446 66.243 93.446 C 66.104 93.446 65.982 93.406 65.878 93.328 C 65.774 93.247 65.688 93.143 65.616 93.016 L 65.616 94.774 Z M 66.237 91.14 C 66.127 91.14 66.028 91.178 65.941 91.253 C 65.853 91.326 65.785 91.425 65.736 91.549 C 65.686 91.673 65.662 91.809 65.662 91.96 C 65.662 92.11 65.686 92.248 65.736 92.373 C 65.785 92.497 65.853 92.597 65.941 92.672 C 66.028 92.745 66.127 92.782 66.237 92.782 C 66.349 92.782 66.452 92.745 66.544 92.672 C 66.637 92.598 66.711 92.5 66.766 92.377 C 66.822 92.251 66.849 92.111 66.849 91.96 C 66.849 91.809 66.822 91.673 66.766 91.549 C 66.711 91.425 66.637 91.326 66.544 91.253 C 66.453 91.178 66.35 91.14 66.237 91.14 Z M 69.928 93.44 C 69.76 93.44 69.598 93.406 69.442 93.339 C 69.288 93.27 69.154 93.171 69.036 93.043 C 68.92 92.914 68.837 92.759 68.786 92.579 L 69.285 92.343 C 69.306 92.417 69.347 92.486 69.409 92.548 C 69.472 92.61 69.549 92.66 69.639 92.697 C 69.729 92.735 69.825 92.754 69.928 92.754 C 70.034 92.754 70.133 92.734 70.224 92.692 C 70.318 92.649 70.393 92.589 70.449 92.515 C 70.506 92.438 70.535 92.348 70.535 92.247 C 70.535 92.143 70.505 92.06 70.445 91.994 C 70.385 91.926 70.309 91.872 70.216 91.833 C 70.123 91.794 70.027 91.764 69.928 91.744 C 69.712 91.699 69.518 91.634 69.347 91.544 C 69.175 91.453 69.039 91.329 68.939 91.168 C 68.841 91.009 68.791 90.803 68.791 90.55 C 68.791 90.311 68.843 90.103 68.95 89.924 C 69.056 89.747 69.195 89.608 69.369 89.508 C 69.541 89.408 69.727 89.359 69.928 89.359 C 70.095 89.359 70.257 89.393 70.412 89.46 C 70.567 89.528 70.703 89.627 70.82 89.756 C 70.938 89.885 71.021 90.042 71.072 90.222 L 70.571 90.456 C 70.55 90.382 70.51 90.313 70.447 90.251 C 70.385 90.189 70.308 90.14 70.218 90.105 C 70.128 90.067 70.031 90.048 69.928 90.048 C 69.825 90.047 69.727 90.068 69.634 90.114 C 69.542 90.157 69.468 90.216 69.409 90.291 C 69.352 90.365 69.322 90.452 69.322 90.55 C 69.322 90.675 69.349 90.77 69.403 90.834 C 69.459 90.898 69.532 90.944 69.623 90.975 C 69.714 91.003 69.816 91.029 69.928 91.053 C 70.132 91.095 70.319 91.164 70.493 91.262 C 70.665 91.359 70.805 91.489 70.909 91.652 C 71.013 91.814 71.065 92.013 71.065 92.247 C 71.065 92.486 71.013 92.694 70.909 92.874 C 70.805 93.054 70.665 93.191 70.493 93.291 C 70.319 93.391 70.132 93.44 69.928 93.44 Z M 71.411 92.325 L 71.411 90.552 L 71.943 90.552 L 71.943 92.146 C 71.943 92.256 71.964 92.358 72.007 92.449 C 72.049 92.54 72.105 92.612 72.174 92.667 C 72.246 92.718 72.324 92.745 72.407 92.745 C 72.495 92.745 72.573 92.718 72.643 92.667 C 72.712 92.612 72.768 92.54 72.81 92.449 C 72.853 92.358 72.874 92.256 72.874 92.146 L 72.874 90.552 L 73.406 90.552 L 73.407 93.367 L 72.877 93.367 L 72.874 93.11 C 72.798 93.213 72.71 93.293 72.605 93.353 C 72.502 93.411 72.393 93.44 72.274 93.44 C 72.116 93.44 71.972 93.391 71.841 93.291 C 71.71 93.19 71.605 93.056 71.527 92.889 C 71.45 92.72 71.411 92.533 71.411 92.325 Z M 75.161 92.52 L 75.641 92.855 C 75.541 93.032 75.414 93.172 75.264 93.28 C 75.113 93.387 74.947 93.44 74.769 93.44 C 74.568 93.44 74.385 93.373 74.22 93.241 C 74.056 93.108 73.924 92.93 73.826 92.706 C 73.728 92.481 73.68 92.232 73.68 91.96 C 73.68 91.754 73.707 91.561 73.765 91.383 C 73.821 91.202 73.899 91.044 73.998 90.91 C 74.097 90.772 74.215 90.666 74.346 90.589 C 74.478 90.512 74.619 90.474 74.769 90.474 C 74.947 90.474 75.113 90.527 75.264 90.633 C 75.414 90.741 75.541 90.885 75.641 91.064 L 75.161 91.397 C 75.11 91.321 75.05 91.264 74.98 91.223 C 74.912 91.181 74.842 91.161 74.769 91.161 C 74.664 91.161 74.571 91.197 74.486 91.273 C 74.401 91.346 74.335 91.444 74.285 91.565 C 74.235 91.685 74.211 91.817 74.211 91.96 C 74.211 92.1 74.235 92.232 74.285 92.354 C 74.335 92.474 74.401 92.57 74.486 92.644 C 74.571 92.717 74.664 92.754 74.769 92.754 C 74.844 92.754 74.916 92.734 74.985 92.692 C 75.053 92.649 75.112 92.591 75.161 92.52 Z M 76.923 93.44 C 76.722 93.44 76.54 93.373 76.374 93.241 C 76.21 93.108 76.078 92.928 75.979 92.703 C 75.882 92.478 75.833 92.229 75.833 91.957 C 75.833 91.752 75.862 91.561 75.918 91.383 C 75.975 91.202 76.053 91.044 76.151 90.91 C 76.251 90.772 76.368 90.666 76.501 90.589 C 76.632 90.512 76.773 90.474 76.923 90.474 C 77.093 90.474 77.248 90.521 77.39 90.614 C 77.532 90.707 77.652 90.833 77.751 90.994 C 77.85 91.156 77.922 91.34 77.966 91.546 C 78.012 91.752 78.022 91.969 77.998 92.194 L 76.404 92.194 C 76.425 92.299 76.458 92.393 76.504 92.478 C 76.551 92.56 76.61 92.627 76.68 92.678 C 76.752 92.726 76.833 92.751 76.923 92.754 C 77.016 92.755 77.1 92.727 77.176 92.669 C 77.253 92.61 77.317 92.529 77.368 92.428 L 77.91 92.591 C 77.822 92.84 77.69 93.045 77.514 93.204 C 77.338 93.362 77.141 93.44 76.923 93.44 Z M 76.387 91.678 L 77.459 91.678 C 77.443 91.565 77.409 91.464 77.356 91.374 C 77.305 91.282 77.243 91.209 77.167 91.154 C 77.091 91.1 77.01 91.073 76.923 91.073 C 76.836 91.073 76.755 91.1 76.68 91.154 C 76.606 91.207 76.544 91.279 76.491 91.372 C 76.441 91.462 76.405 91.564 76.387 91.678 Z M 79.012 93.418 C 78.899 93.409 78.789 93.38 78.682 93.33 C 78.578 93.28 78.485 93.212 78.403 93.126 C 78.322 93.038 78.26 92.936 78.217 92.816 L 78.665 92.568 C 78.682 92.606 78.711 92.645 78.75 92.689 C 78.789 92.73 78.836 92.765 78.89 92.793 C 78.946 92.821 79.006 92.835 79.071 92.835 C 79.126 92.835 79.178 92.826 79.227 92.807 C 79.278 92.787 79.319 92.755 79.35 92.715 C 79.381 92.673 79.398 92.62 79.398 92.554 C 79.398 92.485 79.379 92.43 79.341 92.393 C 79.304 92.354 79.259 92.325 79.201 92.306 C 79.146 92.286 79.093 92.267 79.041 92.249 C 78.903 92.214 78.773 92.158 78.655 92.084 C 78.537 92.009 78.442 91.912 78.369 91.794 C 78.297 91.674 78.262 91.529 78.262 91.36 C 78.262 91.174 78.3 91.014 78.376 90.879 C 78.453 90.743 78.552 90.64 78.674 90.566 C 78.797 90.493 78.93 90.456 79.073 90.456 C 79.246 90.456 79.405 90.503 79.548 90.598 C 79.693 90.689 79.808 90.819 79.892 90.989 L 79.471 91.31 C 79.452 91.264 79.423 91.224 79.386 91.186 C 79.35 91.147 79.309 91.114 79.262 91.09 C 79.216 91.063 79.167 91.049 79.116 91.044 C 79.051 91.042 78.991 91.049 78.938 91.067 C 78.884 91.086 78.84 91.118 78.807 91.163 C 78.775 91.209 78.759 91.268 78.759 91.343 C 78.759 91.415 78.781 91.468 78.824 91.503 C 78.869 91.537 78.921 91.564 78.981 91.583 C 79.043 91.602 79.103 91.622 79.159 91.645 C 79.287 91.699 79.407 91.765 79.519 91.845 C 79.633 91.923 79.724 92.019 79.792 92.134 C 79.86 92.249 79.894 92.386 79.89 92.545 C 79.89 92.727 79.848 92.887 79.763 93.024 C 79.68 93.158 79.57 93.262 79.437 93.333 C 79.304 93.405 79.163 93.433 79.012 93.418 Z M 80.906 93.418 C 80.792 93.409 80.683 93.38 80.577 93.33 C 80.473 93.28 80.38 93.212 80.298 93.126 C 80.217 93.038 80.154 92.936 80.11 92.816 L 80.56 92.568 C 80.577 92.606 80.606 92.645 80.645 92.689 C 80.684 92.73 80.731 92.765 80.784 92.793 C 80.839 92.821 80.899 92.835 80.964 92.835 C 81.02 92.835 81.072 92.826 81.122 92.807 C 81.173 92.787 81.213 92.755 81.243 92.715 C 81.276 92.673 81.292 92.62 81.292 92.554 C 81.292 92.485 81.273 92.43 81.235 92.393 C 81.199 92.354 81.152 92.325 81.096 92.306 C 81.04 92.286 80.986 92.267 80.934 92.249 C 80.796 92.214 80.668 92.158 80.548 92.084 C 80.431 92.009 80.336 91.912 80.263 91.794 C 80.192 91.674 80.156 91.529 80.156 91.36 C 80.156 91.174 80.194 91.014 80.269 90.879 C 80.346 90.743 80.447 90.64 80.568 90.566 C 80.692 90.493 80.825 90.456 80.967 90.456 C 81.14 90.456 81.298 90.503 81.443 90.598 C 81.588 90.689 81.702 90.819 81.787 90.989 L 81.366 91.31 C 81.345 91.264 81.318 91.224 81.281 91.186 C 81.245 91.147 81.203 91.114 81.157 91.09 C 81.11 91.063 81.062 91.049 81.011 91.044 C 80.945 91.042 80.886 91.049 80.832 91.067 C 80.778 91.086 80.735 91.118 80.701 91.163 C 80.669 91.209 80.654 91.268 80.654 91.343 C 80.654 91.415 80.675 91.468 80.719 91.503 C 80.762 91.537 80.814 91.564 80.876 91.583 C 80.938 91.602 80.998 91.622 81.054 91.645 C 81.182 91.699 81.302 91.765 81.414 91.845 C 81.528 91.923 81.618 92.019 81.687 92.134 C 81.754 92.249 81.787 92.386 81.784 92.545 C 81.784 92.727 81.743 92.887 81.658 93.024 C 81.573 93.158 81.465 93.262 81.331 93.333 C 81.199 93.405 81.057 93.433 80.906 93.418 Z M 82.774 89.962 L 82.774 90.552 L 83.369 90.552 L 83.369 91.239 L 82.774 91.239 L 82.774 93.367 L 82.242 93.367 L 82.242 91.239 L 82.005 91.239 L 82.005 90.552 L 82.242 90.552 L 82.242 89.962 C 82.242 89.8 82.273 89.652 82.333 89.519 C 82.396 89.384 82.479 89.277 82.585 89.198 C 82.689 89.117 82.804 89.078 82.931 89.078 C 83.022 89.078 83.113 89.102 83.203 89.15 C 83.293 89.199 83.374 89.274 83.443 89.375 L 83.06 89.859 C 83.047 89.828 83.027 89.805 83.002 89.79 C 82.98 89.772 82.955 89.765 82.931 89.765 C 82.889 89.765 82.851 89.784 82.82 89.823 C 82.79 89.861 82.774 89.907 82.774 89.962 Z M 83.679 92.325 L 83.679 90.552 L 84.211 90.552 L 84.211 92.146 C 84.211 92.256 84.232 92.358 84.274 92.449 C 84.317 92.54 84.372 92.612 84.442 92.667 C 84.512 92.718 84.591 92.745 84.675 92.745 C 84.763 92.745 84.841 92.718 84.91 92.667 C 84.981 92.612 85.037 92.54 85.078 92.449 C 85.12 92.358 85.141 92.256 85.141 92.146 L 85.141 90.552 L 85.673 90.552 L 85.676 93.367 L 85.144 93.367 L 85.141 93.11 C 85.067 93.213 84.977 93.293 84.874 93.353 C 84.771 93.411 84.66 93.44 84.542 93.44 C 84.383 93.44 84.239 93.391 84.108 93.291 C 83.978 93.19 83.873 93.056 83.794 92.889 C 83.717 92.72 83.679 92.533 83.679 92.325 Z M 86.124 93.367 L 86.124 89.145 L 86.656 89.145 L 86.656 93.367 L 86.124 93.367 Z M 87.18 93.367 L 87.18 89.145 L 87.711 89.145 L 87.711 93.367 L 87.18 93.367 Z M 89.582 90.552 L 90.146 90.552 L 88.954 94.774 L 88.389 94.774 L 88.784 93.367 L 87.999 90.552 L 88.581 90.552 L 89.05 92.428 L 89.582 90.552 Z" fill="white" style=""/>
</svg>