<?xml version="1.0" encoding="utf-8"?>
<svg viewBox="0.112 -0.188 56.083 72.54" xmlns="http://www.w3.org/2000/svg">
  <defs>
    <style>.a{fill:#8080d6;}.b{fill:#fff;}.c{fill:#ffc780;}.d{fill:#ffa700;}.e{fill:none;stroke:#23c37c;stroke-miterlimit:10;stroke-width:1.5px;}.f{fill:#23c37c;}.g{clip-path:url(#a);}</style>
  </defs>
  <title>Asset 171</title>
  <path class="c" d="M26.96772,65.32961a.37011.37011,0,0,0-.37535-.11779l-2.26937.62864-1.8599-1.60041a.35648.35648,0,0,0-.59615.26772l-.03936,2.45331L19.85,68.23967a.37017.37017,0,0,0-.16132.3588.39816.39816,0,0,0,.2453.32114l2.245.88741.63761,2.3908a.3936.3936,0,0,0,.286.28305.34891.34891,0,0,0,.362-.13055l1.42706-1.90471,2.37167.19876a.35411.35411,0,0,0,.17365-.02965.37451.37451,0,0,0,.1747-.49919.40377.40377,0,0,0-.04347-.0745l-1.35164-2.04722.82814-2.26752A.398.398,0,0,0,26.96772,65.32961Z" transform="translate(3.5408 0.04924)"/>
  <path class="a" d="M49.874,9.1675a.26911.26911,0,0,0-.10482-.26612l-1.39214-.99656.05577-1.78307a.25919.25919,0,0,0-.42374-.21493L46.6034,7.00512l-1.62651-.53464a.26914.26914,0,0,0-.27664.07263.28948.28948,0,0,0-.06962.28544l.52343,1.67522L44.09292,9.95645a.28618.28618,0,0,0-.02948.29108.2537.2537,0,0,0,.23921.14515l1.72924-.06275.97083,1.43234a.25734.25734,0,0,0,.09609.08468.27229.27229,0,0,0,.36217-.12918.29388.29388,0,0,0,.02228-.05861l.54066-1.69965,1.66091-.56725A.28945.28945,0,0,0,49.874,9.1675Z" transform="translate(3.5408 0.04924)" style="fill: rgb(15, 15, 56);"/>
  <path class="d" d="M40.97932,6.29119a.34647.34647,0,0,0,.0563-.36391l-.90043-2.01194,1.22-1.946a.33368.33368,0,0,0-.33147-.51412l-2.276.308L37.28676.11266A.34651.34651,0,0,0,36.932.01374a.3727.3727,0,0,0-.26276.27211l-.506,2.20224-2.12306.92578a.36843.36843,0,0,0-.2218.30444.3266.3266,0,0,0,.17166.31671l1.96311,1.05324.14906,2.2228a.33141.33141,0,0,0,.05183.15654.35056.35056,0,0,0,.4865.09159.37875.37875,0,0,0,.06285-.05069l1.70483-1.53835,2.21478.448A.37265.37265,0,0,0,40.97932,6.29119Z" transform="translate(3.5408 0.04924)"/>
  <circle class="e" cx="45.533" cy="58.608" r="7.725" style="fill-rule: evenodd; paint-order: fill; fill-opacity: 0.62;"/>
  <title>encrypted</title>
  <path class="cls-1" d="M 30.281 25.483 C 32.669 27.111 34.827 27.882 36.678 27.698 C 37 34.734 34.585 38.889 30.305 40.635 C 26.172 39.022 23.727 35.036 23.909 27.604 C 26.082 27.726 28.215 27.222 30.281 25.494 L 30.281 25.483 Z M 33.309 24.263 L 33.309 25.271 C 33.558 25.386 33.804 25.49 34.048 25.586 L 34.048 24.665 L 34.904 24.665 C 35.189 25.509 36.216 25.705 36.752 25.018 C 37.288 24.331 36.933 23.277 36.113 23.12 C 35.593 23.021 35.083 23.337 34.904 23.87 L 33.677 23.87 C 33.473 23.869 33.308 24.048 33.309 24.267 L 33.309 24.263 Z M 17.121 28.308 C 17.121 27.411 18.023 26.85 18.746 27.297 C 19.468 27.745 19.469 28.866 18.748 29.316 C 18.712 29.337 18.676 29.357 18.639 29.375 L 18.639 31.702 L 22.567 31.702 C 22.609 31.972 22.655 32.238 22.703 32.498 L 18.271 32.498 C 18.072 32.499 17.908 32.328 17.902 32.112 L 17.902 29.428 C 17.439 29.284 17.121 28.827 17.121 28.308 Z M 20.1 27.534 C 20.109 26.64 21.017 26.092 21.732 26.548 C 21.995 26.715 22.181 26.995 22.241 27.318 C 22.241 27.454 22.241 27.59 22.241 27.726 C 22.174 28.144 21.904 28.49 21.532 28.633 L 21.532 29.555 L 22.318 29.555 C 22.337 29.824 22.36 30.088 22.387 30.349 L 21.17 30.349 C 20.967 30.349 20.802 30.172 20.802 29.953 L 20.802 28.624 C 20.378 28.457 20.096 28.021 20.1 27.534 Z M 17.138 34.76 C 17.141 33.863 18.045 33.304 18.766 33.755 C 18.985 33.892 19.152 34.106 19.239 34.361 L 23.151 34.361 C 23.231 34.633 23.315 34.898 23.403 35.156 L 19.239 35.156 C 18.951 35.997 17.924 36.189 17.389 35.5 C 17.229 35.292 17.139 35.03 17.138 34.76 Z M 19.476 39.606 C 19.476 39.123 19.754 38.69 20.175 38.518 L 20.175 36.986 C 20.175 36.766 20.342 36.588 20.547 36.59 L 23.984 36.59 C 24.11 36.865 24.246 37.129 24.387 37.387 L 20.914 37.387 L 20.914 38.506 C 21.702 38.798 21.9 39.899 21.27 40.488 C 20.641 41.076 19.655 40.711 19.497 39.829 C 19.482 39.756 19.476 39.681 19.476 39.606 Z M 35.193 46.231 C 36.028 46.232 36.55 45.263 36.135 44.485 C 35.72 43.707 34.677 43.705 34.259 44.48 C 34.238 44.518 34.221 44.556 34.204 44.596 L 32.038 44.596 L 32.038 41.722 C 31.799 41.865 31.553 42.001 31.301 42.129 L 31.301 44.994 C 31.301 45.213 31.466 45.39 31.669 45.39 L 34.155 45.39 C 34.289 45.888 34.712 46.231 35.193 46.231 Z M 35.915 43.028 C 36.748 43.028 37.271 42.058 36.856 41.281 C 36.44 40.504 35.396 40.502 34.979 41.278 C 34.944 41.342 34.916 41.409 34.893 41.478 L 34.037 41.478 L 34.037 40.215 C 33.799 40.439 33.553 40.65 33.298 40.852 L 33.298 41.876 C 33.298 42.096 33.462 42.274 33.666 42.272 L 34.893 42.272 C 35.05 42.729 35.454 43.031 35.906 43.028 L 35.915 43.028 Z M 29.198 46.21 C 30.03 46.213 30.553 45.245 30.139 44.469 C 30.012 44.23 29.81 44.047 29.568 43.953 L 29.568 42.263 C 29.326 42.145 29.069 42.017 28.829 41.885 L 28.829 43.957 C 28.047 44.262 27.863 45.364 28.5 45.941 C 28.696 46.118 28.942 46.215 29.198 46.215 L 29.198 46.21 Z M 24.702 43.697 C 25.15 43.691 25.547 43.389 25.704 42.937 L 27.128 42.937 C 27.331 42.935 27.495 42.758 27.496 42.539 L 27.496 41.022 C 27.241 40.831 26.994 40.635 26.757 40.404 L 26.757 42.145 L 25.714 42.145 C 25.442 41.297 24.418 41.084 23.872 41.761 C 23.325 42.439 23.664 43.499 24.484 43.669 C 24.552 43.684 24.622 43.691 24.69 43.691 L 24.702 43.697 Z M 43.444 28.308 C 43.445 27.411 42.542 26.85 41.82 27.297 C 41.097 27.745 41.096 28.866 41.817 29.316 C 41.853 29.337 41.888 29.357 41.925 29.375 L 41.925 31.702 L 38.106 31.702 C 38.066 31.972 38.022 32.238 37.973 32.498 L 42.294 32.498 C 42.489 32.493 42.647 32.324 42.651 32.112 L 42.651 29.428 C 43.114 29.284 43.434 28.827 43.433 28.308 L 43.444 28.308 Z M 40.461 27.534 C 40.465 26.64 39.566 26.075 38.843 26.52 C 38.617 26.657 38.447 26.878 38.36 27.141 C 38.282 27.404 38.282 27.687 38.36 27.949 C 38.471 28.268 38.705 28.521 39.003 28.64 L 39.003 29.561 L 38.32 29.561 C 38.302 29.831 38.283 30.095 38.26 30.356 L 39.39 30.356 C 39.593 30.356 39.758 30.178 39.758 29.96 L 39.758 28.624 C 40.182 28.457 40.464 28.021 40.461 27.534 Z M 43.415 34.76 C 43.409 33.863 42.502 33.31 41.784 33.765 C 41.569 33.9 41.405 34.11 41.318 34.361 L 37.517 34.361 C 37.435 34.633 37.349 34.898 37.258 35.156 L 41.318 35.156 C 41.605 35.997 42.632 36.189 43.166 35.5 C 43.328 35.292 43.416 35.03 43.419 34.76 L 43.415 34.76 Z M 41.077 39.606 C 41.078 39.123 40.8 38.69 40.38 38.518 L 40.38 36.986 C 40.38 36.767 40.213 36.589 40.008 36.59 L 36.667 36.59 C 36.536 36.865 36.397 37.129 36.253 37.387 L 39.64 37.387 L 39.64 38.506 C 38.852 38.798 38.654 39.899 39.284 40.488 C 39.914 41.076 40.9 40.711 41.057 39.829 C 41.071 39.756 41.078 39.681 41.077 39.606 Z M 35.193 19.907 C 36.028 19.904 36.552 20.873 36.136 21.652 C 35.721 22.429 34.679 22.433 34.26 21.657 C 34.239 21.619 34.221 21.58 34.204 21.539 L 32.038 21.539 L 32.038 24.624 C 31.795 24.486 31.549 24.343 31.301 24.191 L 31.301 21.143 C 31.299 20.924 31.466 20.746 31.669 20.747 L 34.155 20.747 C 34.289 20.25 34.712 19.907 35.193 19.907 Z M 29.198 19.925 C 30.032 19.928 30.551 20.9 30.132 21.676 C 30.005 21.91 29.805 22.091 29.568 22.184 L 29.568 24.078 C 29.322 24.258 29.075 24.424 28.829 24.575 L 28.829 22.184 C 28.047 21.875 27.869 20.77 28.509 20.196 C 28.702 20.022 28.947 19.927 29.198 19.925 Z M 24.69 22.439 C 25.141 22.439 25.543 22.738 25.704 23.19 L 27.128 23.19 C 27.332 23.193 27.496 23.372 27.496 23.591 L 27.496 25.285 C 27.249 25.395 27.004 25.494 26.755 25.582 L 26.755 23.986 L 25.714 23.986 C 25.442 24.834 24.418 25.047 23.872 24.37 C 23.325 23.692 23.664 22.632 24.484 22.461 C 24.552 22.447 24.622 22.439 24.69 22.439 Z M 27.902 31.452 L 28.139 31.452 L 28.139 30.98 C 28.139 30.349 28.364 29.743 28.77 29.287 C 29.597 28.335 31.001 28.335 31.828 29.287 C 32.233 29.743 32.458 30.349 32.457 30.98 L 32.457 31.452 L 32.695 31.452 C 32.889 31.453 33.047 31.622 33.048 31.832 L 33.048 35.835 C 33.047 36.044 32.889 36.212 32.695 36.212 L 27.907 36.212 C 27.712 36.212 27.555 36.044 27.554 35.835 L 27.554 31.832 C 27.555 31.622 27.712 31.453 27.907 31.452 L 27.902 31.452 Z M 30.01 34.009 L 29.63 35.079 L 30.967 35.079 L 30.612 33.995 C 31.086 33.733 31.12 33.016 30.671 32.704 C 30.223 32.392 29.629 32.72 29.602 33.293 C 29.588 33.598 29.748 33.882 30.005 34.009 L 30.01 34.009 Z M 28.813 31.452 L 31.793 31.452 L 31.793 30.98 C 31.795 30.534 31.636 30.105 31.352 29.782 C 30.785 29.128 29.82 29.128 29.253 29.782 C 28.968 30.105 28.811 30.534 28.813 30.98 L 28.813 31.452 Z" style="fill-rule: evenodd; fill: rgb(207, 159, 57); fill-opacity: 0.98; paint-order: fill;"/>
  <g transform="matrix(0.083697, 0, 0, 0.084678, 40.676781, 53.507946)" style="">
    <path class="st0" d="M64.7,4.88c28.42,1.45,51.88,21.7,58.18,48.56h-0.01l-8.13,9.59l-7.82-9.59h-1.06l-8.17,9.64l-7.86-9.64h-1.95 l-8.13,9.59l-7.82-9.59h-1.03c0,0.05,0,0.1,0,0.15c0,2.26-1.92,4.22-4.7,5.14v45c0,5.26-2.15,10.04-5.61,13.5 c-3.46,3.46-8.24,5.61-13.5,5.61h0c-5.24,0-10.01-2.15-13.48-5.61l-0.01-0.01l-0.01-0.01c-3.46-3.47-5.61-8.24-5.61-13.48v-1.77 h8.18v1.77c0,3.01,1.23,5.75,3.2,7.72l0.02,0.02c1.97,1.97,4.71,3.2,7.72,3.2h0c3,0,5.73-1.23,7.72-3.22 c1.98-1.98,3.22-4.72,3.22-7.72V58.35c-2.25-1.02-3.74-2.77-3.74-4.76c0-0.05,0-0.1,0-0.15H51l-7.82,9.59l-8.13-9.59H33.1 l-7.86,9.64l-8.17-9.64H16l-7.82,9.59l-8.13-9.59H0C6.25,26.79,29.39,6.64,57.52,4.92L61.27,0L64.7,4.88L64.7,4.88z" style="clip-rule: evenodd; fill-rule: evenodd; fill: rgb(25, 26, 24);"/>
  </g>
</svg>