<svg xmlns="http://www.w3.org/2000/svg" xmlns:xlink="http://www.w3.org/1999/xlink" viewBox="0 0 132.71 39.06"><defs><style>.a{fill:none;}.b{clip-path:url(#a);}.c{fill:#a7a9ab;}.d{fill:#fff;}</style><clipPath id="a" transform="translate(0 0)"><rect class="a" width="132.71" height="39.64"/></clipPath></defs><path d="M127.72,38.57H5a4.51,4.51,0,0,1-4.51-4.5V5A4.51,4.51,0,0,1,5,.49H127.72a4.51,4.51,0,0,1,4.5,4.5V34.07a4.51,4.51,0,0,1-4.5,4.5" transform="translate(0 0)"/><g class="b"><path class="c" d="M5,1A4,4,0,0,0,1,5V34.07a4,4,0,0,0,4,4H127.72a4,4,0,0,0,4-4V5a4,4,0,0,0-4-4ZM127.72,39.06H5a5,5,0,0,1-5-5V5A5,5,0,0,1,5,0H127.72a5,5,0,0,1,5,5V34.07a5,5,0,0,1-5,5" transform="translate(0 0)"/></g><path class="d" d="M29.62,19.15a5.69,5.69,0,0,1,2.72-4.79,5.86,5.86,0,0,0-4.61-2.5c-1.94-.2-3.82,1.17-4.8,1.17s-2.53-1.15-4.17-1.11a6.11,6.11,0,0,0-5.16,3.15c-2.23,3.86-.57,9.54,1.57,12.67,1.07,1.53,2.32,3.24,4,3.18s2.2-1,4.14-1,2.47,1,4.14,1,2.8-1.54,3.83-3.08A12.74,12.74,0,0,0,33,24.23a5.54,5.54,0,0,1-3.37-5.08" transform="translate(0 0)"/><path class="d" d="M26.46,9.81a5.6,5.6,0,0,0,1.29-4,5.75,5.75,0,0,0-3.7,1.91,5.37,5.37,0,0,0-1.32,3.89,4.72,4.72,0,0,0,3.73-1.77" transform="translate(0 0)"/><path class="d" d="M50.89,19.84l-1-3.21c-.11-.33-.32-1.1-.62-2.31h0c-.12.52-.32,1.29-.58,2.31l-1,3.21ZM54.47,25H52.38l-1.15-3.61h-4L46.15,25h-2l4-12.28H50.5" transform="translate(0 0)"/><path class="d" d="M62.63,20.49a3.64,3.64,0,0,0-.58-2.13A2.09,2.09,0,0,0,59,18a2.33,2.33,0,0,0-.78,1.27,2.56,2.56,0,0,0-.09.6v1.47a2.37,2.37,0,0,0,.59,1.63,2,2,0,0,0,1.54.67A2,2,0,0,0,62,22.75a3.71,3.71,0,0,0,.62-2.26m2-.07A5,5,0,0,1,63.42,24a3.58,3.58,0,0,1-2.72,1.17,2.73,2.73,0,0,1-2.51-1.26h0v4.66h-2V19c0-.95,0-1.92-.07-2.92h1.73L58,17.51h0a3.49,3.49,0,0,1,5.6-.35,4.87,4.87,0,0,1,1,3.26" transform="translate(0 0)"/><path class="d" d="M72.81,20.49a3.64,3.64,0,0,0-.58-2.13,2,2,0,0,0-1.71-.87A2,2,0,0,0,69.2,18a2.21,2.21,0,0,0-.77,1.27,2.56,2.56,0,0,0-.09.6v1.47a2.36,2.36,0,0,0,.58,1.63,2,2,0,0,0,1.55.67,2,2,0,0,0,1.72-.86,3.71,3.71,0,0,0,.62-2.26m2-.07A5,5,0,0,1,73.6,24a3.58,3.58,0,0,1-2.72,1.17,2.73,2.73,0,0,1-2.51-1.26h0v4.66h-2V19c0-.95,0-1.92-.07-2.92H68l.1,1.41h0a3.49,3.49,0,0,1,5.6-.35,4.87,4.87,0,0,1,1,3.26" transform="translate(0 0)"/><path class="d" d="M86.2,21.51a3.25,3.25,0,0,1-1.09,2.55,4.81,4.81,0,0,1-3.34,1.08,5.91,5.91,0,0,1-3.19-.77L79,22.74a5.43,5.43,0,0,0,2.85.78,2.72,2.72,0,0,0,1.73-.5,1.66,1.66,0,0,0,.61-1.35,1.7,1.7,0,0,0-.5-1.25,4.76,4.76,0,0,0-1.7-1Q78.8,18.26,78.81,16a3.12,3.12,0,0,1,1.13-2.49,4.47,4.47,0,0,1,3-1,6,6,0,0,1,2.79.58l-.49,1.6a4.92,4.92,0,0,0-2.35-.56,2.37,2.37,0,0,0-1.62.51,1.44,1.44,0,0,0-.49,1.11,1.47,1.47,0,0,0,.56,1.2,6.37,6.37,0,0,0,1.79.95,6,6,0,0,1,2.33,1.49,3.16,3.16,0,0,1,.74,2.13" transform="translate(0 0)"/><path class="d" d="M92.7,17.58H90.54v4.3c0,1.09.38,1.64,1.15,1.64a3.52,3.52,0,0,0,.87-.09l0,1.49a4.27,4.27,0,0,1-1.53.22,2.38,2.38,0,0,1-1.82-.71A3.54,3.54,0,0,1,88.61,22V17.58h-1.3V16.1h1.3V14.48l1.93-.58v2.2H92.7" transform="translate(0 0)"/><path class="d" d="M100.45,20.52a4,4,0,0,0-.53-2.1,1.94,1.94,0,0,0-1.77-1.06,2,2,0,0,0-1.8,1.06,4,4,0,0,0-.53,2.14,4,4,0,0,0,.53,2.1,2,2,0,0,0,1.79,1.06,2,2,0,0,0,1.76-1.08,3.94,3.94,0,0,0,.55-2.12m2-.06a4.85,4.85,0,0,1-1.17,3.35,4.15,4.15,0,0,1-3.24,1.35A4,4,0,0,1,95,23.86a4.71,4.71,0,0,1-1.15-3.26A4.81,4.81,0,0,1,95,17.23a4.14,4.14,0,0,1,3.21-1.31,4.06,4.06,0,0,1,3.14,1.29,4.71,4.71,0,0,1,1.13,3.25" transform="translate(0 0)"/><path class="d" d="M108.88,17.83a4,4,0,0,0-.62,0,1.85,1.85,0,0,0-1.6.78,3,3,0,0,0-.49,1.75V25h-2l0-6.07c0-1,0-1.95-.08-2.79h1.72l.07,1.7h0a3,3,0,0,1,1-1.4,2.34,2.34,0,0,1,1.42-.48,2.49,2.49,0,0,1,.49,0" transform="translate(0 0)"/><path class="d" d="M115.8,19.6a2.66,2.66,0,0,0-.38-1.51,1.72,1.72,0,0,0-1.57-.82,1.9,1.9,0,0,0-1.57.8,2.93,2.93,0,0,0-.57,1.53Zm1.87.51a4.52,4.52,0,0,1-.07.89h-5.89a2.55,2.55,0,0,0,.85,2,2.94,2.94,0,0,0,1.93.62,6.56,6.56,0,0,0,2.39-.42l.31,1.36a7.32,7.32,0,0,1-3,.55A4.3,4.3,0,0,1,111,23.91a4.48,4.48,0,0,1-1.17-3.25,5.08,5.08,0,0,1,1.09-3.34A3.8,3.8,0,0,1,114,15.9a3.33,3.33,0,0,1,2.9,1.42,4.82,4.82,0,0,1,.77,2.79" transform="translate(0 0)"/></svg>