<svg version="1.2" xmlns="http://www.w3.org/2000/svg" viewBox="0 0 388 450" width="388" height="450">
	<title>simba newAsset 2-svg</title>
	<style>
		.s0 { fill: #cf9f39 } 
	</style>
	<g id="Layer_1-2">
		<path id="Layer" class="s0" d="m484.8 190.7q-16.9-7.7-25.9-21.6-9-13.8-9.5-32.1h38.2q0.2 12.9 10.4 20.5 10.2 7.6 28.3 7.6 13.4 0 21-4.4 7.6-4.5 7.6-13.6 0-5.9-3.2-9.5-3.1-3.6-10.5-6.1-7.4-2.5-21-4.6-24.9-3.7-38.6-9.4-13.7-5.6-19.6-14.7-5.8-9.2-5.8-24.2c0-10 2.6-19.3 8-26.9q7.9-11.5 22.9-17.7 15-6.3 35.2-6.3c13.5 0 25.6 2.4 36 7.2q15.6 7.1 24.3 20.2 8.6 13 8.9 29.8h-38.2q-0.3-11.9-9.2-17.9-8.9-6-23.7-6-12.6 0-19.9 4-7.3 4-7.3 12.2 0 5.6 3.3 9 3.3 3.4 11.4 5.8 8.1 2.3 22.8 4.4 22.3 3.1 35.7 9.1 13.3 5.9 19.4 15.8 6.1 9.8 6.1 24.6 0 16.2-8.3 28-8.3 11.9-23.4 18.2-15.2 6.3-35.3 6.3-23.2 0-40.1-7.7z"/>
		<path id="Layer" class="s0" d="m609.7 29.9h35.2v30.4h-35.2zm0.5 45.5h34.7v119.8h-34.7z"/>
		<path id="Layer" class="s0" d="m664.6 195.2v-119.9h34.7v15h1.9q9.3-18.2 31.4-18.2 10.8 0 19 5.3 8.2 5.4 12.6 15.3h1.9q10.8-20.6 34.2-20.6 18.6 0 29 11.4 10.4 11.5 10.4 31.5v80.1h-34.7v-72.6q0-9.2-4.7-14.2-4.7-5.1-13.1-5.1-8.4 0-13.1 5.1-4.7 5-4.7 14.2v72.6h-34.7v-72.6q0-9.2-4.6-14.2-4.6-5.1-13-5.1-8.4 0-13.1 5.1-4.7 5-4.7 14.2v72.6h-34.7z"/>
		<path id="Layer" fill-rule="evenodd" class="s0" d="m911.2 192.9q-10-5.5-15.7-15.6h-1.8v17.9h-34.7v-164.2h34.7v62.2h1.8q5.7-10.3 15.7-15.7 10.1-5.4 23.3-5.4 16.4 0 29.3 8.1 12.8 8.1 20.1 22.4 7.3 14.3 7.3 32.6 0 18.2-7.3 32.7-7.3 14.4-20.1 22.5-12.9 8.1-29.3 8.1-13.2 0-23.3-5.5zm35.2-34.4q8.4-8.7 8.4-23.4c0-9.9-2.8-17.5-8.4-23.2q-8.4-8.7-22.3-8.7-13.8 0-22.1 8.7-8.4 8.6-8.4 23.2c0 9.7 2.8 17.6 8.4 23.4q8.3 8.7 22.1 8.7 13.9 0 22.3-8.7z"/>
		<path id="Layer" fill-rule="evenodd" class="s0" d="m1028 190.3q-12.9-8-20.2-22.5-7.2-14.4-7.2-32.7 0-18.3 7.2-32.6 7.3-14.3 20.2-22.4 12.9-8.1 29.3-8.1 13.1 0 23.2 5.4 10.1 5.4 15.7 15.7h1.9v-17.8h34.7v119.8h-34.7v-17.8h-1.9q-5.6 10.1-15.7 15.6-10.1 5.5-23.2 5.5-16.4 0-29.3-8.1zm61.8-31.7q8.3-8.7 8.3-23.5c0-9.8-2.8-17.4-8.3-23.2q-8.3-8.7-22.2-8.7-13.8 0-22.3 8.7-8.4 8.7-8.4 23.2c0 9.7 2.8 17.7 8.4 23.5q8.5 8.6 22.3 8.6 13.8 0 22.2-8.6z"/>
		<path id="Layer" class="s0" d="m491.6 397h-35.9v-164.2h50.4l45.3 106.3h2.1l45.2-106.3h49.7v164.2h-36.1v-115.9h-2.1l-40.8 94.5h-34.9l-41-94.5h-1.9c0 0 0 115.9 0 115.9z"/>
		<path id="Layer" fill-rule="evenodd" class="s0" d="m696.4 392.2q-14.9-8.1-23.4-22.6-8.4-14.4-8.4-32.7 0-18.3 8.4-32.6 8.5-14.3 23.4-22.4 14.9-8 33.9-8c12.6 0 23.7 2.7 33.7 8q15 8.1 23.3 22.4 8.4 14.3 8.4 32.6 0 18.3-8.4 32.7-8.3 14.5-23.3 22.6-15 8-33.7 8c-12.6 0-24-2.7-33.9-8zm54.8-32.4q7.9-8.6 7.9-22.9 0-14.3-7.9-22.8-7.8-8.6-20.9-8.6-13.2 0-21.1 8.6-8 8.5-8 22.8 0 14.3 8 22.9 7.9 8.6 21.1 8.6 13.1 0 20.9-8.6z"/>
		<path id="Layer" class="s0" d="m809.5 397v-119.8h34.7v16.8h1.9q5.1-10 14.3-15.1 9.1-5 20.8-5 19 0 30 12.2 11.1 12.1 11.1 33.2v77.7h-34.7v-68.3q0-11.5-5.7-17.6-5.6-6.1-15.9-6.1-10.3 0.1-16.1 6.3-5.7 6.2-5.7 17.4v68.3c0 0-34.7 0-34.7 0z"/>
		<path id="Layer" fill-rule="evenodd" class="s0" d="m1030.9 281.7q14.4 7.9 22.5 21.8 8.1 14 8.1 31.6 0 4.9-0.7 9.8h-90.7q1.9 12.4 9.8 19.4 8 6.9 20.7 6.9 10.3 0 16.9-4.5 6.5-4.4 8.2-11h34q-1.7 12.7-9.7 22.7-7.9 10.1-21 16-13.2 5.8-29.8 5.8-18.5 0-33.2-8-14.7-8.1-22.9-22.6-8.2-14.4-8.2-32.7c0-12.2 2.8-22.8 8.2-32.4q8.2-14.5 22.7-22.6 14.4-8 32.7-8c12.2 0 22.8 2.6 32.4 7.8zm-49.5 26.5q-7.3 5.3-10.1 15.1h56.3q-3.1-9.8-10.5-15.1-7.4-5.3-17.9-5.3-10.6 0-17.8 5.3z"/>
		<path id="Layer" class="s0" d="m1154.6 277.2h35.4l-45 136.6q-5.6 17.2-13.8 23.6-8.3 6.5-24.2 6.5h-26v-30.3h24.8q5.4 0 7.7-1.7 2.2-1.8 3.6-6.7l2.6-8.2h-15l-43.9-119.8h36.8l29.3 87.4h2.1l25.6-87.4z"/>
		<g id="Layer">
			<path id="Layer" class="s0" d="m99.3 413.2c0 0 50.6-25.5 35.1-110.2 0 0 43.8 39.8 33.3 118.6 0 0-55.4-2.6-68.4-8.4z"/>
			<path id="Layer" class="s0" d="m239.1 411.9c0 0-25.8-84.6-88.1-127.2 0 0 63.7 1.7 141.7 95.9 0 0-27 21.7-53.6 31.3z"/>
			<path id="Layer" class="s0" d="m326.3 351.3c0 0-49.9-73-159-103.4 0 0 99.5 0.4 196 51.7 0 0-22.2 38.7-37 51.7z"/>
			<path id="Layer" class="s0" d="m372.4 251.4c0 0-56-46.1-193.4-30.9 0 0 63-58.7 196.9-25.6 0 0 5.6 25.6-3.5 56.5z"/>
			<path id="Layer" fill-rule="evenodd" class="s0" d="m343.4 106.4c0 0 19.6 17.8 26.5 40.6 0 0-146.1-31.7-233.3 75.6-1.6 2-3.6 3.6-6 4.4q-0.1 0.1-0.2 0.1c-11.2 4-19.9-10.2-11.3-18.4q0.2-0.2 0.3-0.3l-48 32.9c0 0 38.2 20.6 1.4 41.9 0 0-32.9 12.6-51.4-9.1-6.2-7.2-7.3-17.6-2.8-26 4.4-8.5 12.4-20.5 26.3-33.3l-11 4.7c-3.8 1.6-7.9 2.5-12 2.5h-21.9c0 0 32.3-45.1 71.8-72.1l0.4-12.2c0.3-9.1 5.2-17.4 12.9-22.1 12.1-7.3 30.5-16.7 43.6-15.7 0 0-9.5-6-10.4-10.4-0.9-4.3 17.4-55.2 77.8-83.9l43.5 7.9c0 0-56.5 30.8-80 79.9 0 0 65.2-50.8 117.3-58.2 0 0 26.6 19.5 36.5 28.2 0 0-96.4 19.1-133.8 73.5 0 0 60.4-39.6 163.8-30.4zm-193.6 33.3h-34c-7.3 0-14.2 3.1-18.8 8.6-8.3 9.8-10.8 22.7-10.8 22.7 32.2-1.1 52.8-18.2 59.5-24.7 1.8-1.8 3.3-4 4.1-6.5q0-0.1 0-0.1z"/>
			<path id="Layer" class="s0" d="m79.6 331c-2-13.6-9.4-22-20.9-25.2-13.3-3.6-26.5-7.5-39.9-11.4-1.3 16.7 6 32 12.8 48.3 15.3-7 30.2-15.3 48-11.7z"/>
		</g>
	</g>
</svg>