<svg xmlns="http://www.w3.org/2000/svg" xmlns:xlink="http://www.w3.org/1999/xlink" viewBox="0 0 288.24064 57.85709"><defs><style>.a{fill:url(#a);}.b{fill:url(#b);}.c{fill:url(#c);}.d{fill:url(#d);}.e{fill:url(#e);}.f,.g{fill:#fff;}.f{opacity:0.5;}</style><linearGradient id="a" x1="7.75889" y1="14.90275" x2="41.73127" y2="14.90275" gradientUnits="userSpaceOnUse"><stop offset="0" stop-color="#f28920"/><stop offset="0.85878" stop-color="#ed463c"/></linearGradient><linearGradient id="b" x1="40.52287" y1="8.2621" x2="44.25269" y2="37.80349" xlink:href="#a"/><linearGradient id="c" x1="13.10324" y1="46.62622" x2="17.35798" y2="25.64356" xlink:href="#a"/><linearGradient id="d" x1="15.35725" y1="46.49355" x2="15.35749" y2="46.4955" xlink:href="#a"/><linearGradient id="e" x1="37.09551" y1="39.12992" x2="38.98592" y2="54.10255" xlink:href="#a"/></defs><title>Asset 2</title><path class="a" d="M41.71184,7.662C39.73077,4.29875,35.55393,0,29.70491,0,11.752.22256-.9263,14.7809.05306,29.13969.0482,28.97158.04214,28.80391.04,28.63484c0-5.73831,4.81736-10.10181,7.80975-11.77971,2.23862-1.25523,5.63264-2.25222,10.67726-2.63048,3.57643-.26816,11.919.74668,11.919.74668,1.7826-.03271,13.47492,2.02038,13.31862,14.83416C45.7492,17.97984,43.69292,11.02517,41.71184,7.662Z"/><path class="b" d="M29.70185.04058c5.83721.011,10.006,4.30256,11.98457,7.66144,1.97578,3.35423,4.02637,10.28077,2.06854,22.04891-.00525.03151-.023.19813-.02638.24217A13.96294,13.96294,0,0,1,37.635,40.40339a14.84854,14.84854,0,0,1-8.90917,2.3819c12.05379,1.94708,19.1523.08725,22.58039-1.85633S59.116,34.88758,59.116,29.14926C58.89059,11.65152,44.24374-.7398,29.70185.04058Z"/><path class="c" d="M16.35759,50.21672a6.90057,6.90057,0,0,1-.89175-2.97767,3.65116,3.65116,0,0,1-.08947-.75911V28.85383c0-.21153.02429-.77557.02883-.84934.00809-.12852.067-.7443.07171-.78323a13.68589,13.68589,0,0,1,2.88385-6.89569c.05849-.07506.11784-.148.17712-.22111.02582-.03121.05-.06374.0761-.09474a12.44183,12.44183,0,0,1,2.896-2.60575l.02059-.01151c.30343-.20458.61627-.39628.93614-.57764a14.61576,14.61576,0,0,1,7.94021-1.84361c-12.05378-1.94708-19.14007-.0364-22.56816,1.90716S.029,22.91977.029,28.65809c.21676,16.83129,13.77743,28.93748,27.75287,29.1408A16.6191,16.6191,0,0,1,16.35759,50.21672Z"/><path class="d" d="M15.35734,46.49587l.00009-.00008C15.35737,46.49243,15.35734,46.49147,15.35734,46.49587Z"/><path class="e" d="M51.3016,40.92808c-3.42809,1.94358-10.52661,3.8034-22.58039,1.85632l.05723.001q-.5788-.02521-1.13723-.09344c-3.74648-.24229-8.22246-.72389-12.28378,3.80379a8.01774,8.01774,0,0,0,.93682,3.68781c1.98108,3.36321,7.03712,7.67349,12.88614,7.67349C45.96312,57.649,58.13609,44.913,58.852,31.52359,57.86613,36.0215,54.23582,39.26449,51.3016,40.92808Z"/><path class="f" d="M249.40119,38.96935H235.7098l-2.21506,5.49781h-8.49226l13.5994-31.07723h8.49594l13.28665,31.07723h-8.81238ZM246.96168,32.764,242.62356,21.68l-4.42642,11.084Z"/><path class="f" d="M276.80846,34.53645v9.93071H268.537v-9.7087L256.88033,13.38993h8.26782l7.50248,13.34383,7.31851-13.34383h8.2715Z"/><path class="g" d="M82.77748,13.38993,97.14958,32.098V13.38993h7.68277V44.46716h-7.2302L83.23006,25.84754V44.46716H75.50313V13.38993Z"/><path class="g" d="M133.3215,38.96935H119.63011l-2.21505,5.49781h-8.49227l13.5994-31.07723h8.49595l13.28664,31.07723H135.4924ZM130.882,32.764,126.54388,21.68l-4.42643,11.084Z"/><path class="g" d="M160.13511,34.53645v9.93071h-8.2715v-9.7087L140.207,13.38993h8.26782l7.50249,13.34383,7.3185-13.34383h8.2715Z"/><path class="g" d="M192.45818,38.96935H178.76679l-2.215,5.49781h-8.49227l13.5994-31.07723h8.49595l13.28664,31.07723h-8.81238Zm-2.4395-6.20534L185.68056,21.68l-4.42643,11.084Z"/><path class="f" d="M215.16429,13.38993H201.24478V29.85247l6.24831,14.61469h2.02318V35.86667h5.648c8.08755,0,12.74213-4.256,12.74213-11.57136C227.90642,17.37882,223.25184,13.38993,215.16429,13.38993Zm-.40841,16.00427h-5.23961V19.8624h5.23961c3.3447,0,5.28745,1.64066,5.28745,4.6982C220.04333,27.70842,218.10058,29.3942,214.75588,29.3942Z"/></svg>