<svg xmlns="http://www.w3.org/2000/svg" viewBox="0 0 381.75069 446.56767"><defs><style>.a{opacity:0.15;}.b,.d,.e,.f,.g,.h{stroke:#fff;}.b,.c,.d,.e,.f,.g,.h{stroke-miterlimit:10;}.c{stroke:#000;}.c,.e,.f{stroke-width:0.25px;}.d{stroke-width:0.5px;}.f,.g{fill-rule:evenodd;}.h{stroke-width:0.75px;}</style></defs><title>Asset 229500pp</title><g class="a"><path d="M128.83223,425.06908c0-2.788-4.03781-5.084-10.0679-5.74945,3.33131-5.93046,7.9352-14.89188,7.9352-19.13526,0-6.65158-5.06061-12.04062-11.30241-12.04062-6.23961,0-11.29973,5.389-11.29973,12.04062,0,4.24338,4.60289,13.2048,7.93308,19.135-6.03065.66577-10.06957,2.96172-10.06957,5.74975,0,3.32825,5.90162,5.93562,13.43567,5.93562S128.83223,428.39733,128.83223,425.06908Zm-23.78716-24.88471c0-6.08266,4.64369-11.031,10.35205-11.031,5.70949,0,10.3548,4.94829,10.3548,11.031,0,4.80534-6.86346,17.22085-10.3548,23.03123C111.9069,417.40522,105.04507,404.98971,105.04507,400.18437Zm-2.137,24.88471c0-2.16781,4.05631-4.219,9.43537-4.77173l.227-.02316c1.621,2.84687,2.8267,4.79489,2.8267,4.79489s1.20626-1.948,2.82777-4.79489l.22646.02316c5.37795.55269,9.43376,2.60392,9.43376,4.77173,0,2.37891-5.01815,4.92654-12.48854,4.92654S102.90808,427.448,102.90808,425.06908Z"/><path d="M121.55948,400.18549c0-3.41346-2.47615-5.7071-6.16236-5.7071s-6.16286,2.29364-6.16286,5.7071c0,3.41264,2.47666,5.70545,6.16286,5.70545S121.55948,403.59813,121.55948,400.18549Zm-11.3781,0c0-3.245,2.61986-4.69743,5.21574-4.69743s5.21524,1.45244,5.21524,4.69743c0,3.24387-2.61934,4.69578-5.21524,4.69578S110.18138,403.42936,110.18138,400.18549Z"/><path class="b" d="M175.72567,164.71121H159.48658l10.18629-2.01777a3.88232,3.88232,0,0,0,2.70034-5.5801l-5.92-11.54381a3.88228,3.88228,0,0,0-6.107-1.06335l-12.11462,11.33465a6.953,6.953,0,0,0-3.67674-1.04759h-2.8337a6.95228,6.95228,0,0,0-3.67709,1.04776l-12.1148-11.33482a3.88248,3.88248,0,0,0-6.10717,1.06335l-5.92,11.54381a3.8823,3.8823,0,0,0,2.70034,5.5801l10.18629,2.01777H110.55043a7.00372,7.00372,0,0,0-6.99571,6.99571v11.33483a1.32822,1.32822,0,0,0,1.3283,1.3283h1.50541v34.093a7.00372,7.00372,0,0,0,6.99571,6.99571H172.892a7.00372,7.00372,0,0,0,6.99571-6.99571V184.37h1.50541a1.32821,1.32821,0,0,0,1.3283-1.32829V171.70692a7.00372,7.00372,0,0,0-6.99571-6.99571Zm-13.56442-18.265a1.2256,1.2256,0,0,1,1.92816.33579l5.92,11.54381a1.226,1.226,0,0,1-.85259,1.76186l-17.6237,3.49095c.011-.12292.01753-.24707.01753-.37264v-1.41685a6.958,6.958,0,0,0-1.36177-4.14111l11.97241-11.20182ZM144.5549,157.44984A4.344,4.344,0,0,1,148.894,161.789v1.41686a1.50709,1.50709,0,0,1-1.5054,1.5054h-8.50112a1.50709,1.50709,0,0,1-1.50541-1.5054V161.789a4.344,4.344,0,0,1,4.33912-4.33911Zm-28.30146,1.96925a1.21567,1.21567,0,0,1,.01258-1.09328l5.92-11.54381a1.2258,1.2258,0,0,1,1.92834-.33579l11.97276,11.202a6.95727,6.95727,0,0,0-1.3616,4.14093V163.206c0,.12575.00655.2499.01753.37281l-17.62441-3.49112a1.216,1.216,0,0,1-.86516-.66858Zm-10.04212,22.29436V171.70692h0a4.344,4.344,0,0,1,4.33911-4.33911h31.25932v14.34564ZM157.88678,184.37h19.3443v34.093h0a4.344,4.344,0,0,1-4.33911,4.33911H113.38414a4.344,4.344,0,0,1-4.33912-4.33911V184.37h48.84176Zm-13.42043-2.65659V167.36763h31.25932a4.344,4.344,0,0,1,4.33911,4.33911v10.00671H144.46635Z"/><path d="M297.18754,407.20474H277.81487a3.96708,3.96708,0,0,0-3.9626,3.96259V430.54a3.96708,3.96708,0,0,0,3.9626,3.9626h19.37267a3.96708,3.96708,0,0,0,3.96259-3.9626V411.16733A3.96708,3.96708,0,0,0,297.18754,407.20474Zm3.082,23.33526a3.08554,3.08554,0,0,1-3.082,3.082H277.81487a3.08554,3.08554,0,0,1-3.082-3.082V411.16733a3.08554,3.08554,0,0,1,3.082-3.082h19.37267a3.08553,3.08553,0,0,1,3.082,3.082Z"/><path d="M298.94869,420.41338h-11.0072v-11.0072a.44029.44029,0,0,0-.88058,0v11.0072h-11.0072a.44029.44029,0,0,0,0,.88058h11.0072v11.0072a.44029.44029,0,0,0,.88058,0V421.294h11.0072a.44029.44029,0,0,0,0-.88058Z"/><path d="M277.37458,414.68964h3.082v3.082a.44029.44029,0,0,0,.88058,0v-3.082h3.082a.44029.44029,0,0,0,0-.88058h-3.082v-3.082a.44029.44029,0,0,0-.88058,0v3.082h-3.082a.44029.44029,0,0,0,0,.88058Z"/><path d="M290.58322,414.68964h7.04461a.44029.44029,0,0,0,0-.88058h-7.04461a.44029.44029,0,0,0,0,.88058Z"/><path d="M297.62783,427.0177h-7.04461a.44029.44029,0,0,0,0,.88058h7.04461a.44029.44029,0,0,0,0-.88058Z"/><path d="M283.85,424.50492a.44026.44026,0,0,0-.62262,0l-2.33045,2.33045-2.33039-2.33039a.44026.44026,0,0,0-.62262.62262l2.33039,2.33039-2.33039,2.33039a.44028.44028,0,0,0,.62262.62268l2.33039-2.33045,2.33039,2.33039a.44028.44028,0,0,0,.62268-.62262L281.5195,427.458l2.33039-2.33039A.44028.44028,0,0,0,283.85,424.50492Z"/><path d="M295.42639,424.81626a1.32087,1.32087,0,1,0-1.32087,1.32086A1.32233,1.32233,0,0,0,295.42639,424.81626Zm-1.76116,0a.44029.44029,0,1,1,.44029.44029A.44081.44081,0,0,1,293.66523,424.81626Z"/><path d="M294.10552,428.77885a1.32087,1.32087,0,1,0,1.32087,1.32087A1.32233,1.32233,0,0,0,294.10552,428.77885Zm0,1.76115a.44029.44029,0,1,1,.44029-.44028A.4408.4408,0,0,1,294.10552,430.54Z"/><path class="c" d="M82.21174,121.63894a5.25522,5.25522,0,0,0,.44712.9,5.24275,5.24275,0,0,0,.25751.96111c.86457,2.28354,3.22648,3.74377,6.29608,4.23386a.45241.45241,0,0,0,.07689.01309,15.82616,15.82616,0,0,0,3.15975.14884.66862.66862,0,0,0,.07445-.00407A19.28231,19.28231,0,0,0,94.9,127.61615a.64473.64473,0,0,0,.14652-.02781,21.76118,21.76118,0,0,0,3.71384-1.04366,21.03641,21.03641,0,0,0,5.17464-2.81848c.01608-.01106.03139-.02146.046-.03373a16.518,16.518,0,0,0,2.31487-2.10811.48361.48361,0,0,0,.04946-.05668,12.10152,12.10152,0,0,0,1.633-2.2993.37667.37667,0,0,0,.04139-.07667,6.49622,6.49622,0,0,0,.59526-5.38152,5.24335,5.24335,0,0,0-.4436-.89066,5.25647,5.25647,0,0,0-.261-.97042c-1.6513-4.36143-8.75869-5.72724-15.844-3.04465S80.56044,117.27751,82.21174,121.63894Zm2.39835,2.837q.17262.11073.354.21387c.06778.03853.1339.078.20355.1148.10785.0574.21943.11126.33134.16464l.22606.5971a5.7071,5.7071,0,0,1-1.22806-1.15895C84.53306,124.43168,84.57327,124.45227,84.61009,124.47592Zm20.40725-4.15164.42113,1.11231a15.155,15.155,0,0,1-1.49693,1.39839l-.44486-1.175c.13842-.10808.275-.2169.40849-.32737.05744-.04764.11365-.09587.1703-.14427q.23108-.19654.45057-.39685c.05462-.04976.11047-.09893.16429-.14945C104.80215,120.53733,104.9098,120.431,105.01734,120.32428Zm-12.09866,6.84759-.44944-1.18706q.32127-.02854.64645-.06814c.06-.00747.11966-.01445.17954-.02223q.31115-.04121.62445-.09279l.45871,1.21156Q93.63715,127.12469,92.91868,127.17187Zm5.60679-1.24755c-.29863.11307-.59706.21329-.89532.31132l-.46822-1.23669.0215-.00743c.29058-.09689.58119-.1977.87229-.30792.14843-.0562.29413-.11561.4405-.17458l.46775,1.23545C98.81728,125.80391,98.67479,125.86779,98.52547,125.92432Zm.84352-1.78617c.18208-.08241.36153-.16773.53951-.25427l.03959-.01853q.35649-.17435.70129-.3595l.46317,1.22335c-.4122.22522-.83675.44057-1.27663.64222Zm-4.50361,1.48525c.05534-.01173.11109-.025.16619-.03739.06166-.01377.123-.02706.18453-.04114.29214-.06734.58529-.14.87973-.22137l.04194-.01233c.03907-.01053.07756-.02262.11651-.03347l.46611,1.2311c-.46656.12983-.931.24646-1.39125.3395Zm6.61813-2.59047c.05042-.03008.102-.05988.15181-.0901l.05538-.033c.25046-.15334.49414-.31121.73319-.47194.05045-.034.09934-.06811.14923-.10225.04439-.02993.08879-.05986.13206-.09007l.45249,1.19512q-.57858.42068-1.2138.80817Zm-11.07486,3.01673c.07323.00207.1482.002.22208.00316q.29747.005.60041-.00106c.07439-.00157.14812-.00217.22316-.00469l.02509-.00064.44027,1.16286a14.39031,14.39031,0,0,1-2.07719-.1342l-.41138-1.08656c.09186.00849.1834.01745.27625.0245Q90.05374,126.03882,90.40865,126.04966Zm-3.39308.24911-.32436-.85672c.12527.04052.251.08088.37987.11755.10779.03047.218.05791.32828.08566q.16715.042.33733.0801c.109.02434.21758.04884.32866.07062.09855.01943.19937.03552.29954.05256l.38778,1.02421A9.74669,9.74669,0,0,1,87.01557,126.29877Zm19.127-5.67847-.40305-1.06454c.05231-.05988.10473-.11944.15535-.17975q.19937-.23613.38281-.47546c.06893-.08958.13393-.18015.19949-.27058q.10292-.14164.1999-.28422c.026-.03823.05523-.07623.08072-.11461l.35325.933A10.6441,10.6441,0,0,1,106.1426,120.6203Zm1.88916-5.12312a6.05979,6.05979,0,0,1-.37357,2.436l-.28409-.75032c.02884-.05631.05454-.11286.08193-.169.04392-.09.08829-.18025.12864-.27036q.11287-.25179.20766-.50454c.0274-.0735.05122-.14707.07648-.22082q.0674-.19734.12362-.39471C108.00423,115.581,108.02073,115.539,108.03176,115.49718Zm-1.00754-3.25256a4.81188,4.81188,0,0,1,.21619.753l.02152.1291.0086.05349q.02838.17331.04463.348l.002.02938q.01511.17036.01852.342c.00044.01721,0,.03475,0,.05213.001.10707.00016.2145-.00516.3222-.00172.03293-.00521.06652-.00738.09961-.00594.09269-.01289.1854-.02373.27852-.00883.07569-.02156.15179-.0334.22756-.00784.05155-.01411.10322-.02351.15466a10.71035,10.71035,0,0,1-4.04971,5.98368c-.0201.01648-.04177.03284-.062.049q-.18116.14572-.36839.28878c-.04993.03806-.10121.07521-.15182.11281-.098.07293-.1966.14572-.29722.21715-.06462.0461-.131.09146-.19688.137-.08909.06175-.17874.12335-.26986.18374-.07448.04948-.1502.09836-.22547.14707q-.12879.08334-.25972.165c-.07982.05008-.16133.09974-.24263.14861-.08626.05181-.17364.10333-.26126.15424-.08387.04877-.168.09693-.25319.1448-.089.05-.17886.09893-.2693.14771-.08626.04649-.17251.093-.26.13887-.09346.04886-.18794.09633-.28288.144-.086.04319-.17139.08653-.25873.12881-.1027.04988-.20755.09809-.31183.14644-.0814.03791-.16211.07627-.24442.11311-.12036.05408-.24254.106-.36517.15812-.069.02929-.13654.05949-.20572.08817q-.28928.1191-.58545.23194c-.19762.07482-.39519.14573-.5927.21412-.07083.02434-.14192.04664-.21254.07019-.12595.042-.25233.08418-.37833.12338-.08606.02691-.17194.05162-.258.07712-.11016.03285-.22033.06569-.33063.09681-.093.026-.18614.05026-.27917.07484-.10268.02718-.20492.05418-.3073.07947-.09583.02387-.19124.04616-.28677.06815q-.15012.035-.29961.06768c-.09555.02058-.19046.04019-.2856.05919-.09936.01989-.199.03916-.2979.05747q-.14058.0261-.28053.04982-.15215.02568-.30388.04838c-.08911.01352-.17777.02688-.26634.03914-.10839.01479-.21636.028-.32444.04091-.07948.00952-.15883.01935-.23778.02761-.12281.0128-.24476.02387-.36651.03414-.06282.00535-.12585.01148-.18846.016q-.23514.01722-.46727.02761c-.02642.00114-.05293.00337-.0789.00434a10.71206,10.71206,0,0,1-6.99717-1.8012c-.04122-.03262-.08-.06687-.12-.1003-.059-.04893-.119-.09752-.17574-.14838-.06979-.06259-.13595-.12762-.20223-.193-.02354-.02336-.04829-.04591-.0715-.06975-.07532-.07717-.14756-.15692-.21726-.238-.01051-.013-.02291-.02573-.034-.03892-.07406-.08722-.14448-.17688-.21259-.26847l-.018-.02335q-.10376-.14159-.19705-.29032l-.029-.04577-.06938-.111a4.87032,4.87032,0,0,1-.33638-.70783c-1.52176-4.0193,2.60679-9.32107,9.20337-11.81862S105.50246,108.22532,107.02422,112.24462Z"/><path class="c" d="M97.15533,122.30546c-.2787.10552-.56166.20378-.84124.29226-.24874.07892-.41416.287-.36895.46525.04722.17824.28425.25837.53311.17975.30265-.09579.60977-.20249.91195-.3169l.00931-.00353c.24458-.0926.38559-.30487.32077-.47609S97.39991,122.21286,97.15533,122.30546Z"/><path class="c" d="M90.51978,112.417a.379.379,0,0,0,.22117-.42739.24588.24588,0,0,0-.04207-.071.51393.51393,0,0,0-.62316-.02154c-.27624.16417-.5482.337-.80836.51423-.21026.14309-.26806.36642-.12645.49828a.54238.54238,0,0,0,.63576-.02012C90.01558,112.727,90.26593,112.56805,90.51978,112.417Z"/><path class="c" d="M99.74332,110.38311c.265.04153.52334.09373.76882.1547a.62608.62608,0,0,0,.62581-.23907.26747.26747,0,0,0-.16871-.43759c-.27139-.06783-.55707-.12528-.849-.17115a.62158.62158,0,0,0-.60639.281A.27034.27034,0,0,0,99.74332,110.38311Z"/><path class="c" d="M99.58623,121.14074c-.22187.13117-.3032.35524-.18067.49823a.51238.51238,0,0,0,.62263.0228c.276-.16338.54855-.33607.80972-.51333a.36515.36515,0,0,0,.18931-.40717.24675.24675,0,0,0-.06186-.09112.54179.54179,0,0,0-.63555.01933C100.09034,120.83178,99.83987,120.99044,99.58623,121.14074Z"/><path class="c" d="M85.2407,116.99607a6.16074,6.16074,0,0,0-.24934.737c-.05275.19516.10677.34755.35356.34242a.58241.58241,0,0,0,.54315-.3624,5.57813,5.57813,0,0,1,.22347-.65948.2636.2636,0,0,0,.00778-.19622.32264.32264,0,0,0-.29969-.18408A.60769.60769,0,0,0,85.2407,116.99607Z"/><path class="c" d="M102.51824,111.37806a4.86716,4.86716,0,0,1,.53576.40218.55113.55113,0,0,0,.63916-.03523.35926.35926,0,0,0,.17719-.399.24582.24582,0,0,0-.07026-.09859,5.43484,5.43484,0,0,0-.60095-.45126.58417.58417,0,0,0-.64723.0915C102.36407,111.04846,102.34848,111.26821,102.51824,111.37806Z"/><path class="c" d="M87.13337,114.197c-.20908.21712-.40768.44055-.59086.66453a.26994.26994,0,0,0,.10509.45955.62256.62256,0,0,0,.63983-.194c.16662-.20352.34752-.40678.53723-.60415a.31872.31872,0,0,0,.09716-.33078.26727.26727,0,0,0-.142-.14485A.60912.60912,0,0,0,87.13337,114.197Z"/><path class="c" d="M92.39209,111.10554c.06483.17122.33012.22966.5747.13706.27161-.10283.54869-.19923.82272-.28631.24907-.07941.41392-.28758.36782-.46554l-.00783-.02469a.40891.40891,0,0,0-.52593-.1541c-.29753.09456-.59745.19889-.8921.31045l-.0288.01091C92.45853,110.72575,92.32715,110.934,92.39209,111.10554Z"/><path class="c" d="M95.96377,110.08379c-.01644.19206.175.32031.42749.28748.28913-.03783.57966-.06662.86379-.08553a.56714.56714,0,0,0,.52226-.38144.24735.24735,0,0,0-.01008-.13769.35074.35074,0,0,0-.374-.18361c-.30987.02051-.62723.052-.9424.09331A.53917.53917,0,0,0,95.96377,110.08379Z"/><path class="c" d="M84.89322,119.897a4.15081,4.15081,0,0,0,.1879.65552l.00494.013c.06482.17121.31347.22851.558.13591s.388-.31323.32317-.48445a3.69257,3.69257,0,0,1-.16709-.58183.21515.21515,0,0,0-.01064-.03747.40256.40256,0,0,0-.50863-.15923C85.03028,119.51107,84.85666,119.71618,84.89322,119.897Z"/><path class="c" d="M102.28521,119.03827c-.16709.17285-.14721.38591.04337.47583a.60954.60954,0,0,0,.6467-.1491c.20921-.21681.40836-.4401.59223-.66363a.30557.30557,0,0,0,.07127-.30147.27715.27715,0,0,0-.175-.15858.62258.62258,0,0,0-.64018.19309C102.65727,118.63745,102.47593,118.84088,102.28521,119.03827Z"/><path class="c" d="M92.32542,123.64472c-.03794.19416.13258.33813.38329.32194.311-.02022.628-.05124.942-.09173a.542.542,0,0,0,.48876-.40705.24322.24322,0,0,0-.01422-.10846.36537.36537,0,0,0-.41206-.17984c-.28824.0375-.579.06566-.8647.08446A.56617.56617,0,0,0,92.32542,123.64472Z"/><path class="c" d="M104.15483,113.331a3.67267,3.67267,0,0,1,.16946.59477c.03831.17877.26729.26976.51829.19813.25044-.07177.42518-.27659.38994-.45795a4.16911,4.16911,0,0,0-.1912-.67094l-.0101-.02667c-.06483-.17122-.31089-.22169-.55547-.12909S104.09,113.15979,104.15483,113.331Z"/><path class="c" d="M89.13506,123.68266c.27138.06783.55642.12624.84792.17227a.621.621,0,0,0,.60674-.28007.27736.27736,0,0,0,.02591-.234.30529.30529,0,0,0-.25362-.17882c-.26465-.042-.52313-.09452-.7684-.15628a.62758.62758,0,0,0-.62649.23861A.26813.26813,0,0,0,89.13506,123.68266Z"/><path class="c" d="M86.30944,122.29019a5.45964,5.45964,0,0,0,.59941.45255.58366.58366,0,0,0,.64727-.09008.33944.33944,0,0,0,.13716-.36828.25329.25329,0,0,0-.10149-.12222,4.89218,4.89218,0,0,1-.53423-.40347.55121.55121,0,0,0-.63906.03414C86.21109,121.93945,86.16288,122.16268,86.30944,122.29019Z"/><path class="c" d="M104.2303,115.84913a5.61613,5.61613,0,0,1-.22548.65953c-.07944.19428.05074.36416.2907.38112a.60753.60753,0,0,0,.57928-.32181,6.2729,6.2729,0,0,0,.25191-.73693.25244.25244,0,0,0-.00523-.15832.34071.34071,0,0,0-.34724-.18522A.5836.5836,0,0,0,104.2303,115.84913Z"/><path class="c" d="M86.2207,141.02485a3.649,3.649,0,0,0-.20268.7968,3.64038,3.64038,0,0,0-.3794.7203c-.7142,1.86149.16911,4.12619,2.15212,6.23846a.46217.46217,0,0,0,.04919.0534,16.887,16.887,0,0,0,2.25223,1.96436c.01844.01462.03674.02831.05756.04181a21.50914,21.50914,0,0,0,1.92379,1.24864.72872.72872,0,0,0,.125.07059,24.8204,24.8204,0,0,0,3.37006,1.58947,23.8587,23.8587,0,0,0,5.505,1.40927c.01847.003.036.006.05408.0074a17.80931,17.80931,0,0,0,2.96525.13027.50028.50028,0,0,0,.07026-.00408,12.03388,12.03388,0,0,0,2.57362-.38751.35455.35455,0,0,0,.07613-.02068,5.07736,5.07736,0,0,0,3.63332-2.82335,3.64012,3.64012,0,0,0,.19976-.78922,3.64926,3.64926,0,0,0,.38231-.72789c1.36409-3.55533-3.09036-8.58253-9.93-11.20672S87.58479,137.46951,86.2207,141.02485Zm.0936,3.09907q.06217.16788.13537.3365c.02735.063.05289.12559.08267.18865.04584.09794.09654.196.14776.294l-.18674.48674a4.40092,4.40092,0,0,1-.22217-1.41348C86.28348,144.05205,86.30106,144.08809,86.3143,144.12392Zm17.579,9.66857-.34788.90672a16.28063,16.28063,0,0,1-1.93837-.06348l.36749-.9578c.16664.0184.33239.03529.49677.04934.07081.006.14106.0109.21174.016q.28775.0212.56916.0333c.07.00307.14052.00721.21035.00935C103.60758,153.79046,103.75042,153.7916,103.89335,153.79249Zm-13.0239-3.1428.37127-.96766q.2549.17394.51926.34368c.04887.03122.09721.06253.14617.0935q.25493.16047.5176.31607l-.37893.98764Q91.42963,151.04852,90.86945,150.64969Zm4.89318,2.59329c-.28828-.11061-.56879-.22868-.84787-.34794l.38679-1.00811.02034.00838c.27271.11537.54778.22844.82879.33626.14328.055.28645.10642.42985.15854l-.3864,1.00711C96.05021,153.34519,95.90677,153.29828,95.76263,153.243Zm1.6844-.55348c.18375.05948.36729.11568.55046.1703l.04032.01256q.36749.10881.73272.20426l-.38261.99725c-.43894-.11185-.88117-.23685-1.32662-.379Zm-4.217-1.79781c.048.02593.09714.05119.14528.07662.05384.02849.10716.05707.16109.0853.25635.13375.51661.26493.783.39178l.03838.01763c.03519.017.07087.0327.10616.04943l-.385,1.00356c-.42261-.20043-.83584-.40742-1.23193-.62582Zm6.43895,2.40113c.05519.01218.111.0252.16589.037l.06062.0134c.27648.05821.55063.10974.823.15682.05754.00989.114.01879.1712.02827.05064.00869.10127.01739.15125.02525l-.37379.97424q-.67812-.09528-1.37851-.24377Zm-9.993-4.79625c.053.04471.10855.08923.16261.13375q.21742.17958.44538.35595c.056.04325.111.08668.16808.12975l.019.01453-.3637.94794a15.27411,15.27411,0,0,1-1.459-1.31282l.33983-.88574c.063.05957.12551.11922.1901.17852Q89.41944,148.27938,89.67591,148.49657Zm-2.66113-1.868.26794-.69837c.06876.09832.13794.1968.21166.295.06176.082.1271.16364.19235.24552q.09887.12408.20235.24762c.06631.07911.1322.15805.20156.23688.06147.07.12661.13936.1907.20891l-.32034.83492A9.30546,9.30546,0,0,1,87.01478,146.62855Zm17.53649,8.007.33295-.86778c.07426-.00429.14843-.00832.2217-.01386q.28775-.021.56561-.05333c.1042-.01195.20607-.02682.30828-.04126q.16025-.0225.31667-.04907c.042-.0071.08613-.0122.12778-.01972l-.29181.76058A10.44678,10.44678,0,0,1,104.55127,154.6355Zm4.43846-1.90238a4.80625,4.80625,0,0,1-1.72177,1.21616l.23467-.61164c.05476-.01612.10734-.03424.16092-.0511.08595-.02707.17233-.054.25567-.0832q.233-.08161.45313-.17453c.06389-.02712.12517-.0564.18764-.08493q.167-.07647.32571-.1596C108.9196,152.76626,108.95678,152.75122,108.98973,152.73312Zm1.18314-2.51843a3.33368,3.33368,0,0,1-.28654.57289l-.06064.089-.02536.03668q-.08179.11918-.1734.232l-.01594.01854q-.08987.10953-.18913.21286l-.03094.03077c-.06276.06382-.12713.12672-.195.18714-.02081.01841-.04332.03617-.06456.05442-.05938.05118-.11952.10179-.18279.15032-.05145.03944-.106.0768-.15973.1145-.03639.02578-.07169.05255-.10917.07734a10.46533,10.46533,0,0,1-6.54933,1.1273c-.02467-.00221-.05042-.00542-.075-.00789q-.22064-.02156-.44418-.0483c-.05956-.00719-.11959-.01571-.17938-.02357-.11587-.01516-.23207-.03074-.349-.04832-.0752-.01116-.15131-.02383-.22708-.03608-.10262-.01645-.20557-.03332-.30888-.05179-.08452-.015-.16961-.03114-.25427-.04708q-.14482-.02729-.29026-.05684c-.08884-.01783-.17867-.03693-.26788-.05636-.09463-.02064-.18992-.04212-.285-.0641-.09106-.021-.18192-.04253-.27344-.06489-.09557-.02332-.19117-.04782-.28711-.07273-.09147-.02378-.18293-.04756-.275-.07243-.09821-.02666-.19637-.05475-.295-.083-.08931-.02556-.17829-.05071-.26806-.07761-.10566-.03155-.21193-.06536-.31786-.09875-.08278-.026-.16532-.05125-.24814-.07838-.12124-.03955-.24255-.08146-.36429-.12352-.06845-.02366-.13644-.046-.2047-.07013q-.28491-.10148-.57125-.21076-.28614-.10978-.56605-.22559c-.0669-.0277-.13279-.05675-.19907-.08479-.1182-.05-.23684-.10016-.35342-.15185-.07971-.03522-.158-.07164-.23689-.10771-.10108-.046-.20216-.09207-.30233-.1392-.0843-.03989-.1677-.08088-.25119-.12161-.09217-.04494-.18393-.08972-.27477-.13559-.08514-.04282-.169-.08632-.25284-.13008q-.132-.06848-.26208-.138c-.083-.0446-.16492-.08938-.24666-.13467-.0854-.04727-.1706-.095-.25476-.143q-.11961-.06808-.23735-.13719-.12793-.07519-.25379-.15191c-.074-.04494-.14763-.08971-.22051-.13507-.08905-.05564-.17687-.112-.26459-.16853-.06451-.04157-.12913-.0829-.1925-.12491-.09857-.06537-.19547-.13127-.29174-.1975-.04971-.03416-.1-.068-.14911-.10246q-.18438-.12949-.3625-.26121c-.02024-.015-.04121-.02944-.061-.04429A10.4671,10.4671,0,0,1,86.997,143.672c-.01118-.04375-.01961-.087-.02941-.13051-.01472-.064-.0303-.12823-.04216-.192-.01457-.0784-.025-.15608-.03533-.234-.00358-.02777-.00854-.05578-.01159-.08363-.01-.09029-.01621-.18027-.01975-.26952-.00005-.01394-.00171-.02879-.00209-.04315-.00312-.09547-.00209-.19022.00179-.28475L86.859,142.41q.00713-.1452.02626-.28841l.00568-.04423.01445-.10672a3.37469,3.37469,0,0,1,.17072-.61762c1.25709-3.27644,7.46031-3.95436,13.82816-1.51118S111.43,146.93824,110.17287,150.21469Z"/><path class="c" d="M96.89447,150.293c-.269-.10322-.53692-.21325-.7965-.32706-.23107-.10113-.477-.07656-.54928.05554-.07076.13326.05728.32133.28826.42272.281.12318.5718.24259.8635.3545l.009.00345c.2361.09059.46648.049.52-.09055S97.13057,150.38355,96.89447,150.293Z"/><path class="c" d="M97.8453,140.51481c.20524.04568.3739-.00767.41736-.121a.17333.17333,0,0,0,.01094-.06687c-.00584-.15743-.20657-.32871-.44882-.38279-.302-.06714-.606-.12663-.90383-.1765-.24063-.04041-.41592.0571-.38924.219a.57653.57653,0,0,0,.48285.36569C97.28789,140.39842,97.56764,140.45324,97.8453,140.51481Z"/><path class="c" d="M105.884,144.79182c.17164.18188.332.36613.47772.54791a.701.701,0,0,0,.60537.23053.20369.20369,0,0,0,.13461-.35852c-.16078-.20121-.33831-.40479-.52735-.60524a.69409.69409,0,0,0-.61587-.19423C105.76765,144.46321,105.73476,144.63334,105.884,144.79182Z"/><path class="c" d="M99.386,151.04905c-.24215-.05433-.43532.02965-.42938.18683.00489.15735.20551.32889.44767.38322.30139.06749.6057.12738.9043.17784.1917.03237.3414-.02274.38176-.12793a.1763.1763,0,0,0,.00824-.09053.57572.57572,0,0,0-.48224-.366C99.94273,151.16605,99.66308,151.111,99.386,151.04905Z"/><path class="c" d="M91.21855,140.08286a5.3214,5.3214,0,0,0-.6219.287c-.15485.08388-.12709.26858.05876.41211a.636.636,0,0,0,.61731.10863,4.81924,4.81924,0,0,1,.55674-.2566.1999.1999,0,0,0,.12217-.11122.27312.27312,0,0,0-.1128-.28664A.67324.67324,0,0,0,91.21855,140.08286Z"/><path class="c" d="M107.34921,147.02714a3.95373,3.95373,0,0,1,.15828.55559.58978.58978,0,0,0,.49434.35877c.18616.02763.32867-.02792.368-.13032a.177.177,0,0,0,.00645-.09993,4.41448,4.41448,0,0,0-.17745-.62328.63863.63863,0,0,0-.5337-.33037C107.43053,146.741,107.28863,146.86147,107.34921,147.02714Z"/><path class="c" d="M94.28094,139.55452c-.28368.004-.56332.018-.83188.04139-.21626.01884-.304.16822-.19476.3337a.69545.69545,0,0,0,.589.26544c.24415-.02119.49872-.03375.75633-.03759a.2686.2686,0,0,0,.26819-.13758.2036.2036,0,0,0-.01924-.16982A.67586.67586,0,0,0,94.28094,139.55452Z"/><path class="c" d="M100.01013,140.85257c-.05355.13957.10829.33162.34439.42221.26219.10059.52462.20824.77926.31957.2316.101.4772.07606.54862-.05637l.00885-.01923c.05015-.13072-.07749-.307-.29816-.40331-.27649-.12087-.56054-.2374-.845-.34653l-.0278-.01067C100.28465,140.66782,100.06378,140.71274,100.01013,140.85257Z"/><path class="c" d="M103.2619,142.37054c-.12611.10361-.06041.293.14612.42358.2366.14938.46888.30492.69057.46249a.61316.61316,0,0,0,.61312.085.17989.17989,0,0,0,.07421-.08727c.03745-.0976-.02318-.22732-.1681-.33049-.24169-.17192-.49545-.3418-.75341-.50459A.57233.57233,0,0,0,103.2619,142.37054Z"/><path class="c" d="M89.24027,141.589a2.87636,2.87636,0,0,0-.24968.49857l-.00407.01061c-.05355.13958.09664.32106.33274.41165s.47322.04552.52677-.09406a2.55844,2.55844,0,0,1,.22137-.4427.14849.14849,0,0,0,.01435-.02844c.0485-.12642-.06988-.29745-.2823-.39606C89.57075,141.44257,89.32048,141.46055,89.24027,141.589Z"/><path class="c" d="M102.63246,151.41077c-.22629.00281-.338.14039-.25013.30665a.67628.67628,0,0,0,.56748.29605c.28357-.00375.56355-.01729.83234-.04005a.25156.25156,0,0,0,.23164-.13564.21644.21644,0,0,0-.03559-.19756.69538.69538,0,0,0-.58874-.26621C103.14583,151.39512,102.89083,151.40751,102.63246,151.41077Z"/><path class="c" d="M92.52235,148.21519c-.14328.09209-.10238.27835.09294.41768.24235.17276.49559.34273.75217.50528a.57583.57583,0,0,0,.6035.05.17376.17376,0,0,0,.05381-.07247c.04045-.10544-.0343-.247-.19855-.35088-.23575-.149-.46783-.30509-.69061-.46366A.61233.61233,0,0,0,92.52235,148.21519Z"/><path class="c" d="M107.403,149.152a2.54516,2.54516,0,0,1-.2273.45174c-.07768.12829.038.318.26637.42476.22809.10637.479.08923.56051-.03876a2.88882,2.88882,0,0,0,.25638-.50962l.00834-.02175c.05355-.13957-.09878-.3155-.33488-.40608S107.45652,149.01237,107.403,149.152Z"/><path class="c" d="M90.13665,146.34291c.16078.20121.33727.405.52588.60526a.69355.69355,0,0,0,.61558.195.21652.21652,0,0,0,.158-.12272.25137.25137,0,0,0-.08178-.25618c-.17111-.182-.33143-.36647-.47648-.54859a.70267.70267,0,0,0-.6056-.2312A.20409.20409,0,0,0,90.13665,146.34291Z"/><path class="c" d="M88.86966,143.84282a4.428,4.428,0,0,0,.17554.62314.63773.63773,0,0,0,.53289.33121c.16549.01244.28466-.04365.32007-.13594a.18693.18693,0,0,0-.00268-.13243,3.96789,3.96789,0,0,1-.15637-.55544.58969.58969,0,0,0-.49362-.35937C89.00488,143.57736,88.83674,143.68052,88.86966,143.84282Z"/><path class="c" d="M105.96509,150.68328a4.85931,4.85931,0,0,1-.55826.25543c-.17409.06751-.17844.24511-.01076.39763a.67318.67318,0,0,0,.62.154,5.42649,5.42649,0,0,0,.62374-.28542.18617.18617,0,0,0,.09005-.09657c.03541-.09229-.01608-.21386-.14733-.31556A.63757.63757,0,0,0,105.96509,150.68328Z"/><path class="c" d="M54.74685,135.8579a5.235,5.235,0,0,0,.15009.98947,5.22033,5.22033,0,0,0-.04833.98974c.12485,2.4285,1.92012,4.532,4.68171,5.93095a.45038.45038,0,0,0,.06893.03582,15.76085,15.76085,0,0,0,2.95094,1.10279.66386.66386,0,0,0,.07183.0188,19.20362,19.20362,0,0,0,2.33735.46194.6427.6427,0,0,0,.14739.01822,21.6712,21.6712,0,0,0,3.8393.14063,20.94958,20.94958,0,0,0,5.76465-1.09775c.01861-.00558.03629-.01079.05388-.018a16.44981,16.44981,0,0,0,2.83666-1.2945.48141.48141,0,0,0,.06416-.03869,12.05242,12.05242,0,0,0,2.24832-1.6833.37543.37543,0,0,0,.06258-.06011,6.46955,6.46955,0,0,0,2.2023-4.92187,5.22167,5.22167,0,0,0-.14958-.97957,5.23419,5.23419,0,0,0,.04782-.99965c-.23845-4.63829-6.56238-8.09653-14.09745-7.70915S54.5084,131.2196,54.74685,135.8579Zm1.41082,3.42009q.13.15753.27062.31055c.05255.05716.10322.11475.15808.1708.0848.08726.17421.17229.26408.257l.03264.635a5.68415,5.68415,0,0,1-.81179-1.47273C56.09809,139.2126,56.13,139.24436,56.15767,139.278Zm20.61473,2.27406.06082,1.18292a15.09243,15.09243,0,0,1-1.84506.87044l-.06424-1.24955c.16414-.06036.32681-.122.487-.1861.069-.02769.13695-.05632.2054-.085q.27891-.116.548-.23919c.06693-.03056.13486-.06018.20127-.09171C76.50351,141.68858,76.638,141.62048,76.7724,141.55205Zm-13.5566,2.81106-.0649-1.26241q.31333.07071.63374.13212c.05916.01118.11786.02272.177.03357q.30759.05562.62038.10206l.06624,1.28847Q63.91146,144.537,63.2158,144.36311Zm5.69634.52341c-.31759.01633-.63109.02054-.94374.02273l-.06761-1.3152.02265-.0005c.305-.00344.61128-.01059.92086-.0265.15786-.00812.31409-.02012.47084-.03149l.06754,1.31387C69.22549,144.86115,69.07094,144.87836,68.91214,144.88652Zm1.34348-1.437c.19773-.02274.39387-.049.589-.07692l.04318-.00552c.26074-.03788.51885-.08092.77441-.12746l.06689,1.301c-.45942.08812-.92754.16312-1.406.22046Zm-4.72259.03773c.056.00572.113.01007.169.01513.06265.00571.12486.01177.1875.01715.29751.025.59762.04534.90157.05783l.04352.00107c.04026.0019.08043.00215.12067.00372l.06731,1.30925c-.48193-.01888-.95785-.04965-1.42258-.10149Zm7.06405-.44221c.057-.01319.1149-.02576.17138-.03924l.06256-.01446c.28417-.06919.56328-.14472.83888-.22438.05819-.01688.11493-.03435.17263-.05154.05121-.01487.10241-.02974.15264-.04522l.06534,1.271q-.67666.22281-1.39695.39693Zm-11.41987-.51c.0688.02424.1399.04705.20961.07058q.28057.09522.56968.18173c.071.02116.14111.043.213.06347l.024.007.06358,1.23668a14.33208,14.33208,0,0,1-1.92885-.75944l-.05941-1.15553c.08453.036.16861.07236.2545.1073Q60.844,142.41675,61.17721,142.53506Zm-3.29331-.79646-.04684-.9111c.10646.07656.21338.15308.32444.22708.09293.0617.18907.12125.28522.18114q.1457.09074.29549.17862c.096.05625.19146.11253.29017.167.08753.04842.17824.09436.268.141l.056,1.08923A9.70569,9.70569,0,0,1,57.8839,141.7386Zm19.86544.43662-.0582-1.13211c.06782-.04087.13566-.0814.202-.12317q.26091-.16324.50771-.33436c.09261-.064.18182-.13006.27151-.19586q.14068-.103.276-.20867c.03634-.02833.07557-.05548.11142-.08411l.051.99224A10.60028,10.60028,0,0,1,77.74934,142.17522Zm3.3506-4.283a6.03478,6.03478,0,0,1-1.09562,2.19622l-.041-.798c.04448-.04462.08606-.09041.12911-.13529.06905-.072.13858-.144.20427-.21722q.18366-.20441.35047-.41524c.04834-.06135.09332-.12386.13973-.18611q.124-.16662.23734-.33666C81.04832,137.96329,81.07677,137.92843,81.09994,137.89218Zm.0345-3.39089a4.79118,4.79118,0,0,1-.02416.77981l-.01889.129-.00812.05333q-.02583.173-.0636.34361l-.007.02847q-.03751.16614-.08651.3299c-.00482.01645-.01059.033-.01588.04943-.03162.10184-.06513.20345-.103.304-.01165.03069-.02519.06149-.03731.09221-.03384.08608-.06864.17187-.10727.25688-.03141.06908-.06664.13737-.10092.20561-.02313.0465-.0448.09359-.06937.13951a10.66642,10.66642,0,0,1-5.66125,4.44152c-.02408.00951-.0496.01842-.0737.0276q-.21613.08306-.43721.16172c-.05893.02089-.11886.04051-.1783.06076-.11514.03933-.23078.07835-.34793.11546-.0753.02405-.15208.04685-.22838.07-.10326.03144-.207.06257-.3118.0921-.08569.02425-.17237.04756-.25857.07084q-.14748.03984-.2965.07743c-.09093.02319-.18333.04547-.2753.06707-.09756.02288-.19611.04514-.29468.06674-.09437.02073-.18878.0408-.28416.06026-.09959.02033-.19971.03937-.30032.0581-.09594.01783-.19188.03566-.28881.05255-.10349.01789-.20754.03416-.31206.05044-.09467.01479-.18886.02989-.28454.04341-.11257.016-.22666.02984-.34027.04395-.08872.01118-.17693.023-.26619.03287-.13059.01465-.26226.02671-.39439.03879-.0743.0068-.14759.01487-.22192.021-.207.01659-.41559.03095-.62574.04176s-.41909.0179-.6272.02265c-.07457.00152-.14877.001-.2229.00187-.13221.0015-.26489.003-.3963.00185-.0898-.00068-.17876-.00338-.26815-.0054-.11446-.00238-.22891-.00477-.343-.00882-.09609-.00366-.1918-.009-.28749-.014-.10564-.00548-.21081-.011-.31559-.01817-.09813-.00653-.19539-.01443-.29267-.02266q-.153-.01246-.3047-.027c-.09687-.00957-.19284-.01985-.28884-.03079-.10027-.01138-.20058-.02343-.3-.03618q-.14126-.018-.28118-.03813-.15208-.02195-.30288-.04661c-.08861-.01429-.17675-.02861-.26447-.044-.10728-.019-.21368-.03929-.3201-.05994-.07826-.01516-.1565-.03-.23387-.04619-.12036-.02523-.23937-.05186-.35794-.07917-.0612-.014-.12283-.02742-.18359-.04215q-.22819-.05525-.45149-.116c-.02539-.007-.05121-.01291-.07614-.01989a10.66811,10.66811,0,0,1-6.08688-3.83755c-.02917-.04348-.05554-.08777-.08331-.13165-.0411-.06437-.08315-.12868-.12148-.19418-.04714-.0806-.09008-.1624-.13305-.24453-.0152-.02931-.03181-.05823-.04656-.0879-.04794-.09609-.09217-.1937-.13359-.29179-.006-.01557-.01389-.03137-.02038-.04724-.04368-.10525-.08317-.2117-.11988-.31929l-.00992-.0276q-.05531-.16584-.0985-.33527l-.01355-.05222-.032-.12635a4.851,4.851,0,0,1-.10355-.77357c-.21976-4.27446,5.30872-8.04536,12.324-8.406S80.91469,130.22684,81.13444,134.50129Z"/><path class="c" d="M68.71428,141.03794c-.29639.01523-.59462.0223-.88665.0211-.2599-.00086-.48006.14607-.49145.32889-.00947.18339.1909.33151.45081.3327.31614.00128.63984-.00643.96121-.023l.00989-.0005c.26011-.01338.45843-.17174.44907-.35383S68.97439,141.02456,68.71428,141.03794Z"/><path class="c" d="M65.43163,129.64166c.212-.0486.3474-.19018.3398-.338a.2449.2449,0,0,0-.01829-.08009.51184.51184,0,0,0-.58436-.21008c-.31191.0716-.6224.15272-.923.2416-.24294.0717-.36571.26587-.27155.434a.54014.54014,0,0,0,.609.17441C64.85916,129.78222,65.14494,129.70766,65.43163,129.64166Z"/><path class="c" d="M74.79687,130.5202c.23861.12.46773.24815.682.38068a.6235.6235,0,0,0,.66618-.03624.26637.26637,0,0,0-.02681-.46629c-.23669-.14691-.49011-.28834-.753-.42068a.619.619,0,0,0-.66053.08191A.26923.26923,0,0,0,74.79687,130.5202Z"/><path class="c" d="M71.37387,140.67332c-.25031.05686-.39563.24459-.323.41747a.51027.51027,0,0,0,.58347.21111c.31148-.07092.62245-.15173.924-.24033.19362-.05692.31049-.19125.30344-.32848a.24571.24571,0,0,0-.03093-.10524.53958.53958,0,0,0-.60854-.1751C71.94592,140.53378,71.66012,140.608,71.37387,140.67332Z"/><path class="c" d="M59.03211,132.37714a6.13352,6.13352,0,0,0-.46074.623c-.10943.169-.00454.36206.231.4323a.58.58,0,0,0,.62533-.17833,5.55539,5.55539,0,0,1,.41262-.55735.26253.26253,0,0,0,.06709-.1837.3213.3213,0,0,0-.22815-.26576A.60518.60518,0,0,0,59.03211,132.37714Z"/><path class="c" d="M77.12538,132.3082a4.84866,4.84866,0,0,1,.38563.54442.54886.54886,0,0,0,.6168.16111c.1864-.05952.29634-.19085.28947-.32445a.24485.24485,0,0,0-.03661-.11487,5.413,5.413,0,0,0-.43252-.61081.58178.58178,0,0,0-.64158-.11022C77.07949,131.94873,76.99784,132.15237,77.12538,132.3082Z"/><path class="c" d="M61.67872,130.299c-.26435.14225-.52066.29368-.76254.45031a.26884.26884,0,0,0-.0402.46776.62.62,0,0,0,.66576.01075c.21994-.14228.45334-.28.6933-.40938a.31743.31743,0,0,0,.1928-.2841.26616.26616,0,0,0-.09054-.18056A.6066.6066,0,0,0,61.67872,130.299Z"/><path class="c" d="M67.60618,128.96793c.00936.18209.24314.31825.50325.30487.28885-.01485.58093-.02193.86728-.0211.26035.0005.48-.14672.49047-.3295a.23134.23134,0,0,0,.00009-.0258c-.00876-.17054-.20375-.30572-.45181-.30619-.31092-.00088-.62707.00677-.94042.02288l-.03063.00157C67.78477,128.628,67.5968,128.78552,67.60618,128.96793Z"/><path class="c" d="M71.304,129.08608c-.074.17711.06843.357.31788.4027.28567.05213.56993.11325.84511.18179a.56478.56478,0,0,0,.61132-.20275.24637.24637,0,0,0,.03235-.13363.34929.34929,0,0,0-.29875-.28793c-.30008-.07487-.6106-.14159-.922-.19834A.537.537,0,0,0,71.304,129.08608Z"/><path class="c" d="M57.81971,135.02223a4.13367,4.13367,0,0,0-.02132.67878l.00071.01386c.00936.18209.2277.31209.48781.29872s.46325-.17894.45389-.361a3.67812,3.67812,0,0,1,.01863-.60257.21348.21348,0,0,0,.00132-.03877c-.00848-.16493-.19253-.29868-.43385-.30579C58.06714,134.698,57.84009,134.8396,57.81971,135.02223Z"/><path class="c" d="M74.57305,139.50108c-.211.113-.257.32114-.10369.4644a.607.607,0,0,0,.65862.05544c.26436-.14192.52117-.293.76355-.449a.30433.30433,0,0,0,.15933-.26419.276.276,0,0,0-.11771-.20363.62.62,0,0,0-.66582-.01175C75.04785,139.23424,74.814,139.37194,74.57305,139.50108Z"/><path class="c" d="M63.72671,140.83793c-.09506.17257.02281.361.26548.42193.301.07548.61112.14256.92115.19971a.5398.5398,0,0,0,.58735-.23724.24213.24213,0,0,0,.01953-.10717c-.00707-.13756-.1376-.2595-.336-.29594-.28474-.05217-.569-.114-.84565-.18308A.56389.56389,0,0,0,63.72671,140.83793Z"/><path class="c" d="M78.0829,134.65817a3.65758,3.65758,0,0,1-.02032.61557c-.01809.18118.17135.33714.43116.34562.25933.00816.48736-.13288.50915-.31558a4.15207,4.15207,0,0,0,.02288-.69441l-.00146-.02837c-.00936-.18209-.22733-.30483-.48743-.29146S78.07354,134.47609,78.0829,134.65817Z"/><path class="c" d="M60.68991,139.90293c.23669.14692.4892.28906.7516.42142a.61843.61843,0,0,0,.66058-.08092.27621.27621,0,0,0,.09578-.21395.304.304,0,0,0-.18608-.24676c-.23816-.12039-.46729-.24884-.68107-.38205a.625.625,0,0,0-.66669.03559A.267.267,0,0,0,60.68991,139.90293Z"/><path class="c" d="M58.4343,137.72256a5.43587,5.43587,0,0,0,.43066.61156.58127.58127,0,0,0,.64119.11157.33806.33806,0,0,0,.24215-.30747.25229.25229,0,0,0-.059-.14679,4.87218,4.87218,0,0,1-.38378-.54518.549.549,0,0,0-.61638-.16212C58.44779,137.36,58.33413,137.557,58.4343,137.72256Z"/><path class="c" d="M77.38808,137.069a5.59076,5.59076,0,0,1-.41453.55678c-.13445.16-.06272.36076.15967.44987a.605.605,0,0,0,.64724-.12886,6.24507,6.24507,0,0,0,.46315-.62212.25146.25146,0,0,0,.04323-.15172.33931.33931,0,0,0-.2729-.28132A.58123.58123,0,0,0,77.38808,137.069Z"/><path class="d" d="M230.97,52.348H187.94831a7.29571,7.29571,0,0,1-7.28741-7.28741V15.1267a7.2957,7.2957,0,0,1,7.28741-7.28741h12.27128L220.67114.30559a.902.902,0,0,1,1.16831.563l.87029,2.62861,5.36519-1.70148A.90234.90234,0,0,1,229.221,2.429l1.40347,5.41H230.97a7.2957,7.2957,0,0,1,7.28741,7.28741v7.49581a4.14247,4.14247,0,0,1,3.02136,3.98277v6.978a4.14274,4.14274,0,0,1-3.02136,3.98277v7.49521A7.29566,7.29566,0,0,1,230.97,52.348ZM187.94831,9.64392a5.48918,5.48918,0,0,0-5.48308,5.48308V45.06093a5.48917,5.48917,0,0,0,5.48308,5.48307H230.97a5.48917,5.48917,0,0,0,5.48307-5.48307v-7.343H220.35057a3.928,3.928,0,0,1-3.92353-3.92352V26.39387a3.928,3.928,0,0,1,3.92353-3.92352h16.10249V15.127A5.48918,5.48918,0,0,0,230.97,9.64392h-1.02427q-.01984.00047-.03969,0h-6.38916c-.01383.00031-.02766.00031-.0418,0H200.40183c-.01413.00031-.02827.00031-.0421,0Zm30.28306,23.93873a2.33338,2.33338,0,0,0,2.3306,2.3306h16.58215a2.33338,2.33338,0,0,0,2.3306-2.3306v-6.978a2.33338,2.33338,0,0,0-2.3306-2.3306H220.562a2.33338,2.33338,0,0,0-2.3306,2.3306Zm5.91612-25.74306h4.61278l-1.04711-4.036L223.2769,5.21037Zm-18.708,0h16.80738l-.96562-2.91671-.00781-.02346-.00031-.0015L220.42,2.32133ZM223.49583,33.509a3.415,3.415,0,1,1,3.415-3.415A3.419,3.419,0,0,1,223.49583,33.509Zm0-5.026a1.61068,1.61068,0,1,0,1.61067,1.61068A1.61243,1.61243,0,0,0,223.49583,28.483Z"/><path class="e" d="M225.1382,432.4375a3.549,3.549,0,1,0,3.549,3.549A3.553,3.553,0,0,0,225.1382,432.4375Zm0,5.67842a2.12941,2.12941,0,1,1,2.1294-2.12941A2.132,2.132,0,0,1,225.1382,438.11592Z"/><path class="e" d="M258.49891,426.75908a3.01012,3.01012,0,0,0-1.92711-3.00459,3.54782,3.54782,0,0,0-2.3317-6.22284h-10.197l.51745-2.42043a24.64206,24.64206,0,0,0,.08234-7.9434c-.36768-2.47934-2.56026-5.25182-4.94449-5.25182h-.16964c-1.13284,0-3.03369.64521-3.03369,4.96861,0,5.69475-1.421,8.30043-2.61279,9.483a3.66342,3.66342,0,0,1-2.35583,1.16408h-.7098V416.112H219.45978v26.9725h11.35684v-1.41961h19.87446a3.5475,3.5475,0,0,0,2.79024-5.74017,3.54755,3.54755,0,0,0,2.1294-5.67842A3.55438,3.55438,0,0,0,258.49891,426.75908Zm-37.61953,14.90585V417.53165H229.397v24.13328Zm34.07052-12.77644h-7.80783a.7098.7098,0,0,0,0,1.4196h5.67842a2.12941,2.12941,0,1,1,0,4.25882h-7.098a.7098.7098,0,1,0,0,1.4196h4.96861a2.12941,2.12941,0,0,1,0,4.25882H230.81662V418.95125l.68779-.00071a4.85735,4.85735,0,0,0,3.3233-1.52181c2.04849-1.98461,3.08693-5.5322,3.08693-10.54412,0-1.3252.20939-3.549,1.61409-3.549h.16964c1.58357,0,3.27077,2.22168,3.53979,4.03949a23.124,23.124,0,0,1-.066,7.43873l-.88371,4.13743H254.2401a2.12941,2.12941,0,0,1,0,4.25882h-7.098a.7098.7098,0,0,0,0,1.4196h4.96862a24.21084,24.21084,0,0,1,2.73558.137c1.85329.27469,2.233.99514,2.233,1.99241A2.132,2.132,0,0,1,254.9499,428.88849Z"/><path class="d" d="M76.51416,319.88012a4.58143,4.58143,0,1,0-6.12893-2.10106,4.56737,4.56737,0,0,0,6.12893,2.10106Zm-4.5245-2.88644a2.795,2.795,0,1,1,3.7392,1.28179l0-.00011A2.79811,2.79811,0,0,1,71.98966,316.99368Z"/><path class="d" d="M84.25034,321.99436a4.58146,4.58146,0,1,0,2.10121-6.129A4.58686,4.58686,0,0,0,84.25034,321.99436Zm6.62555-3.24248A2.795,2.795,0,1,1,87.13674,317.47,2.798,2.798,0,0,1,90.87589,318.75188Z"/><path class="d" d="M79.28577,309.27934l2.5259,17.44275a.89324.89324,0,1,0,1.768-.256l-2.5259-17.44275a.89324.89324,0,1,0-1.768.256Z"/><path class="d" d="M67.34779,281.24592a5.78413,5.78413,0,0,0-7.339,3.59163l-2.02092,5.89478a5.78413,5.78413,0,0,0,3.59164,7.339l3.84438,1.318-3.50319,7.67233A3.59013,3.59013,0,0,0,61.962,310.143L75.129,337.04778a2.59656,2.59656,0,0,0,3.46934,1.1894l21.11753-10.3348a2.59332,2.59332,0,0,0,1.1894-3.46934L87.73842,297.52829a3.592,3.592,0,0,0-2.40789-1.9231l-10.2587-2.42608-4.40814-9.0076A5.74026,5.74026,0,0,0,67.34779,281.24592Zm18.786,17.06767,13.16683,26.90475a.8068.8068,0,0,1-.36994,1.07943h0l-21.11753,10.3348a.80794.80794,0,0,1-1.07961-.37013L63.56669,309.35769a1.80985,1.80985,0,0,1-.08753-1.38659q.02907-.08482.06669-.16737l3.57615-7.83226,2.5622.87841a3.9159,3.9159,0,1,0,7.41358-1.32957l0,.00011a3.91615,3.91615,0,0,0-6.83408-.36039l-2.39615-.82147,1.452-3.18015a1.8223,1.8223,0,0,1,2.072-1.014l13.52791,3.19926A1.81157,1.81157,0,0,1,86.13376,298.31359Zm-14.68024,2.9967A3.92611,3.92611,0,0,0,74.94,299.604a2.1219,2.1219,0,0,1,.55308.7014l0,.00012a2.12922,2.12922,0,1,1-4.0395,1.00472ZM69.059,284.95692l3.76343,7.69024-1.01992-.24126a3.613,3.613,0,0,0-4.10807,2.01045l-1.525,3.34-4.01055-1.37494a3.9956,3.9956,0,0,1-2.48109-5.06978l2.02091-5.89477a3.99113,3.99113,0,0,1,7.36033-.46Z"/><path class="d" d="M173.0955,15.958a.90223.90223,0,0,0-.74447-.21373,28.82116,28.82116,0,0,1-4.6831.38559A30.327,30.327,0,0,1,145.769,6.51311a.90254.90254,0,0,0-1.3-.00012,30.32976,30.32976,0,0,1-21.899,9.61689,28.8038,28.8038,0,0,1-4.683-.38559.90247.90247,0,0,0-1.04908.92583,63.86535,63.86535,0,0,0,4.97519,23.22936,45.53546,45.53546,0,0,0,9.53241,14.07723c6.74383,6.70833,13.24178,8.70394,13.5151,8.78565a.90223.90223,0,0,0,.51677,0c.27331-.08171,6.77127-2.07732,13.51509-8.78565a45.53969,45.53969,0,0,0,9.53242-14.07724,63.86277,63.86277,0,0,0,4.97519-23.22935.90252.90252,0,0,0-.30461-.7121ZM157.69155,52.62508a35.48017,35.48017,0,0,1-12.57337,8.32159,35.27961,35.27961,0,0,1-12.49947-8.24962c-5.84808-5.81739-12.94934-16.58686-13.92681-35.01047a30.56392,30.56392,0,0,0,3.87822.24852,30.86711,30.86711,0,0,0,12.62127-2.7124A33.53824,33.53824,0,0,0,145.11914,8.423a33.53382,33.53382,0,0,0,9.92764,6.8,30.86211,30.86211,0,0,0,12.62138,2.712,30.57546,30.57546,0,0,0,3.8781-.24852c-.9741,18.37006-8.03781,29.123-13.85471,34.9385Z"/><path class="d" d="M145.68959,12.97435a.90258.90258,0,0,0-1.141,0,34.52589,34.52589,0,0,1-21.59767,7.96729.90264.90264,0,0,0-.88673,1.00551,55.8518,55.8518,0,0,0,4.00844,15.67546,41.00247,41.00247,0,0,0,8.29764,12.56772,34.42915,34.42915,0,0,0,10.38243,7.36891.9025.9025,0,0,0,.73292,0,34.00753,34.00753,0,0,0,9.05535-6.0789.90264.90264,0,0,0-1.22611-1.325,32.49446,32.49446,0,0,1-8.19594,5.58752,32.863,32.863,0,0,1-9.4578-6.81447,39.20659,39.20659,0,0,1-7.93-12.01845,53.4065,53.4065,0,0,1-3.75353-14.18856A36.28163,36.28163,0,0,0,145.119,14.83a36.27913,36.27913,0,0,0,21.14143,7.89158,53.40612,53.40612,0,0,1-3.75354,14.18856,39.76665,39.76665,0,0,1-6.72914,10.72843.90258.90258,0,0,0,1.35079,1.19747,41.57077,41.57077,0,0,0,7.037-11.21332A55.85721,55.85721,0,0,0,168.174,21.94727a.90264.90264,0,0,0-.88672-1.00551,34.52186,34.52186,0,0,1-21.59767-7.9674Z"/><path class="e" d="M70.25868,238.45789a.85443.85443,0,0,0-.85685.00465l-5.41054,3.17616c-2.17439,1.27654-4.70821,3.04719-5.55547,5.62H54.53919a.85413.85413,0,0,0-.85419.85419v2.02045c-3.29718.48119-5.77547,2.83449-5.77547,5.62351v3.06285c0,2.789,2.47829,5.14232,5.77547,5.62352v2.02054a.85413.85413,0,0,0,.85419.85419h3.89653c.84717,2.5732,3.38108,4.34356,5.55557,5.62l5.41054,3.17617a1.004,1.004,0,0,0,.85685.00465.84981.84981,0,0,0,.42975-.74134V239.19913A.85407.85407,0,0,0,70.25868,238.45789ZM53.685,262.71283c-2.34115-.42691-4.06709-2.02282-4.06709-3.89322v-3.06284c0-1.87039,1.72594-3.46621,4.06709-3.89321Zm15.29505,11.17253-4.12394-2.42087c-2.05509-1.20641-4.47217-2.88394-4.92574-5.16729a.85421.85421,0,0,0-.83787-.68772H55.39338V248.967h2.84493v12.34144a.85419.85419,0,0,0,1.70838,0V248.201c.49259-2.2433,2.87787-3.89644,4.90942-5.089l4.12394-2.42087Zm17.97322-16.59722c0,5.68512-2.566,10.90214-6.69676,13.615a.85417.85417,0,1,1-.93781-1.42792c3.65537-2.40075,5.92609-7.07052,5.92609-12.187s-2.27063-9.78627-5.926-12.187a.85417.85417,0,0,1,.93781-1.42792C84.38728,246.38611,86.95327,251.603,86.95327,257.28814Zm-9.38614,10.12093a.85421.85421,0,0,1-.91873-1.44036,10.84951,10.84951,0,0,0,0-17.36114.85421.85421,0,0,1,.91873-1.44036,12.54753,12.54753,0,0,1,0,20.24186Zm-2.453-4.01868a.85418.85418,0,1,1-.92367-1.43713,5.54235,5.54235,0,0,0,0-9.33033.85421.85421,0,1,1,.92376-1.43713,7.25063,7.25063,0,0,1-.00009,12.20459Z"/><path d="M154.66563,382.05531a1.19,1.19,0,0,0-1.10322-.8516c-.75993-.06359-5.28522-.46617-6.37948-.56372l-2.89382-7.19712a1.42048,1.42048,0,0,0-1.31859-1.01353,1.33038,1.33038,0,0,0-1.159,1.04119c-.28088.76112-2.16941,5.99053-2.595,7.169l-6.78792.575a1.16111,1.16111,0,0,0-1.06541.83368,1.415,1.415,0,0,0,.46151,1.47736c.46776.3585,4.29355,3.15989,5.27233,3.87653l-1.96689,6.743c-.29532.87071-.04018,1.29244.22589,1.49254a1.56662,1.56662,0,0,0,1.72157-.17089c.54887-.38191,4.8752-3.46847,5.05893-3.59954a.39.39,0,1,0-.45291-.63509c-.04525.032-4.50695,3.21489-5.05193,3.59447a.93318.93318,0,0,1-.80634.18767c-.05345-.04019-.08545-.23759.04878-.63431l2.04848-7.022a.39.39,0,0,0-.14432-.42407c-.04956-.03629-4.96023-3.63035-5.4787-4.02748a.64491.64491,0,0,1-.18762-.639.384.384,0,0,1,.38269-.27544l7.0372-.59609a.39.39,0,0,0,.334-.25629c.0234-.06514,2.36365-6.54722,2.68591-7.423.09051-.30469.26487-.49935.45524-.5079.206-.01212.42639.19621.55823.52468l2.98316,7.41948a.39036.39036,0,0,0,.32728.243s5.75569.51261,6.62914.58557a.41882.41882,0,0,1,.41506.30274.6895.6895,0,0,1-.2204.71586l-5.07768,3.94049a.39064.39064,0,0,0-.13966.40144c.01367.05541,1.36069,5.52121,1.7512,7.00639.08736.33158.07762.59143-.02419.66242a.90544.90544,0,0,1-.82741-.18844c-.76812-.53483-6.676-4.84283-6.73566-4.88654a.39036.39036,0,0,0-.46.63084c.2438.17751,5.97453,4.35637,6.74969,4.89586a2.011,2.011,0,0,0,1.09659.36984,1.07244,1.07244,0,0,0,.62339-.18181c.2801-.19543.56527-.61442.33235-1.50035-.34173-1.29829-1.41962-5.66243-1.68761-6.74851l4.87754-3.78524A1.46624,1.46624,0,0,0,154.66563,382.05531Z"/><path d="M311.64536,343.81914a1.41615,1.41615,0,0,0-1.55513-.57626c-.88581.19719-6.16909,1.34426-7.44671,1.62139l-5.8389-7.14968a1.69034,1.69034,0,0,0-1.85719-.68384,1.58311,1.58311,0,0,0-.94749,1.59366c-.04922.96419-.34051,7.57414-.40617,9.06378l-7.50693,3.05975a1.38172,1.38172,0,0,0-.9147,1.32475,1.68387,1.68387,0,0,0,1.048,1.51461c.65847.2414,5.99761,2.06729,7.36354,2.53436l.15633,8.35714c-.02679,1.09379.41256,1.4824.78575,1.61538a1.86431,1.86431,0,0,0,1.89505-.80448c.48809-.62843,4.30834-5.66848,4.47059-5.88251a.46412.46412,0,1,0-.73965-.56086c-.04007.0524-3.97994,5.24986-4.46444,5.87426-.28277.364-.70395.55088-.84944.49906-.075-.0267-.18129-.2396-.16947-.73785l-.16254-8.703a.464.464,0,0,0-.31429-.43055c-.06916-.02367-6.92172-2.36537-7.65147-2.63268a.76741.76741,0,0,1-.43968-.65938.45694.45694,0,0,1,.33706-.44857l7.78266-3.17207a.46406.46406,0,0,0,.28849-.40953c.0035-.0823.36381-8.27538.41938-9.38448-.00521-.37822.12385-.66116.33706-.73836.22971-.08679.55393.07172.82016.3981l6.01921,7.37061a.46454.46454,0,0,0,.45794.16s6.72-1.45829,7.738-1.68507a.49836.49836,0,0,1,.57881.19673.82053.82053,0,0,1,.00344.89134l-4.371,6.27646a.46487.46487,0,0,0-.01633.50553c.03517.05809,3.50316,5.78946,4.4733,7.33812.2168.34568.29787.64432.20739.76106a1.07752,1.07752,0,0,1-1.00672.07929c-1.06217-.33523-9.30058-3.13441-9.3839-3.16289a.46452.46452,0,0,0-.29883.87967c.33989.11521,8.33132,2.83048,9.40314,3.1685a2.39307,2.39307,0,0,0,1.37681.03135,1.27617,1.27617,0,0,0,.64368-.42754c.2489-.32131.4243-.89837-.15439-1.82217-.84847-1.35366-3.62016-5.929-4.30963-7.06773l4.19868-6.02914A1.74481,1.74481,0,0,0,311.64536,343.81914Z"/><path class="b" d="M101.27814,234.61633l-1.12467-6.75884H96.11168a5.40711,5.40711,0,1,0,0,2.70353h1.74919l.67588,4.05531h-.05l6.98864,35.16761a6.94348,6.94348,0,0,0-6.43442,6.04781,6.77458,6.77458,0,0,0,6.725,7.44825h2.70354a8.11061,8.11061,0,1,0,16.22122,0h14.86945a8.11062,8.11062,0,0,0,16.22123,0h5.40707a1.35177,1.35177,0,1,0,0-2.70354h-5.88019a8.09752,8.09752,0,0,0-15.275,0H124.21765a8.09751,8.09751,0,0,0-15.275,0H105.766a4.06893,4.06893,0,0,1-3.00633-1.34231,4.01209,4.01209,0,0,1-1.0287-3.1307,4.23579,4.23579,0,0,1,4.28917-3.63625H107.157l30.14309-.00946h.00405l15.29391-.00541h.0027l7.26846-.0027a6.74891,6.74891,0,0,0,6.74262-6.74127V234.60011Zm-10.38158-2.70354a2.70354,2.70354,0,1,1,2.70354-2.70353A2.70626,2.70626,0,0,1,90.89656,231.91279Zm56.77427,45.96013a5.40708,5.40708,0,1,1-5.40707,5.40708A5.41252,5.41252,0,0,1,147.67083,277.87292Zm-31.09067,0a5.40708,5.40708,0,1,1-5.40707,5.40708A5.41251,5.41251,0,0,1,116.58016,277.87292Zm47.32947-19.99266L152.0411,269.74744l-11.47245.00405,23.341-23.34233Zm0-15.2939-27.16514,27.16649-11.47651.004,32.45325-32.4519,6.18839-.00136ZM109.97136,269.761l32.45191-32.45191,11.47381-.0027L121.44382,269.7569ZM103.445,245.69948l8.38231-8.38232,11.47517-.0027L105.347,255.26865Zm4.55816-8.381-5.19214,5.19214-1.0314-5.18944Zm-2.0236,21.1403,21.14571-21.14571,11.47381-.00271-30.65,30.64865c-.02839.02839-.03785.06489-.06218.09327Zm53.8896,11.28727-4.00529.00135,8.04437-8.043v4.00393A4.04178,4.04178,0,0,1,159.86919,269.74609Z"/><path class="e" d="M78.07647,159.55835A14.10848,14.10848,0,1,0,81.82835,179.155,14.01657,14.01657,0,0,0,78.07647,159.55835Zm2.64107,18.84288a12.76627,12.76627,0,1,1-3.39509-17.73211A12.68337,12.68337,0,0,1,80.71754,178.40123Z"/><path class="e" d="M100.28289,186.87831l-10.97626-7.44862-.92564,1.3641-2.77189-1.881a17.25026,17.25026,0,1,0-2.60929,3.84529l2.7718,1.881-.92549,1.3639,10.97619,7.44873a3.972,3.972,0,1,0,4.46058-6.57342ZM83.322,180.16883l-.04121.05907c-.28393.41428-.59083.821-.91439,1.20941l-.04781.05737a15.91236,15.91236,0,1,1,1.86247-2.7437l-.03313.061c-.23092.42484-.48289.84081-.74888,1.24019C83.37326,180.09108,83.34821,180.1302,83.322,180.16883Zm.53695,1.54959.01335-.01779q.12322-.16179.24277-.32691c.01555-.02126.03133-.0423.04661-.0636q.13767-.1917.2712-.38765.13254-.1953.25888-.39345c.016-.02483.03128-.05008.047-.07505q.10644-.168.20877-.33779l.01314-.02125,2.66621,1.80928-1.10181,1.6236Zm16.36927,9.92311a2.6294,2.6294,0,0,1-3.6522.69921l-9.86539-6.695,2.95306-4.35152,1.8296,1.24161-1.81852,2.67973,1.11091.75381,1.81852-2.67972,6.92494,4.69944A2.63254,2.63254,0,0,1,100.22822,191.64153Z"/><path class="d" d="M103.47863,43.00416a.99876.99876,0,0,0-1.36127.37718L92.23584,60.83866a.99887.99887,0,1,0,1.73855.98409l9.88152-17.45732A.99872.99872,0,0,0,103.47863,43.00416Z"/><path class="d" d="M95.507,51.13814a4.48983,4.48983,0,1,0-3.90122,2.25137,4.52022,4.52022,0,0,0,1.17308-.15572A4.46472,4.46472,0,0,0,95.507,51.13814ZM90.36554,51.056a2.49715,2.49715,0,0,1,.59972-4.57507,2.50863,2.50863,0,0,1,.65167-.0866A2.49774,2.49774,0,1,1,90.36554,51.056Z"/><path class="d" d="M106.72409,52.4173a4.495,4.495,0,1,0-2.25277,8.39079,4.52079,4.52079,0,0,0,1.17308-.15572,4.49494,4.49494,0,0,0,1.07969-8.23507Zm-.082,5.14144a2.49719,2.49719,0,1,1-2.811-3.6591,2.50906,2.50906,0,0,1,.65167-.0866,2.49822,2.49822,0,0,1,2.15928,3.7457Z"/><path class="d" d="M117.19945,52.60209a9.65517,9.65517,0,0,1,.375-2.16713,7.68824,7.68824,0,0,0,.22014-4.24906,7.76557,7.76557,0,0,0-2.74312-3.39161,9.21434,9.21434,0,0,1-1.50905-1.45119,9.34191,9.34191,0,0,1-.933-1.91017,7.76617,7.76617,0,0,0-2.35928-3.626,7.738,7.738,0,0,0-4.154-1.12145,9.51642,9.51642,0,0,1-2.12993-.3041,9.0108,9.0108,0,0,1-1.8078-.968,7.80484,7.80484,0,0,0-4.11261-1.57113,7.80491,7.80491,0,0,0-4.11251,1.571,9.01947,9.01947,0,0,1-1.8077.968,9.51245,9.51245,0,0,1-2.13.3041,7.739,7.739,0,0,0-4.154,1.12146,7.76658,7.76658,0,0,0-2.35928,3.626,9.3463,9.3463,0,0,1-.933,1.91017,9.21428,9.21428,0,0,1-1.50905,1.4512,7.76516,7.76516,0,0,0-2.743,3.39142,7.6868,7.6868,0,0,0,.22,4.24916,9.65193,9.65193,0,0,1,.375,2.16721,9.64862,9.64862,0,0,1-.375,2.167,7.688,7.688,0,0,0-.22,4.24926,7.76531,7.76531,0,0,0,2.74311,3.39141,9.21024,9.21024,0,0,1,1.50905,1.4512,9.34707,9.34707,0,0,1,.933,1.91017,7.76518,7.76518,0,0,0,2.35927,3.626,7.738,7.738,0,0,0,4.154,1.12146,9.51593,9.51593,0,0,1,2.12994.3041,9.01539,9.01539,0,0,1,1.8078.968,7.80481,7.80481,0,0,0,4.11251,1.571,7.80516,7.80516,0,0,0,4.11241-1.571,9.01847,9.01847,0,0,1,1.80789-.968,9.50643,9.50643,0,0,1,2.13012-.3042,7.73866,7.73866,0,0,0,4.15393-1.12146,7.76651,7.76651,0,0,0,2.35928-3.626,9.33722,9.33722,0,0,1,.93306-1.91017,9.21024,9.21024,0,0,1,1.50905-1.4512,7.76582,7.76582,0,0,0,2.743-3.39141,7.6872,7.6872,0,0,0-.22005-4.24926A9.64264,9.64264,0,0,1,117.19945,52.60209Zm-1.29266,3.02272a5.96689,5.96689,0,0,1,.29328,2.87607,5.99131,5.99131,0,0,1-1.98957,2.2337,12.06,12.06,0,0,0-2.10564,2.07906,12.21061,12.21061,0,0,0-1.34719,2.67051,6.00769,6.00769,0,0,1-1.49492,2.558,5.996,5.996,0,0,1-2.87088.6268,12.41123,12.41123,0,0,0-2.97477.46228,11.8337,11.8337,0,0,0-2.591,1.34189,6.00529,6.00529,0,0,1-2.78018,1.21194,6.00559,6.00559,0,0,1-2.78029-1.21194,11.83381,11.83381,0,0,0-2.591-1.342A12.4101,12.4101,0,0,0,89.7,68.669a5.99637,5.99637,0,0,1-2.871-.62679,6.0088,6.0088,0,0,1-1.49482-2.558A12.21017,12.21017,0,0,0,83.987,62.81364a12.05243,12.05243,0,0,0-2.10564-2.07907A5.99245,5.99245,0,0,1,79.89178,58.501a5.96722,5.96722,0,0,1,.29328-2.87618,12.58,12.58,0,0,0,.48615-3.02271,12.58158,12.58158,0,0,0-.48615-3.02281,5.96689,5.96689,0,0,1-.29328-2.87607,5.99035,5.99035,0,0,1,1.98957-2.2337A12.0594,12.0594,0,0,0,83.987,42.39044a12.21032,12.21032,0,0,0,1.34719-2.6705,6.0078,6.0078,0,0,1,1.49493-2.558,5.99612,5.99612,0,0,1,2.871-.6268,12.41166,12.41166,0,0,0,2.97476-.46218,11.83566,11.83566,0,0,0,2.5909-1.342,6.003,6.003,0,0,1,2.78007-1.212,6.00473,6.00473,0,0,1,2.78029,1.21194,11.83563,11.83563,0,0,0,2.591,1.342,12.40959,12.40959,0,0,0,2.97466.46218,5.99641,5.99641,0,0,1,2.871.6268,6.00944,6.00944,0,0,1,1.49493,2.558,12.21418,12.21418,0,0,0,1.34709,2.67051,12.05944,12.05944,0,0,0,2.10563,2.079,5.99327,5.99327,0,0,1,1.98967,2.23379,5.96739,5.96739,0,0,1-.29337,2.87618,12.58,12.58,0,0,0-.48615,3.02271A12.58172,12.58172,0,0,0,115.90679,55.62481Z"/><path class="b" d="M188.14012,403.18888a1.25683,1.25683,0,0,0-1.26208-1.26208h-17.6053a5.59027,5.59027,0,0,1-5.58372-5.58372V359.9469H171.338V364.702a1.26207,1.26207,0,0,0,2.52414,0V359.9469h15.20864V364.702a1.26207,1.26207,0,0,0,2.52414,0V359.9469h7.64894v2.48591a1.26207,1.26207,0,0,0,2.52414,0v-3.748a1.25683,1.25683,0,0,0-1.26207-1.26208h-8.92376a10.13012,10.13012,0,0,0-20.24418,0H162.4142a1.25683,1.25683,0,0,0-1.26208,1.26208v37.65825A8.112,8.112,0,0,0,169.26,404.451h17.6053A1.26773,1.26773,0,0,0,188.14012,403.18888ZM181.46005,350.22a7.62871,7.62871,0,0,1,7.59794,7.20275H173.8621A7.62871,7.62871,0,0,1,181.46005,350.22Z"/><path class="b" d="M198.86137,373.10307v1.44055h-6.94778a1.25682,1.25682,0,0,0-1.26207,1.26207v22.14367a6.49068,6.49068,0,0,0,6.48884,6.48884h20.002a6.49068,6.49068,0,0,0,6.48885-6.48884V375.80569a1.25682,1.25682,0,0,0-1.26207-1.26207h-6.94779v-1.44055a8.28,8.28,0,1,0-16.55994,0Zm15.29787,8.36283a1.25682,1.25682,0,0,0,1.26207-1.26207v-3.13606H221.107v20.88159a3.969,3.969,0,0,1-3.9647,3.9647h-20.002a3.969,3.969,0,0,1-3.9647-3.9647V377.06777h5.68571v3.13606a1.26208,1.26208,0,0,0,2.52415,0v-3.13606h11.51164v3.13606A1.25684,1.25684,0,0,0,214.15924,381.4659Zm-1.26207-8.36283v1.44055H201.38552v-1.44055a5.75583,5.75583,0,1,1,11.51165,0Z"/><path d="M142.92872,341.57241l-2.06764-18.89572a1.753,1.753,0,0,0-1.73063-1.52113H124.44289a1.72257,1.72257,0,0,0-1.73063,1.52113l-2.06309,18.89572a1.6531,1.6531,0,0,0,1.73063,1.89914h18.8183a1.69794,1.69794,0,0,0,1.73063-1.89914Zm-1.73062.94729H122.3798a.7248.7248,0,0,1-.76968-.85621l2.06309-18.84562a.7747.7747,0,0,1,.76968-.71047v-.04554H139.135a.821.821,0,0,1,.76967.71047l2.06309,18.89572a.72187.72187,0,0,1-.76967.85165Z"/><path d="M124.443,321.451a1.42053,1.42053,0,0,0-1.43731,1.25985l-2.06292,18.89345a1.31886,1.31886,0,0,0,.29058,1.07951,1.49927,1.49927,0,0,0,1.14645.49228h18.81843a1.5134,1.5134,0,0,0,1.13548-.51739,1.28183,1.28183,0,0,0,.303-1.042l-.00174-.01241-2.06753-18.89576a1.44934,1.44934,0,0,0-1.437-1.25754Zm16.75523,21.3641H122.37981a1.12312,1.12312,0,0,1-.8501-.37138.98814.98814,0,0,1-.21122-.82672l2.06089-18.83112a1.08182,1.08182,0,0,1,.76815-.93292v-.041l.29548-.04559h14.692a1.12166,1.12166,0,0,1,1.06248.96725l2.06407,18.9024a.97688.97688,0,0,1-.20978.80075A1.07851,1.07851,0,0,1,141.19824,342.81514Z"/><path d="M136.01077,323.85625a.47914.47914,0,0,0-.48276.4782v4.62715a3.73929,3.73929,0,0,1-7.47813,0v-4.61349a.48278.48278,0,0,0-.96551,0v4.61349a4.70945,4.70945,0,0,0,9.41826,0V324.339a.49084.49084,0,0,0-.49186-.48275Z"/><path d="M127.56725,324.16552a.183.183,0,0,0-.18728.18266v4.61349a4.41387,4.41387,0,0,0,8.82705,0V324.339a.19339.19339,0,0,0-.19622-.18728.183.183,0,0,0-.18728.18266v4.62734a4.03471,4.03471,0,0,1-8.069,0v-4.61349A.18747.18747,0,0,0,127.56725,324.16552Z"/><path class="d" d="M132.07676,355.19756a3.00969,3.00969,0,1,0,3.00968,3.00969A3.01311,3.01311,0,0,0,132.07676,355.19756Zm0,4.01292a1.00323,1.00323,0,1,1,1.00323-1.00323A1.00429,1.00429,0,0,1,132.07676,359.21048Z"/><path class="d" d="M144.66272,302.36088H119.49079a6.48268,6.48268,0,0,0-6.47537,6.47537v49.91823a6.48268,6.48268,0,0,0,6.47537,6.47537h25.17193a6.48267,6.48267,0,0,0,6.47537-6.47537V308.83625A6.48267,6.48267,0,0,0,144.66272,302.36088Zm-29.64084,10.03228h34.10976v38.79149H115.02188Zm4.46891-8.02582h25.17193a4.47394,4.47394,0,0,1,4.46892,4.46891v1.55046H115.02188v-1.55046A4.47394,4.47394,0,0,1,119.49079,304.36734Zm25.17193,58.856H119.49079a4.47394,4.47394,0,0,1-4.46891-4.46891v-5.56337h34.10976v5.56337A4.47394,4.47394,0,0,1,144.66272,363.22339Z"/><path class="d" d="M127.84461,308.38025h8.4643a1.00323,1.00323,0,0,0,0-2.00646H127.8446a1.00323,1.00323,0,0,0,0,2.00646Z"/><path class="f" d="M244.54958,376.37468a.67065.67065,0,0,0-.63793.50123l-.04556,3.41746v10.48022a1.70838,1.70838,0,0,1-.04557.50123c0,.1367-.04557.2734-.04557.4101a5.29316,5.29316,0,0,1-.68349,1.82264c-.04557.09113-.04557.1367-.09113.22783v.2734c0,.04557.18226.319.22783.319a.39384.39384,0,0,0,.2734.1367c.04556,0,.09113.04557.13669.04557a.78768.78768,0,0,0,.5468-.2734,5.89006,5.89006,0,0,0,.91132-2.87067.34142.34142,0,0,1,.04557-.22783V380.29337l.04557-3.32633A.71418.71418,0,0,0,244.54958,376.37468Zm-2.59727-2.734c-.86576,0-.63793,1.09359-.77463,1.68595l-.04556,12.57626a2.28684,2.28684,0,0,1-.09114.54679,4.5262,4.5262,0,0,1-.54679,1.41255,4.2762,4.2762,0,0,0-.4101.5468.54793.54793,0,0,0-.09113.36453.62189.62189,0,0,0,.63793.63793.6528.6528,0,0,0,.45566-.18227,4.73886,4.73886,0,0,0,1.18472-2.18718c.04557-.22783.09113-.50123.1367-.72906a.274.274,0,0,1,.04556-.18226v-12.394l.1367-1.41255A.634.634,0,0,0,241.95231,373.64071Zm1.77708-3.59973a5.5339,5.5339,0,0,1,.41009-.91132,16.56093,16.56093,0,0,1,5.10341-6.24257c.22784-.18227.50123-.36453.77463-.5468a.9922.9922,0,0,1,.36453-.22783c.09113-.09113.2734-.1367.36453-.27339a.865.865,0,0,0,.1367-.4101.63518.63518,0,0,0-.6835-.63793c-.04556,0-.18226,0-.22783.04557a17.1366,17.1366,0,0,0-3.05293,2.27831,16.85046,16.85046,0,0,0-2.68841,3.2352c-.319.50122-.68349,1.09359-.95689,1.59481a12.30943,12.30943,0,0,0-.95689,2.32388.65957.65957,0,0,0,.63793.68349C243.36486,370.90674,243.54712,370.45107,243.72939,370.041Zm4.05539.95689h-.1367c-.09113.04556-.319.09113-.36453.22783a10.56212,10.56212,0,0,0-.86576,2.734c-.04556.2734-.09113.5468-.1367.86576-.04556.2734-.04556.54679-.09113.86576v18.3176a6.21266,6.21266,0,0,1-.18226.77463c-.1367.36453-.2734.45566-.2734.77462a.62189.62189,0,0,0,.63793.63793c.86575,0,1.13915-1.95935,1.13915-2.096V375.73675a12.64283,12.64283,0,0,1,.45566-2.64284l.4101-1.23028c0-.04557.04556-.18227.04556-.22784A.62292.62292,0,0,0,247.78478,370.99787Zm-11.98391.54679c-.86576,0-.68349,1.18472-.77462,1.50369a154159.04036,154159.04036,0,0,0-.09114.82019l-.04556.72906-.1367,5.878a.68473.68473,0,0,0,.63793.63793.6389.6389,0,0,0,.63792-.54679v-2.18718l.18227-3.41746c.04556-.72906.04556-1.23029.09113-1.73152.04557-.319.1367-1.00246.1367-1.048A.62189.62189,0,0,0,235.80087,371.54466Zm32.26086-11.346a17.89913,17.89913,0,0,0-6.97163-2.05047c-.27339,0-.72906-.04557-.77462-.04557h-1.59482c-.50123,0-2.32387.22783-2.32387.22783a7.08044,7.08044,0,0,0-1.048.22783,7.18725,7.18725,0,0,0-1.68594.50123.60675.60675,0,0,0-.2734.4101v.27339c0,.18227.36453.45566.50123.45566h.13669a3.04638,3.04638,0,0,0,.86576-.22783,6.66263,6.66263,0,0,1,.91133-.22783c.45566-.09113.95689-.18226,1.41255-.27339a3.57413,3.57413,0,0,0,.63792-.09114c.2734,0,.59236-.04556.86576-.04556h1.59482c.45566,0,2.05048.22783,2.096.22783.319.04556.63793.1367.91133.18226a16.77057,16.77057,0,0,1,6.37926,2.9618,18.11918,18.11918,0,0,1,3.2352,3.2352c.18226.22783.36453.50123.54679.77463.2734.41009.4101.68349.82019.68349a.62189.62189,0,0,0,.63793-.63793.85857.85857,0,0,0-.09113-.36453,16.27126,16.27126,0,0,0-1.59482-2.14161,15.1048,15.1048,0,0,0-1.18472-1.23028,17.98244,17.98244,0,0,0-2.6884-2.09605A12.27326,12.27326,0,0,1,268.06173,360.19868ZM245.552,357.647a23.22059,23.22059,0,0,1,12.9408-4.60219h1.50368l.77463.04557a23.3108,23.3108,0,0,1,8.83984,2.27831,23.93287,23.93287,0,0,1,4.23765,2.64284,24.73689,24.73689,0,0,1,3.6453,3.59973c.2734.36453.45566.54679.77462.54679a.59778.59778,0,0,0,.63793-.63793.55075.55075,0,0,0-.1367-.41009,21.82819,21.82819,0,0,0-2.415-2.64284c-.63793-.59236-1.32142-1.13915-1.91378-1.59482a28.05885,28.05885,0,0,0-2.6884-1.82264c-.5468-.319-1.09359-.59236-1.59482-.86576a24.478,24.478,0,0,0-9.34107-2.415h-1.82264l-.82019.04557a23.83476,23.83476,0,0,0-13.12306,4.64775,24.341,24.341,0,0,0-9.15881,12.6674v.319c0,.18226.319.45566.45567.45566.04556,0,.09113.04557.1367.04557a.7079.7079,0,0,0,.63792-.45567c.18227-.50122.36453-1.048.5468-1.54925A23.50585,23.50585,0,0,1,245.552,357.647Zm12.48514,38.82238a.71783.71783,0,0,0-.5468-.63792h-.319a4.06347,4.06347,0,0,1-.50123-.09113c-1.64038-.22783-3.18963-1.50369-3.18963-3.00737a3.40642,3.40642,0,0,1,3.463-3.05293h.319c.04557,0,.36453-.04557.5468-.04557l2.36944-.04556c.22783,0,.45566-.04557.68349-.04557a12.44482,12.44482,0,0,0,3.69086-.91132,10.794,10.794,0,0,1,.4101-1.64039,12.8056,12.8056,0,0,1-4.78445,1.32142h-1.82265l-.82019.04557c-.18226,0-.41009.04557-.59236.04557a5.05985,5.05985,0,0,0-4.37435,2.77953,2.56938,2.56938,0,0,0-.18227.54679c-.04556.22784-.09113.50123-.13669.77463v.50123a7.72207,7.72207,0,0,0,.22783,1.09358,5.45047,5.45047,0,0,0,4.87558,3.05294C257.62707,397.10729,258.03717,396.97059,258.03717,396.46936Zm-17.95308-24.87913c.09114-.4101.22783-.82019.319-1.18472a20.508,20.508,0,0,1,4.87558-8.01965,19.70242,19.70242,0,0,1,13.16862-5.878h1.95935a22.24235,22.24235,0,0,1,3.41746.45567c.59236.1367,1.18472.319,1.82265.50122a19.86884,19.86884,0,0,1,4.05539,1.82265c.1367.09113.18226.04557.2734.04557a.62188.62188,0,0,0,.63792-.63793.33481.33481,0,0,0-.09113-.2734.45492.45492,0,0,0-.18226-.22783,19.66408,19.66408,0,0,0-5.19455-2.23274c-.41009-.09113-.82019-.22783-1.18472-.2734-.59236-.09113-1.13915-.22783-1.686-.27339-.04556,0-1.54925-.1367-1.82264-.1367H258.5384c-.04557,0-.4101.04556-.59236.04556a16.61937,16.61937,0,0,0-2.23275.2734c-.68349.1367-1.41255.2734-2.05048.45566a17.738,17.738,0,0,0-2.8251,1.048,21.79394,21.79394,0,0,0-6.197,4.23765,20.60965,20.60965,0,0,0-6.15143,11.52824c-.1367.68349-.18227,1.50369-.2734,2.32388v9.4322c0,.1367-.04557.319-.04557.45566l-.04556.2734a3.35682,3.35682,0,0,1-.18227.63792,1.142,1.142,0,0,1-.18226.319c-.18227.1367-.4101.319-.4101.50123v.2734c0,.09113.22783.36453.22783.36453.09113.04556.1367.09113.22783.1367a.459.459,0,0,1,.1367.04556c1.00246,0,1.54925-1.86821,1.54925-2.64284a.77536.77536,0,0,1,.04557-.319v-9.11323a19.11574,19.11574,0,0,1,.22783-2.32388C239.85626,372.68382,239.94739,372.09146,240.08409,371.59023Zm9.47777,9.93343a.62255.62255,0,0,0-.63793.54679V396.925a.7043.7043,0,0,0,.63793.72906c.22783,0,.63793-.22783.63793-.54679V382.16158A.68472.68472,0,0,0,249.56186,381.52366ZM273.71193,370.041a14.75027,14.75027,0,0,0-3.23519-4.69332,15.08761,15.08761,0,0,0-9.11324-4.41992c-.4101-.04556-1.13915-.09113-1.18472-.09113h-1.367c-.04557,0-.72906.04557-1.048.09113a15.81013,15.81013,0,0,0-8.79427,4.00983,15.37025,15.37025,0,0,0-4.96671,9.84229v.319c0,.04557.18226.319.22783.319a.39384.39384,0,0,0,.2734.1367c.04556,0,.09113.04556.13669.04556a.67065.67065,0,0,0,.63793-.50123c.09113-.63792.18227-1.27585.319-1.86821a17.08945,17.08945,0,0,1,1.13916-3.2352,13.01385,13.01385,0,0,1,2.59727-3.59973,14.18121,14.18121,0,0,1,9.47777-4.28322h1.41255c.50122,0,1.86821.22783,2.18717.2734.36453.09113.77463.18227,1.18472.2734a9.97572,9.97572,0,0,1,2.096.82019,14.3122,14.3122,0,0,1,3.96425,2.77954,14.05029,14.05029,0,0,1,4.19209,9.38663v1.13915l-.09113,1.23029a.65957.65957,0,0,0,.63793.68349c.77462,0,.68349-.91132.72906-1.54925v-1.50368c0-.04557-.04557-.45566-.04557-.68349A17.65129,17.65129,0,0,0,273.71193,370.041Zm3.59973,2.096c-.1367-.41009-.1367-1.41255-.86576-1.41255a.67067.67067,0,0,0-.63793.50123v.2734c0,.04556.1367.54679.22784.82019a3.85857,3.85857,0,0,1,.18226.77462,9.60514,9.60514,0,0,1,.22783,1.59482c.04557.22783.04557.54679.09113.77462V377.286a23.54808,23.54808,0,0,1-.319,2.50614,10.5975,10.5975,0,0,1,1.27586.22783c.18226-.91132.27339-1.82264.36453-2.734v-1.86821c0-.04557-.04557-.36453-.04557-.50123A22.46768,22.46768,0,0,0,277.31166,372.137Zm-5.74134-.86575a12.74064,12.74064,0,0,0-2.18718-3.5086,12.54253,12.54253,0,0,0-6.60709-4.101,4.96278,4.96278,0,0,0-1.18472-.22783.653.653,0,0,0-.68349.50123v.2734c0,.18226.319.45566.50122.50123a9.75906,9.75906,0,0,1,2.18718.59236,11.40731,11.40731,0,0,1,4.60218,3.18963,11.65916,11.65916,0,0,1,2.68841,4.96671,11.47253,11.47253,0,0,1,.36453,2.46058v.95689a12.57055,12.57055,0,0,1-.82019,3.87312,16.47908,16.47908,0,0,1,1.59481-.59236,12.94821,12.94821,0,0,0,.45567-2.23274c.04556-.22783.04556-.50123.09113-.77463v-1.59481a15.31866,15.31866,0,0,0-.4101-2.46058A10.57144,10.57144,0,0,0,271.57032,371.27127Zm12.34844,1.45811c-.09114-.68349-.22784-1.32142-.36453-2.00491a24.75235,24.75235,0,0,0-1.09359-3.41746c-.2734-.68349-.59237-1.41255-.91133-2.05048a4.97978,4.97978,0,0,0-.36453-.68349c-.27339-.4101-.45566-1.23029-1.09359-1.23029a.68.68,0,0,0-.63792.45566v.319a15.6883,15.6883,0,0,0,.86575,1.54925,8.4949,8.4949,0,0,1,.45567.91132c.09113.18226.18226.41009.27339.63793l.2734.68349a6.64242,6.64242,0,0,1,.319.86576,14.48823,14.48823,0,0,1,.45566,1.50368,10.43945,10.43945,0,0,1,.319,1.27585c.1367.5468.22783,1.18472.319,1.73152.09113.63792.1367,1.32142.18226,1.95934v2.415c0,.2734-.04556.50123-.04556.77463-.04557.82019-.4101,2.87067-.4101,3.00737a.65957.65957,0,0,0,.63793.68349c.36453,0,.63792-.319.68349-.77463a33.18931,33.18931,0,0,0,.45566-3.64529v-2.46057C284.14659,374.73429,283.91876,372.72938,283.91876,372.72938Zm-3.91869-2.18717a19.46106,19.46106,0,0,0-1.09359-2.9618,21.416,21.416,0,0,0-5.01228-6.83493c-.4101-.36453-.63793-.68349-1.00246-.68349a.62292.62292,0,0,0-.63793.63792v.1367c.04557.09113.04557.22783.1367.319a19.428,19.428,0,0,1,1.95935,1.91378,5.46083,5.46083,0,0,0,.50123.5468,7.79134,7.79134,0,0,1,.50123.63792,13.01807,13.01807,0,0,1,1.18472,1.73152c.27339.41009.50122.91132.77462,1.32142.319.54679.54679,1.18472.82019,1.77708.22783.54679.45566,1.23029.63793,1.82265a15.54968,15.54968,0,0,1,.45566,2.096c.1367.82019.18227,1.64038.2734,2.46057v1.95935c-.09113,1.048-.22783,2.096-.4101,3.18963.4101.18227.82019.36453,1.23029.59236a21.59441,21.59441,0,0,0,.50122-3.73642v-1.95935a21.35646,21.35646,0,0,0-.319-2.77953C280.3646,371.95476,280.18233,371.2257,280.00007,370.54221Zm-15.6292,27.8865a5.45452,5.45452,0,0,0-1.09359.27339c-.22783.04557-.45566.09114-.63793.1367-.45566.09114-.95689.1367-1.41255.18227-.22783,0-.4101.04556-.63793.04556h-1.73151a23.82839,23.82839,0,0,1-3.55416-.50122,4.83963,4.83963,0,0,0-.86576-.18227.58209.58209,0,0,0-.63793.50123v.2734c0,.1367.319.45566.50123.50122.36453.09113.77462.18227,1.13915.2734a24.05543,24.05543,0,0,0,3.0985.4101H260.68a16.07458,16.07458,0,0,0,2.87067-.4101,5.509,5.509,0,0,1,.82019-.22783c.4101-.09113.72906-.319.72906-.72906A.80514.80514,0,0,0,264.37087,398.42871Zm-7.29059-6.42483h3.69086c.04556,0,.59236-.09113.86576-.1367a12.10222,12.10222,0,0,0,2.64284-.59236c0-.2734-.04557-.50123-.04557-.77463v-.59236a13.13571,13.13571,0,0,1-2.87067.68349,4.54429,4.54429,0,0,0-.72906.09113H256.898c-.04557,0-.18227.04557-.2734.04557a2.08649,2.08649,0,0,0-1.41255,1.41255.274.274,0,0,1-.04557.18227v.50122a3.46623,3.46623,0,0,0,.36453.95689,2.08142,2.08142,0,0,0,1.09359.68349c.04557,0,.1367.04557.18227.04557h6.0603c.36453,0,1.18472-.36453,1.18472-.91132a.63518.63518,0,0,0-.68349-.63793c-.319,0-.2734.09113-.6835.22783h-5.60464c-.319,0-.5468-.4101-.5468-.63793S256.71575,392.095,257.08028,392.00388ZM249.653,369.17522c.04557,0,.09113.04557.1367.04557a.80952.80952,0,0,0,.45566-.18227,12.17808,12.17808,0,0,1,2.05048-2.00491,7.86538,7.86538,0,0,1,1.27585-.86576,3.45049,3.45049,0,0,1,.82019-.41009c.2734-.1367.63793-.2734.95689-.4101.36453-.1367.77463-.22783,1.13916-.36453s.86575-.04556,1.09358-.50123a.94461.94461,0,0,0,.09114-.27339.66242.66242,0,0,0-.6835-.63793,5.94023,5.94023,0,0,0-.95688.18227,13.15489,13.15489,0,0,0-6.7438,4.41991c-.09113.09114-.09113.18227-.1367.2734v.2734C249.15176,368.90182,249.47073,369.12966,249.653,369.17522Zm14.71788,26.24612a9.86948,9.86948,0,0,1-1.13916.18227c-.45566.04556-.95689.09113-1.41255.1367h-.72906c-.18226,0-.54679.27339-.54679.50122v.2734a.68909.68909,0,0,0,.54679.50123h.77463a24.09231,24.09231,0,0,0,3.5086-.50123,3.79575,3.79575,0,0,0,.68349-.18227c-.22783-.36453-.45566-.77462-.68349-1.18472A4.74233,4.74233,0,0,1,264.37087,395.42134Zm4.64775-21.8262a5.36,5.36,0,0,0-.319-.91132c-.13669-.2734-.27339-.59236-.41009-.86576-.09113-.18227-.22783-.36453-.319-.5468a10.09335,10.09335,0,0,0-5.74134-4.37435,12.82876,12.82876,0,0,0-2.18718-.36453H258.8118c-.04557,0-.63793.04557-.95689.09113a11.03348,11.03348,0,0,0-7.79182,5.05785,7.58592,7.58592,0,0,0-.72906,1.50368,1.61542,1.61542,0,0,0-.1367.50123,4.322,4.322,0,0,0-.22783,1.048c0,.09113-.04556.22783-.04556.319l-.04557.4101-.04557.5468V379.382a.1591.1591,0,0,0,.04557.09114.60425.60425,0,0,0,.59236.41009.68213.68213,0,0,0,.68349-.63792v-3.2352a7.98887,7.98887,0,0,1,.1367-1.13916c.04557-.22783.1367-.63792.18227-.82019.04556-.1367.13669-.319.18226-.50123.04557-.13669.1367-.319.18227-.45566l.27339-.54679a9.73923,9.73923,0,0,1,4.60219-3.91869,15.01975,15.01975,0,0,1,1.73151-.5468,9.57687,9.57687,0,0,1,1.95935-.22783h.54679c.319.04557.68349.09113,1.00246.1367a7.283,7.283,0,0,1,.95689.22783l.82019.2734a6.88335,6.88335,0,0,1,.82019.41009,9.17254,9.17254,0,0,1,2.91623,2.59727,8.653,8.653,0,0,1,1.27586,2.734,9.76036,9.76036,0,0,1,.319,1.95934v.59236c-.04556.36453-.09113.82019-.1367,1.18472a8.56716,8.56716,0,0,1-6.24257,6.8805,12.55566,12.55566,0,0,1-2.23274.319l-2.734-.2734h-1.048a3.24247,3.24247,0,0,0-.95689.18227,2.533,2.533,0,0,0-.77463.41009,13.41932,13.41932,0,0,0-1.91378,1.73152c-.1367.1367-.09113.22783-.09113.36453a.62189.62189,0,0,0,.63793.63793,1.0726,1.0726,0,0,0,.36453-.09113c.68349-.50123,1.41255-1.50369,2.096-1.73152a.64755.64755,0,0,1,.2734-.09113,5.60883,5.60883,0,0,1,.91132-.09113h.45566c.91132.04556,1.82265.22783,2.77954.27339h.54679a13.14678,13.14678,0,0,0,1.32142-.18226,12.21691,12.21691,0,0,0,1.23029-.319,4.649,4.649,0,0,0,1.00246-.4101,9.934,9.934,0,0,0,5.42237-6.28813,9.1488,9.1488,0,0,0,.36453-2.18718v-1.23029c0-.18226-.18226-1.23028-.18226-1.27585A2.22957,2.22957,0,0,0,269.01862,373.59514Z"/><path class="f" d="M284.05546,388.67754a7.66357,7.66357,0,0,0-.319-1.09358c-.09113-.2734-.22783-.5468-.36453-.86576a8.90683,8.90683,0,0,0-2.50614-3.18963,9.615,9.615,0,0,0-3.59973-1.82265,13.195,13.195,0,0,0-1.86821-.2734h-.91132c-.45566.04557-.86576.09113-1.27586.1367a5.718,5.718,0,0,0-1.18472.319,6.08552,6.08552,0,0,0-.82019.319,8.94444,8.94444,0,0,0-3.3719,2.5517,9.46758,9.46758,0,0,0-1.82264,3.3719,16.9864,16.9864,0,0,0-.36453,2.00491v1.18472a12.06526,12.06526,0,0,0,.41009,2.23274,9.31545,9.31545,0,0,0,17.862-.41009,8.91073,8.91073,0,0,0,.319-1.86821V390.0901A7.044,7.044,0,0,0,284.05546,388.67754Zm-1.048,2.55171a8.032,8.032,0,0,1-15.76589,1.59482,10.12861,10.12861,0,0,1-.2734-1.64038v-.95689a8.024,8.024,0,0,1,15.6292-2.00491,3.41322,3.41322,0,0,1,.18226.72905s.18227,1.048.18227,1.27586v1.00245Z"/><path class="f" d="M279.31657,386.35367a.63608.63608,0,0,0-.41009.1367c-.8202,1.00245-1.59482,2.00491-2.36944,3.00737-.18227.22783-.36453.50122-.5468.72906-.22783.319-.50122.63792-.729.95688-.2734.36454-.5468.72906-.86576,1.09359-.36453.4101-.72906.86576-1.048,1.27586-.77462-.77463-1.59481-1.68595-2.36944-2.32388a.4338.4338,0,0,0-.319-.09113.65168.65168,0,0,0-.63793.63793.735.735,0,0,0,.1367.4101c.86576.86575,1.73152,1.73151,2.59728,2.64284a.95735.95735,0,0,0,.63792.319.735.735,0,0,0,.4101-.1367l.1367-.1367c.86576-1.13916,1.73152-2.27831,2.64284-3.3719a10.00553,10.00553,0,0,1,.63793-.82019c.27339-.36453.54679-.6835.82019-1.00246.319-.41009.68349-.82019.95689-1.23028.27339-.36453,1.00245-1.048,1.00245-1.45812A.69431.69431,0,0,0,279.31657,386.35367Z"/><path class="g" d="M81.309,93.9253H43.40175c-1.20724.24145-1.35211.38631-1.35211,1.20723a1.20925,1.20925,0,0,0,.38632.86922.57509.57509,0,0,0,.62776.338H81.69527c.72434,0,1.11066-.96579,1.11066-1.20724C82.75764,94.31161,82.17816,94.16675,81.309,93.9253Z"/><path class="g" d="M81.5504,79.197H43.06372c-.86921.14487-.96579.48289-.96579,1.11066,0,.48289,0,.72434.72434,1.20723H81.84014c.48289,0,.96579-.62776.96579-1.20723C82.75764,79.77649,82.17816,78.95557,81.5504,79.197Z"/><path class="g" d="M62.57265,66.352c-8.11262,0-9.07841,17.52907-9.07841,18.49485V93.4424c0,2.65592,1.69013,18.49486,9.07841,18.49486,8.11263,0,9.07842-18.10854,9.175-18.59143l.14487-4.24947C71.84422,86.1507,71.36133,66.352,62.57265,66.352ZM69.33318,93.0078c0,1.69013-1.69013,16.41841-6.76053,16.41841-5.21525,0-6.66394-14.87315-6.66394-16.32183V85.04c0-1.69013,1.44869-16.32183,6.66394-16.32183S69.33318,83.44649,69.33318,85.04Z"/><path class="g" d="M62.3795,66.54519a22.639,22.639,0,0,0-22.84091,22.696,22.88925,22.88925,0,1,0,45.77839,0A22.632,22.632,0,0,0,62.3795,66.54519Zm0,43.07417a20.15807,20.15807,0,0,1-18.97775-12.7967c-.24145-.72434-1.35211-4.97381-1.35211-5.4567V87.16478c1.835-12.45868,11.25144-18.25341,20.28157-18.25341a20.35407,20.35407,0,1,1,.04829,40.708Z"/><path class="h" d="M149.52708,113.638a5.236,5.236,0,0,0-3.88008-.62921,3.43611,3.43611,0,0,0-2.0974,1.573,23.40657,23.40657,0,0,1-2.72661,3.04121c-2.51683,1.67785-4.50928,1.4682-6.60669-.6292l-11.03916-11.136a.85507.85507,0,0,0-.18176-.18975l-.03883-.03268-.69521-.70135c-2.0974-2.20223-2.30705-4.08985-.6292-6.60669.3146-.3146,1.7828-1.67785,3.04121-2.72661a3.88011,3.88011,0,0,0,1.573-2.0974,5.40065,5.40065,0,0,0-.734-3.88008c-.20978-.3146-4.50929-7.65532-8.49432-9.75273a5.2543,5.2543,0,0,0-6.0823.94381L108.31393,83.436c-5.24332,5.24344-6.39691,11.32575-3.25087,18.03738a23.48166,23.48166,0,0,0,4.61424,6.39692l21.49791,21.49791a21.95879,21.95879,0,0,0,5.1385,3.985,17.48764,17.48764,0,0,0,8.59926,2.51684c3.88008,0,7.5505-1.67785,10.80137-4.92884l2.62166-2.72661a5.09512,5.09512,0,0,0,.94381-6.08231C157.18253,118.14744,149.84169,113.8478,149.52708,113.638Zm7.2359,13.21337-2.62166,2.62167c-4.92884,4.92884-10.48677,5.66287-16.8838,2.0974a20.24781,20.24781,0,0,1-4.61424-3.56548l-21.49791-21.60286a21.04917,21.04917,0,0,1-4.19468-5.87265c-2.72661-5.87253-1.7828-11.011,2.83144-15.62526l2.62166-2.62166a2.89235,2.89235,0,0,1,3.46064-.52438c3.46065,1.78279,7.65533,8.80891,7.65533,8.91374a2.87879,2.87879,0,0,1,.52438,2.30706,1.40269,1.40269,0,0,1-.734.839l-.10483.10483c-.839.839-3.04122,2.62166-3.46065,3.25087a8.55734,8.55734,0,0,0-1.24834,2.66713A14.336,14.336,0,0,1,117.018,94.8666a.99094.99094,0,0,0-1.15359-.94381,1.04138,1.04138,0,0,0-.94381,1.15359c.734,7.34072,6.50186,12.05979,6.71152,12.26956h0l11.116,11.116c2.83144,2.83144,5.87265,3.146,9.22835.94381a20.92155,20.92155,0,0,0,3.25087-3.46065v-.10482a1.17415,1.17415,0,0,1,.839-.734,4.06121,4.06121,0,0,1,2.30706.52438s7.13107,4.19469,8.91375,7.65533A3.02531,3.02531,0,0,1,156.763,126.8514Z"/><path class="h" d="M157.81174,91.82551H156.7631V84.48479a1.00729,1.00729,0,0,0-.734-.94382.993.993,0,0,0-1.15359.31461l-6.29209,8.38948a.96442.96442,0,0,0-.10482,1.04864,1.00788,1.00788,0,0,0,.94381.62921h5.24344V97.069a1.04864,1.04864,0,1,0,2.09728,0V93.92291h1.04864a1.0487,1.0487,0,0,0,0-2.0974Zm-3.146,0h-3.146l3.146-4.19468Z"/><path class="h" d="M147.32485,96.02019h-6.60668l5.45309-4.71906a4.52115,4.52115,0,0,0,1.04864-5.03367,4.152,4.152,0,0,0-3.985-2.83143h-.10482a5.19251,5.19251,0,0,0-5.24345,5.24344,1.04864,1.04864,0,0,0,2.09728,0,3.08983,3.08983,0,0,1,3.146-3.146,2.2713,2.2713,0,0,1,2.20223,1.46819,2.50308,2.50308,0,0,1-.52438,2.72661l-6.29208,5.4531a1.68379,1.68379,0,0,0-.52438,1.88763,1.61423,1.61423,0,0,0,1.573,1.04864h7.76028a1.04871,1.04871,0,0,0,.00025-2.09741Z"/><path class="h" d="M148.37362,72.94926A17.81257,17.81257,0,0,0,130.546,90.77687a16.45819,16.45819,0,0,0,1.99245,8.07488l-1.99245,8.38937a1.12094,1.12094,0,0,0,1.04864,1.36324h.31461l7.76027-2.30706a17.8136,17.8136,0,1,0,8.7041-33.348Zm0,33.45287a15.58021,15.58021,0,0,1-8.07489-2.20223.78612.78612,0,0,0-.52438-.10482c-.10482,0-.20977.10482-.3146.10482l-6.50186,1.88763,1.67785-7.02612a.92116.92116,0,0,0-.10483-.734A15.79325,15.79325,0,0,1,148.3735,75.04666a15.67782,15.67782,0,1,1,.00012,31.35547Z"/><path class="h" d="M145.3324,122.23729a19.75038,19.75038,0,0,1-10.80137-4.92884,1.03817,1.03817,0,1,0-1.46819,1.46819,20.77071,20.77071,0,0,0,12.16473,5.558,1.115,1.115,0,0,0,1.04864-.94381A1.14076,1.14076,0,0,0,145.3324,122.23729Z"/><path class="e" d="M174.0996,445.49256a.94984.94984,0,0,0-.95011-.95011H150.34592a2.854,2.854,0,0,1-2.85045-2.85045V416.9881a2.854,2.854,0,0,1,2.85045-2.85045h47.50747a2.854,2.854,0,0,1,2.85045,2.85045V441.692a2.85394,2.85394,0,0,1-2.85045,2.85045H176.95005a.95011.95011,0,1,0,0,1.90022h20.90324a4.75618,4.75618,0,0,0,4.75078-4.75078V416.9881a4.75611,4.75611,0,0,0-4.75078-4.75078H150.34592a4.75611,4.75611,0,0,0-4.75078,4.75078V441.692a4.75608,4.75608,0,0,0,4.75078,4.75067h22.96691"/><path class="e" d="M156.04691,416.18284a.80622.80622,0,0,0-.80541.80512,4.90123,4.90123,0,0,1-4.89551,4.8958.80622.80622,0,0,0-.80541.80512v13.30225a.80646.80646,0,0,0,.80541.8054,4.90117,4.90117,0,0,1,4.89551,4.89552.80646.80646,0,0,0,.80541.8054h36.10564a.80652.80652,0,0,0,.80541-.80569,4.90117,4.90117,0,0,1,4.89551-4.89551.806.806,0,0,0,.80512-.80512V422.68888a.806.806,0,0,0-.80512-.80512,4.90123,4.90123,0,0,1-4.89551-4.8958.80622.80622,0,0,0-.80541-.80512Zm35.34831,24.7038H156.804l-.01782-.12415a6.53784,6.53784,0,0,0-5.51088-5.51088l-.12414-.01782V423.44593l.12414-.01781a6.53754,6.53754,0,0,0,5.51088-5.5106l.01782-.12415h34.59126l.01781.12415a6.53726,6.53726,0,0,0,5.51088,5.5106l.12415.01781v11.78786l-.12415.01782a6.53786,6.53786,0,0,0-5.51088,5.51088Z"/><path class="e" d="M173.948,439.22605a9.87007,9.87007,0,1,1,9.86992-9.87021A9.8814,9.8814,0,0,1,173.948,439.22605Zm0-18.00262a8.13256,8.13256,0,1,0,8.13241,8.13241A8.14174,8.14174,0,0,0,173.948,421.22343Z"/><path class="d" d="M354.45155,367.10219H308.30691a4.81119,4.81119,0,0,0-4.81244,4.7986V398.843a4.811,4.811,0,0,0,4.81244,4.79833h46.14464A4.811,4.811,0,0,0,359.264,398.843v-26.9422A4.81135,4.81135,0,0,0,354.45155,367.10219Zm2.88913,31.74025a2.88562,2.88562,0,0,1-2.88913,2.87529H308.30691a2.8855,2.8855,0,0,1-2.8894-2.87529v-13.471h51.92317Zm0-15.39373H305.41751V377.679h51.92317Zm.00027-7.69271H305.41751v-3.85521a2.8855,2.8855,0,0,1,2.8894-2.87529h46.14464a2.8855,2.8855,0,0,1,2.8894,2.87529Z"/><rect class="d" x="308.30221" y="388.2559" width="9.61547" height="1.92304"/><rect class="d" x="319.84072" y="388.2559" width="9.61547" height="1.92304"/><rect class="d" x="331.37923" y="388.2559" width="9.61547" height="1.92304"/><rect class="d" x="342.91774" y="388.2559" width="9.61547" height="1.92304"/><rect class="d" x="308.30221" y="393.06391" width="5.76912" height="1.92304"/><path class="d" d="M378.17188,329.16021,334.285,314.903a4.81121,4.81121,0,0,0-6.0596,3.07694l-1.48833,4.58146-2.37671,7.31606-4.4592,13.72648a4.811,4.811,0,0,0,3.09445,6.05044l43.88692,14.25717a4.811,4.811,0,0,0,6.05951-3.07668l4.45928-13.72673,2.37663-7.31581,1.48833-4.58145A4.81137,4.81137,0,0,0,378.17188,329.16021ZM371.113,360.24015a2.88561,2.88561,0,0,1-3.63613,1.842l-43.88692-14.25717a2.8855,2.8855,0,0,1-1.85966-3.62734l4.16208-12.81186L375.275,347.42828Zm4.75615-14.64056L326.4864,329.55705l1.78264-5.48738,49.38271,16.04254Zm2.37706-7.31624-49.383-16.04263,1.19114-3.66658a2.88549,2.88549,0,0,1,3.6364-1.84188l43.88691,14.25717a2.88549,2.88549,0,0,1,1.85966,3.62733Z"/><rect class="d" x="331.05861" y="332.61248" width="1.92304" height="9.61547" transform="translate(-91.47429 548.94385) rotate(-72.00302)"/><rect class="d" x="342.03257" y="336.1775" width="1.92304" height="9.61547" transform="translate(-87.28151 561.84443) rotate(-72.00302)"/><rect class="d" x="353.00654" y="339.74251" width="1.92304" height="9.61547" transform="translate(-83.08873 574.74502) rotate(-72.00302)"/><rect class="d" x="363.9805" y="343.30753" width="1.92304" height="9.61547" transform="translate(-78.89594 587.6456) rotate(-72.00302)"/><rect class="d" x="327.74401" y="338.51423" width="1.92304" height="5.76912" transform="translate(-97.5487 548.54075) rotate(-72.00302)"/><path d="M76.207,344.22639a73.13748,73.13748,0,0,0-26.45319,4.95971.26651.26651,0,0,0-.169.247v9.26631c0,9.64175,1.39151,18.15406,4.13552,25.30035A41.253,41.253,0,0,0,62.84,398.46759c6.56389,6.59925,13.041,8.00116,13.31343,8.05732h.10712c.272-.05564,6.73341-1.44247,13.31239-8.05732a41.25727,41.25727,0,0,0,9.11967-14.46783c2.74453-7.14629,4.136-15.65808,4.136-25.30035V349.4331a.26727.26727,0,0,0-.16952-.247h0A73.132,73.132,0,0,0,76.207,344.22639ZM76.20643,405.995l-.129-.03172a21.83439,21.83439,0,0,1-3.9608-1.4851,32.36219,32.36219,0,0,1-8.97564-6.45938,40.81611,40.81611,0,0,1-8.95379-14.28218c-2.70241-7.06933-4.0726-15.49325-4.0726-25.03724v-9.08535l.34372-.13052a72.58174,72.58174,0,0,1,51.49614,0l.34372.13052v9.08535c0,9.544-1.37019,17.96791-4.0726,25.03724a40.816,40.816,0,0,1-8.9538,14.28218,32.36217,32.36217,0,0,1-8.97563,6.45938,21.83679,21.83679,0,0,1-3.9608,1.48458Z"/><path d="M53.79637,351.62084a.79737.79737,0,0,0-.54006.75478v6.32384c0,9.01616,1.26077,16.95728,3.74722,23.60284A38.07811,38.07811,0,0,0,65.06745,395.494,27.957,27.957,0,0,0,75.953,402.64942a.797.797,0,0,0,.50657,0A27.95585,27.95585,0,0,0,87.34514,395.494a38.07811,38.07811,0,0,0,8.06392-13.19166c2.48645-6.64541,3.74722-14.58668,3.74722-23.60284v-6.32384a.79751.79751,0,0,0-.54006-.75478,69.52552,69.52552,0,0,0-44.81985,0Zm43.7651,7.07862c0,8.82464-1.22669,16.57772-3.64616,23.04393a36.4952,36.4952,0,0,1-7.71973,12.64507A26.53775,26.53775,0,0,1,76.2063,401.05a26.54154,26.54154,0,0,1-9.98929-6.6615,36.4976,36.4976,0,0,1-7.71973-12.64507c-2.41946-6.46622-3.64616-14.21929-3.64616-23.04394v-5.75086a67.93709,67.93709,0,0,1,42.71021,0v5.75087Z"/><path d="M90.77474,362.72191,74.256,379.84369a.87516.87516,0,0,1-1.26731,0L64.904,371.46376a.771.771,0,0,0-1.11814,0,.84077.84077,0,0,0,0,1.159l8.08471,8.37993a2.41624,2.41624,0,0,0,3.50369,0L91.893,363.88076a.84077.84077,0,0,0,0-1.159A.77127.77127,0,0,0,90.77474,362.72191Z"/><path d="M64.34482,371.75648a.24421.24421,0,0,0-.17576.077.30864.30864,0,0,0,0,.41964L72.254,380.6328a1.92769,1.92769,0,0,0,2.73725,0l16.51868-17.12188a.30863.30863,0,0,0,0-.41963.20991.20991,0,0,0-.352.00052L74.63916,380.21316a1.44086,1.44086,0,0,1-2.0337,0l-8.08488-8.37972a.23806.23806,0,0,0-.17524-.077Z"/><path class="d" d="M302.52866,11.14922a31.57149,31.57149,0,0,0-44.64882,44.64883,31.57149,31.57149,0,0,0,44.64882-44.64883ZM301.218,54.48737A29.71791,29.71791,0,1,1,259.19052,12.4599,29.71791,29.71791,0,1,1,301.218,54.48737Z"/><path class="d" d="M266.53227,11.64658l1.00683,1.744a.92673.92673,0,0,0,1.60513-.92675l-1.00843-1.74663a25.58468,25.58468,0,0,1,11.1417-2.98884V9.74871a.92676.92676,0,1,0,1.85351,0V7.72653a25.62811,25.62811,0,0,1,11.14639,2.98218l-1.01326,1.75515a.92674.92674,0,1,0,1.60515.92675l1.01238-1.75342c.2134.13407.42569.27037.63575.411a.92679.92679,0,1,0,1.03117-1.54027,27.619,27.619,0,0,0-35.93,41.37651.92677.92677,0,0,0,1.38111-1.23617,25.77039,25.77039,0,0,1-2.63038-3.49819l1.75194-1.01152a.92674.92674,0,0,0-.92676-1.60514l-1.75255,1.01177a25.723,25.723,0,0,1-2.98329-11.14478h2.0207a.92676.92676,0,0,0,0-1.85351h-2.02045a25.58707,25.58707,0,0,1,2.98885-11.14157l1.74662,1.00843a.92674.92674,0,1,0,.92676-1.60514l-1.744-1.00695a25.96909,25.96909,0,0,1,8.15519-8.15507Z"/><path class="d" d="M303.1701,18.12966a.92675.92675,0,1,0-1.54027,1.03105c.1405.20994.27679.42211.41074.63551l-1.75342,1.01238a.92674.92674,0,1,0,.92676,1.60514l1.75515-1.01325a25.62982,25.62982,0,0,1,2.9823,11.14639h-2.02218a.92676.92676,0,0,0,0,1.85351h2.02045A25.58706,25.58706,0,0,1,302.96079,45.542l-1.74663-1.00843a.92673.92673,0,1,0-.92675,1.60513l1.744,1.00695a25.96512,25.96512,0,0,1-8.15507,8.15508l-1.007-1.744a.92673.92673,0,1,0-1.60514.92675L292.27271,56.23A25.58639,25.58639,0,0,1,281.131,59.219V57.19855a.92676.92676,0,0,0-1.85351,0v2.02082a25.85839,25.85839,0,0,1-11.14367-2.98575l1.01053-1.75021a.92673.92673,0,1,0-1.60513-.92675l-1.01078,1.75057a25.49325,25.49325,0,0,1-2.5466-1.81743.92679.92679,0,1,0-1.168,1.43931,27.37687,27.37687,0,0,0,3.55553,2.44478l.02619.01693.02373.01161a27.61867,27.61867,0,0,0,36.75076-39.27277Z"/><path class="d" d="M297.379,14.26918a26.04813,26.04813,0,0,1,1.90924,1.896.92674.92674,0,1,0,1.37246-1.24568,27.88615,27.88615,0,0,0-2.04578-2.03157.92673.92673,0,1,0-1.23592,1.38124Z"/><path class="d" d="M277.30042,33.47363a2.90347,2.90347,0,0,0,5.65518.92676h2.40573a2.90836,2.90836,0,0,0,2.75135,1.97708h6.91977a2.90384,2.90384,0,1,0-.00013-5.80767h-6.91977a2.90834,2.90834,0,0,0-2.75134,1.97708h-2.40573a2.91688,2.91688,0,0,0-1.8246-1.8246V28.31655A2.90835,2.90835,0,0,0,283.108,25.5652V15.67982a2.90377,2.90377,0,1,0-5.80754.00012v9.88539a2.90836,2.90836,0,0,0,1.97708,2.75135v2.40573A2.90807,2.90807,0,0,0,277.30042,33.47363Zm10.81214-1.05032h6.91977a1.05033,1.05033,0,0,1,0,2.10065h-6.91977a1.05033,1.05033,0,0,1,0-2.10065ZM280.20425,34.524a1.05033,1.05033,0,1,1,1.05032-1.05033A1.0515,1.0515,0,0,1,280.20425,34.524Zm-1.05032-18.844a1.05032,1.05032,0,0,1,2.10064,0v9.88539a1.05032,1.05032,0,0,1-2.10064,0Z"/><path class="d" d="M338.84793,44.75527h4.53572a.75592.75592,0,0,0,0-1.51184h-4.53572a.75592.75592,0,1,0,0,1.51184Z"/><path class="d" d="M360.01467,43.24334H346.40752a.75593.75593,0,1,0,0,1.51185h13.60715a.75593.75593,0,1,0,0-1.51185Z"/><path class="d" d="M357.74682,48.53507a.75622.75622,0,0,0,.75592.75592h3.02378a.75592.75592,0,1,0,0-1.51184h-3.02378A.7561.7561,0,0,0,357.74682,48.53507Z"/><path class="d" d="M338.84793,49.291h7.5595a.75592.75592,0,1,0,0-1.51184h-7.5595a.75592.75592,0,1,0,0,1.51184Z"/><path class="d" d="M328.26464,55.33865a2.27065,2.27065,0,0,1-2.26786-2.26786V30.39219a2.27065,2.27065,0,0,1,2.26786-2.26786h31.75a2.27065,2.27065,0,0,1,2.26787,2.26786V33.416a.75592.75592,0,0,0,1.51184,0V30.39219a3.784,3.784,0,0,0-3.77971-3.77979h-31.75a3.784,3.784,0,0,0-3.77979,3.77979v22.6786a3.78409,3.78409,0,0,0,3.77979,3.77979.756.756,0,0,0,0-1.51193Z"/><path class="d" d="M352.45509,53.82671h7.5595a.75592.75592,0,1,0,0-1.51184h-7.5595a.75592.75592,0,1,0,0,1.51184Z"/><path class="d" d="M366.06224,35.68384h-31.75a3.7841,3.7841,0,0,0-3.7798,3.77979v22.6786a3.78409,3.78409,0,0,0,3.7798,3.77979H353.211a.75592.75592,0,0,0,0-1.51184h-18.8988a2.27064,2.27064,0,0,1-2.26786-2.26786V39.46372a2.27064,2.27064,0,0,1,2.26786-2.26786h31.75a2.27064,2.27064,0,0,1,2.26786,2.26786v22.6786a2.27064,2.27064,0,0,1-2.26786,2.26786h-3.02378a.75622.75622,0,0,0-.75592.75592v4.22274l-6.26913-6.26922a.75583.75583,0,0,0-1.06891,1.06891L362.504,71.748a.75571.75571,0,0,0,1.29037-.53445V65.92193h2.26786a3.78409,3.78409,0,0,0,3.7798-3.77979V39.46354A3.784,3.784,0,0,0,366.06224,35.68384Z"/><path class="d" d="M338.84793,53.82671H349.4313a.75592.75592,0,1,0,0-1.51184H338.84793a.75592.75592,0,1,0,0,1.51184Z"/><path class="d" d="M353.967,58.36243h7.5595a.75592.75592,0,1,0,0-1.51184H353.967a.75592.75592,0,0,0,0,1.51184Z"/><path class="d" d="M356.23488,48.53507a.75622.75622,0,0,0-.75592-.75592H349.4313a.75592.75592,0,0,0,0,1.51184H355.479A.75622.75622,0,0,0,356.23488,48.53507Z"/><path class="d" d="M338.84793,58.36243h12.09522a.75592.75592,0,0,0,0-1.51184H338.84793a.75592.75592,0,1,0,0,1.51184Z"/></g><g class="a"><path d="M8.73566,171.08954a7.02564,7.02564,0,0,0,0-14.05128.54042.54042,0,0,0,0,1.08083,5.94478,5.94478,0,1,1,0,11.88956.54045.54045,0,0,0,0,1.08089Z"/><path d="M35.75725,151.634H14.461L31.54568,148.38a1.39043,1.39043,0,0,1,1.0382.221,1.75522,1.75522,0,0,1,.47125,1.41161.54041.54041,0,1,0,1.08082,0,2.74179,2.74179,0,0,0-.8798-2.25848,2.4824,2.4824,0,0,0-1.92339-.43395L8.63458,151.64365a.5403.5403,0,0,0,.10108,1.07113H35.75731a1.62329,1.62329,0,0,1,1.6213,1.6213v19.45558a1.62329,1.62329,0,0,1-1.6213,1.6213H8.73566a1.62329,1.62329,0,0,1-1.6213-1.6213V152.17437a2.20548,2.20548,0,0,1,1.7764-1.91421l16.26-4.88011a2.535,2.535,0,0,1,1.98071-.02159,1.6069,1.6069,0,0,1,.51938,1.4116.54042.54042,0,0,0,1.08083,0,2.58989,2.58989,0,0,0-.99546-2.30712,3.49879,3.49879,0,0,0-2.94265-.10215L8.59405,149.22088a3.22669,3.22669,0,0,0-2.56058,2.95349v21.61729a2.70526,2.70526,0,0,0,2.70219,2.70218H35.75731a2.70526,2.70526,0,0,0,2.70219-2.70218V154.33608A2.7053,2.7053,0,0,0,35.75725,151.634Z"/><path d="M20.62516,166.76605a.54062.54062,0,0,0,.54041-.54041v-4.32348a.54027.54027,0,0,0-.9225-.38209l-1.62129,1.6213a.54035.54035,0,1,0,.76416.76417l.6988-.69881v3.01885A.54064.54064,0,0,0,20.62516,166.76605Z"/><path d="M29.81253,165.14475V162.983a1.6213,1.6213,0,0,0-3.24259,0v2.16171a1.6213,1.6213,0,1,0,3.24259,0Zm-2.16177,0V162.983a.54041.54041,0,0,1,1.08082,0v2.16171a.54041.54041,0,1,1-1.08082,0Z"/><path d="M8.73566,174.33213H32.51472a.54063.54063,0,0,0,.54041-.54041,2.70526,2.70526,0,0,1,2.70218-2.70218.54063.54063,0,0,0,.54042-.54041V157.57874a.54062.54062,0,0,0-.54042-.54041,2.70526,2.70526,0,0,1-2.70218-2.70219.54063.54063,0,0,0-.54041-.54041H8.73566a.54041.54041,0,0,0,0,1.08082h23.277a3.79252,3.79252,0,0,0,3.20422,3.20422V170.047a3.79253,3.79253,0,0,0-3.20422,3.20422H8.73566a.54044.54044,0,0,0,0,1.08088Z"/><path d="M25.48905,165.14475V162.983a1.6213,1.6213,0,0,0-3.2426,0v2.16171a1.6213,1.6213,0,1,0,3.2426,0Zm-2.16171,0V162.983a.54041.54041,0,1,1,1.08082,0v2.16171a.54041.54041,0,1,1-1.08082,0Z"/></g><g class="a"><path class="e" d="M32.99393,212.86423a4.28726,4.28726,0,1,0-4.28725-4.28726v3.57274a.7148.7148,0,0,0,.71451.71452ZM30.13579,208.577a2.85815,2.85815,0,1,1,2.85814,2.85814H30.13579Z"/><path class="e" d="M12.98677,208.577a7.11569,7.11569,0,0,0,2.67953,5.5777.71418.71418,0,1,0,.89313-1.11468,5.71659,5.71659,0,1,1,9.28911-4.463v5.71637H20.13217a7.1454,7.1454,0,1,0,5.64561,11.52552.71442.71442,0,0,0-1.12825-.87671,5.7165,5.7165,0,1,1-4.51736-9.21977h5.71637v5.71637A7.1454,7.1454,0,1,0,37.46122,215.861a.7147.7147,0,0,0-.89387,1.11544,5.71657,5.71657,0,1,1-9.28987,4.46235v-5.71637h5.71637A7.14545,7.14545,0,1,0,27.56059,203.936a.71429.71429,0,1,0,1.08538.92887,5.71664,5.71664,0,1,1,4.348,9.42845H27.27756V208.577a7.1454,7.1454,0,1,0-14.29079,0Z"/><path class="e" d="M26.56305,189.99892h2.14363v10.00362a.71452.71452,0,1,0,1.429,0V189.2844a.7148.7148,0,0,0-.71452-.71451H26.56305a.71452.71452,0,0,0,0,1.429Z"/><path class="e" d="M.83951,210.00608a.7148.7148,0,0,0,.71452-.71451v-17.149a2.14626,2.14626,0,0,1,2.14363-2.14363H22.99031v10.00362a.71452.71452,0,1,0,1.429,0V189.2844a.7148.7148,0,0,0-.71452-.71451H3.69774A3.57662,3.57662,0,0,0,.125,192.14255v17.149A.7148.7148,0,0,0,.83951,210.00608Z"/><path class="e" d="M.83951,215.72245a.7148.7148,0,0,0,.71452-.71451v-2.14363H11.55766a.71452.71452,0,0,0,0-1.429H.83952a.71468.71468,0,0,0-.71452.71443v2.85815A.71481.71481,0,0,0,.83951,215.72245Z"/><path class="e" d="M29.42128,217.15148a.7148.7148,0,0,0-.71452.71452v3.57274a4.28726,4.28726,0,1,0,4.28726-4.28726Zm6.43088,4.28726a2.85814,2.85814,0,0,1-5.71628,0V218.5806H32.994A2.86105,2.86105,0,0,1,35.85216,221.43874Z"/><path class="e" d="M39.42482,188.5698h-7.1454a.71452.71452,0,0,0,0,1.429h7.1454a2.14627,2.14627,0,0,1,2.14363,2.14363v35.72716a2.14626,2.14626,0,0,1-2.14363,2.14363H3.69774a2.14626,2.14626,0,0,1-2.14363-2.14363v-9.289H11.55774a.71452.71452,0,0,0,0-1.429H.8396a.7148.7148,0,0,0-.71452.71451v10.00363a3.57661,3.57661,0,0,0,3.57266,3.57265H39.4249a3.57673,3.57673,0,0,0,3.57266-3.57274V192.14255A3.57676,3.57676,0,0,0,39.42482,188.5698Z"/><path class="e" d="M23.70491,212.86423a.7148.7148,0,0,0,.71451-.71452V208.577a4.28726,4.28726,0,1,0-4.28725,4.28726ZM17.274,208.577a2.85815,2.85815,0,0,1,5.71629,0v2.85814H20.13217A2.861,2.861,0,0,1,17.274,208.577Z"/><path class="e" d="M20.13217,217.15148a4.28726,4.28726,0,1,0,4.28725,4.28726V217.866a.7148.7148,0,0,0-.71451-.71451H20.13217Zm2.85822,4.28726a2.85819,2.85819,0,1,1-2.85822-2.85814h2.85814v2.85814Z"/></g><g class="a"><path d="M35.11964,266.92948l-2.58447-23.61893A2.1912,2.1912,0,0,0,30.372,241.4092H12.01306a2.15315,2.15315,0,0,0-2.16322,1.90135L7.27106,266.92948a2.06631,2.06631,0,0,0,2.16322,2.37385H32.95643a2.12236,2.12236,0,0,0,2.16322-2.37385Zm-2.16321,1.18408H9.43427a.906.906,0,0,1-.96206-1.07023L11.051,243.487a.96834.96834,0,0,1,.96207-.88806V242.542H30.37764a1.02624,1.02624,0,0,1,.96206.88806L33.91849,267.049a.90232.90232,0,0,1-.96207,1.06453Z"/><path d="M26.47246,244.785a.5989.5989,0,0,0-.60342.59773v5.78376a4.674,4.674,0,0,1-9.34738,0v-5.76668a.60345.60345,0,0,0-1.20685,0v5.76668a5.88663,5.88663,0,0,0,11.77246,0v-5.77807a.61353.61353,0,0,0-.61481-.60342Z"/></g><g class="a"><path class="d" d="M44.47386,279.30355H20.81577a4.87273,4.87273,0,0,0-4.86716,4.86716V301.7504c0,3.39986.11866,6.84409.35253,10.2368l1.49452,21.67032a2.90452,2.90452,0,0,0,2.88888,2.69654H44.60521a2.9046,2.9046,0,0,0,2.88888-2.69653l1.49452-21.67033c.23387-3.3921.35253-6.83632.35253-10.2368V284.17071A4.87291,4.87291,0,0,0,44.47386,279.30355ZM42.564,334.50577H22.72567v-2.03312a.06171.06171,0,0,1,.06161-.06161H42.50235a.06171.06171,0,0,1,.06161.06161Zm4.92877-32.75537c0,3.35822-.11718,6.75956-.34821,10.10977L45.65,333.53048a1.05057,1.05057,0,0,1-1.0449.97528h-.19284v-2.03311a1.912,1.912,0,0,0-1.9099-1.9099H22.78728a1.912,1.912,0,0,0-1.9099,1.9099v2.03312h-.19284a1.05046,1.05046,0,0,1-1.04478-.97528l-1.49452-21.67032c-.23116-3.35083-.34834-6.75217-.34834-10.10977V284.17071a3.02226,3.02226,0,0,1,3.01887-3.01887H44.47386a3.02226,3.02226,0,0,1,3.01887,3.01887Z"/><path class="d" d="M24.75878,308.87617a2.89565,2.89565,0,1,0,2.89566,2.89565A2.89892,2.89892,0,0,0,24.75878,308.87617Zm0,3.943a1.04736,1.04736,0,1,1,1.04737-1.04736A1.04853,1.04853,0,0,1,24.75878,312.81918Z"/><path class="d" d="M32.64481,308.87617a2.89565,2.89565,0,1,0,2.89566,2.89565A2.89892,2.89892,0,0,0,32.64481,308.87617Zm0,3.943a1.04736,1.04736,0,1,1,1.04737-1.04736A1.04853,1.04853,0,0,1,32.64481,312.81918Z"/><path class="d" d="M40.53085,308.87617a2.89565,2.89565,0,1,0,2.89565,2.89565A2.89892,2.89892,0,0,0,40.53085,308.87617Zm0,3.943a1.04736,1.04736,0,1,1,1.04736-1.04736A1.04854,1.04854,0,0,1,40.53085,312.81918Z"/><path class="d" d="M24.75878,315.77644a2.89566,2.89566,0,1,0,2.89566,2.89566A2.89893,2.89893,0,0,0,24.75878,315.77644Zm0,3.943a1.04737,1.04737,0,1,1,1.04737-1.04736A1.04853,1.04853,0,0,1,24.75878,319.71946Z"/><path class="d" d="M32.64481,315.77644a2.89566,2.89566,0,1,0,2.89566,2.89566A2.89893,2.89893,0,0,0,32.64481,315.77644Zm0,3.943a1.04737,1.04737,0,1,1,1.04737-1.04736A1.04853,1.04853,0,0,1,32.64481,319.71946Z"/><path class="d" d="M40.53085,315.77644a2.89566,2.89566,0,1,0,2.89565,2.89566A2.89893,2.89893,0,0,0,40.53085,315.77644Zm0,3.943a1.04737,1.04737,0,1,1,1.04736-1.04736A1.04854,1.04854,0,0,1,40.53085,319.71946Z"/><path class="d" d="M24.75878,322.67672a2.89566,2.89566,0,1,0,2.89566,2.89565A2.89893,2.89893,0,0,0,24.75878,322.67672Zm0,3.943a1.04737,1.04737,0,1,1,1.04737-1.04737A1.04854,1.04854,0,0,1,24.75878,326.61974Z"/><path class="d" d="M32.64481,322.67672a2.89566,2.89566,0,1,0,2.89566,2.89565A2.89893,2.89893,0,0,0,32.64481,322.67672Zm0,3.943a1.04737,1.04737,0,1,1,1.04737-1.04737A1.04854,1.04854,0,0,1,32.64481,326.61974Z"/><path class="d" d="M40.53085,322.67672a2.89566,2.89566,0,1,0,2.89565,2.89565A2.89893,2.89893,0,0,0,40.53085,322.67672Zm0,3.943a1.04737,1.04737,0,1,1,1.04736-1.04737A1.04855,1.04855,0,0,1,40.53085,326.61974Z"/><path class="d" d="M42.50235,286.20383H22.78728a2.89893,2.89893,0,0,0-2.89566,2.89565V302.9a2.89893,2.89893,0,0,0,2.89566,2.89566H42.50235A2.89893,2.89893,0,0,0,45.398,302.9V289.09948A2.89893,2.89893,0,0,0,42.50235,286.20383ZM25.80615,303.9474H22.78728A1.04855,1.04855,0,0,1,21.73991,302.9v-1.05044c.02046.00136.04079.00308.06161.00308h4.00463Zm5.91452,0H27.65444v-2.09473h4.06623Zm5.91452,0H33.569v-2.09473h4.06623ZM43.54972,302.9a1.04855,1.04855,0,0,1-1.04737,1.04737H39.48348v-2.09473h4.00463c.02082,0,.04115-.00173.06161-.00308Zm0-2.89257c-.02046-.00135-.04079-.00308-.06161-.00308H21.80152c-.02082,0-.04115.00173-.06161.00308v-10.908a1.04854,1.04854,0,0,1,1.04737-1.04736H42.50235a1.04854,1.04854,0,0,1,1.04737,1.04736Z"/></g><g class="a"><path d="M77.83933,205.261H74.25667a.59709.59709,0,1,1,0-1.19417h3.58266a.59709.59709,0,1,1,0,1.19417Z"/><path d="M61.12019,204.06676h10.748a.59709.59709,0,1,1,0,1.19417h-10.748a.59709.59709,0,1,1,0-1.19417Z"/><path d="M62.91152,208.24658a.59732.59732,0,0,1-.59709.59708H59.926a.59709.59709,0,1,1,0-1.19417h2.38842A.59724.59724,0,0,1,62.91152,208.24658Z"/><path d="M77.83933,208.84366H71.86825a.59709.59709,0,1,1,0-1.19417h5.97108a.59709.59709,0,1,1,0,1.19417Z"/><path d="M86.19883,213.62057a1.79353,1.79353,0,0,0,1.79133-1.79133V193.91592a1.79353,1.79353,0,0,0-1.79133-1.79133H61.12019a1.79353,1.79353,0,0,0-1.79134,1.79133v2.38842a.59709.59709,0,1,1-1.19417,0v-2.38842a2.98891,2.98891,0,0,1,2.98551-2.98557H86.19883a2.98893,2.98893,0,0,1,2.98558,2.98557v17.91332a2.989,2.989,0,0,1-2.98558,2.98558.59713.59713,0,0,1,0-1.19425Z"/><path d="M67.09134,212.42633H61.12025a.59709.59709,0,0,1,0-1.19417h5.97109a.59709.59709,0,0,1,0,1.19417Z"/><path d="M56.34335,198.09567H81.422a2.989,2.989,0,0,1,2.98558,2.98558v17.91332a2.989,2.989,0,0,1-2.98558,2.98558H66.49425a.59709.59709,0,1,1,0-1.19418H81.422a1.79354,1.79354,0,0,0,1.79134-1.79133V201.08132A1.79354,1.79354,0,0,0,81.422,199.29H56.34335a1.79353,1.79353,0,0,0-1.79134,1.79133v17.91332a1.79353,1.79353,0,0,0,1.79134,1.79133h2.38841a.59733.59733,0,0,1,.59709.59709v3.33544l4.95185-4.95191a.597.597,0,1,1,.8443.84431L59.15392,226.582a.59692.59692,0,0,1-1.01924-.42215v-4.17975H56.34335a2.989,2.989,0,0,1-2.98558-2.98558V201.08118A2.98891,2.98891,0,0,1,56.34335,198.09567Z"/><path d="M77.83933,212.42633H69.47976a.59709.59709,0,1,1,0-1.19417h8.35957a.59709.59709,0,1,1,0,1.19417Z"/><path d="M65.89709,216.009H59.926a.59709.59709,0,1,1,0-1.19417h5.97108a.59709.59709,0,1,1,0,1.19417Z"/><path d="M64.10576,208.24658a.59733.59733,0,0,1,.59709-.59709h4.77691a.59709.59709,0,0,1,0,1.19417H64.70285A.59732.59732,0,0,1,64.10576,208.24658Z"/><path d="M77.83933,216.009H68.28558a.59709.59709,0,1,1,0-1.19417h9.55375a.59709.59709,0,1,1,0,1.19417Z"/></g><g class="a"><path d="M38.15609,109.58985a14.02731,14.02731,0,1,0,6.40118,8.61895A13.93549,13.93549,0,0,0,38.15609,109.58985Zm-4.004,24.77266a13.13191,13.13191,0,1,1,9.53684-15.93558A13.14673,13.14673,0,0,1,34.15205,134.36251Z"/><path d="M37.324,123.40074a.44763.44763,0,0,0-.57363.26793,6.17788,6.17788,0,0,1-9.942,2.49733.44768.44768,0,1,0-.59718.66712,7.07323,7.07323,0,0,0,11.38069-2.85879A.44752.44752,0,0,0,37.324,123.40074Z"/><path d="M35.28647,116.31873a2.24089,2.24089,0,0,0-1.6256,2.71629.44768.44768,0,1,0,.86838-.21814,1.343,1.343,0,1,1,2.60513-.65441.44768.44768,0,1,0,.86838-.21814A2.24089,2.24089,0,0,0,35.28647,116.31873Z"/><path d="M26.473,120.84063a.44767.44767,0,1,0,.86837-.21814,2.23839,2.23839,0,0,0-4.34189,1.09069.44768.44768,0,0,0,.86838-.21814,1.343,1.343,0,0,1,2.60514-.65441Z"/></g></svg>