<?xml version="1.0" encoding="UTF-8"?>
<svg id="Layer_2" data-name="Layer 2" xmlns="http://www.w3.org/2000/svg" viewBox="0 0 1220.6 449.49">
  <defs>
    <style>
      .cls-1 {
        fill: #cf9f39;
        stroke-width: 0px;
      }
    </style>
  </defs>
  <g id="Layer_1-2" data-name="Layer 1">
    <path class="cls-1" d="M497.25,189.82c-11.54-5.29-20.4-12.66-26.57-22.12-6.17-9.46-9.42-20.44-9.74-32.95h39.2c.16,8.82,3.73,15.83,10.7,21.04,6.97,5.21,16.63,7.82,28.98,7.82,9.14,0,16.31-1.52,21.52-4.57,5.21-3.04,7.82-7.7,7.82-13.95,0-4-1.08-7.25-3.25-9.74-2.16-2.48-5.77-4.57-10.82-6.25-5.05-1.68-12.23-3.25-21.52-4.69-17-2.56-30.18-5.77-39.56-9.62s-16.08-8.9-20.08-15.15c-4.01-6.25-6.01-14.51-6.01-24.77s2.72-19.8,8.18-27.66c5.45-7.85,13.3-13.91,23.57-18.16,10.26-4.25,22.28-6.37,36.07-6.37s26.25,2.45,36.91,7.33c10.66,4.89,18.96,11.78,24.89,20.68,5.93,8.9,8.98,19.12,9.14,30.66h-39.2c-.16-8.18-3.29-14.31-9.38-18.4-6.09-4.09-14.19-6.13-24.29-6.13-8.66,0-15.47,1.36-20.44,4.09-4.97,2.73-7.46,6.9-7.46,12.5,0,3.85,1.12,6.94,3.37,9.26,2.24,2.33,6.13,4.29,11.66,5.89,5.53,1.6,13.35,3.13,23.45,4.57,15.23,2.08,27.41,5.17,36.55,9.26,9.14,4.09,15.79,9.5,19.96,16.23,4.17,6.73,6.25,15.15,6.25,25.25,0,11.06-2.85,20.64-8.54,28.74-5.69,8.1-13.71,14.31-24.05,18.64-10.34,4.33-22.41,6.49-36.19,6.49-15.87,0-29.58-2.65-41.12-7.94Z"/>
    <path class="cls-1" d="M661.49,56.12h-36.07v-31.26h36.07v31.26ZM661.49,194.39h-35.59v-122.89h35.59v122.89Z"/>
    <path class="cls-1" d="M681.69,194.39v-122.89h35.59v15.39h1.92c6.41-12.5,17.15-18.76,32.22-18.76,7.37,0,13.87,1.84,19.48,5.53,5.61,3.69,9.94,8.9,12.99,15.63h1.92c7.37-14.11,19.08-21.16,35.11-21.16,12.66,0,22.56,3.93,29.7,11.78,7.13,7.86,10.7,18.6,10.7,32.22v82.24h-35.59v-74.55c0-6.25-1.6-11.1-4.81-14.55-3.21-3.45-7.7-5.17-13.47-5.17s-10.26,1.72-13.47,5.17c-3.21,3.45-4.81,8.3-4.81,14.55v74.55h-35.59v-74.55c0-6.25-1.56-11.1-4.69-14.55-3.13-3.45-7.58-5.17-13.35-5.17s-10.26,1.72-13.47,5.17c-3.21,3.45-4.81,8.3-4.81,14.55v74.55h-35.59Z"/>
    <path class="cls-1" d="M934.67,192.11c-6.89-3.77-12.26-9.1-16.11-15.99h-1.92v18.28h-35.59V26.06h35.59v63.73h1.92c3.85-7.05,9.22-12.42,16.11-16.11,6.89-3.69,14.83-5.53,23.81-5.53,11.22,0,21.24,2.77,30.06,8.3,8.81,5.53,15.71,13.19,20.68,22.97,4.97,9.78,7.46,20.92,7.46,33.43s-2.49,23.69-7.46,33.55c-4.97,9.86-11.87,17.55-20.68,23.09-8.82,5.53-18.84,8.3-30.06,8.3-8.98,0-16.92-1.89-23.81-5.65ZM970.74,156.88c5.77-5.93,8.66-13.95,8.66-24.05s-2.89-17.88-8.66-23.81c-5.77-5.93-13.39-8.9-22.85-8.9s-17.04,2.97-22.73,8.9c-5.69,5.93-8.54,13.87-8.54,23.81s2.84,18.12,8.54,24.05c5.69,5.93,13.26,8.9,22.73,8.9s17.07-2.96,22.85-8.9Z"/>
    <path class="cls-1" d="M1054.43,189.46c-8.82-5.53-15.71-13.23-20.68-23.09-4.97-9.86-7.46-21.04-7.46-33.55s2.48-23.65,7.46-33.43c4.97-9.78,11.86-17.44,20.68-22.97,8.82-5.53,18.84-8.3,30.06-8.3,8.98,0,16.91,1.84,23.81,5.53,6.89,3.69,12.26,9.06,16.11,16.11h1.92v-18.28h35.59v122.89h-35.59v-18.28h-1.92c-3.85,6.89-9.22,12.23-16.11,15.99-6.89,3.76-14.83,5.65-23.81,5.65-11.22,0-21.24-2.77-30.06-8.3ZM1117.8,156.88c5.69-5.93,8.54-13.95,8.54-24.05s-2.85-17.88-8.54-23.81c-5.69-5.93-13.27-8.9-22.73-8.9s-17.07,2.97-22.84,8.9c-5.77,5.93-8.66,13.87-8.66,23.81s2.89,18.12,8.66,24.05c5.77,5.93,13.38,8.9,22.84,8.9s17.03-2.96,22.73-8.9Z"/>
    <path class="cls-1" d="M504.22,401.39h-36.79v-168.34h51.7l46.41,108.94h2.16l46.41-108.94h50.98v168.34h-37.03v-118.8h-2.16l-41.84,96.91h-35.83l-42.08-96.91h-1.92v118.8Z"/>
    <path class="cls-1" d="M714.28,396.46c-10.18-5.53-18.16-13.23-23.93-23.09-5.77-9.86-8.66-21.04-8.66-33.55s2.89-23.65,8.66-33.43c5.77-9.78,13.74-17.44,23.93-22.97,10.18-5.53,21.76-8.3,34.75-8.3s24.37,2.77,34.63,8.3c10.26,5.53,18.24,13.19,23.93,22.97,5.69,9.78,8.54,20.92,8.54,33.43s-2.85,23.69-8.54,33.55c-5.69,9.86-13.67,17.55-23.93,23.09-10.26,5.53-21.8,8.3-34.63,8.3s-24.57-2.77-34.75-8.3ZM770.55,363.28c5.37-5.85,8.06-13.67,8.06-23.45s-2.69-17.59-8.06-23.45c-5.37-5.85-12.55-8.78-21.52-8.78s-16.19,2.93-21.64,8.78c-5.45,5.85-8.18,13.67-8.18,23.45s2.72,17.6,8.18,23.45c5.45,5.85,12.66,8.78,21.64,8.78s16.15-2.92,21.52-8.78Z"/>
    <path class="cls-1" d="M830.31,401.39v-122.89h35.59v17.31h1.92c3.53-6.89,8.42-12.06,14.67-15.51,6.25-3.45,13.38-5.17,21.4-5.17,12.99,0,23.24,4.17,30.78,12.5,7.53,8.34,11.3,19.72,11.3,34.15v79.6h-35.59v-69.98c0-7.85-1.92-13.87-5.77-18.04-3.85-4.17-9.3-6.25-16.35-6.25s-12.55,2.13-16.47,6.37c-3.93,4.25-5.89,10.22-5.89,17.92v69.98h-35.59Z"/>
    <path class="cls-1" d="M1057.44,283.2c9.86,5.37,17.55,12.83,23.09,22.37,5.53,9.54,8.3,20.32,8.3,32.34,0,3.37-.24,6.73-.72,10.1h-93.07c1.28,8.5,4.65,15.11,10.1,19.84,5.45,4.73,12.51,7.09,21.16,7.09,7.05,0,12.83-1.52,17.32-4.57,4.49-3.04,7.29-6.81,8.42-11.3h34.87c-1.12,8.66-4.41,16.43-9.86,23.33-5.45,6.9-12.67,12.35-21.64,16.35-8.98,4.01-19.16,6.01-30.54,6.01-12.67,0-24.01-2.77-34.03-8.3-10.02-5.53-17.84-13.23-23.45-23.09-5.61-9.86-8.42-21.04-8.42-33.55s2.8-23.45,8.42-33.31c5.61-9.86,13.35-17.56,23.21-23.09,9.86-5.53,21.04-8.3,33.55-8.3s23.45,2.69,33.31,8.06ZM1006.58,310.37c-4.97,3.61-8.42,8.78-10.34,15.51h57.72c-2.09-6.73-5.65-11.9-10.7-15.51-5.05-3.61-11.18-5.41-18.4-5.41s-13.31,1.8-18.28,5.41Z"/>
    <path class="cls-1" d="M1184.29,278.51h36.31l-46.17,140.2c-3.85,11.7-8.58,19.76-14.19,24.17-5.61,4.41-13.87,6.61-24.77,6.61h-26.69v-31.02h25.49c3.69,0,6.29-.6,7.82-1.8,1.52-1.2,2.77-3.49,3.73-6.85l2.64-8.42h-15.39l-44.97-122.89h37.75l30.06,89.7h2.16l26.21-89.7Z"/>
    <g>
      <path class="cls-1" d="M101.83,418.01s51.97-26.08,36.05-113c0,0,44.86,40.79,34.16,121.69,0,0-56.83-2.67-70.21-8.69Z"/>
      <path class="cls-1" d="M245.22,416.67s-26.45-86.77-90.34-130.46c0,0,65.38,1.78,145.32,98.36,0,0-27.64,22.29-54.98,32.09Z"/>
      <path class="cls-1" d="M334.74,354.56s-51.26-74.89-163.15-106.09c0,0,102.08.45,201.04,53.05,0,0-22.73,39.67-37.89,53.05Z"/>
      <path class="cls-1" d="M381.99,252.04s-57.5-47.25-198.36-31.65c0,0,64.63-60.18,201.93-26.3,0,0,5.79,26.3-3.57,57.95Z"/>
      <path class="cls-1" d="M352.26,103.41c-106.09-9.36-168.05,31.2-168.05,31.2,38.34-55.72,137.3-75.33,137.3-75.33-10.25-8.91-37.44-28.97-37.44-28.97-53.49,7.58-120.36,59.73-120.36,59.73C187.78,39.67,245.73,8.03,245.73,8.03L201.15,0c-61.96,29.42-80.68,81.57-79.79,86.03.9,4.46,10.7,10.7,10.7,10.7-13.53-1.1-32.36,8.57-44.74,16.09-7.95,4.83-12.93,13.33-13.24,22.62l-.42,12.55C33.1,175.63,0,221.88,0,221.88h22.48c4.21,0,8.38-.86,12.25-2.52l11.3-4.86c-14.22,13.18-22.41,25.52-26.97,34.18-4.56,8.67-3.5,19.28,2.87,26.72,19,22.19,52.7,9.32,52.7,9.32,37.74-21.84-1.41-43.02-1.41-43.02l49.26-33.73c-.1.09-.2.19-.3.28-8.81,8.42.09,22.99,11.58,18.92.06-.02.13-.05.2-.07,2.44-.9,4.56-2.5,6.2-4.52,89.42-110.07,239.3-77.53,239.3-77.53-7.13-23.44-27.19-41.65-27.19-41.65ZM153.64,137.73c-.84,2.53-2.3,4.8-4.21,6.66-6.88,6.7-27.93,24.2-61.05,25.27,0,0,2.64-13.2,11.09-23.22,4.78-5.67,11.87-8.87,19.29-8.87h34.93s-.02.05-.05.15Z"/>
      <path class="cls-1" d="M81.61,333.69c-2.01-13.86-9.59-22.5-21.39-25.76-13.62-3.76-27.16-7.77-40.95-11.74-1.32,17.16,6.2,32.82,13.14,49.59,15.7-7.2,31-15.72,49.19-12.09Z"/>
    </g>
  </g>
</svg>