<svg version="1.2" xmlns="http://www.w3.org/2000/svg" viewBox="0 0 952 192" width="952" height="192">
	<title>orange-logo-svg</title>
	<style>
		.s0 { fill: #cf9f39 } 
	</style>
	<g id="Layer_1-2">
		<path id="Layer" class="s0" d="m222.7 82q-7.5-3.5-11.5-9.6-4-6.1-4.2-14.2h16.9q0.1 5.7 4.7 9.1 4.5 3.3 12.5 3.3 5.9 0 9.3-1.9 3.3-2 3.3-6.1 0-2.5-1.4-4.2-1.4-1.6-4.6-2.7-3.3-1.1-9.3-2-11-1.6-17.1-4.1-6.1-2.5-8.7-6.6-2.6-4-2.6-10.7c0-4.4 1.2-8.5 3.6-11.9q3.5-5.1 10.1-7.9 6.7-2.7 15.6-2.7c6 0 11.3 1.1 15.9 3.2q6.9 3.1 10.8 8.9 3.8 5.7 3.9 13.2h-16.9q-0.1-5.3-4-7.9-4-2.7-10.5-2.7-5.6 0-8.9 1.8-3.2 1.8-3.2 5.4 0 2.5 1.5 4 1.4 1.5 5 2.5 3.6 1.1 10.1 2 9.9 1.4 15.8 4 5.9 2.7 8.6 7 2.7 4.4 2.7 10.9 0 7.2-3.6 12.4-3.7 5.3-10.4 8.1-6.7 2.8-15.7 2.8-10.2 0-17.7-3.5z"/>
		<path id="Layer" class="s0" d="m293.6 10.7v13.5h-15.6v-13.5zm0 20.2v53h-15.3v-53z"/>
		<path id="Layer" class="s0" d="m302.3 83.9v-53h15.4v6.6h0.8q4.2-8.1 13.9-8.1 4.8 0 8.4 2.4 3.7 2.4 5.6 6.8h0.9q4.8-9.2 15.1-9.2 8.2 0 12.9 5.1 4.6 5.1 4.6 13.9v35.5h-15.4v-32.2q0-4-2.1-6.2-2-2.3-5.8-2.3-3.7 0-5.8 2.3-2.1 2.2-2.1 6.2v32.2h-15.3v-32.2q0-4-2.1-6.2-2-2.3-5.7-2.3-3.8 0-5.8 2.3-2.1 2.2-2.1 6.2v32.2h-15.4z"/>
		<path id="Layer" fill-rule="evenodd" class="s0" d="m411.5 82.9q-4.4-2.4-6.9-6.9h-0.8v7.9h-15.4v-72.6h15.4v27.5h0.8q2.5-4.6 6.9-7 4.5-2.4 10.3-2.4 7.3 0 13 3.6 5.7 3.6 8.9 9.9 3.3 6.4 3.3 14.5 0 8.1-3.3 14.4-3.2 6.4-8.9 10-5.7 3.6-13 3.6-5.8 0-10.3-2.4zm15.6-15.3q3.8-3.8 3.8-10.3c0-4.4-1.3-7.8-3.8-10.3q-3.7-3.9-9.8-3.9-6.2 0-9.9 3.9-3.6 3.8-3.6 10.3c0 4.3 1.2 7.8 3.6 10.3q3.7 3.9 9.9 3.9 6.1 0 9.8-3.9z"/>
		<path id="Layer" fill-rule="evenodd" class="s0" d="m463.3 81.8q-5.8-3.6-9-10-3.2-6.4-3.2-14.5 0-8.1 3.2-14.4 3.2-6.3 9-9.9 5.7-3.6 12.9-3.6 5.8 0 10.3 2.4 4.5 2.4 7 7h0.8v-7.9h15.4v53h-15.4v-7.9h-0.8q-2.5 4.5-7 6.9-4.4 2.5-10.3 2.5-7.2 0-12.9-3.6zm27.3-14.1q3.7-3.8 3.7-10.4c0-4.3-1.2-7.7-3.7-10.2q-3.7-3.9-9.8-3.9-6.1 0-9.9 3.9-3.7 3.8-3.7 10.2c0 4.3 1.2 7.9 3.7 10.4q3.8 3.9 9.9 3.9 6.1 0 9.8-3.9z"/>
		<path id="Layer" class="s0" d="m225.7 173.3h-15.9v-72.7h22.3l20.1 47.1h0.9l20-47.1h22.1v72.7h-16v-51.3h-1l-18 41.9h-15.5l-18.2-41.9h-0.8c0 0 0 51.3 0 51.3z"/>
		<path id="Layer" fill-rule="evenodd" class="s0" d="m316.4 171.2q-6.6-3.6-10.3-10-3.8-6.4-3.8-14.5 0-8.1 3.8-14.4 3.7-6.3 10.3-9.9 6.6-3.6 15-3.6c5.6 0 10.5 1.2 14.9 3.6q6.7 3.6 10.4 9.9 3.7 6.3 3.7 14.4 0 8.1-3.7 14.5-3.7 6.4-10.4 10-6.6 3.6-14.9 3.6c-5.5 0-10.6-1.2-15-3.6zm24.3-14.4q3.5-3.7 3.5-10.1 0-6.3-3.5-10.1-3.5-3.8-9.3-3.8-5.8 0-9.3 3.8-3.6 3.8-3.6 10.1 0 6.4 3.6 10.1 3.5 3.8 9.3 3.8 5.8 0 9.3-3.8z"/>
		<path id="Layer" class="s0" d="m366.5 173.3v-53.1h15.4v7.5h0.8q2.3-4.4 6.3-6.7 4.1-2.2 9.3-2.2 8.4 0 13.2 5.4 4.9 5.4 4.9 14.7v34.4h-15.3v-30.2q0-5.1-2.5-7.8-2.5-2.7-7.1-2.7-4.6 0-7.1 2.7-2.5 2.8-2.5 7.8v30.2c0 0-15.4 0-15.4 0z"/>
		<path id="Layer" fill-rule="evenodd" class="s0" d="m464.6 122.3q6.3 3.5 9.9 9.6 3.6 6.2 3.6 14 0 2.2-0.3 4.4h-40.2q0.8 5.5 4.4 8.5 3.5 3.1 9.1 3.1 4.6 0 7.5-2 2.9-2 3.6-4.9h15.1q-0.7 5.6-4.3 10.1-3.5 4.5-9.3 7.1-5.8 2.6-13.2 2.6-8.2 0-14.7-3.6-6.5-3.6-10.1-10-3.7-6.4-3.7-14.5c0-5.4 1.2-10.1 3.7-14.4q3.6-6.3 10-9.9 6.4-3.6 14.5-3.6c5.4 0 10.1 1.1 14.4 3.5zm-22 11.7q-3.2 2.3-4.5 6.7h25q-1.4-4.4-4.7-6.7-3.2-2.3-7.9-2.3-4.7 0-7.9 2.3z"/>
		<path id="Layer" class="s0" d="m519.3 120.2h15.7l-19.9 60.6q-2.5 7.6-6.2 10.4-3.6 2.9-10.7 2.9h-11.5v-13.4h11q2.4 0 3.4-0.8 1-0.8 1.6-3l1.2-3.6h-6.7l-19.4-53.1h16.3l13 38.8h0.9l11.3-38.8z"/>
		<g id="Layer">
			<path id="Layer" class="s0" d="m52 180.5c0 0 22.4-11.3 15.5-48.8 0 0 19.4 17.6 14.8 52.5 0 0-24.6-1.1-30.3-3.7z"/>
			<path id="Layer" class="s0" d="m113.9 179.9c0 0-11.4-37.5-39-56.3 0 0 28.2 0.7 62.7 42.4 0 0-11.9 9.7-23.7 13.9z"/>
			<path id="Layer" class="s0" d="m152.5 153.1c0 0-22.1-32.4-70.4-45.8 0 0 44.1 0.2 86.8 22.9 0 0-9.8 17.1-16.4 22.9z"/>
			<path id="Layer" class="s0" d="m172.9 108.8c0 0-24.8-20.4-85.6-13.6 0 0 27.9-26 87.2-11.4 0 0 2.5 11.4-1.6 25z"/>
			<path id="Layer" fill-rule="evenodd" class="s0" d="m160.1 44.6c0 0 8.7 7.9 11.7 18 0 0-64.7-14-103.3 33.5-0.7 0.9-1.6 1.6-2.7 2q0 0 0 0c-5 1.7-8.9-4.6-5-8.2q0 0 0.1-0.1l-21.3 14.6c0 0 16.9 9.1 0.6 18.5 0 0-14.5 5.6-22.7-4-2.8-3.2-3.2-7.8-1.3-11.5 2-3.8 5.5-9.1 11.7-14.8l-4.9 2.1c-1.7 0.7-3.5 1.1-5.3 1.1h-9.7c0 0 14.3-20 31.8-31.9l0.2-5.4c0.1-4 2.3-7.7 5.7-9.8 5.3-3.2 13.5-7.4 19.3-6.9 0 0-4.2-2.7-4.6-4.7-0.4-1.9 7.7-24.4 34.4-37.1l19.3 3.5c0 0-25 13.6-35.4 35.4 0 0 28.9-22.5 51.9-25.8 0 0 11.8 8.6 16.2 12.5 0 0-42.7 8.5-59.3 32.5 0 0 26.8-17.5 72.6-13.5zm-85.7 14.8h-15.1c-3.2 0-6.3 1.4-8.4 3.8-3.6 4.4-4.7 10.1-4.7 10.1 14.3-0.5 23.3-8.1 26.3-11 0.8-0.8 1.5-1.7 1.8-2.8q0.1-0.1 0.1-0.1z"/>
			<path id="Layer" class="s0" d="m43.2 144.1c-0.8-6-4.1-9.7-9.2-11.1-5.9-1.7-11.7-3.4-17.7-5.1-0.6 7.4 2.7 14.2 5.7 21.4 6.8-3.1 13.4-6.8 21.2-5.2z"/>
		</g>
	</g>
</svg>