<?xml version="1.0" encoding="utf-8"?>
<svg viewBox="0 0 63.33482 302.87335" xmlns="http://www.w3.org/2000/svg">
  <defs>
    <style>.a{fill:#fff;}.b{fill:#24d682;}.c,.h{fill:none;stroke-linecap:round;stroke-linejoin:round;}.c{stroke:#24d682;stroke-width:2px;opacity:0.5;}.d{clip-path:url(#a);}.e{isolation:isolate;}.f{clip-path:url(#b);}.g{clip-path:url(#c);}.h{stroke:#fff;stroke-width:0.75px;}</style>
    <clipPath id="a">
      <path class="a" d="M23.33634,278.34249a3.54568,3.54568,0,0,1-2.60109,1.12864.56434.56434,0,1,1,0-1.12864Zm11.7583,1.84338a.56689.56689,0,0,1,.56942.56432,3.54047,3.54047,0,0,1-7.08066,0,.56945.56945,0,0,1,1.13885,0,2.40158,2.40158,0,0,0,4.803,0A.5669.5669,0,0,1,35.09464,280.18587Zm4.87725-4.22334v-5.39785a7.77775,7.77775,0,0,0-5.11555-7.28232.56549.56549,0,0,1-.36407-.44275,2.40119,2.40119,0,0,0-4.74-.00038.56551.56551,0,0,1-.36418.44316,7.77376,7.77376,0,0,0-5.11252,7.28229v5.39785a3.47893,3.47893,0,0,1-.93924,2.38H40.91007A3.47935,3.47935,0,0,1,39.97189,275.96253Zm3.54032,2.38a.56434.56434,0,1,1,0,1.12864,3.54506,3.54506,0,0,1-2.60214-1.12864Zm-2.40148-7.77781v5.39785a2.38935,2.38935,0,0,0,2.40148,2.38v1.12864h-22.777v-1.12864a2.39124,2.39124,0,0,0,2.40148-2.38v-5.39785a8.89784,8.89784,0,0,1,5.55693-8.22447,3.54463,3.54463,0,0,1,6.857,0A8.90154,8.90154,0,0,1,41.11073,270.56468Z"/>
    </clipPath>
    <clipPath id="b">
      <rect class="a" x="14.18687" y="253.71643" width="35.87372" height="34.67793"/>
    </clipPath>
    <clipPath id="c">
      <rect class="a" x="18.97004" y="259.69539" width="26.30739" height="22.72002"/>
    </clipPath>
  </defs>
  <title>Asset 249500pp</title>
  <rect class="b" x="5.55374" y="245.09228" width="52.22734" height="52.22734" rx="25.60444" transform="translate(302.87335 239.53854) rotate(90)" style="fill: rgb(233, 191, 0);"/>
  <path class="c" d="M1,271.206a30.66738,30.66738,0,0,0,30.66738,30.66738h.00006A30.66738,30.66738,0,0,0,62.33482,271.206v-.00006a30.67729,30.67729,0,0,0-24.85619-30.11753l-.00011-.82848V1" style="stroke: rgb(233, 191, 0);"/>
  <path class="a" d="M23.33634,278.34249a3.54568,3.54568,0,0,1-2.60109,1.12864.56434.56434,0,1,1,0-1.12864Zm11.7583,1.84338a.56689.56689,0,0,1,.56942.56432,3.54047,3.54047,0,0,1-7.08066,0,.56945.56945,0,0,1,1.13885,0,2.40158,2.40158,0,0,0,4.803,0A.5669.5669,0,0,1,35.09464,280.18587Zm4.87725-4.22334v-5.39785a7.77775,7.77775,0,0,0-5.11555-7.28232.56549.56549,0,0,1-.36407-.44275,2.40119,2.40119,0,0,0-4.74-.00038.56551.56551,0,0,1-.36418.44316,7.77376,7.77376,0,0,0-5.11252,7.28229v5.39785a3.47893,3.47893,0,0,1-.93924,2.38H40.91007A3.47935,3.47935,0,0,1,39.97189,275.96253Zm3.54032,2.38a.56434.56434,0,1,1,0,1.12864,3.54506,3.54506,0,0,1-2.60214-1.12864Zm-2.40148-7.77781v5.39785a2.38935,2.38935,0,0,0,2.40148,2.38v1.12864h-22.777v-1.12864a2.39124,2.39124,0,0,0,2.40148-2.38v-5.39785a8.89784,8.89784,0,0,1,5.55693-8.22447,3.54463,3.54463,0,0,1,6.857,0A8.90154,8.90154,0,0,1,41.11073,270.56468Z"/>
  <g class="d">
    <g class="e">
      <rect class="a" x="14.18687" y="253.71643" width="35.87372" height="34.67793"/>
      <g class="f">
        <rect class="a" x="18.97004" y="259.69539" width="26.30739" height="22.72002"/>
        <g class="g">
          <rect class="a" x="14.18687" y="253.71643" width="35.87372" height="34.67793"/>
          <rect class="a" x="11.79529" y="250.12906" width="40.65688" height="40.65688"/>
        </g>
      </g>
    </g>
  </g>
  <path class="h" d="M34.56387,264.74791s3.79616,1.73683,4.10266,5.41484"/>
  <path class="h" d="M41.83176,263.6872s3.09535,2.8011,2.278,6.40022"/>
  <path class="h" d="M20.04551,265.04393s1.14784-4.01371,4.73827-4.86836"/>
  <path class="h" d="M16.58814,265.45494s2.05488-7.18536,8.4825-8.71537"/>
</svg>