<svg xmlns="http://www.w3.org/2000/svg" viewBox="0 0 274.58874 359.16964"><defs><style>.a{opacity:0.2;}.b{fill:#35353a;}</style></defs><title>Asset 177</title><g class="a"><path class="b" d="M61.68883,26.64071c-.86951.637-1.729,1.28836-2.61067,1.90794-1.55835,1.09516-3.13647,2.16212-4.69381,3.25862a1.50914,1.50914,0,0,1-2.41457-.31456c2.38836-3.20387,5.71266-4.60717,9.3208-5.52355Z"/><path class="b" d="M4.493,63.22211C2.94156,62.3502,1.29635,64.4928.20761,62.459A3.42946,3.42946,0,0,1,1.2578,58.77722a2.17992,2.17992,0,0,1,2.85244-.12029C5.86325,59.91746,4.68734,61.36088,4.493,63.22211ZM.89638,62.23624A11.805,11.805,0,0,0,3.303,61.63046,1.22593,1.22593,0,0,0,3.127,59.44517a1.35236,1.35236,0,0,0-1.24175.32585A13.52733,13.52733,0,0,0,.89638,62.23624Z"/><path class="b" d="M6.98607,69.17347c-2.1049-.631-3.018-2.59156-2.10139-4.21426a1.21293,1.21293,0,0,1,2.25392-.04244A4.35649,4.35649,0,0,1,6.98607,69.17347ZM5.95579,67.41409l.58238-.127q-.15954-.68445-.31908-1.369l-.40357.07776Q5.88563,66.70507,5.95579,67.41409Z"/><path class="b" d="M77.70994,68.77948,73.17407,67.864c.51038-1.82254.59823-1.88333,2.23411-1.65106C77.62772,66.528,77.74587,66.64748,77.70994,68.77948Z"/><path class="b" d="M108.51046,51.67432c.67939,1.413-.0307,2.4357-.8294,3.36648-.52671.61383-.83288.54319-2.74331-.23132C107.04688,54.49435,107.79689,53.16182,108.51046,51.67432Z"/><path class="b" d="M97.13336,67.04233c-.93092-1.39042-.91248-1.60854.275-3.25581C97.75432,65.02,97.72193,65.40351,97.13336,67.04233Z"/><path class="b" d="M71.83091,68.12935c-.39918.58937-.79839,1.17874-1.24083,1.832C69.82753,68.70165,69.82753,68.70165,71.83091,68.12935Z"/><path class="b" d="M104.116,64.22918c-.61631,1.226-.61631,1.226-2.33876.78752C102.89507,64.64038,103.50557,64.43478,104.116,64.22918Z"/><path class="b" d="M10.984,32.2969c.95463-.49855,1.42712-.74526,2.35018-1.22735C12.582,32.36376,12.582,32.36376,10.984,32.2969Z"/><path class="b" d="M61.48919,77.34043c.49937-.9435.72916-1.37773,1.02275-1.93248C62.98317,76.5703,62.98317,76.5703,61.48919,77.34043Z"/><path class="b" d="M65.814,71.02566c.45384-.24893.90768-.49786,1.537-.843.0015.4992.07011.85776-.00862.89374a11.33172,11.33172,0,0,1-1.32489.44341Z"/><path class="b" d="M8.36124,30.28232q.6432.28759,1.28642.57531l-.21245.54972q-.6891-.21706-1.37816-.43425Q8.20914,30.62765,8.36124,30.28232Z"/><path class="b" d="M94.33381,66.45531c-.79691.30591-1.26631.48607-1.78626.68568-.04354-.35589-.1233-.53143-.067-.625C92.82768,65.93929,93.26355,65.62291,94.33381,66.45531Z"/><path class="b" d="M90.9591,67.99019c-.16513-.26712-.4043-.53066-.357-.60048a2.88179,2.88179,0,0,1,.6166-.53545q.23594.295.472.58986C91.46747,67.61075,91.24428,67.77726,90.9591,67.99019Z"/><path class="b" d="M101.31831,57.35659c-1.09879.54689-1.47845.38015-1.58686-.8132C100.31142,56.84057,100.67986,57.02944,101.31831,57.35659Z"/><path class="b" d="M.89638,62.23624a13.52733,13.52733,0,0,1,.9889-2.46522A1.35236,1.35236,0,0,1,3.127,59.44517,1.22593,1.22593,0,0,1,3.303,61.63046,11.805,11.805,0,0,1,.89638,62.23624Z"/><path class="b" d="M5.95579,67.41409q-.07014-.70907-.14027-1.41826l.40357-.07776q.15954.68463.31908,1.369Z"/><path class="b" d="M143.81123,305.218c-1.06913.13723-2.13638.29181-3.20772.40788-1.8936.2052-3.79087.37616-5.68423.583-.97092.1061-1.72857-.06066-1.96151-1.44276,3.63969-1.64977,7.2281-1.27088,10.82954-.32853Z"/><path class="b" d="M76.05812,309.58592c-.93648-1.51332-3.41254-.43324-3.38226-2.7399a3.42943,3.42943,0,0,1,2.6994-2.71511,2.17991,2.17991,0,0,1,2.555,1.27382C78.85534,307.3557,77.12813,308.05066,76.05812,309.58592Zm-2.67163-2.6019a11.80571,11.80571,0,0,0,2.3995.63329,1.22593,1.22593,0,0,0,.90255-1.998,1.35231,1.35231,0,0,0-1.24451-.31514A13.52722,13.52722,0,0,0,73.38649,306.984Z"/><path class="b" d="M156.87639,284.64763c-1.86477.002-3.73349.07064-5.59157-.04017-.47476-.02831-.91589-.62471-1.37248-.96009.433-.39263.82164-1.05145,1.30665-1.13216,2.2075-.36722,4.07969.54777,5.91369,1.49228Z"/><path class="b" d="M75.363,316.00082c-1.53744-1.57006-1.38882-3.7277.1981-4.70495a1.21293,1.21293,0,0,1,1.99348,1.0526A4.35645,4.35645,0,0,1,75.363,316.00082Zm-.05122-2.0382.57119.1704q.19128-.67626.3826-1.35264l-.39086-.12706Q75.59319,313.30805,75.3118,313.96262Z"/><path class="b" d="M137.46165,349.8502l-3.52785-2.9944c1.32793-1.3486,1.43423-1.35934,2.75389-.36509C138.47824,347.83963,138.52391,348.00133,137.46165,349.8502Z"/><path class="b" d="M133.9511,288.53934a13.815,13.815,0,0,0-1.45521-.5855c-.82462-.23459-1.573-.52671-1.18351-1.58352a2.53344,2.53344,0,0,1,2.57238-1.13833C135.41638,285.83848,135.45731,286.825,133.9511,288.53934Z"/><path class="b" d="M106.95325,288.64191a33.28055,33.28055,0,0,0-3.44042-1.722,30.00127,30.00127,0,0,0-3.4831-.8157C101.91184,284.51634,105.28471,285.65356,106.95325,288.64191Z"/><path class="b" d="M137.13541,288.55849l4.96341-1.21729C141.5837,289.01856,139.58215,289.68253,137.13541,288.55849Z"/><path class="b" d="M172.69305,349.76893c-.08849,1.5654-1.20451,2.11725-2.35367,2.54584-.75784.28266-.99169.0728-2.28951-1.52884C170.04846,351.52982,171.34925,350.726,172.69305,349.76893Z"/><path class="b" d="M136.04184,291.42379c-2.0327-.62946-3.58177-1.10914-5.47655-1.69591C132.56568,288.93191,134.43739,289.49488,136.04184,291.42379Z"/><path class="b" d="M99.92566,287.70175c1.11982.63929,3.053.53822,2.4606,2.83355A3.01079,3.01079,0,0,1,99.92566,287.70175Z"/><path class="b" d="M139.87521,284.3724c1.1429-.59389,2.27312-1.34008,4.109-.56189C142.32815,284.71527,141.15878,284.9778,139.87521,284.3724Z"/><path class="b" d="M155.30384,357.72062c-.14262-1.6672-.021-1.84922,1.8149-2.717C156.82515,356.25062,156.6114,356.57064,155.30384,357.72062Z"/><path class="b" d="M128.71881,287.28365c-1.09315,1.72084-1.09315,1.72084-2.657.73781A1.71484,1.71484,0,0,1,128.71881,287.28365Z"/><path class="b" d="M146.09936,285.49474l3.06788-1.04224C148.29961,286.24067,147.378,286.36514,146.09936,285.49474Z"/><path class="b" d="M132.62977,346.43866c-.63437.32291-1.26877.6458-1.97194,1.00376C130.59941,345.971,130.59941,345.971,132.62977,346.43866Z"/><path class="b" d="M162.77625,358.63417c-1.13225.7752-1.13225.7752-2.428-.44141C161.50867,358.40379,162.14247,358.519,162.77625,358.63417Z"/><path class="b" d="M96.69208,285.65388c1.07667.02516,1.60955.03764,2.65063.06193C98.05857,286.485,98.05857,286.485,96.69208,285.65388Z"/><path class="b" d="M119.12369,349.50147c.8933-.58445,1.30439-.85346,1.82959-1.19711C120.80379,349.54965,120.80379,349.54965,119.12369,349.50147Z"/><path class="b" d="M125.96249,346.06481c.51762.00152,1.03525.003,1.753.00525-.24005.4377-.35335.78473-.43966.77817a11.33079,11.33079,0,0,1-1.37413-.25243Z"/><path class="b" d="M95.37024,282.62234q.424.56273.84791,1.12555l-.45175.37849q-.49826-.52317-.99641-1.04644Q95.07012,282.85107,95.37024,282.62234Z"/><path class="b" d="M153.13707,355.85321c-.84548-.11752-1.34348-.18676-1.89513-.26343.134-.33257.149-.5248.24355-.57949C152.06817,354.67332,152.60267,354.60711,153.13707,355.85321Z"/><path class="b" d="M145.31671,282.68518c-.41053-.24111-.821-.48226-1.42807-.83885,1.07663-.67626,1.42851-.18718,1.751.3773Z"/><path class="b" d="M149.44092,355.56513c-.0154-.31366-.09734-.66-.0222-.69825a2.882,2.882,0,0,1,.79862-.17059q.06388.37233.128.74454C150.06937,355.47878,149.7935,355.51663,149.44092,355.56513Z"/><path class="b" d="M163.65009,351.26557c-1.22624-.05252-1.478-.382-.99589-1.47906C163.0182,350.32706,163.2494,350.67052,163.65009,351.26557Z"/><path class="b" d="M73.38649,306.984a13.52722,13.52722,0,0,1,2.05754-1.67981,1.35231,1.35231,0,0,1,1.24451.31514,1.22593,1.22593,0,0,1-.90255,1.998A11.80571,11.80571,0,0,1,73.38649,306.984Z"/><path class="b" d="M75.3118,313.96262q.28143-.6546.56293-1.3093l.39086.12706q-.19136.67643-.3826,1.35264Z"/><path class="b" d="M18.76487,119.35944a102.63,102.63,0,0,1,1.4794-17.71241A119.22512,119.22512,0,0,1,32.71095,64.43752,121.173,121.173,0,0,1,101.66748,6.14734a116.77135,116.77135,0,0,1,19.1877-4.65187A109.12785,109.12785,0,0,1,147.81847.40985,145.90551,145.90551,0,0,1,163.16608,2.413a142.14929,142.14929,0,0,1,16.39773,4.47968,114.7455,114.7455,0,0,1,32.18959,17.061A121.259,121.259,0,0,1,253.27445,79.7721a116.72682,116.72682,0,0,1,5.50141,21.11537,121.82265,121.82265,0,0,1-2.33944,50.88624,53.671,53.671,0,0,0-1.80805,9.02022,13.85251,13.85251,0,0,1-2.08448,6.08228,2.24838,2.24838,0,0,1-.5882.78221c-1.61379.96274-2.08719,2.66992-2.80633,4.20991a121.44047,121.44047,0,0,1-57.68286,58.1182,118.04788,118.04788,0,0,1-22.27539,8.02973,121.01194,121.01194,0,0,1-114.9069-31.59533,120.27828,120.27828,0,0,1-32.87864-60.29976A121.5059,121.5059,0,0,1,18.76487,119.35944Zm70.2787-31.174a2.96939,2.96939,0,0,0,.42,2.85,5.78077,5.78077,0,0,1,.87787,2.51253c.10023,1.03178-.63406,1.362-1.47747.77986a8.468,8.468,0,0,1-3.29254-4.00439,9.29172,9.29172,0,0,0-1.53991-2.03764c-.346-.45015-.981-.92434-.96215-1.36534.07518-1.75757-.62964-3.21978-1.14039-4.83231a18.78163,18.78163,0,0,0-3.30043-6.11024,14.6121,14.6121,0,0,1-3.01195-7.99916c-.2648-2.96335.611-5.70559,1.4889-8.47927a39.342,39.342,0,0,0,1.2-5.65229c.06642-.41437-.43218-.91048-.64447-1.38071a5.18465,5.18465,0,0,1-.6055-1.5436,19.32067,19.32067,0,0,1,.15442-2.1881,4.65443,4.65443,0,0,0-.20142-1.0345c-.44066.386-.5148.85268-.78153,1.14137a1.99524,1.99524,0,0,1-1.213.73357c-.34569-.00441-.77522-.49347-.99855-.86869a2.5409,2.5409,0,0,1-.18246-1.17664c-.03582-1.31835.04055-2.64541-.08368-3.95418-.13707-1.4442-.86475-1.95335-2.15073-1.58171A20.49,20.49,0,0,0,62.03913,47.345a4.36267,4.36267,0,0,1-.96287.70705c-1.60665.94837-3.22741,1.87281-4.83514,2.81937-1.51466.89176-2.9767,1.88607-4.5455,2.66741-.84745.42207-1.74392.61737-2.06706,1.67675a1.21925,1.21925,0,0,1-.71291.643,2.056,2.056,0,0,1-1.32731.13974,1.1829,1.1829,0,0,1-.44375-1.08718,2.41219,2.41219,0,0,1,1.03822-1.131,3.18986,3.18986,0,0,1,1.28027-.10645,9.75387,9.75387,0,0,1,1.75271-2.32435c1.40219-1.42719,3.18175-2.61993,4.16435-4.28726a26.23542,26.23542,0,0,1,3.87676-5.2714c.57878-.58537,1.11541-1.21242,1.6746-1.82412-1.21753-.96791-1.356-1.4937-.38054-2.51424.87155-.91181,1.99345-1.57885,2.94873-2.41783.816-.71665,1.87-1.3901,2.26116-2.31775A12.66175,12.66175,0,0,1,70.323,27.3461c2.11254-1.51592,4.3057-2.93346,6.99106-3.25464,1.491-.17834,2.98741-.32327,4.47086-.5516,3.2219-.49591,6.4263-1.1215,9.65885-1.52655,2.06608-.25889,4.17-.21285,6.25639-.314,1.212-.05875,1.39816-.337.99292-1.58542a14.4684,14.4684,0,0,1-2.34494.80748,1.78615,1.78615,0,0,1-1.453-.40674,1.7103,1.7103,0,0,1-.10443-1.48475A4.6665,4.6665,0,0,1,97.919,16.31824c.353-.102.845-.32345.93959-.60286a18.8041,18.8041,0,0,0,.5058-2.50252c-.381.11117-.71806.19791-1.04753.30749-2.596.86341-5.17613,1.77893-7.793,2.57343-1.00567.30534-2.08743.29965-2.75452,1.33431a2.46162,2.46162,0,0,1-1.01057.63828,50.56328,50.56328,0,0,1-11.08427,3.81625,6.39593,6.39593,0,0,1-1.8437-.22706l1.16059-1.42944c-4.98524,1.795-24.84586,19.14371-26.28962,22.99975a5.32067,5.32067,0,0,1,1.20209-.25242,8.70409,8.70409,0,0,1,2.63791.29269,1.71254,1.71254,0,0,1,.63436,1.50842c-.35333,1.65477-3.08373,2.68508-4.55113,1.82274a3.13549,3.13549,0,0,0-3.58792.68018A121.10617,121.10617,0,0,0,34.02921,64.0829c-.35279.64245-.639,1.32144-1.04115,2.16093.486-.138.73137-.29748.90113-.23867.46485.161,1.13533.30729,1.291.654.27249.60674.51882,1.78208.24993,1.97123-.82389.57957-.59574,1.26668-.72126,1.99721a11.79055,11.79055,0,0,1-.95914,2.6109,5.151,5.151,0,0,1-.6868.93858l.39939.00266a14.39375,14.39375,0,0,1,.66944,2.85887,16.07144,16.07144,0,0,1-.36907,3.58595,20.89472,20.89472,0,0,1-3.35806,8.046c-.23527.33716-.79927.73324-1.1.658-.32248-.08065-.57132-.66091-.74819-1.06833-.23768-.54744-.37556-1.13821-.64671-1.99668a5.56475,5.56475,0,0,0-.63751,1.073,24.95923,24.95923,0,0,0-.75662,9.14773,6.2003,6.2003,0,0,0,1.06808,2.45342,3.90516,3.90516,0,0,1,.54609,3.23718,1.48993,1.48993,0,0,1-1.81907,1.32253,1.44,1.44,0,0,0-1.821,1.28827,31.21349,31.21349,0,0,0-.73791,4.31629c-.21386,3.65991-.283,7.32816-.428,10.99235a4.624,4.624,0,0,1-.24758,1.6129,1.38791,1.38791,0,0,1-.94013.7294,1.42441,1.42441,0,0,1-1.07347-.511,2.7402,2.7402,0,0,1-.47252-1.31543c-.23372-1.88061-.41353-3.76793-.61317-5.65277l-.08564-.00858v8.71065c1.23892-.76866,1.73786-.6121,2.03114.68094.36391,1.60449.6163,3.235.89248,4.85847.29449,1.73107.56052,3.467.839,5.20077.55755-1.79644.861-3.5549,1.38445-5.24523a23.94042,23.94042,0,0,1,1.7229-4.02305c.46-.87414,1.09016-.78379,1.44719.122a7.41187,7.41187,0,0,1,.34975,1.48076c.27451,1.62126.46162,3.26071.81424,4.86417a1.91659,1.91659,0,0,0,2.30214,1.55764,11.44971,11.44971,0,0,1,1.75415-.102c.76109.04054,1.479.26836,1.68295,1.13623a1.57592,1.57592,0,0,1-.94339,1.80033c-.30194.17707-.60839.34645-.93694.53305,2.19194,2.36969,2.33339,2.79335,1.2931,3.886l-1.37661-1.22927-.25329.15323c.37084,2.05144,2.03117,3.99321.66842,6.29692l-1.16608-1.5825a4.29779,4.29779,0,0,1-1.355.65448c-.68675.04063-1.15007.34244-1.068.94129.05052.36844.55979.79539.96158.972,1.32626.583,3.022.59967,3.30616,2.51384a16.33793,16.33793,0,0,1,1.96716-1.25354,1.56745,1.56745,0,0,1,1.30533-.04834c.2685.19867.32192.834.28559,1.2617-.04553.536-.32775,1.04768-.42085,1.58493-.17962,1.03661-.87947,1.35137-1.79979,1.43478a1.79644,1.79644,0,0,1-2.018-1.50993c-.31484.33057-.537.56813-.76385.80111a1,1,0,0,1-1.60809.01c-1.78878-1.61435-3.64919-3.15-5.42114-4.782a14.41127,14.41127,0,0,1-2.23884-2.53446,2.04753,2.04753,0,0,1,1.12967-3.25623,7.27105,7.27105,0,0,0,.70628-.346l-.93437-1.19841c-.49023.34808-1.15369,1.03172-1.34986.9169a3.31716,3.31716,0,0,1-1.15509-1.46362,9.58446,9.58446,0,0,1-.4938-1.90226c-.205-.89359-.39668-1.79023-.59407-2.68557l-.396.17984c4.02978,31.745,18.1247,58.13872,42.72317,78.75348,30.25683,25.35675,68.17979,31.18928,96.60941,25.6265-1.69328.10411-3.38045.3216-5.07422.4058-4.94128.24558-9.884.57438-14.82838.61821a105.07954,105.07954,0,0,1-20.52944-2.12534c-1.93577-.36747-3.83709-.93263-5.73279-1.48114-.37828-.10946-.97429-.648-.92154-.82815a1.78183,1.78183,0,0,1,.91217-1.07571,18.16914,18.16914,0,0,1,8.28918-1.22906c2.73345.2877,5.477.49173,8.22038.66371a3.18166,3.18166,0,0,0,1.89465-.35138,3.93147,3.93147,0,0,1,3.76243-.25791c2.65038.82578,5.26854,1.9059,8.14078,1.49774,1.22986-.17473,2.44755-.44,3.66648-.68544.97717-.19675,1.81521-.22017,2.20586.987a1.162,1.162,0,0,0,.96678.48447c1.41824-.12624,2.82781-.35213,4.2392-.55135.29435-.04156.58311-.12267,1.1801-.25149-1.229-.90967-2.20376-1.63115-3.193-2.3633a7.0041,7.0041,0,0,1,6.37494-1.32148,7.28441,7.28441,0,0,0,2.38463.71439,45.81535,45.81535,0,0,0,13.31033-1.175c3.058-.71538,6.081-1.57909,9.1268-2.348,1.907-.48141,3.84187-.85788,5.73537-1.38508.87113-.24255,1.65784-.77279,2.50945-1.10419,1.83616-.71453,2.65632-.52339,3.71212.7827,6.76944-1.90077,26.367-17.78865,35.80694-29.14287A108.67355,108.67355,0,0,0,247.62377,172.351a.81395.81395,0,0,0-.49012.37176c-.70094,1.20139-1.36117,2.4276-2.09394,3.60895a15.27114,15.27114,0,0,1-1.51043,2.01565,1.009,1.009,0,0,1-.86011.22758c-.16254-.04311-.29754-.47462-.30855-.73765a5.53168,5.53168,0,0,1,.14088-1.19682c.23477-1.29672.55643-2.58219.713-3.88779.6456-5.38493,1.142-10.78991,1.90075-16.15819a39.35908,39.35908,0,0,1,1.88546-7.75336,10.53131,10.53131,0,0,0,.44871-5.4668c-.43313-2.70723-.79239-5.435-.98692-8.168a22.68905,22.68905,0,0,1,.38562-4.15187c.12076-1.03654-.21336-1.58235-1.3504-1.61446a2.20492,2.20492,0,0,1-2.25056-1.59c-.35888-1.12823-.90778-1.3663-1.98482-.86564-.5294.24607-1.01663.58252-1.52443.87544a7.366,7.366,0,0,1-4.4876,1.14468,8.0795,8.0795,0,0,0-2.89811.37389,5.24688,5.24688,0,0,1-4.51153-.64737,14.16959,14.16959,0,0,1-4.77147-5.63063,8.08444,8.08444,0,0,0-2.217-3.02843,2.931,2.931,0,0,1-1.56992-2.52723c-.07139-2.856-.09765-5.71462-.05526-8.57092a8.24458,8.24458,0,0,1,.54537-2.09837,16.28544,16.28544,0,0,0,.57588-1.81333,44.51879,44.51879,0,0,1,.87821-5.49326c.81756-2.6824,1.93907-5.27489,3.001-7.87719a1.80759,1.80759,0,0,1,1.06923-.94249,10.29227,10.29227,0,0,0,5.12149-3.24241,3.05346,3.05346,0,0,0,.61639-2.641c-.67573-1.52322-.80888-1.78386.53864-2.72044a6.137,6.137,0,0,1-.46438-1.55116c-.0334-1.169-.65586-1.46956-1.69126-1.48937-1.626-.03111-2.07147-.5807-1.89468-2.18094q.5306-4.80306,1.06941-9.6052c.21969-1.93726,1.03-2.46988,2.91281-1.99137a1.10861,1.10861,0,0,0,.85195-.13056c.616-.49512,1.16708-1.07089,1.81231-1.68059a7.71755,7.71755,0,0,0-.41214-.79045c-.86751-1.31376-1.77074-2.60434-2.6199-3.92969-.81738-1.27573-.78115-1.38677.17512-2.15271l-1.131-3.39692a7.97708,7.97708,0,0,1-2.54319.06642c-1.465-.4685-2.26674-3.96848-.71577-4.99609a1.61622,1.61622,0,0,0,.75468-1.96632c-.19511-.76624.20922-1.16932,1.05636-1.05672a8.18446,8.18446,0,0,0,1.15.00941l.40771-2.76369a120.03219,120.03219,0,0,0-62.77-38.21336c.08382,1.67947-.60039,2.39789-2.11593,2.396-.73066-.00089-1.46-.13881-2.19193-.16955-5.74533-.24132-11.49078-.48134-17.23745-.68708a5.09779,5.09779,0,0,0-1.38471.35122l-.01578.42616a9.5598,9.5598,0,0,0,1.10043.319,8.30709,8.30709,0,0,1,2.2564.34426c3.07034,1.53832,6.17717,3.03884,9.09344,4.84025,3.202,1.97794,6.24166,4.2268,9.28111,6.45442a8.305,8.305,0,0,1,1.96651,2.31984c.93931,1.4987.72892,2.09657-.93,2.72784a3.21751,3.21751,0,0,0-2.13378,2.43444,10.79512,10.79512,0,0,0,.37786,5.30681c.37952,1.48615.82042,2.9661,1.05582,4.47658.18967,1.21709-.39534,1.71205-1.54529,1.28229a17.30455,17.30455,0,0,1-4.0122-1.98057c-2.32073-1.65754-4.48775-3.52922-6.73507-5.291-1.3528-1.06054-2.47883-2.6139-4.92468-1.95822a2.35644,2.35644,0,0,0-.35075-3.14307,3.78178,3.78178,0,0,1-1.15745-2.98221c.0231-.20166-.32671-.5872-.56881-.65417a4.54011,4.54011,0,0,1-2.58192-2.08669,2.49461,2.49461,0,0,0-.7845-.74391c-1.25441-.74082-2.52744-1.45064-3.80229-2.15616a3.53364,3.53364,0,0,0-3.61338.39955c.11874.12715.23528.25523.35529.38,2.07655,2.15834,4.22007,4.25793,6.19306,6.5071a6.0302,6.0302,0,0,1,1.25942,2.85047c.32111,1.86415.3773,3.77393.53559,5.572.88453.64574,1.92818,1.30135,2.846,2.10135,1.57427,1.37222,3.0367,2.873,4.61457,4.24072a14.59675,14.59675,0,0,0,2.22354,1.37111,16.01468,16.01468,0,0,1,2.93776,1.76008,36.9497,36.9497,0,0,1,2.955,3.53172c.58271.70331,1.18345,1.39188,1.78775,2.07677.05445.06172.19465.04777.30071.07015l.32737-.87874c2.65645.73129,5.05389,5.42579,3.84811,7.656L165.31869,52.621l-.62718,1.2072c-.40652-.50121-.73982-.90976-1.0705-1.3204a2.31047,2.31047,0,0,0-2.49111-.7334c-.51152.12711-1.24872.67535-1.29754,1.10123-.194,1.69274-1.31909,2.20932-2.69072,2.63286a3.37525,3.37525,0,0,0-1.65538.948,2.17061,2.17061,0,0,1-1.991.89638c-1.50227-.05246-3.00511-.10236-4.50544-.19185a1.41943,1.41943,0,0,0-1.58607,1.16152,27.52374,27.52374,0,0,1-1.41144,3.19136c-.71579,1.43237-1.58148,2.79633-2.20766,4.26436-.34086.79913-.56314,1.49126-1.7429,1.3109a17.49736,17.49736,0,0,1,.84224,1.83029c.57176,1.7709-.415,3.0262-1.51394,4.20075a37.31535,37.31535,0,0,0-3.263,3.40409c-1.47181,2.04523-2.11412,4.05574.003,5.95529a7.63849,7.63849,0,0,1,2.12241,5.17205,2.09684,2.09684,0,0,1-.72711,1.65993c-.36266.24327-1.16767.00329-1.69138-.22158a2.95039,2.95039,0,0,1-1.23752-1.04518c-.99686-1.52813-1.81852-3.17794-2.89254-4.64554a5.6257,5.6257,0,0,0-2.485-2.1562,31.03757,31.03757,0,0,0-5.7252-.88949,1.26826,1.26826,0,0,0-1.54274.92277c-.27274,1.09823-1.06728,1.28285-2.10361,1.30279a8.17124,8.17124,0,0,0-3.17359.5339,25.93834,25.93834,0,0,0-4.72059,2.75508c-2.04284,1.52549-3.60049,3.4505-3.6297,6.21369a13.32,13.32,0,0,0,2.95672,8.21617,2.77117,2.77117,0,0,0,1.741,1.01494c3.099.29578,6.10628-.01261,6.90577-3.40417a1.89248,1.89248,0,0,1,.43605-.8787c.4-.40033.8409-.93219,1.33873-1.0291a29.05465,29.05465,0,0,1,4.1372-.45556,1.32119,1.32119,0,0,1,1.48285,1.514,7.33753,7.33753,0,0,1-.33455,1.92155c-.77326,2.46293-1.59264,4.91136-2.45412,7.546.85348,0,1.35785.007,1.862-.00125a50.65525,50.65525,0,0,1,5.25774-.05458c1.82407.16124,2.56477,1.18074,2.75036,2.98529.24674,2.39922.411,4.82251.89339,7.17753.47719,2.32943,2.14108,3.1548,4.28907,2.14916a5.55968,5.55968,0,0,1,5.53418.26855,1.78434,1.78434,0,0,0,2.47183-.38622c2.36713-2.8038,5.66252-3.7721,9.023-4.63214.81415-.20837,1.51593-.23425,1.67739.48437a12.91246,12.91246,0,0,1,2.14417.25571c1.79626.54284,3.477,1.60518,5.48433,1.11643.03743-.0091.10157.0915.15227.14195-.0264,1.59479.04586,1.68292,1.70113,2.08167.24957.06012.49917.12028.74732.18589.70135.18545,1.139.15415,1.25213-.79106a1.7942,1.7942,0,0,1,2.28693-1.49386c-.2882,1.6382-.1,1.85244,1.69149,1.91015.36643.0118.73345.0049,1.10007.01209,1.42567.02792,1.70484.34821,2.23805,1.63434a9.23778,9.23778,0,0,0,1.6867,2.75644,23.7584,23.7584,0,0,0,10.66483,6.252c2.8542.8911,5.10439,2.708,5.61992,5.99547a2.93631,2.93631,0,0,0,.65254,1.35064,1.77771,1.77771,0,0,1,.17966,2.31359,3.06655,3.06655,0,0,0-.23353.54546c1.85691.84668,3.6505,1.642,5.42449,2.47884a58.96793,58.96793,0,0,0,7.15046,3.34477,19.393,19.393,0,0,1,6.86292,3.48642,2.72158,2.72158,0,0,0,1.55423.35654c1.082.03539,1.63511.43627,1.76119,1.51677a10.36283,10.36283,0,0,1,.04388,1.86586c-.15851,2.42923-1.51024,4.31532-2.90224,6.1639-2.79137,3.70688-5.6269,7.29675-7.18461,11.84835a17.16092,17.16092,0,0,1-9.90739,10.5975,3.06411,3.06411,0,0,0-1.7709,1.82154,4.45619,4.45619,0,0,1-1.37989,1.79839,81.396,81.396,0,0,0-9.41073,9.053,44.90093,44.90093,0,0,1-6.37555,5.17279,5.25276,5.25276,0,0,1-2.58307.732c-1.515.12365-1.47684.04818-1.65133,1.595a5.49006,5.49006,0,0,1-2.96171,4.48652,37.44479,37.44479,0,0,0-10.288,8.29268,1.60148,1.60148,0,0,0-.28989,1.36939,1.823,1.823,0,0,1-.42444,2.01659,16.80064,16.80064,0,0,1-1.32431,1.316c-1.63478,1.50529-1.63478,1.49769-.01991,2.94729a6.714,6.714,0,0,1,.91254.946c.69929.93613.39144,1.84985-.758,2.03784a9.984,9.984,0,0,1-8.535-2.20276c-1.76024-1.53706-3.13271-3.37675-1.91891-5.97561.07484-.16019-.18381-.55257-.3793-.742a4.45211,4.45211,0,0,0-.9504-.52067c1.71033-1.41874,1.99468-3.31322,2.359-5.19024.523-2.69481,1.08436-5.38245,1.65448-8.06781s1.31884-5.34168,1.72678-8.05027c.769-5.10559,1.32341-10.24309,2.01754-15.36049a7.546,7.546,0,0,0-3.3456-7.703c-1.4662-1.03446-2.99522-1.97959-4.49087-2.97262a6.4511,6.4511,0,0,1-2.63035-3.26928,56.11073,56.11073,0,0,0-6.40435-12.96856c-2.57986-3.7321-2.51059-7.58049-1.10869-11.62163a16.67927,16.67927,0,0,1,4.76357-6.8859,5.63079,5.63079,0,0,0,1.85761-4.72229,11.47651,11.47651,0,0,0-2.08667-6.02684.95934.95934,0,0,0-.68505-.42554.86834.86834,0,0,0-.55092.564,1.41191,1.41191,0,0,1-1.57321,1.08536,10.86359,10.86359,0,0,1-6.6905-2.09263c-.63741-.476-1.41781-.76754-2.02836-1.2703a6.18633,6.18633,0,0,1-1.23475-1.53146,15.36836,15.36836,0,0,0-.93009-1.83609,11.50257,11.50257,0,0,0-5.32687-3.54144,22.73013,22.73013,0,0,1-7.15565-3.25954,10.69909,10.69909,0,0,0-5.827-2.01718,24.64758,24.64758,0,0,1-8.00131-1.80477c-1.3589-.61437-2.77324-1.24749-3.04575-3.02719-.03039-.19853-.45723-.42848-.73135-.48081-.93452-.17845-1.88614-.265-2.82519-.42267a2.3929,2.3929,0,0,1-2.17253-1.42821,2.16751,2.16751,0,0,1,.8131-2.349,6.952,6.952,0,0,0,.515-.57971Zm6.66686-68.55593.23477.385c.68539-.27213,1.37851-.52653,2.05406-.82122.7189-.3136,1.37813-.38479,1.76921.44453a2.01744,2.01744,0,0,1-1.6386,3.06869c-.43134.06388-.87781.01747-1.31544.04843-2.37234.16784-4.7565.24558-7.113.54208-3.01365.37919-5.9907,1.08-9.0096,1.37838-3.1129.30774-6.09238.85715-8.68867,2.70574-2.09127,1.489-4.09728,3.00756-5.20838,5.50811a10.102,10.102,0,0,1-2.50666,2.82235c-.5767.54558-1.35512.87154-1.98956,1.36482a8.9533,8.9533,0,0,0-1.04092,1.12454l1.56588.70463a9.42881,9.42881,0,0,1-.91424,1.55249c-.939,1.07652-2.01182,2.03908-2.92039,3.1387-.83107,1.00585-1.51621,2.13211-2.268,3.20368-.6855.97708-1.33162,1.986-2.077,2.91524a16.64375,16.64375,0,0,1-1.68967,1.596c.24877.06292.33651.1161.379.09142,2.56159-1.48985,5.1232-2.9798,7.6723-4.49083a4.36012,4.36012,0,0,0,.71169-.68273,20.88429,20.88429,0,0,1,9.76348-5.21229c2.03006-.50075,3.10029.37151,3.249,2.44208.08379,1.16673.00352,2.34441.042,3.51569a7.60174,7.60174,0,0,0,.24511,1.24666l.32522-.00925c.16621-.42893.30848-.86912.50364-1.28445a1.01047,1.01047,0,0,1,1.82335-.264,3.02659,3.02659,0,0,1,.54658,1.5006c.064.79751-.07554,1.60923-.07331,2.41478.001.34375.02348.83951.23805,1.00584,1.35283,1.04877,1.20568,2.45921.8856,3.81313-.47852,2.0241-1.06943,4.02726-1.71995,6.004-1.72453,5.24039-1.22028,10.0898,2.29561,14.5,1.348,1.69093,2.68535,3.4116,2.87024,5.70608a1.11929,1.11929,0,0,0,.32044.68256c1.12884,1.01989,1.04692,2.31366.977,3.66117a1.79579,1.79579,0,0,0,.55107,1.40656,5.48737,5.48737,0,0,1,2.16662,3.05462,4.2757,4.2757,0,0,0,2.42053,2.56313,2.19841,2.19841,0,0,0-.38938-1.23086,3.45892,3.45892,0,0,1-.911-2.825,1.22712,1.22712,0,0,0-.33719-.94777c-1.77755-1.6019-2.59869-3.78039-3.57844-5.85806-.11714-.24841.06955-.64009.1154-.96536a5.02577,5.02577,0,0,1,.84183.31787,2.01712,2.01712,0,0,1,.43693.48864c3.21807,3.85361,6.385,7.75181,9.68558,11.53341a17.43606,17.43606,0,0,0,3.41761,2.66485c.59648.40751.633.76289.22092,1.23334-.38524.43975-.83909.81858-1.24607,1.24031-.95455.98916-.78393,1.63988.54738,2.01011a10.95143,10.95143,0,0,0,1.30309.18666,21.83643,21.83643,0,0,1,2.48927.41533c.36653.0998.92231.49654.92825.76872.04065,1.86108,1.42134,2.44068,2.78378,2.78918,2.6837.68645,5.4121,1.21311,8.14,1.7067a14.27066,14.27066,0,0,1,5.12108,1.82585,55.522,55.522,0,0,0,5.23746,2.69693c1.872.89869,3.8661,1.578,5.64244,2.63057a6.35709,6.35709,0,0,1,3.24859,4.11812,1.72515,1.72515,0,0,0,.6987.90876c.86348.60475,1.78181,1.13056,2.66854,1.70292a9.20735,9.20735,0,0,0,5.28809,1.54791c.33223-.0076.67118-.38691.97924-.62979.4509-.35553.85046-.999,1.32031-1.04707a2.01933,2.01933,0,0,1,1.56427.7256,12.48077,12.48077,0,0,1,2.40718,7.04321,6.68355,6.68355,0,0,1-2.09166,5.11189,20.24157,20.24157,0,0,0-3.182,3.7538c-2.68863,4.58752-3.3888,9.13224-.19145,14.01307a67.40143,67.40143,0,0,1,5.54729,11.06475,9.87086,9.87086,0,0,0,4.54992,5.48985,29.42824,29.42824,0,0,1,2.58243,1.67124c3.43164,2.25848,4.72869,5.624,4.03247,9.69245-.6544,3.82416-1.06525,7.68995-1.58524,11.53716-.24027,1.77771-.39363,3.57335-.7487,5.328-.59512,2.94084-1.31379,5.85685-1.99225,8.78058-.71038,3.06123-1.43764,6.11853-2.1456,9.18033-.04427.19145-.06453.52014.03931.59347.8771.61936.45814,1.282.08484,1.91911a3.09488,3.09488,0,0,0,.41572,3.66227,8.36032,8.36032,0,0,0,5.76928,3.26539,18.48709,18.48709,0,0,0,3.096.02907l.18688-.42931q-.90881-.87663-1.81789-1.7529c-.92812-.89052-.98312-1.619-.09909-2.55538.653-.69163,1.42056-1.27684,2.05514-1.98308.25283-.28134.51539-.90266.378-1.12574a1.84,1.84,0,0,1,.45736-2.38786,37.47106,37.47106,0,0,1,10.20328-8.4232,5.31065,5.31065,0,0,0,3.03537-4.69184c.08718-1.41107.40943-1.79915,1.81547-1.68914a5.47923,5.47923,0,0,0,3.497-1.03554,41.75137,41.75137,0,0,0,7.50091-6.73254c1.96558-2.0597,4.10574-3.9554,6.20624-5.88271,1.07628-.98753,2.2798-1.8171,2.74612-3.33891.14013-.45728.6898-.84545,1.1349-1.13972a18.93435,18.93435,0,0,1,2.12346-1.14907c4.3194-2.11936,6.67835-5.8491,8.4461-10.11435a35.58284,35.58284,0,0,1,2.76112-5.69039c1.72227-2.67438,3.77017-5.13671,5.58608-7.7541a6.57641,6.57641,0,0,0,1.28857-4.6669c-.04725-.35439-.43793-.95913-.64736-.9495-1.8676.0859-2.96985-1.26179-4.33408-2.13891a14.93,14.93,0,0,0-2.51826-1.26062c-.80928-.3245-1.72111-.411-2.50419-.77987-2.94678-1.38777-5.84815-2.87171-8.79-4.27028-1.30616-.621-2.61538-1.409-4.17317-.68594a.6982.6982,0,0,1-.65722-.1748,1.04194,1.04194,0,0,1,.03411-.80565,15.844,15.844,0,0,0,.95938-1.59356,2.31536,2.31536,0,0,0-.008-1.39644c-.2667-.85848-.66316-1.67659-1.005-2.5118a6.96367,6.96367,0,0,0-.67051-1.58748,8.20975,8.20975,0,0,0-4.34111-3.02745,22.32892,22.32892,0,0,1-8.0392-3.92308c-1.95556-1.57237-4.07705-3.03306-4.76264-5.71315a1.5498,1.5498,0,0,0-1.10174-.81822c-1.25178-.18812-2.527-.22038-3.52422-.29358-.628.34969-1.12562.874-1.54336.81663-1.80988-.24853-3.805-.16876-4.966-2.04149a.67976.67976,0,0,0-.345-.25572c-1.4574-.47912-2.91349-.964-4.38405-1.39967a1.22045,1.22045,0,0,0-.91187.09471c-1.72174,1.15464-1.84632,1.13765-2.677-.6795-3.04745.61576-5.89468,1.59489-8.08666,4.00982-1.30043,1.43271-2.22144,1.64636-3.69221.80948a5.23037,5.23037,0,0,0-5.01878-.2181c-2.52483,1.07852-4.68678.05685-5.36141-2.60063a32.68472,32.68472,0,0,1-.83887-5.84275c-.24756-3.70372-.65219-4.1304-4.37119-3.95955-1.57372.07228-3.1496.197-4.7219.16586-1.08189-.02139-1.2897-.56729-.82125-1.54056a9.43228,9.43228,0,0,0,.60885-1.72521c.23493-.90832.33788-1.85521.62469-2.7445.3474-1.07718.86549-2.09822,1.24187-3.16743.53183-1.51076.171-1.96266-1.40864-1.87592-1.97931.10867-3.72827.4629-4.32892,2.81338-.45021,1.76188-1.91608,2.50146-3.57883,2.857-.68018.14546-1.37351.23911-2.06514.31956a4.51671,4.51671,0,0,1-4.83411-2.321,24.31234,24.31234,0,0,1-2.21138-4.88,8.436,8.436,0,0,1,.52439-6.70882,15.0811,15.0811,0,0,1,6.48873-5.72988,8.57537,8.57537,0,0,1,5.34523-1.36231,1.10039,1.10039,0,0,0,.87589-.59562,2.25647,2.25647,0,0,1,2.49469-1.56055,39.77278,39.77278,0,0,1,4.03622.39022,6.34312,6.34312,0,0,1,5.45822,3.69213,14.11359,14.11359,0,0,0,1.1193,2.13881,25.41347,25.41347,0,0,0,2.06941,2.53058c.17715.1952.57521.18994.8717.27687a2.89758,2.89758,0,0,0,.21712-1.00785,8.03844,8.03844,0,0,0-2.37321-4.83554,2.78109,2.78109,0,0,1-.98495-2.77194,13.40059,13.40059,0,0,1,1.61922-3.98706,22.46037,22.46037,0,0,1,3.1092-3.24033c1.72437-1.70437,1.85648-2.42508.74353-4.52771-.39391-.7442-.82859-1.4668-1.22488-2.20981-.17616-.33027-.30332-.68668-.45271-1.03122l.2652-.30471c.61409.31507,1.24874.59644,1.83642.95483.56931.34718.9006.294,1.1938-.35221.43613-.96131.95435-1.88575,1.44621-2.82137a30.56987,30.56987,0,0,0,2.00921-3.8793c.705-1.99846,1.11686-2.38268,3.2358-2.193,1.24.111,2.48524.20622,3.72917.2215a2.24431,2.24431,0,0,0,2.03189-3.029,22.05859,22.05859,0,0,1-1.0791-3.55464c-.14631-.71807-.41087-.90063-1.0816-.84605-1.31367.1069-2.63277.21491-3.9484.20163-.69553-.007-1.551-.02141-1.76568-.96712-.13885-.61173.80937-1.66957,1.6681-1.80547a2.4697,2.4697,0,0,1,1.38342.15235,24.70205,24.70205,0,0,1,2.85006,1.63456c.54951.36326.85787.37138,1.2264-.2244a17.24492,17.24492,0,0,1,1.44464-1.72744c.119,1.85727.761,2.46006,2.30058,2.00713.67362-.19816,1.056.44318.85123,1.15038a11.82966,11.82966,0,0,1-.6738,1.61988c-.47651,1.0354-.96993,2.063-1.50113,3.18879,1.08984.10741,1.53623-.34451,1.71045-1.17115a2.50411,2.50411,0,0,1,3.01565-2.30258,18.41,18.41,0,0,1,2.54826.56279l.48869-.76722.88792.37714a6.97563,6.97563,0,0,0-1.08724-2.05973c-.11-.15293-.39148-.33633-.52724-.29353-1.63178.51448-2.43753-.66059-3.27929-1.63618-.88375-1.0243-1.56608-2.22984-2.49373-3.20683a11.74506,11.74506,0,0,0-3.45024-2.94486,12.00218,12.00218,0,0,1-3.61975-2.15682c-1.42158-1.32386-2.82181-2.67135-4.26738-3.96837-.602-.5401-1.29715-.97628-1.952-1.46124-1.43356,2.07774-1.85166,2.16509-3.929.97472-.34954-.2003-.696-.40768-1.03162-.63029-2.86214-1.89852-5.73018-3.73958-9.43647-3.24466-.36782.04911-.87478-.40014-1.203-.73123a12.55108,12.55108,0,0,1-1.15621-1.51585c-.50891-.70153-1.3321-1.36208-1.445-2.12532a26.99988,26.99988,0,0,1-.09552-5.00427c.01069-.26636.62645-.69964.98263-.72107a7.63017,7.63017,0,0,1,2.22521.2542,1.23254,1.23254,0,0,1,.697.72128c.53849,1.52728.51393,1.49982,2.12755,1.376.45448-.03486,1.20847.07561,1.3311.34461a1.78959,1.78959,0,0,1-.14028,1.52456,19.3702,19.3702,0,0,1-1.88892,1.93784c-.22907.24045-.56253.59906-.51213.83058.05731.26323.459.54233.767.64265.83387.27162,1.73653.35683,2.54169.68711,2.23188.91554,4.41426,1.95136,6.64268,2.8758,1.7892.74223,2.61717.05321,2.35372-1.90474a14.737,14.737,0,0,1-.396-2.25284,4.84138,4.84138,0,0,0-1.15953-3.231,25.81978,25.81978,0,0,0-1.93666-2.3912c-2.34491-2.34182-4.38888-5.18228-8.23221-5.18306a3.01242,3.01242,0,0,1-1.2066-.5,8.64926,8.64926,0,0,0-5.337-1.32454c-.41727.06072-1.31343-.50324-1.33153-.81723a23.23436,23.23436,0,0,1,.14656-4.62436c.1228-.853.90682-.84422,1.55021-.35561a5.36268,5.36268,0,0,1,.84955.85506,5.47617,5.47617,0,0,0,3.57881,1.95212c.79854.11353,1.6023.203,2.39269.35907,2.23609.44142,4.76446.2273,6.13654,2.66877.04564.0812.18431.11237.28227.16158,1.78577.897,3.58048,1.77679,5.3511,2.70269a2.51573,2.51573,0,0,1,.96775.85606,3.8302,3.8302,0,0,0,2.51927,1.94831c.75394.16716.949.74005,1.05362,1.47423a7.11484,7.11484,0,0,0,.72655,2.30871,9.26969,9.26969,0,0,0,3.50255,3.7748c1.86229,1.11623,3.33528,2.86072,5.10636,4.156,1.94217,1.42037,4.02436,2.65095,6.06642,3.93088a1.02026,1.02026,0,0,0,.89721.08981c.17134-.12236.16974-.5857.12933-.88311a10.92933,10.92933,0,0,0-.34379-1.38384c-.62635-2.29527-1.35295-4.57592-1.08351-7.00808a4.32659,4.32659,0,0,1,2.0926-3.655c1.77589-.97239,1.82045-1.09451.49643-2.71146a5.32539,5.32539,0,0,0-1.02142-.98094c-2.87042-2.026-5.69439-4.12689-8.65223-6.0177-3.76384-2.406-7.36239-5.22266-12.14732-5.464-.52177-.02632-1.20178-.92231-1.44132-1.55408-.32144-.8478.54772-1.06857,1.17191-1.24391a5.962,5.962,0,0,1,1.51387-.20491,120.58745,120.58745,0,0,1,18.44309.807,7.64166,7.64166,0,0,0,1.38464-.05342l.03434-.31817c-.19505-.12865-.37526-.33183-.58753-.37409-1.61422-.32137-3.22326-.71847-4.8552-.89245a200.55338,200.55338,0,0,0-21.30553-.97693c-9.90121.00116-19.81406-.11345-29.45255,2.71293-4.24718,1.24544-8.52021,2.41958-12.71312,3.82945-6.81965,2.29314-12.9733,5.92381-18.95745,9.85321a9.66819,9.66819,0,0,0-.75992.61242l.16479.306c1.00027-.29829,2.02274-.53788,2.99653-.90618,2.64439-1.00013,5.50989-1.5682,7.55641-3.78247a1.57538,1.57538,0,0,1,.808-.293,29.93853,29.93853,0,0,0,3.4341-.692c3.74828-1.24522,7.46031-2.59918,11.19994-3.87117a9.66037,9.66037,0,0,1,1.835-.25892c-.97632,2.003-3.24049,1.99529-4.58917,3.4818a6.08659,6.08659,0,0,0,.77818.485,8.50452,8.50452,0,0,0,4.35509.90635,1.34107,1.34107,0,0,1,.86123.29947c.08763.06609.01554.4932-.10817.66728a3.04577,3.04577,0,0,1-5.02417.2972c-.44806-.5002-.85931-1.03336-1.28742-1.55142l-.27138-.06211c.1413,1.5495-.74859,1.95136-1.93947,2.25484A3.12946,3.12946,0,0,0,95.71043,19.62949ZM252.41523,85.881l.35176-.20521a18.16855,18.16855,0,0,0-.43858-1.76462,165.09516,165.09516,0,0,0-8.61073-19.707,37.25162,37.25162,0,0,0-2.45048-3.7533c-.46386-.69067-1.01343-1.32942-1.42392-2.0489-.52507-.92032-.88748-1.9351-1.43047-2.8431-.84179-1.40764-1.77695-2.75944-2.67251-4.1349l-.40149.12968c1.93258,2.74687,2.15834,5.37118-.3811,7.88119-.61452-1.12693-1.59544-1.17912-2.78882-1.17516a7.02747,7.02747,0,0,0,.345.74822c.893,1.38446,1.88855,2.71322,2.66193,4.16091a9.49513,9.49513,0,0,1,1.03881,3.18643c.17524,1.35542-.6543,1.84607-1.952,1.31585-.982-.40124-1.93389-.87679-2.91992-1.2669-1.261-.49891-1.619-.22041-1.75129,1.14585q-.4342,4.48488-.93573,8.96315c-.15634,1.38674-.18306,1.38153,1.19861,1.56356.83658.1102,1.69337.18585,2.02563,1.20258.46671,1.42809.48593,1.42155,1.81688.59923a1.08432,1.08432,0,0,1,.37965-.21219c.236-.02547.60934-.07213.68957.04776a.86211.86211,0,0,1,.07446.77332,12.30729,12.30729,0,0,0-.98619,2.69236,41.47829,41.47829,0,0,1-2.45226,4.66371c-1.02784,1.85845-3.11026,2.98168-5.18722,3.67654a1.917,1.917,0,0,0-1.38762,1.46752,18.58665,18.58665,0,0,1-1.09494,3.09387,19.74129,19.74129,0,0,0-2.45394,9.79882,3.96114,3.96114,0,0,1-.36493,1.34093,5.86526,5.86526,0,0,0-.59585,1.57422c-.06226,2.70568-.01866,5.41363-.03633,8.12063a2.08149,2.08149,0,0,0,1.36881,2.33541,2.33038,2.33038,0,0,1,.97052,1.00424c.61233.99743,1.17156,2.02862,1.72472,3.061a11.967,11.967,0,0,0,4.0274,4.56447,4.30464,4.30464,0,0,0,3.78162.47987,7.3358,7.3358,0,0,1,2.89508-.39824,6.59765,6.59765,0,0,0,4.27927-1.03776c.41194-.23909.81095-.50151,1.22977-.72757,1.83467-.99022,2.80609-.58519,3.6854,1.25575a2.45151,2.45151,0,0,0,1.62156,1.02332c1.71216.31442,2.27054.82755,2.00529,2.56167a26.28594,26.28594,0,0,0,.2151,10.0531,16.77581,16.77581,0,0,1-.7521,9.94282c-1.164,3.21122-1.33047,6.80023-1.80518,10.24112-.63069,4.57127-1.137,9.15972-1.68927,13.74169a7.33393,7.33393,0,0,0-.00451.87162,8.41038,8.41038,0,0,0,1.23025-1.648c1.2386-1.85021,2.49622-3.6877,3.74807-5.529a13.39089,13.39089,0,0,0,1.72134-2.58661c1.24849-3.35512,2.41522-6.7448,3.47138-10.16511a32.21846,32.21846,0,0,0,.54326-3.90664c.78036-4.43613,1.68893-8.85164,2.37544-13.30173.47981-3.11.73617-6.25895.98705-9.39892a82.27889,82.27889,0,0,0-.28545-17.67365c-.85409-6.27764-1.93175-12.52532-2.953-18.77934a3.64605,3.64605,0,0,0-2.03535-3.00878c-.04961.85611-.09377,1.61847-.138,2.38084l-.319.10907q-.73607-.91431-1.4721-1.82865c-1.9906-2.47462-2.89852-5.54833-4.53614-8.21948a1.554,1.554,0,0,1-.17188-.84793c.04982-.9636-.45046-1.26875-1.33453-1.32732-1.53547-.10168-3.07394-.22612-4.596-.44615-2.14418-.31-2.98066-1.47269-2.52421-3.52612a7.52,7.52,0,0,1,2.61911-4.2192,1.76141,1.76141,0,0,1,2.79728.20454,13.33542,13.33542,0,0,1,1.74467,2.38835c1.43409,2.54237,2.95044,5.06639,2.98176,8.13655.00166.16374.38977.32354.598.48518a8.12611,8.12611,0,0,0-.1454-1.6322c-.06261-.90742.53236-1.26368,1.34412-.85192a2.15611,2.15611,0,0,1,.86542,3.35582C251.03149,84.655,251.72335,85.268,252.41523,85.881ZM114.42578,235.07555l.03658.315a12.01028,12.01028,0,0,0,1.22447.41074,111.77346,111.77346,0,0,0,18.68566,2.7377,122.41634,122.41634,0,0,0,23.27154-.79392c4.82-.67545,9.68031-1.27682,14.39715-2.42607A102.15077,102.15077,0,0,0,192.935,227.358c.46641-.23.8915-.54376,1.33579-.81856l-.15836-.38117a14.79528,14.79528,0,0,0-2.17771.70771,21.30169,21.30169,0,0,1-7.11081,2.12583,42.76177,42.76177,0,0,0-5.24085,1.13993c-1.06346.26455-2.08721.68576-3.147.9683a52.57459,52.57459,0,0,1-13.60767,1.61335,9.52488,9.52488,0,0,1-3.60261-.80462,4.53638,4.53638,0,0,0-4.278.39833c1.58806,1.17064,3.04483,2.24447,4.61721,3.40356-.33469.14085-.43.21695-.52407.21533-3.11119-.05232-6.22713-.25825-9.293.57467-.25118.06825-.927-.44235-.96027-.73475-.11419-1.00171-.60995-.962-1.36805-.78826a16.31747,16.31747,0,0,1-8.68011.071c-1.18767-.37116-2.3828-.71966-3.56315-1.11265a2.78608,2.78608,0,0,0-2.51068.20491,4.12692,4.12692,0,0,1-2.084.494c-1.83-.02675-3.662-.14787-5.486-.31136-3.17852-.285-6.3538-.66975-9.49019.287C115.20237,234.73349,114.8185,234.919,114.42578,235.07555ZM26.29722,86.58251l-.25644-.13057a4.23266,4.23266,0,0,0-.53114,1.00048c-.91052,4.10445-1.90378,8.19532-2.64468,12.33106a84.58383,84.58383,0,0,0-1.13087,9.49019c-.229,3.57405-.19035,7.1659-.23084,10.75042a3.84492,3.84492,0,0,0,.3704,1.148l.37772-.09526c.0347-.38508.08971-.7696.10037-1.15537.03547-1.28257.00261-2.56922.09064-3.84778.24621-3.57614.47868-7.15522.83842-10.72083.20644-2.04621,1.05813-2.698,3.00709-2.87365.32134-.02895.87134-.4957.85655-.73132a8.999,8.999,0,0,0-.50169-2.25594c-.35332-1.05548-1.09071-2.0706-1.13224-3.12392a58.81215,58.81215,0,0,1,.30263-6.6717C25.89119,88.65219,26.13081,87.62008,26.29722,86.58251Zm1.16093,39.83383c-.26016.27276-.46893.39742-.53369.57468-.45017,1.23222-.89575,2.46726-1.29473,3.71675a16.926,16.926,0,0,0-.57479,6.83877A1.83128,1.83128,0,0,0,26.80449,139.45c1.13541.09444,1.11219-.81854,1.36388-1.50665.36291-.99217.735-1.981,1.13775-3.06417,1.38267,1.10437,4.22111.68377,4.75934-.69617-.64688,0-1.2023-.02779-1.75417.00471-2.69655.15885-3.92063-.865-4.25778-3.55054C27.883,129.27859,27.67235,127.925,27.45815,126.41634ZM33.10532,68.394a47.22742,47.22742,0,0,0-6.03874,16.81968c2.09843-.22516,1.849,1.6071,2.59858,2.506,2.00524-1.9332,4.457-10.20177,2.92432-12.04087-.20172,1.08822-.3998,2.03051-.54748,2.98062a8.10467,8.10467,0,0,1-2.231,4.6659c-.22818.22715-.72761.51265-.87654.41774a1.29984,1.29984,0,0,1-.56593-.94612,12.1915,12.1915,0,0,1,.36106-2.92664,15.744,15.744,0,0,1,3.85828-6.80445A3.613,3.613,0,0,0,33.10532,68.394Zm212.49,10.965.16194-.42663a20.72243,20.72243,0,0,0-3.38682-5.93794,1.07745,1.07745,0,0,0-1.86274.04524,17.876,17.876,0,0,0-1.9484,3.25317c-.33232.75671-.36045,1.85362.734,2.08308C241.37134,78.81169,243.49224,79.04293,245.59533,79.35908ZM234.32919,57.64156l.45212-.15946a16.67221,16.67221,0,0,0-.59077-2.44412c-.98286-2.444-2.08009-4.84208-3.06508-7.28532-.42911-1.06439-1.08435-1.475-1.95323-1.252a8.46838,8.46838,0,0,1-1.261,2.28659,1.91988,1.91988,0,0,0-.55608,2.53166c.21636.44367.65331,1.04154,1.02941,1.07106.3677.02886.88379-.51038,1.158-.91887a17.41941,17.41941,0,0,0,1.04647-2.0675l.31438.06948a20.71106,20.71106,0,0,1,.421,3.42968C231.23435,55.26656,232.86516,56.37259,234.32919,57.64156ZM157.12166,2.40026a115.44654,115.44654,0,0,0-31.94773-.40461Zm-20.36,11.46279c-.78686-.2491-1.3569-.47852-1.94878-.60876-3.17529-.69873-6.78295-.18994-9.10344-3.28866-.0523-.06985-.64043.10521-.64306.17811a16.95751,16.95751,0,0,0,.05388,2.9289c.02887.2078.74006.37956,1.1579.46305,1.02075.20395,2.08176.25115,3.07362.542.90144.26432,1.72107.79667,2.60144,1.14931a1.81245,1.81245,0,0,0,1.14789.14207C134.25843,14.95914,135.37827,14.44327,136.76162,13.86305Zm-8.97052,7.45709c-1.23583,3.30541.46147,5.53178,2.69575,7.52178.31652.28191.91087.25193,1.37662.3663-2.19286-1.842-2.16677-2.42184.11287-4.10815a8.732,8.732,0,0,0,1.21654-1.36334l-.21857-.26459c-.41281.08978-.823.19485-1.239.266-.76217.13037-1.56195-.04568-1.67889-.83294C129.83867,21.43912,128.73538,21.57058,127.7911,21.32014Zm120.97745,63.078-.36375.31312c.78767,1.3865,1.57531,2.773,2.39155,4.20986,1.15547-.97346,2.05262-.33053,2.81552.29623a18.083,18.083,0,0,1,1.91424,2.122l.23355-.068c-.524-1.79376-1.048-3.58751-1.58368-5.42136-.24973.65245-.44552,1.16387-.64128,1.67529a9.3209,9.3209,0,0,1-1.60461-.73438c-.65655-.45948-1.20527-1.07-1.83789-1.56789A13.47506,13.47506,0,0,0,248.76855,84.3981Zm-224.0011,57.662c-.8902.39479-.73037,1.00146-.38144,1.47146a15.127,15.127,0,0,0,2.01027,2.29393c1.55325,1.38647,3.21968,2.64605,4.775,4.03037.89886.8,1.09534.812,1.6038-.26986.46683-.99327-.15653-1.32938-.915-1.57458-1.24234-.40164-2.6111-.59432-3.13673-2.08288-.0382-.10818-.22183-.18577-.35363-.237A6.5382,6.5382,0,0,1,24.76745,142.06008Zm1.22493-1.63932a3.41678,3.41678,0,0,1,.18947.85834,3.033,3.033,0,0,0,2.11177,3.18441,2.01592,2.01592,0,0,0,1.34546-.19358c.16691-.09484.07485-.71567.03423-1.09068-.082-.75694-.206-1.50946-.31892-2.26287-.07123-.47511-.15381-.94851-.2313-1.4227l-.25338-.20313C28.30453,140.68574,27.192,140.49364,25.99238,140.42076Zm4.92483,3.11685,1.91935-1.17206c-.51843-1.5719-1.667-3.07351-.2701-4.8679-.8409-.31883-1.55352-.589-2.60127-.98624C30.41205,139.02782,29.95635,141.3064,30.91721,143.53761ZM256.32645,93.87546l-.3908.06054q1.50214,9.52857,3.00425,19.05715A92.98369,92.98369,0,0,0,256.32645,93.87546ZM155.51033,49.07087c-.48219.81-.05794,2.63372,1.08189,3.70426l1.43419-3.21806ZM48.36114,45.06625c1.31108,1.13628,2.62437,1.03927,3.59457-.19243.3401-.43179.28294-.69961-.23821-.8957A3.43146,3.43146,0,0,0,48.36114,45.06625ZM21.78033,129.1664l-.4517.032,1.107,7.83642.45884-.063Zm9.15739-51.99992A11.85917,11.85917,0,0,0,29.45156,81.974,5.94229,5.94229,0,0,0,30.93772,77.16648ZM242.59949,60.18414l.25588-.19624q-1.39806-2.17889-2.79615-4.35779l-.27989.17613C240.556,57.36612,240.92051,59.17978,242.59949,60.18414ZM140.49419,32.2366l-.10977.23245c.6717.387,1.32427.81332,2.01987,1.151.8818.42812,1.11437.24979,1.22257-.78706ZM234.15586,47.278l-1.85024-2.15357-.27265.173v1.81833ZM36.69779,148.86006a2.54066,2.54066,0,0,0-1.88416,1.94278C36.00136,151.39525,36.50155,150.88948,36.69779,148.86006ZM233.97944,51.82952c.59244,1.4064,1.07113,2.54269,1.5929,3.78132C235.86574,54.51776,235.32729,53.21022,233.97944,51.82952ZM25.14266,85.3056a1.97921,1.97921,0,0,0,.88705-2.72716Zm-4.70648,24.13415-.128-.00409v2.78741l.128.00392Z"/><path class="b" d="M54.092,161.32144c0-.87983-.00126-1.49321.00031-2.1066a10.16508,10.16508,0,0,1,.05026-2.29951c.14493-.6029.5357-1.43281,1.01662-1.60449.80263-.2865,1.27341.48007,1.53873,1.21144.31189.85966.53721,1.75864.9285,2.57934a26.26568,26.26568,0,0,0,1.39523,2.28,12.25791,12.25791,0,0,1,1.14787,1.97618,28.69636,28.69636,0,0,0,6.22909,9.99009,23.22759,23.22759,0,0,1,2.41462,3.61269,6.847,6.847,0,0,0,.60611,1.03547,10.804,10.804,0,0,1,2.60687,6.73818,12.22977,12.22977,0,0,1-1.24472,7.56935,9.05212,9.05212,0,0,0-.947,2.66274,3.83319,3.83319,0,0,1-2.84136,3.035c-.337.108-.6746.21435-1.3429.42656a12.76382,12.76382,0,0,1,1.49054,1.35964,11.93542,11.93542,0,0,1,1.43732,2.25115,1.19427,1.19427,0,0,1-.458,1.06642,1.275,1.275,0,0,1-1.15843-.15133,26.60912,26.60912,0,0,1-2.65561-2.4599c-1.95034-2.08931-3.62585-4.50251-5.82138-6.27961-3.183-2.57635-5.43385-6.03486-8.63233-8.53431a16.08562,16.08562,0,0,0-3.37991-1.71561c-.1985-.08922-.74669.09529-.79106.25093-.24776.86908-.89325.7774-1.50492.68524a7.12822,7.12822,0,0,1-5.17105-3.17938,75.04124,75.04124,0,0,1-6.8707-14.32485,2.34527,2.34527,0,0,1,1.17824-3.25689,2.39774,2.39774,0,0,0,1.42737-2.683c-.04553-.23783-.04754-.63565.09024-.73272,1.02193-.72005,1.224-1.92954,1.85292-2.86986a2.3517,2.3517,0,0,1,1.65461-.63243c2.0873-.11138,2.07825-.0721,2.50842-2.06115a3.58155,3.58155,0,0,1,.45334-1.10714c.57221-.92277,1.16987-.8698,1.773.03449a2.74474,2.74474,0,0,0,1.04781.88552,19.72594,19.72594,0,0,0,2.2488.87549,5.037,5.037,0,0,1,2.87385,2.33092C50.24506,159.855,52.10935,160.53413,54.092,161.32144Zm15.78525,19.19937c-.6529-1.02653-1.28447-2.04361-1.94038-3.04476a26.79306,26.79306,0,0,0-2.56661-3.77578,26.5287,26.5287,0,0,1-5.72231-9.019,6.55731,6.55731,0,0,0-1.33635-2.47954,6.39724,6.39724,0,0,1-1.68919-2.87608c-.28449-.9087-.66878-1.78615-1.00885-2.67743l-.32426.05413a7.3406,7.3406,0,0,0-.153,1.12652c.01663,1.1716.11794,2.34331.09947,3.5136-.01018.64544-.1617,1.61264-1.06364,1.19524-2.3254-1.07612-4.89566-1.8806-6.19817-4.42833a1.726,1.726,0,0,0-.72571-.78365c-1.7247-.75382-3.47524-1.44849-5.33826-2.213-.07025.35395-.15819.72894-.21764,1.10839-.24627,1.57191-.82456,2.05931-2.44106,2.03782q-.32969-.00438-.65906-.02808a1.27989,1.27989,0,0,0-1.4711.99988,9.4104,9.4104,0,0,1-.97476,1.63209c-.12726.21347-.33758.4645-.30878.67023.2448,1.749-.74236,2.74369-2.09854,3.51123a1.39525,1.39525,0,0,0-.69987,1.864A73.64427,73.64427,0,0,0,39.96171,181.322a5.17375,5.17375,0,0,0,3.4664,2.32113c.34063.06186.73739-.20721,1.11251-.30846.63207-.17063,1.38509-.62948,1.87956-.4361a16.76446,16.76446,0,0,1,4.3362,2.21958c3.033,2.40084,5.15918,5.73925,8.247,8.14282a37.19481,37.19481,0,0,1,4.117,4.41325c.25907.28137.552.5316.63941.61507a17.06016,17.06016,0,0,1,2.34448-1.06443,3.36507,3.36507,0,0,0,2.80006-2.70164,15.27973,15.27973,0,0,1,1.24838-3.24893c1.30122-2.79281,1.12087-5.62651.44091-8.64954-.67315,1.13921-1.16523,1.20434-1.88679.34644a2.13238,2.13238,0,0,1-.58169-1.03,8.65565,8.65565,0,0,1,.18341-1.73963Z"/><path class="b" d="M36.288,140.244c-.58653-2.2441-1.16877-4.47841-.3004-6.77124a1.7838,1.7838,0,0,1,.32583-.68392,7.50269,7.50269,0,0,1,1.002-.67925c.20214.32035.5409.62433.58159.964.139,1.16072.18239,2.33352.24319,3.50269a4.87141,4.87141,0,0,0,.18928,1.49815,11.70636,11.70636,0,0,1,1.0216-1.83716c.60687-.75179,1.09574-.653,1.67693.13393a1.329,1.329,0,0,0,.66238.49382c2.11021.5354,2.65082,1.15322,2.98709,3.46155.02069.142.19647.26139.531.68079a12.51058,12.51058,0,0,1,.03121-2.20329,4.11347,4.11347,0,0,1,.7126-1.18166A4.84264,4.84264,0,0,1,46.839,138.732a4.35408,4.35408,0,0,1,.03122,1.42285c2.44984-.67734,4.44987.42157,6.3659,1.52807,2.27331,1.31279,4.45892,2.79035,6.60584,4.30519a5.84429,5.84429,0,0,0,6.49634.20861c.65229-.44628,1.11564-.96261.69365-1.82968-.31018-.63737.10676-.99747.617-.9434a3.88,3.88,0,0,1,2.08473.64187c.79887.71083.44478,1.77945.00434,2.55426-1.102,1.93857-2.73628,3.6915-5.59892,3.097a5.16694,5.16694,0,0,0-1.71513.24934,6.064,6.064,0,0,0,.63752,1.7736c.85155,1.09573,1.87522,2.05573,2.77421,3.11726.55387.654,1.36269,1.41992.81407,2.30332-.609.98055-1.60816.33015-2.2518-.065a40.97334,40.97334,0,0,1-3.68117-2.70919c-.7733-.60338-1.445-1.34936-2.25933-1.88351a1.08343,1.08343,0,0,0-1.67822.40769c-.78664,1.31821-3.41179,1.7284-4.32093.50989-.801-1.0736-1.86467-1.11321-2.88934-1.49914-.53106-.2-1.2466-.57726-1.36555-1.01416-.11566-.42481.44895-1.01817.66644-1.55706.11532-.28575.28766-.76183.16115-.8977-.92558-.994-1.92042-1.92357-2.89342-2.87345l-.2681.22536a14.88031,14.88031,0,0,1-.14082,2.19531,1.45252,1.45252,0,0,1-.74774.94829c-.21891.0846-.70752-.27469-.94933-.54713-1.07907-1.21571-.84381-2.4974.66355-3.36828a12.61212,12.61212,0,0,1-2.49587-1.89876c-.56555-.7026-.72658-1.7308-1.28935-2.60837a6.27,6.27,0,0,0-.06522.97909c.08477,1.00325-.40147,1.61114-1.35213,1.61525a14.775,14.775,0,0,1-3.55815-.34594,2.02053,2.02053,0,0,1-1.18982-1.32418c-.17165-.80325.64994-.8996,1.26066-1.039A1.12678,1.12678,0,0,0,36.288,140.244Zm26.21135,8.11074c-1.13724-.57-2.33106-1.07686-3.43173-1.73866-2.43995-1.46706-4.80346-3.06221-7.25534-4.50814-1.77845-1.0488-3.5736-1.68518-5.6081-.267-1.10822.77249-2.94643-.64406-2.87055-2.02293a1.77631,1.77631,0,0,0-1.69221-1.94117,16.50953,16.50953,0,0,1-1.86074-.45051c-.2163.859-.211,2.06079-.79284,2.80105-.57028.72551-1.73822.98126-2.64386,1.44318a6.86,6.86,0,0,0,2.39.5407c.79477.061,1.11309-.283.98352-1.13566a1.30583,1.30583,0,0,1,1.35157-1.6879,1.32373,1.32373,0,0,1,1.47718,1.59782,2.00077,2.00077,0,0,0,1.08631,2.08767c.49873.30673,1.01289.58825,1.51614.88778a13.93027,13.93027,0,0,1,4.84469,4.0481c.82874,1.25347.771,1.45187-.51438,2.29036-.09932.06478-.1271.23924-.24983.48755.37068.10221.67024.18376.96918.26747,1.06572.29845,2.16275.3616,2.90994,1.4916.61878.93578,2.31616.63468,2.86711-.39412a1.63013,1.63013,0,0,1,2.04768-.838,6.426,6.426,0,0,1,2.182,1.171c1.21879.98718,2.30994,2.131,3.51611,3.13524a6.23176,6.23176,0,0,0,1.5298.69275l.179-.316c-.25073-.2979-.49509-.60145-.75335-.89266-.82666-.93223-1.69376-1.83127-2.47765-2.79794-.68327-.84259-1.23879-1.80637-.69734-2.918A4.27928,4.27928,0,0,1,62.49931,148.35479ZM63.674,148.264c1.83711,1.0437,3.53609.39988,4.84906-1.57126.69662-1.04582.70164-1.57107-.0673-2.163C68.07432,147.14785,65.96431,147.67114,63.674,148.264Z"/><path class="b" d="M32.08,121.094c-.976.39918-1.93859.708-2.712-.448a8.19935,8.19935,0,0,1-.866,1.74338c-.31225.3662-1.04986.83765-1.2773.7061-.41138-.23791-.89794-.97574-.79577-1.35453a16.04956,16.04956,0,0,1,1.40344-3.4c.31244-.579.92807-.66352,1.39932.03164l.24286-.15456a7.27223,7.27223,0,0,0-.59268-.98482c-.35957-.43367-.95444-.749-1.14366-1.23392a14.62976,14.62976,0,0,1-.9634-6.67445,1.85489,1.85489,0,0,1,.0584-.43438c.25018-.73023.47037-1.61944,1.39319-1.62554.9796-.0065.92346.96176.94813,1.59124.11358,2.89868,1.54961,5.112,3.45306,7.138.89666.95435,1.6534,2.0048.88642,3.43825a.68189.68189,0,0,0,.19837.63662,3.04378,3.04378,0,0,1,1.34452,2.84053,13.78538,13.78538,0,0,1-.22857,3.47345c-.25129,1.14311-1.18262,1.46768-1.95114.6405a15.02362,15.02362,0,0,1-2.066-3.26381c-.10731-.20272.29466-.71685.52245-1.04482.30233-.43533.66456-.82905,1.00106-1.24065Zm-4.07013-11.79185c-.1581.239-.27455.334-.26306.40951.3006,1.97574.58883,3.95427.958,5.91748.04693.24955.50423.5328.81476.6a1.17828,1.17828,0,0,1,1.021,1.33419c-.00629.65913-.05276,1.31832-.044,1.977.00852.63922.36932.95187.91374.55487,1.34923-.98388,1.84315-1.802.71237-3.15311q-.52867-.63174-1.07342-1.25a9.64635,9.64635,0,0,1-2.68868-5.40966A4.86559,4.86559,0,0,0,28.00986,109.30214Zm5.36851,17.01164.37743-.14252a6.23409,6.23409,0,0,0-.10649-4.74128c-.59941.85278-1.11456,1.52323-1.54844,2.24269a.9554.9554,0,0,0,.0139.822C32.48978,125.12837,32.95087,125.71113,33.37837,126.31378Z"/><path class="b" d="M87.45667,195.45867c-.26009-.32343-.40137-.52586-.56931-.703-.52979-.55881-.33173-.96532.32-1.10576,1.08236-.23326,1.1502-.90221,1.00919-1.81553a13.30373,13.30373,0,0,1-.21091-2.94441,1.546,1.546,0,0,1,.9-1.1573,1.52141,1.52141,0,0,1,1.24658.76478,14.86037,14.86037,0,0,0,3.65561,4.7539c.97452.97138,1.00757,1.09133-.11392,1.77975-3.73845,2.29486-7.47792,4.59192-11.29018,6.75941a5.03011,5.03011,0,0,1-2.76093.35272,1.96372,1.96372,0,0,1-1.33348-1.062c-.13578-.31578.25453-1.06869.621-1.35492a22.59847,22.59847,0,0,1,7.34829-3.83848C86.64046,195.77718,86.991,195.6295,87.45667,195.45867Zm-8.18694,5.79953a8.35823,8.35823,0,0,0,2.52777-.31337c1.98026-.99955,3.879-2.16155,5.80186-3.27338.57784-.33413,1.13134-.71034,1.85-1.16459C87.05032,196.13956,80.41747,199.13789,79.26973,201.2582Zm9.73417-12.01877c.02788.5603.03655.99169.07313,1.4207.10713,1.25675.552,2.54444-.42212,3.68981-.09027.10616-.03032.43334.06742.59138.79325,1.28259,1.247,1.376,2.54829.54361a8.53216,8.53216,0,0,0,1.33936-.95354.8706.8706,0,0,0,.16474-.81C91.5954,192.25909,90.36365,190.83911,89.0039,189.23943Z"/><path class="b" d="M80.79282,154.38671c-1.25261.09882-2.227.21828-3.20391.24354-1.82614.04722-2.33882-.4033-2.77022-2.17051-.05738-.23508-.40269-.47016-.66624-.57294a4.46429,4.46429,0,0,1-2.82391-3.00086,1.4979,1.4979,0,0,1,.08549-1.212,1.22871,1.22871,0,0,1,1.18625-.11214c1.55007,1.01768,3.06673,2.09425,4.51564,3.25.234.18663.07091.87107.10128,1.54493a6.65894,6.65894,0,0,0,1.34155-.3439c1.59758-.72689,2.39746-.34421,2.78791,1.40648.03161.14171.0579.2846.08475.41751a4.09681,4.09681,0,0,1,3.206,3.97442c.01947.35387-.32739,1.02965-.51337,1.03262a1.64314,1.64314,0,0,1-1.28041-.5088c-.3751-.64418-.82469-.65977-1.44795-.67344-.52416-.01152-1.33273-.128-1.49284-.45442a2.841,2.841,0,0,1,.169-1.69389A5.14019,5.14019,0,0,1,80.79282,154.38671Zm-5.07667-3.61187L72.82064,148.689A2.18469,2.18469,0,0,0,75.71615,150.77484Zm5.00562,5.49016.26568.43818,2.04724-.1117.18842-.35122c-.39442-.38835-.8442-1.13244-1.17029-1.0817C81.56359,155.23471,81.16113,155.8684,80.72177,156.265Z"/><path class="b" d="M137.84443,96.79826a3.42056,3.42056,0,0,0,.02585-.50769c-.04514-.37764-.10858-.75307-.16482-1.12938-.50291.10557-1.16872.04489-1.47806.348a3.33147,3.33147,0,0,1-3.55119.78186,1.01755,1.01755,0,0,1-.38043-1.77086,5.86,5.86,0,0,1,5.95909-1.92951,36.24774,36.24774,0,0,1,9.95967,3.93925,2.453,2.453,0,0,1,.79485.57217,1.64852,1.64852,0,0,1,.3912,1.04532c-.033.22032-.51008.45554-.82661.53824a6.8067,6.8067,0,0,1-4.36422-.6516c-.77914-.31627-1.541-.6749-2.31979-.99212a3.82744,3.82744,0,0,0-3.37929-.25513C138.34758,96.87,138.10552,96.79826,137.84443,96.79826Zm-4.57533-1.83139.15074.56694c.52024-.12632,1.22286-.08179,1.52906-.40863a2.76961,2.76961,0,0,1,4.34165-.04481,1.85183,1.85183,0,0,0,.83021.42179c.48176.15664.9962.21913,1.46887.3961,1.40245.52507,2.77814,1.1243,4.1918,1.61542a9.59916,9.59916,0,0,0,1.81268.27265c-.15712-.46269-.3495-.70688-.59854-.80075-3.1367-1.1823-6.2431-2.46729-9.44055-3.45683C135.946,93.03079,134.46767,93.85832,133.2691,94.96687Z"/><path class="b" d="M177.56424,28.29235a13.469,13.469,0,0,1,7.1665,2.53464c1.20045.91811,1.01932,2.08346-.37617,2.69837a4.94875,4.94875,0,0,1-3.95091-.1884c-1.57139-.62667-3.08665-1.36473-4.84912-.92313-.102.02556-.26062.04259-.32041-.01357-.6935-.65126-.98427-1.70787-2.02924-2.00676.33186-.40052.58772-1.00576,1.01005-1.16252C175.40121,28.7907,176.65606,28.53523,177.56424,28.29235Zm.28938,1.108a7.61246,7.61246,0,0,0-1.46478.18622,3.60656,3.60656,0,0,0-.92533.66183c.35224.35021.646.88029,1.06753,1.01735a38.75036,38.75036,0,0,0,4.0724,1.046,19.79,19.79,0,0,0,2.88007.35354.91981.91981,0,0,0,.74423-.46817c.0614-.20236-.18667-.61327-.41154-.76966A11.10689,11.10689,0,0,0,177.85362,29.40035Z"/><path class="b" d="M155.33532,103.49854c-.80443,0-1.61171.04224-2.41246-.01206-.77828-.05276-1.3598-.44937-1.30018-1.31242.06041-.87446.72809-1.03755,1.44237-.9296a1.824,1.824,0,0,0,2.081-1.02358,1.56055,1.56055,0,0,1,1.78871-.74358c1.50863.22249,3.02511.3946,4.5295.64149a4.66879,4.66879,0,0,1,1.742.55346,1.51479,1.51479,0,0,1,.57042,1.17676,1.2324,1.2324,0,0,1-.83482.82515c-1.86812.31-3.751.5383-5.634.74811a17.91565,17.91565,0,0,1-1.97262.01152Zm7.10349-1.60134-.0064-.47176a2.35478,2.35478,0,0,0-.47141-.17923c-1.72427-.264-3.44823-.53271-5.178-.75563a1.01244,1.01244,0,0,0-.75484.28953c-.45433.49327-.83841,1.05126-1.45242,1.84477Z"/><path class="b" d="M83.6894,131.37278c-.30131.98307-.5335,1.80822-1.48631,1.95665-.86412.1346-1.36114-.4954-1.50023-1.28107-.28819-1.62775-1.63111-2.23491-2.782-3.05513a9.8629,9.8629,0,0,1-1.92257-1.59455,1.6241,1.6241,0,0,1-.16075-1.45151c.11691-.24345.99681-.39659,1.32831-.21463a37.75355,37.75355,0,0,1,5.00982,3.08426C82.90363,129.38026,83.19837,130.5033,83.6894,131.37278Zm-1.7888.74536c.99741-1.73378-2.268-5.07074-4.88269-5.05124C78.82805,128.69859,81.48131,129.3168,81.9006,132.11814Z"/><path class="b" d="M90.68664,177.50314c-.00078,1.08176-.39919,1.40868-1.22853,1.0521a4.82166,4.82166,0,0,1-2.75209-2.82131c-.17015-.48.15393-1.13529.25254-1.7106a4.244,4.244,0,0,1,1.59815.32565A5.06974,5.06974,0,0,1,90.68664,177.50314Zm-2.6323-2.34052-.41784.37663,1.30908,1.47411.37891-.33113Z"/><path class="b" d="M168.6646,221.95066a1.85121,1.85121,0,0,1-1.89391-1.38678,1.43987,1.43987,0,0,1,1.09178-1.8761,13.428,13.428,0,0,1,3.20208-.35644c.23582-.0039.68842.573.68468.87805C171.73621,220.2681,169.74979,221.95826,168.6646,221.95066Zm1.84906-2.3918-.22685-.42392a8.75321,8.75321,0,0,0-1.8311.40136c-.26661.11711-.3552.63943-.52443.97816.41019.1062.92563.41839,1.2079.27421A6.79879,6.79879,0,0,0,170.51366,219.55886Z"/><path class="b" d="M94.24388,168.73177c-.1196.198-.25561.71252-.56709.86239a1.67848,1.67848,0,0,1-1.29529-.02453,3.56954,3.56954,0,0,1-1.53669-3.69053c.27785-.811.95866-1.09058,1.60454-.56308A4.8447,4.8447,0,0,1,94.24388,168.73177Zm-1.96559-2.26017-.36884.19276a1.85181,1.85181,0,0,0,.95708,1.93756l.38385-.20188Z"/><path class="b" d="M166.661,103.8844c-.652-.11577-1.73378.21182-1.94563-1.0011-.12318-.70527,1.23667-1.803,2.071-1.81406a2.52714,2.52714,0,0,1,2.10981,1.78561C168.93336,103.579,168.3222,103.88209,166.661,103.8844Z"/><path class="b" d="M146.85728,103.88348c-.63516-.11923-1.68676.19561-1.83478-1.01787-.09076-.74391,1.23474-1.80743,2.08612-1.79569.87063.012,2.06587,1.09363,2.0455,1.85105C149.13506,103.62883,148.54181,103.89406,146.85728,103.88348Z"/><path class="b" d="M40.31324,59.528a13.16745,13.16745,0,0,1-1.22034,2.143.937.937,0,0,1-1.72985-.54281,4.73688,4.73688,0,0,1,.52591-2.36084,1.60308,1.60308,0,0,1,1.41991-.617C39.69994,58.25252,39.93136,58.96539,40.31324,59.528Z"/><path class="b" d="M129.84728,142.23568c-1.10681-.01272-1.8556-.54968-1.82126-1.306a2.12785,2.12785,0,0,1,1.92251-1.77642,1.74379,1.74379,0,0,1,1.58735,1.65567C131.55521,141.69421,130.9,142.24778,129.84728,142.23568Z"/><path class="b" d="M111.75124,172.26693a1.45288,1.45288,0,0,1-1.479,1.548,2.09745,2.09745,0,0,1-2.09073-1.96815,1.61013,1.61013,0,0,1,1.32336-1.74222A2.4882,2.4882,0,0,1,111.75124,172.26693Zm-2.79649-.3859a6.036,6.036,0,0,0,1.14561.78184c.13145.0492.40147-.27193.6083-.42421a8.472,8.472,0,0,0-.94228-.92739C109.70633,171.26607,109.37789,171.57747,108.95475,171.881Z"/><path class="b" d="M113.536,168.712c.45754.39892,1.15277.72,1.31507,1.2156.22471.68617-.88682,1.45336-1.84643,1.42142a1.40886,1.40886,0,0,1-1.43677-1.34634C111.60666,169.28139,112.17986,168.94033,113.536,168.712Z"/><path class="b" d="M41.03574,150.1199c-.16259-.19162-.68134-.54086-.78109-.98433-.13641-.60645,1.21037-1.69583,1.87853-1.5a1.55277,1.55277,0,0,1,.864,1.03979C43.14248,149.43684,42.2869,150.14522,41.03574,150.1199Z"/><path class="b" d="M42.05923,61.43694c-.17294-.19129-.70933-.52594-.81644-.96525-.15089-.61885,1.1117-1.53318,1.86213-1.48645.7231.045.89148.52947.87155,1.12924C43.94981,60.91657,43.287,61.47232,42.05923,61.43694Z"/><path class="b" d="M124.86435,48.58474c-.1099-.10725-.26227-.36625-.48113-.44867a12.0272,12.0272,0,0,0-1.96312-.58885,1.597,1.597,0,0,0-1.17376.11508c-.86093.76665-1.84776.30717-2.51427-.40319a3.68857,3.68857,0,0,1-.7351-3.787,3.41954,3.41954,0,0,1,3.599-1.55235,6.07951,6.07951,0,0,1,1.69161,1.1404l.53126-1.63358c-3.15814.40206-4.7467-1.96128-6.76776-3.56083a10.49041,10.49041,0,0,0-1.53174-1.05135c-.53965-.28861-1.08365-.51121-.94863-1.27063.15863-.89219.40639-1.892,1.39314-2.02742a4.53558,4.53558,0,0,0,2.66206-1.58715c.87906-.88177,1.74868-1.77381,2.65108-2.63119a2.936,2.936,0,0,1,2.88274-.5545,24.61114,24.61114,0,0,0,3.11793.48219,1.77077,1.77077,0,0,1,1.61044.91622,2.067,2.067,0,0,0,1.08894.77465c1.52222.52554,1.79178.94542,1.79647,2.55856a1.90581,1.90581,0,0,0,.65251,1.27548,6.85814,6.85814,0,0,1,2.6303,5.44872c.01338,1.07774.63057,1.56129,1.66885,1.64669.69745.05737,1.38825.19583,2.30592.331a5.146,5.146,0,0,1-3.847,2.12414c-.62253.02592-.988.00483-1.1239.78749a1.45609,1.45609,0,0,1-1.19138.7543c-1.41534-.128-2.80937-.47335-4.22039-.67352a19.16331,19.16331,0,0,0-2.73157-.1906,6.24579,6.24579,0,0,0-1.46239.40872c.76886.8257,1.41213,1.41876,1.93557,2.10345.65175.85254.321,1.56293-.6111,2.09876l2.39945,2.262c-.47051.21469-.74634.45145-1.01857.44738-2.37288-.03543-4.75172-.03077-7.11462-.21733-1.06828-.08434-1.23375-.82917-.42795-1.58206a7.063,7.063,0,0,1,2.18811-1.6158A12.48278,12.48278,0,0,1,124.86435,48.58474Zm9.08575-7.0866a2.35161,2.35161,0,0,1-.40841.56327,11.6843,11.6843,0,0,1-1.04491.60787,3.89963,3.89963,0,0,1-.5943-1.17237,1.955,1.955,0,0,1,1.18607-2.06026c.96252-.43186.8255-1.0787.45449-1.67011a12.2039,12.2039,0,0,0-1.79072-2.18508,2.7044,2.7044,0,0,1-1.10659-2.4701,1.30375,1.30375,0,0,0-.66825-1.033c-.84624-.35287-1.7161-.56456-2.17681-1.50356-.09163-.18675-.58885-.189-.90426-.24878a21.71327,21.71327,0,0,1-2.88219-.55461,2.07124,2.07124,0,0,0-2.31152.48191c-.81529.78887-1.59769,1.61161-2.40383,2.4101-.82775.81989-1.58839,1.7217-2.90335,1.8151-.24964.01773-.5876.45812-.65871.75724-.05015.211.22026.61313.454.75675,1.0052.61774,1.909,1.60184,3.31221.994a1.6224,1.6224,0,0,1,.9752.06014c1.37383.38538,2.90381.67515,3.34857,2.28434.20343.736.53531.72625,1.10744.829a10.02629,10.02629,0,0,1,2.69595.81169c.98051.48988.99181,1.27808.18821,2.01975-.25444.23483-.51759.46023-.89787.7973,1.94362.38632,3.68658.75253,5.44165,1.04649.151.0253.57379-.45633.54462-.65452-.16835-1.14347.37858-1.22123,1.28784-1.05572a12.1684,12.1684,0,0,0,1.96834.01918ZM124.03486,47.093l.11533-.22208c-.73772-1.14367-1.46582-2.29375-2.22128-3.42558a1.41258,1.41258,0,0,0-.61843-.55372,2.51143,2.51143,0,0,0-2.511,1.31761,2.54481,2.54481,0,0,0,1.1165,2.628.79683.79683,0,0,0,.68281-.08684,1.75022,1.75022,0,0,1,2.38665-.09438A8.50448,8.50448,0,0,0,124.03486,47.093Zm1.78593,4.41052c-1.882-2.45447-3.74956-2.43141-5.12038-.23263Zm-5.20072-13.42382-.2561.467,2.08025,1.18787.30069-.54745Zm6.47877,4.24417.03273-.48285c-.36179-.12983-.78766-.43975-1.06781-.34008-.29453.10479-.44958.60158-.66558.92707l.22117.31825Z"/><path class="b" d="M104.23663,33.22314a8.83465,8.83465,0,0,1,2.49548-1.14377c1.52389-.17748.76331,1.30085,1.20148,2.17635a13.01037,13.01037,0,0,0,.87073-.98335c1.23241-1.72441,2.36953-1.63822,3.25865.25869a2.006,2.006,0,0,0,.17064.2587.83473.83473,0,0,0,.22769.04056c.43794-.05649.87476-.12177,1.31194-.18418-.00481.52246.19672,1.19261-.05219,1.54035-.82533,1.153-1.80567,2.19616-2.74251,3.2675-.28817.32954-.62708.61479-.94349.91955a.95322.95322,0,0,0,.04624,1.64681c.28476.24412.59722.812.49193,1.06215a1.40005,1.40005,0,0,1-1.06348.55937,15.03048,15.03048,0,0,1-2.9518-.06417c-.95515-.133-1.05811-.6487-.5306-1.44278.1803-.27142.22279-.97975.09905-1.04347-.38215-.1968-1.05794-.398-1.29029-.20372a1.8874,1.8874,0,0,1-2.13745.27484c-1.55038-.62217-3.1067-1.22954-4.96925-1.96489l2.04232-1.627c-.69225-.74339-1.33294-1.379-1.895-2.07788-.11673-.14514-.02187-.57449.11123-.78838,1.03013-1.6554,5.53281-3.02249,7.4179-2.21192l-1.3636,1.56414Zm1.09194,4.749a1.62481,1.62481,0,0,1-.22171-.46514c-.07629-.3974-.269-.94025-.08956-1.17219a1.21692,1.21692,0,0,1,1.14184-.20419,8.256,8.256,0,0,1,2.19641,1.35256c.614.56248.35568,1.33162-.41322,1.65278-.22412.09362-.46426.14888-.66416.21143a6.91259,6.91259,0,0,1,.34732,1.50257c.00046.9765.11811,1.074,1.16172.5968-1.25374-2.35184,1.373-2.99517,2.10148-4.56147a2.03689,2.03689,0,0,1-.44989-.18687c-.33985-.26572-.66329-.55242-.99307-.831.27206-.32163.53389-.65286.822-.95935.093-.099.35684-.1177.369-.19908.07-.46768.0878-.94316.12331-1.416a4.2867,4.2867,0,0,0-1.0225.47871c-.29987.24981-.42759.72435-.74173.93446a2.24545,2.24545,0,0,1-1.40638.51991c-.37468-.07359-.69017-.65236-.94326-1.06267a2.08631,2.08631,0,0,1-.15123-.78884,9.45219,9.45219,0,0,1-2.57172.95752c-1.2438.06788-1.28534-.99423-1.1548-2.129a18.911,18.911,0,0,0-2.33566,1.01231,1.52362,1.52362,0,0,0-.72917,1.07592c.0466.76495.60473,1.11,1.40188.91727a7.29509,7.29509,0,0,1,1.28086-.28719,2.64432,2.64432,0,0,1,.86428.2639,2.63131,2.63131,0,0,1-.43279.88384,10.08281,10.08281,0,0,1-1.29538.81708c-.46321.29543-.916.60712-1.59588,1.05987C101.9391,38.91426,103.59423,40.12307,105.32857,37.97219Z"/><path class="b" d="M97.63046,32.81394c.1041-.59325.24661-1.18319.29814-1.781.0318-.36872.05316-.92923-.15385-1.07685a1.30083,1.30083,0,0,0-1.09607.10234c-.67165.35867-1.263.86533-1.92419,1.2473a2.30748,2.30748,0,0,1-.85911.10787c.01806-.28814-.06535-.64028.06982-.85456a7.58074,7.58074,0,0,1,7.66418-2.84529c.63146.18511,1.06568.61086.53534,1.18712-1.32056,1.43491-2.73413,2.78423-4.11035,4.16791Zm1.79292-2.29122,1.46706-1.81166H98.54713Z"/><path class="b" d="M120.20218,21.13812a8.55542,8.55542,0,0,1-3.48607-3.48692,1.73331,1.73331,0,0,1,.148-1.40877,3.35337,3.35337,0,0,1,1.16108-1.13651,7.18466,7.18466,0,0,1,1.46136-.54193,9.30839,9.30839,0,0,0,.06208,1.43343c.20538,1.06145.48492,2.10833.7175,3.16483.133.6042.233,1.21567.34786,1.82386Zm-1.91953-4.63933c-.91667.85576-.39728,1.29644.46085,1.637Z"/><path class="b" d="M115.24234,19.61166a4.07333,4.07333,0,0,1-.597.39911c-1.16692.4517-4.88664-.41976-5.70692-1.36418a1.16186,1.16186,0,0,1-.2188-.77282c.00749-.12061.35029-.34615.493-.31353,1.80814.41332,3.612.84818,5.40337,1.3284C114.83879,18.94836,114.98312,19.3007,115.24234,19.61166Z"/><path class="b" d="M111.106,15.34334c.02811,1.58275-.6459,1.99936-1.90134,1.30781a4.07682,4.07682,0,0,1-.36657-.23972c-.5828-.40844-1.56347-.82434-1.04188-1.60909a3.00628,3.00628,0,0,1,2.12133-.988C110.85474,13.76087,111.05285,14.66556,111.106,15.34334Z"/><path class="b" d="M136.579,44.59494c1.37692.28025,2.06449.81537,2.02338,1.68754a1.2593,1.2593,0,0,1-1.39261,1.34036c-.94484.00287-2.236-1.09016-1.96184-1.78491C135.44921,45.32793,136.1184,45.00258,136.579,44.59494Z"/><path class="b" d="M144.32154,36.99153c.72332-.02414,1.05563.42431.58213,1.0753a11.02543,11.02543,0,0,1-1.97652,1.96881,1.01676,1.01676,0,0,1-.97971-.11805,1.15707,1.15707,0,0,1-.12869-.97578A2.79819,2.79819,0,0,1,144.32154,36.99153Z"/><path class="b" d="M121.11219,21.2588c.22241-1.24839.82448-2.09492,1.56338-2.03079a1.27725,1.27725,0,0,1,1.2006,1.32252c.07149.89545-.88374,2.1277-1.54268,1.90084C121.84717,22.28393,121.51374,21.67244,121.11219,21.2588Z"/><path class="b" d="M100.57253,23.12818a3.27424,3.27424,0,0,1,3.22737-.77883c.53053.10769,1.44541.51738,1.42977.73626-.064.89641-.93177.74046-1.54384.73379C102.67651,23.8084,101.57624,24.11011,100.57253,23.12818Z"/><path class="b" d="M115.76767,40.05073a23.694,23.694,0,0,1-1.99641-1.37013.92481.92481,0,0,1-.17579-.8659.90289.90289,0,0,1,.78736-.37058,8.016,8.016,0,0,1,2.00612.73138c.27533.15072.59457.72946.50087.9329C116.729,39.45749,116.25976,39.66451,115.76767,40.05073Z"/><path class="b" d="M109.05406,23.58828A3.68683,3.68683,0,0,1,111.26,21.3538c.34422-.12246.83661.17155,1.26121.275-.14039.41355-.1605,1.04283-.4435,1.20062a25.24669,25.24669,0,0,1-2.81941,1.19619Z"/><path class="b" d="M115.00335,15.176c-.18754.1935-.48925.74421-.93.89894-.5501.19313-1.60551-.97883-1.48829-1.70714a1.55891,1.55891,0,0,1,.919-1.03935C114.23,13.12313,114.97673,13.963,115.00335,15.176Z"/><path class="b" d="M141.50507,47.6223c-1.15923.002-1.74289-.60232-1.72483-1.49764.01215-.60251.0865-1.23295.88489-1.2762a1.90368,1.90368,0,0,1,1.514,1.88476C142.10226,47.12169,141.65436,47.43673,141.50507,47.6223Z"/><path class="b" d="M110.01261,30.09923c.01946,1.19853-.54892,1.7749-1.4601,1.765-.60071-.00651-1.232-.0822-1.302-.86936-.05907-.66463,1.08617-1.65892,1.86582-1.526C109.50281,29.53485,109.82779,29.96129,110.01261,30.09923Z"/><path class="b" d="M150.86679,52.75584c1.09085.15591,2.06213.03443,2.0946,1.039.0072.22264-1.20513.6297-1.8746.67483-.40154.02706-.83926-.4826-1.26072-.751Z"/><path class="b" d="M140.52438,6.38746a13.98486,13.98486,0,0,1-1.4767-.7274c-.08326-.0519-.01384-.61978.09192-.65864A11.07084,11.07084,0,0,1,140.867,4.555a.67637.67637,0,0,1,.51251.14773,11.60266,11.60266,0,0,1,.80132.88821,8.02882,8.02882,0,0,1-.93395.59154,1.873,1.873,0,0,1-.64747.05218Z"/><path class="b" d="M228.05492,247.76449c-.88273.61859-1.75574,1.25167-2.65026,1.85255-1.58106,1.06211-3.18129,2.09562-4.76136,3.15909a1.50914,1.50914,0,0,1-2.40742-.36532c2.45527-3.15288,5.80838-4.48589,9.435-5.32611Z"/><path class="b" d="M170.10168,283.13374c-1.53273-.90436-3.22268,1.20312-4.26837-.85312a3.42946,3.42946,0,0,1,1.12746-3.65888,2.17992,2.17992,0,0,1,2.85434-.06022C171.5412,279.85867,170.33517,281.277,170.10168,283.13374Zm-3.57506-1.06136a11.80532,11.80532,0,0,0,2.41881-.555,1.22593,1.22593,0,0,0-.1299-2.18851,1.35231,1.35231,0,0,0-1.24833.29964A13.52661,13.52661,0,0,0,166.52662,282.07238Z"/><path class="b" d="M230.05764,223.47813c-1.65.8688-3.27254,1.79845-4.96909,2.56427-.43348.19568-1.10132-.12724-1.6615-.21186.20081-.54894.23855-1.31291.63043-1.60987,1.78363-1.3515,3.86657-1.41192,5.92943-1.42844Z"/><path class="b" d="M172.46892,289.13627c-2.09115-.67518-2.96278-2.65452-2.01221-4.25756a1.21293,1.21293,0,0,1,2.25431.005A4.35645,4.35645,0,0,1,172.46892,289.13627Zm-.993-1.78067.58492-.11472q-.1451-.68766-.29019-1.37543l-.40512.06924Q171.42069,286.64525,171.47591,287.3556Z"/><path class="b" d="M243.18541,290.23118l-4.51559-1.01075c.54863-1.81139.63775-1.87033,2.26837-1.60367C243.15061,287.97847,243.26622,288.1004,243.18541,290.23118Z"/><path class="b" d="M211.57058,237.58283a13.81259,13.81259,0,0,0-1.56058.15825c-.83914.17572-1.63751.26505-1.78407-.85167a2.53344,2.53344,0,0,1,1.74814-2.20384C211.61206,234.51037,212.107,235.36476,211.57058,237.58283Z"/><path class="b" d="M187.71615,250.22644a33.28193,33.28193,0,0,0-3.84656.07512,30.00408,30.00408,0,0,0-3.463.89732C181.33462,248.918,184.84949,248.35655,187.71615,250.22644Z"/><path class="b" d="M214.39866,236.11922c1.26475-1.11844,2.52954-2.23694,3.82828-3.38547C218.55079,234.45829,217.08747,235.97675,214.39866,236.11922Z"/><path class="b" d="M274.33918,273.77819c.6495,1.427-.082,2.43451-.90008,3.34827-.53951.60261-.84413.52554-2.73783-.289C272.81657,276.56678,273.59447,275.25034,274.33918,273.77819Z"/><path class="b" d="M214.76272,239.16443c-2.09229.38783-3.68676.68341-5.6371,1.04491C210.52654,238.57455,212.44539,238.20271,214.76272,239.16443Z"/><path class="b" d="M181.05725,252.6616c1.28866.04532,2.95317-.943,3.49593,1.36457A3.0108,3.0108,0,0,1,181.05725,252.6616Z"/><path class="b" d="M214.878,231.13925c.73571-1.05719,1.38939-2.24332,3.37657-2.40795C217.209,230.30229,216.29582,231.07843,214.878,231.13925Z"/><path class="b" d="M262.6411,288.9033c-.90144-1.40972-.87842-1.6274.34351-3.2493C263.30449,286.89452,263.264,287.27722,262.6411,288.9033Z"/><path class="b" d="M206.35442,238.90391c-.16769,2.03179-.16769,2.03179-2.00926,1.88858A1.71485,1.71485,0,0,1,206.35442,238.90391Z"/><path class="b" d="M220.91024,229.23894c.62548-.65846,1.251-1.31693,2.2315-2.34915C223.205,228.87633,222.447,229.415,220.91024,229.23894Z"/><path class="b" d="M237.32137,289.45743c-.4115.58084-.823,1.16167-1.27912,1.80552C235.30639,289.98743,235.30639,289.98743,237.32137,289.45743Z"/><path class="b" d="M269.68144,286.23776c-.642,1.21275-.642,1.21275-2.35482.73811C268.4521,286.62316,269.06678,286.43046,269.68144,286.23776Z"/><path class="b" d="M177.24229,252.352c.9649-.47834,1.44248-.71505,2.37549-1.1776C178.83853,252.45252,178.83853,252.45252,177.24229,252.352Z"/><path class="b" d="M226.788,298.44877c.51913-.93278.758-1.36208,1.0632-1.91052C228.2979,297.71025,228.2979,297.71025,226.788,298.44877Z"/><path class="b" d="M231.24477,292.22643c.459-.23932.918-.47864,1.55444-.81041-.009.49912.052.859-.02743.89336a11.33127,11.33127,0,0,1-1.33393.41542Z"/><path class="b" d="M174.66248,250.28269q.637.30106,1.274.60226l-.224.54513q-.68437-.23153-1.36871-.46317Q174.50314,250.62475,174.66248,250.28269Z"/><path class="b" d="M259.85453,288.25747c-.80318.28906-1.27627.45931-1.80031.64793-.036-.35673-.11208-.53391-.05381-.62628C258.35959,287.70986,258.802,287.40272,259.85453,288.25747Z"/><path class="b" d="M218.911,227.11544c-.47556-.02258-.95111-.04522-1.65436-.07867.63875-1.0993,1.17768-.82992,1.72566-.4801Z"/><path class="b" d="M256.44825,289.721c-.15947-.27054-.393-.53905-.34431-.60787a2.882,2.882,0,0,1,.62774-.52235q.22967.29994.45948.59967C256.96449,289.35231,256.73786,289.51409,256.44825,289.721Z"/><path class="b" d="M267.029,279.30779c-1.11005.52365-1.48612.349-1.56939-.84642C266.03321,278.77069,266.39759,278.96728,267.029,279.30779Z"/><path class="b" d="M166.52662,282.07238a13.52661,13.52661,0,0,1,1.04058-2.44385,1.35231,1.35231,0,0,1,1.24833-.29964,1.22593,1.22593,0,0,1,.1299,2.18851A11.80532,11.80532,0,0,1,166.52662,282.07238Z"/><path class="b" d="M171.47591,287.3556q-.05522-.7104-.11039-1.42091l.40512-.06924q.14509.68782.29019,1.37543Z"/></g></svg>