<svg xmlns="http://www.w3.org/2000/svg" viewBox="0 0 53.81962 97.98052"><defs><style>.a,.b{fill:#0059d6;}.a{opacity:0.3;}.c{fill:#0091d1;}.d{fill:#fff;}.d,.e{stroke:#ef4123;stroke-linejoin:round;stroke-width:2px;}.e{fill:none;stroke-linecap:round;}</style></defs><title>Asset 88500pp</title><circle class="a" cx="29.38644" cy="94.26909" r="3.71088"/><circle class="b" cx="1.82015" cy="56.74505" r="1.81988"/><circle class="a" cx="8.27105" cy="64.20358" r="2.57951"/><path class="c" d="M35.64864,50.37125a.806.806,0,1,1,.26953,1.58936l-1.58936.26953a.806.806,0,1,1-.26953-1.58936Zm-6.35746,1.07812a.806.806,0,0,1,.26953,1.58937l-9.53618,1.61718a.806.806,0,1,1-.26953-1.58936Zm7.16605,3.69a.806.806,0,0,1,.26953,1.58937l-1.58936.26953a.806.806,0,1,1-.26953-1.58937Zm-9.53618,1.61719a.806.806,0,0,1,.26953,1.58936L20.83312,59.424a.806.806,0,1,1-.26953-1.58936ZM29.319,61.25509a.806.806,0,1,1,.26953,1.58936l-7.94682,1.34766a.806.806,0,0,1-.26953-1.58937Zm10.41-20.5687,2.947,17.36693a12.00175,12.00175,0,0,0-1.66487-.1706L38.465,42.87445l-1.51312,2.13112a.806.806,0,0,1-1.12384.19058l-3.06058-2.173-2.173,3.06056a.806.806,0,0,1-1.12384.19059L26.41,44.10125l-2.173,3.06057a.806.806,0,0,1-1.12384.19058l-3.06057-2.173-2.173,3.06056a.806.806,0,0,1-1.12385.19059l-2.13112-1.51311L20.173,79.63573l1.51312-2.13112A.806.806,0,0,1,22.81,77.314l3.06057,2.173,2.173-3.06057a.806.806,0,0,1,1.12384-.19058l2.26128,1.60554a12.13765,12.13765,0,0,0,1.91013,1.78917l-.263.3688A.806.806,0,0,1,31.952,80.19L28.8914,78.017l-2.173,3.06058a.806.806,0,0,1-1.12384.19058l-3.06057-2.173-2.173,3.06057a.806.806,0,0,1-1.4519-.33187L12.7098,45.26841a.806.806,0,0,1,1.26131-.792l3.06058,2.173,2.173-3.06057a.806.806,0,0,1,1.12384-.19058l3.06057,2.173,2.17305-3.06056a.806.806,0,0,1,1.12384-.19058l3.06057,2.173,2.173-3.06056a.806.806,0,0,1,1.12384-.19059l3.06058,2.173,2.173-3.06057A.806.806,0,0,1,39.729,40.68639Z"/><circle class="d" cx="42.48026" cy="71.41484" r="10.33768"/><polyline class="e" points="46.903 72.762 42.826 73.453 41.616 66.319"/><path class="b" d="M18.906,19.99008c.11181-.50669-.1731-.88644-.79344-1.02334a2.20362,2.20362,0,0,0-.5254-.06464l-.35874,1.62569a1.99651,1.99651,0,0,0,.40985.12389C18.29945,20.7976,18.78158,20.55366,18.906,19.99008Z"/><path class="b" d="M22.92089,20.04568a2.62814,2.62814,0,0,0-.57429-.0755l-.79453,3.60044a2.30632,2.30632,0,0,0,.42741.12046,1.74728,1.74728,0,0,0,2.28718-1.516A1.61687,1.61687,0,0,0,22.92089,20.04568Z"/><path class="b" d="M34.21273,2.7826,21.95855.07842A3.33026,3.33026,0,0,0,17.9947,2.6091L15.34488,14.61693l-.31717-.07a1.33982,1.33982,0,0,0-1.59729,1.01983l-1.75121,7.93569A1.33972,1.33972,0,0,0,12.699,25.09968l.31716.07-.32111,1.45515a3.329,3.329,0,0,0,2.53068,3.96385L31.946,34.27841a3.32892,3.32892,0,0,0,3.9629-2.53089L40.22919,12.17ZM16.54719,17.75642a10.50319,10.50319,0,0,1,1.707.25751,2.70188,2.70188,0,0,1,1.58475.81192,1.64741,1.64741,0,0,1,.30694,1.40342,1.8014,1.8014,0,0,1-.7945,1.1948,2.61388,2.61388,0,0,1-1.91606.18485,3.29845,3.29845,0,0,1-.41958-.11774L16.58153,23.459l-1.23271-.272ZM32.38488,32.28974,15.66457,28.6a1.29,1.29,0,0,1-.9799-1.53613l.32111-1.45515,15.58675,3.4396a1.33973,1.33973,0,0,0,1.59733-1.0197l1.7512-7.93569a1.33979,1.33979,0,0,0-1.01981-1.59736L17.3345,15.056,19.98431,3.04816a1.28956,1.28956,0,0,1,1.535-.9791L33.03211,4.597l-.93888,4.25458a2.30688,2.30688,0,0,0,1.755,2.74893l4.17046.90777L33.9192,31.30838A1.28906,1.28906,0,0,1,32.38488,32.28974ZM20.10115,24.20951,21.294,18.80392a11.47763,11.47763,0,0,1,1.70709.25752,3.62877,3.62877,0,0,1,2.12432,1.08477,2.49388,2.49388,0,0,1,.47272,2.27974,2.85667,2.85667,0,0,1-1.40649,2.02719,4.04546,4.04546,0,0,1-2.69586.14981A11.03206,11.03206,0,0,1,20.10115,24.20951Zm9.61793-1.23386-.22337,1.01224-1.97627-.43611-.48838,2.21313-1.24916-.27566,1.21443-5.5033,3.364.74236-.22514,1.02021-2.11485-.46669-.27754,1.25771Z"/></svg>