<?xml version="1.0" encoding="UTF-8"?>
<svg id="Layer_1" data-name="Layer 1" xmlns="http://www.w3.org/2000/svg" viewBox="0 0 67 21">
  <defs>
    <style>
      .cls-1 {
        fill: #000000;
        stroke-width: 0px;
      }
    </style>
  </defs>
  <g id="layer1">
    <g id="g3562">
      <g id="g3528">
        <path id="path3530" class="cls-1" d="M32.43,14.21c-.18.13-.56.24-.97.24-.75,0-1.09-.58-1.08-1.25.01-.56.36-1.19,1.3-1.19h.75s0,2.19,0,2.19ZM31.66,8.04c-.89,0-1.69.25-2.52.66l-.21.11.5,1.12.28-.13c.58-.26,1.21-.44,1.77-.41.68.03.95.34.95.99v.38h-1.11c-1.78,0-2.89.94-2.92,2.41,0,1.39,1.16,2.59,2.77,2.59,1.3,0,2.41-.42,3.15-1.17v-3.97c0-1.93-1.38-2.57-2.67-2.57h0ZM58.1,14.45v1.18s-.39.08-.71.08c-1.49,0-2.38-.7-2.38-2.34v-6.92l1.87-.32v7.36c0,.57.16.91.94.97.11,0,.28,0,.28,0ZM49.88,10.95c.03-.72.33-1.46,1.07-1.46.83,0,.95.9.95,1.46h-2.02ZM51.35,14.44c-.51,0-.86-.17-1.08-.41-.34-.36-.49-1.11-.44-1.9h4.03v-.19c-.04-2.64-.94-3.84-2.9-3.84-2.2,0-3.05,2.02-3.07,3.92-.01,1.2.44,2.41,1.27,3.1.5.42,1.2.65,2.02.65.44,0,.9-.07,1.32-.2.81-.25,1.41-.68,1.41-.68l-.53-1.08c-.09.07-.9.63-2.01.63ZM47.22,14.46v1.16s-.35.07-.71.07c-1.53,0-2.44-.74-2.44-2.3v-6.96l1.92-.31v2.06h1.23v1.37h-1.23v3.91c0,.51.16.96.96.98.11,0,.25,0,.27,0h0ZM35.73,8.48l1.87-.31v7.44h-1.87v-7.14ZM36.68,5.2c.33,0,.63.13.85.36.22.23.33.53.32.84,0,.66-.52,1.18-1.19,1.18s-1.19-.52-1.19-1.19.54-1.19,1.2-1.19ZM43.57,8.29l-.53,1.18s-.3-.1-.76-.08c-.5.02-1.03.23-1.28.47v5.76h-1.91v-6.12c1.14-1.21,2.4-1.45,3.22-1.45.57,0,1.05.13,1.26.23Z"/>
      </g>
      <g id="g3532">
        <path id="path3534" class="cls-1" d="M19.72,2.33v.02h-.17v.02h-.19v.02h-.17v.02h-.14v.02h-.1v.02h-.1v.02h-.1v.02h-.1v.02h-.1v.02h-.1v.02h-.06v.02h-.08v.02h-.08v.02h-.08v.02h-.06v.02h-.08v.02h-.08v.02h-.08v.02h-.06v.02h-.06v.02h-.06v.02h-.06v.02h-.06v.02h-.06v.02h-.06v.02h-.06v.02h-.06v.02h-.06v.02h-.06v.02h-.06v.02h-.06v.02h-.06v.02h-.04v.02h-.06v.02h-.04v.02h-.06v.02h-.04v.02h-.06v.02h-.06v.02h-.04v.02h-.06v.02h-.04v.02h-.06v.02h-.04v.02h-.06v.02h-.04v.02h-.04v.02h-.04v.02h-.06v.02h-.04v.02h-.04v.02h-.04v.02h-.04v.02h-.06v.02h-.04v.02h-.04v.02h-.04v.02h-.04v.02h-.06v.02h-.04v.02h-.04v.02h-.04v.02h-.04v.02h-.04v.02h-.04v.02h-.04v.02h-.04v.02h-.04v.02h-.04v.02h-.04v.02h-.04v.02h-.04v.02h-.04v.02h-.04v.02h-.04v.02h-.02v.02h-.04v.02h-.04v.02h-.04v.02h-.04v.02h-.04v.02h-.04v.02h-.02v.02h-.04v.02h-.04v.02h-.04v.02h-.02v.02h-.04v.02h-.04v.02h-.04v.02h-.02v.02h-.04v.02h-.04v.02h-.04v.02h-.04v.02h-.02v.02h-.04v.02h-.04v.02h-.04v.02h-.02v.02h-.04v.02h-.02v.02h-.04v.02h-.02v.02h-.04v.02h-.04v.02h-.02v.02h-.04v.02h-.02v.02h-.04v.02h-.04v.02h-.02v.02h-.04v.02h-.02v.02h-.04v.02h-.02v.02h-.04v.02h-.04v.02h-.02v.02h-.04v.02h-.02v.02h-.04v.02h-.02v.02h-.04v.02h-.02v.02h-.02v.02h-.04v.02h-.02v.02h-.04v.02h-.02v.02h-.04v.02h-.02v.02h-.02v.02h-.04v.02h-.02v.02h-.04v.02h-.02v.02h-.04v.02h-.02v.02h-.02v.02h-.04v.02h-.02v.02h-.04v.02h-.02v.02h-.02v.02h-.04v.02h-.02v.02h-.02v.02h-.04v.02h-.02v.02h-.02v.02h-.02v.02h-.04v.02h-.02v.02h-.02v.02h-.04v.02h-.02v.02h-.02v.02h-.02v.02h-.04v.02h-.02v.02h-.02v.02h-.04v.02h-.02v.02h-.02v.02h-.04v.02h-.02v.02h-.02v.02h-.02v.02h-.02v.02h-.02v.02h-.04v.02h-.02v.02h-.02v.02h-.02v.02h-.02v.02h-.02v.02h-.04v.02h-.02v.02h-.02v.02h-.02v.02h-.02v.02h-.02v.02h-.04v.02h-.02v.02h-.02v.02h-.02v.02h-.02v.02h-.02v.02h-.04v.02h-.02v.02h-.02v.02h-.02v.02h-.02v.02h-.02v.02h-.02v.02h-.02v.02h-.02v.02h-.02v.02h-.02v.02h-.02v.02h-.02v.02h-.02v.02h-.02v.02h-.02v.02h-.02v.02h-.02v.02h-.02v.02h-.02v.02h-.02v.02h-.04v.02h-.02v.02h-.02v.02h-.02v.02h-.02v.02h-.02v.02h-.02v.02h-.02v.02h-.02v.02h-.02v.02h-.02v.04h-.02v.02h-.02v.02h-.02v.02h-.02v.02h-.02v.02h-.02v.02h-.02v.02h-.02v.02h-.02v.02h-.02v.04h-.02v.02h-.02v.02h-.02v.02h-.02v.02h-.02v.02h-.02v.02h-.02v.02h-.02v.02h-.02v.04h-.02v.02h-.02v.02h-.02v.02h-.02v.02h-.02v.02h-.02v.04h-.02v.02h-.02v.02h-.02v.04h-.02v.02h-.02v.02h-.02v.02h-.02v.04h-.02v.02h-.02v.02h-.02v.04h-.02v.02h-.02v.02h-.02v.02h-.02v.04h-.02v.02h-.02v.02h-.02v.04h-.02v.02h-.02v.02h-.02v.04h-.02v.02h-.02v.04h-.02v.02h-.02v.02h-.02v.04h-.02v.02h-.02v.04h-.02v.02h-.02v.04h-.02v.04h-.02v.02h-.02v.04h-.02v.02h-.02v.04h-.02v.04h-.02v.02h-.02v.04h-.02v.02h-.02v.04h-.02v.04h-.02v.04h-.02v.04h-.02v.02h-.02v.04h-.02v.04h-.02v.04h-.02v.04h-.02v.04h-.02v.04h-.02v.04h-.02v.04h-.02v.04h-.02v.06h-.02v.04h-.02v.04h-.02v.06h-.02v.04h-.02v.06h-.02v.06h-.02v.04h-.02v.08h-.02v.06h-.02v.06h-.02v.08h-.02v.1h-.02v.08h-.02v.14h-.02v.25h-.02v.23h.02v.21h.02v.1h.02v.08h.02v.08h.02v.06h.02v.06h.02v.06h.02v.04h.02v.04h.02v.04h.02v.04h.02v.04h.02v.04h.02v.04h.02v.02h.02v.04h.02v.02h.02v.04h.02v.02h.02v.04h.02v.02h.02v.02h.02v.02h.02v.02h.02v.02h.02v.02h.02v.02h.02v.02h.02v.02h.02v.02h.02v.02h.02v.02h.02v.02h.02v.02h.02v.02h.02v.02h.02v.02h.02v.02h.02v.02h.04v.02h.02v.02h.04v.02h.02v.02h.04v.02h.02v.02h.04v.02h.02v.02h.04v.02h.02v.02h.04v.02h.02v.02h.04v.02h.04v.02h.06v.02h.04v.02h.04v.02h.06v.02h.04v.02h.04v.02h.08v.02h.1v.02h.1v.02h.1v.02h.52v-.02h.14v-.02h.12v-.02h.08v-.02h.08v-.02h.06v-.02h.06v-.02h.08v-.02h.06v-.02h.04v-.02h.06v-.02h.04v-.02h.04v-.02h.06v-.02h.04v-.02h.04v-.02h.04v-.02h.04v-.02h.04v-.02h.04v-.02h.04v-.02h.04v-.02h.04v-.02h.04v-.02h.04v-.02h.04v-.02h.02v-.02h.04v-.02h.02v-.02h.04v-.02h.04v-.02h.02v-.02h.04v-.02h.04v-.02h.02v-.02h.04v-.02h.02v-.02h.04v-.02h.02v-.02h.04v-.02h.02v-.02h.04v-.02h.02v-.02h.04v-.02h.02v-.02h.04v-.02h.02v-.02h.04v-.02h.02v-.02h.02v-.02h.04v-.02h.02v-.02h.02v-.02h.04v-.02h.02v-.02h.04v-.02h.02v-.02h.02v-.02h.04v-.02h.02v-.02h.02v-.02h.04v-.02h.02v-.02h.02v-.02h.04v-.02h.02v-.02h.02v-.02h.04v-.02h.02v-.02h.02v-.02h.04v-.02h.02v-.02h.02v-.02h.02v-.02h.04v-.02h.02v-.02h.02v-.02h.04v-.02h.02v-.02h.02v-.02h.04v-.02h.02v-.02h.02v-.02h.02v-.02h.04v-.02h.02v-.02h.02v-.02h.04v-.02h.02v-.02h.02v-.02h.04v-.02h.02v-.02h.02v-.02h.04v-.02h.02v-.02h.02v-.02h.04v-.02h.02v-.02h.02v-.02h.04v-.02h.02v-.02h.04v-.02h.02v-.02h.02v-.02h.04v-.02h.02v-.02h.04v-.02h.02v-.02h.04v-.02h.02v-.02h.04v-.02h.02v-.02h.04v-.02h.02v-.02h.02v-.02h.04v-.02h.02v-.02h.04v-.02h.02v-.02h.04v-.02h.02v-.02h.04v-.02h.02v-.02h.04v-.02h.02v-.02h.04v-.02h.02v-.02h.04v-.02h.02v-.02h.04v-.02h.02v-.02h.04v-.02h.02v-.02h.02v-.02h.04v-.02h.02v-.02h.04v-.02h.02v-.02h.04v-.02h.02v-.02h.04v-.02h.02v-.02h.04v-.02h.02v-.02h.04v-.02h.02v-.02h.04v-.02h.02v-.02h.04v-.02h.02v-.02h.04v-.02h.02v-.02h.04v-.02h.02v-.02h.04v-.02h.02v-.02h.04v-.02h.02v-.02h.04v-.02h.02v-.02h.04v-.02h.02v-.02h.04v-.02h.02v-.02h.04v-.02h.02v-.02h.04v-.02h.02v-.02h.04v-.02h.02v-.02h.04v-.02h.04v-.02h.02v-.02h.04v-.02h.02v-.02h.04v-.02h.02v-.02h.04v-.02h.02v-.02h.04v-.02h.02v-.02h.04v-.02h.04v-.02h.02v-.02h.04v-.02h.02v-.02h.04v-.02h.04v-.02h.02v-.02h.04v-.02h.02v-.02h.04v-.02h.02v-.02h.04v-.02h.04v-.02h.02v-.02h.04v-.02h.04v-.02h.02v-.02h.04v-.02h.04v-.02h.02v-.02h.04v-.02h.04v-.02h.02v-.02h.04v-.02h.04v-.02h.02v-.02h.04v-.02h.04v-.02h.02v-.02h.04v-.02h.04v-.02h.04v-.02h.02v-.02h.04v-.02h.04v-.02h.04v-.02h.02v-.02h.04v-.02h.04v-.02h.04v-.02h.04v-.02h.02v-.02h.04v-.02h.04v-.02h.04v-.02h.04v-.02h.04v-.02h.04v-.02h.04v-.02h.04v-.02h.04v-.02h.04v-.02h.04v-.02h.04v-.02h.02v-.02h.06v-.02h.04v-.02h.04v-.02h.04v-.02h.04v-.02h.06v-.02h.04v-.02h.04v-.02h.04v-.02h.04v-.02h.06v-.02h.04v-.02h.06v-.02h.04v-.02h.06v-.02h.06v-.02h.04v-.02h.06v-.02h.04v-.02h.06v-.02h.08v-.02h.06v-.02h.08v-.02h.06v-.02h.08v-.02h.08v-.02h.1v-.02h.12v-.02h.1v-.02h.35v-.02h.04v.02h.19v.02h.17v.02h.06v.02h.06v.02h.06v.02h.04v.02h.06v.02h.04v.02h.04v.02h.02v.02h.04v.02h.04v.02h.02v.02h.04v.02h.02v.02h.04v.02h.02v.02h.02v.02h.02v.02h.02v.02h.02v.02h.02v.02h.02v.02h.02v.02h.02v.02h.02v.02h.02v.04h.02v.02h.02v.02h.02v.04h.02v.02h.02v.04h.02v.02h.02v.04h.02v.04h.02v.02h.02v.04h.02v.04h.02v.04h.02v.04h.02v.06h.02v.04h.02v.06h.02v.04h.02v.06h.02v.06h.02v.08h.02v.06h.02v.08h.02v.12h.02v.1h.02v.23h.02v.52h-.02v.17h-.02v.19h-.02v.1h-.02v.1h-.02v.08h-.02v.1h-.02v.08h-.02v.08h-.02v.06h-.02v.06h-.02v.06h-.02v.08h-.02v.06h-.02v.06h-.02v.06h-.02v.04h-.02v.06h-.02v.04h-.02v.06h-.02v.04h-.02v.06h-.02v.04h-.02v.06h-.02v.04h-.02v.04h-.02v.04h-.02v.04h-.02v.06h-.02v.04h-.02v.04h-.02v.04h-.02v.04h-.02v.02h-.02v.04h-.02v.04h-.02v.04h-.02v.04h-.02v.02h-.02v.04h-.02v.04h-.02v.02h-.02v.04h-.02v.04h-.02v.02h-.02v.04h-.02v.04h-.02v.02h-.02v.04h-.02v.02h-.02v.04h-.02v.02h-.02v.04h-.02v.02h-.02v.04h-.02v.02h-.02v.04h-.02v.02h-.02v.04h-.02v.02h-.02v.02h-.02v.04h-.02v.02h-.02v.02h-.02v.04h-.02v.02h-.02v.02h-.02v.04h-.02v.02h-.02v.04h-.02v.02h-.02v.02h-.02v.02h-.02v.04h-.02v.02h-.02v.02h-.02v.02h-.02v.04h-.02v.02h-.02v.02h-.02v.02h-.02v.04h-.02v.02h-.02v.02h-.02v.02h-.02v.02h-.02v.04h-.02v.02h-.02v.02h-.02v.02h-.02v.02h-.02v.04h-.02v.02h-.02v.02h-.02v.02h-.02v.02h-.02v.02h-.02v.02h-.02v.02h-.02v.04h-.02v.02h-.02v.02h-.02v.02h-.02v.02h-.02v.02h-.02v.02h-.02v.02h-.02v.02h-.02v.04h-.02v.02h-.02v.02h-.02v.02h-.02v.02h-.02v.02h-.02v.02h-.02v.02h-.02v.02h-.02v.02h-.02v.02h-.02v.02h-.02v.02h-.02v.02h-.02v.02h-.02v.02h-.02v.02h-.02v.02h-.02v.02h-.02v.02h-.02v.02h-.02v.02h-.02v.02h-.02v.02h-.02v.02h-.02v.02h-.02v.02h-.02v.02h-.02v.02h-.02v.02h-.02v.02h-.02v.02h-.02v.02h-.02v.02h-.02v.02h-.02v.02h-.02v.02h-.02v.02h-.02v.02h-.02v.02h-.02v.02h-.02v.02h-.02v.02h-.04v.02h-.02v.02h-.02v.02h-.02v.02h-.02v.02h-.02v.02h-.02v.02h-.02v.02h-.02v.02h-.02v.02h-.04v.02h-.02v.02h-.02v.02h-.02v.02h-.02v.02h-.02v.02h-.02v.02h-.02v.02h-.04v.02h-.02v.02h-.02v.02h-.02v.02h-.02v.02h-.02v.02h-.02v.02h-.04v.02h-.02v.02h-.02v.02h-.02v.02h-.02v.02h-.04v.02h-.02v.02h-.02v.02h-.02v.02h-.02v.02h-.04v.02h-.02v.02h-.02v.02h-.02v.02h-.02v.02h-.04v.02h-.02v.02h-.02v.02h-.02v.02h-.04v.02h-.02v.02h-.02v.02h-.02v.02h-.04v.02h-.02v.02h-.02v.02h-.02v.02h-.04v.02h-.02v.02h-.02v.02h-.02v.02h-.04v.02h-.02v.02h-.02v.02h-.04v.02h-.02v.02h-.02v.02h-.04v.02h-.02v.02h-.02v.02h-.04v.02h-.02v.02h-.02v.02h-.04v.02h-.02v.02h-.02v.02h-.04v.02h-.02v.02h-.02v.02h-.04v.02h-.02v.02h-.04v.02h-.02v.02h-.02v.02h-.04v.02h-.02v.02h-.04v.02h-.02v.02h-.04v.02h-.02v.02h-.02v.02h-.04v.02h-.02v.02h-.04v.02h-.02v.02h-.04v.02h-.02v.02h-.04v.02h-.02v.02h-.04v.02h-.02v.02h-.04v.02h-.02v.02h-.04v.02h-.02v.02h-.04v.02h-.04v.02h-.02v.02h-.04v.02h-.02v.02h-.04v.02h-.04v.02h-.02v.02h-.04v.02h-.02v.02h-.04v.02h-.04v.02h-.04v.02h-.02v.02h-.04v.02h-.04v.02h-.02v.02h-.04v.02h-.04v.02h-.04v.02h-.02v.02h-.04v.02h-.04v.02h-.04v.02h-.04v.02h-.04v.02h-.02v.02h-.04v.02h-.04v.02h-.04v.02h-.04v.02h-.04v.02h-.04v.02h-.04v.02h-.04v.02h-.06v.02h-.04v.02h-.04v.02h-.04v.02h-.04v.02h-.06v.02h-.04v.02h-.06v.02h-.04v.02h-.06v.02h-.06v.02h-.04v.02h-.08v.02h-.06v.02h-.06v.02h-.08v.02h-.1v.02h-.14v.02h-.21v-.02h-.08v-.02h-.06v-.02h-.04v-.02h-.04v-.02h-.02v-.02h-.02v-.02h-.02v-.02h-.02v-.04h-.02v-.04h-.02v-.04h-.02v-.06h-.02v-.21h.02v-.1h.02v-.06h.02v-.06h.02v-.04h.02v-.04h.02v-.04h.02v-.04h.02v-.04h.02v-.04h.02v-.02h.02v-.04h.02v-.04h.02v-.02h.02v-.04h.02v-.02h.02v-.04h.02v-.02h.02v-.04h.02v-.02h.02v-.02h.02v-.04h.02v-.02h.02v-.02h.02v-.04h.02v-.02h.02v-.02h.02v-.04h.02v-.02h.02v-.02h.02v-.02h.02v-.02h.02v-.04h.02v-.02h.02v-.02h.02v-.02h.02v-.02h.02v-.02h.02v-.04h.02v-.02h.02v-.02h.02v-.02h.02v-.02h.02v-.02h.02v-.02h.02v-.02h.02v-.02h.02v-.02h.02v-.04h.02v-.02h.02v-.02h.02v-.02h.02v-.02h.02v-.02h.02v-.02h.02v-.02h.02v-.02h.02v-.02h.02v-.02h.02v-.02h.02v-.02h.02v-.02h.02v-.02h.02v-.02h.02v-.02h.02v-.02h.02v-.02h.02v-.02h.02v-.02h.02v-.02h.02v-.02h.02v-.02h.02v-.02h.02v-.02h.02v-.02h.02v-.02h.02v-.02h.02v-.02h.02v-.02h.02v-.02h.02v-.02h.02v-.02h.02v-.02h.02v-.02h.02v-.02h.02v-.02h.02v-.02h.02v-.02h.02v-.02h.02v-.02h.02v-.02h.02v-.02h.02v-.02h.02v-.02h.02v-.02h.02v-.02h.02v-.02h.02v-.02h.02v-.02h.02v-.02h.02v-.02h.02v-.02h.04v-.02h.02v-.04h.02v-.02h.02v-.02h.02v-.02h.02v-.02h.02v-.02h.02v-.02h.02v-.02h.02v-.02h.02v-.02h.02v-.02h.02v-.04h.02v-.02h.02v-.02h.02v-.02h.02v-.02h.02v-.02h.02v-.04h.02v-.02h.02v-.02h.02v-.04h.02v-.02h.02v-.02h.02v-.02h.02v-.04h.02v-.02h.02v-.04h.02v-.02h.02v-.04h.02v-.04h.02v-.02h.02v-.04h.02v-.04h.02v-.02h.02v-.06h.02v-.06h.02v-.06h.02v-.04h.02v-.31h-.02v-.08h-.02v-.06h-.02v-.02h-.02v-.04h-.02v-.02h-.02v-.04h-.02v-.02h-.02v-.02h-.02v-.02h-.02v-.02h-.02v-.02h-.02v-.02h-.02v-.02h-.02v-.02h-.04v-.02h-.02v-.02h-.04v-.02h-.02v-.02h-.04v-.02h-.04v-.02h-.04v-.02h-.04v-.02h-.06v-.02h-.06v-.02h-.04v-.02h-.06v-.02h-.1v-.02h-.08v-.02h-.12v-.02h-.19v-.02h-.02v.02h-.37v.02h-.12v.02h-.1v.02h-.06v.02h-.06v.02h-.08v.02h-.06v.02h-.04v.02h-.04v.02h-.04v.02h-.06v.02h-.04v.02h-.04v.02h-.04v.02h-.04v.02h-.02v.02h-.04v.02h-.02v.02h-.04v.02h-.02v.02h-.04v.02h-.02v.02h-.02v.02h-.04v.02h-.02v.02h-.04v.02h-.02v.02h-.02v.02h-.02v.02h-.02v.02h-.02v.02h-.04v.02h-.02v.02h-.02v.02h-.02v.02h-.02v.02h-.02v.02h-.02v.02h-.02v.02h-.02v.02h-.02v.02h-.02v.02h-.02v.02h-.02v.02h-.02v.02h-.02v.02h-.02v.04h-.02v.02h-.02v.02h-.02v.02h-.02v.02h-.02v.04h-.02v.02h-.02v.02h-.02v.02h-.02v.02h-.02v.02h-.02v.04h-.02v.02h-.02v.04h-.02v.02h-.02v.04h-.02v.02h-.02v.04h-.02v.02h-.02v.04h-.02v.02h-.02v.04h-.02v.02h-.02v.04h-.02v.02h-.02v.04h-.02v.02h-.02v.04h-.02v.04h-.02v.04h-.02v.04h-.02v.04h-.02v.04h-.02v.04h-.02v.02h-.02v.04h-.02v.04h-.02v.04h-.02v.04h-.02v.04h-.02v.04h-.02v.04h-.02v.04h-.02v.04h-.02v.06h-.02v.04h-.02v.04h-.02v.06h-.02v.04h-.02v.04h-.02v.06h-.02v.04h-.02v.04h-.02v.06h-.02v.04h-.02v.06h-.02v.06h-.02v.06h-.02v.06h-.02v.08h-.02v.06h-.02v.06h-.02v.08h-.02v.14h-.02v.14h-.02v.17h-.02v.02h.02v.41h.02v.08h.02v.08h.02v.1h.02v.08h.02v.04h.02v.04h.02v.06h.02v.04h.02v.04h.02v.04h.02v.04h.02v.04h.02v.02h.02v.04h.02v.02h.02v.04h.02v.02h.02v.02h.02v.04h.02v.02h.02v.02h.02v.04h.04v.02h.02v.02h.02v.02h.02v.02h.02v.02h.02v.02h.02v.02h.02v.02h.02v.02h.02v.02h.02v.02h.04v.02h.02v.02h.04v.02h.02v.02h.04v.02h.02v.02h.04v.02h.02v.02h.04v.02h.04v.02h.04v.02h.04v.02h.06v.02h.06v.02h.06v.02h.1v.02h.12v.02h.21v.02h.33v-.02h.25v-.02h.14v-.02h.12v-.02h.1v-.02h.1v-.02h.08v-.02h.08v-.02h.08v-.02h.06v-.02h.06v-.02h.08v-.02h.06v-.02h.06v-.02h.06v-.02h.06v-.02h.04v-.02h.06v-.02h.06v-.02h.04v-.02h.06v-.02h.04v-.02h.06v-.02h.04v-.02h.06v-.02h.04v-.02h.04v-.02h.04v-.02h.06v-.02h.04v-.02h.04v-.02h.04v-.02h.04v-.02h.04v-.02h.04v-.02h.06v-.02h.04v-.02h.04v-.02h.04v-.02h.04v-.02h.02v-.02h.04v-.02h.04v-.02h.04v-.02h.04v-.02h.04v-.02h.04v-.02h.04v-.02h.02v-.02h.04v-.02h.04v-.02h.04v-.02h.04v-.02h.02v-.02h.04v-.02h.04v-.02h.04v-.02h.02v-.02h.04v-.02h.04v-.02h.02v-.02h.04v-.02h.04v-.02h.02v-.02h.04v-.02h.04v-.02h.02v-.02h.04v-.02h.02v-.02h.04v-.02h.04v-.02h.02v-.02h.04v-.02h.02v-.02h.04v-.02h.04v-.02h.02v-.02h.04v-.02h.02v-.02h.04v-.02h.02v-.02h.04v-.02h.02v-.02h.04v-.02h.02v-.02h.04v-.02h.02v-.02h.04v-.02h.02v-.02h.04v-.02h.02v-.02h.02v-.02h.04v-.02h.02v-.02h.04v-.02h.02v-.02h.04v-.02h.02v-.02h.04v-.02h.02v-.02h.02v-.02h.04v-.02h.02v-.02h.02v-.02h.04v-.02h.02v-.02h.04v-.02h.02v-.02h.02v-.02h.04v-.02h.02v-.02h.02v-.02h.04v-.02h.02v-.02h.04v-.02h.02v-.02h.02v-.02h.04v-.02h.02v-.02h.02v-.02h.04v-.02h.02v-.02h.02v-.02h.02v-.02h.04v-.02h.02v-.02h.02v-.02h.04v-.02h.02v-.02h.02v-.02h.04v-.02h.02v-.02h.02v-.02h.02v-.02h.04v-.02h.02v-.02h.02v-.02h.04v-.02h.02v-.02h.02v-.02h.02v-.02h.04v-.02h.02v-.02h.02v-.02h.02v-.02h.04v-.02h.02v-.02h.02v-.02h.02v-.02h.04v-.02h.02v-.02h.02v-.02h.02v-.02h.02v-.02h.04v-.02h.02v-.02h.02v-.02h.02v-.02h.04v-.02h.02v-.02h.02v-.02h.02v-.02h.02v-.02h.04v-.02h.02v-.02h.02v-.02h.02v-.02h.02v-.02h.04v-.02h.02v-.02h.02v-.02h.02v-.02h.02v-.02h.02v-.02h.04v-.02h.02v-.02h.02v-.02h.02v-.02h.02v-.02h.02v-.02h.04v-.02h.02v-.02h.02v-.02h.02v-.02h.02v-.02h.02v-.02h.02v-.02h.04v-.02h.02v-.02h.02v-.02h.02v-.02h.02v-.02h.02v-.02h.02v-.02h.02v-.02h.02v-.02h.04v-.02h.02v-.02h.02v-.02h.02v-.02h.02v-.02h.02v-.02h.02v-.02h.02v-.02h.02v-.02h.02v-.02h.02v-.02h.02v-.02h.02v-.02h.02v-.02h.02v-.02h.02v-.02h.02v-.02h.02v-.02h.02v-.02h.02v-.02h.02v-.02h.02v-.02h.02v-.02h.02v-.02h.02v-.02h.02v-.02h.02v-.02h.02v-.02h.02v-.02h.02v-.02h.02v-.02h.02v-.02h.02v-.02h.02v-.02h.02v-.02h.02v-.02h.02v-.04h.02v-.02h.02v-.02h.02v-.02h.02v-.02h.02v-.02h.02v-.02h.02v-.02h.02v-.02h.02v-.02h.02v-.04h.02v-.02h.02v-.02h.02v-.02h.02v-.02h.02v-.02h.02v-.04h.02v-.02h.02v-.02h.02v-.02h.02v-.02h.02v-.02h.02v-.04h.02v-.02h.02v-.02h.02v-.02h.02v-.02h.02v-.04h.02v-.02h.02v-.02h.02v-.04h.02v-.02h.02v-.02h.02v-.02h.02v-.04h.02v-.02h.02v-.02h.02v-.02h.02v-.04h.02v-.02h.02v-.02h.02v-.04h.02v-.02h.02v-.02h.02v-.04h.02v-.02h.02v-.02h.02v-.04h.02v-.02h.02v-.04h.02v-.02h.02v-.02h.02v-.04h.02v-.02h.02v-.04h.02v-.02h.02v-.02h.02v-.04h.02v-.02h.02v-.04h.02v-.02h.02v-.04h.02v-.02h.02v-.04h.02v-.02h.02v-.04h.02v-.02h.02v-.04h.02v-.02h.02v-.04h.02v-.04h.02v-.02h.02v-.04h.02v-.02h.02v-.04h.02v-.04h.02v-.02h.02v-.04h.02v-.04h.02v-.02h.02v-.04h.02v-.04h.02v-.02h.02v-.04h.02v-.04h.02v-.04h.02v-.02h.02v-.04h.02v-.04h.02v-.04h.02v-.04h.02v-.04h.02v-.04h.02v-.02h.02v-.04h.02v-.04h.02v-.04h.02v-.04h.02v-.04h.02v-.04h.02v-.04h.02v-.04h.02v-.04h.02v-.06h.02v-.04h.02v-.04h.02v-.04h.02v-.04h.02v-.04h.02v-.04h.02v-.06h.02v-.04h.02v-.06h.02v-.04h.02v-.06h.02v-.04h.02v-.06h.02v-.04h.02v-.06h.02v-.04h.02v-.06h.02v-.06h.02v-.06h.02v-.06h.02v-.06h.02v-.06h.02v-.06h.02v-.06h.02v-.06h.02v-.08h.02v-.08h.02v-.06h.02v-.08h.02v-.08h.02v-.08h.02v-.1h.02v-.1h.02v-.1h.02v-.1h.02v-.12h.02v-.17h.02v-.17h.02v-.27h.02v-.64h-.02v-.39h-.02v-.17h-.02v-.12h-.02v-.12h-.02v-.12h-.02v-.12h-.02v-.1h-.02v-.06h-.02v-.06h-.02v-.08h-.02v-.06h-.02v-.06h-.02v-.08h-.02v-.06h-.02v-.06h-.02v-.06h-.02v-.04h-.02v-.04h-.02v-.06h-.02v-.04h-.02v-.04h-.02v-.04h-.02v-.06h-.02v-.04h-.02v-.04h-.02v-.04h-.02v-.04h-.02v-.04h-.02v-.04h-.02v-.02h-.02v-.04h-.02v-.02h-.02v-.04h-.02v-.04h-.02v-.02h-.02v-.04h-.02v-.04h-.02v-.02h-.02v-.04h-.02v-.02h-.02v-.04h-.02v-.02h-.02v-.02h-.02v-.04h-.02v-.02h-.02v-.02h-.02v-.02h-.02v-.04h-.02v-.02h-.02v-.02h-.02v-.02h-.02v-.04h-.02v-.02h-.02v-.02h-.02v-.02h-.02v-.02h-.02v-.04h-.02v-.02h-.02v-.02h-.02v-.02h-.02v-.02h-.02v-.02h-.02v-.02h-.04v-.02h-.02v-.02h-.02v-.02h-.02v-.02h-.02v-.02h-.02v-.02h-.02v-.02h-.02v-.02h-.02v-.02h-.02v-.02h-.02v-.02h-.02v-.02h-.02v-.02h-.04v-.02h-.02v-.02h-.02v-.02h-.04v-.02h-.02v-.02h-.02v-.02h-.04v-.02h-.02v-.02h-.02v-.02h-.04v-.02h-.02v-.02h-.02v-.02h-.02v-.02h-.04v-.02h-.04v-.02h-.02v-.02h-.04v-.02h-.04v-.02h-.02v-.02h-.04v-.02h-.02v-.02h-.04v-.02h-.04v-.02h-.02v-.02h-.04v-.02h-.04v-.02h-.04v-.02h-.04v-.02h-.04v-.02h-.04v-.02h-.04v-.02h-.04v-.02h-.04v-.02h-.04v-.02h-.04v-.02h-.04v-.02h-.06v-.02h-.04v-.02h-.06v-.02h-.04v-.02h-.06v-.02h-.06v-.02h-.04v-.02h-.06v-.02h-.06v-.02h-.06v-.02h-.06v-.02h-.08v-.02h-.06v-.02h-.06v-.02h-.08v-.02h-.08v-.02h-.08v-.02h-.1v-.02h-.08v-.02h-.1v-.02h-.12v-.02h-.12v-.02h-.12v-.02h-.19v-.02h-.19v-.02h-1.01Z"/>
      </g>
      <g id="g3536">
        <path id="path3538" class="cls-1" d="M14.65,17.18v.04h.02v-.04h-.02ZM14.63,17.22v.04h.02v-.04h-.02ZM14.61,17.26v.04h.02v-.04h-.02ZM14.59,17.33v.04h.02v-.04h-.02ZM14.57,17.39v.04h.02v-.04h-.02ZM14.55,17.49v.04h.02v-.04h-.02Z"/>
      </g>
      <g id="g3540">
        <path id="path3542" class="cls-1" d="M14.67,17.14v.04h.02v-.04h-.02Z"/>
      </g>
      <g id="g3544">
        <path id="path3546" class="cls-1" d="M14.82,16.87v.04h.02v-.04h-.02Z"/>
      </g>
      <g id="g3548">
        <path id="path3550" class="cls-1" d="M14.82,16.89v.02h-.02v.02h-.02v.04h-.02v.04h-.02v.02h-.02v.04h-.02v.04h-.02v.04h.02v-.02h.02v-.04h.02v-.04h.02v-.02h.02v-.04h.02v-.04h.02v-.02h.02v-.04h-.02Z"/>
      </g>
      <g id="g3552">
        <path id="path3554" class="cls-1" d="M14.65,17.16v.04h.02v-.02h.02v-.02h-.04Z"/>
      </g>
    </g>
  </g>
</svg>
