<svg xmlns="http://www.w3.org/2000/svg" width="199" height="58" viewBox="0 0 199 58" fill="none"><path d="M66.6743 2.94673C66.6743 2.23395 66.3881 1.56869 65.915 1.08162C65.436 0.594557 64.7935 0.291626 64.0634 0.291626C63.3742 0.291626 62.7375 0.588617 62.2702 1.07568C61.8029 1.56275 61.5109 2.22801 61.5109 2.94673V18.1646L60.1675 17.2974C57.9479 15.8659 55.3721 14.9927 52.5801 14.9927C48.8536 14.9927 45.4601 16.543 42.9952 19.0555C40.5303 21.5622 39 25.0132 39 28.8028C39 32.6281 40.5303 36.0732 42.9893 38.5738C45.4542 41.0745 48.8478 42.6129 52.5743 42.6129C55.4247 42.6129 58.1115 41.7398 60.2434 40.2192L61.2189 39.5242L61.581 40.6765C61.9256 41.7635 62.8894 42.4941 64.0575 42.5001C65.5236 42.5001 66.6684 41.324 66.6684 39.9044V2.94673H66.6743ZM58.5379 34.8555C57.0192 36.4058 54.9048 37.3621 52.586 37.3621C50.2613 37.3621 48.1527 36.4058 46.6341 34.8555C45.1096 33.3111 44.1692 31.1609 44.1692 28.8028C44.1692 26.4388 45.1096 24.2945 46.6341 22.7501C48.1527 21.2058 50.2671 20.2435 52.586 20.2435C54.9107 20.2435 57.0192 21.1998 58.5379 22.7501C60.0565 24.2945 61.0027 26.4447 61.0027 28.8028C60.9969 31.1609 60.0565 33.3111 58.5379 34.8555Z" fill="#F05B2B"></path><path d="M72.118 5.84961C72.118 6.55051 72.4101 7.20983 72.9066 7.70284C73.403 8.19584 74.0806 8.49878 74.8457 8.50471C75.535 8.50471 76.1892 8.20772 76.674 7.71472C77.1588 7.22171 77.4508 6.55645 77.4508 5.85555V5.55856C77.4508 4.78044 77.1471 4.11518 76.674 3.62217C76.195 3.13511 75.5467 2.84406 74.8457 2.84406C74.0747 2.84406 73.3972 3.14699 72.9066 3.62811C72.4218 4.11518 72.1239 4.78044 72.118 5.55262V5.84961Z" fill="#F05B2B"></path><path d="M77.4508 17.4689C77.4508 16.7264 77.1529 16.073 76.674 15.5919C76.195 15.1108 75.5408 14.8197 74.8399 14.8197C74.0689 14.8197 73.3855 15.1226 72.9007 15.5978C72.4101 16.0789 72.118 16.7323 72.118 17.4689V39.8977C72.118 40.6402 72.4159 41.3114 72.9066 41.8044C73.3972 42.2974 74.0747 42.6062 74.8399 42.6062C75.5291 42.6062 76.1833 42.3093 76.6681 41.8103C77.1529 41.3114 77.4508 40.6342 77.4508 39.8977V17.4689Z" fill="#F05B2B"></path><path d="M109.126 17.5794C109.126 16.8666 108.84 16.2014 108.367 15.7143C107.894 15.2272 107.245 14.9243 106.521 14.9243C105.949 14.9243 105.435 15.1144 105.002 15.4411C104.57 15.7678 104.226 16.243 104.027 16.7835L103.647 17.817L102.736 17.229C100.709 15.9222 98.3028 15.2154 95.7795 15.2154C92.0764 15.2154 88.712 16.7419 86.2705 19.2129C83.829 21.6838 82.3162 25.0874 82.3162 28.8532C82.3162 32.619 83.829 36.0166 86.2705 38.4935C88.712 40.9645 92.0764 42.491 95.7795 42.491C98.2444 42.491 100.604 41.7783 102.59 40.5844L103.916 39.7825V43.9047C103.916 46.3222 102.964 48.514 101.41 50.0881C99.8623 51.6681 97.707 52.6362 95.3298 52.6362C92.8649 52.6362 90.4409 51.6087 88.8288 49.6426L88.8347 49.6485C88.3207 49.0308 87.5906 48.716 86.8663 48.71C86.2588 48.71 85.6689 48.9239 85.1841 49.3753L85.1666 49.3931L85.1432 49.4109C84.5533 49.898 84.2554 50.6108 84.2554 51.3711C84.2554 51.9947 84.4657 52.6303 84.8745 53.153C87.5088 56.2536 91.3054 57.9999 95.3356 57.9999C99.1497 57.9999 102.596 56.4199 105.096 53.8599C107.596 51.2998 109.138 47.7834 109.138 43.8988V17.5794H109.126ZM101.527 34.7217C100.061 36.2305 98.0225 37.1808 95.7737 37.1808C91.2295 37.1749 87.5847 33.415 87.5847 28.8532C87.5847 26.5485 88.4959 24.4577 89.9795 22.955C91.4573 21.4522 93.5133 20.5196 95.7737 20.5256C98.0166 20.5256 100.055 21.4581 101.521 22.9609C102.993 24.4637 103.904 26.5485 103.904 28.8532C103.904 31.1341 102.993 33.213 101.527 34.7217Z" fill="#F05B2B"></path><path d="M120.574 17.4689C120.574 16.7264 120.276 16.073 119.797 15.5919C119.318 15.1108 118.664 14.8197 117.963 14.8197C117.192 14.8197 116.509 15.1226 116.024 15.5978C115.534 16.0789 115.242 16.7323 115.242 17.4689V39.8977C115.242 40.6402 115.539 41.3114 116.03 41.8044C116.521 42.2974 117.198 42.6062 117.963 42.6062C118.653 42.6062 119.307 42.3093 119.792 41.8103C120.276 41.3114 120.574 40.6342 120.574 39.8977V17.4689Z" fill="#F05B2B"></path><path d="M115.247 5.84961C115.247 6.55051 115.539 7.20983 116.035 7.70284C116.532 8.19584 117.209 8.49878 117.975 8.50471C118.664 8.50471 119.318 8.20772 119.803 7.71472C120.288 7.22171 120.58 6.55645 120.58 5.85555V5.55856C120.58 4.78044 120.276 4.11518 119.803 3.62217C119.324 3.13511 118.676 2.84406 117.975 2.84406C117.204 2.84406 116.526 3.14699 116.035 3.62811C115.551 4.11518 115.253 4.78044 115.247 5.55262V5.84961Z" fill="#F05B2B"></path><path d="M139.639 38.0038C139.172 37.5286 138.541 37.2435 137.84 37.2435C137.746 37.2435 137.624 37.2495 137.478 37.2495C137.297 37.2495 137.075 37.2435 136.824 37.1841C136.59 37.1307 136.315 37.0178 136.07 36.7921C136.064 36.7862 136.058 36.7802 136.053 36.7683C136.041 36.7565 136.035 36.7505 136.023 36.7446L136.029 36.7386C135.883 36.602 135.772 36.4476 135.69 36.2931C135.603 36.1209 135.55 35.9546 135.515 35.8001C135.451 35.4972 135.439 35.2418 135.422 35.0577C135.41 34.9329 135.398 34.8438 135.393 34.8141L135.369 34.7072V19.8873H138.132C138.833 19.8873 139.47 19.5963 139.937 19.127C140.404 18.6518 140.684 18.0103 140.69 17.2976C140.69 16.5848 140.404 15.9373 139.937 15.4681C139.47 14.9929 138.839 14.7078 138.132 14.7078H135.369V2.70934C135.369 1.99656 135.083 1.34911 134.622 0.879866C134.154 0.40468 133.523 0.119568 132.823 0.119568C132.122 0.119568 131.485 0.41062 131.024 0.879866C130.556 1.35505 130.276 1.99656 130.276 2.70934V14.6959H126.941C126.24 14.6959 125.603 14.987 125.136 15.4562C124.669 15.9314 124.388 16.5729 124.382 17.2857C124.382 17.9985 124.669 18.6459 125.136 19.1152C125.603 19.5903 126.234 19.8755 126.941 19.8755H130.276V35.4081C130.276 36.1744 130.451 37.0534 130.761 37.8791C131.07 38.7047 131.508 39.4769 131.999 40.0531C133.138 41.3658 134.756 42.1023 136.485 42.3696C136.935 42.4171 137.343 42.4231 137.857 42.4231C138.57 42.4231 139.201 42.1379 139.662 41.6806C140.124 41.2173 140.41 40.5817 140.41 39.8333C140.392 39.1264 140.106 38.479 139.639 38.0038Z" fill="#F05B2B"></path><path d="M150.883 17.4689C150.883 16.7264 150.585 16.073 150.106 15.5919C149.627 15.1108 148.973 14.8197 148.272 14.8197C147.501 14.8197 146.818 15.1226 146.333 15.5978C145.842 16.0789 145.55 16.7323 145.55 17.4689V39.8977C145.55 40.6402 145.848 41.3114 146.339 41.8044C146.829 42.2974 147.507 42.6062 148.272 42.6062C148.961 42.6062 149.616 42.3093 150.1 41.8103C150.585 41.3114 150.883 40.6342 150.883 39.8977V17.4689Z" fill="#F05B2B"></path><path d="M145.55 5.84961C145.55 6.55051 145.842 7.20983 146.339 7.70284C146.835 8.19584 147.513 8.49878 148.278 8.50471C148.967 8.50471 149.621 8.20772 150.106 7.71472C150.591 7.22171 150.883 6.55645 150.883 5.85555V5.55856C150.883 4.78044 150.579 4.11518 150.106 3.62217C149.627 3.13511 148.979 2.84406 148.278 2.84406C147.507 2.84406 146.829 3.14699 146.339 3.62811C145.854 4.11518 145.556 4.78044 145.55 5.55262V5.84961Z" fill="#F05B2B"></path><path d="M174.217 2.83331C172.26 1.01571 169.731 0 167.103 0C164.229 0 161.612 1.19391 159.703 3.12436C157.793 5.06075 156.613 7.7218 156.613 10.6739V25.6601C156.613 30.2516 156.613 34.8966 156.613 39.5475V39.6663C156.613 40.3672 156.905 41.0324 157.39 41.5255C157.874 42.0185 158.528 42.3154 159.218 42.3154C159.948 42.3154 160.614 42.0125 161.098 41.5195C161.589 41.0265 161.881 40.3672 161.881 39.6603V24.0148H168.184C168.884 24.0148 169.539 23.7237 170.018 23.2426C170.497 22.7615 170.794 22.1022 170.794 21.3656C170.794 20.6647 170.502 20.0173 170.023 19.5421C169.544 19.0669 168.89 18.7699 168.184 18.7699H161.881V10.6739C161.881 9.18894 162.459 7.82871 163.4 6.84864C164.34 5.86857 165.654 5.25082 167.097 5.25082C168.47 5.25082 169.708 5.81511 170.648 6.6942C171.168 7.15751 171.811 7.38917 172.453 7.38917C173.148 7.38917 173.826 7.11593 174.34 6.58135C174.778 6.08834 175.006 5.44684 175.006 4.78751C175.012 4.06285 174.743 3.35007 174.217 2.83331Z" fill="#F05B2B"></path><path d="M199 18.0509C199 17.3262 198.72 16.6788 198.27 16.2096C197.82 15.7403 197.207 15.4552 196.506 15.4552C195.881 15.4552 195.268 15.7344 194.812 16.2096C194.356 16.6847 194.07 17.3381 194.07 18.0509V28.5644C194.07 30.7919 193.264 32.8292 191.938 34.3261C190.618 35.8229 188.749 36.7792 186.682 36.7792C184.637 36.7792 182.786 35.817 181.471 34.3261C180.157 32.8292 179.351 30.7919 179.345 28.5704V18.1638C179.345 17.4747 179.065 16.8214 178.615 16.3402C178.16 15.8591 177.558 15.5681 176.904 15.5681C176.25 15.5681 175.648 15.8591 175.198 16.3402C174.749 16.8214 174.468 17.4807 174.468 18.1638V28.5644C174.468 32.2887 175.852 35.6447 178.078 38.0682C180.303 40.4916 183.341 41.9647 186.676 41.9647C188.907 41.9647 190.986 41.3173 192.75 40.2837L194.064 39.5116V43.4378C194.064 45.7959 193.142 47.9521 191.652 49.5142C190.163 51.0764 188.095 52.0565 185.817 52.0565C183.434 52.0565 181.144 50.9457 179.556 49.0747L179.544 49.0628L179.538 49.0509C179.042 48.4273 178.358 48.1243 177.675 48.1243C177.12 48.1243 176.577 48.3263 176.127 48.748C175.566 49.2707 175.268 50.0132 175.268 50.7616C175.268 51.3734 175.467 51.9733 175.864 52.4545C178.393 55.5135 181.968 57.2479 185.823 57.2479C189.427 57.2479 192.715 55.7036 195.116 53.1969C197.511 50.6903 199 47.2393 199 43.4378V18.0509Z" fill="#F05B2B"></path><path fill-rule="evenodd" clip-rule="evenodd" d="M31.2244 38.0118C29.1517 36.1458 26.3784 35.4408 23.827 35.8496C20.1137 36.1043 16.8908 34.1553 15.5188 31.4362C14.7714 30.1507 14.3394 28.6638 14.3394 27.0643C14.3394 22.953 17.1769 19.5171 20.9719 18.6462C21.8886 18.3974 22.8636 18.273 23.8562 18.3204C26.1332 18.6344 28.5387 18.1249 30.1851 16.8039C32.8183 14.7601 32.5614 11.5907 29.7939 9.73061C27.1257 7.9771 22.9979 7.98895 20.3531 9.74838C18.6949 10.8858 18.0001 12.4971 18.2687 14.0433C18.4205 17.4318 14.135 20.696 9.54013 20.5419C7.36237 20.2872 4.91019 20.9151 2.96013 22.408C1.10932 23.8535 0.0759007 25.8084 0 27.6981V28.1484C0.0525466 29.3983 0.531305 30.6009 1.47714 31.5843C3.10025 33.2252 5.61081 33.8413 8.10386 33.403C13.2242 33.0061 17.5214 37.1469 16.9492 42.212C16.3654 44.7948 17.0601 47.6324 19.1153 49.7532C22.5717 53.2839 28.311 53.3195 31.709 49.8125C34.9902 46.418 34.6749 41.1279 31.2244 38.0118Z" fill="#28AAE1"></path></svg>