<?xml version="1.0" encoding="UTF-8"?>
<svg id="Layer_1" data-name="Layer 1" xmlns="http://www.w3.org/2000/svg" viewBox="0 0 67 21">
  <defs>
    <style>
      .cls-1 {
        fill: #000000;
      }

      .cls-1, .cls-2 {
        stroke-width: 0px;
      }

      .cls-2 {
        fill: #000000;
      }
    </style>
  </defs>
  <g id="Layer_2" data-name="Layer 2">
    <g id="Layer_1-2" data-name="Layer 1-2">
      <path class="cls-1" d="M15.33,12.03c.74.11,1.47-.06,2.07-.49l.83,1.17c-.28.34-1.53.94-2.79.94-3.62.11-3.13-3.27-3.13-3.27.05-.75.92-3.63,4.38-3.43,3.43.18,2.13,3.97,2.13,3.97h-4.71s-.05.94,1.21,1.12ZM14.39,9.54h3.02s.09-1.01-1.33-1.01c-.71-.02-1.35.38-1.69,1.01Z"/>
      <path class="cls-2" d="M22.03,7.12h-1.73l-1.13,6.39h1.87l.57-3.31c.06-.35.21-.69.46-.95.21-.25.51-.41.81-.49.97-.26,1.44.25,1.44.25l1.04-1.46c-.37-.38-.87-.6-1.41-.6-.92,0-1.49.43-1.9.86l-.02-.69Z"/>
      <path class="cls-2" d="M27.82,7.12h-1.73l-1.12,6.39h1.87l.57-3.31c.06-.35.21-.69.46-.95.21-.25.51-.41.81-.49.97-.26,1.44.25,1.44.25l1.04-1.46c-.37-.38-.87-.6-1.41-.6-.92,0-1.49.43-1.9.86l-.03-.69Z"/>
      <path class="cls-2" d="M36.52,7.12h1.78l-1.17,6.39h-1.66l.02-.78c-.78.78-1.55.92-2.38.92-1.72-.02-2.7-1.41-2.48-3.28.21-1.81,1.69-3.22,3.5-3.36,1.82-.12,2.21.84,2.21.84l.18-.74ZM35.9,10.23s.25-1.61-1.41-1.62c-1.81-.02-1.99,1.79-1.99,1.79,0,0-.26,1.61,1.5,1.59,1.69-.02,1.9-1.76,1.9-1.76h0Z"/>
      <path class="cls-2" d="M11.02,7.11c.17-.98.31-1.75.31-1.75l-1.9.2-.28,1.55h-1.55l-.23,1.55h1.52l-.46,2.65s-.18,1.09.18,1.59,1.06,1.09,3.2.46l-.14-1.53s-1.21.49-1.38-.23c-.05-.21-.03-.43.03-.64.03-.11.08-.46.25-1.38l-.35-.9h1.29c.9,0,1.67-.64,1.82-1.53h-2.3l-.02-.03Z"/>
      <polygon class="cls-1" points="10.58 9.56 7.37 8.65 10.21 8.65 10.58 9.56"/>
      <path class="cls-2" d="M44.56,7.32c.43.23.77.57,1.01,1,.26.48.38,1,.37,1.53.02.66-.15,1.32-.48,1.9-.61,1.12-1.79,1.82-3.07,1.81-.98,0-1.66-.32-2.07-.95l-.61,3.14h-1.85l1.73-8.69h1.76l-.14.63c.54-.49,1.24-.75,1.96-.72.48,0,.95.12,1.38.35ZM43.17,11.75c.29-.18.52-.44.66-.74.17-.34.25-.72.25-1.09.02-.38-.12-.75-.38-1.03-.29-.26-.67-.4-1.07-.38-.34,0-.67.09-.97.26-.29.18-.52.44-.66.74-.17.34-.25.72-.25,1.09-.02.38.12.75.38,1.03.29.28.67.4,1.07.38.34.02.67-.09.97-.26Z"/>
      <path class="cls-2" d="M54.02,7.06l-1.27,6.39h-1.76l.12-.63c-.92.8-2.25.95-3.34.38-.41-.23-.77-.57-1-1-.26-.46-.38-1-.37-1.53-.02-.66.15-1.32.48-1.9.29-.55.74-1.01,1.27-1.33s1.15-.49,1.78-.48c.98,0,1.67.32,2.07.97l.17-.86,1.85-.02ZM50.71,11.75c.29-.18.52-.44.66-.74.17-.34.25-.72.23-1.09.02-.38-.12-.75-.38-1.03-.29-.26-.67-.4-1.07-.38-.69-.02-1.33.38-1.64,1.01-.17.34-.25.72-.23,1.09-.02.38.12.75.38,1.03.29.26.67.4,1.07.38.34,0,.67-.09.98-.28Z"/>
      <path class="cls-2" d="M61.84,7.06l-4.25,6.81c-.46.74-.9,1.26-1.33,1.55-.48.29-1.03.44-1.58.43-.34,0-.66-.05-.98-.15-.28-.08-.54-.21-.75-.4l.86-1.33c.28.26.64.4,1.03.38.21,0,.43-.06.61-.18.21-.17.4-.38.54-.61l.06-.11-1.47-6.39h1.85l.95,4.35,2.65-4.34h1.81Z"/>
    </g>
  </g>
</svg>
