<?xml version="1.0" encoding="UTF-8"?>
<svg id="Layer_1" data-name="Layer 1" xmlns="http://www.w3.org/2000/svg" viewBox="0 0 67 21">
  <defs>
    <style>
      .cls-1 {
        fill: #000000;
        stroke-width: 0px;
      }
    </style>
  </defs>
  <path class="cls-1" d="M34.49,17.41c-2.03,0-3.85-1.06-5.11-2.75v1c.18,2.11,2.51,3.81,5.11,3.81s4.95-1.65,5.11-3.81v-1c-1.26,1.69-3.08,2.75-5.11,2.75Z"/>
  <path class="cls-1" d="M38.91,2.88c-1.34,0-2.55.69-3.39,1.8v-.65c.12-1.38,1.66-2.49,3.39-2.49s3.28,1.08,3.39,2.49v.65c-.83-1.1-2.04-1.8-3.39-1.8Z"/>
  <circle class="cls-1" cx="24.45" cy="3.96" r="1.1"/>
  <path class="cls-1" d="M38.82,13.38c-1,0-1.91-.43-2.55-1.1h0c-.64-.67-1.04-1.6-1.04-2.6h0v-.59c0-1.01.4-1.93,1.04-2.6h0c.64-.67,1.55-1.1,2.55-1.1h0c1,0,1.91.43,2.55,1.1h0c.64.67,1.04,1.6,1.04,2.6h0v.59h0c0,1.01-.4,1.93-1.04,2.6h0c-.64.67-1.55,1.1-2.55,1.1h0ZM37.62,7.76c-.32.33-.52.8-.52,1.32h0v.59c0,.52.2.98.52,1.32h0c.32.33.74.53,1.21.53h0c.46,0,.88-.19,1.21-.53h0c.32-.33.52-.8.52-1.32h0v-.59c0-.52-.2-.98-.52-1.32h0c-.32-.33-.74-.53-1.21-.53h0c-.46,0-.88.19-1.21.53h0Z"/>
  <path class="cls-1" d="M22.05,11.54c-.31.2-.74.25-1.07.28,0,0-1,.08-1.28-.38-.12-.15-.2-.45-.2-.65v-3.36c2.16,0,2.63.08,2.62-1.65h-2.61v-1.71h0s-.04,0-.06,0c-1,0-1.81.81-1.81,1.69v5.05c0,1.43,1.16,2.59,2.6,2.6h.23c1.5-.02,1.59-.87,1.59-1.84Z"/>
  <path class="cls-1" d="M26.84,11.87s-1.06.18-1.34-.29c-.12-.15-.2-.54-.2-.75v-3.99c-.08-.55-.62-.87-1.8-.86-.02,0-.04,0-.06,0h0v5.24c0,1.43,1,2.1,1.99,2.15h.39c.88-.04,1.03-.59,1.03-1.51Z"/>
  <path class="cls-1" d="M33.84,9.51c-.29-.14-.71-.21-1.28-.2-.02,0-.04,0-.06,0h0v2.27c-.14.2-.58.17-.9.17-.71,0-1.34-.3-1.75-.76-.31-.35-.5-.79-.5-1.28,0-.01,0-.02,0-.03,0,0,0-.01,0-.02v-.59c0-.21.04-.41.1-.6.09-.27.24-.51.44-.71.11-.11.23-.22.36-.32.17-.14.37-.27.57-.34.04-.01.08-.03.12-.04,0,0,0,0,0,0,.32-.09.68-.15,1.06-.15.74,0,1.4.2,1.87.51.13.08.25.17.35.27v-.59c-.05-.88-.63-1.47-1.36-1.67-.19-.05-.78-.08-.98-.08h-.5c-2.04,0-3.9,1.66-3.9,3.71v.59c0,2.04,1.66,3.7,3.71,3.71h.7c.14,0,.28-.01.42-.03.3-.05.78-.15,1.03-.3.62-.36,1.04-.88,1.02-1.89v-.99c-.04-.29-.21-.51-.53-.66Z"/>
</svg>
