<?xml version="1.0" encoding="UTF-8"?>
<svg id="Layer_1" data-name="Layer 1" xmlns="http://www.w3.org/2000/svg" viewBox="0 0 67 21">
  <defs>
    <style>
      .cls-1 {
        fill: #000000;
        stroke-width: 0px;
      }
    </style>
  </defs>
  <g id="g14278">
    <g id="g14258">
      <path class="cls-1" d="M19.94,10.08c0,3.62-2.94,6.56-6.56,6.56-3.62-.01-6.55-2.94-6.55-6.56s2.93-6.56,6.55-6.56c.99,0,1.93.22,2.77.62-.11-.03-.28-.04-.43-.04-1.36.01-2.87.59-3.97,1.5-1.12.93-2,2.5-2,4.13.01,2.47,1.88,4.01,3.69,4,2.22,0,3.53-1.83,3.53-3.5-.01-1.67-.91-2.87-2.91-3.36,0-.02-.01-.06-.01-.1,0-1.26.94-2.36,2.13-2.62,2.22,1.05,3.76,3.31,3.76,5.93Z"/>
    </g>
    <path id="polygon14260" class="cls-1" d="M23.48,8.01l1.25,3.17,1.21-3.17h1.25l-1.95,4.78h-1.07l-2-4.78h1.31Z"/>
    <g id="g14270">
      <path id="path14262" class="cls-1" d="M31.74,9.47c-.09-.3-.24-.56-.43-.8-.19-.23-.43-.42-.71-.56-.29-.15-.62-.22-1-.22s-.72.08-1.01.22c-.29.14-.53.33-.72.56-.19.24-.33.5-.42.8-.1.3-.15.6-.15.91s.05.62.15.92c.09.3.24.57.42.81.19.24.43.43.72.58.29.14.62.21,1.01.21s.72-.07,1-.21c.29-.15.53-.34.72-.58s.33-.51.42-.81c.1-.3.15-.61.15-.92s-.05-.61-.15-.91ZM30.61,10.95c-.05.18-.12.33-.21.46-.09.14-.2.24-.34.32-.13.07-.28.11-.46.11s-.34-.04-.48-.11c-.13-.08-.24-.18-.33-.32-.09-.13-.16-.28-.21-.46-.04-.18-.07-.37-.07-.57s.03-.39.07-.57c.05-.18.12-.33.21-.47.09-.12.21-.23.34-.3.13-.08.29-.12.47-.12s.33.04.46.12c.13.07.24.17.34.3.09.14.16.29.21.47.04.18.07.37.07.57s-.03.39-.07.57Z"/>
      <path id="path14264" class="cls-1" d="M35.58,6.18v1.85c-.29-.09-.56-.14-.81-.14-.38,0-.71.08-1,.22-.28.14-.52.33-.71.56-.18.24-.32.51-.42.8-.09.3-.13.61-.13.92,0,.33.04.64.13.95.09.3.22.57.39.8.17.23.38.42.63.56.25.13.55.2.88.2.25,0,.46-.04.65-.14.18-.1.33-.21.44-.33l.05.37h1.13v-6.62h-1.23ZM35.59,11.43c-.07.12-.18.22-.34.3-.16.08-.31.12-.46.12-.19,0-.35-.04-.48-.12-.14-.08-.25-.19-.34-.33-.09-.14-.15-.29-.2-.48-.04-.18-.06-.37-.06-.57,0-.18.02-.35.07-.52.05-.17.12-.33.22-.46.1-.14.23-.24.38-.33.15-.08.33-.12.54-.12s.43.05.66.14h.01v2.37Z"/>
      <path id="path14266" class="cls-1" d="M41.37,8.89c-.09-.23-.22-.42-.37-.57-.16-.15-.35-.25-.57-.32-.22-.07-.46-.11-.73-.11-.22,0-.43.03-.63.07-.19.04-.37.09-.52.16-.16.06-.29.12-.4.19-.11.07-.19.12-.24.17l.4.86s.11-.08.19-.13c.07-.05.16-.1.26-.15.1-.05.21-.09.34-.13.12-.03.26-.05.4-.05.24,0,.43.06.56.17.14.11.21.3.21.57v.07c-.13.01-.29.03-.48.04-.19.02-.36.04-.52.08-.23.04-.44.1-.65.17-.2.08-.39.19-.55.31-.15.13-.28.28-.37.46-.09.19-.14.4-.14.63s.04.46.13.64c.09.19.21.35.36.48.14.13.31.23.5.3s.39.1.59.1c.25,0,.47-.04.68-.12.21-.08.37-.2.51-.35l.05.36h1.12v-3.07c0-.33-.04-.6-.13-.83ZM40.28,11.53c-.11.1-.24.18-.38.25-.15.06-.31.09-.47.09-.21,0-.38-.04-.49-.14-.12-.1-.18-.22-.18-.38s.05-.3.15-.42c.11-.14.29-.23.56-.28.13-.02.26-.05.4-.06.14-.02.28-.03.41-.04v.98Z"/>
      <path id="path14268" class="cls-1" d="M46.25,12.36s-.12.08-.22.14-.22.12-.37.17c-.15.05-.32.1-.52.14-.2.04-.42.06-.67.06-.29,0-.57-.05-.83-.15s-.5-.25-.71-.45c-.21-.2-.37-.46-.49-.77-.12-.31-.18-.67-.18-1.09s.06-.79.18-1.1c.12-.32.28-.58.48-.79.2-.21.44-.37.7-.47.26-.1.54-.15.83-.15s.52.04.73.11c.21.07.39.16.54.27.15.11.27.23.37.36.09.13.17.26.23.37l-.91.61c-.1-.17-.22-.33-.37-.48-.15-.15-.34-.22-.58-.22-.26,0-.49.12-.69.35-.19.23-.29.59-.29,1.09s.1.83.29,1.08c.2.25.48.38.86.38.18,0,.34-.02.48-.05.14-.04.26-.08.37-.13.1-.05.19-.1.26-.15s.12-.1.15-.13l.35,1Z"/>
    </g>
    <g id="g14276">
      <path id="path14272" class="cls-1" d="M51.08,9.47c-.09-.3-.24-.56-.43-.8-.19-.23-.42-.42-.71-.56-.28-.14-.61-.21-.99-.21s-.71.07-1,.21c-.29.14-.52.33-.71.56-.18.24-.33.5-.42.8-.1.29-.14.59-.14.9s.05.62.14.91c.09.3.23.57.42.81.19.23.42.42.71.57.29.14.62.21,1,.21s.71-.07,1-.21c.29-.15.52-.34.71-.57.18-.24.32-.51.42-.81.1-.29.14-.6.14-.91s-.04-.61-.14-.9ZM49.95,10.94c-.04.17-.11.32-.2.45-.1.14-.21.24-.34.32-.13.07-.28.11-.46.11s-.33-.04-.47-.11c-.13-.08-.24-.18-.33-.32-.09-.13-.15-.28-.2-.45-.05-.18-.07-.37-.07-.57s.02-.39.07-.57c.04-.17.11-.33.2-.46.1-.12.21-.22.34-.3s.29-.12.46-.12c.18,0,.33.04.46.12.14.08.25.18.34.3.09.13.16.29.2.46.05.18.07.37.07.57s-.02.39-.07.57Z"/>
      <path id="path14274" class="cls-1" d="M57.77,12.77v-2.79c0-.32-.06-.57-.18-.76-.12-.19-.34-.29-.66-.29-.09,0-.19.02-.28.04-.09.03-.19.06-.27.1-.09.04-.16.08-.23.12s-.12.08-.16.11c.01.08.03.17.04.27.01.1.02.21.02.33v2.87h-1.22v-2.79c0-.14-.01-.28-.03-.41s-.07-.24-.12-.33c-.06-.09-.14-.17-.23-.23-.09-.05-.21-.08-.36-.08-.19,0-.36.05-.52.15s-.3.2-.41.32v3.38h-1.22v-4.75h1.12l.05.35c.15-.13.32-.24.54-.33.21-.09.43-.14.65-.14s.45.03.67.1c.22.07.43.19.62.36.22-.13.46-.24.71-.33.26-.09.54-.13.83-.13.35,0,.65.05.89.14s.43.22.58.39c.15.17.25.38.31.63s.09.53.09.86v2.85h-1.22Z"/>
    </g>
  </g>
</svg>
