<svg xmlns="http://www.w3.org/2000/svg" viewBox="0 0 32.13 32.13"><defs><style>.a{fill:#0280ff;stroke:#fff;stroke-miterlimit:10;}.b{fill:#fff;}</style></defs><circle class="a" cx="16.07" cy="16.07" r="15.57"/><path class="b" d="M20.92,9.33h-.49a1,1,0,0,0-.64.21l-2.8,2a1,1,0,0,1-.58.18H9.2a1.51,1.51,0,0,0-1.52,1.53V17A1.51,1.51,0,0,0,9.2,18.47h3.45l-.34.61h-.78a1.1,1.1,0,0,0-1.1,1.1v2.25s0,0,0,.06l-.89,1.62a.27.27,0,0,0,0,.3.3.3,0,0,0,.27.16h2.44a.33.33,0,0,0,.28-.16l3.26-5.94h.55a.9.9,0,0,1,.54.18l1.26.89s0,0,0,0l1.22.85h0l.37.26a.93.93,0,0,0,.64.22h.49a1.1,1.1,0,0,0,1.1-1.1V10.42A1.09,1.09,0,0,0,20.92,9.33ZM11,20.18a.48.48,0,0,1,.49-.49v0H12l-.81,1.49-.14.24V20.18Zm1,3.78H10.34l.72-1.32a.16.16,0,0,0,.07-.09l1.65-3a.13.13,0,0,0,0-.08l.55-1H15.1Zm6.58-4.82v-8l.44-.33.17-.12v8.9ZM8.29,17V13.29a.9.9,0,0,1,.91-.92h2.45v5.49H9.2A.9.9,0,0,1,8.29,17Zm8.06.91H12.26V12.37h4.18a1.65,1.65,0,0,0,.91-.3l.7-.51v7.16l-.79-.55A1.4,1.4,0,0,0,16.35,17.86Zm5.06,1.95a.48.48,0,0,1-.49.49h-.49a.48.48,0,0,1-.27-.09l-.28-.2V10.23l.28-.2a.42.42,0,0,1,.27-.09h.49a.48.48,0,0,1,.49.48v9.39Z"/><path class="b" d="M22.93,11.76a.27.27,0,0,0,.21-.09l.92-.91a.3.3,0,0,0-.43-.43l-.91.92a.3.3,0,0,0,.21.51Z"/><path class="b" d="M23.14,18.56a.29.29,0,0,0-.42,0,.29.29,0,0,0,0,.43l.91.91a.27.27,0,0,0,.21.09.28.28,0,0,0,.22-.09.29.29,0,0,0,0-.42Z"/><path class="b" d="M24.15,14.81H22.93a.31.31,0,0,0,0,.61h1.22a.31.31,0,0,0,0-.61Z"/><path class="b" d="M14.7,15.42h.91a.31.31,0,1,0,0-.61H14.7a.31.31,0,0,0,0,.61Z"/></svg>