<svg xmlns="http://www.w3.org/2000/svg" viewBox="0 0 32.13 32.13"><defs><style>.a{fill:#22cc6c;}.a,.b{stroke:#fff;stroke-miterlimit:10;}.b,.c{fill:#fff;}.b{stroke-width:0.15px;}</style></defs><circle class="a" cx="16.07" cy="16.07" r="15.57"/><path class="b" d="M13.72,17h-.05a3.15,3.15,0,0,1-1.6-1.15,5.3,5.3,0,0,1-.81-1.65,7.82,7.82,0,0,1-.33-2.1.18.18,0,0,1,.17-.18,6.15,6.15,0,0,0,2.51-.9.18.18,0,0,1,.22,0,6.17,6.17,0,0,0,2.52.9.19.19,0,0,1,.17.18,7.82,7.82,0,0,1-.33,2.1,5.3,5.3,0,0,1-.81,1.65A3.24,3.24,0,0,1,13.78,17Zm-2.41-4.74a8.07,8.07,0,0,0,.32,1.83,3.49,3.49,0,0,0,2.09,2.52A3.48,3.48,0,0,0,15.82,14a7.26,7.26,0,0,0,.31-1.82,6.14,6.14,0,0,1-2.41-.87A6,6,0,0,1,11.31,12.22Z"/><path class="b" d="M13.46,14.65a.2.2,0,0,1-.11-.06l-.59-.69a.19.19,0,0,1,.29-.25l.45.54L14.76,13A.19.19,0,0,1,15,13a.2.2,0,0,1,0,.27L13.62,14.6a.19.19,0,0,1-.14.05Z"/><path class="c" d="M17.64,9.83a5.55,5.55,0,0,0-7.84,0,5.55,5.55,0,0,0,3.92,9.47,5.55,5.55,0,0,0,3.92-9.47Zm-.37,7.47a5,5,0,0,1-7.1,0,5,5,0,1,1,7.1,0Z"/><path class="c" d="M24.2,22l-3.69-3.69-.46.46-.93-.93a6.76,6.76,0,1,0-1.29,1.29l.93.93-.46.46L22,24.23a1.56,1.56,0,0,0,1.1.45,1.58,1.58,0,0,0,1.11-.45A1.56,1.56,0,0,0,24.2,22Zm-6.06-3.85,0,0a4.18,4.18,0,0,1-.44.4l0,0a6.24,6.24,0,0,1-8.36-.44,6.25,6.25,0,0,1,8.84-8.84,6.24,6.24,0,0,1,.44,8.36l0,0a5.08,5.08,0,0,1-.38.43Zm.1.64h0l.12-.11,0,0,.14-.13a.8.8,0,0,1,.13-.13l0,0,.11-.12h0l.9.89-.55.55Zm5.58,5a1,1,0,0,1-.73.31,1,1,0,0,1-.73-.31l-3.31-3.31,1.46-1.46.61.61-.9.9.38.38.9-.9,2.32,2.32A1,1,0,0,1,23.82,23.85Z"/></svg>