<svg xmlns="http://www.w3.org/2000/svg" viewBox="0 0 32.13 32.13"><defs><style>.a{fill:#9e39ff;}.a,.b,.c{stroke:#fff;}.a,.c{stroke-miterlimit:10;}.b,.c{fill:none;stroke-width:0.75px;}.b{stroke-linecap:round;stroke-linejoin:round;}</style></defs><circle class="a" cx="16.07" cy="16.07" r="15.57"/><path class="b" d="M23.29,10.17H8.85a1.59,1.59,0,0,0-1.59,1.58v8.63A1.59,1.59,0,0,0,8.85,22H23.29a1.59,1.59,0,0,0,1.58-1.59V11.75A1.58,1.58,0,0,0,23.29,10.17Z"/><rect class="c" x="8.95" y="12.02" width="4.49" height="2.81" rx="0.88"/><line class="b" x1="11.31" y1="19.46" x2="9.43" y2="19.46"/><line class="b" x1="15.07" y1="19.46" x2="13.19" y2="19.46"/><line class="b" x1="18.84" y1="19.46" x2="16.96" y2="19.46"/><line class="b" x1="22.6" y1="19.46" x2="20.72" y2="19.46"/><line class="b" x1="17.71" y1="17.16" x2="9.43" y2="17.16"/></svg>