<svg xmlns="http://www.w3.org/2000/svg" viewBox="0 0 32.13 32.13"><defs><style>.a{fill:#ff9c00;stroke:#fff;stroke-miterlimit:10;}.b{fill:#fff;}</style></defs><circle class="a" cx="16.07" cy="16.07" r="15.57"/><path class="b" d="M14.89,14.4a.25.25,0,0,0-.28.23l-.15,1.3a.3.3,0,0,0,.06.2.28.28,0,0,0,.2.08h.69l-.49,2a.24.24,0,0,0,.13.29.27.27,0,0,0,.12,0,.25.25,0,0,0,.19-.09l2.59-3a.28.28,0,0,0,0-.28.27.27,0,0,0-.24-.15H16.69l1-1.88a.26.26,0,0,0-.23-.38H15.05a.25.25,0,0,0-.25.23l-.1.88a.25.25,0,0,0,.22.29.27.27,0,0,0,.29-.23l.07-.65H17L16,15.1a.25.25,0,0,0,0,.25.26.26,0,0,0,.22.13h.94l-1.52,1.77L16,16a.28.28,0,0,0-.05-.22.26.26,0,0,0-.2-.1H15l.12-1A.26.26,0,0,0,14.89,14.4Z"/><path class="b" d="M21.27,15.51A5.24,5.24,0,0,0,12.15,12a.31.31,0,1,0,.46.42,4.62,4.62,0,1,1,5.76,7.09,1.24,1.24,0,0,0-.33,0H14a1.24,1.24,0,0,0-.33,0,4.61,4.61,0,0,1-1.6-6.39.32.32,0,0,0-.1-.43.31.31,0,0,0-.43.1,5.17,5.17,0,0,0-.77,2.73,5.26,5.26,0,0,0,2.29,4.34,1.35,1.35,0,0,0-.38.93,1.3,1.3,0,0,0,.47,1A1.33,1.33,0,0,0,14,24.13h.38a1.66,1.66,0,0,0,3.26,0H18a1.33,1.33,0,0,0,.85-2.34,1.3,1.3,0,0,0,.47-1,1.35,1.35,0,0,0-.38-.93A5.23,5.23,0,0,0,21.27,15.51ZM16,24.85a1,1,0,0,1-1-.72h2A1,1,0,0,1,16,24.85Zm1.51-3.37a.31.31,0,0,0-.31.31.31.31,0,0,0,.31.31H18a.7.7,0,1,1,0,1.4H14a.7.7,0,0,1,0-1.4h2.53a.31.31,0,0,0,.31-.31.31.31,0,0,0-.31-.31H14a.7.7,0,0,1,0-1.4h4a.7.7,0,1,1,0,1.4Z"/><path class="b" d="M24.12,15.2H22.29a.32.32,0,1,0,0,.63h1.83a.32.32,0,0,0,0-.63Z"/><path class="b" d="M10.09,15.51a.31.31,0,0,0-.31-.31H7.94a.32.32,0,0,0,0,.63H9.78A.31.31,0,0,0,10.09,15.51Z"/><path class="b" d="M21.52,13.24a.31.31,0,0,0,.29.19l.12,0,1.69-.7a.31.31,0,0,0,.17-.41.31.31,0,0,0-.41-.17l-1.69.7A.32.32,0,0,0,21.52,13.24Z"/><path class="b" d="M10.54,17.79a.31.31,0,0,0-.41-.17l-1.69.7a.31.31,0,0,0-.17.41.3.3,0,0,0,.29.19l.12,0,1.69-.7A.31.31,0,0,0,10.54,17.79Z"/><path class="b" d="M20.45,11.4a.35.35,0,0,0,.23-.09L22,10a.31.31,0,1,0-.44-.44l-1.3,1.3a.31.31,0,0,0,0,.44A.31.31,0,0,0,20.45,11.4Z"/><path class="b" d="M11.39,19.72,10.09,21a.31.31,0,0,0,0,.44.29.29,0,0,0,.44,0l1.3-1.29a.31.31,0,0,0,0-.44A.3.3,0,0,0,11.39,19.72Z"/><path class="b" d="M18.73,9l.12,0a.31.31,0,0,0,.29-.2l.28-.66a.32.32,0,0,0-.17-.41.31.31,0,0,0-.41.17l-.28.67A.31.31,0,0,0,18.73,9Z"/><path class="b" d="M18.31,10a.2.2,0,0,0,.11,0,.31.31,0,0,0,.29-.2l.07-.16a.31.31,0,0,0-.58-.24l-.06.16A.31.31,0,0,0,18.31,10Z"/><path class="b" d="M16,9.57a.31.31,0,0,0,.31-.31V7.42a.31.31,0,0,0-.62,0V9.26A.31.31,0,0,0,16,9.57Z"/><path class="b" d="M13.35,9.85a.31.31,0,0,0,.29.2l.12,0a.32.32,0,0,0,.17-.41l-.71-1.69a.3.3,0,0,0-.4-.17.31.31,0,0,0-.17.41Z"/><path class="b" d="M11.39,11.31a.31.31,0,0,0,.44,0,.31.31,0,0,0,0-.44l-1.3-1.3a.31.31,0,1,0-.44.44Z"/><path class="b" d="M20.68,19.72a.31.31,0,0,0-.45,0,.31.31,0,0,0,0,.44l1.3,1.29a.29.29,0,0,0,.44,0A.31.31,0,0,0,22,21Z"/><path class="b" d="M8.44,12.71l1.69.7.12,0a.31.31,0,0,0,.12-.6l-1.69-.7a.31.31,0,0,0-.41.17A.31.31,0,0,0,8.44,12.71Z"/><path class="b" d="M23.62,18.32l-1.69-.7a.31.31,0,0,0-.41.17.32.32,0,0,0,.17.41l1.69.7.12,0a.3.3,0,0,0,.29-.19A.31.31,0,0,0,23.62,18.32Z"/></svg>